<svg  viewBox="0 0 600 600" fill="none" xmlns="http://www.w3.org/2000/svg">
<mask id="mask0" mask-type="alpha" maskUnits="userSpaceOnUse" x="89" y="20" width="422" height="560">
<path fill-rule="evenodd" clip-rule="evenodd" d="M89 20H510.171V580H89V20Z" fill="white"/>
</mask>
<g mask="url(#mask0)">
<path fill-rule="evenodd" clip-rule="evenodd" d="M497.267 567.201H101.902V255.69H142.846V188.731C143.202 102.769 213.634 32.8358 299.867 32.8358C386.063 32.8358 456.201 103.037 456.201 189.353L456.41 255.69H497.267V567.201ZM469.252 242.891L469.105 188.695C468.761 95.6743 392.841 20 299.868 20C206.171 20 129.943 95.9547 129.943 189.316V242.891H89V580H510.171V242.891H469.252Z" fill="#F3652B"/>
</g>
<path fill-rule="evenodd" clip-rule="evenodd" d="M183.823 242.901V188.718C183.823 125.306 235.73 73.7068 299.533 73.7068C363.336 73.7068 415.242 125.306 415.242 188.73L415.316 242.901H183.823ZM299.533 60.9078C228.609 60.9078 170.92 118.237 170.92 188.718V255.701H428.256L428.133 188.718C428.133 118.237 370.444 60.9078 299.533 60.9078Z" fill="#F3652B"/>
<path fill-rule="evenodd" clip-rule="evenodd" d="M333.135 486.365H266.042L282.812 404.632L282.64 400.89L279.976 399.061C270.719 392.723 265.195 382.3 265.195 371.171C265.195 352.448 280.504 337.223 299.337 337.223C318.194 337.223 333.528 352.448 333.528 371.171C333.528 382.118 328.138 392.455 318.28 399.391L315.64 401.231L333.135 486.365ZM346.432 371.172C346.432 345.402 325.304 324.424 299.338 324.424C273.41 324.424 252.293 345.402 252.293 371.172C252.293 384.995 258.555 398.16 269.186 407.01L250.231 499.165H348.9L329.92 406.656C340.306 397.806 346.432 384.775 346.432 371.172Z" fill="#F3652B"/>
</svg>
