<svg  viewBox="0 0 60 60" fill="none" xmlns="http://www.w3.org/2000/svg">
<path d="M1.68 56.62L17.3904 29.19C17.7704 29.36 18.1904 29.47 18.6504 29.47C19.7404 29.47 20.6804 28.9 21.1904 28.06L36.2604 33.61C36.2504 33.68 36.2404 33.74 36.2404 33.81C36.2404 35.35 37.5604 36.61 39.1804 36.61C40.8004 36.61 42.1204 35.35 42.1204 33.81C42.1204 33.13 41.8504 32.51 41.4304 32.02L57.8904 8.42L57.8304 15.84L59.0304 15.85L59.1104 5.38L49.4804 10.44L50.0404 11.5L56.7304 7.99L40.4504 31.3C40.0604 31.12 39.6304 31 39.1604 31C38.0504 31 37.1004 31.59 36.6004 32.46L21.5504 26.92C21.5604 26.84 21.5804 26.76 21.5804 26.67C21.5804 25.12 20.2604 23.87 18.6404 23.87C17.0204 23.87 15.7004 25.13 15.7004 26.67C15.7004 27.36 15.9704 27.99 16.4104 28.48L1.2 55.11V2H0V57.82H59.5804V56.62H1.68ZM37.4204 33.8C37.4204 33.46 37.5404 33.14 37.7404 32.88C38.0604 32.47 38.5704 32.2 39.1604 32.2C39.3704 32.2 39.5604 32.24 39.7504 32.3C40.1604 32.44 40.4904 32.7 40.6904 33.05C40.8204 33.28 40.9004 33.53 40.9004 33.8C40.9004 34.68 40.1204 35.4 39.1604 35.4C38.2904 35.4 37.5804 34.81 37.4504 34.05C37.4404 33.97 37.4204 33.89 37.4204 33.8ZM16.9004 26.67C16.9004 25.79 17.6804 25.07 18.6404 25.07C19.5304 25.07 20.2604 25.69 20.3604 26.48C20.3704 26.54 20.3804 26.61 20.3804 26.67C20.3804 27.03 20.2404 27.36 20.0204 27.63C19.7004 28.02 19.2004 28.27 18.6404 28.27C18.4204 28.27 18.2104 28.23 18.0204 28.16C17.6104 28.02 17.2804 27.74 17.0904 27.38C16.9704 27.17 16.9004 26.93 16.9004 26.67Z" fill="#F3652B"/>
</svg>
