<svg  viewBox="0 0 600 600" fill="none" xmlns="http://www.w3.org/2000/svg">
<path fill-rule="evenodd" clip-rule="evenodd" d="M348.721 258.202H391.889V215.388H348.721V258.202ZM363.412 328.05H334.919V356.325H265.139V328.05H236.687V271.978H265.139V243.676H334.919V271.978H363.412V328.05ZM348.734 384.586H391.902V341.772H348.734V384.586ZM208.18 384.586H251.348V341.772H208.18V384.586ZM208.18 258.202H251.348V215.388H208.18V258.202ZM265.138 229.954V201.666H194.417V271.978H222.896V328.05H194.417V398.362H265.138V370.074H334.918V398.362H405.652V328.05H377.201V271.978H405.652V201.666H334.918V229.954H265.138Z" fill="#F3652B"/>
<mask id="mask0" mask-type="alpha" maskUnits="userSpaceOnUse" x="38" y="20" width="525" height="560">
<path fill-rule="evenodd" clip-rule="evenodd" d="M38 20H562.096V580H38V20Z" fill="white"/>
</mask>
<g mask="url(#mask0)">
<path fill-rule="evenodd" clip-rule="evenodd" d="M518.137 316.903C500.518 374.597 476.195 423.91 445.836 463.468C411.279 508.53 316.399 558.075 300.02 565.679C283.655 558.048 188.707 508.421 154.232 463.468C123.886 423.924 99.5633 374.61 81.9308 316.903C56.5041 233.632 52.4843 141.191 51.8575 117.114C82.0126 113.639 210.809 95.6657 293.929 35.7508C297.568 33.1073 302.514 33.1073 306.152 35.7508C389.341 95.7202 517.905 111.649 548.197 114.647C547.611 139.093 543.754 232.978 518.137 316.903ZM560.761 101.881L555.705 101.499C549.573 101.049 404.303 89.5487 314.247 24.592C305.757 18.4737 294.325 18.4601 285.808 24.6056C195.902 89.4942 50.4 103.543 42.9464 104.224L38 105.955V110.956C38 112.046 38.8312 222.896 68.7546 320.91C86.864 380.171 111.923 430.956 143.277 471.849C181.567 521.721 292.008 580.001 300.021 580.001C308.033 580.001 418.502 521.721 456.792 471.849C488.132 430.929 513.205 380.157 531.328 320.91C561.251 222.855 562.096 109.484 562.096 107.031L560.761 101.881Z" fill="#F3652B"/>
</g>
</svg>
