<svg viewBox="0 0 600 600" fill="none" xmlns="http://www.w3.org/2000/svg">
<mask id="mask0" mask-type="alpha" maskUnits="userSpaceOnUse" x="96" y="20" width="408" height="560">
<path fill-rule="evenodd" clip-rule="evenodd" d="M96 20H503.189V580H96V20Z" fill="white"/>
</mask>
<g mask="url(#mask0)">
<path fill-rule="evenodd" clip-rule="evenodd" d="M269.19 64.1794C269.19 47.2998 282.82 33.5514 299.594 33.5514C316.355 33.5514 329.985 47.2998 329.985 64.1794C329.985 81.0459 316.355 94.7811 299.594 94.7811C282.82 94.7811 269.19 81.0459 269.19 64.1794ZM502.715 371.551L502.729 368.078L503.189 214.517H489.664L489.243 354.5L306.37 170.509V107.634C327.368 104.332 343.524 86.1896 343.524 64.179C343.524 39.8135 323.815 20 299.595 20C275.387 20 255.679 39.8135 255.679 64.179C255.679 86.1896 271.848 104.345 292.832 107.634V170.509L109.946 354.526L109.525 214.517H96L96.4605 368.104L96.4736 371.564L96.4868 377.669L102.644 377.682L106.012 377.695L258.599 378.116L258.718 364.565L119.471 364.144L292.832 189.73V554.121L194.199 455.409L184.542 464.961L299.581 580L414.594 464.987L405.003 455.383L306.37 554.069V189.717L479.679 364.144L340.55 364.565V378.116L493.138 377.695L496.585 377.682L502.702 377.669L502.715 371.551Z" fill="#F3652B"/>
</g>
</svg>
