<svg viewBox="0 0 60 60" fill="none" xmlns="http://www.w3.org/2000/svg">
<g clip-path="url(#clip0)">
<path d="M14.7876 4.70815C14.7876 4.70815 10.847 3.86001 8.32269 6.52794C6.28992 8.67711 6.30658 11.5262 6.38989 13.7083C6.48986 16.2363 7.3313 23.0461 6.18995 25.9446C4.60705 29.9959 0 29.9959 0 29.9959" stroke="#F3652B" stroke-width="1.4" stroke-miterlimit="10"/>
<path d="M14.7876 55.2918C14.7876 55.2918 10.847 56.14 8.32269 53.472C6.28992 51.3229 6.30658 48.4738 6.38989 46.2917C6.48986 43.7637 7.3313 36.9539 6.18995 34.0554C4.60705 30.0041 0 29.9958 0 29.9958" stroke="#F3652B" stroke-width="1.4" stroke-miterlimit="10"/>
<path d="M45.2125 4.70815C45.2125 4.70815 49.1531 3.86001 51.6774 6.52794C53.7102 8.67711 53.6935 11.5262 53.6102 13.7083C53.5102 16.2363 52.6688 23.0461 53.8101 25.9446C55.4014 30.0041 60.0001 30.0041 60.0001 30.0041" stroke="#F3652B" stroke-width="1.4" stroke-miterlimit="10"/>
<path d="M45.2125 55.2918C45.2125 55.2918 49.1531 56.14 51.6774 53.472C53.7102 51.3229 53.6935 48.4738 53.6102 46.2917C53.5102 43.7637 52.6688 36.9539 53.8101 34.0554C55.4014 29.9959 60.0001 29.9958 60.0001 29.9958" stroke="#F3652B" stroke-width="1.4" stroke-miterlimit="10"/>
<path d="M38.7394 17.4549C38.7394 17.4549 34.9738 15.841 31.8163 16.6809C29.5169 17.2902 28.9171 21.0698 28.9171 23.853C28.9171 26.4798 28.9171 47.5103 28.9171 47.5103" stroke="#F3652B" stroke-width="1.4" stroke-miterlimit="10"/>
<path d="M24.3766 25.8704H36.7898" stroke="#F3652B" stroke-width="1.4" stroke-miterlimit="10"/>
</g>
<defs>
<clipPath id="clip0">
<rect width="60" height="52" fill="white" transform="translate(0 4)"/>
</clipPath>
</defs>
</svg>
