<svg viewBox="0 0 60 61" fill="none" xmlns="http://www.w3.org/2000/svg">
<g clip-path="url(#clip0)">
<path d="M36.3062 22.8874C38.4683 22.8874 40.2701 21.1757 40.2701 19.0135C40.2701 18.5631 40.1801 18.1126 39.9999 17.7523L49.6395 11.8063C50.3602 12.7973 51.5314 13.3378 52.7927 13.3378C54.9548 13.3378 56.7566 11.536 56.7566 9.37387C56.7566 7.21171 54.9548 5.5 52.7927 5.5C50.6305 5.5 48.8287 7.21171 48.8287 9.37387C48.8287 9.82432 48.9188 10.2748 49.099 10.6351L39.4593 16.5811C38.7386 15.6802 37.5674 15.0496 36.3062 15.0496C34.7746 15.0496 33.4233 15.9505 32.7927 17.3018L24.3242 15.1396C24.3242 15.0495 24.3242 15.0495 24.3242 14.9595C24.3242 12.7973 22.5224 11.0856 20.3602 11.0856C18.1981 11.0856 16.3963 12.7973 16.3963 14.9595C16.3963 15.5 16.4864 16.0405 16.6665 16.491L7.29717 22.0766C6.57645 21.1757 5.49537 20.6351 4.23411 20.6351C2.07194 20.6351 0.270142 22.3468 0.270142 24.509C0.270142 26.6712 2.07194 28.3829 4.23411 28.3829C6.39627 28.3829 8.19807 26.6712 8.19807 24.509C8.19807 24.0586 8.10798 23.518 7.9278 23.1577L17.4773 17.482C18.1981 18.2928 19.2792 18.8333 20.4503 18.8333C22.162 18.8333 23.6035 17.7523 24.144 16.3108L32.4323 18.3829C32.4323 18.5631 32.3422 18.7432 32.3422 18.9234C32.3422 21.1757 34.144 22.8874 36.3062 22.8874ZM52.7927 6.67117C54.3242 6.67117 55.4954 7.84234 55.4954 9.37387C55.4954 10.9054 54.2341 12.0766 52.7927 12.0766C51.3512 12.0766 50.09 10.9054 50.09 9.37387C50.09 7.84234 51.2611 6.67117 52.7927 6.67117ZM4.23411 27.3018C2.70257 27.3018 1.5314 26.1306 1.5314 24.5991C1.5314 23.0676 2.79266 21.8964 4.23411 21.8964C5.76564 21.8964 6.93681 23.0676 6.93681 24.5991C6.93681 26.0405 5.76564 27.3018 4.23411 27.3018ZM20.3602 17.6622C18.8287 17.6622 17.6575 16.491 17.6575 14.9595C17.6575 13.4279 18.9188 12.2568 20.3602 12.2568C21.8918 12.2568 23.0629 13.4279 23.0629 14.9595C23.0629 16.491 21.8918 17.6622 20.3602 17.6622ZM36.3062 16.3108C37.8377 16.3108 39.0089 17.482 39.0089 19.0135C39.0089 20.545 37.7476 21.7162 36.3062 21.7162C34.7746 21.7162 33.6035 20.545 33.6035 19.0135C33.6035 17.482 34.7746 16.3108 36.3062 16.3108Z" fill="#F3652B"/>
<path d="M0 60.0946H10.6306V36.0405H0V60.0946ZM1.44144 37.3018H9.45946V58.9234H1.44144V37.3018Z" fill="#F3652B"/>
<path d="M16.4865 60.0946H27.1171V26.3108H16.4865V60.0946ZM17.6576 27.482H25.8558V58.9234H17.6576V27.482Z" fill="#F3652B"/>
<path d="M32.8829 60.0946H43.5136V30.9054H32.8829V60.0946ZM34.1442 32.1667H42.3424V58.9234H34.1442V32.1667Z" fill="#F3652B"/>
<path d="M49.3693 60.0946H59.9999V21.536H49.3693V60.0946ZM58.7386 58.8333H50.5404V22.7072H58.7386V58.8333Z" fill="#F3652B"/>
</g>
<defs>
<clipPath id="clip0">
<rect width="60" height="54.5946" fill="white" transform="translate(0 5.5)"/>
</clipPath>
</defs>
</svg>
