<svg viewBox="0 0 354 322" fill="none" xmlns="http://www.w3.org/2000/svg">
<g clip-path="url(#clip0)">
<path d="M40.4517 112C59.488 60.1311 110.886 22.9508 171.326 22.9508C184.057 22.9508 196.43 24.5574 208.209 27.7705" stroke="#F7F7F7" stroke-width="9" stroke-linecap="round" stroke-linejoin="round"/>
<path d="M47.3522 113.836C46.1624 117.508 41.9982 119.459 38.31 118.197C34.5027 117.049 32.4801 113.033 33.7888 109.475C34.9786 105.803 39.1428 103.852 42.8311 105.115C46.5194 106.377 48.542 110.278 47.3522 113.836Z" fill="#F7F7F7"/>
<path d="M205.829 34.3114C209.636 35.3442 213.562 33.2786 214.633 29.6065C215.704 25.9343 213.562 22.1475 209.755 21.1147C205.948 20.0819 202.021 22.1475 200.951 25.8196C199.88 29.4917 202.021 33.2786 205.829 34.3114Z" fill="#F7F7F7"/>
<path d="M246.044 43.9513C284.593 67.7054 310.173 109.361 310.173 156.869C310.173 230.771 248.067 290.787 171.327 290.787C101.249 290.787 43.4267 240.755 33.9085 175.804C33.3136 171.787 32.9567 167.656 32.7188 163.525" stroke="#F7F7F7" stroke-width="9" stroke-linecap="round" stroke-linejoin="round"/>
<path d="M242.475 50.033C239.144 48.0822 238.073 43.7215 240.095 40.5084C242.118 37.2953 246.639 36.2625 249.97 38.2133C253.302 40.1641 254.373 44.5248 252.35 47.7379C250.327 51.0658 245.925 52.0986 242.475 50.033Z" fill="#F7F7F7"/>
<path d="M39.8572 163.525C39.7382 159.738 36.4069 156.754 32.4806 156.869C28.5544 156.984 25.461 160.197 25.58 163.984C25.699 167.771 29.0303 170.754 32.9566 170.639C36.8828 170.525 39.9762 167.312 39.8572 163.525Z" fill="#F7F7F7"/>
<path d="M53.0635 150.328C54.8481 119.459 69.3633 91.8034 91.612 72.2952" stroke="#F7F7F7" stroke-width="9" stroke-linecap="round" stroke-linejoin="round"/>
<path d="M60.2019 150.098C60.083 153.885 56.7516 156.869 52.8254 156.754C48.8991 156.639 45.8057 153.426 45.9247 149.639C46.0437 145.852 49.375 142.869 53.3013 142.984C57.2275 143.213 60.3209 146.311 60.2019 150.098Z" fill="#F7F7F7"/>
<path d="M96.133 77.8033C99.1075 75.2787 99.4644 70.9181 96.8469 68.0492C94.2294 65.1804 89.7083 64.8361 86.7338 67.3607C83.7594 69.8853 83.4025 74.246 86.02 77.1148C88.6375 79.9837 93.0396 80.3279 96.133 77.8033Z" fill="#F7F7F7"/>
<path d="M88.0428 238C74.2414 224.918 63.8904 208.508 58.0605 190.262" stroke="#F7F7F7" stroke-width="9" stroke-linecap="round" stroke-linejoin="round"/>
<path d="M92.6815 232.721C95.537 235.36 95.656 239.721 92.9195 242.475C90.183 245.229 85.6619 245.344 82.8065 242.705C79.951 240.065 79.832 235.705 82.5685 232.951C85.305 230.197 89.8261 230.082 92.6815 232.721Z" fill="#F7F7F7"/>
<path d="M65.0798 188.656C64.009 184.984 60.0827 182.918 56.2755 183.951C52.4682 184.984 50.3266 188.771 51.3974 192.443C52.4682 196.115 56.3944 198.18 60.2017 197.148C64.009 196.115 66.1505 192.328 65.0798 188.656Z" fill="#F7F7F7"/>
<path d="M144.08 45.6724C152.765 43.7216 161.927 42.6888 171.326 42.6888C236.763 42.6888 289.708 93.8692 289.708 156.869C289.708 219.984 236.644 271.049 171.326 271.049C160.261 271.049 149.553 269.558 139.44 266.804" stroke="#F7F7F7" stroke-width="9" stroke-linecap="round" stroke-linejoin="round"/>
<path d="M146.222 52.328C142.415 53.2461 138.488 51.0657 137.537 47.3936C136.585 43.7215 138.845 39.9346 142.653 39.0166C146.46 38.0985 150.386 40.2789 151.338 43.951C152.29 47.6231 150.029 51.41 146.222 52.328Z" fill="#F7F7F7"/>
<path d="M141.701 260.262C137.893 259.23 133.967 261.295 132.777 264.853C131.588 268.41 133.848 272.311 137.537 273.459C141.344 274.492 145.27 272.426 146.46 268.869C147.65 265.197 145.508 261.295 141.701 260.262Z" fill="#F7F7F7"/>
<path d="M13.563 150.328C13.8009 145.279 14.2769 140.229 14.9907 135.295C25.8176 61.3934 91.7308 4.59009 171.326 4.59009C204.997 4.59009 236.169 14.6884 261.749 32.0163" stroke="#F7F7F7" stroke-width="9" stroke-linecap="round" stroke-linejoin="round"/>
<path d="M20.8206 150.213C20.7016 154 17.3703 156.984 13.444 156.869C9.51778 156.754 6.42438 153.541 6.54336 149.754C6.66234 145.967 9.99369 142.984 13.9199 143.099C17.8462 143.213 20.9396 146.426 20.8206 150.213Z" fill="#F7F7F7"/>
<path d="M257.228 37.41C260.44 39.7051 264.842 39.0166 267.222 35.9182C269.602 32.8198 268.888 28.5739 265.675 26.2789C262.463 23.9838 258.061 24.6723 255.681 27.7707C253.302 30.869 254.015 35.2297 257.228 37.41Z" fill="#F7F7F7"/>
<path d="M226.651 299.393C209.399 305.59 190.72 309.033 171.208 309.033C101.606 309.033 42.4746 265.541 21.5347 205.18" stroke="#F7F7F7" stroke-width="9" stroke-linecap="round" stroke-linejoin="round"/>
<path d="M223.676 293.081C227.365 291.704 231.529 293.426 232.957 296.983C234.384 300.54 232.6 304.557 228.911 305.934C225.223 307.311 221.059 305.59 219.631 302.032C218.203 298.59 220.107 294.573 223.676 293.081Z" fill="#F7F7F7"/>
<path d="M28.5539 203.459C27.3642 199.786 23.3189 197.836 19.6307 198.983C15.8234 200.131 13.8008 204.032 14.9906 207.59C16.1803 211.262 20.2255 213.213 23.9138 212.065C27.6021 211.032 29.7437 207.131 28.5539 203.459Z" fill="#F7F7F7"/>
<path d="M312.671 89.0488C323.259 109.475 329.208 132.541 329.208 156.868C329.208 195.885 313.979 231.459 288.994 258.426" stroke="#F7F7F7" stroke-width="9" stroke-linecap="round" stroke-linejoin="round"/>
<path d="M306.365 92.4918C304.581 89.0491 305.889 84.918 309.459 83.1967C313.028 81.4754 317.311 82.7377 319.096 86.1803C320.88 89.6229 319.572 93.754 316.002 95.4754C312.552 97.3114 308.15 95.9344 306.365 92.4918Z" fill="#F7F7F7"/>
<path d="M283.879 253.377C281.142 256.131 281.38 260.492 284.235 263.131C287.091 265.77 291.612 265.541 294.348 262.787C297.085 260.033 296.847 255.672 293.992 253.033C291.136 250.393 286.615 250.623 283.879 253.377Z" fill="#F7F7F7"/>
<path d="M240.333 267.721C254.789 267.721 266.508 256.418 266.508 242.476C266.508 228.533 254.789 217.23 240.333 217.23C225.877 217.23 214.158 228.533 214.158 242.476C214.158 256.418 225.877 267.721 240.333 267.721Z" fill="white" stroke="#F3652B" stroke-width="2" stroke-miterlimit="10" stroke-linecap="round" stroke-linejoin="round"/>
<path d="M250.565 237.312V236.394C250.565 234.443 248.9 232.837 246.877 232.837C244.854 232.837 243.189 234.443 243.189 236.394V237.312H242.356V244.427H251.398V237.312H250.565ZM243.903 236.394C243.903 234.787 245.211 233.525 246.877 233.525C248.543 233.525 249.852 234.787 249.852 236.394V237.312H243.903V236.394ZM250.684 243.738H242.951V238H250.684V243.738Z" fill="#F3652B"/>
<path d="M248.186 242.82L247.71 240.869C247.948 240.64 248.067 240.41 248.067 240.066C248.067 239.492 247.591 238.918 246.877 238.918C246.163 238.918 245.687 239.377 245.687 240.066C245.687 240.41 245.806 240.64 246.044 240.869L245.568 242.82H248.186ZM246.877 239.607C247.115 239.607 247.353 239.836 247.353 240.066C247.353 240.181 247.234 240.41 247.115 240.41L246.996 240.525L247.353 242.132H246.52L246.758 240.755V240.525L246.639 240.41C246.52 240.295 246.401 240.181 246.401 240.066C246.401 239.836 246.639 239.607 246.877 239.607Z" fill="#F3652B"/>
<path d="M246.401 246.952H248.067V249.706H239.976L240.928 251.427H235.931L236.764 249.706H228.673V235.935H238.429V237.657H239.143V235.247H227.959V250.394H235.574L234.741 252.001H241.999L241.166 250.394H248.78V246.263H246.401V246.952Z" fill="#F3652B"/>
<path d="M170.732 74.5901C185.188 74.5901 196.906 63.2871 196.906 49.3442C196.906 35.4012 185.188 24.0983 170.732 24.0983C156.276 24.0983 144.557 35.4012 144.557 49.3442C144.557 63.2871 156.276 74.5901 170.732 74.5901Z" fill="white" stroke="#F3652B" stroke-width="2" stroke-miterlimit="10" stroke-linecap="round" stroke-linejoin="round"/>
<path d="M164.069 45.0981V43.1473C164.069 39.5899 167.043 36.8358 170.612 36.8358C174.301 36.8358 177.275 39.7047 177.275 43.262V45.0981H178.822V57.8358H162.522V45.0981H164.069ZM163.236 57.1473H178.108V45.7866H176.561V43.1473C176.561 40.0489 173.944 37.4096 170.612 37.4096C167.4 37.4096 164.783 39.9342 164.783 43.1473V45.6719H163.236V57.1473Z" fill="#F3652B"/>
<path d="M170.613 38.3276C173.349 38.3276 175.61 40.508 175.61 43.1473V45.7867H165.616V43.1473C165.616 40.508 167.876 38.3276 170.613 38.3276ZM175.015 45.0981V43.1473C175.015 40.8522 173.111 39.0162 170.732 39.0162C168.352 39.0162 166.449 40.8522 166.449 43.1473V45.0981H175.015Z" fill="#F3652B"/>
<path d="M168.827 50.0328C168.827 49.0001 169.66 48.1968 170.731 48.1968C171.801 48.1968 172.634 49.0001 172.634 50.0328C172.634 50.6066 172.396 51.0656 172.039 51.4099L172.753 54.8525H168.708L169.422 51.2951C168.946 51.0656 168.827 50.4919 168.827 50.0328ZM169.541 54.164H171.801L171.207 51.2951V51.0656L171.326 50.9509C171.682 50.7214 171.801 50.3771 171.801 50.0328C171.801 49.3443 171.207 48.8853 170.612 48.8853C169.898 48.8853 169.422 49.4591 169.422 50.0328C169.422 50.3771 169.66 50.7214 169.898 50.9509L170.017 51.0656L169.541 54.164Z" fill="#F3652B"/>
<path d="M326.473 182.803C341.323 182.803 353.362 171.192 353.362 156.869C353.362 142.546 341.323 130.934 326.473 130.934C311.622 130.934 299.584 142.546 299.584 156.869C299.584 171.192 311.622 182.803 326.473 182.803Z" fill="white" stroke="#F3652B" stroke-width="2" stroke-miterlimit="10" stroke-linecap="round" stroke-linejoin="round"/>
<path d="M334.326 161.344H333.612V155.721H320.167V161.344H319.454V155.033H334.326V161.344Z" fill="#F3652B"/>
<path d="M330.399 158.934H329.685V166.737H330.399V158.934Z" fill="#F3652B"/>
<path d="M323.975 158.934H323.261V166.737H323.975V158.934Z" fill="#F3652B"/>
<path d="M321.714 149.754V146.885H332.065V149.754H335.039V150.443H332.065V153.311H321.714V150.443H318.739V149.754H321.714ZM322.309 152.623H331.232V147.574H322.309V152.623Z" fill="#F3652B"/>
<path d="M329.21 151.361C328.496 151.361 328.02 150.787 328.02 150.213C328.02 149.525 328.615 149.066 329.21 149.066C329.805 149.066 330.4 149.639 330.4 150.213C330.4 150.787 329.805 151.361 329.21 151.361ZM329.21 149.639C328.972 149.639 328.734 149.869 328.734 150.098C328.734 150.328 328.972 150.557 329.21 150.557C329.448 150.557 329.686 150.328 329.686 150.098C329.686 149.869 329.448 149.639 329.21 149.639Z" fill="#F3652B"/>
<path d="M324.569 151.361C323.855 151.361 323.379 150.787 323.379 150.213C323.379 149.525 323.974 149.066 324.569 149.066C325.164 149.066 325.759 149.639 325.759 150.213C325.759 150.787 325.164 151.361 324.569 151.361ZM324.569 149.639C324.331 149.639 324.093 149.869 324.093 150.098C324.093 150.328 324.331 150.557 324.569 150.557C324.807 150.557 325.045 150.328 325.045 150.098C325.045 149.869 324.807 149.639 324.569 149.639Z" fill="#F3652B"/>
<path d="M53.6583 99.8363C68.1143 99.8363 79.8332 88.5333 79.8332 74.5904C79.8332 60.6475 68.1143 49.3445 53.6583 49.3445C39.2023 49.3445 27.4834 60.6475 27.4834 74.5904C27.4834 88.5333 39.2023 99.8363 53.6583 99.8363Z" fill="white" stroke="#F3652B" stroke-width="2" stroke-miterlimit="10" stroke-linecap="round" stroke-linejoin="round"/>
<path d="M55.324 72.2951V71.1476H58.4174V74.1312H57.2276V76.1968H58.4174V79.1804H55.324V78.0328H52.5875V79.1804H49.4941V76.1968H50.6839V74.1312H49.4941V71.1476H52.5875V72.2951H55.324ZM57.7035 71.8361H56.0379V73.4427H57.7035V71.8361ZM56.0379 78.3771H57.7035V76.7705H56.0379V78.3771ZM50.327 78.3771H51.9927V76.7705H50.327V78.3771ZM51.3978 76.082H52.5875V77.2296H55.324V76.082H56.5138V74.0164H55.324V72.8689H52.5875V74.0164H51.3978V76.082ZM51.8737 71.8361H50.208V73.4427H51.8737V71.8361Z" fill="#F3652B"/>
<path d="M43.1886 67.1312H43.4266C43.5456 67.1312 49.6134 66.6722 53.3017 64.0328C53.6586 63.8033 54.1345 63.8033 54.4914 64.0328C58.1797 66.5574 64.2476 67.1312 64.3665 67.1312L64.6045 67.246V67.4755C64.6045 67.4755 64.6045 71.9509 63.2957 75.8525C62.5819 78.2623 61.5111 80.2132 60.2023 81.8197C58.6556 83.7705 54.0155 86.1804 53.7776 86.1804C53.4207 86.1804 48.8995 83.8853 47.3528 81.8197C46.0441 80.2132 45.0923 78.1476 44.2594 75.8525C43.0697 71.9509 42.9507 67.4755 42.9507 67.3607L43.1886 67.1312ZM45.0923 75.7378C45.8061 78.0328 46.7579 79.9836 48.0667 81.5902C49.4944 83.3115 53.1827 85.2623 54.0155 85.6066C54.7294 85.2623 58.5367 83.3115 59.9644 81.5902C61.1542 79.9836 62.2249 78.0328 62.9388 75.7378C64.0096 72.5246 64.1286 68.9673 64.1286 67.8197C62.8198 67.705 57.5848 66.9017 54.2535 64.6066C54.1345 64.4919 54.0155 64.4919 53.7776 64.6066C50.4462 67.0165 45.2112 67.5902 43.9025 67.705C43.9025 68.8525 44.1405 72.5246 45.0923 75.7378Z" fill="#F3652B"/>
<path d="M26.7696 232.377C41.2257 232.377 52.9446 221.074 52.9446 207.131C52.9446 193.188 41.2257 181.885 26.7696 181.885C12.3136 181.885 0.594727 193.188 0.594727 207.131C0.594727 221.074 12.3136 232.377 26.7696 232.377Z" fill="white" stroke="#F3652B" stroke-width="2" stroke-miterlimit="10" stroke-linecap="round" stroke-linejoin="round"/>
<path d="M33.314 204.262H39.0249V200.131H33.314V204.262ZM38.311 203.574H33.9088V200.82H38.311V203.574Z" fill="#F3652B"/>
<path d="M30.6963 209.426H39.0247V205.295H30.6963V209.426ZM31.4102 205.983H38.3108V208.738H31.4102V205.983Z" fill="#F3652B"/>
<path d="M33.1943 214.475H39.0242V210.344H33.1943V214.475ZM33.9082 211.032H38.3103V213.786H33.9082V211.032Z" fill="#F3652B"/>
<path d="M28.6733 209.541C29.2682 206.098 27.6025 201.623 26.5317 201.278L26.1748 201.164L26.0558 201.049H25.9368V201.623C26.1748 204.606 25.6989 206.442 24.5091 207.016C22.4865 203.688 23.2004 200.246 24.2712 197.836L24.5091 197.147L23.7953 197.377C19.869 199.213 19.2741 204.147 18.9172 206.787V206.901C18.0844 206.557 17.2515 205.524 17.2515 204.377V203.573L16.6566 204.147C15.5858 205.18 15.1099 208.278 16.1807 210.918C16.8946 212.524 18.4413 214.475 22.0106 214.475C24.6281 214.475 27.9594 213.672 28.6733 209.541ZM22.0106 213.787C18.9172 213.787 17.4895 212.065 16.8946 210.573C16.2997 209.082 16.0618 206.672 16.7756 205.295C17.1325 206.328 17.9654 207.475 19.2741 207.705H19.6311L19.75 206.787C19.988 204.377 20.5829 200.131 23.5573 198.295C22.6055 200.819 22.1296 204.262 24.2712 207.59L24.3901 207.819L24.6281 207.705C26.1748 207.131 26.8887 205.41 26.8887 202.541C27.6025 203.918 28.5543 206.787 28.0784 209.311C27.3646 212.983 24.3901 213.787 22.0106 213.787Z" fill="#F3652B"/>
<path d="M28.5545 202.082C28.9114 202.77 29.1494 203.344 29.3874 204.033L29.5063 204.262H32.4808V200.131H27.0078L27.7217 200.705C28.0786 201.049 28.3166 201.508 28.5545 202.082ZM31.7669 200.82V203.574H29.9822C29.7443 203 29.5063 202.311 29.2684 201.738C29.1494 201.393 28.9114 201.049 28.6735 200.82H31.7669Z" fill="#F3652B"/>
<path d="M29.7443 210.344V210.573C29.6253 211.147 29.3873 211.606 29.1494 212.065C28.7925 212.754 28.3166 213.327 27.7217 213.786L27.0078 214.36H32.5997V210.229H30.1012L29.7443 210.344ZM31.7669 211.032V213.786H28.7925C29.1494 213.327 29.5063 212.868 29.7443 212.409C29.9822 211.95 30.2202 211.491 30.3392 211.032H31.7669Z" fill="#F3652B"/>
<path d="M130.517 321.427C144.973 321.427 156.692 310.124 156.692 296.181C156.692 282.238 144.973 270.935 130.517 270.935C116.061 270.935 104.342 282.238 104.342 296.181C104.342 310.124 116.061 321.427 130.517 321.427Z" fill="white" stroke="#F3652B" stroke-width="2" stroke-miterlimit="10" stroke-linecap="round" stroke-linejoin="round"/>
<path d="M118.733 291.193L118.68 291.296L125.184 294.401L125.237 294.299L118.733 291.193Z" fill="#F3652B" stroke="#F3652B" stroke-width="2" stroke-miterlimit="10" stroke-linecap="round" stroke-linejoin="round"/>
<path d="M118.747 291.238L118.634 291.274L120.312 296.177L120.425 296.142L118.747 291.238Z" fill="#F3652B" stroke="#F3652B" stroke-width="2" stroke-miterlimit="10" stroke-linecap="round" stroke-linejoin="round"/>
<path d="M123.7 289.591L118.596 291.149L118.632 291.259L123.736 289.7L123.7 289.591Z" fill="#F3652B" stroke="#F3652B" stroke-width="2" stroke-miterlimit="10" stroke-linecap="round" stroke-linejoin="round"/>
<path d="M125.111 299.507L118.581 302.56L118.633 302.663L125.163 299.61L125.111 299.507Z" fill="#F3652B" stroke="#F3652B" stroke-width="2" stroke-miterlimit="10" stroke-linecap="round" stroke-linejoin="round"/>
<path d="M118.695 302.576L118.655 302.684L123.7 304.411L123.74 304.303L118.695 302.576Z" fill="#F3652B" stroke="#F3652B" stroke-width="2" stroke-miterlimit="10" stroke-linecap="round" stroke-linejoin="round"/>
<path d="M120.463 297.701L118.608 302.544L118.72 302.584L120.575 297.74L120.463 297.701Z" fill="#F3652B" stroke="#F3652B" stroke-width="2" stroke-miterlimit="10" stroke-linecap="round" stroke-linejoin="round"/>
<path d="M130.631 284.363L130.512 284.364L130.521 291.363L130.64 291.363L130.631 284.363Z" fill="#F3652B" stroke="#F3652B" stroke-width="2" stroke-miterlimit="10" stroke-linecap="round" stroke-linejoin="round"/>
<path d="M130.513 284.312L126.707 287.944L126.79 288.025L130.597 284.394L130.513 284.312Z" fill="#F3652B" stroke="#F3652B" stroke-width="2" stroke-miterlimit="10" stroke-linecap="round" stroke-linejoin="round"/>
<path d="M130.672 284.339L130.586 284.419L134.302 288.136L134.388 288.056L130.672 284.339Z" fill="#F3652B" stroke="#F3652B" stroke-width="2" stroke-miterlimit="10" stroke-linecap="round" stroke-linejoin="round"/>
<path d="M130.632 302.378L130.513 302.378L130.521 309.378L130.64 309.378L130.632 302.378Z" fill="#F3652B" stroke="#F3652B" stroke-width="2" stroke-miterlimit="10" stroke-linecap="round" stroke-linejoin="round"/>
<path d="M134.317 305.745L130.51 309.376L130.594 309.458L134.401 305.827L134.317 305.745Z" fill="#F3652B" stroke="#F3652B" stroke-width="2" stroke-miterlimit="10" stroke-linecap="round" stroke-linejoin="round"/>
<path d="M126.821 305.617L126.735 305.697L130.451 309.414L130.537 309.335L126.821 305.617Z" fill="#F3652B" stroke="#F3652B" stroke-width="2" stroke-miterlimit="10" stroke-linecap="round" stroke-linejoin="round"/>
<path d="M142.484 291.152L136.007 294.31L136.061 294.412L142.538 291.255L142.484 291.152Z" fill="#F3652B" stroke="#F3652B" stroke-width="2" stroke-miterlimit="10" stroke-linecap="round" stroke-linejoin="round"/>
<path d="M137.433 289.454L137.396 289.563L142.469 291.21L142.507 291.101L137.433 289.454Z" fill="#F3652B" stroke="#F3652B" stroke-width="2" stroke-miterlimit="10" stroke-linecap="round" stroke-linejoin="round"/>
<path d="M142.339 291.196L140.566 296.069L140.678 296.107L142.451 291.234L142.339 291.196Z" fill="#F3652B" stroke="#F3652B" stroke-width="2" stroke-miterlimit="10" stroke-linecap="round" stroke-linejoin="round"/>
<path d="M135.958 299.365L135.904 299.468L142.373 302.641L142.427 302.539L135.958 299.365Z" fill="#F3652B" stroke="#F3652B" stroke-width="2" stroke-miterlimit="10" stroke-linecap="round" stroke-linejoin="round"/>
<path d="M140.748 297.658L140.635 297.693L142.258 302.613L142.371 302.578L140.748 297.658Z" fill="#F3652B" stroke="#F3652B" stroke-width="2" stroke-miterlimit="10" stroke-linecap="round" stroke-linejoin="round"/>
<path d="M142.266 302.545L137.144 304.047L137.179 304.157L142.301 302.655L142.266 302.545Z" fill="#F3652B" stroke="#F3652B" stroke-width="2" stroke-miterlimit="10" stroke-linecap="round" stroke-linejoin="round"/>
<path d="M85.5459 107.984L87.2116 93.9835H152.53V112.574H106.129L103.273 136.787C108.746 133.918 114.576 132.541 120.763 132.541C131.828 132.541 140.513 135.869 146.819 142.525C150.031 145.967 152.53 150.098 154.077 154.918" stroke="#F3652B" stroke-width="2" stroke-linecap="round" stroke-linejoin="round"/>
<path d="M87.8058 108.213C87.6868 109.36 86.616 110.278 85.3073 110.164C83.9986 110.049 83.1657 109.016 83.2847 107.754C83.4037 106.606 84.4745 105.688 85.7832 105.803C87.0919 105.918 87.9248 106.951 87.8058 108.213Z" fill="#F3652B"/>
<path d="M151.934 155.492C152.291 156.639 153.6 157.213 154.79 156.869C155.98 156.524 156.575 155.262 156.218 154.115C155.861 152.967 154.552 152.393 153.362 152.738C152.172 153.082 151.577 154.344 151.934 155.492Z" fill="#F3652B"/>
<path d="M54.2537 204.951L97.3234 205.639V203.803C91.2555 201.049 86.4965 197.147 83.0461 192.213C79.5958 187.164 77.6922 181.541 77.4542 175.115H100.298C100.774 179.82 102.439 183.492 105.414 186.016C108.269 188.656 112.076 189.918 116.836 189.918C122.071 189.918 126.116 188.082 128.971 184.524C131.827 180.852 133.254 175.803 133.254 169.147C133.254 162.721 131.589 157.902 128.376 154.459C125.164 151.016 120.524 149.41 114.575 149.41C109.102 149.41 104.581 150.787 101.25 153.541L98.989 155.492L80.5476 151.131L83.76 123.705H53.064V101.901" stroke="#F3652B" stroke-width="2" stroke-linecap="round" stroke-linejoin="round"/>
<path d="M54.2537 207.131C53.064 207.131 51.9932 206.098 51.9932 204.951C51.9932 203.803 53.064 202.77 54.2537 202.77C55.4435 202.77 56.5143 203.803 56.5143 204.951C56.5143 206.213 55.5625 207.131 54.2537 207.131Z" fill="#F3652B"/>
<path d="M53.0638 104.311C54.3123 104.311 55.3243 103.335 55.3243 102.131C55.3243 100.927 54.3123 99.9506 53.0638 99.9506C51.8153 99.9506 50.8032 100.927 50.8032 102.131C50.8032 103.335 51.8153 104.311 53.0638 104.311Z" fill="#F3652B"/>
<path d="M137.895 268.754V248.557L144.795 240.754V216.196H137.895V203.115C131.946 206.328 124.926 207.819 116.955 207.819V221.819" stroke="#F3652B" stroke-width="2" stroke-linecap="round" stroke-linejoin="round"/>
<path d="M137.894 270.819C139.143 270.819 140.155 269.843 140.155 268.639C140.155 267.435 139.143 266.458 137.894 266.458C136.646 266.458 135.634 267.435 135.634 268.639C135.634 269.843 136.646 270.819 137.894 270.819Z" fill="#F3652B"/>
<path d="M116.954 224C118.203 224 119.215 223.024 119.215 221.819C119.215 220.615 118.203 219.639 116.954 219.639C115.706 219.639 114.694 220.615 114.694 221.819C114.694 223.024 115.706 224 116.954 224Z" fill="#F3652B"/>
<path d="M180.607 170.409H156.336C156.336 177.639 154.789 184.18 151.577 189.917C150.149 192.557 148.364 194.852 146.342 197.032" stroke="#F3652B" stroke-width="2" stroke-linecap="round" stroke-linejoin="round"/>
<path d="M180.489 172.59C181.737 172.59 182.749 171.614 182.749 170.41C182.749 169.205 181.737 168.229 180.489 168.229C179.24 168.229 178.228 169.205 178.228 170.41C178.228 171.614 179.24 172.59 180.489 172.59Z" fill="#F3652B"/>
<path d="M144.796 195.312C143.963 196.115 143.963 197.492 144.796 198.41C145.628 199.328 147.056 199.213 148.008 198.41C148.841 197.607 148.841 196.23 148.008 195.312C147.056 194.508 145.747 194.508 144.796 195.312Z" fill="#F3652B"/>
<path d="M247.472 216.312V203.804C239.619 206.558 230.815 207.935 221.178 207.935C211.065 207.935 202.261 205.755 194.646 201.509C187.032 197.263 181.202 191.066 177.038 183.034C176.086 181.198 175.253 179.362 174.539 177.411" stroke="#F3652B" stroke-width="2" stroke-linecap="round" stroke-linejoin="round"/>
<path d="M247.472 218.377C248.72 218.377 249.732 217.401 249.732 216.197C249.732 214.993 248.72 214.017 247.472 214.017C246.223 214.017 245.211 214.993 245.211 216.197C245.211 217.401 246.223 218.377 247.472 218.377Z" fill="#F3652B"/>
<path d="M176.799 176.836C176.323 175.689 175.133 175.115 173.944 175.574C172.754 176.033 172.159 177.181 172.635 178.328C173.111 179.476 174.301 180.05 175.49 179.59C176.561 179.246 177.156 177.984 176.799 176.836Z" fill="#F3652B"/>
<path d="M297.442 163.066H265.675V192.213C264.128 194.049 262.343 195.656 260.321 197.148" stroke="#F3652B" stroke-width="2" stroke-linecap="round" stroke-linejoin="round"/>
<path d="M297.323 165.246C298.572 165.246 299.584 164.27 299.584 163.066C299.584 161.861 298.572 160.885 297.323 160.885C296.075 160.885 295.062 161.861 295.062 163.066C295.062 164.27 296.075 165.246 297.323 165.246Z" fill="#F3652B"/>
<path d="M259.132 195.427C258.18 196.115 257.942 197.492 258.656 198.41C259.37 199.328 260.797 199.558 261.749 198.869C262.701 198.181 262.939 196.804 262.225 195.886C261.511 194.853 260.202 194.623 259.132 195.427Z" fill="#F3652B"/>
<path d="M207.614 93.6377C211.303 92.8344 215.348 92.4901 219.512 92.4901C233.313 92.4901 244.14 95.7032 251.874 102.015C259.607 108.326 264.247 117.621 265.675 129.785H242.356C241.285 123.359 238.905 118.654 235.217 115.67C231.529 112.687 226.532 111.195 220.107 111.195C211.898 111.195 205.711 114.179 201.428 120.031C197.145 125.998 195.003 134.72 195.003 146.425V153.654C195.003 165.474 197.382 174.31 202.023 180.392C206.663 186.359 213.444 189.457 222.487 189.457C231.529 189.457 237.954 187.621 241.761 183.949V164.556H219.869V147.457H265.794V153.31" stroke="#F3652B" stroke-width="2" stroke-linecap="round" stroke-linejoin="round"/>
<path d="M208.21 95.7052C207.02 95.9347 205.83 95.2462 205.592 94.0986C205.355 92.9511 206.068 91.8035 207.258 91.574C208.448 91.3445 209.638 92.033 209.876 93.1806C210.233 94.3281 209.4 95.4757 208.21 95.7052Z" fill="#F3652B"/>
<path d="M263.534 153.082C263.534 154.23 264.486 155.263 265.794 155.263C267.103 155.263 268.055 154.344 268.055 153.082C268.055 151.935 267.103 150.902 265.794 150.902C264.486 150.902 263.534 151.935 263.534 153.082Z" fill="#F3652B"/>
<path d="M171.089 162.377C170.851 159.853 170.732 157.328 170.613 154.689V147C170.613 135.754 172.517 126.115 176.443 117.853C180.369 109.59 186.08 103.394 193.457 99.0329V85.6067H169.423V76.7706" stroke="#F3652B" stroke-width="2" stroke-linecap="round" stroke-linejoin="round"/>
<path d="M173.35 162.033C173.469 163.18 172.517 164.328 171.327 164.443C170.137 164.557 168.947 163.639 168.828 162.492C168.709 161.344 169.661 160.197 170.851 160.082C172.041 159.967 173.231 160.885 173.35 162.033Z" fill="#F3652B"/>
<path d="M169.423 78.951C170.672 78.951 171.684 77.9748 171.684 76.7707C171.684 75.5665 170.672 74.5903 169.423 74.5903C168.175 74.5903 167.163 75.5665 167.163 76.7707C167.163 77.9748 168.175 78.951 169.423 78.951Z" fill="#F3652B"/>
</g>
<defs>
<clipPath id="clip0">
<rect width="353.956" height="322" fill="white"/>
</clipPath>
</defs>
</svg>
