<svg width="640" height="512" viewBox="0 0 640 512" fill="none" xmlns="http://www.w3.org/2000/svg">
<path d="M216.934 59.0969H86.3625V378.571L216.934 442.588V59.0969Z" fill="#F0F0F0"/>
<path d="M540.794 442.587V315.1H216.423L215.906 442.587H540.794Z" fill="#F0F0F0"/>
<path d="M431.504 239.121H389.043V256.394H431.504V239.121Z" fill="#1C1D1D"/>
<path d="M397.165 239.121H377.528V256.394H397.165V239.121Z" fill="#646464"/>
<path d="M441.066 239.121H421.429V256.394H441.066V239.121Z" fill="#646464"/>
<path d="M377.528 239.122H362.106V256.394H377.528V239.122Z" fill="#CCCCCC"/>
<path d="M456.488 239.121H441.066V256.394H456.488V239.121Z" fill="#CCCCCC"/>
<path d="M297.231 101.044H261.966V136.309H297.231V101.044Z" stroke="#1C1D1D" stroke-miterlimit="10"/>
<path d="M247.984 154.096H182.492V219.587H247.984V154.096Z" stroke="#F3652B" stroke-miterlimit="10"/>
<path d="M473.966 314.586C509.681 314.586 538.635 285.632 538.635 249.917C538.635 214.201 509.681 185.248 473.966 185.248C438.25 185.248 409.297 214.201 409.297 249.917C409.297 285.632 438.25 314.586 473.966 314.586Z" fill="#D8D8D8"/>
<path d="M215.392 460.168C224.477 460.168 231.842 452.804 231.842 443.718C231.842 434.633 224.477 427.268 215.392 427.268C206.307 427.268 198.942 434.633 198.942 443.718C198.942 452.804 206.307 460.168 215.392 460.168Z" stroke="#F3652B" stroke-miterlimit="10"/>
<path d="M474.891 389.433C480.115 389.433 484.35 385.199 484.35 379.975C484.35 374.751 480.115 370.516 474.891 370.516C469.667 370.516 465.432 374.751 465.432 379.975C465.432 385.199 469.667 389.433 474.891 389.433Z" fill="#1C1D1D"/>
<path d="M444.664 224.317C485.32 224.317 518.278 191.359 518.278 150.703C518.278 110.047 485.32 77.0891 444.664 77.0891C404.008 77.0891 371.05 110.047 371.05 150.703C371.05 191.359 404.008 224.317 444.664 224.317Z" stroke="#CCCCCC" stroke-miterlimit="10" stroke-linecap="round" stroke-linejoin="round"/>
<path d="M173.034 357.15H130.264V399.92H173.034V357.15Z" fill="#D8D8D8"/>
<path d="M486.303 172.396H461.628V197.071H486.303V172.396Z" fill="#F3652B"/>
<path d="M489.079 255.263C491.35 255.263 493.192 253.422 493.192 251.151C493.192 248.879 491.35 247.038 489.079 247.038C486.808 247.038 484.967 248.879 484.967 251.151C484.967 253.422 486.808 255.263 489.079 255.263Z" stroke="#646464" stroke-miterlimit="10" stroke-linecap="round" stroke-linejoin="round"/>
<path d="M474.891 251.151H484.967" stroke="#646464" stroke-miterlimit="10" stroke-linecap="round" stroke-linejoin="round"/>
<path d="M463.273 251.151H469.648" stroke="#646464" stroke-miterlimit="10" stroke-linecap="round" stroke-linejoin="round"/>
<path d="M444.664 258.039C447.543 254.235 452.375 251.151 460.703 251.151" stroke="#646464" stroke-miterlimit="10" stroke-linecap="round" stroke-linejoin="round"/>
<path d="M411.558 341.42C411.558 341.42 416.185 341.42 419.064 341.42C442.299 341.42 440.757 319.727 440.757 319.727" stroke="#646464" stroke-miterlimit="10" stroke-linecap="round" stroke-linejoin="round"/>
<path d="M440.654 316.025V267.703" stroke="#646464" stroke-miterlimit="10" stroke-linecap="round" stroke-linejoin="round"/>
<path d="M280.884 151.114C283.155 151.114 284.996 149.273 284.996 147.002C284.996 144.73 283.155 142.889 280.884 142.889C278.613 142.889 276.771 144.73 276.771 147.002C276.771 149.273 278.613 151.114 280.884 151.114Z" stroke="#646464" stroke-miterlimit="10" stroke-linecap="round" stroke-linejoin="round"/>
<path d="M280.884 159.75C280.884 151.834 280.884 154.301 280.884 154.301" stroke="#646464" stroke-miterlimit="10" stroke-linecap="round" stroke-linejoin="round"/>
<path d="M280.884 179.079C280.884 175.172 280.884 167.975 280.884 164.377" stroke="#646464" stroke-miterlimit="10" stroke-linecap="round" stroke-linejoin="round"/>
<path d="M293.53 206.325C293.53 206.325 280.884 206.941 280.884 193.679C280.884 189.155 280.884 195.426 280.884 186.893" stroke="#646464" stroke-miterlimit="10" stroke-linecap="round" stroke-linejoin="round"/>
<path d="M297.848 206.324H313.887C313.887 206.324 323.757 205.296 323.757 216.092C323.757 226.887 323.757 229.457 323.757 229.457" stroke="#646464" stroke-miterlimit="10" stroke-linecap="round" stroke-linejoin="round"/>
<path d="M275.64 314.38H283.557" stroke="#646464" stroke-miterlimit="10" stroke-linecap="round" stroke-linejoin="round"/>
<path d="M244.077 291.145C244.077 291.145 242.946 314.38 267.724 314.38" stroke="#646464" stroke-miterlimit="10" stroke-linecap="round" stroke-linejoin="round"/>
<path d="M186.399 250.225H205.419H216.42C216.42 250.225 244.18 248.272 244.18 276.957" stroke="#646464" stroke-miterlimit="10" stroke-linecap="round" stroke-linejoin="round"/>
<path d="M181.258 254.235C183.53 254.235 185.371 252.394 185.371 250.123C185.371 247.851 183.53 246.01 181.258 246.01C178.987 246.01 177.146 247.851 177.146 250.123C177.146 252.394 178.987 254.235 181.258 254.235Z" stroke="#646464" stroke-miterlimit="10" stroke-linecap="round" stroke-linejoin="round"/>
<path d="M243.049 371.441C240.479 376.89 240.89 382.237 240.89 382.237" stroke="#646464" stroke-miterlimit="10" stroke-linecap="round" stroke-linejoin="round"/>
<path d="M273.892 360.543C273.892 360.543 271.014 360.543 262.583 360.543C256.106 360.543 251.479 362.291 248.292 364.656" stroke="#646464" stroke-miterlimit="10" stroke-linecap="round" stroke-linejoin="round"/>
<path d="M240.992 392.415C243.264 392.415 245.105 390.574 245.105 388.303C245.105 386.031 243.264 384.19 240.992 384.19C238.721 384.19 236.88 386.031 236.88 388.303C236.88 390.574 238.721 392.415 240.992 392.415Z" stroke="#646464" stroke-miterlimit="10" stroke-linecap="round" stroke-linejoin="round"/>
<path d="M308.026 340.186C304.017 340.186 300.727 336.896 300.727 332.887V326.409H294.25C290.24 326.409 286.95 323.119 286.95 319.11C286.95 315.1 290.24 311.81 294.25 311.81H300.727V305.333C300.727 301.323 304.017 298.033 308.026 298.033C312.036 298.033 315.326 301.323 315.326 305.333V311.81H321.803C325.813 311.81 329.103 315.1 329.103 319.11C329.103 323.119 325.813 326.409 321.803 326.409H315.326V332.887C315.326 336.896 312.036 340.186 308.026 340.186ZM294.25 312.632C290.651 312.632 287.772 315.511 287.772 319.11C287.772 322.708 290.651 325.587 294.25 325.587H301.549V332.887C301.549 336.485 304.428 339.364 308.026 339.364C311.625 339.364 314.504 336.485 314.504 332.887V325.587H321.803C325.402 325.587 328.28 322.708 328.28 319.11C328.28 315.511 325.402 312.632 321.803 312.632H314.504V305.333C314.504 301.734 311.625 298.856 308.026 298.856C304.428 298.856 301.549 301.734 301.549 305.333V312.632H294.25Z" fill="#646464" stroke="#646464" stroke-width="0.4" stroke-miterlimit="10"/>
<path d="M395.314 372.367C386.472 372.367 381.332 366.815 375.986 360.954C369.097 353.346 361.181 344.813 342.469 344.813C323.757 344.813 315.943 353.346 309.055 360.954C303.708 366.815 298.568 372.469 289.623 372.469C281.809 372.469 273.173 365.684 273.173 356.019V319.213C273.173 300.295 289.109 284.359 308.026 284.359H349.357V285.079H308.026C289.52 285.079 273.995 300.706 273.995 319.11V355.917C273.995 365.17 282.22 371.647 289.726 371.647C298.362 371.647 303.297 366.198 308.541 360.44C315.532 352.729 323.448 344.093 342.571 344.093C361.695 344.093 369.611 352.832 376.705 360.543C381.949 366.301 386.884 371.75 395.417 371.75C402.82 371.75 411.147 365.375 411.147 356.122V319.213C411.147 300.706 395.52 285.182 377.116 285.182H360.666V264.105C360.666 257.936 355.731 253.001 349.563 253.001C343.394 253.001 338.459 257.936 338.459 264.105C338.459 268.115 335.169 271.405 331.159 271.405C327.15 271.405 323.86 268.115 323.86 264.105V236.551H324.579V264.105C324.579 267.703 327.458 270.582 331.056 270.582C334.655 270.582 337.534 267.703 337.534 264.105C337.534 257.525 342.88 252.282 349.357 252.282C355.834 252.282 361.18 257.628 361.18 264.105V284.256H376.911C395.828 284.256 411.764 300.192 411.764 319.11V356.019C411.867 365.684 403.128 372.367 395.314 372.367Z" fill="#646464" stroke="#646464" stroke-width="0.4" stroke-miterlimit="10"/>
<path d="M390.791 326.409C386.781 326.409 383.491 323.119 383.491 319.11C383.491 315.1 386.781 311.81 390.791 311.81C394.8 311.81 398.09 315.1 398.09 319.11C398.09 323.119 394.8 326.409 390.791 326.409ZM390.791 312.632C387.192 312.632 384.313 315.511 384.313 319.11C384.313 322.708 387.192 325.587 390.791 325.587C394.389 325.587 397.268 322.708 397.268 319.11C397.268 315.511 394.389 312.632 390.791 312.632Z" fill="#646464" stroke="#646464" stroke-width="0.4" stroke-miterlimit="10"/>
<path d="M377.014 312.632C373.004 312.632 369.714 309.342 369.714 305.333C369.714 301.323 373.004 298.033 377.014 298.033C381.023 298.033 384.313 301.323 384.313 305.333C384.21 309.342 381.023 312.632 377.014 312.632ZM377.014 298.856C373.415 298.856 370.536 301.734 370.536 305.333C370.536 308.931 373.415 311.81 377.014 311.81C380.612 311.81 383.491 308.931 383.491 305.333C383.491 301.734 380.612 298.856 377.014 298.856Z" fill="#646464" stroke="#646464" stroke-width="0.4" stroke-miterlimit="10"/>
<path d="M363.237 326.409C359.227 326.409 355.937 323.119 355.937 319.11C355.937 315.1 359.227 311.81 363.237 311.81C365.601 311.81 367.761 312.941 369.2 314.894C370.125 316.128 370.536 317.567 370.536 319.11C370.434 323.119 367.246 326.409 363.237 326.409ZM363.237 312.632C359.638 312.632 356.76 315.511 356.76 319.11C356.76 322.708 359.638 325.587 363.237 325.587C366.835 325.587 369.714 322.708 369.714 319.11C369.714 317.773 369.303 316.437 368.48 315.306C367.246 313.661 365.293 312.632 363.237 312.632Z" fill="#646464" stroke="#646464" stroke-width="0.4" stroke-miterlimit="10"/>
<path d="M377.014 340.186C373.004 340.186 369.714 336.896 369.714 332.887C369.714 328.877 373.004 325.587 377.014 325.587C381.023 325.587 384.313 328.877 384.313 332.887C384.313 336.896 381.023 340.186 377.014 340.186ZM377.014 326.409C373.415 326.409 370.536 329.288 370.536 332.887C370.536 336.485 373.415 339.364 377.014 339.364C380.612 339.364 383.491 336.485 383.491 332.887C383.491 329.288 380.612 326.409 377.014 326.409Z" fill="#646464" stroke="#646464" stroke-width="0.4" stroke-miterlimit="10"/>
<path d="M248.395 182.369H173.033V187.921H248.395V182.369Z" fill="#1C1D1D"/>
<path d="M187.427 182.369H152.677V187.921H187.427V182.369Z" fill="#646464"/>
<path d="M265.359 182.369H230.608V187.921H265.359V182.369Z" fill="#646464"/>
<path d="M152.677 182.369H125.226V187.921H152.677V182.369Z" fill="#CCCCCC"/>
<path d="M293.016 182.369H265.565V187.921H293.016V182.369Z" fill="#CCCCCC"/>
<path d="M415.363 377.199H368.069V379.975H415.363V377.199Z" fill="#1C1D1D"/>
<path d="M377.116 377.199H355.32V379.975H377.116V377.199Z" fill="#646464"/>
<path d="M426.055 377.199H404.259V379.975H426.055V377.199Z" fill="#646464"/>
<path d="M355.32 377.199H338.048V379.975H355.32V377.199Z" fill="#CCCCCC"/>
<path d="M443.43 377.199H426.158V379.975H443.43V377.199Z" fill="#CCCCCC"/>
<path d="M496.687 311.604H438.701V320.549H496.687V311.604Z" fill="#1C1D1D"/>
<path d="M449.702 311.604H422.971V320.549H449.702V311.604Z" fill="#646464"/>
<path d="M509.744 311.604H483.013V320.549H509.744V311.604Z" fill="#646464"/>
<path d="M422.971 311.604H401.894V320.549H422.971V311.604Z" fill="#CCCCCC"/>
<path d="M530.924 311.604H509.847V320.549H530.924V311.604Z" fill="#CCCCCC"/>
<rect x="548.491" y="353.641" width="7.225" height="7.225" rx="0.5" stroke="#979797"/>
<rect x="513.534" y="456.453" width="9.28125" height="9.28125" rx="0.5" stroke="#1E1E1E"/>
<rect x="192.509" y="111.781" width="9.78125" height="9.78125" rx="0.75" stroke="#F3652B" stroke-width="0.5"/>
<rect x="566.747" y="346.194" width="7.725" height="7.725" rx="0.75" stroke="#F3652B" stroke-width="0.5"/>
<rect x="499.919" y="438.725" width="4.64062" height="4.64062" rx="0.75" stroke="#F3652B" stroke-width="0.5"/>
<rect x="571.109" y="88.3617" width="7.225" height="7.21653" rx="0.5" stroke="#C8C8C8"/>
<line x1="295.291" y1="464.794" x2="295.291" y2="468.529" stroke="#F3652B"/>
<line x1="295.292" y1="471.33" x2="295.292" y2="475.065" stroke="#F3652B"/>
<line x1="301.241" y1="470.196" x2="296.754" y2="470.196" stroke="#F3652B"/>
<line x1="293.389" y1="470.196" x2="288.903" y2="470.196" stroke="#F3652B"/>
<rect x="296.6" y="33.9274" width="9.28125" height="9.27058" rx="0.5" stroke="#1E1E1E"/>
<rect x="39.5687" y="251.665" width="5.16875" height="5.16247" rx="0.5" stroke="#1E1E1E"/>
<rect x="50.6281" y="373.635" width="6.69688" height="6.68934" rx="0.75" stroke="#F3652B" stroke-width="0.5"/>
<rect x="352.897" y="61.408" width="9.78125" height="9.77065" rx="0.75" stroke="#F3652B" stroke-width="0.5"/>
<rect x="536.153" y="332.803" width="8.25313" height="8.24346" rx="0.5" stroke="#979797"/>
<rect x="50.8781" y="262.962" width="6.19688" height="6.18947" rx="0.5" stroke="#979797"/>
<line x1="528.442" y1="44.7031" x2="528.442" y2="52.9281" stroke="#D8D8D8"/>
<line x1="528.442" y1="59.0969" x2="528.442" y2="67.3219" stroke="#D8D8D8"/>
<line x1="539.766" y1="55.9984" x2="531.541" y2="55.9984" stroke="#D8D8D8"/>
<line x1="525.372" y1="55.9984" x2="517.147" y2="55.9984" stroke="#D8D8D8"/>
<line x1="337.445" y1="38.5344" x2="337.445" y2="43.0208" stroke="#D8D8D8"/>
<line x1="337.445" y1="46.3855" x2="337.445" y2="50.8719" stroke="#D8D8D8"/>
<line x1="343.394" y1="44.9227" x2="338.907" y2="44.9227" stroke="#D8D8D8"/>
<line x1="335.543" y1="44.9227" x2="331.056" y2="44.9227" stroke="#D8D8D8"/>
<rect y="59.2867" width="640" height="0.507409" fill="#EBEBEB"/>
<rect y="315.021" width="640" height="0.507409" fill="#EBEBEB"/>
<rect y="123.22" width="640" height="0.507409" fill="#EBEBEB"/>
<rect y="378.955" width="640" height="0.507409" fill="#EBEBEB"/>
<rect y="187.154" width="640" height="0.507409" fill="#EBEBEB"/>
<rect y="442.888" width="640" height="0.507409" fill="#EBEBEB"/>
<rect y="251.087" width="640" height="0.507409" fill="#EBEBEB"/>
<rect x="86.3625" width="0.507409" height="512" fill="#EBEBEB"/>
<rect x="20.5625" width="0.507409" height="512" fill="#EBEBEB"/>
<rect x="151.311" width="0.507409" height="512" fill="#EBEBEB"/>
<rect x="281.208" width="0.507409" height="512" fill="#EBEBEB"/>
<rect x="346.156" width="0.507409" height="512" fill="#EBEBEB"/>
<rect x="216.259" width="0.507409" height="512" fill="#EBEBEB"/>
<rect x="346.156" width="0.507409" height="512" fill="#EBEBEB"/>
<rect x="411.105" width="0.507409" height="512" fill="#EBEBEB"/>
<rect x="541.001" width="0.507409" height="512" fill="#EBEBEB"/>
<rect x="605.95" width="0.507409" height="512" fill="#EBEBEB"/>
<rect x="476.053" width="0.507409" height="512" fill="#EBEBEB"/>
</svg>
