<svg viewBox="0 0 363 322" fill="none" xmlns="http://www.w3.org/2000/svg">
<g clip-path="url(#clip0)">
<path d="M174.634 303.824C259.797 303.824 328.835 236.912 328.835 154.372C328.835 71.832 259.797 4.92004 174.634 4.92004C89.4713 4.92004 20.4333 71.832 20.4333 154.372C20.4333 236.912 89.4713 303.824 174.634 303.824Z" stroke="#F7F7F7" stroke-width="9" stroke-miterlimit="10" stroke-linecap="round" stroke-linejoin="round"/>
<path d="M174.634 303.824C219.984 303.824 256.747 236.912 256.747 154.372C256.747 71.832 219.984 4.92004 174.634 4.92004C129.284 4.92004 92.5203 71.832 92.5203 154.372C92.5203 236.912 129.284 303.824 174.634 303.824Z" stroke="#F7F7F7" stroke-width="9" stroke-miterlimit="10" stroke-linecap="round" stroke-linejoin="round"/>
<path d="M174.634 224.116C221.338 224.116 263.093 234.818 291.395 251.793C314.62 225.592 328.707 191.643 328.707 154.372C328.707 117.101 314.62 83.0287 291.395 56.9515C263.093 73.9263 221.338 84.6278 174.634 84.6278C127.929 84.6278 86.1746 73.9263 57.8728 56.9515C34.6475 83.1517 20.5601 117.101 20.5601 154.372C20.5601 191.643 34.6475 225.715 57.8728 251.793C86.1746 234.818 127.929 224.116 174.634 224.116Z" stroke="#F7F7F7" stroke-width="9" stroke-miterlimit="10" stroke-linecap="round" stroke-linejoin="round"/>
<path d="M20.4333 154.372H328.708" stroke="#F7F7F7" stroke-width="9" stroke-miterlimit="10" stroke-linecap="round" stroke-linejoin="round"/>
<path d="M254.082 108.491C256.465 108.491 258.397 106.619 258.397 104.309C258.397 101.999 256.465 100.127 254.082 100.127C251.699 100.127 249.767 101.999 249.767 104.309C249.767 106.619 251.699 108.491 254.082 108.491Z" stroke="#F3652B" stroke-width="2" stroke-miterlimit="10" stroke-linecap="round" stroke-linejoin="round"/>
<path d="M246.086 104.309C251.035 104.309 249.512 104.309 249.512 104.309" stroke="#F3652B" stroke-width="2" stroke-miterlimit="10" stroke-linecap="round" stroke-linejoin="round"/>
<path d="M236.314 104.309C238.726 104.309 241.137 104.309 243.295 104.309" stroke="#F3652B" stroke-width="2" stroke-miterlimit="10" stroke-linecap="round" stroke-linejoin="round"/>
<path d="M217.277 111.812C217.277 111.812 216.896 104.186 225.146 104.186C227.938 104.186 227.303 104.186 232.634 104.186" stroke="#F3652B" stroke-width="2" stroke-miterlimit="10" stroke-linecap="round" stroke-linejoin="round"/>
<path d="M217.277 114.518V124.113C217.277 124.113 217.911 130.017 211.185 130.017C204.458 130.017 206.235 130.017 206.235 130.017" stroke="#F3652B" stroke-width="2" stroke-miterlimit="10" stroke-linecap="round" stroke-linejoin="round"/>
<path d="M128.818 123.743V105.416" stroke="#F3652B" stroke-width="2" stroke-miterlimit="10" stroke-linecap="round" stroke-linejoin="round"/>
<path d="M128.818 186.23V137.643" stroke="#F3652B" stroke-width="2" stroke-miterlimit="10" stroke-linecap="round" stroke-linejoin="round"/>
<path d="M128.818 96.0672V89.3019C128.818 82.6596 134.402 77.2473 141.255 77.2473H197.859C204.713 77.2473 210.297 82.6596 210.297 89.3019V209.355C210.297 215.998 204.713 221.41 197.859 221.41H141.255C134.402 221.41 128.818 215.998 128.818 209.355V196.44" fill="white"/>
<path d="M128.818 96.0672V89.3019C128.818 82.6596 134.402 77.2473 141.255 77.2473H197.859C204.712 77.2473 210.297 82.6596 210.297 89.3019V209.355C210.297 215.998 204.712 221.41 197.859 221.41H141.255C134.402 221.41 128.818 215.998 128.818 209.355V196.44" stroke="#F3652B" stroke-width="2" stroke-miterlimit="10" stroke-linecap="round" stroke-linejoin="round"/>
<path d="M177.172 87.9491H155.724C154.962 87.9491 154.201 87.3341 154.201 86.473C154.201 85.735 154.835 84.9969 155.724 84.9969H177.172C177.934 84.9969 178.695 85.612 178.695 86.473C178.695 87.3341 178.061 87.9491 177.172 87.9491Z" stroke="#F3652B" stroke-width="2" stroke-miterlimit="10" stroke-linecap="round" stroke-linejoin="round"/>
<path d="M183.39 88.0732C184.231 88.0732 184.913 87.4123 184.913 86.5971C184.913 85.7819 184.231 85.1211 183.39 85.1211C182.549 85.1211 181.867 85.7819 181.867 86.5971C181.867 87.4123 182.549 88.0732 183.39 88.0732Z" stroke="#F3652B" stroke-width="2" stroke-miterlimit="10" stroke-linecap="round" stroke-linejoin="round"/>
<path d="M190.752 321.044C190.752 321.044 184.787 292.63 173.872 281.437C162.957 270.243 145.697 247.241 145.697 247.241L134.782 206.895L150.774 180.203C150.774 180.203 158.515 190.166 157.754 197.547C157.119 205.05 155.977 210.831 155.977 210.831L163.846 218.827L166.384 142.194C166.384 142.194 167.146 136.044 173.872 136.044C180.598 136.044 181.614 142.686 181.614 142.686L182.121 198.285C182.121 198.285 188.213 192.749 193.924 192.749C199.636 192.749 205.093 197.67 205.093 197.67C205.093 197.67 209.408 194.595 214.485 194.595C219.561 194.595 224.892 198.9 224.892 198.9C224.892 198.9 230.476 195.456 235.425 196.686C242.279 198.408 242.913 204.189 242.913 204.189V247.979C242.913 247.979 242.279 260.403 239.741 265.323C237.202 270.243 234.029 278.976 234.029 278.976L243.04 299.395" fill="white"/>
<path d="M190.752 321.044C190.752 321.044 184.787 292.63 173.872 281.437C162.957 270.243 145.697 247.241 145.697 247.241L134.782 206.895L150.774 180.203C150.774 180.203 158.515 190.166 157.754 197.547C157.119 205.05 155.977 210.831 155.977 210.831L163.846 218.827L166.384 142.194C166.384 142.194 167.146 136.044 173.872 136.044C180.598 136.044 181.614 142.686 181.614 142.686L182.121 198.285C182.121 198.285 188.213 192.749 193.924 192.749C199.636 192.749 205.093 197.67 205.093 197.67C205.093 197.67 209.408 194.595 214.485 194.595C219.561 194.595 224.892 198.9 224.892 198.9C224.892 198.9 230.476 195.456 235.425 196.686C242.279 198.408 242.913 204.189 242.913 204.189V247.979C242.913 247.979 242.279 260.403 239.741 265.323C237.202 270.243 234.029 278.976 234.029 278.976L243.04 299.395" stroke="#F3652B" stroke-width="2" stroke-miterlimit="10" stroke-linecap="round" stroke-linejoin="round"/>
<path d="M333.53 78.6005C333.53 78.6005 324.9 50.8012 322.996 44.5279C322.489 42.6828 321.347 41.2068 320.077 39.9767C317.032 36.9016 312.716 35.3025 308.401 35.3025H288.983H287.714H268.296C263.854 35.3025 259.666 36.9016 256.62 39.9767C255.351 41.2068 254.336 42.8058 253.701 44.5279C251.798 50.8012 243.167 78.6005 243.167 78.6005C243.167 78.6005 243.167 85.7348 249.132 87.3339C254.717 88.81 256.493 87.3339 256.493 87.3339L271.469 74.0493H287.841H289.11H305.482L320.204 87.3339C320.204 87.3339 322.489 88.81 327.565 87.3339C333.53 85.4888 333.53 78.6005 333.53 78.6005Z" stroke="#F3652B" stroke-width="2" stroke-miterlimit="10" stroke-linecap="round" stroke-linejoin="round"/>
<path d="M305.482 48.5869C307.445 48.5869 309.036 47.0449 309.036 45.1428C309.036 43.2406 307.445 41.6986 305.482 41.6986C303.52 41.6986 301.929 43.2406 301.929 45.1428C301.929 47.0449 303.52 48.5869 305.482 48.5869Z" stroke="#F3652B" stroke-width="2" stroke-miterlimit="10" stroke-linecap="round" stroke-linejoin="round"/>
<path d="M313.478 56.7056C315.441 56.7056 317.032 55.1636 317.032 53.2614C317.032 51.3593 315.441 49.8173 313.478 49.8173C311.515 49.8173 309.924 51.3593 309.924 53.2614C309.924 55.1636 311.515 56.7056 313.478 56.7056Z" stroke="#F3652B" stroke-width="2" stroke-miterlimit="10" stroke-linecap="round" stroke-linejoin="round"/>
<path d="M297.105 56.7056C299.068 56.7056 300.659 55.1636 300.659 53.2614C300.659 51.3593 299.068 49.8173 297.105 49.8173C295.143 49.8173 293.552 51.3593 293.552 53.2614C293.552 55.1636 295.143 56.7056 297.105 56.7056Z" stroke="#F3652B" stroke-width="2" stroke-miterlimit="10" stroke-linecap="round" stroke-linejoin="round"/>
<path d="M304.974 64.8238C306.937 64.8238 308.528 63.2818 308.528 61.3796C308.528 59.4774 306.937 57.9354 304.974 57.9354C303.011 57.9354 301.42 59.4774 301.42 61.3796C301.42 63.2818 303.011 64.8238 304.974 64.8238Z" stroke="#F3652B" stroke-width="2" stroke-miterlimit="10" stroke-linecap="round" stroke-linejoin="round"/>
<path d="M269.692 44.6509V60.6416" stroke="#F3652B" stroke-width="2" stroke-miterlimit="10" stroke-linecap="round" stroke-linejoin="round"/>
<path d="M277.943 52.6466H261.317" stroke="#F3652B" stroke-width="2" stroke-miterlimit="10" stroke-linecap="round" stroke-linejoin="round"/>
<path d="M349.775 207.634C349.775 207.634 359.421 171.716 361.325 164.828C363.228 157.94 358.152 155.971 358.152 155.971L338.607 151.051C338.607 151.051 338.099 150.436 338.226 148.099C338.353 145.762 335.053 144.409 335.053 144.409L324.266 141.703L323.123 141.457L312.336 138.751C312.336 138.751 308.782 138.382 307.767 140.473C306.752 142.564 305.863 142.933 305.863 142.933L286.318 138.013C286.318 138.013 280.861 137.275 279.084 144.286C277.18 151.174 267.535 187.092 267.535 187.092C267.535 187.092 264.997 193.734 273.373 195.825C280.734 197.67 301.167 202.837 306.117 204.19C306.878 204.313 307.259 204.436 307.259 204.436C312.209 205.666 332.642 210.832 340.003 212.8C348.506 214.645 349.775 207.634 349.775 207.634Z" stroke="#F3652B" stroke-width="2" stroke-miterlimit="10" stroke-linecap="round" stroke-linejoin="round"/>
<path d="M315.128 190.413C323.749 190.413 330.738 183.639 330.738 175.283C330.738 166.927 323.749 160.153 315.128 160.153C306.507 160.153 299.518 166.927 299.518 175.283C299.518 183.639 306.507 190.413 315.128 190.413Z" stroke="#F3652B" stroke-width="2" stroke-miterlimit="10" stroke-linecap="round" stroke-linejoin="round"/>
<path d="M290.887 155.602C292.57 155.602 293.933 154.281 293.933 152.65C293.933 151.02 292.57 149.698 290.887 149.698C289.205 149.698 287.842 151.02 287.842 152.65C287.842 154.281 289.205 155.602 290.887 155.602Z" stroke="#F3652B" stroke-width="2" stroke-miterlimit="10" stroke-linecap="round" stroke-linejoin="round"/>
<path d="M32.998 85.7352V28.6605L81.3523 18.8201V75.5257" stroke="#F3652B" stroke-width="2" stroke-miterlimit="10" stroke-linecap="round" stroke-linejoin="round"/>
<path d="M23.2247 94.7144C28.692 94.7144 33.1241 90.4188 33.1241 85.12C33.1241 79.8211 28.692 75.5255 23.2247 75.5255C17.7575 75.5255 13.3254 79.8211 13.3254 85.12C13.3254 90.4188 17.7575 94.7144 23.2247 94.7144Z" stroke="#F3652B" stroke-width="2" stroke-miterlimit="10" stroke-linecap="round" stroke-linejoin="round"/>
<path d="M71.4523 86.3503C76.9195 86.3503 81.3516 82.0547 81.3516 76.7558C81.3516 71.457 76.9195 67.1614 71.4523 67.1614C65.985 67.1614 61.553 71.457 61.553 76.7558C61.553 82.0547 65.985 86.3503 71.4523 86.3503Z" stroke="#F3652B" stroke-width="2" stroke-miterlimit="10" stroke-linecap="round" stroke-linejoin="round"/>
<path d="M32.998 47.7263L81.3523 38.1318" stroke="#F3652B" stroke-width="2" stroke-miterlimit="10" stroke-linecap="round" stroke-linejoin="round"/>
<path d="M78.8136 202.468L74.8793 206.281L61.1725 193.119L58.7612 190.782L50.0041 182.172L53.9384 178.358L49.1157 173.684L0.634521 220.672L5.45726 225.347L9.77233 221.287L18.5294 229.775L20.9408 232.112L34.5206 245.273L30.3324 249.456L35.1552 254.13L83.6363 207.142L78.8136 202.468Z" stroke="#F3652B" stroke-width="2" stroke-miterlimit="10" stroke-linecap="round" stroke-linejoin="round"/>
<path d="M47.4819 194.195L42.9949 189.846L38.5078 194.195L42.9949 198.544L47.4819 194.195Z" stroke="#F3652B" stroke-width="2" stroke-miterlimit="10" stroke-linecap="round" stroke-linejoin="round"/>
<path d="M36.814 204.507L32.3269 200.158L27.8399 204.507L32.3269 208.856L36.814 204.507Z" stroke="#F3652B" stroke-width="2" stroke-miterlimit="10" stroke-linecap="round" stroke-linejoin="round"/>
<path d="M26.3242 214.821L21.8372 210.472L17.3501 214.821L21.8372 219.17L26.3242 214.821Z" stroke="#F3652B" stroke-width="2" stroke-miterlimit="10" stroke-linecap="round" stroke-linejoin="round"/>
<path d="M67.1733 213.252L62.6863 208.903L58.1992 213.252L62.6863 217.601L67.1733 213.252Z" stroke="#F3652B" stroke-width="2" stroke-miterlimit="10" stroke-linecap="round" stroke-linejoin="round"/>
<path d="M56.594 223.653L52.1069 219.304L47.6199 223.653L52.1069 228.001L56.594 223.653Z" stroke="#F3652B" stroke-width="2" stroke-miterlimit="10" stroke-linecap="round" stroke-linejoin="round"/>
<path d="M45.9255 233.965L41.4385 229.616L36.9514 233.965L41.4385 238.314L45.9255 233.965Z" stroke="#F3652B" stroke-width="2" stroke-miterlimit="10" stroke-linecap="round" stroke-linejoin="round"/>
<path d="M191.64 86.8421V79.3387V92.2543" stroke="#F3652B" stroke-width="2" stroke-miterlimit="10" stroke-linecap="round" stroke-linejoin="round"/>
<path d="M208.901 26.8155C208.901 26.8155 191.64 25.4624 191.64 44.1593V60.273V70.2365" stroke="#F3652B" stroke-width="2" stroke-miterlimit="10" stroke-linecap="round" stroke-linejoin="round"/>
<path d="M222.861 26.8154H214.739" stroke="#F3652B" stroke-width="2" stroke-miterlimit="10" stroke-linecap="round" stroke-linejoin="round"/>
<path d="M226.034 29.6446C227.787 29.6446 229.207 28.2678 229.207 26.5694C229.207 24.8711 227.787 23.4943 226.034 23.4943C224.282 23.4943 222.862 24.8711 222.862 26.5694C222.862 28.2678 224.282 29.6446 226.034 29.6446Z" stroke="#F3652B" stroke-width="2" stroke-miterlimit="10" stroke-linecap="round" stroke-linejoin="round"/>
<path d="M283.399 183.032C285.782 183.032 287.714 181.16 287.714 178.85C287.714 176.54 285.782 174.668 283.399 174.668C281.016 174.668 279.084 176.54 279.084 178.85C279.084 181.16 281.016 183.032 283.399 183.032Z" stroke="#F3652B" stroke-width="2" stroke-miterlimit="10" stroke-linecap="round" stroke-linejoin="round"/>
<path d="M273.88 178.85H279.083" stroke="#F3652B" stroke-width="2" stroke-miterlimit="10" stroke-linecap="round" stroke-linejoin="round"/>
<path d="M258.396 178.85H264.869" stroke="#F3652B" stroke-width="2" stroke-miterlimit="10" stroke-linecap="round" stroke-linejoin="round"/>
<path d="M237.71 168.887V171.224C237.71 171.224 237.329 178.851 245.578 178.851H255.858" stroke="#F3652B" stroke-width="2" stroke-miterlimit="10" stroke-linecap="round" stroke-linejoin="round"/>
<path d="M237.709 158.801V166.55" stroke="#F3652B" stroke-width="2" stroke-miterlimit="10" stroke-linecap="round" stroke-linejoin="round"/>
<path d="M202.935 145.762C202.935 145.762 219.434 145.762 229.207 145.762C238.344 145.762 237.71 154.003 237.71 154.003" stroke="#F3652B" stroke-width="2" stroke-miterlimit="10" stroke-linecap="round" stroke-linejoin="round"/>
<path d="M60.5385 62.4872C62.9216 62.4872 64.8535 60.6148 64.8535 58.305C64.8535 55.9952 62.9216 54.1228 60.5385 54.1228C58.1553 54.1228 56.2234 55.9952 56.2234 58.305C56.2234 60.6148 58.1553 62.4872 60.5385 62.4872Z" stroke="#F3652B" stroke-width="2" stroke-miterlimit="10" stroke-linecap="round" stroke-linejoin="round"/>
<path d="M77.2914 58.182H73.4839H64.8538" stroke="#F3652B" stroke-width="2" stroke-miterlimit="10" stroke-linecap="round" stroke-linejoin="round"/>
<path d="M87.1902 58.182H91.886C100.135 58.182 99.7547 65.8084 99.7547 65.8084V78.3549" stroke="#F3652B" stroke-width="2" stroke-miterlimit="10" stroke-linecap="round" stroke-linejoin="round"/>
<path d="M99.6279 87.4572V81.799" stroke="#F3652B" stroke-width="2" stroke-miterlimit="10" stroke-linecap="round" stroke-linejoin="round"/>
<path d="M99.6281 91.8854C99.6281 91.8854 98.9935 100.127 108.131 100.127C114.604 100.127 134.783 100.127 134.783 100.127" stroke="#F3652B" stroke-width="2" stroke-miterlimit="10" stroke-linecap="round" stroke-linejoin="round"/>
<path d="M66.2492 169.748C68.6323 169.748 70.5642 167.875 70.5642 165.566C70.5642 163.256 68.6323 161.383 66.2492 161.383C63.866 161.383 61.9341 163.256 61.9341 165.566C61.9341 167.875 63.866 169.748 66.2492 169.748Z" stroke="#F3652B" stroke-width="2" stroke-miterlimit="10" stroke-linecap="round" stroke-linejoin="round"/>
<path d="M77.9249 165.566H70.437" stroke="#F3652B" stroke-width="2" stroke-miterlimit="10" stroke-linecap="round" stroke-linejoin="round"/>
<path d="M91.251 165.566H81.8594" stroke="#F3652B" stroke-width="2" stroke-miterlimit="10" stroke-linecap="round" stroke-linejoin="round"/>
<path d="M111.939 155.602V157.939C111.939 157.939 112.32 165.566 104.071 165.566H93.7908" stroke="#F3652B" stroke-width="2" stroke-miterlimit="10" stroke-linecap="round" stroke-linejoin="round"/>
<path d="M111.938 145.393V153.142" stroke="#F3652B" stroke-width="2" stroke-miterlimit="10" stroke-linecap="round" stroke-linejoin="round"/>
<path d="M137.321 132.477C137.321 132.477 130.214 132.477 120.442 132.477C111.304 132.477 111.938 140.718 111.938 140.718" stroke="#F3652B" stroke-width="2" stroke-miterlimit="10" stroke-linecap="round" stroke-linejoin="round"/>
<path d="M88.7129 236.294H93.9164C93.9164 236.294 108.385 237.032 108.385 222.025V206.65C108.385 206.65 106.481 191.028 124.122 191.028H137.067" stroke="#F3652B" stroke-width="2" stroke-miterlimit="10" stroke-linecap="round" stroke-linejoin="round"/>
<path d="M59.7764 233.834C62.0608 235.433 65.2337 236.417 69.5488 236.417C71.4525 236.417 80.3365 236.417 85.6669 236.417" stroke="#F3652B" stroke-width="2" stroke-miterlimit="10" stroke-linecap="round" stroke-linejoin="round"/>
<path d="M53.5576 209.848V216.859" stroke="#F3652B" stroke-width="2" stroke-miterlimit="10" stroke-linecap="round" stroke-linejoin="round"/>
<path d="M53.5576 200.008V204.436" stroke="#F3652B" stroke-width="2" stroke-miterlimit="10" stroke-linecap="round" stroke-linejoin="round"/>
<path d="M53.5577 200.007C55.6605 200.007 57.3651 198.355 57.3651 196.317C57.3651 194.279 55.6605 192.627 53.5577 192.627C51.4549 192.627 49.7502 194.279 49.7502 196.317C49.7502 198.355 51.4549 200.007 53.5577 200.007Z" stroke="#F3652B" stroke-width="2" stroke-miterlimit="10" stroke-linecap="round" stroke-linejoin="round"/>
</g>
<defs>
<clipPath id="clip0">
<rect width="362.34" height="321.66" fill="white"/>
</clipPath>
</defs>
</svg>
