<svg width="640" height="512" viewBox="0 0 640 512" fill="none" xmlns="http://www.w3.org/2000/svg">
<rect y="49.1847" width="640" height="0.493529" fill="#EBEBEB"/>
<rect y="297.923" width="640" height="0.493529" fill="#EBEBEB"/>
<rect y="111.369" width="640" height="0.493529" fill="#EBEBEB"/>
<rect y="360.108" width="640" height="0.493529" fill="#EBEBEB"/>
<rect y="173.554" width="640" height="0.493529" fill="#EBEBEB"/>
<rect y="422.293" width="640" height="0.493529" fill="#EBEBEB"/>
<rect y="235.739" width="640" height="0.493529" fill="#EBEBEB"/>
<rect x="86.6274" width="0.485465" height="512" fill="#EBEBEB"/>
<rect x="23.6731" width="0.485465" height="512" fill="#EBEBEB"/>
<rect x="148.767" width="0.485465" height="512" fill="#EBEBEB"/>
<rect x="273.046" width="0.485465" height="512" fill="#EBEBEB"/>
<rect x="335.185" width="0.485465" height="512" fill="#EBEBEB"/>
<rect x="210.906" width="0.485465" height="512" fill="#EBEBEB"/>
<rect x="335.185" width="0.485465" height="512" fill="#EBEBEB"/>
<rect x="397.325" width="0.485465" height="512" fill="#EBEBEB"/>
<rect x="521.604" width="0.485465" height="512" fill="#EBEBEB"/>
<rect x="583.743" width="0.485465" height="512" fill="#EBEBEB"/>
<rect x="459.464" width="0.485465" height="512" fill="#EBEBEB"/>
<path d="M247.4 358C332.341 358 401.2 289.141 401.2 204.2C401.2 119.259 332.341 50.4 247.4 50.4C162.459 50.4 93.6001 119.259 93.6001 204.2C93.6001 289.141 162.459 358 247.4 358Z" fill="#F0F0F0"/>
<path d="M536 41H518V58H536V41Z" fill="#D8D8D8"/>
<path d="M289.2 419.5H247.9V436.3H289.2V419.5Z" fill="#1C1D1D"/>
<path d="M255.8 419.5H236.7V436.3H255.8V419.5Z" fill="#646464"/>
<path d="M298.5 419.5H279.4V436.3H298.5V419.5Z" fill="#646464"/>
<path d="M236.7 419.5H221.7V436.3H236.7V419.5Z" fill="#CCCCCC"/>
<path d="M313.6 419.5H298.6V436.3H313.6V419.5Z" fill="#CCCCCC"/>
<path d="M292.1 94.8H257.8V129.1H292.1V94.8Z" stroke="#1C1D1D" stroke-miterlimit="10"/>
<path d="M244 394.5H180.3V458.2H244V394.5Z" stroke="#F3652B" stroke-miterlimit="10"/>
<path d="M463.5 453C478.688 453 491 440.464 491 425C491 409.536 478.688 397 463.5 397C448.312 397 436 409.536 436 425C436 440.464 448.312 453 463.5 453Z" fill="#D8D8D8"/>
<path d="M526.5 380.9C535.337 380.9 542.5 373.737 542.5 364.9C542.5 356.063 535.337 348.9 526.5 348.9C517.663 348.9 510.5 356.063 510.5 364.9C510.5 373.737 517.663 380.9 526.5 380.9Z" stroke="#F3652B" stroke-miterlimit="10"/>
<path d="M212.5 246.9C217.581 246.9 221.7 242.781 221.7 237.7C221.7 232.619 217.581 228.5 212.5 228.5C207.419 228.5 203.3 232.619 203.3 237.7C203.3 242.781 207.419 246.9 212.5 246.9Z" fill="#1C1D1D"/>
<path d="M464 238.5C498.739 238.5 526.9 210.339 526.9 175.6C526.9 140.861 498.739 112.7 464 112.7C429.261 112.7 401.1 140.861 401.1 175.6C401.1 210.339 429.261 238.5 464 238.5Z" stroke="#F3652B" stroke-miterlimit="10"/>
<path d="M275.4 189.3C282.359 189.3 288 183.659 288 176.7C288 169.741 282.359 164.1 275.4 164.1C268.441 164.1 262.8 169.741 262.8 176.7C262.8 183.659 268.441 189.3 275.4 189.3Z" fill="#F3652B"/>
<path d="M538.9 225.7H514.9V249.7H538.9V225.7Z" fill="#F3652B"/>
<path d="M571.6 117.9C574.748 117.9 577.3 115.348 577.3 112.2C577.3 109.052 574.748 106.5 571.6 106.5C568.452 106.5 565.9 109.052 565.9 112.2C565.9 115.348 568.452 117.9 571.6 117.9Z" stroke="#646464" stroke-miterlimit="10" stroke-linecap="round" stroke-linejoin="round"/>
<path d="M551.9 112.2H565.9" stroke="#646464" stroke-miterlimit="10" stroke-linecap="round" stroke-linejoin="round"/>
<path d="M535.7 112.2H540.2" stroke="#646464" stroke-miterlimit="10" stroke-linecap="round" stroke-linejoin="round"/>
<path d="M509.9 121.8C513.9 116.5 520.6 112.2 532.2 112.2" stroke="#646464" stroke-miterlimit="10" stroke-linecap="round" stroke-linejoin="round"/>
<path d="M463.8 237.8C463.8 237.8 470.3 237.8 474.2 237.8C506.5 237.8 504.4 207.6 504.4 207.6" stroke="#646464" stroke-miterlimit="10" stroke-linecap="round" stroke-linejoin="round"/>
<path d="M504.3 202.4V135.3" stroke="#646464" stroke-miterlimit="10" stroke-linecap="round" stroke-linejoin="round"/>
<path d="M338.4 100.5C340.609 100.5 342.4 98.7091 342.4 96.5C342.4 94.2909 340.609 92.5 338.4 92.5C336.191 92.5 334.4 94.2909 334.4 96.5C334.4 98.7091 336.191 100.5 338.4 100.5Z" stroke="#646464" stroke-miterlimit="10" stroke-linecap="round" stroke-linejoin="round"/>
<path d="M338.4 104.9C338.4 97.2 338.4 103.6 338.4 103.6" stroke="#646464" stroke-miterlimit="10" stroke-linecap="round" stroke-linejoin="round"/>
<path d="M338.4 127.6C338.4 123.8 338.4 118.8 338.4 115.3" stroke="#646464" stroke-miterlimit="10" stroke-linecap="round" stroke-linejoin="round"/>
<path d="M350.7 154.1C350.7 154.1 338.4 154.7 338.4 141.8C338.4 137.4 338.4 143.5 338.4 135.2" stroke="#646464" stroke-miterlimit="10" stroke-linecap="round" stroke-linejoin="round"/>
<path d="M354.9 154.1H370.5C370.5 154.1 380.1 153.1 380.1 163.6" stroke="#646464" stroke-miterlimit="10" stroke-linecap="round" stroke-linejoin="round"/>
<path d="M401.2 375.9V370.7" stroke="#646464" stroke-miterlimit="10" stroke-linecap="round" stroke-linejoin="round"/>
<path d="M385.8 396.7C385.8 396.7 401.1 397.5 401.1 381.1" stroke="#646464" stroke-miterlimit="10" stroke-linecap="round" stroke-linejoin="round"/>
<path d="M358.8 434.7V422.2V415C358.8 415 357.5 396.7 376.4 396.7" stroke="#646464" stroke-miterlimit="10" stroke-linecap="round" stroke-linejoin="round"/>
<path d="M358.8 440.8C360.291 440.8 361.5 439.591 361.5 438.1C361.5 436.609 360.291 435.4 358.8 435.4C357.309 435.4 356.1 436.609 356.1 438.1C356.1 439.591 357.309 440.8 358.8 440.8Z" stroke="#646464" stroke-miterlimit="10" stroke-linecap="round" stroke-linejoin="round"/>
<path d="M327 239.6C325.6 239.6 324.2 239.1 323 238.2L320.1 235.8C319.9 235.6 319.9 235.3 320 235.1C320.1 234.9 320.5 234.9 320.7 235L323.6 237.4C324.5 238.2 325.7 238.6 326.9 238.6C328.5 238.6 329.9 237.9 330.9 236.7C331.7 235.8 332.1 234.6 332.1 233.4C332.1 233.3 332.1 233.2 332.1 233.1C332.1 232.8 332.3 232.6 332.6 232.6C332.9 232.6 333.1 232.8 333.1 233.1C333.1 233.2 333.1 233.3 333.1 233.4C333.1 234.8 332.6 236.2 331.7 237.4C330.6 238.8 328.8 239.6 327 239.6ZM318.9 234.6C318.8 234.6 318.7 234.6 318.6 234.5L294.7 214.8C293.3 213.6 292.4 211.9 292.4 210C292.4 208.6 292.9 207.2 293.8 206C295 204.6 296.7 203.7 298.6 203.7C300 203.7 301.4 204.2 302.6 205.1L310.7 211.8C310.9 212 310.9 212.3 310.8 212.5C310.6 212.7 310.3 212.7 310.1 212.6L302 205.9C301.1 205.1 299.9 204.7 298.7 204.7C297.1 204.7 295.7 205.4 294.7 206.6C293.9 207.5 293.5 208.7 293.5 209.9C293.5 211.5 294.2 212.9 295.4 213.9L319.3 233.6C319.5 233.8 319.5 234.1 319.4 234.3C319.2 234.6 319 234.6 318.9 234.6ZM330.4 229.3C330.3 229.3 330.2 229.3 330.1 229.2L314.7 216.5C314.5 216.3 314.5 216 314.6 215.8C314.8 215.6 315.1 215.6 315.3 215.7L330.7 228.4C330.9 228.6 330.9 228.9 330.8 229.1C330.7 229.2 330.6 229.3 330.4 229.3Z" fill="#646464"/>
<path d="M440.4 333.3C439 333.3 437.6 332.8 436.4 331.9L433.5 329.5C433.3 329.3 433.3 329 433.4 328.8C433.6 328.6 433.9 328.6 434.1 328.7L437 331.1C437.9 331.9 439.1 332.3 440.3 332.3C441.9 332.3 443.3 331.6 444.3 330.4C445.1 329.5 445.5 328.3 445.5 327.1C445.5 327 445.5 326.9 445.5 326.8C445.5 326.5 445.7 326.3 446 326.3C446.3 326.3 446.5 326.5 446.5 326.8C446.5 326.9 446.5 327 446.5 327.1C446.5 328.5 446 329.9 445.1 331.1C444 332.4 442.2 333.3 440.4 333.3ZM432.3 328.3C432.2 328.3 432.1 328.3 432 328.2L408.1 308.5C406.7 307.3 405.8 305.6 405.8 303.7C405.8 302.3 406.3 300.9 407.2 299.7C408.4 298.3 410.1 297.4 412 297.4C413.4 297.4 414.8 297.9 416 298.8L424.1 305.5C424.3 305.7 424.3 306 424.2 306.2C424 306.4 423.7 306.4 423.5 306.3L415.4 299.6C414.5 298.8 413.3 298.4 412.1 298.4C410.5 298.4 409.1 299.1 408.1 300.3C407.3 301.2 406.9 302.4 406.9 303.6C406.9 305.2 407.6 306.6 408.8 307.6L432.7 327.3C432.9 327.5 432.9 327.8 432.8 328C432.6 328.2 432.4 328.3 432.3 328.3ZM443.8 322.9C443.7 322.9 443.6 322.9 443.5 322.8L428.1 310.1C427.9 309.9 427.9 309.6 428 309.4C428.2 309.2 428.5 309.2 428.7 309.3L444.1 322C444.3 322.2 444.3 322.5 444.2 322.7C444.1 322.9 443.9 322.9 443.8 322.9Z" fill="#646464"/>
<path d="M315.1 265.6C314.8 265.6 314.4 265.6 314.1 265.5L312.6 265.2C312.3 265.2 312.1 264.9 312.2 264.6C312.2 264.3 312.5 264.2 312.8 264.2L314.3 264.5C316.2 264.8 318 264.1 319.2 262.7C319.8 262 320.2 261.1 320.3 260.2C320.3 259.9 320.4 259.6 320.4 259.3C320.4 256.7 318.6 254.6 316 254.2L279.7 248.1C278.7 247.9 277.7 248.1 276.8 248.4C276.5 248.5 276.3 248.4 276.1 248.1C276 247.8 276.1 247.6 276.4 247.4C277.5 246.9 278.7 246.8 279.8 247L316.1 253.1C319.1 253.6 321.3 256.2 321.3 259.2C321.3 259.5 321.3 259.9 321.2 260.2C321 261.3 320.6 262.3 319.9 263.1C318.7 264.7 317 265.6 315.1 265.6ZM306.8 264.2C306.7 264.2 306.7 264.2 306.8 264.2L287 260.9C286.7 260.9 286.5 260.6 286.6 260.3C286.7 260 286.9 259.8 287.2 259.9L306.9 263.2C307.2 263.2 307.4 263.5 307.3 263.8C307.2 264.1 307 264.2 306.8 264.2ZM282.1 260.1L277.8 259.4C274.8 258.9 272.6 256.3 272.6 253.3C272.6 253 272.6 252.6 272.7 252.3C272.9 250.9 273.6 249.7 274.6 248.8C274.8 248.6 275.1 248.6 275.3 248.8C275.5 249 275.5 249.3 275.3 249.5C274.4 250.3 273.9 251.3 273.7 252.5C273.7 252.8 273.6 253.1 273.6 253.4C273.6 256 275.4 258.1 278 258.5L282.2 259.2C282.5 259.2 282.7 259.5 282.6 259.8C282.6 259.9 282.3 260.1 282.1 260.1Z" fill="#646464"/>
<path d="M460.1 290C459.8 290 459.4 290 459.1 289.9L457.6 289.7C457.3 289.7 457.1 289.4 457.2 289.1C457.3 288.8 457.5 288.6 457.8 288.7L459.3 288.9C461.1 289.2 463 288.5 464.2 287.1C464.8 286.4 465.2 285.5 465.3 284.6C465.3 284.3 465.4 284 465.4 283.7C465.4 281.1 463.6 279 461 278.6L424.7 272.5C423.7 272.3 422.7 272.5 421.8 272.8C421.5 272.9 421.3 272.8 421.1 272.5C421 272.2 421.1 272 421.4 271.8C422.5 271.3 423.7 271.2 424.8 271.4L461.1 277.5C464.1 278 466.3 280.6 466.3 283.6C466.3 283.9 466.3 284.3 466.2 284.6C466 285.7 465.6 286.7 464.9 287.5C463.8 289.2 462 290 460.1 290ZM451.8 288.6C451.8 288.6 451.7 288.6 451.8 288.6L432 285.3C431.7 285.3 431.5 285 431.6 284.7C431.6 284.4 431.9 284.2 432.2 284.3L451.9 287.6C452.2 287.6 452.4 287.9 452.3 288.2C452.2 288.5 452 288.6 451.8 288.6ZM427.1 284.5L422.8 283.8C419.8 283.3 417.6 280.7 417.6 277.7C417.6 277.4 417.6 277 417.7 276.7C417.9 275.3 418.6 274.1 419.6 273.2C419.8 273 420.1 273 420.3 273.2C420.5 273.4 420.5 273.7 420.3 273.9C419.4 274.7 418.9 275.7 418.7 276.9C418.7 277.2 418.6 277.5 418.6 277.8C418.6 280.4 420.4 282.5 423 282.9L427.2 283.6C427.5 283.6 427.7 283.9 427.6 284.2C427.6 284.3 427.4 284.5 427.1 284.5Z" fill="#646464"/>
<path d="M283.4 306.8C280.8 306.8 278.5 305.2 277.6 302.8C277.3 302.1 277.2 301.4 277.2 300.6C277.2 300 277.3 299.4 277.5 298.8C277.6 298.5 277.9 298.4 278.1 298.5C278.4 298.6 278.5 298.9 278.4 299.1C278.2 299.6 278.2 300.1 278.2 300.6C278.2 301.2 278.3 301.8 278.5 302.4C279.3 304.4 281.2 305.8 283.4 305.8C284 305.8 284.6 305.7 285.2 305.5L289.2 304C289.5 303.9 289.7 304 289.8 304.3C289.9 304.6 289.8 304.8 289.5 304.9L285.5 306.4C284.8 306.7 284.1 306.8 283.4 306.8ZM294 303.2C293.8 303.2 293.6 303.1 293.5 302.9C293.4 302.6 293.5 302.4 293.8 302.3L312.5 295.3C312.8 295.2 313 295.3 313.1 295.6C313.2 295.9 313.1 296.1 312.8 296.2L294.1 303.2C294.2 303.2 294.1 303.2 294 303.2ZM278.8 297.7C278.7 297.7 278.6 297.7 278.5 297.6C278.3 297.4 278.2 297.1 278.4 296.9C279.1 296 280.1 295.2 281.2 294.8L315.7 282C316.4 281.7 317.1 281.6 317.9 281.6C320.5 281.6 322.8 283.2 323.7 285.6C324 286.3 324.1 287 324.1 287.8C324.1 289.2 323.6 290.7 322.7 291.8C322 292.6 321.1 293.3 320.1 293.7L318.7 294.2C318.4 294.3 318.2 294.2 318.1 293.9C318 293.6 318.1 293.4 318.4 293.3L319.8 292.8C320.7 292.5 321.4 291.9 322 291.2C322.8 290.3 323.2 289.1 323.2 287.9C323.2 287.3 323.1 286.7 322.9 286.1C322.1 284.1 320.2 282.7 318 282.7C317.4 282.7 316.8 282.8 316.2 283L281.8 295.8C280.9 296.1 280.1 296.7 279.5 297.5C279.1 297.6 279 297.7 278.8 297.7Z" fill="#646464"/>
<path d="M421.2 255.5C418.6 255.5 416.3 253.9 415.4 251.5C415.1 250.8 415 250.1 415 249.3C415 248.7 415.1 248.1 415.3 247.5C415.4 247.2 415.7 247.1 415.9 247.2C416.2 247.3 416.3 247.6 416.2 247.8C416 248.3 416 248.8 416 249.3C416 249.9 416.1 250.5 416.3 251.1C417.1 253.1 419 254.5 421.2 254.5C421.8 254.5 422.4 254.4 423 254.2L427 252.7C427.3 252.6 427.5 252.7 427.6 253C427.7 253.3 427.6 253.5 427.3 253.6L423.3 255.1C422.6 255.3 421.9 255.5 421.2 255.5ZM431.8 251.9C431.6 251.9 431.4 251.8 431.3 251.6C431.2 251.3 431.3 251.1 431.6 251L450.3 244C450.6 243.9 450.8 244 450.9 244.3C451 244.6 450.9 244.8 450.6 244.9L431.9 251.9C432 251.9 431.9 251.9 431.8 251.9ZM416.6 246.3C416.5 246.3 416.4 246.3 416.3 246.2C416.1 246 416 245.7 416.2 245.5C416.9 244.6 417.9 243.8 419 243.4L453.4 230.6C454.1 230.3 454.8 230.2 455.6 230.2C458.2 230.2 460.5 231.8 461.4 234.2C461.7 234.9 461.8 235.6 461.8 236.4C461.8 237.8 461.3 239.3 460.4 240.4C459.7 241.2 458.8 241.9 457.8 242.3L456.4 242.8C456.1 242.9 455.9 242.8 455.8 242.5C455.7 242.2 455.8 242 456.1 241.9L457.5 241.4C458.4 241.1 459.1 240.5 459.7 239.8C460.5 238.9 460.9 237.7 460.9 236.5C460.9 235.9 460.8 235.3 460.6 234.7C459.8 232.7 457.9 231.3 455.7 231.3C455.1 231.3 454.5 231.4 453.9 231.6L419.5 244.4C418.6 244.7 417.8 245.3 417.2 246.1C416.9 246.2 416.8 246.3 416.6 246.3Z" fill="#646464"/>
<path d="M311 345.6C309.6 345.6 308.2 345.1 307 344.2C305.9 343.3 305.2 342.1 304.9 340.8C304.8 340.5 305 340.3 305.3 340.2C305.6 340.1 305.8 340.3 305.9 340.6C306.2 341.7 306.8 342.7 307.7 343.5C308.6 344.3 309.8 344.7 311 344.7C312.6 344.7 314 344 315 342.8L317.7 339.5C317.9 339.3 318.2 339.3 318.4 339.4C318.6 339.6 318.6 339.9 318.5 340.1L315.8 343.4C314.6 344.8 312.8 345.6 311 345.6ZM305.3 339.2C305 339.2 304.8 338.9 304.8 338.6C304.9 337.4 305.4 336.3 306.2 335.4L329.6 307.1C330.8 305.7 332.5 304.8 334.4 304.8C335.8 304.8 337.2 305.3 338.4 306.2C339.8 307.4 340.7 309.1 340.7 311C340.7 312.4 340.2 313.8 339.3 315L338.3 316.2C338.1 316.4 337.8 316.4 337.6 316.3C337.4 316.1 337.4 315.8 337.5 315.6L338.5 314.4C339.3 313.5 339.7 312.3 339.7 311.1C339.7 309.5 339 308.1 337.8 307.1C336.9 306.3 335.7 305.9 334.5 305.9C332.9 305.9 331.5 306.6 330.5 307.8L306.9 336C306.3 336.8 305.9 337.7 305.7 338.7C305.8 339 305.5 339.2 305.3 339.2ZM321.3 336.4C321.2 336.4 321.1 336.4 321 336.3C320.8 336.1 320.8 335.8 320.9 335.6L333.6 320.2C333.8 320 334.1 320 334.3 320.1C334.5 320.3 334.5 320.6 334.4 320.8L321.7 336.2C321.6 336.3 321.4 336.4 321.3 336.4Z" fill="#646464"/>
<path d="M404.6 232.2C403.2 232.2 401.8 231.7 400.6 230.8C399.5 229.9 398.8 228.7 398.5 227.4C398.4 227.1 398.6 226.9 398.9 226.8C399.2 226.7 399.4 226.9 399.5 227.2C399.8 228.3 400.4 229.3 401.3 230.1C402.2 230.9 403.4 231.3 404.6 231.3C406.2 231.3 407.6 230.6 408.6 229.4L411.3 226.1C411.5 225.9 411.8 225.9 412 226C412.2 226.2 412.2 226.5 412.1 226.7L409.4 230C408.2 231.4 406.5 232.2 404.6 232.2ZM398.9 225.8C398.6 225.8 398.4 225.5 398.4 225.2C398.5 224 399 222.9 399.8 222L423.2 193.7C424.4 192.3 426.1 191.4 428 191.4C429.4 191.4 430.8 191.9 432 192.8C433.4 194 434.3 195.7 434.3 197.6C434.3 199 433.8 200.4 432.9 201.6L431.9 202.8C431.7 203 431.4 203 431.2 202.9C431 202.7 431 202.4 431.1 202.2L432.1 201C432.9 200.1 433.3 198.9 433.3 197.7C433.3 196.1 432.6 194.7 431.4 193.7C430.5 192.9 429.3 192.5 428.1 192.5C426.5 192.5 425.1 193.2 424.1 194.4L400.7 222.7C400.1 223.5 399.7 224.4 399.5 225.4C399.4 225.6 399.2 225.8 398.9 225.8ZM414.9 223C414.8 223 414.7 223 414.6 222.9C414.4 222.7 414.4 222.4 414.5 222.2L427.2 206.8C427.4 206.6 427.7 206.6 427.9 206.7C428.1 206.9 428.1 207.2 428 207.4L415.3 222.8C415.2 222.9 415.1 223 414.9 223Z" fill="#646464"/>
<path d="M354.3 365.4C354 365.4 353.6 365.4 353.3 365.3C350.3 364.8 348.1 362.2 348.1 359.2C348.1 358.9 348.1 358.5 348.2 358.2L348.8 354.5C348.8 354.2 349.1 354 349.4 354.1C349.7 354.1 349.9 354.4 349.8 354.7L349.2 358.4C349.2 358.7 349.1 359 349.1 359.3C349.1 361.9 350.9 364 353.5 364.4C354.8 364.6 356.1 364.3 357.2 363.6C357.4 363.4 357.7 363.5 357.9 363.7C358.1 363.9 358 364.2 357.8 364.4C356.6 365 355.5 365.4 354.3 365.4ZM359.9 360.3C359.5 360.2 359.4 360 359.4 359.7L362.7 340C362.7 339.7 363 339.5 363.3 339.6C363.6 339.6 363.8 339.9 363.7 340.2L360.4 359.9C360.4 360.2 360.2 360.3 359.9 360.3ZM349.6 353C349.5 353 349.5 353 349.6 353C349.2 352.9 349.1 352.7 349.1 352.4L354.2 321.8C354.7 318.8 357.3 316.6 360.3 316.6C360.6 316.6 361 316.6 361.3 316.7C364.3 317.2 366.5 319.8 366.5 322.8C366.5 323.1 366.5 323.5 366.4 323.8L364.7 334.2C364.7 334.5 364.4 334.7 364.1 334.6C363.8 334.6 363.6 334.3 363.7 334L365.4 323.6C365.4 323.3 365.5 323 365.5 322.7C365.5 320.1 363.7 318 361.1 317.6C358.2 317.1 355.6 319.1 355.1 321.9L350 352.5C350 352.8 349.8 353 349.6 353Z" fill="#646464"/>
<path d="M378.7 220.3C378.4 220.3 378 220.3 377.7 220.2L377.8 219.7L377.9 219.2L377.8 219.7L377.9 219.2C379.7 219.5 381.6 218.8 382.8 217.4C383.4 216.7 383.8 215.8 383.9 214.9L384.1 213.8C384.1 213.5 384.4 213.3 384.7 213.4C385 213.4 385.2 213.7 385.1 214L384.9 215.1C384.7 216.2 384.3 217.2 383.6 218C382.3 219.5 380.5 220.3 378.7 220.3ZM373.7 217.4C373.5 217.4 373.4 217.3 373.3 217.1C372.8 216.2 372.5 215.1 372.5 214C372.5 213.7 372.5 213.3 372.6 213L374.7 200.3C374.7 200 375 199.8 375.3 199.9C375.6 199.9 375.8 200.2 375.7 200.5L373.6 213.2C373.6 213.5 373.5 213.8 373.5 214.1C373.5 215 373.7 215.9 374.2 216.7C374.3 216.9 374.3 217.2 374 217.4C373.8 217.4 373.8 217.4 373.7 217.4ZM384.8 212.8C384.7 212.8 384.7 212.8 384.8 212.8C384.4 212.7 384.3 212.5 384.3 212.2L387.1 195.6C387.1 195.3 387.4 195.1 387.7 195.2C388 195.2 388.2 195.5 388.1 195.8L385.3 212.4C385.2 212.7 385 212.8 384.8 212.8ZM375.9 196.8C375.8 196.8 375.8 196.8 375.9 196.8C375.5 196.7 375.4 196.5 375.4 196.2L378.2 179.6C378.2 179.3 378.5 179.1 378.8 179.2C379.1 179.2 379.3 179.5 379.2 179.8L376.4 196.4C376.3 196.6 376.1 196.8 375.9 196.8ZM388.2 192.1C387.8 192 387.7 191.8 387.7 191.5L389.8 178.7C389.8 178.4 389.9 178.1 389.9 177.8C389.9 176.9 389.7 176 389.2 175.3C389.1 175.1 389.2 174.8 389.4 174.6C389.6 174.5 389.9 174.5 390.1 174.8C390.6 175.7 390.9 176.8 390.9 177.8C390.9 178.1 390.9 178.5 390.8 178.8L388.7 191.6C388.7 191.9 388.5 192.1 388.2 192.1ZM378.9 178.5C378.5 178.4 378.4 178.2 378.4 177.9L378.6 176.8C379.1 173.8 381.7 171.6 384.7 171.6C385 171.6 385.4 171.6 385.7 171.7C386 171.7 386.2 172 386.1 172.3C386.1 172.6 385.8 172.8 385.6 172.7L385.7 172.2L385.6 172.7C382.7 172.2 380.1 174.2 379.6 177L379.4 178.1C379.4 178.3 379.2 178.5 378.9 178.5Z" fill="#646464"/>
<path d="M401.6 360.8C399 360.8 396.7 359.2 395.8 356.8L394.5 353.3C394.4 353 394.5 352.8 394.8 352.7C395.1 352.6 395.3 352.7 395.4 353L396.7 356.5C397.5 358.5 399.4 359.9 401.6 359.9C402.2 359.9 402.8 359.8 403.4 359.6C404.3 359.3 405 358.7 405.6 358C405.8 357.7 406.1 357.4 406.2 357C406.3 356.8 406.6 356.7 406.9 356.8C407.1 356.9 407.2 357.2 407.1 357.5C406.9 357.9 406.6 358.3 406.3 358.6C405.6 359.4 404.7 360.1 403.7 360.5C403.1 360.7 402.4 360.8 401.6 360.8ZM406.9 352.9C406.7 352.9 406.5 352.8 406.4 352.6L399.4 333.9C399.3 333.6 399.4 333.4 399.7 333.3C400 333.2 400.2 333.3 400.3 333.6L407.3 352.3C407.4 352.6 407.3 352.8 407 352.9H406.9ZM394.2 351.7C394 351.7 393.8 351.6 393.7 351.4L382.9 322.3C382.6 321.6 382.5 320.9 382.5 320.1C382.5 317.5 384.1 315.2 386.6 314.3C387.3 314 388 313.9 388.8 313.9C391.4 313.9 393.7 315.5 394.6 317.9L398.3 327.7C398.4 328 398.3 328.2 398 328.3C397.7 328.4 397.5 328.3 397.4 328L393.7 318.2C392.9 316.2 391 314.8 388.8 314.8C388.2 314.8 387.6 314.9 387 315.1C385 315.9 383.6 317.8 383.6 320C383.6 320.6 383.7 321.2 383.9 321.8L394.7 350.9C394.8 351.2 394.7 351.4 394.4 351.5C394.4 351.7 394.3 351.7 394.2 351.7Z" fill="#646464"/>
<path d="M350.2 223C347.6 223 345.3 221.4 344.4 219L343.1 215.5C343 215.2 343.1 215 343.4 214.9C343.7 214.8 343.9 214.9 344 215.2L345.3 218.7C346.1 220.7 348 222.1 350.2 222.1C350.8 222.1 351.4 222 352 221.8C352.9 221.5 353.6 220.9 354.2 220.2C354.4 219.9 354.7 219.6 354.8 219.2C354.9 219 355.2 218.9 355.5 219C355.7 219.1 355.8 219.4 355.7 219.7C355.5 220.1 355.2 220.5 354.9 220.8C354.2 221.6 353.3 222.3 352.3 222.7C351.7 222.9 351 223 350.2 223ZM355.5 215.1C355.3 215.1 355.1 215 355 214.8L348 196.1C347.9 195.8 348 195.6 348.3 195.5C348.6 195.4 348.8 195.5 348.9 195.8L355.9 214.5C356 214.8 355.9 215 355.6 215.1C355.6 215.1 355.6 215.1 355.5 215.1ZM342.9 213.9C342.7 213.9 342.5 213.8 342.4 213.6L331.6 184.5C331.3 183.8 331.2 183.1 331.2 182.3C331.2 179.7 332.8 177.4 335.3 176.5C336 176.2 336.7 176.1 337.5 176.1C340.1 176.1 342.4 177.7 343.3 180.1L347 189.9C347.1 190.2 347 190.4 346.7 190.5C346.4 190.6 346.2 190.5 346.1 190.2L342.4 180.4C341.6 178.4 339.7 177 337.5 177C336.9 177 336.3 177.1 335.7 177.3C333.7 178.1 332.3 180 332.3 182.2C332.3 182.8 332.4 183.4 332.6 184L343.4 213.1C343.5 213.4 343.4 213.6 343.1 213.7C343 213.9 342.9 213.9 342.9 213.9Z" fill="#646464"/>
<path d="M233.9 311.4C231.4 316.7 231.8 321.9 231.8 321.9" stroke="#646464" stroke-miterlimit="10" stroke-linecap="round" stroke-linejoin="round"/>
<path d="M263.9 300.8C263.9 300.8 261.1 300.8 252.9 300.8C246.6 300.8 242.1 302.5 239 304.8" stroke="#646464" stroke-miterlimit="10" stroke-linecap="round" stroke-linejoin="round"/>
<path d="M231.8 331.8C234.009 331.8 235.8 330.009 235.8 327.8C235.8 325.591 234.009 323.8 231.8 323.8C229.591 323.8 227.8 325.591 227.8 327.8C227.8 330.009 229.591 331.8 231.8 331.8Z" stroke="#646464" stroke-miterlimit="10" stroke-linecap="round" stroke-linejoin="round"/>
<path d="M566.3 172.1H503.4V177.5H566.3V172.1Z" fill="#1C1D1D"/>
<path d="M515.5 172.1H486.5V177.5H515.5V172.1Z" fill="#646464"/>
<path d="M580.5 172.1H551.5V177.5H580.5V172.1Z" fill="#646464"/>
<path d="M486.5 172.1H463.6V177.5H486.5V172.1Z" fill="#CCCCCC"/>
<path d="M603.6 172.1H580.7V177.5H603.6V172.1Z" fill="#CCCCCC"/>
<path d="M328.6 109.1H296.5V111.8H328.6V109.1Z" fill="#1C1D1D"/>
<path d="M302.6 109.1H287.8V111.8H302.6V109.1Z" fill="#646464"/>
<path d="M335.8 109.1H321V111.8H335.8V109.1Z" fill="#646464"/>
<path d="M287.8 109.1H276.1V111.8H287.8V109.1Z" fill="#CCCCCC"/>
<path d="M347.6 109.1H335.9V111.8H347.6V109.1Z" fill="#CCCCCC"/>
<path d="M178.6 296.3H122.2V305H178.6V296.3Z" fill="#1C1D1D"/>
<path d="M133 296.3H107V305H133V296.3Z" fill="#646464"/>
<path d="M191.3 296.3H165.3V305H191.3V296.3Z" fill="#646464"/>
<path d="M107 296.3H86.5V305H107V296.3Z" fill="#CCCCCC"/>
<path d="M212 296.3H191.5V305H212V296.3Z" fill="#CCCCCC"/>
<rect x="574.5" y="424.5" width="7" height="7" rx="0.5" stroke="#979797"/>
<rect x="474.5" y="295.5" width="9" height="9" rx="0.5" stroke="#1E1E1E"/>
<rect x="196.25" y="139.25" width="9.5" height="9.5" rx="0.75" stroke="#F3652B" stroke-width="0.5"/>
<rect x="323.25" y="424.25" width="7.5" height="7.5" rx="0.75" stroke="#F3652B" stroke-width="0.5"/>
<rect x="576.25" y="361.25" width="4.5" height="4.5" rx="0.75" stroke="#F3652B" stroke-width="0.5"/>
<rect x="478.5" y="84.5" width="7" height="7" rx="0.5" stroke="#C8C8C8"/>
<line x1="575.273" y1="233" x2="575.273" y2="236.636" stroke="#F3652B"/>
<line x1="575.273" y1="239.364" x2="575.273" y2="243" stroke="#F3652B"/>
<line x1="580" y1="238.273" x2="576.364" y2="238.273" stroke="#F3652B"/>
<line x1="573.636" y1="238.273" x2="570" y2="238.273" stroke="#F3652B"/>
<rect x="129.5" y="427.5" width="9" height="9" rx="0.5" stroke="#1E1E1E"/>
<rect x="185.5" y="173.5" width="5" height="5" rx="0.5" stroke="#1E1E1E"/>
<rect x="51.25" y="156.25" width="6.5" height="6.5" rx="0.75" stroke="#F3652B" stroke-width="0.5"/>
<rect x="80.25" y="171.25" width="9.5" height="9.5" rx="0.75" stroke="#F3652B" stroke-width="0.5"/>
<rect x="590.5" y="214.5" width="6" height="6" rx="0.5" stroke="#979797"/>
<line x1="105" y1="393" x2="105" y2="401" stroke="#D8D8D8"/>
<line x1="105" y1="407" x2="105" y2="415" stroke="#D8D8D8"/>
<line x1="116" y1="404" x2="108" y2="404" stroke="#D8D8D8"/>
<line x1="102" y1="404" x2="94" y2="404" stroke="#D8D8D8"/>
<line x1="74.2273" y1="271" x2="74.2273" y2="275.364" stroke="#D8D8D8"/>
<line x1="74.2273" y1="278.636" x2="74.2273" y2="283" stroke="#D8D8D8"/>
<line x1="80" y1="277.227" x2="75.6364" y2="277.227" stroke="#D8D8D8"/>
<line x1="72.3635" y1="277.227" x2="67.9999" y2="277.227" stroke="#D8D8D8"/>
<rect x="474.5" y="295.5" width="9" height="9" rx="0.5" stroke="#1E1E1E"/>
<rect x="576.25" y="361.25" width="4.5" height="4.5" rx="0.75" stroke="#F3652B" stroke-width="0.5"/>
<line x1="575.273" y1="233" x2="575.273" y2="236.636" stroke="#F3652B"/>
<line x1="575.273" y1="239.364" x2="575.273" y2="243" stroke="#F3652B"/>
<line x1="580" y1="238.273" x2="576.364" y2="238.273" stroke="#F3652B"/>
<line x1="573.636" y1="238.273" x2="570" y2="238.273" stroke="#F3652B"/>
<line x1="345.273" y1="456" x2="345.273" y2="459.636" stroke="#1E1E1E"/>
<line x1="345.273" y1="462.364" x2="345.273" y2="466" stroke="#1E1E1E"/>
<line x1="350" y1="461.273" x2="346.364" y2="461.273" stroke="#1E1E1E"/>
<line x1="343.636" y1="461.273" x2="340" y2="461.273" stroke="#1E1E1E"/>
<rect x="394.5" y="454.5" width="8" height="8" rx="0.5" stroke="#979797"/>
<rect x="590.5" y="214.5" width="6" height="6" rx="0.5" stroke="#979797"/>
<line x1="105" y1="393" x2="105" y2="401" stroke="#D8D8D8"/>
<line x1="105" y1="407" x2="105" y2="415" stroke="#D8D8D8"/>
<line x1="116" y1="404" x2="108" y2="404" stroke="#D8D8D8"/>
<line x1="102" y1="404" x2="94" y2="404" stroke="#D8D8D8"/>
<line x1="74.2273" y1="271" x2="74.2273" y2="275.364" stroke="#D8D8D8"/>
<line x1="74.2273" y1="278.636" x2="74.2273" y2="283" stroke="#D8D8D8"/>
<line x1="80" y1="277.227" x2="75.6364" y2="277.227" stroke="#D8D8D8"/>
<line x1="72.3635" y1="277.227" x2="67.9999" y2="277.227" stroke="#D8D8D8"/>
</svg>
