<svg width="640" height="512" viewBox="0 0 640 512" fill="none" xmlns="http://www.w3.org/2000/svg">
<path d="M291.768 27.9942L41.7 278.063L41.6999 27.9942L291.768 27.9942Z" fill="#F0F0F0"/>
<path d="M500.323 374.927L602.13 274.109V374.927H500.323Z" fill="#F0F0F0"/>
<path d="M229.696 382.735C237.284 382.735 243.435 376.584 243.435 368.996C243.435 361.409 237.284 355.258 229.696 355.258C222.108 355.258 215.957 361.409 215.957 368.996C215.957 376.584 222.108 382.735 229.696 382.735Z" fill="#CCCCCC"/>
<path d="M183.537 184.756C218.31 184.756 246.499 156.567 246.499 121.795C246.499 87.0216 218.31 58.8326 183.537 58.8326C148.764 58.8326 120.575 87.0216 120.575 121.795C120.575 156.567 148.764 184.756 183.537 184.756Z" stroke="#CCCCCC" stroke-miterlimit="10" stroke-linecap="round" stroke-linejoin="round"/>
<path d="M150.92 362.671C153.103 362.671 154.873 360.901 154.873 358.717C154.873 356.533 153.103 354.763 150.92 354.763C148.736 354.763 146.966 356.533 146.966 358.717C146.966 360.901 148.736 362.671 150.92 362.671Z" stroke="#646464" stroke-miterlimit="10" stroke-linecap="round" stroke-linejoin="round"/>
<path d="M164.461 358.717H154.873" stroke="#646464" stroke-miterlimit="10" stroke-linecap="round" stroke-linejoin="round"/>
<path d="M175.729 358.717H169.601" stroke="#646464" stroke-miterlimit="10" stroke-linecap="round" stroke-linejoin="round"/>
<path d="M178.2 358.717C183.142 358.717 186.898 357.531 189.665 355.752C192.235 354.071 193.619 351.205 193.619 348.141V345.769" stroke="#646464" stroke-miterlimit="10" stroke-linecap="round" stroke-linejoin="round"/>
<path d="M221.591 303.761C221.591 303.761 217.143 303.761 214.376 303.761C192.037 303.761 193.52 324.617 193.52 324.617" stroke="#646464" stroke-miterlimit="10" stroke-linecap="round" stroke-linejoin="round"/>
<path d="M193.619 328.175V339.542" stroke="#646464" stroke-miterlimit="10" stroke-linecap="round" stroke-linejoin="round"/>
<path d="M448.926 370.084C451.11 370.084 452.88 368.314 452.88 366.13C452.88 363.947 451.11 362.176 448.926 362.176C446.743 362.176 444.972 363.947 444.972 366.13C444.972 368.314 446.743 370.084 448.926 370.084Z" stroke="#646464" stroke-miterlimit="10" stroke-linecap="round" stroke-linejoin="round"/>
<path d="M448.926 353.874C448.926 361.484 448.926 359.112 448.926 359.112" stroke="#646464" stroke-miterlimit="10" stroke-linecap="round" stroke-linejoin="round"/>
<path d="M448.926 335.292C448.926 339.048 448.926 345.966 448.926 349.426" stroke="#646464" stroke-miterlimit="10" stroke-linecap="round" stroke-linejoin="round"/>
<path d="M436.768 309.197C436.768 309.197 448.926 308.604 448.926 321.355C448.926 325.704 448.926 319.675 448.926 327.878" stroke="#646464" stroke-miterlimit="10" stroke-linecap="round" stroke-linejoin="round"/>
<path d="M432.617 309.198H417.198C417.198 309.198 407.709 310.186 407.709 299.808C407.709 289.528 407.709 286.958 407.709 286.958" stroke="#646464" stroke-miterlimit="10" stroke-linecap="round" stroke-linejoin="round"/>
<path d="M430.245 183.669V196.222" stroke="#646464" stroke-miterlimit="10" stroke-linecap="round" stroke-linejoin="round"/>
<path d="M452.583 153.226C452.583 153.226 430.245 152.139 430.245 175.96" stroke="#646464" stroke-miterlimit="10" stroke-linecap="round" stroke-linejoin="round"/>
<path d="M478.282 97.7761V116.062V126.638C478.282 126.638 480.16 153.325 452.583 153.325" stroke="#646464" stroke-miterlimit="10" stroke-linecap="round" stroke-linejoin="round" stroke-dasharray="40 40"/>
<path d="M478.381 96.8865C480.564 96.8865 482.334 95.1164 482.334 92.9329C482.334 90.7494 480.564 88.9792 478.381 88.9792C476.197 88.9792 474.427 90.7494 474.427 92.9329C474.427 95.1164 476.197 96.8865 478.381 96.8865Z" stroke="#646464" stroke-miterlimit="10" stroke-linecap="round" stroke-linejoin="round"/>
<path d="M533.929 334.402H478.578V344.286H533.929V334.402Z" fill="#1C1D1D"/>
<path d="M488.462 334.402H462.763V344.286H488.462V334.402Z" fill="#646464"/>
<path d="M546.779 334.402H521.08V344.286H546.779V334.402Z" fill="#646464"/>
<path d="M462.763 334.402H442.995V344.286H462.763V334.402Z" fill="#CCCCCC"/>
<path d="M567.535 334.402H546.779V344.286H567.535V334.402Z" fill="#CCCCCC"/>
<path d="M170.786 266.893H132.733V282.411H170.786V266.893Z" fill="#1C1D1D"/>
<path d="M140.047 266.893H122.453V282.411H140.047V266.893Z" fill="#646464"/>
<path d="M179.386 266.893H161.792V282.411H179.386V266.893Z" fill="#646464"/>
<path d="M122.453 266.893H108.615V282.411H122.453V266.893Z" fill="#CCCCCC"/>
<path d="M193.224 266.893H179.386V282.411H193.224V266.893Z" fill="#CCCCCC"/>
<path d="M241.952 151.348H227.818V153.918H241.952V151.348Z" fill="#1C1D1D"/>
<path d="M230.487 151.348H223.963V153.918H230.487V151.348Z" fill="#646464"/>
<path d="M245.115 151.348H238.592V153.918H245.115V151.348Z" fill="#646464"/>
<path d="M223.963 151.348H218.823V153.918H223.963V151.348Z" fill="#CCCCCC"/>
<path d="M250.354 151.348H245.214V153.918H250.354V151.348Z" fill="#CCCCCC"/>
<path d="M379.539 154.017L362.044 144.825L344.154 153.226" stroke="#646464" stroke-linecap="round" stroke-linejoin="round"/>
<path d="M342.079 154.214L284.158 181.198" stroke="#646464" stroke-linecap="round" stroke-linejoin="round" stroke-dasharray="23.23 23.23"/>
<path d="M278.227 183.966L190.555 224.985" stroke="#646464" stroke-linecap="round" stroke-linejoin="round" stroke-dasharray="30.97 30.97"/>
<path d="M184.624 227.654L166.734 236.055L184.229 245.247" stroke="#646464" stroke-linecap="round" stroke-linejoin="round"/>
<path d="M186.799 246.532L258.459 283.894" stroke="#646464" stroke-linecap="round" stroke-linejoin="round" stroke-dasharray="29.36 29.36"/>
<path d="M265.773 287.65L283.268 296.842L301.158 288.441" stroke="#646464" stroke-linecap="round" stroke-linejoin="round"/>
<path d="M303.234 287.453L360.957 260.37" stroke="#646464" stroke-linecap="round" stroke-linejoin="round" stroke-dasharray="23.18 23.18"/>
<path d="M366.789 257.602L454.263 216.484" stroke="#646464" stroke-linecap="round" stroke-linejoin="round" stroke-dasharray="30.91 30.91"/>
<path d="M460.095 213.717L477.985 205.315L460.49 196.222" stroke="#646464" stroke-linecap="round" stroke-linejoin="round"/>
<path d="M457.921 194.838L386.854 157.773" stroke="#646464" stroke-linecap="round" stroke-linejoin="round" stroke-dasharray="29.16 29.16"/>
<path d="M187.59 256.812L166.734 266.597L180.77 273.911" stroke="#646464" stroke-linecap="round" stroke-linejoin="round"/>
<path d="M189.468 278.359L265.773 318.192" stroke="#646464" stroke-linecap="round" stroke-linejoin="round" stroke-dasharray="39.59 39.59"/>
<path d="M269.232 320.07L283.268 327.384L297.6 320.663" stroke="#646464" stroke-linecap="round" stroke-linejoin="round"/>
<path d="M304.618 317.303L366.591 288.243" stroke="#646464" stroke-linecap="round" stroke-linejoin="round" stroke-dasharray="31.48 31.48"/>
<path d="M369.359 286.859L460.886 243.864" stroke="#646464" stroke-linecap="round" stroke-linejoin="round" stroke-dasharray="25.18 25.18"/>
<path d="M463.752 242.579L477.985 235.857L457.229 224.985" stroke="#646464" stroke-linecap="round" stroke-linejoin="round"/>
<path d="M187.59 287.354L166.734 297.04L184.229 306.232" stroke="#646464" stroke-linecap="round" stroke-linejoin="round"/>
<path d="M185.416 306.825L211.608 320.466" stroke="#646464" stroke-linecap="round" stroke-linejoin="round" stroke-dasharray="11.29 11.29"/>
<path d="M213.387 321.355L263.994 347.845" stroke="#646464" stroke-linecap="round" stroke-linejoin="round" stroke-dasharray="26.56 26.56"/>
<path d="M265.773 348.734L283.268 357.828L301.158 349.426" stroke="#646464" stroke-linecap="round" stroke-linejoin="round"/>
<path d="M303.432 348.339L354.533 324.419" stroke="#646464" stroke-linecap="round" stroke-linejoin="round" stroke-dasharray="21.58 21.58"/>
<path d="M357.893 322.739L456.735 276.382" stroke="#646464" stroke-linecap="round" stroke-linejoin="round" stroke-dasharray="50.78 50.78"/>
<path d="M460.095 274.801L477.985 266.399L457.229 255.527" stroke="#646464" stroke-linecap="round" stroke-linejoin="round"/>
<path d="M260.93 201.856L191.939 234.078L260.04 269.661L328.735 237.241L260.93 201.856Z" stroke="#646464" stroke-miterlimit="10" stroke-linecap="round" stroke-linejoin="round"/>
<path d="M311.833 235.165C313.415 236.055 313.612 237.241 312.327 237.834C311.042 238.427 308.868 238.229 307.385 237.34C305.903 236.45 305.606 235.264 306.891 234.572C308.077 234.078 310.252 234.276 311.833 235.165Z" stroke="#646464" stroke-miterlimit="10" stroke-linecap="round" stroke-linejoin="round"/>
<path d="M306.792 234.671C306.792 234.671 303.036 232.694 299.478 232.101C295.92 231.508 291.867 231.311 283.367 233.09C274.866 234.869 270.419 234.869 265.674 232.398C262.808 230.915 265.674 230.322 261.523 227.258C259.843 225.973 263.401 225.874 259.25 223.601C257.569 222.613 256.087 222.909 256.087 222.909C256.087 222.909 254.011 221.328 252.331 220.24C250.255 218.955 243.435 216.88 233.155 221.723C222.876 226.566 227.126 230.322 229.993 231.409C232.266 232.299 235.528 233.386 235.528 233.386C235.528 233.386 235.033 234.177 236.911 235.067C241.952 237.34 241.853 235.264 244.423 236.154C250.552 238.229 251.738 236.747 254.604 238.131C259.447 240.503 259.447 242.776 255.494 247.521C251.54 252.265 250.848 254.439 251.738 256.416C252.627 258.393 255.494 259.975 255.494 259.975" stroke="#646464" stroke-miterlimit="10" stroke-linecap="round" stroke-linejoin="round"/>
<path d="M505.068 54.9779C505.068 70.1994 492.811 82.4557 477.59 82.4557C462.368 82.4557 450.112 70.1994 450.112 54.9779C450.112 39.7563 462.368 27.5 477.59 27.5C492.811 27.5 505.068 39.8552 505.068 54.9779Z" stroke="#F3652B" stroke-linecap="round" stroke-linejoin="round" stroke-dasharray="1 1"/>
<path d="M488.759 49.8382V48.9486C488.759 46.9718 487.177 45.4891 485.201 45.4891C483.224 45.4891 481.642 47.0706 481.642 49.0474V49.937H480.852V57.0536H489.55V49.937H488.759V49.8382ZM482.334 48.9486C482.334 47.3671 483.619 46.0822 485.201 46.0822C486.782 46.0822 488.067 47.3671 488.067 48.9486V49.8382H482.334V48.9486ZM488.957 56.2628H481.543V50.53H488.957V56.2628Z" fill="#F3652B"/>
<path d="M486.485 55.3732L486.09 53.3964C486.288 53.1987 486.387 52.9022 486.387 52.6056C486.387 52.0126 485.892 51.4196 485.201 51.4196C484.608 51.4196 484.014 51.9138 484.014 52.6056C484.014 52.9022 484.113 53.1987 484.311 53.3964L483.916 55.3732H486.485ZM485.201 52.1114C485.497 52.1114 485.695 52.3091 485.695 52.6056C485.695 52.8033 485.596 52.9022 485.497 53.001L485.299 53.0999L485.596 54.6813H484.805L485.102 53.2975V53.0999L484.904 53.001C484.805 52.9022 484.706 52.8033 484.706 52.6056C484.706 52.3091 485.003 52.1114 485.201 52.1114Z" fill="#F3652B"/>
<path d="M484.805 59.5246H486.387V62.1933H478.578L479.468 63.8736H474.625L475.514 62.1933H467.706V48.5532H477.096V50.1347H477.788V47.8613H467.014V62.8852H474.427L473.537 64.5655H480.555L479.764 62.8852H487.079V58.8327H484.805V59.5246Z" fill="#F3652B"/>
<path d="M146.966 357.827C146.966 373.049 134.71 385.305 119.488 385.305C104.266 385.305 92.0101 373.049 92.0101 357.827C92.0101 342.606 104.266 330.35 119.488 330.35C134.71 330.35 146.966 342.705 146.966 357.827Z" stroke="#F3652B" stroke-linecap="round" stroke-linejoin="round" stroke-dasharray="1 1"/>
<path d="M128.186 352.885V350.217C128.186 345.571 124.43 341.815 119.883 341.815C115.238 341.815 111.482 345.571 111.482 350.217V352.885H109.505V369.59H130.262V352.885H128.186ZM129.57 368.997H110.098V353.577H112.075V350.217C112.075 345.967 115.534 342.507 119.785 342.507C124.035 342.507 127.494 345.967 127.494 350.316V353.577H129.471V368.997H129.57Z" fill="#F3652B"/>
<path d="M119.883 343.891C116.424 343.891 113.557 346.757 113.557 350.217V353.577H126.209V350.217C126.209 346.658 123.342 343.891 119.883 343.891ZM114.15 352.885V350.217C114.15 347.054 116.72 344.484 119.883 344.484C123.046 344.484 125.616 347.054 125.616 350.217V352.885H114.15Z" fill="#F3652B"/>
<path d="M122.157 359.211C122.157 357.926 121.069 356.938 119.883 356.938C118.598 356.938 117.61 358.025 117.61 359.211C117.61 359.903 117.906 360.595 118.401 360.99L117.511 365.537H122.354L121.465 360.99C121.86 360.595 122.157 359.903 122.157 359.211ZM121.564 364.944H118.302L119.093 360.892V360.694L118.994 360.595C118.5 360.299 118.302 359.804 118.302 359.211C118.302 358.322 119.093 357.531 119.982 357.531C120.872 357.531 121.662 358.322 121.662 359.211C121.662 359.706 121.366 360.299 120.872 360.595L120.773 360.694L121.564 364.944Z" fill="#F3652B"/>
<path d="M476.404 401.911C476.404 417.132 464.147 429.389 448.926 429.389C433.704 429.389 421.448 417.132 421.448 401.911C421.448 386.689 433.704 374.433 448.926 374.433C464.049 374.433 476.404 386.689 476.404 401.911Z" stroke="#F3652B" stroke-linecap="round" stroke-linejoin="round" stroke-dasharray="1 1"/>
<path d="M454.065 398.55H460.49V393.707H454.065V398.55ZM459.897 397.858H454.658V394.3H459.897V397.858Z" fill="#F3652B"/>
<path d="M451.1 404.678H460.49V399.934H451.1V404.678ZM451.693 400.626H459.897V404.184H451.693V400.626Z" fill="#F3652B"/>
<path d="M453.967 410.806H460.49V406.062H453.967V410.806ZM454.56 406.655H459.897V410.213H454.56V406.655Z" fill="#F3652B"/>
<path d="M446.059 395.189L445.565 394.992V395.486C445.862 399.143 445.269 401.416 443.687 402.108C441.216 398.056 442.106 393.806 443.391 390.84L443.49 390.247L442.896 390.346C438.35 392.422 437.658 398.451 437.263 401.614V401.911C436.175 401.515 435.187 400.23 435.187 398.649V397.858L434.693 398.352C433.408 399.637 433.012 403.294 434.198 406.358C434.989 408.335 436.768 410.609 440.821 410.609C443.786 410.609 447.641 409.62 448.432 404.777C449.222 400.823 447.245 395.585 446.059 395.189ZM447.839 404.876C447.147 409.225 443.687 410.114 440.821 410.114C437.164 410.114 435.483 408.039 434.792 406.26C434.001 404.382 433.902 401.219 434.693 399.637C434.989 401.021 435.978 402.405 437.46 402.701L437.757 402.8L437.856 401.812C438.152 398.945 438.844 393.608 442.501 391.335C441.315 394.399 440.722 398.649 443.292 402.701L443.49 402.8L443.687 402.701C445.565 402.009 446.356 399.835 446.158 396.178C447.147 397.759 448.432 401.515 447.839 404.876Z" fill="#F3652B"/>
<path d="M448.629 395.881C449.025 396.672 449.321 397.463 449.519 398.254V398.451H452.781V393.707H446.85L447.443 394.201C447.937 394.695 448.234 395.189 448.629 395.881ZM452.188 394.399V397.957H450.013C449.815 397.166 449.519 396.474 449.124 395.684C448.926 395.189 448.629 394.794 448.333 394.399H452.188Z" fill="#F3652B"/>
<path d="M449.815 406.062V406.26C449.618 406.952 449.42 407.545 449.124 408.039C448.728 408.83 448.135 409.62 447.443 410.213L446.85 410.806H452.88V406.062H450.112H449.815ZM452.188 406.655V410.213H448.333C448.827 409.719 449.222 409.027 449.618 408.434C449.914 407.94 450.112 407.347 450.31 406.754H452.188V406.655Z" fill="#F3652B"/>
<path d="M248.278 132.964C254.938 132.964 260.337 127.565 260.337 120.905C260.337 114.245 254.938 108.846 248.278 108.846C241.618 108.846 236.22 114.245 236.22 120.905C236.22 127.565 241.618 132.964 248.278 132.964Z" fill="#F3652B"/>
<path d="M415.913 276.975H353.742V339.146H415.913V276.975Z" stroke="#CCCCCC" stroke-miterlimit="10"/>
<path d="M303.629 410.806H278.721V435.714H303.629V410.806Z" fill="#646464"/>
<path d="M344.056 370.38H291.176V423.26H344.056V370.38Z" stroke="#F3652B" stroke-miterlimit="10"/>
<path d="M321.421 147.098V151.249C321.421 151.249 322.014 162.517 309.955 162.517H297.699C297.699 162.517 285.146 161.035 285.146 174.773V184.855" stroke="#646464" stroke-miterlimit="10" stroke-linecap="round" stroke-linejoin="round" stroke-dasharray="40 40"/>
<path d="M308.077 119.719C308.077 119.719 321.52 118.73 321.52 132.173C321.52 133.655 321.52 140.574 321.52 144.726" stroke="#646464" stroke-miterlimit="10" stroke-linecap="round" stroke-linejoin="round" stroke-dasharray="40 40"/>
<path d="M300.17 119.719H308.077H270.517H300.367" stroke="#646464" stroke-miterlimit="10" stroke-linecap="round" stroke-linejoin="round" stroke-dasharray="40 40"/>
<path d="M267.552 122.684C269.19 122.684 270.518 121.357 270.518 119.719C270.518 118.081 269.19 116.754 267.552 116.754C265.915 116.754 264.587 118.081 264.587 119.719C264.587 121.357 265.915 122.684 267.552 122.684Z" stroke="#646464" stroke-miterlimit="10" stroke-linecap="round" stroke-linejoin="round" stroke-dasharray="40 40"/>
<rect x="366.399" y="375.427" width="6.9073" height="6.9073" rx="0.5" stroke="#979797"/>
<rect x="505.765" y="135.243" width="8.88412" height="8.88412" rx="0.5" stroke="#1E1E1E"/>
<rect x="180.328" y="193.309" width="9.38412" height="9.38412" rx="0.75" stroke="#F3652B" stroke-width="0.5"/>
<rect x="410.628" y="150.807" width="7.4073" height="7.4073" rx="0.75" stroke="#F3652B" stroke-width="0.5"/>
<rect x="381.964" y="364.304" width="4.44206" height="4.44206" rx="0.75" stroke="#F3652B" stroke-width="0.5"/>
<rect x="400.005" y="129.312" width="6.9073" height="6.9073" rx="0.5" stroke="#C8C8C8"/>
<line x1="533.216" y1="246.433" x2="533.216" y2="250.028" stroke="#F3652B"/>
<line x1="533.216" y1="252.723" x2="533.216" y2="256.317" stroke="#F3652B"/>
<line x1="537.883" y1="251.651" x2="534.289" y2="251.651" stroke="#F3652B"/>
<line x1="531.593" y1="251.651" x2="527.999" y2="251.651" stroke="#F3652B"/>
<line x1="190.237" y1="426.324" x2="190.237" y2="429.919" stroke="#1E1E1E"/>
<line x1="190.237" y1="432.614" x2="190.237" y2="436.208" stroke="#1E1E1E"/>
<line x1="194.904" y1="431.542" x2="191.31" y2="431.542" stroke="#1E1E1E"/>
<line x1="188.614" y1="431.542" x2="185.02" y2="431.542" stroke="#1E1E1E"/>
<rect x="140.053" y="415.952" width="8.88412" height="8.88412" rx="0.5" stroke="#1E1E1E"/>
<rect x="113.366" y="211.351" width="4.93048" height="4.93048" rx="0.5" stroke="#1E1E1E"/>
<rect x="87.4171" y="280.289" width="6.41889" height="6.41889" rx="0.75" stroke="#F3652B" stroke-width="0.5"/>
<rect x="202.073" y="397.366" width="9.38412" height="9.38412" rx="0.75" stroke="#F3652B" stroke-width="0.5"/>
<rect x="510.708" y="407.056" width="7.89571" height="7.89571" rx="0.5" stroke="#979797"/>
<rect x="551.232" y="212.339" width="5.91889" height="5.91889" rx="0.5" stroke="#979797"/>
<line x1="418.291" y1="82.3569" x2="418.291" y2="90.2642" stroke="#D8D8D8"/>
<line x1="418.291" y1="96.1947" x2="418.291" y2="104.102" stroke="#D8D8D8"/>
<line x1="429.158" y1="93.2354" x2="421.25" y2="93.2354" stroke="#D8D8D8"/>
<line x1="415.32" y1="93.2354" x2="407.413" y2="93.2354" stroke="#D8D8D8"/>
<line x1="253.451" y1="399.637" x2="253.451" y2="403.95" stroke="#D8D8D8"/>
<line x1="253.451" y1="407.185" x2="253.451" y2="411.498" stroke="#D8D8D8"/>
<line x1="259.151" y1="405.798" x2="254.838" y2="405.798" stroke="#D8D8D8"/>
<line x1="251.603" y1="405.798" x2="247.289" y2="405.798" stroke="#D8D8D8"/>
<rect y="28.1847" width="640" height="0.493529" fill="#EBEBEB"/>
<rect y="276.923" width="640" height="0.493529" fill="#EBEBEB"/>
<rect y="90.3694" width="640" height="0.493529" fill="#EBEBEB"/>
<rect y="339.108" width="640" height="0.493529" fill="#EBEBEB"/>
<rect y="152.554" width="640" height="0.493529" fill="#EBEBEB"/>
<rect y="401.293" width="640" height="0.493529" fill="#EBEBEB"/>
<rect y="462.293" width="640" height="0.493529" fill="#EBEBEB"/>
<rect y="214.739" width="640" height="0.493529" fill="#EBEBEB"/>
<rect x="103.627" width="0.485465" height="512" fill="#EBEBEB"/>
<rect x="40.6731" width="0.485465" height="512" fill="#EBEBEB"/>
<rect x="165.767" width="0.485465" height="512" fill="#EBEBEB"/>
<rect x="290.046" width="0.485465" height="512" fill="#EBEBEB"/>
<rect x="352.185" width="0.485465" height="512" fill="#EBEBEB"/>
<rect x="227.906" width="0.485465" height="512" fill="#EBEBEB"/>
<rect x="352.185" width="0.485465" height="512" fill="#EBEBEB"/>
<rect x="414.325" width="0.485465" height="512" fill="#EBEBEB"/>
<rect x="538.604" width="0.485465" height="512" fill="#EBEBEB"/>
<rect x="600.743" width="0.485465" height="512" fill="#EBEBEB"/>
<rect x="476.464" width="0.485465" height="512" fill="#EBEBEB"/>
</svg>
