<svg viewBox="0 0 317 328" fill="none" xmlns="http://www.w3.org/2000/svg">
<path d="M38.3196 83.3516C46.5054 75.3821 54.2301 67.9659 62.3006 60.2177C68.5264 65.3094 75.0981 70.2904 81.4392 75.7141C88.4721 81.6913 95.6202 82.3554 104.037 78.26C111.069 74.8286 118.564 72.0614 126.058 69.5156C134.82 66.4163 138.394 62.2101 139.201 53.1337C139.893 45.0534 140.584 37.0838 141.391 28.2288C147.156 28.2288 152.575 28.2288 157.994 28.2288C163.412 28.2288 168.947 28.2288 175.172 28.2288C175.979 36.309 176.786 44.0572 177.478 51.8054C178.401 62.9849 181.513 66.4163 192.697 70.1797C199.96 72.6148 207.108 75.7141 214.026 78.9241C221.174 82.2447 227.631 81.9127 233.741 77.0424C237.315 74.2752 240.774 71.3973 244.233 68.6301C247.692 65.8628 251.266 62.9849 254.494 60.4391C262.449 68.1873 270.174 75.6034 278.359 83.573C273.402 89.2181 267.983 95.4167 262.564 101.505C255.531 109.585 255.186 114.455 259.797 123.642C263.025 130.173 265.908 136.814 268.444 143.677C271.903 153.307 276.054 156.517 286.891 157.292C295.077 157.845 303.147 158.62 311.564 159.395C311.564 170.353 311.564 180.868 311.564 191.937C303.263 192.601 295.077 193.487 286.891 194.04C276.054 194.815 272.018 198.025 268.444 207.655C265.908 214.407 263.025 221.159 259.797 227.579C255.07 236.877 255.416 241.747 262.449 249.827C267.753 255.915 273.056 261.892 277.898 267.427C269.828 275.175 261.988 282.702 253.687 290.56C247.922 285.912 241.235 280.599 234.663 275.175C227.746 269.419 220.713 268.976 212.643 272.961C205.379 276.503 197.654 279.381 189.93 281.927C182.09 284.583 178.055 289.564 177.363 297.423C176.671 305.725 175.864 313.916 175.172 322.66C163.874 322.66 153.036 322.66 141.276 322.66C140.584 314.801 139.662 306.832 139.086 298.862C138.279 288.679 134.82 284.805 124.674 281.373C117.411 278.938 110.147 276.171 103.23 272.74C95.2743 268.866 88.4721 269.53 81.7851 275.064C75.2134 280.488 68.5264 285.801 62.3006 290.893C54.2301 283.144 46.5054 275.728 38.2044 267.759C43.2772 261.892 48.696 255.583 54.3454 249.384C60.3406 242.854 61.0323 236.102 56.9971 228.243C53.3077 221.269 50.3101 213.853 47.6584 206.437C44.8913 198.578 39.5879 194.704 31.0562 194.151C22.4092 193.597 13.8776 192.712 5 191.937C5 180.868 5 170.463 5 159.505C13.3011 158.73 21.4869 158.066 29.6727 157.402C40.7408 156.517 44.4302 153.528 48.1195 143.788C50.7713 136.593 53.8842 129.509 57.343 122.646C61.1476 115.23 60.4559 108.81 54.9218 102.611C49.3878 96.0808 43.8537 89.6609 38.3196 83.3516ZM158.34 96.7449C113.721 96.5236 76.7122 131.722 76.3663 174.67C76.0204 218.17 112.453 254.144 157.187 254.365C203.073 254.697 240.313 219.831 240.543 176.441C240.659 132.276 204.226 96.9663 158.34 96.7449Z" stroke="#F7F7F7" stroke-width="9" stroke-miterlimit="10" stroke-linecap="round" stroke-linejoin="round"/>
<path d="M103.114 175.112C103.114 145.78 128.017 122.092 158.685 122.203C189.007 122.203 213.68 146.112 213.68 175.223C213.68 204.666 188.776 228.574 158.339 228.463C127.671 228.353 102.999 204.555 103.114 175.112Z" stroke="#F7F7F7" stroke-width="9" stroke-miterlimit="10" stroke-linecap="round" stroke-linejoin="round"/>
<path d="M155.462 227.47C155.462 229.684 155.462 232.673 155.462 236.879C155.462 246.951 170.566 247.616 170.566 247.616C170.566 247.616 213.224 247.616 219.45 247.616C221.64 247.616 223.485 246.509 225.099 245.18C228.097 242.413 229.596 238.539 229.596 234.665V202.344H238.358C242.047 202.344 244.353 198.47 242.508 195.481L229.019 173.122C228.212 171.683 227.866 170.133 228.097 168.584C228.789 164.488 229.25 154.858 224.408 139.915C216.452 115.121 192.126 101.506 192.126 101.506L148.084 143.789" stroke="#F3652B" stroke-width="2" stroke-linecap="round" stroke-linejoin="round"/>
<path d="M155.459 231.893C157.879 231.893 159.841 230.01 159.841 227.687C159.841 225.364 157.879 223.481 155.459 223.481C153.04 223.481 151.078 225.364 151.078 227.687C151.078 230.01 153.04 231.893 155.459 231.893Z" fill="white"/>
<path d="M150.503 227.692C150.503 230.237 152.693 232.451 155.46 232.451C158.227 232.451 160.418 230.348 160.418 227.692C160.418 225.035 158.227 222.932 155.46 222.932C152.693 222.932 150.503 225.146 150.503 227.692C150.503 230.237 150.503 225.146 150.503 227.692ZM159.15 227.692C159.15 229.684 157.42 231.344 155.345 231.344C153.27 231.344 151.54 229.684 151.54 227.692C151.54 225.699 153.27 224.039 155.345 224.039C157.42 224.039 159.15 225.699 159.15 227.692C159.15 229.684 159.15 225.699 159.15 227.692Z" fill="#F3652B"/>
<path d="M145.2 140.691C143.471 142.351 143.471 144.897 145.2 146.558C146.929 148.218 149.581 148.218 151.31 146.558C153.04 144.897 153.04 142.351 151.31 140.691C149.696 139.031 146.929 139.031 145.2 140.691Z" fill="white"/>
<path d="M144.856 140.248C146.816 138.367 149.928 138.367 151.773 140.248C153.618 142.13 153.733 145.119 151.773 146.89C149.813 148.771 146.7 148.771 144.856 146.89C142.895 145.119 142.895 142.13 144.856 140.248C146.7 138.478 142.895 142.13 144.856 140.248ZM150.966 146.115C152.465 144.676 152.465 142.462 150.966 141.023C149.467 139.584 147.161 139.584 145.663 141.023C144.164 142.462 144.164 144.676 145.663 146.115C147.161 147.554 149.467 147.554 150.966 146.115C152.465 144.787 149.467 147.554 150.966 146.115Z" fill="#F3652B"/>
<path d="M214.606 171.018H188.896C187.051 171.018 185.552 169.579 185.552 167.808V160.835C185.552 159.064 187.051 157.625 188.896 157.625H214.606C216.451 157.625 217.95 159.064 217.95 160.835V167.808C217.95 169.579 216.451 171.018 214.606 171.018Z" stroke="#F3652B" stroke-width="2" stroke-miterlimit="10" stroke-linecap="round" stroke-linejoin="round"/>
<path d="M229.479 213.745H208.956C208.956 213.745 203.307 214.631 203.307 218.615C203.307 222.6 203.307 237.543 203.307 237.543" stroke="#F3652B" stroke-width="2" stroke-miterlimit="10" stroke-linecap="round" stroke-linejoin="round"/>
<path d="M117.992 213.855C129.772 213.855 139.321 204.687 139.321 193.378C139.321 182.068 129.772 172.9 117.992 172.9C106.212 172.9 96.6628 182.068 96.6628 193.378C96.6628 204.687 106.212 213.855 117.992 213.855Z" stroke="#F3652B" stroke-width="2" stroke-miterlimit="10" stroke-linecap="round" stroke-linejoin="round"/>
<path d="M117.993 203.117C123.597 203.117 128.139 198.756 128.139 193.376C128.139 187.997 123.597 183.636 117.993 183.636C112.39 183.636 107.848 187.997 107.848 193.376C107.848 198.756 112.39 203.117 117.993 203.117Z" stroke="#F3652B" stroke-width="2" stroke-miterlimit="10" stroke-linecap="round" stroke-linejoin="round"/>
<path d="M177.598 210.201C186.822 226.583 180.711 247.614 180.711 247.614" stroke="#F3652B" stroke-width="2" stroke-miterlimit="10" stroke-linecap="round" stroke-linejoin="round"/>
<path d="M138.627 188.175C138.627 188.175 149.811 187.068 162.608 194.927" stroke="#F3652B" stroke-width="2" stroke-miterlimit="10" stroke-linecap="round" stroke-linejoin="round"/>
<path d="M170.795 211.641C176.398 211.641 180.941 207.28 180.941 201.9C180.941 196.52 176.398 192.159 170.795 192.159C165.191 192.159 160.649 196.52 160.649 201.9C160.649 207.28 165.191 211.641 170.795 211.641Z" stroke="#F3652B" stroke-width="2" stroke-miterlimit="10" stroke-linecap="round" stroke-linejoin="round"/>
<path d="M143.925 261.67C146.218 261.67 148.076 259.886 148.076 257.685C148.076 255.484 146.218 253.7 143.925 253.7C141.633 253.7 139.775 255.484 139.775 257.685C139.775 259.886 141.633 261.67 143.925 261.67Z" stroke="#F3652B" stroke-width="2" stroke-miterlimit="10" stroke-linecap="round" stroke-linejoin="round"/>
<path d="M143.926 250.38C143.926 254.918 143.926 253.59 143.926 253.59" stroke="#F3652B" stroke-width="2" stroke-miterlimit="10" stroke-linecap="round" stroke-linejoin="round"/>
<path d="M143.926 241.193C143.926 243.406 143.926 245.62 143.926 247.723" stroke="#F3652B" stroke-width="2" stroke-miterlimit="10" stroke-linecap="round" stroke-linejoin="round"/>
<path d="M136.429 223.594C136.429 223.594 143.924 223.262 143.924 230.789C143.924 233.335 143.924 232.781 143.924 237.762" stroke="#F3652B" stroke-width="2" stroke-miterlimit="10" stroke-linecap="round" stroke-linejoin="round"/>
<path d="M133.779 223.593H124.21C124.21 223.593 118.33 224.147 118.33 218.059C118.33 211.971 118.33 213.521 118.33 213.521" stroke="#F3652B" stroke-width="2" stroke-miterlimit="10" stroke-linecap="round" stroke-linejoin="round"/>
<path d="M117.64 166.701V159.617V172.014" stroke="#F3652B" stroke-width="2" stroke-miterlimit="10" stroke-linecap="round" stroke-linejoin="round"/>
<path d="M101.039 109.364C101.039 109.364 117.641 108.036 117.641 125.857V141.353V150.872" stroke="#F3652B" stroke-width="2" stroke-miterlimit="10" stroke-linecap="round" stroke-linejoin="round"/>
<path d="M87.5497 109.364H95.2743" stroke="#F3652B" stroke-width="2" stroke-miterlimit="10" stroke-linecap="round" stroke-linejoin="round"/>
<path d="M84.4391 112.13C86.1583 112.13 87.552 110.792 87.552 109.142C87.552 107.491 86.1583 106.153 84.4391 106.153C82.7199 106.153 81.3262 107.491 81.3262 109.142C81.3262 110.792 82.7199 112.13 84.4391 112.13Z" stroke="#F3652B" stroke-width="2" stroke-miterlimit="10" stroke-linecap="round" stroke-linejoin="round"/>
<path d="M28.0596 225.698C30.3519 225.698 32.2102 223.914 32.2102 221.713C32.2102 219.512 30.3519 217.728 28.0596 217.728C25.7673 217.728 23.9091 219.512 23.9091 221.713C23.9091 223.914 25.7673 225.698 28.0596 225.698Z" stroke="#F3652B" stroke-width="2" stroke-miterlimit="10" stroke-linecap="round" stroke-linejoin="round"/>
<path d="M39.359 221.714H32.2108" stroke="#F3652B" stroke-width="2" stroke-miterlimit="10" stroke-linecap="round" stroke-linejoin="round"/>
<path d="M52.2707 221.714H43.1626" stroke="#F3652B" stroke-width="2" stroke-miterlimit="10" stroke-linecap="round" stroke-linejoin="round"/>
<path d="M72.1018 212.194V214.407C72.1018 214.407 72.4477 221.602 64.6078 221.602H54.6926" stroke="#F3652B" stroke-width="2" stroke-miterlimit="10" stroke-linecap="round" stroke-linejoin="round"/>
<path d="M72.1021 202.454V209.87" stroke="#F3652B" stroke-width="2" stroke-miterlimit="10" stroke-linecap="round" stroke-linejoin="round"/>
<path d="M96.6583 190.056C96.6583 190.056 89.7407 190.056 80.2866 190.056C71.5243 190.056 72.1008 197.915 72.1008 197.915" stroke="#F3652B" stroke-width="2" stroke-miterlimit="10" stroke-linecap="round" stroke-linejoin="round"/>
<path d="M175.748 66.9703C175.748 51.8059 162.374 39.5195 146.348 40.5157C132.283 41.4012 120.984 52.5808 120.523 66.1954C120.292 74.6078 124.097 82.2453 130.207 87.2263C133.551 89.9935 135.511 94.089 135.511 98.4058C135.511 99.9554 136.894 101.284 138.508 101.284H157.647C159.261 101.284 160.645 99.9554 160.645 98.4058C160.645 94.089 162.489 89.9935 165.948 87.2263C171.943 82.356 175.748 75.0505 175.748 66.9703Z" stroke="#F3652B" stroke-width="2" stroke-miterlimit="10" stroke-linecap="round" stroke-linejoin="round"/>
<path d="M159.603 108.477H137.237C136.43 108.477 135.738 107.813 135.738 107.038V105.489C135.738 104.714 136.43 104.05 137.237 104.05H159.603C160.41 104.05 161.102 104.714 161.102 105.489V107.038C161.102 107.813 160.41 108.477 159.603 108.477Z" stroke="#F3652B" stroke-width="2" stroke-miterlimit="10" stroke-linecap="round" stroke-linejoin="round"/>
<path d="M159.603 115.784H137.237C136.43 115.784 135.738 115.119 135.738 114.345V112.795C135.738 112.02 136.43 111.356 137.237 111.356H159.603C160.41 111.356 161.102 112.02 161.102 112.795V114.345C161.102 115.119 160.41 115.784 159.603 115.784Z" stroke="#F3652B" stroke-width="2" stroke-miterlimit="10" stroke-linecap="round" stroke-linejoin="round"/>
<path d="M148.082 1V28.6719" stroke="#F3652B" stroke-width="2" stroke-miterlimit="10" stroke-linecap="round" stroke-linejoin="round"/>
<path d="M86.6281 71.6189H115.451" stroke="#F3652B" stroke-width="2" stroke-miterlimit="10" stroke-linecap="round" stroke-linejoin="round"/>
<path d="M182.783 71.6189H211.606" stroke="#F3652B" stroke-width="2" stroke-miterlimit="10" stroke-linecap="round" stroke-linejoin="round"/>
<path d="M105.651 22.2524L126.057 41.8442" stroke="#F3652B" stroke-width="2" stroke-miterlimit="10" stroke-linecap="round" stroke-linejoin="round"/>
<path d="M190.389 22.2524L169.983 41.8442" stroke="#F3652B" stroke-width="2" stroke-miterlimit="10" stroke-linecap="round" stroke-linejoin="round"/>
<path d="M156.381 307.716C158.673 307.716 160.531 305.932 160.531 303.732C160.531 301.531 158.673 299.747 156.381 299.747C154.088 299.747 152.23 301.531 152.23 303.732C152.23 305.932 154.088 307.716 156.381 307.716Z" stroke="#F3652B" stroke-width="2" stroke-miterlimit="10" stroke-linecap="round" stroke-linejoin="round"/>
<path d="M156.381 292.776V299.75" stroke="#F3652B" stroke-width="2" stroke-miterlimit="10" stroke-linecap="round" stroke-linejoin="round"/>
<path d="M156.381 280.488V289.232" stroke="#F3652B" stroke-width="2" stroke-miterlimit="10" stroke-linecap="round" stroke-linejoin="round"/>
<path d="M166.296 261.34H163.99C163.99 261.34 156.496 261.008 156.496 268.535V278.164" stroke="#F3652B" stroke-width="2" stroke-miterlimit="10" stroke-linecap="round" stroke-linejoin="round"/>
<path d="M176.444 261.339H168.719" stroke="#F3652B" stroke-width="2" stroke-miterlimit="10" stroke-linecap="round" stroke-linejoin="round"/>
<path d="M189.356 248.499C189.356 248.499 189.356 244.404 189.356 253.591C189.356 262.003 181.17 261.45 181.17 261.45" stroke="#F3652B" stroke-width="2" stroke-miterlimit="10" stroke-linecap="round" stroke-linejoin="round"/>
<path d="M278.129 101.504C280.421 101.504 282.279 99.7203 282.279 97.5196C282.279 95.3189 280.421 93.5349 278.129 93.5349C275.836 93.5349 273.978 95.3189 273.978 97.5196C273.978 99.7203 275.836 101.504 278.129 101.504Z" stroke="#F3652B" stroke-width="2" stroke-miterlimit="10" stroke-linecap="round" stroke-linejoin="round"/>
<path d="M266.83 97.5187H273.978" stroke="#F3652B" stroke-width="2" stroke-miterlimit="10" stroke-linecap="round" stroke-linejoin="round"/>
<path d="M253.917 97.5187H263.025" stroke="#F3652B" stroke-width="2" stroke-miterlimit="10" stroke-linecap="round" stroke-linejoin="round"/>
<path d="M234.087 107.038V104.824C234.087 104.824 233.741 97.6296 241.581 97.6296H251.612" stroke="#F3652B" stroke-width="2" stroke-miterlimit="10" stroke-linecap="round" stroke-linejoin="round"/>
<path d="M234.085 116.78V109.364" stroke="#F3652B" stroke-width="2" stroke-miterlimit="10" stroke-linecap="round" stroke-linejoin="round"/>
<path d="M220.596 129.177C220.596 129.177 216.331 129.177 225.9 129.177C234.662 129.177 234.086 121.318 234.086 121.318" stroke="#F3652B" stroke-width="2" stroke-miterlimit="10" stroke-linecap="round" stroke-linejoin="round"/>
</svg>
