<svg width="190" height="189" viewBox="0 0 190 189" fill="none" xmlns="http://www.w3.org/2000/svg">
<path d="M188.784 94.5C188.784 146.414 146.636 188.5 94.6418 188.5C42.648 188.5 0.5 146.414 0.5 94.5C0.5 42.5859 42.648 0.5 94.6418 0.5C146.636 0.5 188.784 42.5859 188.784 94.5Z" stroke="#6B6C7E"/>
<path d="M39.5483 136.402L39.537 135.903L39.5483 136.902V136.402ZM106.838 52.2439C106.643 52.0486 106.327 52.0486 106.131 52.2439L102.949 55.4258C102.754 55.6211 102.754 55.9377 102.949 56.1329C103.145 56.3282 103.461 56.3282 103.656 56.1329L106.485 53.3045L109.313 56.1329C109.509 56.3282 109.825 56.3282 110.02 56.1329C110.216 55.9377 110.216 55.6211 110.02 55.4258L106.838 52.2439ZM39.5483 136.402C39.5597 136.902 39.56 136.902 39.5604 136.902C39.5607 136.902 39.5611 136.902 39.5617 136.902C39.5627 136.902 39.5642 136.902 39.5661 136.902C39.5698 136.902 39.5751 136.902 39.582 136.902C39.5958 136.901 39.6159 136.901 39.6423 136.9C39.695 136.898 39.7726 136.895 39.8741 136.89C40.0772 136.88 40.3761 136.863 40.7631 136.834C41.5372 136.776 42.6644 136.67 44.0842 136.476C46.9234 136.09 50.9347 135.355 55.6341 133.961C65.0318 131.174 77.1926 125.749 88.2301 115.198L87.5391 114.475C76.6445 124.89 64.6372 130.248 55.3498 133.002C50.7066 134.379 46.7461 135.105 43.9492 135.486C42.5509 135.676 41.4439 135.78 40.6883 135.837C40.3106 135.865 40.0207 135.882 39.8263 135.891C39.7291 135.896 39.6558 135.899 39.6072 135.9C39.583 135.901 39.5649 135.902 39.5531 135.902C39.5473 135.902 39.543 135.902 39.5403 135.902C39.5389 135.902 39.538 135.903 39.5374 135.903C39.5371 135.903 39.537 135.903 39.5369 135.903C39.5369 135.903 39.537 135.903 39.5483 136.402ZM88.2301 115.198C110.35 94.0534 106.985 63.6799 106.985 52.5974H105.985C105.985 63.849 109.283 93.6903 87.5391 114.475L88.2301 115.198ZM39.5483 136.902H149.736V135.902H39.5483V136.902Z" fill="#666666"/>
<ellipse cx="94.6413" cy="94.4999" rx="22.6911" ry="22.6572" fill="#1E1E1E"/>
<path d="M97.2236 99.5922C97.2236 98.9368 96.9921 98.3847 96.5291 97.9359C96.0731 97.4871 95.3002 97.0811 94.2103 96.7178C92.6929 96.2547 91.5851 95.6528 90.887 94.9119C90.196 94.1639 89.8505 93.2164 89.8505 92.0695C89.8505 90.9012 90.1889 89.943 90.8656 89.195C91.5495 88.447 92.4863 88.0018 93.676 87.8593V85.5191H95.2681V87.87C96.4649 88.0339 97.3946 88.5361 98.0571 89.3767C98.7267 90.2173 99.0616 91.3678 99.0616 92.8282H97.0954C97.0954 91.8237 96.8567 91.0259 96.3795 90.4346C95.9022 89.8433 95.2575 89.5477 94.4453 89.5477C93.5976 89.5477 92.9493 89.7685 92.5005 90.2102C92.0517 90.6447 91.8273 91.2538 91.8273 92.0374C91.8273 92.7641 92.0624 93.3446 92.5326 93.7792C93.0099 94.2066 93.79 94.5984 94.8728 94.9546C95.9627 95.3037 96.8104 95.6919 97.416 96.1194C98.0286 96.5397 98.4774 97.0312 98.7624 97.594C99.0544 98.1568 99.2005 98.8157 99.2005 99.5709C99.2005 100.775 98.8372 101.744 98.1105 102.477C97.391 103.211 96.3795 103.646 95.0758 103.781V105.822H93.4943V103.781C92.1693 103.66 91.1292 103.19 90.3741 102.371C89.6261 101.544 89.2521 100.426 89.2521 99.0152H91.2289C91.2289 100.005 91.489 100.768 92.009 101.302C92.529 101.836 93.2664 102.103 94.2209 102.103C95.1542 102.103 95.8879 101.879 96.4222 101.43C96.9565 100.981 97.2236 100.369 97.2236 99.5922Z" fill="white"/>
</svg>
