<svg width="514" height="412" fill="none" xmlns="http://www.w3.org/2000/svg"><g clip-path="url(#clip0)"><path d="M81.76 256.145c-.275 0-.344-.206-.344-.412.207-1.371.62-2.674 1.241-3.839.62-1.303 1.517-2.469 2.552-3.497a.333.333 0 01.483 0 .33.33 0 010 .48 12.68 12.68 0 00-2.414 3.291c-.552 1.165-.966 2.4-1.173 3.634 0 .206-.138.343-.345.343zM86.864 247.779c-.138 0-.207-.068-.276-.137-.137-.137-.069-.342.07-.48 2.344-1.782 5.103-2.674 8.07-2.674.827 0 1.723.069 2.551.206v-.754a12 12 0 01.207-2.263c.276-1.303.759-2.469 1.448-3.634.828-1.372 2.001-2.606 3.38-3.566 1.862-1.303 4.138-1.92 6.414-1.92 1.794 0 3.449.412 5.035 1.166 1.587.754 3.035 1.92 4.069 3.36.966 1.234 1.656 2.743 2.001 4.251a12.847 12.847 0 011.931-1.44.366.366 0 01.483.137.36.36 0 01-.138.48c-.828.48-1.587 1.097-2.276 1.783-.069.069-.207.137-.345.069-.138-.069-.207-.138-.207-.275a10.559 10.559 0 00-2-4.594 11.482 11.482 0 00-3.863-3.154c-1.517-.754-3.103-1.097-4.759-1.097a10.5 10.5 0 00-6 1.851c-1.311.892-2.414 1.989-3.173 3.36-.62 1.029-1.103 2.194-1.31 3.36-.138.686-.207 1.44-.207 2.126 0 .342 0 .754.069 1.165 0 .137 0 .206-.138.275-.07.068-.207.137-.276.068-.966-.206-1.862-.343-2.828-.343-2.759 0-5.449.892-7.656 2.537-.138.137-.207.137-.276.137zM153.974 253.128a.528.528 0 01-.276-.137 12.73 12.73 0 00-2.552-2.126c-1.173-.686-2.414-1.166-3.725-1.371-1.103-.206-2.276-.206-3.379-.069-.897.137-1.725.343-2.552.686-.069.068-.207 0-.276 0-.069-.069-.138-.137-.138-.275-.138-1.714-.69-3.291-1.517-4.731-.69-1.234-1.656-2.4-2.759-3.36-1.035-.891-2.207-1.577-3.449-2.125-.759-.343-1.586-.549-2.345-.686a12.697 12.697 0 00-6.207.343c-.207.069-.345-.069-.414-.206-.069-.205.069-.343.207-.411 2.069-.686 4.345-.823 6.552-.412.828.138 1.724.412 2.483.755a13.52 13.52 0 013.655 2.262 14.013 14.013 0 012.897 3.497c.828 1.44 1.311 2.949 1.518 4.595.758-.275 1.517-.48 2.345-.549 1.172-.137 2.414-.137 3.586.069 1.38.274 2.759.754 4 1.508a10.668 10.668 0 012.69 2.263.33.33 0 010 .48h-.344zM156.663 260.396c-.207 0-.345-.137-.345-.343 0-1.303-.206-2.537-.689-3.771-.069-.206 0-.343.207-.412.207-.068.345 0 .414.206.482 1.303.758 2.606.758 3.977 0 .206-.138.343-.345.343zM154.387 267.184c-.069 0-.138 0-.207-.068-.138-.137-.207-.343-.069-.48a10.45 10.45 0 001.932-4.046c.069-.206.206-.274.413-.274.207.068.276.206.276.411-.345 1.577-1.103 3.017-2.069 4.32a.52.52 0 01-.276.137zM145.559 271.435c-.207 0-.345-.137-.345-.342 0-.206.138-.343.345-.343 1.241 0 2.483-.206 3.724-.617 1.173-.412 2.207-1.029 3.173-1.783.138-.137.345-.069.483.069.138.137.069.342-.069.48a12.676 12.676 0 01-3.38 1.919 12.397 12.397 0 01-3.931.617zM143.49 271.435h-20.761c-.206 0-.344-.137-.344-.342 0-.206.138-.343.344-.343H143.49c.207 0 .345.137.345.343 0 .205-.138.342-.345.342zM117.35 271.367h-8.415c-4 0-7.587-.069-10.346-.069-.206 0-.344-.137-.344-.343 0-.205.138-.342.344-.342 2.69 0 6.277 0 10.346.068h8.415c.207 0 .345.137.345.343 0 .137-.138.343-.345.343zM94.727 271.23c-2.138 0-4.138-.48-6.07-1.44-.137-.069-.206-.274-.137-.48.069-.137.276-.206.483-.137 1.793.891 3.724 1.371 5.724 1.371.207 0 .345.137.345.343 0 .206-.138.343-.345.343zM83.623 265.127c-.138 0-.207-.068-.276-.137-1.31-2.126-2.07-4.594-2.07-7.062 0-.206.139-.343.346-.343.206 0 .344.137.344.343 0 2.399.69 4.731 1.932 6.719a.36.36 0 01-.138.48h-.138z" fill="#646464"/><path d="M294.263 236.672l-168.704 78.373c-2.069.96-2.138 3.84-.138 4.937l98.284 50.946c.759.412 1.655.412 2.483.069l168.29-78.579c2.069-.96 2.138-3.84.069-4.937l-97.801-50.741c-.759-.411-1.656-.411-2.483-.068z" fill="#1E1E1E"/><path d="M225.014 371.545c-.483 0-.966-.137-1.448-.343l-11.657-6.034c-.138-.069-.207-.274-.138-.48.069-.206.276-.206.483-.137l11.656 6.034c.621.343 1.449.343 2.138.068l20.347-9.462c.207-.069.345 0 .483.137.069.137 0 .343-.138.48l-20.347 9.463a3.532 3.532 0 01-1.379.274zm27.244-12.411a.38.38 0 01-.345-.206c-.069-.137 0-.343.138-.48l23.036-10.765c.207-.068.345 0 .483.137.069.137 0 .343-.138.48l-23.036 10.765c-.069.069-.138.069-.138.069zm-74.076-11.519c-.069 0-.138 0-.138-.069l-6.759-3.497c-.138-.069-.207-.274-.138-.48.069-.137.276-.206.483-.137l6.759 3.497c.138.068.207.274.138.48a.38.38 0 01-.345.206zm102.837-1.92a.38.38 0 01-.345-.206c-.069-.137 0-.343.138-.48l6.897-3.223c.207-.068.345 0 .483.137.069.138 0 .343-.138.48l-6.897 3.223c-.069.069-.069.069-.138.069zm-115.251-4.457c-.069 0-.138 0-.138-.069l-22.554-11.725c-.138-.069-.207-.274-.138-.48.069-.137.276-.206.483-.137l22.553 11.725c.138.069.207.274.138.48a.379.379 0 01-.344.206zm-28.21-14.674c-.069 0-.138 0-.138-.068l-12.139-6.309a3.065 3.065 0 01-1.655-2.742c0-1.235.69-2.263 1.793-2.812l16.622-7.679c.138-.069.345 0 .483.137s0 .343-.138.48l-16.622 7.679c-.827.412-1.379 1.235-1.379 2.195 0 .891.483 1.714 1.31 2.125l12.139 6.308c.138.069.207.275.138.48-.138.138-.276.206-.414.206zm184.912-.274a.378.378 0 01-.344-.206c-.069-.137 0-.343.137-.48l34.555-16.113c.207-.069.345 0 .483.137.069.137 0 .343-.138.48l-34.555 16.113c-.069.069-.069.069-.138.069zm40.28-18.788a.38.38 0 01-.345-.205c-.069-.138 0-.343.138-.48l23.036-10.766c.207-.068.345 0 .483.138.069.137 0 .342-.138.479l-23.036 10.766c0 .068-.069.068-.138.068zm28.83-13.439a.38.38 0 01-.345-.206c-.069-.137 0-.343.138-.48l2.897-1.371c.827-.412 1.379-1.234 1.379-2.194 0-.412-.069-.755-.276-1.097-.069-.138 0-.343.138-.48.138-.069.345 0 .483.137.207.411.345.96.345 1.44 0 1.234-.69 2.262-1.794 2.811l-2.896 1.371c0 .069-.069.069-.069.069zm-214.846-2.469a.38.38 0 01-.345-.205c-.069-.206 0-.343.138-.48l6.897-3.223c.138-.068.345 0 .483.137.069.206 0 .343-.138.48l-6.897 3.223c-.069.068-.138.068-.138.068zm12.691-5.896a.38.38 0 01-.345-.206c-.069-.206 0-.343.138-.48l23.036-10.697c.138-.068.345 0 .483.137.069.206 0 .343-.138.48l-23.036 10.697c-.069.069-.138.069-.138.069zm28.761-13.371a.38.38 0 01-.345-.206c-.069-.206 0-.343.138-.48l34.554-16.045c.138-.068.345 0 .483.137s0 .343-.138.48l-34.554 16.045c0 .069-.069.069-.138.069zm144.012-1.303c-.069 0-.138 0-.138-.069l-33.865-17.553c-.138-.069-.207-.274-.138-.48.069-.206.276-.206.483-.137l33.865 17.553c.138.069.207.275.138.48-.138.137-.207.206-.345.206zm-39.452-20.502c-.069 0-.138 0-.138-.068l-22.553-11.726c-.138-.068-.207-.274-.138-.48.069-.137.276-.205.483-.137l22.553 11.725c.138.069.207.275.138.48-.138.138-.276.206-.345.206zm-35.382-10.285a.38.38 0 01-.345-.206c-.069-.205 0-.343.138-.48l6.897-3.222.138.274.138.343-6.897 3.222c.069.069 0 .069-.069.069z" fill="#C8C8C8"/><path d="M294.608 214.387L125.49 292.006c-2.069.96-2.138 3.84-.138 4.937l98.077 51.358c.759.411 1.656.411 2.483.068l168.635-77.893c2.069-.96 2.138-3.84.138-4.937l-97.594-51.152c-.828-.343-1.725-.411-2.483 0z" fill="#1E1E1E"/><path d="M224.669 348.917a3.463 3.463 0 01-1.448-.342l-26.623-13.988c-.138-.069-.207-.275-.138-.48.069-.137.276-.206.483-.137l26.623 13.987c.689.343 1.448.343 2.138.069l7.931-3.634c.207-.069.345 0 .483.137.069.206 0 .343-.138.48l-7.932 3.634a3.294 3.294 0 01-1.379.274zm15.381-6.788a.379.379 0 01-.345-.206c-.069-.205 0-.342.138-.48l25.036-11.519c.207-.069.345 0 .483.137.069.206 0 .343-.138.48l-25.036 11.588h-.138zm31.244-14.468a.38.38 0 01-.345-.205c-.069-.206 0-.343.138-.48l7.518-3.497c.138-.069.344 0 .482.137.069.205 0 .343-.138.48l-7.517 3.497c0 .068-.069.068-.138.068zm-98.905-5.759c-.069 0-.138 0-.138-.069l-7.311-3.84c-.138-.068-.207-.274-.138-.48.069-.137.276-.206.483-.137l7.311 3.84c.138.068.207.274.138.48-.138.137-.207.206-.345.206zm-13.45-7.063c-.069 0-.138 0-.138-.069l-24.415-12.822c-.138-.068-.207-.274-.138-.48.069-.137.276-.205.482-.137l24.416 12.822c.138.069.207.275.138.48a.38.38 0 01-.345.206zm144.909-2.194a.38.38 0 01-.345-.206c-.069-.206 0-.343.138-.48l37.521-17.348c.206-.068.344 0 .482.138.069.205 0 .342-.138.48l-37.52 17.416h-.138zm-175.394-13.782c-.069 0-.138 0-.138-.069l-3.104-1.646a3.065 3.065 0 01-1.655-2.742c0-1.234.69-2.263 1.793-2.812l28.83-13.233c.207-.069.345 0 .483.137.069.206 0 .343-.138.48l-28.83 13.234c-.896.411-1.379 1.234-1.379 2.194 0 .891.483 1.714 1.31 2.125l3.104 1.646c.138.069.207.274.138.48-.207.137-.276.206-.414.206zm219.191-6.446a.38.38 0 01-.345-.205c-.069-.206 0-.343.138-.48l25.037-11.588c.206-.069.344 0 .482.137.069.205 0 .343-.138.48l-25.036 11.588c-.069.068-.069.068-.138.068zm31.244-14.399a.38.38 0 01-.345-.206c-.069-.205 0-.343.138-.48l7.518-3.497c.138-.068.345 0 .483.137.069.206 0 .343-.138.48l-7.518 3.497c0 .069-.069.069-.138.069zm-199.534-10.422a.38.38 0 01-.345-.206c-.069-.206 0-.343.138-.48l7.518-3.428c.207-.069.345 0 .483.137.069.205 0 .343-.138.48l-7.518 3.428c0 .069-.069.069-.138.069zm13.794-6.309a.38.38 0 01-.345-.205c-.069-.206 0-.343.138-.48l25.037-11.52c.207-.068.345 0 .483.137.069.206 0 .343-.138.48l-25.037 11.52c-.069.068-.069.068-.138.068zm190.361-1.234c-.069 0-.138 0-.138-.068l-36.624-19.199c-.138-.069-.207-.275-.138-.48.069-.138.276-.206.483-.138l36.624 19.199c.138.069.207.275.138.48-.138.138-.207.206-.345.206zm-159.048-13.165a.379.379 0 01-.345-.206c-.069-.205 0-.342.138-.48l37.59-17.279c.206-.068.344 0 .482.137.069.206 0 .343-.138.48L224.6 246.82c-.069.068-.069.068-.138.068zm116.355-9.188c-.069 0-.138 0-.138-.069l-24.485-12.753c-.138-.069-.207-.275-.138-.48.069-.137.276-.206.483-.137l24.416 12.822c.138.068.207.274.138.48a.528.528 0 01-.276.137zm-30.555-15.976c-.069 0-.138 0-.138-.069l-7.31-3.84c-.138-.068-.207-.274-.138-.48.069-.137.275-.205.482-.137l7.311 3.84c.138.068.207.274.138.48a.38.38 0 01-.345.206zm-23.174-3.566a.38.38 0 01-.345-.206c-.069-.205 0-.342.138-.48l7.518-3.428c.207-.069.345 0 .483.137.069.206 0 .343-.138.48l-7.518 3.428c-.069.069-.138.069-.138.069z" fill="#C8C8C8"/><path d="M294.262 191.76l-168.704 78.305c-2.069.96-2.138 3.84-.138 4.937l98.284 50.946c.759.412 1.656.412 2.483.069l168.29-78.579c2.07-.96 2.138-3.84.069-4.937l-97.801-50.741c-.759-.342-1.655-.342-2.483 0z" fill="#1E1E1E"/><path d="M225.014 326.633c-.483 0-.966-.137-1.448-.343l-2.208-1.166c-.138-.068-.206-.274-.138-.48.069-.137.276-.205.483-.137l2.207 1.166c.69.343 1.449.343 2.138.068l20.416-9.531c.207-.068.345 0 .483.138.069.137 0 .342-.138.48l-20.485 9.531c-.413.137-.896.274-1.31.274zm-21.864-10.971c-.069 0-.138 0-.138-.069L166.319 296.6c-.138-.069-.207-.274-.138-.48.069-.137.276-.206.483-.137l36.693 18.993c.138.069.207.274.138.48-.138.137-.276.206-.345.206zm49.659-1.714a.378.378 0 01-.344-.206c-.069-.137 0-.343.137-.48l7.518-3.497c.207-.069.345 0 .483.137.069.137 0 .343-.138.48l-7.518 3.497c-.069 0-.138.069-.138.069zm13.726-6.446a.38.38 0 01-.345-.205c-.069-.138 0-.343.138-.48l37.52-17.485c.207-.069.345 0 .483.137.069.137 0 .343-.138.48l-37.451 17.485c-.138.068-.138.068-.207.068zm-106.216-14.056c-.069 0-.138 0-.138-.069l-7.311-3.771c-.138-.069-.207-.274-.138-.48.069-.206.276-.206.483-.137l7.311 3.771c.138.069.207.274.138.48a.38.38 0 01-.345.206zm-13.45-6.994c-.069 0-.138 0-.138-.069l-21.45-11.108a3.065 3.065 0 01-1.655-2.742v-.48c0-.206.207-.343.414-.275.207 0 .345.206.276.412v.343c0 .891.483 1.714 1.31 2.125l21.45 11.108c.138.069.207.274.138.48-.138.137-.207.206-.345.206zm175.808-5.211a.38.38 0 01-.345-.206c-.069-.137 0-.343.138-.48l24.968-11.657c.207-.068.345 0 .483.138.069.137 0 .342-.138.48l-24.968 11.656c0 .069-.069.069-.138.069zm31.244-14.537a.38.38 0 01-.345-.205c-.069-.138 0-.343.138-.48l7.518-3.497c.207-.069.345 0 .483.137.069.137 0 .343-.138.48l-7.518 3.497c-.069.068-.069.068-.138.068zm-212.086-3.84a.38.38 0 01-.345-.205c-.069-.206 0-.343.138-.48l37.52-17.417c.138-.068.345 0 .483.138.138.137 0 .342-.138.48l-37.521 17.416c-.069.068-.137.068-.137.068zm225.812-2.605a.38.38 0 01-.345-.206c-.069-.137 0-.343.138-.48l26.761-12.479c.827-.412 1.379-1.234 1.379-2.194 0-.892-.483-1.715-1.31-2.126l-5.035-2.606c-.138-.068-.207-.274-.138-.48.069-.205.276-.205.482-.137l5.035 2.606a3.065 3.065 0 011.656 2.743c0 1.234-.69 2.262-1.794 2.811l-26.76 12.479c.069.069 0 .069-.069.069zm-182.085-17.691a.38.38 0 01-.345-.205c-.068-.206 0-.343.138-.48l7.518-3.497c.138-.069.345 0 .483.137s0 .343-.138.48L185.7 242.5c-.069.068-.069.068-.138.068zm13.726-6.377a.38.38 0 01-.345-.205c-.069-.206 0-.343.138-.48l24.967-11.588c.138-.069.345 0 .483.137s0 .343-.138.48l-24.967 11.588c0 .068-.069.068-.138.068zm171.876-5.416c-.069 0-.138 0-.138-.069l-24.485-12.685c-.138-.069-.207-.274-.138-.48.069-.206.276-.206.483-.137l24.485 12.685c.138.068.207.274.138.48a.38.38 0 01-.345.206zm-128.149-14.88a.378.378 0 01-.344-.205c-.069-.206 0-.343.138-.48l37.52-17.417c.138-.068.345 0 .483.137.069.206 0 .343-.138.48l-37.521 17.417c0 .068-.069.068-.138.068zm97.595-1.028c-.069 0-.138 0-.138-.069l-7.311-3.771c-.138-.069-.207-.274-.138-.48.069-.206.276-.206.483-.137l7.311 3.771c.138.069.207.274.138.48-.138.137-.207.206-.345.206zm-13.45-6.926c-.069 0-.138 0-.138-.068l-30.416-15.771c-.69-.343-1.448-.343-2.138-.068l-7.518 3.497c-.138.068-.345 0-.483-.138-.069-.205 0-.342.138-.48l7.518-3.497c.897-.411 1.931-.411 2.759.069l30.416 15.771c.138.068.207.274.138.48-.069.137-.138.205-.276.205z" fill="#C8C8C8"/><path d="M294.262 169.27l-168.704 78.373c-2.069.96-2.138 3.84-.138 4.937l98.284 50.946c.759.412 1.656.412 2.483.069l168.29-78.579c2.07-.96 2.138-3.84.069-4.937l-97.801-50.74c-.759-.412-1.655-.412-2.483-.069z" fill="#1E1E1E"/><path d="M222.669 303.32c-.069 0-.138 0-.138-.069l-7.311-3.771c-.138-.069-.207-.274-.138-.48.069-.206.276-.206.483-.137l7.311 3.771c.138.068.207.274.138.48a.38.38 0 01-.345.206zm6.414-.823a.38.38 0 01-.345-.206c-.069-.137 0-.343.138-.48l37.452-17.485c.207-.068.345 0 .483.137.069.138 0 .343-.138.48l-37.452 17.485c-.069.069-.069.069-.138.069zm-19.864-6.171c-.068 0-.137 0-.137-.069l-24.485-12.685c-.138-.069-.207-.274-.138-.48.069-.206.276-.206.483-.137l24.484 12.685c.138.069.207.274.138.48a.38.38 0 01-.345.206zm63.523-14.194a.38.38 0 01-.345-.206c-.069-.137 0-.342.138-.48l24.968-11.656c.207-.069.345 0 .483.137.069.137 0 .343-.138.48l-24.968 11.656c0 .069-.069.069-.138.069zm-94.077-1.646c-.069 0-.138 0-.138-.068l-36.692-18.994c-.138-.068-.207-.274-.138-.479.069-.138.275-.206.482-.138l36.693 18.994c.138.068.207.274.138.48a.38.38 0 01-.345.205zm125.321-12.959a.38.38 0 01-.345-.206c-.069-.137 0-.342.138-.48l7.518-3.497c.207-.068.345 0 .483.138.069.137 0 .342-.138.48l-7.518 3.496c-.069.069-.069.069-.138.069zm13.725-6.377a.377.377 0 01-.344-.205c-.069-.138-.001-.343.137-.48l37.452-17.485c.207-.069.345 0 .483.137.069.137 0 .343-.138.48l-37.452 17.485c0 .068-.069.068-.138.068zm-181.877-2.88c-.069 0-.138 0-.138-.068l-7.311-3.771c-.138-.069-.207-.275-.138-.48.069-.138.276-.206.483-.138l7.311 3.772c.138.068.207.274.138.48a.38.38 0 01-.345.205zm-11.863-8.228c-.207 0-.345-.205-.345-.411.138-1.029.759-1.92 1.724-2.332l22.554-10.422c.138-.068.345 0 .483.137s0 .343-.138.48l-22.554 10.423c-.758.342-1.241 1.028-1.379 1.851 0 .137-.138.274-.345.274zm237.468-9.325a.38.38 0 01-.345-.206c-.069-.137 0-.343.138-.48l24.968-11.656c.207-.069.345 0 .483.137.069.137 0 .343-.138.48l-24.968 11.656c-.069.069-.138.069-.138.069zm-207.121-6.103a.38.38 0 01-.345-.205c-.068-.206 0-.343.138-.48l37.521-17.417c.138-.068.345 0 .483.138.138.137 0 .342-.138.48l-37.521 17.416c-.069.068-.069.068-.138.068zm238.296-8.502a.38.38 0 01-.345-.206c-.069-.137 0-.343.138-.48l1.794-.823c.827-.411 1.379-1.234 1.379-2.194 0-.891-.483-1.714-1.31-2.125l-.138-.069c-.138-.068-.207-.274-.138-.48.069-.137.276-.206.482-.137l.138.069a3.064 3.064 0 011.656 2.742c0 1.234-.69 2.263-1.794 2.812l-1.793.822c.069.069 0 .069-.069.069zm-4.345-8.982c-.069 0-.138 0-.138-.069l-36.693-18.993c-.138-.069-.207-.275-.138-.48.069-.138.276-.206.483-.138l36.693 18.994c.138.068.207.274.138.48a.38.38 0 01-.345.206zm-190.223-2.812a.38.38 0 01-.345-.205c-.069-.206 0-.343.138-.48l7.518-3.497c.138-.069.345 0 .483.137s0 .343-.138.48l-7.518 3.497c0 .068-.069.068-.138.068zm13.725-6.377a.378.378 0 01-.344-.205c-.069-.206 0-.343.138-.48l24.967-11.588c.138-.069.345 0 .483.137s0 .343-.138.48l-24.968 11.588c0 .068-.069.068-.138.068zm133.736-12.959c-.069 0-.138 0-.138-.069l-24.485-12.685c-.138-.068-.207-.274-.138-.48.069-.137.276-.205.483-.137l24.485 12.685c.138.069.207.275.138.48-.138.137-.207.206-.345.206zm-102.492-1.577a.379.379 0 01-.344-.206c-.069-.205 0-.343.138-.48l37.52-17.416c.138-.069.345 0 .483.137s0 .343-.138.48l-37.521 17.416c0 .069-.069.069-.138.069zm71.938-14.331c-.069 0-.138 0-.138-.068l-7.311-3.772c-.138-.068-.207-.274-.138-.48.069-.137.276-.205.482-.137l7.311 3.772c.138.068.207.274.138.48-.138.137-.276.205-.344.205zm-28.141-5.965a.38.38 0 01-.345-.206c-.069-.206 0-.343.138-.48l7.518-3.497c.897-.411 1.931-.411 2.759.069l4.759 2.468c.138.069.207.274.138.48-.069.137-.276.206-.483.137l-4.759-2.468c-.69-.343-1.448-.343-2.138-.069l-7.518 3.497c0 .069-.069.069-.069.069z" fill="#C8C8C8"/><path d="M294.262 146.78l-168.704 78.373c-2.069.96-2.138 3.84-.138 4.937l98.284 50.946c.759.411 1.656.411 2.483.069l168.29-78.579c2.07-.96 2.138-3.84.069-4.937l-97.801-50.741c-.759-.411-1.655-.411-2.483-.068z" fill="#1E1E1E"/><path d="M225.014 281.652c-.483 0-.966-.137-1.448-.343l-98.285-50.946c-1.034-.548-1.724-1.645-1.655-2.811 0-1.166.69-2.194 1.793-2.743l168.773-78.373c.897-.412 1.931-.412 2.759.068l97.801 50.741c1.035.548 1.725 1.645 1.656 2.811-.069 1.166-.69 2.194-1.794 2.743l-168.29 78.579c-.413.206-.896.274-1.31.274zm70.42-134.736c-.345 0-.69.068-1.035.206l-168.704 78.373c-.827.411-1.379 1.165-1.379 2.125s.483 1.715 1.31 2.195l98.215 50.877c.69.343 1.449.343 2.138.069l168.29-78.579c.828-.412 1.38-1.166 1.38-2.126s-.483-1.714-1.311-2.194l-97.801-50.74c-.276-.138-.69-.206-1.103-.206z" fill="#C8C8C8"/><path d="M119.074 411.657c14.322 0 25.933-11.543 25.933-25.781 0-14.239-11.611-25.782-25.933-25.782-14.323 0-25.933 11.543-25.933 25.782 0 14.238 11.61 25.781 25.933 25.781zM274.811 291.252c.759.411 1.38 1.097 2.069 1.714a11.01 11.01 0 004.001 2.263c.896.274 2.069.617 2.276 1.577.207 1.028-.897 1.782-1.449 2.605-1.034 1.44-.758 3.36-.483 5.074.69 4.32 1.449 8.708 2.139 13.028-1.104 0-1.794-1.028-2.621-1.783-.897-.822-2.069-1.302-3.173-1.851-2.828-1.508-5.173-3.84-7.38-6.171-1.31-1.44-2.621-2.948-3.38-4.731-1.172-2.88-.413-5.76 1.932-7.68 1.034-.823 1.862-1.577 2.552-2.674.827-1.234 1.793-2.331 3.517-1.371z" fill="#1E1E1E"/><path d="M283.295 317.925c-.966 0-1.725-.755-2.345-1.372l-.483-.48c-.69-.617-1.449-1.028-2.345-1.44l-.828-.411c-2.897-1.509-5.311-3.908-7.449-6.24-1.31-1.44-2.69-2.948-3.448-4.799-1.242-2.949-.414-6.034 2.069-8.023 1.034-.823 1.793-1.508 2.483-2.606.689-1.028 1.793-2.811 3.931-1.577.621.343 1.104.823 1.586 1.303l.483.48c1.104.96 2.414 1.783 3.863 2.194 1.034.343 2.276.755 2.483 1.852.207.891-.483 1.645-1.035 2.262-.207.206-.345.412-.552.618-.965 1.302-.758 3.085-.414 4.868l2.139 13.028c0 .068 0 .206-.069.274.069 0 0 .069-.069.069zm-9.725-26.673c-.759 0-1.311.617-2 1.714-.759 1.166-1.587 1.851-2.69 2.743-2.276 1.851-2.966 4.594-1.863 7.268.759 1.714 2.07 3.223 3.311 4.594 2.138 2.263 4.483 4.594 7.242 6.102.276.138.552.275.759.412.827.411 1.724.891 2.483 1.508.207.137.344.343.551.549.483.48.897.891 1.38 1.097l-2.069-12.548c-.345-1.851-.552-3.84.551-5.348.138-.206.345-.48.552-.686.483-.549.966-1.097.828-1.646-.138-.754-1.104-1.028-2-1.302a10.43 10.43 0 01-4.139-2.4l-.482-.48c-.483-.48-.897-.892-1.449-1.166-.276-.343-.62-.411-.965-.411z" fill="#C8C8C8"/><path d="M324.196 287.962c-.069.48.207.891.345 1.577.483 2.057-.138 4.32.759 6.308.689 1.44 1.724 2.743 2.828 3.909 1.379 1.44 2.896 2.743 4.759 3.291 1.862.617 4 .412 5.724-.548 1.035-.549 1.931-1.372 2.345-2.4.483-1.029.414-2.332-.345-3.223-1.931-2.4-2.965-5.211-3.379-8.228-.414-3.154-1.173-4.046-4.414-4.251-1.173-.069-2.345-.138-3.449.137-.828.205-1.655.617-2.414 1.028-.828.412-2.138.823-2.621 1.714-.069.206-.138.48-.138.686z" fill="#1E1E1E"/><path d="M335.161 303.731a8.292 8.292 0 01-2.276-.343c-2.069-.685-3.724-2.194-4.966-3.36-.897-.891-2.138-2.331-2.897-3.977-.552-1.234-.552-2.537-.552-3.771 0-.891 0-1.783-.206-2.605-.069-.206-.138-.412-.207-.549a2.828 2.828 0 01-.207-1.097c0-.274.138-.549.276-.823.413-.754 1.31-1.166 2.138-1.508.207-.138.483-.206.62-.343.759-.412 1.587-.823 2.483-1.097 1.173-.343 2.414-.275 3.587-.206 3.518.206 4.276 1.371 4.759 4.525.414 3.086 1.517 5.829 3.311 8.092.758.959.896 2.331.344 3.634-.551 1.302-1.655 2.125-2.483 2.605-1.172.48-2.482.823-3.724.823zm-10.622-15.771c0 .275.069.48.138.823l.207.617c.207.96.207 1.852.207 2.812 0 1.234 0 2.399.483 3.497.759 1.577 1.931 2.948 2.759 3.771 1.103 1.165 2.69 2.605 4.621 3.223 1.793.548 3.862.342 5.449-.549 1.034-.549 1.793-1.371 2.207-2.263.414-1.028.345-2.125-.276-2.88-1.862-2.4-3.035-5.211-3.449-8.434-.414-2.948-.965-3.771-4.069-3.908-1.104-.068-2.276-.137-3.38.137-.827.206-1.586.617-2.345 1.029-.207.137-.413.205-.689.343-.69.342-1.449.685-1.794 1.234 0 .206-.069.411-.069.548z" fill="#C8C8C8"/><path d="M264.742 300.921c-1.034.274-1.862 1.028-2.207 1.988-.207.48-.276 1.029-.276 1.577-.069 2.537 1.311 4.114 2.897 5.897 1.38 1.509 3.242 2.469 4.621 3.977 1.38 1.509 1.931 3.84 2.621 5.691.621 1.714 1.242 3.429 2.276 4.937 1.38 2.057 3.242 3.84 5.449 5.006 1.103.617 2.276 1.028 3.517 1.302.759.206 2.759.618 3.311-.068.138-.206.207-.412.138-.686 0-.48-.207-.96-.552-1.371" fill="#1E1E1E"/><path d="M285.64 332.05c-.69 0-1.449-.137-2.138-.343-1.311-.274-2.483-.754-3.587-1.372-2.138-1.165-4.069-2.948-5.587-5.142-1.034-1.577-1.724-3.291-2.345-5.006-.138-.411-.276-.822-.413-1.302-.552-1.577-1.035-3.155-2.07-4.32a12.007 12.007 0 00-2.276-1.92c-.827-.617-1.655-1.303-2.345-2.057-1.448-1.577-3.034-3.36-2.965-6.103 0-.685.137-1.234.275-1.714a3.612 3.612 0 012.483-2.194c.207-.069.345.069.414.274.069.206-.069.343-.276.412-.896.205-1.655.891-2 1.782-.138.412-.207.892-.276 1.509-.069 2.263 1.104 3.771 2.828 5.622.69.755 1.448 1.372 2.276 1.989.828.617 1.655 1.234 2.345 2.057 1.104 1.234 1.655 2.948 2.207 4.525.138.412.276.892.414 1.303.621 1.646 1.242 3.429 2.276 4.869 1.449 2.125 3.242 3.839 5.311 4.937 1.103.548 2.207 1.028 3.448 1.302 1.725.412 2.69.412 2.966.069.069-.069.069-.206.069-.412 0-.411-.138-.822-.414-1.165-.138-.137-.069-.343.069-.48.138-.137.345-.069.483.068.345.412.552 1.029.621 1.577 0 .343-.069.686-.207.892-.345.206-.897.343-1.586.343z" fill="#C8C8C8"/><path d="M323.643 301.743c-.621 1.439-.138 3.154.828 4.388 1.034 1.166 2.483 1.92 4 2.331 1.517.412 3.104.48 4.69.617.828.069 1.586.137 2.414.343 1.724.343 3.104 1.303 4.621 2.126 1.241.685 2.483 1.577 3.793 2.057 1.104.411 2.621 1.028 3.794 1.371 3.173.823 8.138 1.234 10.966-.823.207-.137.276-.411.345-.617.138-.411 0-.823-.138-1.234" fill="#1E1E1E"/><path d="M353.025 315.868c-1.863 0-3.656-.275-5.173-.686a27.99 27.99 0 01-3.104-1.097l-.69-.274c-.896-.343-1.793-.892-2.621-1.372-.413-.274-.827-.48-1.172-.686-.207-.137-.483-.274-.69-.411-1.241-.686-2.483-1.371-3.862-1.714-.828-.206-1.587-.274-2.345-.343-.276 0-.621-.069-.897-.069-1.241-.068-2.621-.205-3.862-.548-1.863-.48-3.242-1.303-4.208-2.4-1.172-1.371-1.517-3.223-.896-4.731.069-.206.276-.274.483-.206.207.069.276.274.207.48-.552 1.234-.207 2.811.827 4.046.828 1.028 2.138 1.782 3.863 2.194 1.241.343 2.483.411 3.724.48.276 0 .621.068.897.068.758.069 1.655.137 2.483.343 1.517.343 2.827 1.029 4.069 1.783.207.137.483.274.69.411.414.206.827.48 1.241.755.828.48 1.655 1.028 2.552 1.302l.69.275c.965.411 2.138.822 3.035 1.097 3.241.891 8 1.165 10.69-.823.069-.069.207-.206.276-.48.069-.343 0-.686-.138-1.029-.069-.205.069-.342.207-.411.207-.069.345.069.414.206.138.48.276.96.138 1.44-.069.205-.207.548-.483.822-1.931 1.166-4.138 1.578-6.345 1.578z" fill="#C8C8C8"/><path d="M281.778 304.144c-.138.479-.69.822-1.172 1.028-1.656.617-3.518-.137-5.104-.96-1.38-.754-2.69-1.714-3.656-2.88-1.241-1.44-2.483-3.908-3.241-5.622-.897.411-3.104 1.851-4.346 4.937-1.724 4.251.483 8.296 4.139 10.902 1.103.823 2.414 1.44 3.172 2.605.483.686.69 1.509.897 2.263 1.31 4.594 2.966 9.6 7.035 12.274 1.379.891 2.966 1.44 4.552 1.851.897.206 1.862.412 2.828.206 1.31-.343 2.345-1.509 2.552-2.811.207-1.92-1.173-3.566-2.276-5.143-1.173-1.783-2.069-3.703-2.552-5.76-1.173-4.799-1.655-7.748-2.828-12.89z" fill="#1E1E1E"/><path d="M285.985 331.09c-.69 0-1.38-.137-2.001-.275-1.931-.48-3.448-1.097-4.69-1.851-4.138-2.674-5.793-7.611-7.173-12.411-.207-.754-.413-1.577-.827-2.194-.552-.823-1.38-1.371-2.276-1.988-.276-.206-.552-.343-.828-.549-4.207-3.017-5.863-7.337-4.207-11.314 1.379-3.428 3.793-4.799 4.552-5.142a.21.21 0 01.276 0c.069 0 .138.068.207.205.758 1.715 1.931 4.115 3.241 5.554.897 1.029 2.069 1.92 3.587 2.812 1.931 1.097 3.517 1.44 4.759.96.483-.206.827-.48.965-.823.069-.137.207-.274.345-.206.138 0 .276.137.345.274.483 2.263.897 4.115 1.242 5.829.482 2.194.896 4.319 1.517 6.925.483 2.057 1.31 3.908 2.483 5.691.138.206.276.412.483.686 1.034 1.44 2.069 2.948 1.862 4.731-.138 1.44-1.31 2.811-2.759 3.154-.483-.137-.828-.068-1.103-.068zm-17.519-34.97c-.828.48-2.759 1.851-3.863 4.594-1.517 3.703 0 7.611 4.001 10.491.276.206.552.343.827.548.897.618 1.863 1.235 2.483 2.195.483.754.69 1.577.966 2.4 1.311 4.731 2.966 9.53 6.897 12.068 1.173.754 2.621 1.302 4.483 1.782.897.206 1.794.412 2.621.206 1.173-.274 2.138-1.371 2.276-2.537.207-1.509-.827-2.88-1.724-4.251-.138-.206-.345-.412-.483-.686-1.241-1.783-2.069-3.771-2.621-5.897-.62-2.605-1.034-4.731-1.517-6.925-.345-1.577-.621-3.154-1.104-5.074a1.884 1.884 0 01-.896.48c-1.449.548-3.242.205-5.38-1.029a15.752 15.752 0 01-3.793-2.948c-1.242-1.44-2.414-3.703-3.173-5.417z" fill="#C8C8C8"/><path d="M346.336 312.715c-3.655-1.44-6.69-4.32-10.621-5.006-3.794-.686-7.794-.274-10.553-3.497-2.552-2.88-2.138-7.885-1.035-11.245 1.035.891 2.001 2.057 3.173 2.811 1.448.892 2.966 1.783 4.621 2.126 1.655.411 3.518.274 4.966-.617 1.448-.892 2.483-2.606 2.207-4.252 3.242 4.183 7.311 7.68 11.863 10.354 2.138 1.303 11.656 6.034 7.173 9.531-.827.686-1.931.892-2.966.96-2.965.412-6-.068-8.828-1.165z" fill="#1E1E1E"/><path d="M353.369 314.428c-2.414 0-4.896-.48-7.104-1.372-1.448-.548-2.758-1.371-4.138-2.125-2-1.166-4.138-2.4-6.483-2.812-.828-.137-1.655-.274-2.483-.342-2.966-.343-6.001-.686-8.277-3.223-2.621-3.017-2.276-8.16-1.103-11.588.069-.137.138-.206.207-.206.138 0 .207 0 .345.069.413.343.758.685 1.103 1.097.621.617 1.242 1.234 2 1.714 1.173.754 2.759 1.714 4.552 2.057 1.725.411 3.449.206 4.69-.549 1.449-.822 2.276-2.468 2.07-3.908 0-.137.069-.274.206-.343.138-.068.345 0 .414.137 3.104 3.977 7.035 7.474 11.794 10.286.207.137.483.274.759.48 2.414 1.371 7.518 4.251 7.725 7.131.069.96-.345 1.782-1.311 2.537-.965.754-2.207.96-3.172 1.028-.552-.137-1.173-.068-1.794-.068zm-6.897-2.057a18.786 18.786 0 008.691 1.234c.896-.069 2-.274 2.828-.892.758-.617 1.103-1.234 1.034-1.988-.207-2.537-5.242-5.348-7.38-6.583-.345-.205-.621-.342-.827-.48-4.484-2.674-8.346-5.896-11.381-9.668-.138 1.372-1.034 2.743-2.414 3.566-1.448.823-3.31 1.097-5.242.617-1.862-.411-3.517-1.371-4.759-2.194-.827-.549-1.448-1.166-2.138-1.851l-.689-.686c-.966 3.291-1.173 7.748 1.172 10.422 2.069 2.331 4.828 2.674 7.794 3.017.828.069 1.724.206 2.552.343 2.483.411 4.621 1.714 6.69 2.88 1.379.96 2.69 1.714 4.069 2.263z" fill="#C8C8C8"/><path d="M287.571 233.382c5.862 2.057 11.794 4.183 16.829 7.748 2.828 1.989 5.931 4.8 7.104 8.023 4.414 12.205 8.208 24.616 11.449 37.164.276 1.165.621 2.399 1.38 3.359 1.241 1.509 3.448 1.989 5.379 2.057 1.932.069 3.932-.068 5.518-1.028 1.586-.96 2.966-3.086 2.552-4.937a64 64 0 01-.621-4.937c-.827-9.119-2.621-18.102-3.241-27.153a180.045 180.045 0 00-2.621-20.09c-.483-2.812-1.035-5.691-2.759-7.954-1.173-1.509-2.759-2.606-4.414-3.634-2.207-1.372-4.552-2.537-6.966-3.566l-46.211-8.982-21.243 4.319-.276 2.606" fill="#1E1E1E"/><path d="M330.609 292.074h-.828c-2.69-.137-4.552-.822-5.655-2.194-.828-1.028-1.173-2.331-1.449-3.497a391.717 391.717 0 00-11.449-37.164c-1.241-3.497-4.897-6.445-6.966-7.885-5.104-3.565-11.036-5.623-16.76-7.68-.207-.068-.276-.274-.207-.411.069-.206.276-.274.414-.206 5.793 2.057 11.794 4.183 16.967 7.749 2.138 1.508 5.862 4.525 7.242 8.228 4.414 12.136 8.207 24.684 11.449 37.232.276 1.166.621 2.331 1.31 3.223.966 1.166 2.69 1.851 5.173 1.92 2.345.068 4.001-.206 5.38-1.029 1.448-.891 2.759-2.811 2.414-4.594-.276-1.577-.552-4.045-.621-5.005-.414-4.183-.965-8.434-1.517-12.48-.69-4.799-1.38-9.736-1.724-14.673a187.061 187.061 0 00-2.621-20.091c-.483-2.605-.966-5.554-2.69-7.748-1.173-1.508-2.759-2.537-4.345-3.497-2.207-1.303-4.484-2.537-6.829-3.565l-46.072-8.983-20.899 4.251-.276 2.4c0 .206-.206.343-.344.275-.207 0-.345-.206-.276-.343l.276-2.606c0-.137.138-.274.275-.274l21.244-4.32h.138l46.21 8.983h.069c2.414 1.028 4.759 2.262 6.966 3.565 1.656.96 3.311 2.126 4.553 3.703 1.793 2.331 2.345 5.417 2.827 8.091 1.242 6.994 2.138 13.782 2.621 20.159.345 4.868 1.035 9.874 1.725 14.673.551 4.114 1.172 8.297 1.517 12.548.207 2.057.414 3.84.621 4.937.413 2.057-1.104 4.32-2.759 5.348-1.518.618-3.104.96-5.104.96z" fill="#C8C8C8"/><path d="M303.434 231.94a34.334 34.334 0 016.001 2.88c1.379.823 2.69 1.783 3.724 3.017 2.414 3.086 2.276 7.474 1.035 11.177-2.483 7.405-7.311 14.468-11.381 21.119-3.241 5.279-17.173 26.81-18.967 28.387l-1.034 1.097c-4.897 0-9.794-3.566-11.036-8.297 1.863-5.554 5.104-10.696 7.656-15.908 1.656-3.359 3.449-6.651 5.035-10.079 1.862-3.977 4-8.023 5.449-12.137.207-.548.345-1.234 0-1.714-.345-.343-.897-.343-1.38-.343-10.138.412-20.139.48-30.347.412-3.173 0-6.414 0-9.518-.823-11.104-2.811-16.415-16.525-12.967-26.742" fill="#1E1E1E"/><path d="M282.743 299.891c-5.173 0-10.139-3.771-11.311-8.571v-.205c1.31-3.84 3.241-7.543 5.104-11.04.827-1.577 1.724-3.223 2.551-4.868.69-1.372 1.38-2.812 2.07-4.183.965-1.92 2-3.908 2.965-5.965.552-1.166 1.104-2.263 1.656-3.429 1.379-2.811 2.759-5.759 3.862-8.708.276-.686.276-1.097.069-1.371-.207-.275-.69-.275-1.104-.206-10.138.411-20.139.48-30.347.411-3.173 0-6.483 0-9.656-.822-4.759-1.166-8.759-4.457-11.38-9.188-3.035-5.486-3.725-12.411-1.793-17.965.069-.206.276-.275.413-.206.207.069.276.274.207.411-1.862 5.417-1.172 12.137 1.794 17.417 2.483 4.594 6.414 7.679 10.966 8.845 3.104.754 6.345.754 9.449.823 10.208 0 20.209 0 30.347-.412.621 0 1.242 0 1.656.48.552.617.345 1.44.069 2.057-1.104 2.949-2.483 5.897-3.863 8.777-.551 1.166-1.103 2.263-1.655 3.429-.966 1.988-1.931 4.045-2.966 5.965l-2.069 4.114c-.827 1.646-1.655 3.291-2.552 4.868-1.862 3.497-3.793 7.063-5.035 10.834 1.173 4.388 5.725 7.885 10.484 7.954l.966-1.029c1.793-1.508 15.725-23.107 18.898-28.318.62-.96 1.172-1.92 1.793-2.949 3.655-5.828 7.449-11.793 9.518-18.102 1.448-4.182 1.035-8.296-.966-10.833-1.034-1.303-2.414-2.194-3.586-2.949a43.084 43.084 0 00-5.932-2.88c-.207-.068-.276-.274-.207-.411.069-.206.276-.274.414-.206 2.069.755 4.139 1.783 6.001 2.88 1.241.754 2.69 1.714 3.793 3.086 2.207 2.742 2.621 7.062 1.104 11.519-2.138 6.377-5.932 12.411-9.587 18.239-.621.96-1.242 1.92-1.794 2.88-3.31 5.348-17.242 26.879-19.036 28.456l-1.034 1.097c-.069.274-.207.343-.276.274z" fill="#C8C8C8"/><path d="M290.469 239.759l-31.795-6.377-.138-2.4 31.795 6.308.138 2.469z" fill="#1E1E1E"/><path d="M290.468 240.1c-.069 0-.069 0 0 0l-31.865-6.377c-.138 0-.276-.137-.276-.343l-.138-2.4c0-.137.069-.205.138-.274.069-.069.207-.069.276-.069l31.796 6.309c.138 0 .276.137.276.343l.138 2.399c0 .138-.069.206-.138.275-.069.068-.138.137-.207.137zm-31.451-6.994l31.106 6.171-.069-1.714-31.106-6.171.069 1.714z" fill="#F3652B"/><path d="M328.817 219.12L290.4 239.484l.069-2.194 38.417-20.364-.069 2.194z" fill="#1E1E1E"/><path d="M290.399 239.826c-.069 0-.138 0-.207-.069-.138-.069-.138-.206-.138-.274l.069-2.194c0-.138.069-.206.207-.275l38.417-20.364c.138-.069.207-.069.345 0 .138.068.138.205.138.274l-.069 2.194c0 .137-.069.206-.207.274l-38.417 20.365c-.069.069-.069.069-.138.069zm.414-2.332l-.069 1.44 37.727-20.022.069-1.44-37.727 20.022z" fill="#F3652B"/><path d="M296.608 210.823l-38.072 20.09 32.002 6.172 38.072-20.159-32.002-6.103z" fill="#1E1E1E"/><path d="M290.537 237.426c-.069 0-.069 0 0 0l-32.072-6.171c-.138 0-.276-.138-.276-.275s.069-.274.207-.343l38.141-20.09c.069-.069.138-.069.207 0l32.003 6.103c.138 0 .276.137.276.274a.378.378 0 01-.207.343l-38.141 20.09c-.069.069-.138.069-.138.069zm-30.968-6.651l30.899 5.896 37.175-19.61-30.899-5.897-37.175 19.611z" fill="#F3652B"/><path d="M271.02 92.131c8.138-3.634 20.07-2.537 25.588 5.075 3.931 5.348 5.587 12.547 4.621 18.993-.759 4.8-3.242 9.462-6.138 13.371-.966 1.302-2.07 2.537-2.69 3.977-1.587 3.634-.069 8.022 2.414 11.176s5.862 5.417 8.828 8.16c6.069 5.622 10.277 13.645 9.587 21.804-.483 6.103-3.587 11.794-7.311 16.662-1.173 1.578-2.483 3.086-4 4.32-3.518 2.743-8.139 3.703-12.553 4.32-7.932 1.166-14.415-.48-21.864-3.223-2.759-1.028-5.518-2.057-8.001-3.634-4-2.537-5.793-6.651-7.862-10.696-3.311-6.651-6.415-13.714-7.173-21.257-.621-6.171-1.035-13.302 1.517-19.13.552-1.166 1.172-2.331 1.31-3.566.207-1.714-.482-3.428-1.034-5.074-1.449-4.731-1.518-9.942.276-14.536 1.241-3.223 3.517-5.965 5.931-8.365 2.276-2.194 5.587-3.429 7.311-6.377.69-1.166 1.035-2.469 1.656-3.703.827-1.577 2.069-2.811 3.379-4.045 1.862-1.852 3.931-3.292 6.208-4.252z" fill="#1E1E1E"/><path d="M284.191 200.742c-5.655 0-10.828-1.44-16.829-3.566-2.759-1.028-5.586-2.057-8.069-3.634-3.794-2.4-5.587-6.102-7.518-10.011l-.414-.891c-3.104-6.24-6.414-13.508-7.242-21.325-.621-6.24-1.035-13.439 1.517-19.268.069-.205.207-.479.276-.685.414-.96.828-1.852.966-2.811.138-1.372-.276-2.812-.759-4.115-.069-.274-.207-.548-.276-.822-1.586-4.937-1.448-10.217.276-14.743 1.104-2.811 2.966-5.485 6.07-8.502.896-.891 1.931-1.577 2.965-2.331 1.587-1.097 3.242-2.263 4.277-3.977.345-.617.62-1.303.896-1.92.207-.549.483-1.166.759-1.783.828-1.645 2.138-2.88 3.449-4.114a21.916 21.916 0 016.345-4.388c8.07-3.634 20.346-2.674 26.002 5.21 3.931 5.418 5.725 12.617 4.69 19.268-.897 5.554-3.862 10.423-6.207 13.508-.207.206-.345.48-.552.686-.759 1.029-1.586 2.057-2.069 3.223-1.656 3.771.138 8.022 2.345 10.834 1.655 2.057 3.655 3.771 5.655 5.416 1.035.892 2.139 1.783 3.104 2.675 6.69 6.171 10.346 14.467 9.725 22.078-.414 5.349-2.828 10.903-7.38 16.868-1.103 1.44-2.414 3.086-4.069 4.389-3.725 2.879-8.484 3.771-12.691 4.388-1.862.206-3.586.343-5.242.343zM271.156 92.404a20.947 20.947 0 00-6.139 4.251c-1.241 1.235-2.483 2.469-3.31 3.977-.276.549-.552 1.097-.759 1.715-.276.685-.552 1.371-.897 1.988-1.034 1.851-2.827 3.017-4.483 4.183-.965.685-2 1.371-2.897 2.194-2.965 2.948-4.828 5.554-5.862 8.228-1.655 4.388-1.793 9.462-.276 14.331.069.274.138.548.276.823.483 1.44.965 2.879.759 4.457-.138 1.097-.621 2.057-1.035 3.017-.069.205-.207.411-.276.685-2.552 5.691-2.069 12.754-1.448 18.925.758 7.748 4.069 14.948 7.173 21.119l.414.891c1.862 3.84 3.655 7.406 7.311 9.737 2.414 1.577 5.241 2.606 7.931 3.566 7.656 2.811 14.001 4.319 21.657 3.154 4.138-.617 8.829-1.509 12.415-4.252 1.586-1.234 2.897-2.879 4-4.251 4.484-5.828 6.829-11.245 7.242-16.525.552-7.405-2.965-15.496-9.518-21.53-.965-.891-2.069-1.783-3.103-2.674-2.001-1.646-4.07-3.429-5.794-5.486-2.345-2.948-4.207-7.474-2.483-11.519.552-1.234 1.379-2.331 2.207-3.36.207-.206.345-.48.552-.686 2.345-3.017 5.242-7.816 6.138-13.165 1.035-6.445-.689-13.439-4.552-18.719-5.586-7.68-17.449-8.57-25.243-5.074z" fill="#C8C8C8"/><path d="M267.433 147.602c5.38-.754 11.587-1.234 15.381 2.606 1.517 1.508 2.413 3.428 2.965 5.485 1.449 5.486.069 11.657-1.241 17.074l-3.104 12.959c-.552 2.468-1.793 4.868-1.793 7.405 0 3.017 2.276 4.732 4.207 6.72 3.311 3.497 4.966 5.417 7.725 8.64-1.035-.412-2.69-1.715-4.621-.823-4.483 1.988-1.931 5.28-1.931 5.074-5.725-4.114-11.588-7.268-16.691-12.137-.897-.822-1.794-1.782-2.139-3.017-.275-1.097.069-2.194.345-3.222a218.07 218.07 0 005.587-28.113" fill="#1E1E1E"/><path d="M284.95 213.084a.38.38 0 01-.345-.206c-1.793-1.234-3.586-2.468-5.311-3.565-4-2.674-7.794-5.143-11.242-8.434-.966-.96-1.931-1.92-2.207-3.154-.276-1.166.069-2.332.345-3.429 2.483-9.188 4.345-18.65 5.586-28.113 0-.205.207-.342.414-.274.207 0 .345.206.276.412-1.241 9.462-3.173 18.924-5.587 28.181-.275 1.029-.551 2.057-.344 3.086.275 1.097 1.103 1.92 2 2.811 3.448 3.291 7.173 5.76 11.173 8.365 1.38.96 2.828 1.92 4.276 2.88-.276-1.028-.207-2.948 2.759-4.251 1.311-.617 2.552-.274 3.518.206a150.126 150.126 0 00-6.691-7.406c-.275-.343-.62-.617-.896-.891-1.655-1.646-3.38-3.429-3.38-6.034 0-1.714.552-3.429 1.104-5.006.276-.822.552-1.645.758-2.468l3.104-12.959c1.173-4.8 2.69-11.383 1.242-16.868-.621-2.263-1.587-4.046-2.828-5.349-3.518-3.565-9.38-3.291-15.105-2.468a.466.466 0 01-.414-.274c0-.206.138-.343.276-.412 5.932-.822 11.932-1.097 15.657 2.675 1.379 1.371 2.414 3.291 3.034 5.622 1.518 5.691-.069 12.342-1.241 17.211l-3.104 12.959a35.88 35.88 0 01-.758 2.537c-.483 1.577-1.035 3.223-1.035 4.8 0 2.4 1.517 3.908 3.173 5.554.276.274.62.617.896.96 3.173 3.36 4.897 5.28 7.725 8.639.069.138.138.275 0 .412a.333.333 0 01-.414.137 6.764 6.764 0 01-.758-.343c-.966-.48-2.208-1.097-3.656-.48s-2.276 1.44-2.414 2.469c-.138.891.276 1.645.483 1.919 0 0 .069.069.138.069a.524.524 0 01.138.343c0-.069-.207.068-.345.137z" fill="#C8C8C8"/><path d="M270.191 148.015c1.518.137 2.897 1.097 3.863 2.262.965 1.166 1.586 2.606 2.207 3.977 3.242 7.2 6.483 15.977 5.242 23.999-.207 1.234-1.242 3.429-1.794 4.526-3.517 6.925-4.897 15.222-2.207 22.49.69 1.783 1.587 3.634 1.104 5.485-.483 1.783-2.069 2.949-3.656 3.909-7.931 4.594-17.311 5.691-26.416 6.651-2.138.206-4.345.48-6.483.137-1.655-.206-3.517-1.028-4-2.606-.276-.891 0-1.851.207-2.742 2.896-11.245 2.759-23.245-.345-34.421l6.276-15.771" fill="#1E1E1E"/><path d="M244.326 221.998c-.759 0-1.518-.069-2.276-.137-2.276-.343-3.863-1.372-4.276-2.88-.276-.96 0-1.989.206-2.88a66.42 66.42 0 00-.344-34.284v-.206l6.276-15.77c.069-.206.276-.275.414-.206.207.068.276.274.207.411l-6.208 15.634c3.104 11.245 3.242 23.176.345 34.49-.207.891-.483 1.782-.207 2.605.483 1.783 2.966 2.263 3.725 2.4 2.138.274 4.276.069 6.414-.137 8.552-.891 18.346-1.92 26.278-6.583 1.38-.822 3.035-1.988 3.449-3.702.345-1.509-.207-3.017-.828-4.526-.069-.274-.207-.48-.276-.754-2.483-6.788-1.724-15.085 2.207-22.765.69-1.371 1.587-3.359 1.725-4.457 1.241-8.022-2.139-16.936-5.242-23.861-.621-1.372-1.242-2.743-2.207-3.909-.621-.754-1.863-1.988-3.587-2.125-.207 0-.345-.206-.345-.343 0-.206.207-.343.345-.343 1.517.137 2.966.96 4.069 2.4 1.035 1.234 1.656 2.674 2.276 4.045 3.104 6.994 6.553 16.045 5.311 24.205-.207 1.44-1.586 4.114-1.793 4.663-3.862 7.542-4.621 15.633-2.207 22.216.069.205.207.48.276.685.621 1.577 1.241 3.223.827 4.937-.482 1.989-2.276 3.223-3.793 4.114-8.07 4.732-17.933 5.76-26.554 6.651-1.31.275-2.759.412-4.207.412z" fill="#C8C8C8"/><path d="M290.33 207.599c2.621 1.919 5.311 3.839 8.345 5.005 2.276.823 4.828 1.234 6.759 2.743 2.07 1.508 3.173 4.114 2.966 6.651-.069.411-.138.823-.345 1.166-.344.617-1.034.959-1.724 1.165-2.483.686-7.794-3.223-8.414-3.84-.552-.617-1.38-1.165-2.207-.891-.138.754.206 1.508.62 2.126.414.617.828 1.302.828 2.057 0 .754-.828 1.508-1.517 1.234a1.35 1.35 0 01-.621-.617c-.966-1.372-1.449-3.017-2.69-4.046-.621-.548-1.379-.891-1.862-1.508-.276-.412-.483-.892-.69-1.303-.966-2.057-2.69-3.84-4.828-4.731l-.759-1.097s-.62-2.606 2.207-3.772c2.897-1.302 3.932-.342 3.932-.342z" fill="#1E1E1E"/><path d="M295.985 225.426c-.138 0-.276 0-.482-.068-.345-.137-.621-.412-.828-.755-.345-.48-.621-1.028-.897-1.577-.483-.96-.965-1.782-1.724-2.468-.207-.206-.483-.343-.69-.549-.414-.274-.896-.617-1.241-1.097-.276-.343-.414-.754-.621-1.097l-.138-.274c-.965-1.989-2.621-3.703-4.621-4.594-.069 0-.138-.069-.138-.137l-.759-1.097s-.069-.069-.069-.137c0 0-.62-2.88 2.414-4.183 2.828-1.166 4.001-.343 4.208-.137 2.552 1.851 5.241 3.84 8.207 4.937.69.274 1.38.48 2.069.685 1.656.48 3.38 1.029 4.828 2.126 2.138 1.577 3.311 4.32 3.104 6.925-.069.412-.138.892-.345 1.303-.345.617-1.034 1.029-1.931 1.303-2.69.754-8.208-3.36-8.759-3.977-.276-.274-.966-.96-1.656-.823 0 .549.276 1.097.621 1.646l.069.068c.414.617.828 1.372.828 2.195 0 .548-.345 1.097-.828 1.439-.138.275-.345.343-.621.343zm-10.828-13.028c2.138 1.029 3.931 2.743 4.897 4.869l.138.274c.138.343.276.686.552.96.275.343.689.617 1.103.96.276.206.483.343.759.548.827.755 1.379 1.715 1.862 2.675.276.48.552 1.028.897 1.508.138.206.275.411.482.48.207.069.414 0 .552-.069.276-.205.483-.548.483-.822 0-.617-.345-1.235-.69-1.783l-.069-.069c-.483-.754-.827-1.508-.689-2.4 0-.137.138-.205.206-.274.759-.274 1.725.069 2.552.96.69.686 5.794 4.32 8.07 3.771.759-.205 1.311-.548 1.517-.96.207-.342.276-.685.276-1.028.207-2.4-.896-4.868-2.827-6.308-1.311-.96-2.897-1.44-4.553-1.989-.689-.206-1.379-.411-2.138-.686-3.103-1.165-5.793-3.154-8.414-5.074 0 0-.966-.754-3.518.275-2.345.96-2.138 2.948-2.069 3.36l.621.822z" fill="#C8C8C8"/><path d="M256.466 140.678c.069-.343.138-.754.138-1.097 3.448.823 7.242.96 10.759 1.371 1.104.137 2.345.274 3.035 1.166 1.242 1.508-4.966 1.097.621 6.994.552.548 1.379 1.92 1.862 2.537 1.793 2.4 3.104 5.622 1.724 6.857-.965.822-12.828 8.913-17.311 7.199-2.897-1.165-2.966-5.965-7.242-9.531-2.001-1.645-3.518-2.537-.345-3.771 2.897-1.166 2.897-1.851 4.483-4.388 1.448-2.263 1.931-4.937 2.276-7.337z" fill="#1E1E1E"/><path d="M258.879 166.252c-.621 0-1.173-.069-1.587-.274-1.586-.617-2.345-2.126-3.241-3.909-.897-1.851-2-3.908-4.139-5.691-.206-.137-.344-.274-.482-.411-1.104-.892-1.863-1.577-1.794-2.331.069-.618.69-1.098 2.001-1.578 2.345-.891 2.689-1.508 3.655-3.154.207-.343.414-.685.69-1.165 1.31-2.057 1.793-4.663 2.207-7.131.069-.343.138-.755.138-1.098 0-.068.069-.205.138-.205.069-.069.207-.069.276-.069 2.345.549 4.828.754 7.311 1.029 1.103.137 2.276.205 3.379.343 1.173.137 2.483.342 3.311 1.234a.98.98 0 01.276.685c-.069.412-.414.686-.828.96-.483.343-1.035.755-1.103 1.44-.069.892.689 2.263 2.276 3.909.413.411.896 1.165 1.379 1.851.207.274.345.549.483.686 1.931 2.674 3.241 5.965 1.655 7.268-.759.754-10.621 7.611-16.001 7.611zm-1.931-26.262c-.069.275-.069.48-.138.755-.414 2.537-.966 5.211-2.345 7.336-.276.412-.483.823-.69 1.098-1.035 1.714-1.449 2.399-4 3.428-1.242.48-1.518.823-1.587 1.097-.069.411.69 1.029 1.518 1.714.138.137.344.275.482.412 2.276 1.851 3.38 4.114 4.277 5.897.896 1.714 1.586 3.085 2.896 3.634 4.139 1.645 15.726-6.034 16.967-7.131 1.173-1.029-.069-4.046-1.793-6.377-.138-.206-.345-.48-.552-.755a24.44 24.44 0 00-1.31-1.782c-1.793-1.852-2.621-3.292-2.483-4.457.069-.96.828-1.509 1.379-1.92.207-.137.552-.343.552-.48 0 0 0-.069-.069-.137-.621-.754-1.793-.892-2.828-1.029-1.103-.137-2.276-.274-3.379-.343-2.207-.205-4.621-.48-6.897-.96z" fill="#C8C8C8"/><path d="M262.191 144.106a29.864 29.864 0 005.725 2.88c.827.274 2.276.96 3.172.96 4.276-.069 7.035-4.663 8.76-7.474 1.31-2.194 2.483-4.32 3.103-6.857.483-1.783-.62-3.086.69-4.8 2.483-3.223 2-6.514 2.483-10.079.069-.549 0-1.303 0-1.852-2-1.782-3.862-2.4-6.552-2.194-2.828.206-5.587.96-8.415 1.166-2.828.205-5.931-.343-7.931-2.263.482 2.126-.828 10.217-3.311 12.068-.966.686.552-5.76-3.725-4.32-1.862.617-2.483 4.937-1.862 6.857 1.173 3.566 2.483 2.606 2.483 3.086 0 3.702-.552 11.725-1.034 13.576" fill="#1E1E1E"/><path d="M271.087 148.219c-.759 0-1.725-.412-2.552-.686-.276-.069-.483-.206-.69-.274-2.069-.686-4-1.715-5.862-2.88-.138-.137-.207-.343-.069-.48.138-.137.344-.206.482-.069 1.794 1.166 3.656 2.126 5.656 2.812.207.068.414.137.69.274.758.274 1.724.686 2.345.686 4.069-.069 6.759-4.457 8.345-7.132l.069-.137c1.242-1.988 2.414-4.182 3.104-6.719a5.637 5.637 0 00.069-1.852c-.069-.96-.207-1.92.69-3.085 1.793-2.4 2-4.8 2.138-7.406.069-.822.138-1.645.207-2.537.069-.342 0-.685 0-1.028v-.617c-1.863-1.646-3.587-2.194-6.139-1.989-1.448.069-2.828.343-4.207.549-1.379.205-2.759.48-4.207.548-3.104.206-5.725-.411-7.518-1.851.069 3.017-1.173 9.737-3.518 11.519-.207.138-.413.138-.551.069-.345-.137-.414-.617-.483-1.371-.069-.96-.207-2.469-1.035-2.949-.414-.274-1.034-.274-1.793 0-.69.206-1.31 1.234-1.655 2.674-.276 1.372-.276 2.812 0 3.703.758 2.331 1.586 2.537 2 2.674.207.069.552.137.552.549 0 3.565-.483 11.725-1.035 13.713-.069.206-.207.275-.414.275-.207-.069-.276-.206-.276-.412.483-1.783 1.035-9.531 1.035-13.371-.483-.137-1.517-.411-2.414-3.085-.345-1.029-.345-2.606 0-4.046.207-1.028.828-2.742 2.069-3.222.966-.343 1.793-.275 2.414.137 1.104.685 1.241 2.4 1.379 3.497 0 .205.069.48.069.617 2.207-2.057 3.38-9.6 2.966-11.588 0-.137.069-.274.138-.343.138-.069.276-.069.414.069 2.276 2.194 5.794 2.331 7.656 2.194 1.379-.069 2.759-.343 4.138-.549 1.379-.205 2.828-.48 4.345-.548 2.828-.137 4.759.48 6.759 2.331.069.069.138.137.138.274v1.92c-.138.823-.138 1.714-.207 2.537-.206 2.674-.344 5.211-2.276 7.748-.689.96-.62 1.715-.551 2.606.069.617.138 1.303-.069 2.057-.69 2.606-1.932 4.868-3.173 6.925l-.069.138c-1.862 2.468-4.69 7.131-9.104 7.131z" fill="#C8C8C8"/><path d="M293.71 235.987l18.761-28.524 34.623-18.582-18.76 28.592-34.624 18.514z" fill="#1E1E1E"/><path d="M293.709 236.329a.523.523 0 01-.276-.138c-.138-.137-.138-.274 0-.411l18.761-28.524c0-.069.069-.069.138-.137l34.623-18.582c.138-.069.345-.069.414.068.138.137.138.274 0 .412l-18.76 28.524c0 .069-.069.069-.138.137l-34.624 18.582c0 .069-.069.069-.138.069zm19.036-28.593l-18.001 27.358 33.382-17.896 18.001-27.359-33.382 17.897z" fill="#F3652B"/><path d="M348.198 188.195l-35.313 19.131-2.414-.96 35.313-19.13 2.414.959z" fill="#1E1E1E"/><path d="M312.883 207.667h-.138l-2.414-.96c-.138-.068-.206-.137-.206-.274s.068-.274.206-.343l35.314-19.13a.21.21 0 01.276 0l2.414.96c.138.068.206.137.206.274a.377.377 0 01-.206.343l-35.314 19.13c-.069-.068-.069 0-.138 0zm-1.655-1.371l1.586.617 34.555-18.719-1.586-.617-34.555 18.719z" fill="#F3652B"/><path d="M293.021 236.947l-2.621-.685 19.795-29.828 2.621.686-19.795 29.827z" fill="#1E1E1E"/><path d="M293.02 237.289h-.069l-2.621-.686c-.138 0-.207-.137-.207-.206v-.343l19.726-29.758c.069-.137.206-.206.344-.137l2.621.685c.138 0 .207.137.207.206v.343l-19.726 29.758c-.068.069-.137.138-.275.138zm-2.07-1.235l1.932.48 19.381-29.141-1.932-.48-19.381 29.141z" fill="#F3652B"/><path d="M255.155 227.347c-.413 4.183-.758 8.434-1.172 12.617-.138 1.166-.207 2.4-.759 3.428-1.793 3.634-7.035 3.84-10.414 3.223-2.966-.549-7.173-1.92-9.174-4.251-2.483-2.949-1.103-7.131-.207-10.697 2.966-11.999 6.553-23.45 6.415-36.135 0-2.812-.207-5.691-1.035-8.366-1.103-3.428-3.31-6.376-5.104-9.531-3.172-5.691-2.414-11.725 1.794-16.662 3.379-3.908 4.759-7.473 16.553-9.805-.828-.068-7.656 2.949-1.104 10.217 2.414 2.743 4.138 6.24 5.656 9.668 2.966 6.857 4.759 14.879 3.931 22.422-.758 6.788-1.586 13.439-3.035 20.159-1.241 5.691-1.862 7.816-2.345 13.713z" fill="#1E1E1E"/><path d="M245.705 247.231c-1.034 0-2.069-.069-3.034-.274-1.587-.275-6.898-1.44-9.381-4.389-2.345-2.811-1.379-6.651-.551-10.011.069-.342.207-.685.276-1.028.482-1.851.896-3.634 1.379-5.417 2.621-10.217 5.173-19.885 5.035-30.65 0-2.674-.207-5.554-1.035-8.228-.758-2.4-2.138-4.663-3.448-6.788-.552-.892-1.104-1.783-1.587-2.675-3.241-5.759-2.552-11.93 1.794-17.073.414-.48.827-1.029 1.241-1.508 2.621-3.223 5.035-6.24 14.967-8.297.276-.069.414-.137.552-.137.138 0 .276.137.345.342 0 .138-.138.343-.276.343s-.276.069-.414.069c-.69.206-2.138.96-2.828 2.468-.897 1.92-.138 4.389 2.345 7.131 2.552 2.812 4.276 6.514 5.725 9.737 3.31 7.68 4.759 15.702 3.931 22.559-.828 6.857-1.655 13.508-3.035 20.159-.207.891-.345 1.714-.483 2.468-.896 4.115-1.379 6.309-1.793 11.314l-1.172 12.617c-.138 1.165-.207 2.4-.759 3.565-1.31 2.743-4.621 3.703-7.794 3.703zm3.794-95.173c-7.932 1.989-10.07 4.595-12.484 7.611-.414.48-.828 1.029-1.242 1.509-4.207 4.868-4.828 10.765-1.724 16.251.483.891 1.035 1.782 1.586 2.674 1.311 2.194 2.69 4.457 3.518 6.925.897 2.743 1.035 5.691 1.104 8.434.137 10.834-2.414 20.502-5.035 30.787-.483 1.783-.897 3.634-1.38 5.417-.069.343-.207.686-.276 1.029-.896 3.359-1.793 6.788.414 9.393 2.345 2.743 7.449 3.909 8.966 4.183 3.656.686 8.415.274 10.07-3.086.483-1.028.621-2.194.69-3.291l1.172-12.616c.483-5.006.966-7.269 1.794-11.383.138-.754.345-1.577.482-2.468 1.38-6.651 2.208-13.302 3.035-20.091.759-6.719-.621-14.605-3.862-22.216-1.38-3.154-3.104-6.788-5.587-9.531-3.379-3.771-3.173-6.376-2.414-7.953.207-.618.69-1.166 1.173-1.578z" fill="#C8C8C8"/><path d="M259.846 227.347c3.724-.48 7.173.275 10.415 2.195 3.724 2.194 8.897-.618 12.69 1.439 2.001 1.098 2.139 2.263 4.415 2.675.62.137 1.103-.618 1.034-1.166-.069-.549-.552-1.029-1.034-1.509-2.483-2.399-3.104-2.399-8.139-4.251 2.276.206 4.207.206 6.276 1.234 2.07 1.029 5.587 3.086 6.898 2.469.689-.343 0-1.509-.621-1.851-3.104-1.852-6.897-4.32-10.622-4.32 3.725 0 5.725-.549 8.897 1.303.414.274.828.48 1.311.617.483.068 1.035-.069 1.241-.48.414-.755-.413-1.577-1.241-1.989-3.104-1.577-6.69-2.4-10.139-2.263 1.311 0 2.138-.068 3.449-.068-.345 0-2-1.44-2.483-1.646-.897-.343-2-.48-2.966-.548-2.897-.137-5.587 1.303-8.552 1.234-2.139-.069-6.76-.617-6.967-.686-.206-.068-2.414-.411-2.207-.548 0 0-2.207.685-2.483 3.497-.138 1.645.828 4.662.828 4.662z" fill="#1E1E1E"/><path d="M287.502 234.066h-.207c-1.448-.274-2.069-.892-2.759-1.44-.483-.411-.896-.823-1.724-1.234-1.793-.96-3.863-.823-6.07-.686-2.276.137-4.621.343-6.621-.823-3.241-1.92-6.552-2.605-10.208-2.125-.138 0-.344-.069-.344-.206-.069-.137-1.035-3.086-.897-4.8.276-3.017 2.621-3.771 2.69-3.771.138-.069.276 0 .345.068.207.069.689.138 1.034.206.759.137.966.206 1.104.274.345.069 4.69.618 6.759.686 1.379.069 2.69-.274 4.138-.617 1.449-.343 2.897-.686 4.414-.617 1.104.068 2.207.274 3.035.548.276.138.828.48 1.311.892.344.274.896.686 1.103.754.138 0 .276.137.276.274 2.276.343 4.483 1.029 6.552 2.126.552.274 1.242.823 1.449 1.508.069.343.069.686-.138.96-.345.549-1.035.755-1.587.618-.482-.069-.896-.343-1.241-.549l-.138-.069c-1.931-1.165-3.38-1.371-5.173-1.371h-.069c2.276.754 4.414 2.057 6.414 3.291l.828.48c.552.343 1.104 1.097 1.104 1.714a.844.844 0 01-.483.755c-1.104.548-3.38-.48-6.139-1.989-.344-.205-.689-.343-1.034-.548-1.173-.617-2.345-.823-3.587-.96 2.897 1.097 3.794 1.44 5.863 3.497.483.48 1.034.96 1.103 1.645.069.48-.137.96-.413 1.303-.138.069-.414.206-.69.206zm-8.415-4.251c1.38 0 2.759.205 4.001.891.827.48 1.379.96 1.862 1.371.69.618 1.172 1.029 2.414 1.303a.527.527 0 00.345-.137c.207-.137.276-.48.276-.686-.069-.48-.483-.891-.897-1.234-2.138-2.057-2.828-2.331-6.276-3.565-.552-.206-1.104-.412-1.794-.686-.137-.069-.275-.206-.206-.411.069-.206.206-.275.344-.275l.69.069c2 .137 3.794.274 5.656 1.234.345.137.62.343 1.034.549 1.863.96 4.621 2.399 5.518 1.988.069 0 .069-.069.069-.137 0-.343-.345-.891-.759-1.097l-.827-.48c-2.966-1.783-6.277-3.771-9.587-3.771-.207 0-.345-.138-.345-.343 0-.206.138-.343.345-.343.758 0 1.379 0 2-.069 2.552-.068 4.414-.137 7.104 1.44l.138.069c.345.206.69.411 1.034.48.345.068.759 0 .897-.274.069-.138.069-.275.069-.412-.138-.411-.621-.823-1.104-1.097a20.958 20.958 0 00-9.035-2.263h-.965c-.207 0-.345-.137-.345-.343 0-.205.138-.342.345-.342h2.276c-.069-.069-.207-.138-.276-.206-.414-.343-.966-.686-1.173-.754-.758-.275-1.793-.48-2.828-.549-1.448-.068-2.827.274-4.207.617-1.379.343-2.828.686-4.276.617-1.724-.068-6.759-.548-7.104-.754-.069 0-.552-.137-.897-.206-.62-.137-.965-.205-1.172-.274-.483.206-1.862.96-2.069 3.154-.138 1.303.551 3.497.758 4.251 3.656-.411 7.104.343 10.346 2.263 1.793 1.029 3.931.892 6.207.754.759-.274 1.587-.342 2.414-.342z" fill="#C8C8C8"/><path d="M247.5 178.321c-3.518 9.805-10.277 20.09-12.139 30.375-.138.823-.276 1.715-.069 2.537.552 1.92 2.828 2.675 4.828 3.086 8.276 1.783 15.035 3.36 21.381 4.868-.966-.342-2.966 2.469-2.276 5.554.345 1.783 1.517 2.537 1.517 2.537-2.207 0-21.726-.411-24.209-.548-5.655-.343-12.897-.754-17.312-4.663-.62-.548-1.241-1.165-1.586-1.92-.345-.685-.414-1.508-.483-2.331-1.034-13.302 4.897-26.536 9.104-38.809 1.173-3.36 2.208-6.72 3.863-9.874 4.828-9.531 5.931-13.303 15.932-16.388" fill="#1E1E1E"/><path d="M260.672 227.62c-2.207 0-21.795-.411-24.209-.548h-.414c-5.655-.343-12.69-.823-17.105-4.731-.62-.549-1.241-1.234-1.655-2.057-.345-.823-.483-1.646-.552-2.4-.896-11.314 3.173-22.353 7.035-33.05.69-1.92 1.449-3.977 2.139-5.897l.482-1.303c.966-2.88 2-5.828 3.38-8.571.414-.891.828-1.714 1.241-2.468 3.863-7.748 5.656-11.245 14.898-14.125.207-.069.345.068.414.206.069.205-.069.342-.207.411-8.966 2.743-10.621 5.965-14.484 13.714a40.706 40.706 0 00-1.241 2.468c-1.38 2.743-2.414 5.691-3.38 8.502l-.483 1.303c-.689 1.92-1.379 3.977-2.138 5.897-3.862 10.628-7.863 21.668-7.035 32.776.069.685.138 1.508.483 2.194.345.754.965 1.303 1.517 1.851 4.207 3.771 11.105 4.183 16.691 4.526h.414c2.207.137 18.898.48 23.312.548-.344-.411-.758-1.097-.965-2.125-.483-2.332.414-4.594 1.448-5.554-6.138-1.44-12.484-2.949-20.277-4.594-1.863-.412-4.415-1.166-5.104-3.36-.276-.96-.069-1.92.069-2.743 1.103-6.377 4.207-12.754 7.104-18.993 1.793-3.772 3.655-7.68 5.035-11.451.069-.206.276-.275.414-.206.206.069.275.274.206.411-1.379 3.772-3.241 7.749-5.034 11.52-2.966 6.171-5.932 12.479-7.105 18.788-.137.754-.275 1.645-.068 2.399.551 1.783 2.689 2.469 4.552 2.88a1458.015 1458.015 0 0120.277 4.594l.897.206c.069 0 .138 0 .138.069.138.068.276.274.207.411-.069.137-.207.274-.414.206h-.069c-.069 0-.276.068-.483.274-.828.686-1.793 2.674-1.31 4.937.344 1.577 1.379 2.263 1.379 2.331.138.069.207.275.138.412.138.205 0 .342-.138.342zM276.604 136.905c-.138 0-.207-.069-.276-.137a.362.362 0 01.138-.48c.276-.137.483-.343.759-.48l.069-.069v-.137c-.069-1.508-.276-3.085-.414-4.594 0-.206.138-.343.276-.411.207 0 .345.137.414.274.207 1.508.345 3.085.414 4.594 0 .137 0 .274-.069.48-.069.137-.207.274-.276.274-.276.206-.552.343-.759.48-.138.206-.207.206-.276.206z" fill="#C8C8C8"/><path d="M195.763 97c-.207 0-.344-.134-.344-.336 0-.201.137-.336.344-.336 2.207 0 4.277-.604 6.139-1.746a.37.37 0 01.483.134c.069.134.069.336-.138.47-1.932 1.142-4.139 1.814-6.484 1.814zm-2.827 0h-2.07c-.207 0-.344-.134-.344-.336 0-.201.137-.336.344-.336h2.07c.206 0 .344.135.344.336 0 .202-.138.336-.344.336zm-8.001 0h-33.313c-.207 0-.345-.134-.345-.336 0-.201.138-.336.345-.336h33.313c.207 0 .345.135.345.336 0 .202-.138.336-.345.336zm-35.451 0h-1.587c-.207 0-.345-.134-.345-.336 0-.201.138-.336.345-.336h1.587c.207 0 .344.135.344.336 0 .202-.137.336-.344.336zm-2.828-.067c-.345-.067-.621-.135-.966-.202a7.594 7.594 0 01-3.31-1.612c-.138-.134-.207-.336-.069-.47.138-.135.344-.202.482-.067.897.671 1.932 1.209 3.035 1.478.276.067.552.134.828.134.207 0 .345.201.276.403.069.202-.069.336-.276.336zm-4.897-2.486a.53.53 0 01-.276-.134c-.69-.672-1.173-1.41-1.586-2.217-.552-1.142-.897-2.419-.897-3.762a8.47 8.47 0 013.173-6.584 9.271 9.271 0 014.138-1.88c.552-.068 1.103-.135 1.724-.135v-.672c0-1.68.621-3.359 1.725-4.635 1.448-1.68 3.517-2.687 5.793-2.687.207 0 .345.134.345.336 0 .201-.138.336-.345.336a6.78 6.78 0 00-5.242 2.418c-1.034 1.21-1.586 2.687-1.586 4.232 0 .27 0 .605.069.94 0 .068 0 .202-.069.27-.069.067-.138.134-.276.134h-.138c-.621-.067-1.241 0-1.793.067-1.38.269-2.69.806-3.794 1.747-1.862 1.545-2.896 3.762-2.896 6.113 0 1.21.276 2.351.827 3.426.345.739.897 1.478 1.518 2.083a.319.319 0 010 .47c-.207.134-.276.134-.414.134zm64.005-2.821c-.069 0-.138 0-.207-.068-.138-.067-.207-.335-.138-.47a10.455 10.455 0 001.518-3.627c.138-.74.276-1.546.276-2.352 0-.201.138-.335.344-.335.207 0 .345.134.345.335 0 .874-.069 1.68-.276 2.486-.275 1.41-.827 2.687-1.655 3.896.069.067-.069.135-.207.135zm1.311-9.741a.38.38 0 01-.345-.202c-.138-.403-.276-.739-.414-1.075-1.862-4.03-6.001-6.65-10.553-6.65-1.793 0-3.517.403-5.103 1.209-.138.067-.276.067-.414-.067-.138-.067-.138-.269-.069-.403.414-1.075.689-2.15.689-3.292 0-1.21-.275-2.351-.758-3.493-1.449-3.225-4.621-5.24-8.208-5.24-1.034 0-2 .134-2.966.47-1.103.403-2.138.94-3.034 1.747-1.863 1.68-2.966 4.03-2.966 6.449 0 .47.069.94.138 1.478a.368.368 0 01-.207.336c-1.448.806-2.759 1.814-3.794 3.09-.413.537-.827 1.075-1.172 1.68-.069.134-.276.2-.483.134-.138-.067-.207-.27-.138-.47a10.14 10.14 0 011.242-1.747 13.08 13.08 0 013.793-3.158c-.069-.47-.138-.94-.138-1.343 0-2.62 1.173-5.173 3.173-6.92.965-.806 2.069-1.478 3.242-1.88 1.034-.336 2.138-.538 3.172-.538 3.794 0 7.311 2.217 8.829 5.643a8.828 8.828 0 01.827 3.762c0 .94-.138 1.881-.414 2.754 1.518-.604 3.035-.94 4.69-.94 4.828 0 9.174 2.754 11.174 7.054.207.403.345.806.483 1.142.069.201-.069.335-.207.403 0 .067-.069.067-.069.067zm-44.487-3.292c-.069 0-.138 0-.207-.067-.069-.067-.138-.134-.138-.269-.069-.537-.207-1.008-.414-1.545a4.994 4.994 0 00-.62-1.21c-.345-.47-.69-.94-1.104-1.343a.319.319 0 010-.47.34.34 0 01.483 0c.483.403.897.94 1.241 1.478.276.403.483.873.69 1.344.138.403.276.806.345 1.276 1.035-.336 2.069-.47 3.173-.47.207 0 .345.134.345.336 0 .201-.138.335-.345.335a9.594 9.594 0 00-3.311.605h-.138z" fill="#646464"/><path d="M322.194 69.571c-.137 0-.206-.069-.275-.206a.36.36 0 01.138-.48c.482-.274.965-.48 1.517-.617a4.96 4.96 0 013.31-3.291c.207-.069.345.069.414.206.069.137-.069.342-.207.411a4.147 4.147 0 00-2.896 3.017c0 .137-.138.206-.276.274-.552.137-1.035.275-1.518.549-.069.137-.138.137-.207.137zM318.746 79.582h-.828c-.965 0-1.793-.411-2.483-1.028-.69-.618-1.034-1.578-.965-2.469 0-1.234.758-2.4 1.862-3.017a3.755 3.755 0 011.724-.411c.345 0 .759.068 1.104.205.069-.343.207-.685.344-.96l.414-.823c.069-.137.345-.205.483-.137.138.069.207.343.138.48a7.46 7.46 0 00-.414.755c-.138.411-.276.822-.345 1.234 0 .137-.069.206-.207.274-.069.069-.207.069-.344 0a2.72 2.72 0 00-1.242-.274c-.483 0-.965.137-1.379.343-.897.48-1.449 1.44-1.518 2.4 0 .754.276 1.44.828 1.988a2.77 2.77 0 002 .823h.759c.207 0 .345.137.345.343 0 .205-.138.274-.276.274zM320.125 79.582c-.207 0-.345-.137-.345-.343 0-.206.138-.343.345-.343h6.346c.207 0 .344.137.344.343 0 .206-.137.343-.344.343h-6.346zM332.678 79.582c-.207 0-.345-.137-.345-.343 0-.206.138-.343.345-.343h11.794c.483 0 .966-.068 1.449-.205a4.98 4.98 0 001.448-.823c.897-.823 1.448-1.92 1.448-3.154 0-.206.138-.343.345-.343.207 0 .345.137.345.343a4.71 4.71 0 01-1.724 3.634 4.987 4.987 0 01-1.656.96 4.656 4.656 0 01-1.655.274h-11.794zM349.162 74.028c-.138 0-.276-.137-.345-.274-.069-.412-.207-.755-.414-1.166-.069-.137 0-.343.138-.48.138-.069.345 0 .483.137.207.412.414.892.483 1.303.069.206-.069.343-.276.411l-.069.069zM347.852 71.697c-.069 0-.207 0-.207-.069-.759-.754-1.793-1.166-2.897-1.166-.483 0-.966.069-1.379.206-.138.069-.276 0-.345-.068-.069-.069-.138-.206-.069-.343.138-.48.207-.96.207-1.372 0-.754-.138-1.44-.345-2.125-.138-.48-.414-.892-.69-1.303-.276-.411-.552-.754-.896-1.029a5.683 5.683 0 00-3.863-1.508c-1.448 0-2.897.48-4 1.44-.276.206-.483.48-.69.686-.345.48-.69.96-.897 1.508-.069.137-.137.206-.275.206s-.207 0-.276-.069c-.552-.48-1.173-.823-1.794-.96-.344-.068-.62-.137-.965-.137-.207 0-.345-.137-.345-.343 0-.206.138-.343.345-.343.345 0 .759.069 1.103.138a4.72 4.72 0 011.794.822c.207-.411.482-.891.827-1.234.207-.274.483-.548.759-.823 1.241-1.097 2.828-1.645 4.414-1.645 1.586 0 3.173.617 4.345 1.714.414.343.69.754 1.035 1.166.276.41.552.89.759 1.44.275.754.413 1.576.413 2.4 0 .342-.069.617-.069.96.345-.07.69-.07 1.035-.07 1.241 0 2.483.48 3.38 1.372a.33.33 0 010 .48c-.276 0-.345.069-.414.069zM383.801 358.474c-.138 0-.207-.069-.276-.206a.36.36 0 01.138-.48c.483-.274.966-.48 1.518-.617a4.96 4.96 0 013.31-3.291c.207-.069.345.068.414.206.069.205-.069.342-.207.411a4.15 4.15 0 00-2.897 3.017c0 .137-.137.206-.275.274-.552.137-1.035.275-1.518.549-.069.137-.138.137-.207.137zM380.284 368.485h-.828c-.966 0-1.793-.412-2.483-1.029-.621-.685-1.034-1.577-.966-2.468 0-1.234.759-2.4 1.863-3.017a3.757 3.757 0 011.724-.412c.345 0 .759.069 1.104.206.069-.343.206-.685.344-.96l.414-.823c.069-.137.345-.205.483-.137.138.069.207.343.138.48-.138.206-.276.48-.414.755-.138.411-.276.822-.345 1.234 0 .137-.069.205-.207.274-.069.069-.207.069-.344 0a2.716 2.716 0 00-1.242-.274c-.483 0-.966.137-1.379.343-.897.48-1.449 1.44-1.518 2.399 0 .755.276 1.44.828 1.989a2.768 2.768 0 002 .823h.759c.207 0 .345.137.345.343 0 .205-.069.274-.276.274zM381.732 368.485c-.207 0-.345-.137-.345-.343 0-.206.138-.343.345-.343h6.345c.207 0 .345.137.345.343 0 .206-.138.343-.345.343h-6.345zM394.285 368.416c-.207 0-.345-.137-.345-.343 0-.205.138-.342.345-.342h11.794c.483 0 .966-.069 1.448-.206a4.975 4.975 0 001.449-.823c.896-.823 1.448-1.92 1.448-3.154 0-.206.138-.343.345-.343.207 0 .345.137.345.343a4.71 4.71 0 01-1.724 3.634 4.982 4.982 0 01-1.656.96c-.551.206-1.103.274-1.655.274h-11.794zM410.7 362.862c-.138 0-.276-.137-.345-.274-.069-.411-.207-.754-.414-1.166-.069-.137 0-.342.138-.48.138-.068.345 0 .483.138.207.411.414.891.483 1.302.069.206-.069.343-.276.412 0 .068 0 .068-.069.068zM409.39 360.531c-.069 0-.207 0-.207-.069-.759-.754-1.794-1.165-2.897-1.165-.483 0-.966.068-1.38.205-.137.069-.275 0-.344-.068-.069-.069-.138-.206-.069-.343.138-.48.207-.96.207-1.371 0-.755-.138-1.44-.345-2.126-.138-.48-.414-.891-.69-1.303-.276-.411-.552-.754-.897-1.028a5.68 5.68 0 00-3.862-1.509c-1.448 0-2.897.48-4 1.44-.276.206-.483.48-.69.686-.345.48-.69.96-.897 1.508-.069.138-.138.206-.276.206s-.206 0-.275-.068c-.552-.48-1.173-.823-1.794-.96-.345-.069-.62-.138-.965-.138-.207 0-.345-.137-.345-.342 0-.206.138-.343.345-.343.345 0 .758.068 1.103.137a4.699 4.699 0 011.793.823c.207-.412.483-.892.828-1.235.207-.274.483-.548.759-.822 1.241-1.097 2.759-1.646 4.414-1.646 1.586 0 3.173.617 4.345 1.714.414.343.69.754 1.035 1.166.276.411.552.891.758 1.44.276.754.414 1.577.414 2.4 0 .343-.069.617-.069.96.345-.069.69-.137 1.035-.069 1.241 0 2.483.48 3.379 1.371a.33.33 0 010 .48c-.206.069-.275.069-.413.069z" fill="#C8C8C8"/><path d="M275.91 127.719c0 3.465-2.824 6.277-6.309 6.277-3.485 0-6.308-2.812-6.308-6.277 0-3.465 2.823-6.277 6.308-6.277s6.309 2.812 6.309 6.277zM290.484 129.895c0 3.465-2.823 6.276-6.308 6.276-3.486 0-6.309-2.811-6.309-6.276 0-3.466 2.823-6.277 6.309-6.277 3.485 0 6.308 2.811 6.308 6.277z" fill="#1E1E1E" fill-opacity=".6" stroke="#C8C8C8" stroke-width=".5"/><rect x="453.5" y="173.5" width="9" height="9" rx=".5" stroke="#1E1E1E"/><path stroke="#F3652B" d="M150.273 143v3.636M150.273 149.364V153M155 148.273h-3.636M148.636 148.273H145M457.227 253v4.364M457.227 260.636V265M463 259.227h-4.364M455.364 259.227H451"/><rect x="366.5" y="135.5" width="9" height="9" rx=".5" stroke="#646464"/><rect x="125.5" y="393.5" width="7" height="7" rx=".5" stroke="#F3652B"/></g><path d="M21.414 178.594s-.07 0 0 0c-.276-.068-.345-.205-.345-.411.138-1.097.483-2.057.966-3.017.551-1.029 1.172-1.92 2-2.743a.335.335 0 01.482 0 .33.33 0 010 .48 10 10 0 00-1.862 2.606c-.483.891-.758 1.851-.896 2.88-.07.068-.207.205-.345.205zM25.414 172.08c-.138 0-.207-.068-.276-.137-.138-.137-.069-.343.07-.48 2.344-1.783 5.31-2.468 8.276-1.92v-.48c0-.617.069-1.234.207-1.851.207-1.029.62-1.988 1.103-2.88a9.51 9.51 0 012.69-2.811c2.69-1.783 6.208-1.989 9.035-.617 1.242.617 2.414 1.508 3.242 2.674.759.96 1.241 2.057 1.586 3.223a9.364 9.364 0 011.449-1.029.366.366 0 01.483.137.36.36 0 01-.138.48c-.621.412-1.242.823-1.794 1.372-.069.068-.206.137-.345.068-.137-.068-.206-.137-.206-.274a7.61 7.61 0 00-1.587-3.566c-.758-1.028-1.793-1.92-2.966-2.468-2.62-1.303-5.931-1.097-8.345.548a8.155 8.155 0 00-2.483 2.606 8.99 8.99 0 00-1.035 2.674c-.138.549-.138 1.097-.138 1.646 0 .274 0 .617.07.891 0 .137 0 .206-.139.274-.068.069-.206.138-.275.069-.759-.137-1.449-.274-2.207-.274-2.139 0-4.208.685-6 1.988-.139.137-.208.137-.277.137zM78.04 176.263a.528.528 0 01-.277-.137c-.551-.617-1.241-1.234-1.93-1.646-.897-.548-1.863-.891-2.898-1.097-.827-.137-1.724-.137-2.62-.068a6.65 6.65 0 00-2 .548c-.07.069-.208 0-.277 0-.069-.068-.138-.137-.138-.274-.138-1.303-.551-2.537-1.172-3.703-.552-.96-1.241-1.851-2.138-2.605a10.871 10.871 0 00-2.69-1.646c-.62-.274-1.242-.411-1.862-.549a10.496 10.496 0 00-4.828.275c-.207.068-.345-.069-.414-.206-.069-.206.069-.343.207-.411 1.655-.549 3.448-.618 5.173-.275.69.137 1.31.343 2 .617 1.034.412 2 1.029 2.897 1.783.896.823 1.655 1.714 2.276 2.811.62 1.098 1.034 2.263 1.172 3.566a7.826 7.826 0 011.725-.411c.896-.138 1.93-.138 2.827.068 1.104.206 2.207.617 3.173 1.166.828.48 1.517 1.097 2.138 1.783a.33.33 0 010 .48c-.138-.069-.276-.069-.345-.069zM80.177 181.954c-.207 0-.345-.137-.345-.343 0-1.028-.206-1.988-.551-2.948-.07-.206 0-.343.207-.412.207-.068.344 0 .413.206.414 1.029.552 2.057.552 3.154.07.206-.069.343-.276.343zM78.384 187.302c-.069 0-.138 0-.207-.068-.138-.137-.207-.343-.069-.48a7.891 7.891 0 001.518-3.154c.069-.206.206-.274.413-.274.207.068.276.205.276.411a8.344 8.344 0 01-1.655 3.428.52.52 0 01-.276.137zM71.487 190.662c-.207 0-.345-.137-.345-.343 0-.205.138-.342.345-.342a8.58 8.58 0 002.897-.48 9.185 9.185 0 002.414-1.372c.138-.137.345-.068.483.069s.069.343-.07.48c-.827.685-1.655 1.165-2.62 1.508-.966.275-2.07.48-3.104.48zM69.832 190.662H53.554c-.207 0-.344-.137-.344-.343 0-.205.137-.342.344-.342h16.278c.207 0 .345.137.345.342 0 .138-.138.343-.345.343zM49.347 190.594h-6.621c-3.173 0-5.932 0-8.07-.069-.207 0-.345-.137-.345-.343 0-.205.138-.343.345-.343 2.138 0 4.966 0 8.07.069h6.621c.207 0 .345.137.345.343 0 .137-.138.343-.345.343zM31.553 190.457c-1.656 0-3.311-.412-4.76-1.166-.137-.069-.206-.274-.137-.48.069-.137.276-.206.482-.137 1.38.685 2.897 1.028 4.483 1.028.207 0 .345.137.345.343 0 .206-.207.412-.413.412zM22.862 185.657c-.138 0-.207-.069-.276-.137-1.034-1.646-1.586-3.634-1.586-5.623 0-.206.138-.343.345-.343.207 0 .345.137.345.343a9.79 9.79 0 001.517 5.211.36.36 0 01-.138.48c-.069.069-.138.069-.207.069z" fill="#C8C8C8"/><path d="M490.695 141.879h-.137c-1.311-.617-2.69-.96-4.139-1.166-.138 0-.207-.068-.276-.205-.069-.138 0-.275.069-.343.552-.686.966-1.44 1.311-2.194a11.25 11.25 0 001.034-4.732c0-1.234-.207-2.399-.551-3.497-.483-1.577-1.311-2.948-2.414-4.182a12.237 12.237 0 00-4.69-3.223c-2.552-.891-5.38-.96-7.932 0-1.311.48-2.552 1.166-3.587 2.057-2.276 1.92-3.724 4.594-4.069 7.474a.514.514 0 01-.138.274c-.069.069-.207.069-.276.069-4.759-1.509-10.208-.96-14.622 1.44-.138.068-.345 0-.483-.137-.068-.137 0-.343.138-.48 4.484-2.4 9.863-3.017 14.76-1.577.414-2.949 1.932-5.623 4.208-7.543a11.663 11.663 0 013.793-2.194 12.65 12.65 0 018.414 0 12.504 12.504 0 015.035 3.36c1.173 1.303 2.001 2.811 2.552 4.457.414 1.234.552 2.468.552 3.702 0 1.715-.345 3.429-1.103 5.006a8.015 8.015 0 01-1.035 1.851c1.31.206 2.552.617 3.793 1.166.207.068.276.274.138.48a.532.532 0 01-.345.137zM511.939 152.644a.379.379 0 01-.345-.206c-.69-1.577-1.793-3.017-3.104-4.182a11.77 11.77 0 00-3.448-2.057 11.867 11.867 0 00-8.553.137c-.207.068-.345 0-.483-.206-.069-.205 0-.343.207-.48 2.897-1.165 6.208-1.234 9.104-.137 1.38.48 2.552 1.234 3.656 2.194 1.379 1.166 2.552 2.743 3.311 4.389.069.205 0 .342-.207.48-.069.068-.138.068-.138.068zM500.903 169.375h-9.311c-.207 0-.345-.137-.345-.343 0-.206.138-.343.345-.343h9.311c1.173 0 2.345-.206 3.449-.48 1.862-.548 3.517-1.577 4.897-2.948.965-1.029 1.793-2.195 2.345-3.429.621-1.508.965-3.017.965-4.662 0-.206.138-.343.345-.343.207 0 .345.137.345.343 0 1.714-.345 3.359-1.034 4.937-.621 1.371-1.449 2.605-2.483 3.634a13.01 13.01 0 01-5.173 3.154c-1.173.274-2.414.48-3.656.48zM489.868 169.375h-42.004c-.207 0-.345-.137-.345-.343 0-.206.138-.343.345-.343h42.004c.207 0 .345.137.345.343 0 .206-.138.343-.345.343zM436.898 169.375h-4.483c-2.552 0-4.966-.754-7.035-2.194-1.104-.755-2.138-1.715-2.897-2.812-.138-.137-.069-.343.069-.48.138-.137.345-.068.483.069.758 1.028 1.724 1.92 2.759 2.674 1.931 1.371 4.276 2.057 6.621 2.057h4.483c.207 0 .345.137.345.343 0 .206-.138.343-.345.343zM421.035 161.352a.38.38 0 01-.345-.205c-.483-1.303-.69-2.675-.69-4.046 0-1.508.276-3.017.828-4.388a12.75 12.75 0 012.276-3.703.335.335 0 01.483 0 .332.332 0 010 .48c-.897 1.029-1.656 2.194-2.139 3.497a12.172 12.172 0 00-.758 4.183c0 1.302.207 2.605.62 3.771.069.206 0 .343-.206.411h-.069zM427.449 146.542a.38.38 0 01-.345-.206c-.069-.206 0-.343.138-.48 1.586-.754 3.311-1.097 5.104-1.097.207 0 .345.137.345.343 0 .205-.138.343-.345.343-1.656 0-3.311.342-4.828 1.028.069.069 0 .069-.069.069zM440.14 148.256c-.069 0-.138 0-.207-.069-1.104-.96-2.345-1.645-3.725-2.125-.207-.069-.276-.275-.207-.412.069-.205.276-.274.414-.205a11.167 11.167 0 013.449 1.851c.138-1.166.414-2.331.827-3.429a22.24 22.24 0 011.242-2.948 22.77 22.77 0 013.035-4.251.334.334 0 01.482 0 .33.33 0 010 .48c-1.172 1.234-2.138 2.605-2.965 4.114a20.456 20.456 0 00-1.242 2.811 19.759 19.759 0 00-.828 3.909c0 .137-.068.205-.206.274h-.069z" fill="#646464"/><rect x="58" y="42.5" width="7" height="7" rx=".5" stroke="#F3652B"/><rect x="497.5" y="346.5" width="9" height="9" rx=".5" stroke="#979797"/><path stroke="#F3652B" d="M384.266.583V6.4M384.266 10.762v5.817M392.127 8.717h-5.817M381.948 8.717h-5.817"/><path stroke="#646464" d="M6.226 313v4.362M6.226 320.634v4.363M11.996 319.226H7.634M4.362 319.226H0"/><defs><clipPath id="clip0"><path fill="#fff" transform="translate(59 61)" d="M0 0h411v351H0z"/></clipPath></defs></svg>