<svg width="21" height="21" viewBox="0 0 21 21" fill="none" xmlns="http://www.w3.org/2000/svg">
<path fill-rule="evenodd" clip-rule="evenodd" d="M10.5 1.45238C5.50314 1.45238 1.45238 5.50314 1.45238 10.5C1.45238 15.4969 5.50314 19.5476 10.5 19.5476C15.4969 19.5476 19.5476 15.4969 19.5476 10.5C19.5476 5.50314 15.4969 1.45238 10.5 1.45238ZM0.5 10.5C0.5 4.97715 4.97715 0.5 10.5 0.5C16.0228 0.5 20.5 4.97715 20.5 10.5C20.5 16.0228 16.0228 20.5 10.5 20.5C4.97715 20.5 0.5 16.0228 0.5 10.5Z" fill="#646464"/>
<path fill-rule="evenodd" clip-rule="evenodd" d="M10.5001 3.69998C10.7631 3.69998 10.9763 3.91318 10.9763 4.17617V10.2997L13.9881 12.7091C14.1934 12.8734 14.2267 13.173 14.0624 13.3784C13.8981 13.5838 13.5985 13.6171 13.3931 13.4528L10.0239 10.7574V4.17617C10.0239 3.91318 10.2371 3.69998 10.5001 3.69998Z" fill="#646464"/>
</svg>
