<svg id="Layer_1" data-name="Layer 1" xmlns="http://www.w3.org/2000/svg" viewBox="0 0 40 40"><defs><style>.cls-1{fill:#f3652b;}</style></defs><path class="cls-1" d="M9.3,15.6l.29-.13-.32-.72L9,14.89a2.82,2.82,0,0,1-1.62.22l-.31,0-.12.77.31.05a3.27,3.27,0,0,0,.54,0A3.62,3.62,0,0,0,9.3,15.6"/><path class="cls-1" d="M10.05,14.08l.66.43.17-.27a3.71,3.71,0,0,0,.59-2,3.65,3.65,0,0,0-.57-2L10.73,10l-.66.42.16.27a2.88,2.88,0,0,1,0,3.11Z"/><path class="cls-1" d="M5,13.05l-.09-.3L4.15,13l.09.3A3.66,3.66,0,0,0,5.35,15l.24.21.52-.59-.24-.21A2.91,2.91,0,0,1,5,13.05"/><path class="cls-1" d="M7.38,9.37A3,3,0,0,1,9,9.61l.28.14L9.62,9,9.34,8.9a3.74,3.74,0,0,0-2.06-.31L7,8.63l.1.78Z"/><path class="cls-1" d="M5.38,9.44a3.65,3.65,0,0,0-1.13,1.75l-.09.3.75.22.09-.3A2.92,2.92,0,0,1,5.89,10l.24-.2-.51-.6Z"/><polygon class="cls-1" points="19.86 11.21 19.2 10.77 17.81 12.86 18.46 13.3 19.86 11.21"/><polygon class="cls-1" points="20.77 9.85 20.86 10.2 21.62 10.01 21.1 7.94 19.91 9.73 20.56 10.16 20.77 9.85"/><polygon class="cls-1" points="21.77 13.86 22.53 13.67 21.92 11.23 21.16 11.42 21.77 13.86"/><polygon class="cls-1" points="9.37 18.05 10.07 18.41 11.2 16.16 10.5 15.81 9.37 18.05"/><rect class="cls-1" x="7.34" y="20.08" width="2.51" height="0.79" transform="translate(-13.56 18.98) rotate(-63.37)"/><rect class="cls-1" x="8.48" y="21.7" width="2.51" height="0.79"/><polygon class="cls-1" points="13.69 17.54 11.89 15.78 11.34 16.35 13.14 18.1 13.69 17.54"/><path class="cls-1" d="M22.75,21.25a3.69,3.69,0,1,0-3.69,3.69,3.69,3.69,0,0,0,3.69-3.69m-6.59,0a2.91,2.91,0,1,1,2.9,2.9,2.9,2.9,0,0,1-2.9-2.9"/><path class="cls-1" d="M18.43,31.5H36L32.39,17,25.57,27.13l-3.32-3.24Zm7.27-3.15,6.35-9.49,3,11.85H19.7l2.77-5.51Z"/><path class="cls-1" d="M26,15.56v-9H2.77V24.44H14.05v9H37.23V15.56ZM3.55,23.65V7.34H25.16v8.22H23l-.16-.67-.77.19.13.48H17l.81-1.22-.65-.44L16,15.56H14.05V21.7H12.24v.79h1.81v1.16Zm32.9,9H14.84V16.34H36.45Z"/></svg>
