<svg id="Layer_1" data-name="Layer 1" xmlns="http://www.w3.org/2000/svg" viewBox="0 0 40 40"><defs><style>.cls-1{fill:#1e1e1e;}</style></defs><polygon class="cls-1" points="20.45 35.01 20.45 23.45 19.55 23.45 19.55 35.01 14.58 30.23 13.93 30.85 20 36.7 26.07 30.85 25.42 30.22 20.45 35.01"/><polygon class="cls-1" points="19.55 4.99 19.55 16.55 20.45 16.55 20.45 4.99 25.42 9.78 26.07 9.15 20 3.3 13.93 9.15 14.58 9.77 19.55 4.99"/><polygon class="cls-1" points="38.51 19.55 26.61 19.55 31.53 14.74 30.89 14.11 24.85 20 30.89 25.89 31.54 25.26 26.61 20.45 38.51 20.45 38.51 19.55"/><polygon class="cls-1" points="9.11 14.11 8.46 14.74 13.39 19.55 1.49 19.55 1.49 20.45 13.39 20.45 8.46 25.26 9.11 25.89 15.15 20 9.11 14.11"/></svg>
