<svg id="Layer_1" data-name="Layer 1" xmlns="http://www.w3.org/2000/svg" viewBox="0 0 40 40"><defs><style>.cls-1{fill:#f3652b;}</style></defs><path class="cls-1" d="M32,29.22H18.37c-5.14,0-5.4-2.52-5.41-2.63L7.9,6.59c-.55-2.14-2-2-2-2H3.05v-1H5.83c.78-.06,2.43.45,3,2.8l5.08,20.08c0,.09.29,1.81,4.44,1.81H32Z"/><path class="cls-1" d="M18.17,37.36a3.1,3.1,0,1,1,3.1-3.1A3.1,3.1,0,0,1,18.17,37.36Zm0-5.22a2.12,2.12,0,1,0,2.12,2.12A2.12,2.12,0,0,0,18.17,32.14Z"/><path class="cls-1" d="M27.1,37.36a3.1,3.1,0,1,1,3.1-3.1A3.1,3.1,0,0,1,27.1,37.36Zm0-5.22a2.12,2.12,0,1,0,2.12,2.12A2.12,2.12,0,0,0,27.1,32.14Z"/><path class="cls-1" d="M31.83,23.53H13.92c-.64,0-1.79-.29-2.33-2.3l-2.73-11A2.39,2.39,0,0,1,11.2,7.79H34.61A2.39,2.39,0,0,1,37,10.22l0,.12L34.16,21.23A2.66,2.66,0,0,1,31.83,23.53Zm-22-13.37L12.55,21c.27,1,.73,1.56,1.37,1.56H31.83c.7,0,1.2-.81,1.37-1.55L36,10.16a1.4,1.4,0,0,0-1.35-1.39H11.2A1.4,1.4,0,0,0,9.85,10.16Z"/><rect class="cls-1" x="22.42" y="2.89" width="0.99" height="15.55"/><polygon class="cls-1" points="22.91 19.14 17.86 14.09 18.55 13.39 22.91 17.75 27.35 13.3 28.05 14 22.91 19.14"/></svg>
