<svg id="Layer_1" data-name="Layer 1" xmlns="http://www.w3.org/2000/svg" viewBox="0 0 40 40"><defs><style>.cls-1{fill:#f3652b;}</style></defs><path class="cls-1" d="M32.18,35.86V15.54l-.64,1.86a12.25,12.25,0,0,1-2.13,3.82A13.49,13.49,0,0,1,27.58,23l-.12.1V35.86h-1.9V24.33l-.47.22a12.82,12.82,0,0,1-4,1.13l-.29,0V35.86h-1.9V25.74l-.31,0a14.42,14.42,0,0,1-3.78-.8l-.63,0v11h-1.9V28.17l-4.72,6v1.67H3.21v.73h34v-.73ZM28.11,23.42a13.24,13.24,0,0,0,1.8-1.79,12.78,12.78,0,0,0,1.61-2.49V35.85H28.11Zm-6.62,2.87a13.09,13.09,0,0,0,3.41-.94v10.5H21.49Zm-6.62-.66a15.69,15.69,0,0,0,3.41.71v9.51H14.87ZM8.25,34.42l3.41-4.36v5.79H8.25Z"/><path class="cls-1" d="M4.47,33.8a1.75,1.75,0,0,0,1.34-.63l8.68-11.09a10.45,10.45,0,0,0,13.4-2.23,10,10,0,0,0-1.53-14.2A10.45,10.45,0,0,0,11.89,7.14a9.94,9.94,0,0,0,.51,13.27L3.15,31.06a1.61,1.61,0,0,0-.37,1.23,1.67,1.67,0,0,0,.62,1.14,1.74,1.74,0,0,0,1.07.37m8-26.19A9.71,9.71,0,0,1,25.91,6.23a9.21,9.21,0,0,1,1.41,13.15,9.73,9.73,0,0,1-13.45,1.39A9.24,9.24,0,0,1,12.45,7.61M3.71,31.53l9.2-10.59.95.75-8.62,11a1,1,0,0,1-1.38.14.9.9,0,0,1-.35-.64.92.92,0,0,1,.2-.68"/></svg>
