<svg id="Layer_1" data-name="Layer 1" xmlns="http://www.w3.org/2000/svg" viewBox="0 0 40 40"><defs><style>.cls-1{fill:#1e1e1e;}</style></defs><path class="cls-1" d="M26.46,10.68H13.54a2.91,2.91,0,0,0-2.91,2.91V26.5a2.91,2.91,0,0,0,2.91,2.91H26.46a2.91,2.91,0,0,0,2.91-2.91V13.59A2.91,2.91,0,0,0,26.46,10.68ZM28.37,26.5a1.92,1.92,0,0,1-1.91,1.91H13.54a1.91,1.91,0,0,1-1.91-1.91V13.59a1.91,1.91,0,0,1,1.91-1.91H26.46a1.9,1.9,0,0,1,1.91,1.91Z"/><path class="cls-1" d="M37.23,8.73v-1H34.56v.06a2.45,2.45,0,0,0-2.29-2.29V2.81h-1v2.7H27.56V2.81h-1v2.7H22.84V2.81h-1v2.7H18.12V2.81h-1v2.7H13.41V2.81h-1v2.7H8.69V2.81h-1V5.52A2.49,2.49,0,0,0,5.44,7.84V7.76H2.77v1H5.42v3.75H2.77v1H5.42V17.2H2.77v1H5.42v3.74H2.77v1H5.42v3.75H2.77v1H5.42v3.75H2.77v1H5.44a2.45,2.45,0,0,0,2.34,2.33H7.72v2.63h1V34.65h3.75v2.62h1V34.65h3.75v2.62h1V34.65h3.75v2.62h1V34.65h3.75v2.62h1V34.65h3.75v2.62h1V34.64h0a2.46,2.46,0,0,0,2.33-2.32h2.66v-1H34.58V27.6h2.65v-1H34.58V22.88h2.65v-1H34.58V18.17h2.65v-1H34.58V13.45h2.65v-1H34.58V8.73ZM33.58,32.18a1.47,1.47,0,0,1-1.47,1.47H7.89a1.47,1.47,0,0,1-1.47-1.47V8A1.46,1.46,0,0,1,7.89,6.53l24.22,0A1.47,1.47,0,0,1,33.58,8Z"/></svg>
