<svg width="41" height="37" viewBox="0 0 41 37" fill="none" xmlns="http://www.w3.org/2000/svg">
<path d="M14.2441 0.414355H14.1941V0.464355V20.1339V20.1839H14.2441H28.2078L34.6974 26.4666L34.7822 26.5487V26.4307V20.1839H40.5859H40.6359V20.1339V0.464355V0.414355H40.5859H14.2441ZM34.0167 19.3698H33.9667V19.4198V24.6254L28.5229 19.3838L28.5084 19.3698H28.4882H15.0095V1.22843H39.8205V19.3698H34.0167Z" fill="#F3652B" stroke="#F3652B" stroke-width="0.1"/>
<path d="M12.7791 29.5758L7.33522 34.8174V29.6118V29.5618H7.28522H1.3514V11.4204H10.7975H10.8475V11.3704V10.6564V10.6064H10.7975H0.585938H0.535937V10.6564V30.3259V30.3759H0.585938H6.51977V36.6227V36.7399L6.60437 36.6588L13.1591 30.3759H26.9278H26.9778V30.3259V23.3799V23.3299H26.9278H26.2123H26.1623V23.3799V29.5618H12.8138H12.7936L12.7791 29.5758Z" fill="#F3652B" stroke="#F3652B" stroke-width="0.1"/>
</svg>
