<svg width="33" height="31" viewBox="0 0 33 31" fill="none" xmlns="http://www.w3.org/2000/svg">
<path d="M23.9243 17.8005V25.8781L16.5056 29.923L12.7963 27.9006L9.08691 25.8781V17.8005L16.5056 13.7678L23.9243 17.8005Z" stroke="#808080" stroke-width="1.5" stroke-miterlimit="10" stroke-linecap="round"/>
<path d="M16.5057 5.8374L19.4605 7.44849L22.4154 9.05956" stroke="#808080" stroke-width="1.5" stroke-miterlimit="10" stroke-linecap="round"/>
<path d="M9.15741 18.0879L12.1123 19.699L15.0671 21.31" stroke="#808080" stroke-width="1.5" stroke-miterlimit="10" stroke-linecap="round"/>
<path d="M23.9818 18.0879L21.0269 19.699L18.072 21.31" stroke="#808080" stroke-width="1.5" stroke-miterlimit="10" stroke-linecap="round"/>
<path d="M16.1545 5.68872L13.1997 7.2998L10.2448 8.91088" stroke="#808080" stroke-width="1.5" stroke-miterlimit="10" stroke-linecap="round"/>
<path d="M24.0393 11.3232L23.9819 14.342L23.9244 17.3607" stroke="#808080" stroke-width="1.5" stroke-miterlimit="10" stroke-linecap="round"/>
<path d="M8.86371 11.1746L8.80626 14.1933L8.74881 17.212" stroke="#808080" stroke-width="1.5" stroke-miterlimit="10" stroke-linecap="round"/>
<path d="M16.1544 5.70881L8.74867 1.67612L1.32996 5.70881V13.7986L8.74867 17.8313" stroke="#808080" stroke-width="1.5" stroke-miterlimit="10" stroke-linecap="round"/>
<path d="M31.3299 13.7925V5.70262L23.9241 1.66992L16.5054 5.70262V13.7925L23.9241 17.8251L31.3299 13.7925Z" stroke="#808080" stroke-width="1.5" stroke-miterlimit="10" stroke-linecap="round"/>
</svg>
