<svg id="Layer_1" data-name="Layer 1" xmlns="http://www.w3.org/2000/svg" viewBox="0 0 516 205"><defs><style>.cls-1,.cls-2,.cls-3{fill:#f7f7f7;stroke-linecap:round;stroke-linejoin:round;stroke-width:0.5px;}.cls-1{stroke:#646464;}.cls-2{stroke:#f3652b;}.cls-3{stroke:#ccc;}.cls-4{fill:#f3652b;}</style></defs><polyline class="cls-1" points="424.51 174.44 417.64 174.44 398.14 174.44 377.47 174.44 364 174.44"/><polyline class="cls-1" points="459.05 174.44 439.08 174.44 435.05 174.44"/><polyline class="cls-1" points="496.17 174.44 482.45 174.44 475.28 174.44 460.95 174.44"/><line class="cls-1" x1="516" y1="174.44" x2="500.96" y2="174.44"/><circle class="cls-1" cx="448.38" cy="95.78" r="1.54"/><circle class="cls-1" cx="412.07" cy="133.02" r="1.54"/><path class="cls-1" d="M465.2,103.89H442.49"/><path class="cls-1" d="M482.45,94.86a9,9,0,0,1-1.77,5.37,9,9,0,0,1-7.26,3.66h-5.31"/><path class="cls-1" d="M480.92,89.83a8.88,8.88,0,0,1,1.29,3"/><path class="cls-1" d="M451.19,82a8.86,8.86,0,0,1,3.31-.63,9.14,9.14,0,0,1,3,.51,7.34,7.34,0,0,1,2.31-4.2,7.33,7.33,0,0,1,9.42-.36A7.23,7.23,0,0,1,472,83.11a6.88,6.88,0,0,1-.11,1.29,7,7,0,0,1-.5,1.65,9.26,9.26,0,0,1,2-.22,8.9,8.9,0,0,1,5,1.49s1.22.66,1.22-.87V81"/><path class="cls-1" d="M439.08,88.08a8.46,8.46,0,0,1,1.59-.8,8.61,8.61,0,0,1,3.06-.56,8.45,8.45,0,0,1,2.38.34,9.06,9.06,0,0,1,3.67-4.36"/><circle class="cls-1" cx="479.57" cy="80.07" r="1.54"/><path class="cls-1" d="M436.44,89.17a12,12,0,0,1,2.28,3.14,11.67,11.67,0,0,1,1.12,3.47h6.35"/><path class="cls-1" d="M373.63,93A10.5,10.5,0,0,1,376,91a10,10,0,0,1,3.54-1.33,10.2,10.2,0,0,1,1.76-.15,9.59,9.59,0,0,1,1.42.1,9.92,9.92,0,0,1,2.43.66,11.74,11.74,0,0,1,1.42-4.52,11.94,11.94,0,0,1,2.57-3.17,11.79,11.79,0,0,1,11.31-2.32A11.28,11.28,0,0,1,403,81.43a11.52,11.52,0,0,1,2.14,1.67,10.12,10.12,0,0,1,1.9-4.35,10.13,10.13,0,0,1,8.14-4.06,10.15,10.15,0,0,1,5.7,1.74,10.38,10.38,0,0,1,3,3.17,10.24,10.24,0,0,1,1.27,3.24,10.11,10.11,0,0,1,.15,3.15,11.75,11.75,0,0,1,2.67-.3,12,12,0,0,1,7.22,2.4"/><path class="cls-1" d="M371.11,99.73a10.11,10.11,0,0,1,.65-3.58"/><path class="cls-1" d="M373.25,106a10.12,10.12,0,0,1-1.86-3.88"/><path class="cls-1" d="M381.32,109.93a10.16,10.16,0,0,1-3.51-.62,10.34,10.34,0,0,1-3-1.7"/><path class="cls-1" d="M383.21,109.93l6.31,0c2.75,0,17.63,0,21-.05,0,0,1.54,0,1.54,2.23v19.39"/><path class="cls-1" d="M424.35,109.73l-9.47,0c-3.77,0,4.67,0,.59.06"/><path class="cls-1" d="M428,109.72a11.9,11.9,0,0,0,5.42-1.29"/><path class="cls-1" d="M440,97.7a11.93,11.93,0,0,1-1.83,6.38"/><path class="cls-1" d="M492.47,119a1,1,0,0,1,1.93,0s2.92,41.94,2.92,42.55c0,2.13-7.77,2.11-7.77,0C489.55,160.91,492.47,119,492.47,119Z"/><path class="cls-1" d="M498,118.91l0,.25-.12.17a3.88,3.88,0,0,1-6.33,2l-.16-.06-.1-.19a4,4,0,0,1-.87-1.49,3.89,3.89,0,0,1,2.48-4.86l.06,0H493a3.86,3.86,0,0,1,4.92,4.27Z"/><path class="cls-1" d="M495.28,122.07a3.86,3.86,0,0,0,2.59-2.74l.12-.17,3,17.6a1,1,0,0,1-1.84.59l-7.73-16.13.16.06A3.87,3.87,0,0,0,495.28,122.07Z"/><path class="cls-1" d="M507.87,105,498,119.16l0-.25a3.86,3.86,0,0,0-4.92-4.27H493l13.51-10.92A1,1,0,0,1,507.87,105Z"/><path class="cls-1" d="M490.41,119.54a4,4,0,0,0,.87,1.49l.1.19-16.15-5.85a1,1,0,0,1,.39-1.89L493,114.64l-.06,0A3.89,3.89,0,0,0,490.41,119.54Z"/><polygon class="cls-1" points="460.82 120.65 465.71 120.65 467.17 146.31 459.36 146.31 460.82 120.65"/><polygon class="cls-1" points="469.39 125.75 473.31 125.75 474.48 146.31 468.22 146.31 469.39 125.75"/><path class="cls-1" d="M455.28,172.07l-.07-30.48a1.15,1.15,0,0,1,1.73-1l8.47,4.94a1.15,1.15,0,0,0,1.73-1v-3.05a1.15,1.15,0,0,1,1.69-1l9.56,5.15a1.16,1.16,0,0,0,1.7-1v-3.06a1.15,1.15,0,0,1,1.72-1l8.63,5a1.15,1.15,0,0,0,1.72-1l0-2.83a1.14,1.14,0,0,1,1.76-1l8.65,5.49a1.15,1.15,0,0,1,.53,1v24.91"/><line class="cls-1" x1="503.07" y1="169.46" x2="455.28" y2="169.46"/><line class="cls-1" x1="471.35" y1="125.37" x2="471.35" y2="121.92"/><circle class="cls-1" cx="471.35" cy="120.66" r="1.54"/><path class="cls-1" d="M498,172.33V159.12a1,1,0,0,0-1-1H478.13a1,1,0,0,0-1,1v13.21"/><rect class="cls-2" x="467.25" y="155.51" width="5.14" height="5.14" rx="1.26" transform="translate(939.63 316.15) rotate(-180)"/><rect class="cls-1" x="459.35" y="155.51" width="5.14" height="5.14" rx="1.26" transform="translate(923.84 316.15) rotate(-180)"/><path class="cls-1" d="M380.31,142.43a3.68,3.68,0,0,0-1.1,2.63"/><line class="cls-1" x1="387.67" y1="141.34" x2="382.94" y2="141.34"/><line class="cls-1" x1="400.09" y1="141.34" x2="391.17" y2="141.34"/><path class="cls-1" d="M379.21,146.58a3.74,3.74,0,0,0,3.73,3.72"/><path class="cls-1" d="M382.94,159.26a3.73,3.73,0,0,0-3.73,3.72"/><polyline class="cls-1" points="392.67 168.22 398.43 168.22 400.09 168.22"/><line class="cls-1" x1="387.97" y1="168.22" x2="391.17" y2="168.22"/><path class="cls-1" d="M379.21,164.5a3.74,3.74,0,0,0,3.73,3.72h1.31"/><path class="cls-1" d="M386.75,150.3h-3.81a3.73,3.73,0,0,0-3.73,3.72"/><line class="cls-1" x1="397.49" y1="150.33" x2="392.67" y2="150.3"/><line class="cls-1" x1="396.18" y1="159.26" x2="400.09" y2="159.26"/><path class="cls-1" d="M379.28,156.23a3.74,3.74,0,0,0,3.66,3h10.48"/><circle class="cls-1" cx="388.29" cy="150.3" r="1.54"/><path class="cls-1" d="M449,167.29a3.15,3.15,0,0,0,.93-2.23"/><line class="cls-1" x1="442.74" y1="168.22" x2="446.76" y2="168.22"/><line class="cls-1" x1="434.58" y1="168.22" x2="439.77" y2="168.22"/><path class="cls-1" d="M449.92,163.77a3.17,3.17,0,0,0-3.16-3.16"/><path class="cls-1" d="M446.76,153a3.16,3.16,0,0,0,3.16-3.15"/><polyline class="cls-1" points="438.5 145.4 436 145.4 434.58 145.4"/><line class="cls-1" x1="442.49" y1="145.4" x2="439.77" y2="145.4"/><path class="cls-1" d="M449.92,148.56a3.17,3.17,0,0,0-3.16-3.16h-1.11"/><path class="cls-1" d="M443.52,160.61h3.24a3.17,3.17,0,0,0,3.16-3.16"/><line class="cls-1" x1="436.79" y1="160.59" x2="438.5" y2="160.61"/><line class="cls-1" x1="435.52" y1="153" x2="434.58" y2="153"/><path class="cls-1" d="M449.92,156.16a3.17,3.17,0,0,0-3.16-3.16h-8.9"/><circle class="cls-1" cx="441.98" cy="160.42" r="1.54"/><circle class="cls-1" cx="368.81" cy="160.79" r="1.54"/><path class="cls-1" d="M375.18,156.54v1.91s0,2.34-1.92,2.34h-2.91"/><line class="cls-1" x1="375.18" y1="151.38" x2="375.18" y2="153.11"/><line class="cls-1" x1="375.18" y1="146.58" x2="375.18" y2="150.12"/><polyline class="cls-1" points="375.18 139.73 375.18 140.54 375.18 143.74 375.18 145.06"/><path class="cls-1" d="M379.76,127.23h-1.5a3.1,3.1,0,0,0-3.08,3.09v7.54"/><polyline class="cls-1" points="384.72 127.23 382.98 127.23 381.3 127.23"/><polyline class="cls-1" points="390.59 127.23 387.97 127.23 385.93 127.23"/><path class="cls-1" d="M399.08,136.73v-6.41a3.1,3.1,0,0,0-3.08-3.09"/><rect class="cls-2" x="389.93" y="131.88" width="5.14" height="5.14" rx="1.26" transform="translate(785 268.89) rotate(-180)"/><rect class="cls-1" x="378.73" y="131.88" width="5.14" height="5.14" rx="1.26" transform="translate(762.6 268.89) rotate(-180)"/><circle class="cls-1" cx="423.06" cy="160.54" r="1.45"/><circle class="cls-1" cx="412.28" cy="139.09" r="1.45"/><path class="cls-1" d="M410.83,139.09H405.2a4.44,4.44,0,0,0-4.43,4.43"/><line class="cls-1" x1="418.57" y1="139.09" x2="415" y2="139.09"/><path class="cls-1" d="M400.77,145.33a4.44,4.44,0,0,0,4.43,4.43h24.88a4.44,4.44,0,0,0,4.43-4.43v-1.81a4.44,4.44,0,0,0-4.43-4.43H419.69"/><path class="cls-1" d="M400.77,166.66a4.44,4.44,0,0,0,4.43,4.42h24.88a4.44,4.44,0,0,0,4.43-4.42v-1.81a4.44,4.44,0,0,0-4.43-4.43H405.2a4.44,4.44,0,0,0-4.43,4.43"/><path class="cls-1" d="M400.77,156a4.44,4.44,0,0,0,4.43,4.43h24.88a4.44,4.44,0,0,0,4.43-4.43v-1.8a4.44,4.44,0,0,0-4.43-4.43H405.2a4.44,4.44,0,0,0-4.43,4.43"/><rect class="cls-2" x="425.61" y="143.02" width="4.98" height="2.81" rx="1.41" transform="translate(856.21 288.85) rotate(-180)"/><rect class="cls-2" x="425.61" y="153.68" width="4.98" height="2.81" rx="1.41" transform="translate(856.21 310.18) rotate(-180)"/><rect class="cls-3" x="425.61" y="164.47" width="4.98" height="2.81" rx="1.41" transform="translate(856.21 331.76) rotate(-180)"/><path class="cls-1" d="M433,122.92h-6.4a3.1,3.1,0,0,0-3.09,3.09v7.79a1.88,1.88,0,0,1-1.91,2.34H418.7"/><path class="cls-1" d="M444,130.42V126a3.1,3.1,0,0,0-3.09-3.09h-5.88"/><line class="cls-1" x1="444.02" y1="134.44" x2="444.02" y2="133.32"/><polyline class="cls-1" points="444.02 143.26 444.02 140.54 444.02 139.51 444.02 138.59 444.02 135.98"/><rect class="cls-3" x="435.34" y="127.57" width="5.14" height="5.14" rx="1.26" transform="translate(875.82 260.27) rotate(-180)"/><rect class="cls-1" x="427.08" y="127.57" width="5.14" height="5.14" rx="1.26" transform="translate(859.29 260.27) rotate(-180)"/><circle class="cls-1" cx="417.09" cy="136.18" r="1.54"/><path class="cls-1" d="M338.94,50.64a12.51,12.51,0,0,0-5.4,1.21,14.47,14.47,0,0,0-1-2,15.46,15.46,0,0,0-5-5.14A15.28,15.28,0,0,0,305,52.57a15.05,15.05,0,0,0-.85,4.81,17.33,17.33,0,0,0-4.64-.65"/><path class="cls-1" d="M361.81,67.54a12.21,12.21,0,0,0-11,.53,12.36,12.36,0,0,0,.88-4.64,13,13,0,0,0-.48-3.49,12.7,12.7,0,0,0-2.19-4.34,12.89,12.89,0,0,0-3.58-3.16"/><path class="cls-1" d="M325.73,91h31.12a12.27,12.27,0,0,0,4.67-.92,11.53,11.53,0,0,0,2.08-1.11,12.19,12.19,0,0,0,5.49-10.21,12.58,12.58,0,0,0-.23-2.39,12.17,12.17,0,0,0-2.36-5.14"/><path class="cls-1" d="M315.54,91h3"/><path class="cls-1" d="M284.19,81.55a17.2,17.2,0,0,0,1.95,3,16.88,16.88,0,0,0,5.62,4.55A17.07,17.07,0,0,0,299.48,91H302"/><path class="cls-1" d="M283.94,66.65a17.16,17.16,0,0,0-1.58,7.2,16.81,16.81,0,0,0,.67,4.74"/><path class="cls-1" d="M294.72,57.4a17.06,17.06,0,0,0-7,4"/><circle class="cls-2" cx="408.37" cy="154.99" r="1.54"/><line class="cls-2" x1="399.6" y1="154.99" x2="406.82" y2="154.99"/><line class="cls-2" x1="386.69" y1="154.99" x2="395.82" y2="154.99"/><path class="cls-2" d="M366.68,145.05v2.36s-.38,7.58,7.58,7.58h10"/><path class="cls-2" d="M353.18,120.74h5.28c8.8,0,8.22,8.22,8.22,8.22"/><line class="cls-1" x1="161.62" y1="158.85" x2="161.62" y2="155.39"/><circle class="cls-1" cx="161.62" cy="153.85" r="1.54"/><circle class="cls-1" cx="144.85" cy="179.38" r="2.87"/><circle class="cls-1" cx="165.07" cy="177.13" r="5.16"/><path class="cls-1" d="M170.79,170.9a7.67,7.67,0,0,1,1.92,2.71"/><path class="cls-1" d="M166.24,168.78a8.62,8.62,0,0,1,2.31.64l.7.35c.19.11.38.22.55.34"/><path class="cls-1" d="M162.19,169.18a7,7,0,0,1,1.61-.42,8.67,8.67,0,0,1,1-.07"/><path class="cls-1" d="M159.91,170.62a5.73,5.73,0,0,1,.52-.44"/><path class="cls-1" d="M150.61,169.37l1.4-.19,1.38-.18,1.71-.22s2.63-.56,2.63,1.55v3.32a6.63,6.63,0,0,1,.49-1,8.5,8.5,0,0,1,.49-.74"/><path class="cls-1" d="M148.36,169.68l1-.14"/><path class="cls-1" d="M142.87,172.25a7.18,7.18,0,0,1,1.23-1.71,2.74,2.74,0,0,1,.75-.3c.41-.1,1.42-.26,2.66-.44"/><path class="cls-1" d="M141.67,174.42c.1-.19.2-.39.31-.58.19-.36.39-.71.58-1"/><path class="cls-1" d="M142,179.39h-2.45a5.44,5.44,0,0,1,.47-1.49c.18-.42.39-.88.62-1.38"/><line class="cls-1" x1="152.68" y1="179.38" x2="160.43" y2="179.38"/><line class="cls-1" x1="149.2" y1="179.38" x2="151.47" y2="179.38"/><line class="cls-1" x1="157.17" y1="169.07" x2="158.27" y2="168.31"/><line class="cls-1" x1="157.72" y1="167.61" x2="158.72" y2="168.85"/><polyline class="cls-1" points="154.37 166.52 154.15 167.19 154.06 167.47"/><polyline class="cls-1" points="155.28 163.75 154.92 164.84 154.66 165.65"/><path class="cls-1" d="M167.93,169.18l-1.3-9.62a.75.75,0,0,0-.75-.65h-9.81a.75.75,0,0,0-.71.51l0,.07a.75.75,0,0,0,.37.91h0a.75.75,0,0,1,.38.9l-.4,1.21"/><path class="cls-1" d="M76.57,136.6a3.75,3.75,0,0,1,1.09,2.63"/><line class="cls-1" x1="69.21" y1="135.51" x2="73.94" y2="135.51"/><line class="cls-1" x1="56.79" y1="135.51" x2="65.7" y2="135.51"/><path class="cls-1" d="M77.66,140.75a3.73,3.73,0,0,1-3.72,3.72"/><path class="cls-1" d="M70.13,144.47h3.81a3.73,3.73,0,0,1,3.72,3.72"/><line class="cls-1" x1="59.39" y1="144.5" x2="64.21" y2="144.47"/><circle class="cls-1" cx="68.58" cy="144.47" r="1.54"/><path class="cls-1" d="M7.88,161.47A3.19,3.19,0,0,1,7,159.23"/><line class="cls-1" x1="11.89" y1="162.39" x2="10.12" y2="162.39"/><path class="cls-1" d="M7,158a3.17,3.17,0,0,1,3.16-3.16"/><path class="cls-1" d="M10.12,147.18A3.17,3.17,0,0,1,7,144"/><polyline class="cls-1" points="18.38 139.57 20.88 139.57 22.29 139.57"/><line class="cls-1" x1="14.39" y1="139.57" x2="17.11" y2="139.57"/><path class="cls-1" d="M7,142.73a3.17,3.17,0,0,1,3.16-3.16h1.11"/><path class="cls-1" d="M13.35,154.79H10.12A3.17,3.17,0,0,1,7,151.63"/><line class="cls-1" x1="20.08" y1="154.76" x2="18.38" y2="154.79"/><line class="cls-1" x1="21.36" y1="147.18" x2="22.29" y2="147.18"/><path class="cls-1" d="M7,150.34a3.17,3.17,0,0,1,3.16-3.16H19"/><circle class="cls-1" cx="14.9" cy="154.6" r="1.54"/><path class="cls-1" d="M92.7,127.33V114a3.1,3.1,0,0,0-3.09-3.09H75.7A3.1,3.1,0,0,0,72.61,114v5.51"/><circle class="cls-1" cx="89.32" cy="154.97" r="1.54"/><path class="cls-1" d="M81.7,149.71v2.91s0,2.35,1.92,2.35h2.91"/><line class="cls-1" x1="81.7" y1="145.55" x2="81.7" y2="147.28"/><line class="cls-1" x1="81.7" y1="140.75" x2="81.7" y2="144.3"/><polyline class="cls-1" points="81.7 133.91 81.7 134.72 81.7 137.92 81.7 139.23"/><path class="cls-1" d="M77.12,121.41h1.49a3.1,3.1,0,0,1,3.09,3.08V132"/><polyline class="cls-1" points="72.16 121.41 73.89 121.41 75.58 121.41"/><polyline class="cls-1" points="66.28 121.41 68.91 121.41 70.95 121.41"/><path class="cls-1" d="M57.79,130.9v-6.41a3.1,3.1,0,0,1,3.09-3.08"/><rect class="cls-2" x="61.81" y="126.05" width="5.14" height="5.14" rx="1.26"/><rect class="cls-2" x="73.01" y="126.05" width="5.14" height="5.14" rx="1.26"/><circle class="cls-1" cx="44.6" cy="133.27" r="1.45"/><path class="cls-1" d="M46,133.27h5.64a4.44,4.44,0,0,1,4.43,4.43"/><line class="cls-1" x1="38.31" y1="133.27" x2="41.88" y2="133.27"/><path class="cls-1" d="M56.11,139.5a4.44,4.44,0,0,1-4.43,4.43H26.79a4.44,4.44,0,0,1-4.43-4.43v-1.8a4.44,4.44,0,0,1,4.43-4.43h10.4"/><path class="cls-1" d="M24,153.62a4.4,4.4,0,0,1-1.67-3.45v-1.81a4.44,4.44,0,0,1,4.43-4.43H51.68a4.45,4.45,0,0,1,3.93,2.4"/><rect class="cls-3" x="26.28" y="137.19" width="4.98" height="2.81" rx="1.41"/><rect class="cls-3" x="26.28" y="147.86" width="4.98" height="2.81" rx="1.41"/><path class="cls-1" d="M23.87,117.1h6.4a3.1,3.1,0,0,1,3.08,3.09V128a1.88,1.88,0,0,0,1.92,2.35h2.91"/><path class="cls-1" d="M12.86,124.59v-4.4A3.1,3.1,0,0,1,16,117.1h5.88"/><line class="cls-1" x1="12.86" y1="128.62" x2="12.86" y2="127.49"/><polyline class="cls-1" points="12.86 137.43 12.86 134.72 12.86 133.69 12.86 132.77 12.86 130.15"/><rect class="cls-1" x="16.4" y="121.74" width="5.14" height="5.14" rx="1.26"/><rect class="cls-3" x="24.66" y="121.74" width="5.14" height="5.14" rx="1.26"/><circle class="cls-1" cx="39.79" cy="130.35" r="1.54"/><path class="cls-1" d="M120.38,113.18h2.34m-9.48-.58a13.63,13.63,0,0,0,3.9.58M103.7,99.74a13.86,13.86,0,0,0,.3,2.83,13.37,13.37,0,0,0,1.81,4.39M149,91.26a13.64,13.64,0,0,0-1.36-2,14.67,14.67,0,0,0-4.4-3.7,10.45,10.45,0,0,0-3.3-9.59,10.54,10.54,0,0,0-7-2.71,10.51,10.51,0,0,0-9.73,14.46,13.3,13.3,0,0,0-6-1.42,13.45,13.45,0,0,0-12.29,8,12.34,12.34,0,0,0-.5,1.32m52.89-8.76a8.37,8.37,0,0,0-1.34,1.62,7.92,7.92,0,0,0-.72,1.46,8.25,8.25,0,0,0-.46,1.87,10.82,10.82,0,0,0-3.87-.72m27.48,19.16a9.67,9.67,0,0,0,1.76-2.52,9.63,9.63,0,0,0-7-13.66,9.15,9.15,0,0,0-1.66-.15c-.22,0-.42,0-.63,0a9.08,9.08,0,0,0,.09-1.17,8.1,8.1,0,0,0-8.11-8.11m10,28.41c.33,0,.65-.11,1-.19a9.62,9.62,0,0,0,3.61-1.78m-7.79,2.07h1.83m-42,0h37.74"/><rect class="cls-2" x="138.73" y="25.76" width="185.75" height="115.66" rx="8.69" transform="translate(-14.58 79.07) rotate(-18.79)"/><rect class="cls-2" x="132.96" y="53.52" width="185.75" height="26.26" transform="translate(-9.43 76.31) rotate(-18.79)"/><path class="cls-2" d="M243.27,202.42h-60a8,8,0,0,1-8-8V94.76a8,8,0,0,1,8-8H353.06a8,8,0,0,1,8,8v23.92"/><path class="cls-2" d="M361.06,123.92v70.5a8,8,0,0,1-8,8H242.33"/><rect class="cls-2" x="308.65" y="111.91" width="35.03" height="35.39" rx="3.53"/><rect class="cls-2" x="315.36" y="118.68" width="21.61" height="21.83" rx="3.53"/><line class="cls-2" x1="311.37" y1="111.91" x2="311.37" y2="107.86"/><line class="cls-2" x1="317.2" y1="111.91" x2="317.2" y2="107.86"/><line class="cls-2" x1="323.03" y1="111.91" x2="323.03" y2="107.86"/><line class="cls-2" x1="328.87" y1="111.91" x2="328.87" y2="107.86"/><line class="cls-2" x1="334.7" y1="111.91" x2="334.7" y2="107.86"/><line class="cls-2" x1="340.53" y1="111.91" x2="340.53" y2="107.86"/><line class="cls-2" x1="311.37" y1="151.34" x2="311.37" y2="147.3"/><line class="cls-2" x1="317.2" y1="151.34" x2="317.2" y2="147.3"/><line class="cls-2" x1="323.03" y1="151.34" x2="323.03" y2="147.3"/><line class="cls-2" x1="328.87" y1="151.34" x2="328.87" y2="147.3"/><line class="cls-2" x1="334.7" y1="151.34" x2="334.7" y2="147.3"/><line class="cls-2" x1="340.53" y1="151.34" x2="340.53" y2="147.3"/><line class="cls-2" x1="304.58" y1="114.91" x2="308.63" y2="114.91"/><line class="cls-2" x1="304.58" y1="120.74" x2="308.63" y2="120.74"/><line class="cls-2" x1="304.58" y1="126.57" x2="308.63" y2="126.57"/><line class="cls-2" x1="304.58" y1="132.41" x2="308.63" y2="132.41"/><line class="cls-2" x1="304.58" y1="138.24" x2="308.63" y2="138.24"/><line class="cls-2" x1="304.58" y1="144.07" x2="308.63" y2="144.07"/><line class="cls-2" x1="343.76" y1="114.91" x2="347.8" y2="114.91"/><line class="cls-2" x1="343.76" y1="120.74" x2="347.8" y2="120.74"/><line class="cls-2" x1="343.76" y1="126.57" x2="347.8" y2="126.57"/><line class="cls-2" x1="343.76" y1="132.41" x2="347.8" y2="132.41"/><line class="cls-2" x1="343.76" y1="138.24" x2="347.8" y2="138.24"/><line class="cls-2" x1="343.76" y1="144.07" x2="347.8" y2="144.07"/><polygon class="cls-2" points="319.26 135.41 319.62 133.61 331.34 123.92 332.92 123.92 330.85 135.41 328.51 135.41 329.95 127.93 321.05 135.41 319.26 135.41"/><line class="cls-2" x1="366.68" y1="134.85" x2="366.68" y2="142.63"/><circle class="cls-2" cx="312.45" cy="74.75" r="2.62"/><path class="cls-2" d="M312.45,79.58V77.5"/><path class="cls-2" d="M312.45,83.59V81.33"/><path class="cls-2" d="M317.23,97.22a4.49,4.49,0,0,1-4.78-4.78V89.86"/><path class="cls-2" d="M318.88,97.22H325a3.36,3.36,0,0,1,3.74,3.68V106"/><line class="cls-2" x1="299.48" y1="126.57" x2="302.49" y2="126.57"/><path class="cls-2" d="M287.49,115.29v2.47s-.44,8.81,9,8.81"/><path class="cls-2" d="M265.64,99.78H277s10.51-.72,10.51,10.13"/><circle class="cls-2" cx="263.7" cy="99.77" r="1.94"/><path class="cls-2" d="M298.86,144.32h-5.27c-8.81,0-8.23,8.23-8.23,8.23"/><line class="cls-1" x1="63.92" y1="179.31" x2="56.24" y2="179.31"/><path class="cls-1" d="M19.57,163.31l-2.05,1c-3,1.45-4,2.56-4,4.75v6.23a4,4,0,0,0,4,4h6.34"/><line class="cls-1" x1="30.34" y1="157.87" x2="20.92" y2="162.64"/><path class="cls-1" d="M30.23,179.31h1.44a4,4,0,0,0,4-4V161.18c0-2.19-.07-3.51-2.21-4"/><path class="cls-1" d="M38.21,175.4a4,4,0,0,0,4,4h3.09"/><path class="cls-1" d="M46.36,153.3H42.19a4,4,0,0,0-4,4V170.1s.3,1.92-2.56,1.92"/><path class="cls-1" d="M77.49,158.5v-1.22a4,4,0,0,0-4-4H48.41"/><polyline class="cls-1" points="77.49 171.65 77.49 168.58 77.49 166.34"/><path class="cls-1" d="M68.43,179.38h5.08a4,4,0,0,0,4-4"/><circle class="cls-1" cx="24.59" cy="179.31" r="3.23"/><circle class="cls-1" cx="47.27" cy="179.31" r="3.23"/><circle class="cls-1" cx="65.91" cy="179.31" r="3.23"/><polyline class="cls-1" points="10.12 174.44 6.93 174.44 3.62 174.44 0 174.44"/><polyline class="cls-1" points="125.25 174.44 103.11 174.44 90.04 174.44 80.47 174.44"/><line class="cls-1" x1="139.41" y1="174.44" x2="131.75" y2="174.44"/><line class="cls-1" x1="110.27" y1="121.71" x2="110.27" y2="125.4"/><path class="cls-1" d="M121.51,115.55h-8.16a3.1,3.1,0,0,0-3.08,3.09v1.92"/><path class="cls-1" d="M131.75,125.05v-6.41a3.1,3.1,0,0,0-3.09-3.09h-5.53"/><line class="cls-1" x1="131.75" y1="128.36" x2="131.75" y2="125.84"/><line class="cls-1" x1="131.75" y1="140.63" x2="131.75" y2="129.1"/><rect class="cls-1" x="115.11" y="121.95" width="5.14" height="5.14" rx="1.26"/><rect class="cls-2" x="115.11" y="129.1" width="5.14" height="5.14" rx="1.26"/><rect class="cls-3" x="122.68" y="121.95" width="5.14" height="5.14" rx="1.26"/><circle class="cls-1" cx="131.75" cy="142.62" r="1.54"/><path class="cls-1" d="M138.87,171.38V155.56a4.43,4.43,0,0,0-2.12-3.78L120.87,142a4.47,4.47,0,0,0-4.65,0L99.59,152.12a4.46,4.46,0,0,0-2.13,3.8v15.46"/><path class="cls-1" d="M131.65,171.38V156.29a1,1,0,0,0-1-1H106.48a1,1,0,0,0-1,1v15.09"/><line class="cls-1" x1="131.65" y1="157.81" x2="105.44" y2="157.81"/><line class="cls-1" x1="131.65" y1="160.66" x2="105.44" y2="160.66"/><line class="cls-1" x1="131.65" y1="163.51" x2="105.44" y2="163.51"/><line class="cls-1" x1="131.65" y1="166.36" x2="105.44" y2="166.36"/><line class="cls-1" x1="131.65" y1="169.21" x2="105.44" y2="169.21"/><polyline class="cls-1" points="97.97 118.37 97.97 121.7 97.97 124.05"/><polyline class="cls-1" points="97.97 115.06 97.97 116.52 97.97 117.36"/><path class="cls-1" d="M113.24,109.21v-1.95a3.1,3.1,0,0,0-3.09-3.08h-9.1c-1.69,0-3.08,1.39-3.08,3.82v5.64"/><line class="cls-1" x1="113.24" y1="113.5" x2="113.24" y2="111.83"/><circle class="cls-1" cx="97.97" cy="125.79" r="1.54"/><rect class="cls-3" x="103.03" y="107.96" width="5.14" height="5.14" rx="1.26" transform="translate(211.21 221.05) rotate(180)"/><circle class="cls-1" cx="91.21" cy="140.35" r="1.54"/><path class="cls-1" d="M91.3,138.52v-6.39a2.22,2.22,0,0,1,2.21-2.21h17.11a2.23,2.23,0,0,1,2.22,2.21v8.74"/><rect class="cls-2" x="95.22" y="133.41" width="5.14" height="5.14" rx="1.26" transform="translate(195.58 271.97) rotate(180)"/><rect class="cls-3" x="95.22" y="141.18" width="5.14" height="5.14" rx="1.26" transform="translate(195.58 287.49) rotate(180)"/><rect class="cls-2" x="103.65" y="133.41" width="5.14" height="5.14" rx="1.26" transform="translate(212.45 271.97) rotate(180)"/><line class="cls-1" x1="118.55" y1="141.07" x2="118.55" y2="138.91"/><circle class="cls-1" cx="118.55" cy="137.65" r="1.54"/><circle class="cls-2" cx="285.37" cy="154.85" r="2.3"/><path class="cls-4" d="M195,175a5.76,5.76,0,0,1-.82,3.37,3.08,3.08,0,0,1-4.77,0,5.63,5.63,0,0,1-.85-3.28v-1.87a5.67,5.67,0,0,1,.82-3.35,3.12,3.12,0,0,1,4.77,0,5.53,5.53,0,0,1,.85,3.23Zm-.87-1.87a5.12,5.12,0,0,0-.58-2.72,2.17,2.17,0,0,0-3.53,0,5,5,0,0,0-.6,2.65v2.06a5.18,5.18,0,0,0,.6,2.74,2,2,0,0,0,1.77.95,1.92,1.92,0,0,0,1.74-.93,5.06,5.06,0,0,0,.6-2.72Z"/><path class="cls-4" d="M200.85,179.39H200V170l-2.85,1v-.8l3.57-1.33h.14Z"/><path class="cls-4" d="M211.32,175a5.84,5.84,0,0,1-.81,3.37,3.09,3.09,0,0,1-4.78,0,5.63,5.63,0,0,1-.85-3.28v-1.87a5.75,5.75,0,0,1,.82-3.35,3.12,3.12,0,0,1,4.77,0,5.46,5.46,0,0,1,.85,3.23Zm-.86-1.87a5.11,5.11,0,0,0-.59-2.72,2.17,2.17,0,0,0-3.53,0,5,5,0,0,0-.6,2.65v2.06a5.08,5.08,0,0,0,.61,2.74,2.11,2.11,0,0,0,3.51,0,5.25,5.25,0,0,0,.6-2.72Z"/><path class="cls-4" d="M217.17,179.39h-.86V170l-2.85,1v-.8l3.57-1.33h.14Z"/><path class="cls-4" d="M232.5,179.39h-.87V170l-2.84,1v-.8l3.56-1.33h.15Z"/><path class="cls-4" d="M243,175a5.76,5.76,0,0,1-.82,3.37,3.08,3.08,0,0,1-4.77,0,5.56,5.56,0,0,1-.85-3.28v-1.87a5.67,5.67,0,0,1,.82-3.35,2.75,2.75,0,0,1,2.39-1.13,2.79,2.79,0,0,1,2.38,1.09,5.53,5.53,0,0,1,.85,3.23Zm-.87-1.87a5.12,5.12,0,0,0-.58-2.72,2.17,2.17,0,0,0-3.53,0,5,5,0,0,0-.6,2.65v2.06a5.18,5.18,0,0,0,.6,2.74,2,2,0,0,0,1.77.95,1.92,1.92,0,0,0,1.74-.93,5.06,5.06,0,0,0,.6-2.72Z"/><path class="cls-4" d="M248.82,179.39H248V170l-2.85,1v-.8l3.57-1.33h.14Z"/><path class="cls-4" d="M259.29,175a5.84,5.84,0,0,1-.81,3.37,3.09,3.09,0,0,1-4.78,0,5.63,5.63,0,0,1-.85-3.28v-1.87a5.75,5.75,0,0,1,.82-3.35,3.12,3.12,0,0,1,4.77,0,5.46,5.46,0,0,1,.85,3.23Zm-.86-1.87a5.11,5.11,0,0,0-.59-2.72,2.17,2.17,0,0,0-3.53,0,5,5,0,0,0-.6,2.65v2.06a5.08,5.08,0,0,0,.61,2.74,2.11,2.11,0,0,0,3.51,0,5.25,5.25,0,0,0,.6-2.72Z"/><path class="cls-4" d="M275.88,179.39H275V170l-2.85,1v-.8l3.57-1.33h.14Z"/><path class="cls-4" d="M284.05,179.39h-.87V170l-2.84,1v-.8l3.56-1.33h.15Z"/><path class="cls-4" d="M294.52,175a5.76,5.76,0,0,1-.82,3.37,3.08,3.08,0,0,1-4.77,0,5.56,5.56,0,0,1-.85-3.28v-1.87a5.67,5.67,0,0,1,.82-3.35,2.75,2.75,0,0,1,2.39-1.13,2.79,2.79,0,0,1,2.38,1.09,5.53,5.53,0,0,1,.85,3.23Zm-.87-1.87a5.12,5.12,0,0,0-.58-2.72,2.17,2.17,0,0,0-3.53,0,5,5,0,0,0-.6,2.65v2.06a5.18,5.18,0,0,0,.6,2.74,2,2,0,0,0,1.77.95,1.92,1.92,0,0,0,1.74-.93,5.06,5.06,0,0,0,.6-2.72Z"/><path class="cls-4" d="M302.68,175a5.76,5.76,0,0,1-.82,3.37,3.08,3.08,0,0,1-4.77,0,5.63,5.63,0,0,1-.85-3.28v-1.87a5.67,5.67,0,0,1,.82-3.35,3.12,3.12,0,0,1,4.77,0,5.46,5.46,0,0,1,.85,3.23Zm-.87-1.87a5.12,5.12,0,0,0-.58-2.72,2.17,2.17,0,0,0-3.53,0,5,5,0,0,0-.6,2.65v2.06a5.18,5.18,0,0,0,.6,2.74,2,2,0,0,0,1.77.95,1.92,1.92,0,0,0,1.74-.93,5.06,5.06,0,0,0,.6-2.72Z"/><path class="cls-4" d="M321.58,175a5.84,5.84,0,0,1-.81,3.37,2.75,2.75,0,0,1-2.4,1.14,2.79,2.79,0,0,1-2.38-1.12,5.56,5.56,0,0,1-.84-3.28v-1.87a5.67,5.67,0,0,1,.82-3.35,3.11,3.11,0,0,1,4.76,0,5.46,5.46,0,0,1,.85,3.23Zm-.86-1.87a5.11,5.11,0,0,0-.59-2.72,2.16,2.16,0,0,0-3.52,0,4.87,4.87,0,0,0-.61,2.65v2.06a5.08,5.08,0,0,0,.61,2.74,2.11,2.11,0,0,0,3.51,0,5.25,5.25,0,0,0,.6-2.72Z"/><path class="cls-4" d="M329.74,175a5.84,5.84,0,0,1-.81,3.37,3.08,3.08,0,0,1-4.77,0,5.49,5.49,0,0,1-.85-3.28v-1.87a5.67,5.67,0,0,1,.82-3.35,3.11,3.11,0,0,1,4.76,0,5.46,5.46,0,0,1,.85,3.23Zm-.86-1.87a5.11,5.11,0,0,0-.59-2.72,2.16,2.16,0,0,0-3.52,0,4.87,4.87,0,0,0-.61,2.65v2.06a5.17,5.17,0,0,0,.61,2.74,2,2,0,0,0,1.77.95,2,2,0,0,0,1.74-.93,5.06,5.06,0,0,0,.6-2.72Z"/><path class="cls-4" d="M335.6,179.39h-.87V170l-2.84,1v-.8l3.56-1.33h.15Z"/><path class="cls-4" d="M343.76,179.39h-.87V170l-2.84,1v-.8l3.56-1.33h.15Z"/></svg>
