<svg id="Layer_1" data-name="Layer 1" xmlns="http://www.w3.org/2000/svg" viewBox="0 0 519.97 232.87"><defs><style>.cls-1,.cls-2,.cls-3,.cls-5{fill:#fff;}.cls-1,.cls-4{stroke:#646464;}.cls-1,.cls-4,.cls-5{stroke-miterlimit:10;}.cls-1,.cls-2,.cls-4,.cls-5{stroke-width:0.5px;}.cls-2,.cls-5{stroke:#f3652b;}.cls-2{stroke-linecap:round;stroke-linejoin:round;}.cls-4{fill:none;}.cls-6{fill:#646464;}.cls-7{fill:#f3652b;}</style></defs><path class="cls-1" d="M247,162v3h0a1.58,1.58,0,0,1-1.58,1.58h-2.16"/><line class="cls-1" x1="246.97" y1="159.02" x2="246.97" y2="161.19"/><polyline class="cls-1" points="246.97 152.88 246.97 153.91 246.97 157.06"/><path class="cls-1" d="M246.76,145.42a1.53,1.53,0,0,1,.21.77v4.2"/><path class="cls-1" d="M239,162v3h0a1.58,1.58,0,0,0,1.58,1.58h2.16"/><line class="cls-1" x1="239" y1="157.05" x2="239" y2="161.19"/><polyline class="cls-1" points="239 155.89 239 153.91 239 155.89"/><path class="cls-1" d="M239.2,145.42a1.52,1.52,0,0,0-.2.77v5.6"/><path class="cls-1" d="M245,142.83v1.78h.38a1.59,1.59,0,0,1,1,.37"/><line class="cls-1" x1="245.01" y1="126.45" x2="245.01" y2="142.19"/><line class="cls-1" x1="245.01" y1="122.56" x2="245.01" y2="123.89"/><polyline class="cls-1" points="245.01 113.89 245.01 114.86 245.01 119.84"/><polyline class="cls-1" points="250.01 102.07 248.46 102.07 248.06 102.07"/><polyline class="cls-1" points="243.78 102.09 242.24 102.09 242.65 102.09"/><line class="cls-1" x1="248.06" y1="99.8" x2="250.82" y2="99.8"/><line class="cls-1" x1="241.57" y1="99.8" x2="243.29" y2="99.8"/><line class="cls-1" x1="235.09" y1="99.8" x2="236.09" y2="99.8"/><line class="cls-1" x1="236.88" y1="102.07" x2="235.09" y2="102.07"/><line class="cls-1" x1="240.87" y1="110.47" x2="240.87" y2="109.47"/><line class="cls-1" x1="240.87" y1="113.91" x2="240.87" y2="111.62"/><line class="cls-1" x1="240.87" y1="118.38" x2="240.87" y2="113.73"/><line class="cls-1" x1="240.87" y1="139.79" x2="240.87" y2="126.9"/><polyline class="cls-1" points="240.5 144.61 240.87 144.61 240.87 141.13"/><path class="cls-1" d="M254.94,94.64v-3.8a.71.71,0,0,0-.71-.72h-2.7a.71.71,0,0,0-.71.72v9.4"/><polyline class="cls-1" points="254.94 102.51 254.94 100.57 254.94 96.06"/><path class="cls-1" d="M250.82,102.7v8.92a.82.82,0,0,0,.86.87h2.59a.64.64,0,0,0,.67-.68v-6.38"/><polyline class="cls-1" points="243.94 91.32 243.94 94 243.94 96.58 243.94 98.92 243.94 102.51 243.94 104.36"/><path class="cls-1" d="M248.06,96.48v-8.6a.72.72,0,0,0-.72-.72h-2.69a.71.71,0,0,0-.71.72v2"/><path class="cls-1" d="M248.06,97.81v11s-.14.7-1.23.7"/><path class="cls-1" d="M243.94,107.06v1.69c0,.4.19.72.58.72"/><line class="cls-1" x1="241.57" y1="104.56" x2="241.57" y2="93.14"/><path class="cls-1" d="M237.45,104.36v4.39a.71.71,0,0,0,.71.72h2.7a.71.71,0,0,0,.71-.72v-3.08"/><line class="cls-1" x1="237.45" y1="100.57" x2="237.45" y2="102.7"/><polyline class="cls-1" points="237.45 93.89 237.45 95.18 237.45 98.85"/><path class="cls-1" d="M241.57,92.43V87.88a.71.71,0,0,0-.71-.72h-2.7a.71.71,0,0,0-.71.72v5.26"/><path class="cls-1" d="M235.09,90.84a.72.72,0,0,0-.72-.72h-2.69a.72.72,0,0,0-.72.72v5.64"/><line class="cls-1" x1="235.09" y1="105.43" x2="235.09" y2="92.37"/><path class="cls-1" d="M231,97.81v13.9a.72.72,0,0,0,.72.72h2.69a.72.72,0,0,0,.72-.72V106.3"/><line class="cls-1" x1="240.87" y1="125.19" x2="240.87" y2="122.92"/><line class="cls-1" x1="319.08" y1="155.32" x2="323.68" y2="155.32"/><circle class="cls-1" cx="326.51" cy="151.39" r="1.19"/><circle class="cls-1" cx="367.81" cy="156.13" r="1.19"/><line class="cls-1" x1="376.1" y1="169.28" x2="516.56" y2="169.28"/><line class="cls-1" x1="370.33" y1="169.28" x2="372.43" y2="169.28"/><line class="cls-1" x1="348.59" y1="169.28" x2="368.9" y2="169.28"/><line class="cls-1" x1="293.59" y1="169.28" x2="305.98" y2="169.28"/><line class="cls-1" x1="265.23" y1="169.28" x2="292.24" y2="169.28"/><line class="cls-1" x1="256.45" y1="169.28" x2="261.77" y2="169.28"/><line class="cls-1" x1="238.51" y1="169.28" x2="254.31" y2="169.28"/><line class="cls-1" x1="222.21" y1="169.28" x2="235.93" y2="169.28"/><line class="cls-1" x1="120.92" y1="169.28" x2="193.25" y2="169.28"/><line class="cls-1" x1="90.02" y1="169.28" x2="119.45" y2="169.28"/><line class="cls-1" x1="3.28" y1="169.28" x2="86.25" y2="169.28"/><line class="cls-1" x1="319.08" y1="157.54" x2="319.08" y2="151.61"/><circle class="cls-1" cx="319.08" cy="150.42" r="1.19"/><line class="cls-1" x1="316.03" y1="173.11" x2="320.62" y2="173.11"/><path class="cls-1" d="M342.58,163.53l1.23.62c1.79.87,2.38,1.54,2.38,2.85v3.73a2.39,2.39,0,0,1-2.38,2.38H340"/><line class="cls-1" x1="336.13" y1="160.27" x2="341.77" y2="163.13"/><path class="cls-1" d="M336.2,173.11h-.86a2.39,2.39,0,0,1-2.38-2.38v-8.47c0-1.31,0-2.1,1.32-2.39"/><path class="cls-1" d="M331.42,170.77a2.39,2.39,0,0,1-2.38,2.39h-1.85"/><path class="cls-1" d="M326.54,157.54H329a2.39,2.39,0,0,1,2.38,2.38v7.67s-.18,1.16,1.54,1.16"/><path class="cls-1" d="M307.9,162.48v-2.56a2.39,2.39,0,0,1,2.39-2.38h15"/><polyline class="cls-1" points="307.9 168.53 307.9 166.69 307.9 165.35"/><path class="cls-1" d="M313.33,173.16h-3a2.4,2.4,0,0,1-2.39-2.39"/><circle class="cls-1" cx="339.57" cy="173.11" r="1.93"/><circle class="cls-1" cx="325.99" cy="173.11" r="1.93"/><circle class="cls-1" cx="314.84" cy="173.11" r="1.93"/><circle class="cls-1" cx="266.96" cy="158.55" r="1.12"/><circle class="cls-1" cx="258.64" cy="141.98" r="1.12"/><path class="cls-1" d="M257.52,142h-4.35a3.43,3.43,0,0,0-3.42,3.42"/><line class="cls-1" x1="263.49" y1="141.98" x2="260.74" y2="141.98"/><path class="cls-1" d="M249.75,146.79a3.43,3.43,0,0,0,3.42,3.42h19.22a3.43,3.43,0,0,0,3.42-3.42V145.4a3.43,3.43,0,0,0-3.42-3.42h-8"/><path class="cls-1" d="M249.75,163.27a3.43,3.43,0,0,0,3.42,3.42h19.22a3.43,3.43,0,0,0,3.42-3.42v-1.4a3.43,3.43,0,0,0-3.42-3.42H253.17a3.43,3.43,0,0,0-3.42,3.42"/><path class="cls-1" d="M249.75,155a3.43,3.43,0,0,0,3.42,3.42h19.22a3.43,3.43,0,0,0,3.42-3.42v-1.4a3.43,3.43,0,0,0-3.42-3.42H253.17a3.43,3.43,0,0,0-3.42,3.42"/><rect class="cls-1" x="268.93" y="145.01" width="3.85" height="2.17" rx="1.09" transform="translate(541.72 292.19) rotate(-180)"/><rect class="cls-1" x="268.93" y="153.24" width="3.85" height="2.17" rx="1.09" transform="translate(541.72 308.66) rotate(180)"/><rect class="cls-1" x="268.93" y="161.58" width="3.85" height="2.17" rx="1.09" transform="translate(541.72 325.33) rotate(180)"/><circle class="cls-1" cx="192.06" cy="150.36" r="1.19"/><line class="cls-1" x1="195.33" y1="150.36" x2="193.25" y2="150.36"/><line class="cls-1" x1="199.03" y1="150.36" x2="196.41" y2="150.36"/><path class="cls-1" d="M204.78,147.51v.68a2,2,0,0,1-2.18,2.17h-2.88"/><line class="cls-1" x1="204.78" y1="144.58" x2="204.78" y2="146.81"/><path class="cls-1" d="M208.65,140.86h-1.51a2.18,2.18,0,0,0-2.36,2.36"/><path class="cls-1" d="M214.72,129.58v10.8a2.09,2.09,0,0,0,2.09,2.09h10.8a2.1,2.1,0,0,0,2.09-2.09v-10.8a2.1,2.1,0,0,0-2.09-2.09h-10.8A2.09,2.09,0,0,0,214.72,129.58Zm.16,0a1.93,1.93,0,0,1,1.93-1.92h10.8a1.92,1.92,0,0,1,1.92,1.92v10.8a1.92,1.92,0,0,1-1.92,1.92h-10.8a1.93,1.93,0,0,1-1.93-1.92Z"/><path class="cls-1" d="M208.15,125.17h2.22V129h-2.22v.14h2.22v3.8h-2.22v.14h2.22v3.8h-2.22V137h2.22v3.8h-2.22v.13h2.22v3.81h-2.22v.13h2.22a2.09,2.09,0,0,0,1.92,1.95V149h.14v-2.18h3.8V149h.14v-2.18h3.8V149h.14v-2.18h3.8V149h.14v-2.18h3.8V149h.14v-2.18H232V149h.14v-2.19a2.08,2.08,0,0,0,1.91-1.95h2.23v-.13h-2.22v-3.81h2.22v-.13h-2.22V137h2.22v-.14h-2.22v-3.8h2.22v-.14h-2.22v-3.8h2.22V129h-2.22v-3.74s0,0,0-.06h2.23V125H234a2.1,2.1,0,0,0-1.91-1.88v-2.26H232v2.25h-3.8v-2.25h-.14v2.25h-3.8v-2.25h-.14v2.25h-3.8v-2.25h-.14v2.25h-3.8v-2.25h-.14v2.25h-3.8v-2.25h-.14v2.26a2.08,2.08,0,0,0-1.91,1.88h-2.23Zm2.38.06a1.93,1.93,0,0,1,1.93-1.92H232a1.92,1.92,0,0,1,1.92,1.92v19.5a1.92,1.92,0,0,1-1.92,1.92h-19.5a1.93,1.93,0,0,1-1.93-1.92Z"/><circle class="cls-1" cx="209.94" cy="113.48" r="1.19"/><path class="cls-1" d="M210.52,117.6a2.12,2.12,0,0,1-.58-1.6v-1.33"/><path class="cls-1" d="M213.38,118.18h-1.27a2.54,2.54,0,0,1-.84-.13"/><line class="cls-1" x1="216.35" y1="118.18" x2="215.09" y2="118.18"/><path class="cls-1" d="M220.22,120.15a2.17,2.17,0,0,0-2.34-2h-.45"/><path class="cls-1" d="M220.24,121.2v-.66"/><circle class="cls-1" cx="249.3" cy="121.06" r="1.19"/><polyline class="cls-1" points="244.65 121.06 245.73 121.06 248.1 121.06"/><path class="cls-1" d="M243.45,121.06h-2.83a2,2,0,0,0-2.17,2.18v3.6"/><line class="cls-1" x1="238.45" y1="129.46" x2="238.45" y2="127.81"/><path class="cls-1" d="M235.43,133h.66a2.19,2.19,0,0,0,2.36-2.36"/><circle class="cls-1" cx="227.64" cy="163.77" r="1.19"/><path class="cls-1" d="M227.64,161.63v1"/><path class="cls-1" d="M227.64,158.88v2"/><path class="cls-1" d="M225.47,152.05a2,2,0,0,1,2.17,2.18v3.63"/><path class="cls-1" d="M224.71,152.05H222a1.54,1.54,0,0,1-1.71-1.68V149"/><path class="cls-1" d="M12.8,137.44a.54.54,0,0,0-1.07,0S10.1,164.68,10.1,165c0,1.19,4.33,1.18,4.33,0C14.43,164.68,12.8,137.44,12.8,137.44Z"/><path class="cls-1" d="M12.15,134.88H12l-.09.07a2.16,2.16,0,0,0-1.47,1.5,2.18,2.18,0,0,0,.52,2.07l0,.09.11,0a2.15,2.15,0,0,0,3.5-1l0,0v-.05a2.17,2.17,0,0,0-1.53-2.61A2.4,2.4,0,0,0,12.15,134.88Z"/><path class="cls-1" d="M10.45,136.44a2.16,2.16,0,0,1,1.47-1.5l.09-.07L2.15,133.6a.55.55,0,0,0-.29,1l9.15,4,0-.09A2.18,2.18,0,0,1,10.45,136.44Z"/><path class="cls-1" d="M19.66,129.06,12,134.87h.14a2.4,2.4,0,0,1,1,0,2.17,2.17,0,0,1,1.53,2.61v.05l5.79-7.76A.55.55,0,0,0,19.66,129.06Z"/><path class="cls-1" d="M12,139.1a2.15,2.15,0,0,1-.84-.46l-.11,0,3.6,8.86a.55.55,0,0,0,1.05-.26l-1-9.62,0,0A2.17,2.17,0,0,1,12,139.1Z"/><path class="cls-1" d="M23.32,143.53a.4.4,0,0,0-.79,0s-1.19,21-1.19,21.23c0,.87,3.17.86,3.17,0C24.51,164.51,23.32,143.53,23.32,143.53Z"/><path class="cls-1" d="M24.13,142.35l0-.09-.08,0a1.59,1.59,0,0,0-2.63.62l0,.06V143a1.7,1.7,0,0,0,0,.71,1.58,1.58,0,0,0,1.88,1.2h0l0,0A1.58,1.58,0,0,0,24.44,143,1.74,1.74,0,0,0,24.13,142.35Z"/><path class="cls-1" d="M22.54,141.79a1.6,1.6,0,0,1,1.47.43l.08,0-2.58-6.81a.4.4,0,0,0-.77.17l.6,7.28,0-.06A1.6,1.6,0,0,1,22.54,141.79Z"/><path class="cls-1" d="M30.48,145.2l-6.39-2.94,0,.09a1.74,1.74,0,0,1,.31.64,1.58,1.58,0,0,1-1.16,1.88l0,0,7,1.06A.4.4,0,0,0,30.48,145.2Z"/><path class="cls-1" d="M21.34,143.69a1.7,1.7,0,0,1,0-.71v-.08l-4.49,5.39a.4.4,0,0,0,.53.58l5.87-4h0A1.58,1.58,0,0,1,21.34,143.69Z"/><line class="cls-1" x1="203.48" y1="157.25" x2="203.48" y2="154.58"/><circle class="cls-1" cx="203.48" cy="153.39" r="1.19"/><circle class="cls-1" cx="216.43" cy="173.11" r="2.22"/><circle class="cls-1" cx="200.81" cy="171.37" r="3.99"/><path class="cls-1" d="M196.4,166.55a6,6,0,0,0-1.49,2.1"/><path class="cls-1" d="M199.91,164.92a7.67,7.67,0,0,0-.91.19,5.57,5.57,0,0,0-.87.31,4.53,4.53,0,0,0-.54.27c-.15.08-.29.17-.43.26"/><path class="cls-1" d="M203,165.23a5.24,5.24,0,0,0-1.24-.32,5.32,5.32,0,0,0-.81-.06"/><path class="cls-1" d="M204.8,166.34a4.47,4.47,0,0,0-.4-.34"/><path class="cls-1" d="M212,165.38l-1.08-.15-1.07-.14-1.32-.17s-2-.43-2,1.2v2.56a6.2,6.2,0,0,0-.37-.73c-.11-.17-.23-.37-.38-.57"/><path class="cls-1" d="M213.72,165.62l-.8-.12"/><path class="cls-1" d="M218,167.6a5.44,5.44,0,0,0-1-1.32,2.15,2.15,0,0,0-.58-.24c-.31-.07-1.1-.19-2.05-.33"/><path class="cls-1" d="M218.89,169.28l-.24-.45q-.22-.42-.45-.81"/><path class="cls-1" d="M218.65,173.11h1.89a4.14,4.14,0,0,0-.37-1.16c-.13-.32-.29-.68-.47-1.06"/><line class="cls-1" x1="210.38" y1="173.11" x2="204.4" y2="173.11"/><line class="cls-1" x1="213.07" y1="173.11" x2="211.32" y2="173.11"/><line class="cls-1" x1="206.92" y1="165.14" x2="206.07" y2="164.56"/><line class="cls-1" x1="206.49" y1="164.01" x2="205.72" y2="164.97"/><polyline class="cls-1" points="209.08 163.18 209.25 163.69 209.32 163.91"/><polyline class="cls-1" points="208.38 161.04 208.65 161.88 208.86 162.5"/><path class="cls-1" d="M198.6,165.23l1-7.43a.58.58,0,0,1,.58-.5h7.57a.57.57,0,0,1,.55.39l0,.06a.58.58,0,0,1-.29.7h0a.57.57,0,0,0-.29.69l.31.93"/><path class="cls-1" d="M414,128.24h5a1.72,1.72,0,0,1,1.71,1.71v6.34"/><line class="cls-1" x1="410.72" y1="136.41" x2="410.72" y2="130.66"/><rect class="cls-1" x="413.78" y="130.91" width="3.97" height="3.97" rx="1.26" transform="translate(831.53 265.78) rotate(-180)"/><polyline class="cls-1" points="422.51 133.15 422.51 135.73 422.51 137.54"/><polyline class="cls-1" points="422.51 130.59 422.51 131.72 422.51 132.37"/><path class="cls-1" d="M434.31,126.07v-1.5a2.39,2.39,0,0,0-2.39-2.38h-7c-1.31,0-2.39,1.07-2.39,3v4.35"/><line class="cls-1" x1="434.31" y1="129.39" x2="434.31" y2="128.1"/><circle class="cls-1" cx="422.51" cy="138.88" r="1.19"/><rect class="cls-1" x="426.43" y="125.11" width="3.97" height="3.97" rx="1.26" transform="translate(856.82 254.18) rotate(180)"/><path class="cls-1" d="M354.62,162.48H358"/><path class="cls-1" d="M349.48,158.82s-.47,3.66,3.67,3.66"/><line class="cls-1" x1="349.48" y1="150.07" x2="349.48" y2="157.3"/><polyline class="cls-1" points="349.48 140 349.48 141.23 349.48 143.14"/><path class="cls-1" d="M345,128.91h2.13a2.39,2.39,0,0,1,2.38,2.38v7"/><line class="cls-1" x1="341.77" y1="128.91" x2="343.51" y2="128.91"/><path class="cls-1" d="M331,136.24v-5a2.39,2.39,0,0,1,2.38-2.38h5.91"/><line class="cls-1" x1="331.02" y1="144.19" x2="331.02" y2="138.27"/><path class="cls-1" d="M326.54,155.32H328c3.52,0,3.07-3,3.07-3v-5"/><circle class="cls-1" cx="359.32" cy="162.48" r="1.19"/><rect class="cls-1" x="341.77" y="133.85" width="3.97" height="3.97" rx="1.26" transform="translate(687.52 271.66) rotate(-180)"/><rect class="cls-1" x="341.77" y="140.64" width="3.97" height="3.97" rx="1.26" transform="translate(687.52 285.24) rotate(180)"/><rect class="cls-1" x="334.05" y="133.85" width="3.97" height="3.97" rx="1.26" transform="translate(672.07 271.66) rotate(-180)"/><line class="cls-1" x1="367.81" y1="140.76" x2="367.81" y2="153.63"/><line class="cls-1" x1="367.81" y1="136.94" x2="367.81" y2="138.72"/><line class="cls-1" x1="367.81" y1="129.24" x2="367.81" y2="134.95"/><path class="cls-1" d="M376.49,124.49h-6.3a2.39,2.39,0,0,0-2.38,2.38v1.49"/><path class="cls-1" d="M384.4,131.82v-4.95a2.39,2.39,0,0,0-2.39-2.38h-4.27"/><line class="cls-1" x1="384.4" y1="138.35" x2="384.4" y2="132.43"/><polyline class="cls-1" points="384.4 146.42 384.4 143.75 384.4 141.44"/><line class="cls-1" x1="384.4" y1="150.75" x2="384.4" y2="148.22"/><path class="cls-1" d="M387.47,160.68a3,3,0,0,1-3.07-3v-5.09"/><rect class="cls-1" x="371.55" y="129.43" width="3.97" height="3.97" rx="1.26"/><rect class="cls-1" x="371.55" y="134.95" width="3.97" height="3.97" rx="1.26"/><rect class="cls-1" x="377.39" y="129.43" width="3.97" height="3.97" rx="1.26"/><path class="cls-1" d="M352.61,156.48V138.07a1.72,1.72,0,0,1,1.71-1.71h6.59a1.72,1.72,0,0,1,1.71,1.71v16.4s-.13,1.6,1.12,1.6h2.88"/><rect class="cls-1" x="355.67" y="139.03" width="3.97" height="3.97" rx="1.26" transform="translate(715.31 282.02) rotate(-180)"/><rect class="cls-1" x="355.67" y="145.24" width="3.97" height="3.97" rx="1.26" transform="translate(715.31 294.44) rotate(180)"/><circle class="cls-1" cx="250.41" cy="129.7" r="1.19"/><path class="cls-1" d="M263,127v-7.85a1.72,1.72,0,0,0-1.71-1.71h-6.59a1.72,1.72,0,0,0-1.71,1.71V128s.13,1.6-1.12,1.6"/><line class="cls-1" x1="263.03" y1="132.73" x2="263.03" y2="128.36"/><line class="cls-1" x1="263.03" y1="134.95" x2="263.03" y2="133.85"/><line class="cls-1" x1="263.03" y1="137.39" x2="263.03" y2="135.83"/><rect class="cls-1" x="256" y="120.09" width="3.97" height="3.97" rx="1.26"/><path class="cls-1" d="M307.9,119.09v-5a2.39,2.39,0,0,0-2.38-2.39H291.83a2.4,2.4,0,0,0-2.39,2.39v6.23"/><line class="cls-1" x1="307.9" y1="124.74" x2="307.9" y2="121.11"/><line class="cls-1" x1="307.9" y1="144.71" x2="307.9" y2="139.36"/><line class="cls-1" x1="307.9" y1="138.63" x2="307.9" y2="126.29"/><circle class="cls-1" cx="301.72" cy="156.48" r="1.19"/><path class="cls-1" d="M309.87,145.57v8s.45,3-3.07,3h-3.88"/><polyline class="cls-1" points="309.87 136.94 309.87 138.63 309.87 140.76 309.87 143"/><polyline class="cls-1" points="309.87 132.57 309.87 133.92 309.87 135.46"/><path class="cls-1" d="M326.51,131.12v-3.75a1.72,1.72,0,0,0-1.72-1.71H311.58a1.72,1.72,0,0,0-1.71,1.71v3.69"/><line class="cls-1" x1="326.51" y1="134.95" x2="326.51" y2="132.73"/><polyline class="cls-1" points="326.5 144.72 326.5 141.6 326.5 135.83"/><line class="cls-1" x1="326.51" y1="150.01" x2="326.51" y2="146.42"/><rect class="cls-1" x="319.51" y="128.36" width="3.97" height="3.97" rx="1.26"/><rect class="cls-1" x="312.31" y="135.46" width="3.97" height="3.97" rx="1.26"/><rect class="cls-1" x="319.51" y="142.35" width="3.97" height="3.97" rx="1.26"/><rect class="cls-1" x="312.31" y="142.35" width="3.97" height="3.97" rx="1.26"/><path class="cls-1" d="M280.89,107.49h5a1.72,1.72,0,0,1,1.71,1.71v11.91"/><line class="cls-1" x1="277.6" y1="119.02" x2="277.6" y2="109.91"/><rect class="cls-1" x="280.66" y="110.16" width="3.97" height="3.97" rx="1.26" transform="translate(565.3 224.28) rotate(-180)"/><path class="cls-1" d="M335.22,123.59v-5a2.39,2.39,0,0,0-2.38-2.39H319.15a2.4,2.4,0,0,0-2.39,2.39v6.23"/><line class="cls-1" x1="335.22" y1="128.36" x2="335.22" y2="125.61"/><rect class="cls-1" x="328.16" y="119.84" width="3.97" height="3.97" rx="1.26" transform="translate(660.28 243.64) rotate(-180)"/><rect class="cls-1" x="319.51" y="119.84" width="3.97" height="3.97" rx="1.26" transform="translate(642.98 243.64) rotate(-180)"/><line class="cls-1" x1="279.99" y1="135.83" x2="279.99" y2="128.91"/><line class="cls-1" x1="279.99" y1="144.78" x2="279.99" y2="137.1"/><path class="cls-1" d="M280,127V122.3a1.72,1.72,0,0,0-1.71-1.71H267a1.72,1.72,0,0,0-1.71,1.71v15.39s.11,1.54-2.21,1.54"/><rect class="cls-1" x="267.73" y="124.17" width="3.97" height="3.97" rx="1.26"/><rect class="cls-1" x="273.38" y="131.06" width="3.97" height="3.97" rx="1.26"/><circle class="cls-1" cx="279.99" cy="145.98" r="1.19"/><circle class="cls-1" cx="299.42" cy="130.43" r="1.19"/><path class="cls-1" d="M282.79,144.73v5.65s.45,3-3.07,3"/><polyline class="cls-1" points="282.79 137.44 282.79 138.63 282.79 140.99"/><line class="cls-1" x1="282.79" y1="134.83" x2="282.79" y2="136.24"/><path class="cls-1" d="M299.42,129.24v-5a1.72,1.72,0,0,0-1.71-1.72H284.5a1.72,1.72,0,0,0-1.71,1.72V133"/><rect class="cls-1" x="285.28" y="131.94" width="3.97" height="3.97" rx="1.26"/><rect class="cls-1" x="293" y="125.15" width="3.97" height="3.97" rx="1.26"/><circle class="cls-1" cx="278.52" cy="153.3" r="1.19"/><path class="cls-1" d="M294.8,147.28V134.44a1.72,1.72,0,0,1,1.71-1.71h6.59a1.72,1.72,0,0,1,1.71,1.71v14.84s0,1.47,1.21,1.47h1.88"/><line class="cls-1" x1="294.8" y1="156.54" x2="294.8" y2="150.06"/><path class="cls-1" d="M294.8,158.26v2.39s0,2.48-1.9,2.48H289"/><rect class="cls-1" x="297.86" y="135.4" width="3.97" height="3.97" rx="1.26" transform="translate(599.69 274.76) rotate(-180)"/><rect class="cls-1" x="297.86" y="141.6" width="3.97" height="3.97" rx="1.26" transform="translate(599.69 287.18) rotate(180)"/><circle class="cls-1" cx="287.76" cy="163.14" r="1.19"/><circle class="cls-1" cx="400.6" cy="126.6" r="1.19"/><path class="cls-1" d="M388,123.88V116a1.72,1.72,0,0,1,1.71-1.71h6.59A1.72,1.72,0,0,1,398,116v8.9s-.13,1.6,1.12,1.6"/><line class="cls-1" x1="387.99" y1="129.63" x2="387.99" y2="125.26"/><line class="cls-1" x1="387.99" y1="131.84" x2="387.99" y2="130.75"/><line class="cls-1" x1="387.99" y1="145.25" x2="387.99" y2="132.73"/><rect class="cls-1" x="391.05" y="116.99" width="3.97" height="3.97" rx="1.26" transform="translate(786.07 237.94) rotate(-180)"/><path class="cls-1" d="M442.52,144.55a2.89,2.89,0,0,1,.85,2"/><line class="cls-1" x1="436.83" y1="143.71" x2="440.49" y2="143.71"/><line class="cls-1" x1="427.24" y1="143.71" x2="434.13" y2="143.71"/><path class="cls-1" d="M443.37,147.76a2.89,2.89,0,0,1-2.88,2.87"/><path class="cls-1" d="M440.49,157.55a2.89,2.89,0,0,1,2.88,2.88"/><polyline class="cls-1" points="432.97 164.47 428.53 164.47 427.24 164.47"/><line class="cls-1" x1="436.61" y1="164.47" x2="434.13" y2="164.47"/><path class="cls-1" d="M443.37,161.6a2.89,2.89,0,0,1-2.88,2.87h-1"/><path class="cls-1" d="M437.55,150.63h2.94a2.89,2.89,0,0,1,2.88,2.88"/><line class="cls-1" x1="429.25" y1="150.65" x2="432.97" y2="150.63"/><line class="cls-1" x1="430.26" y1="157.55" x2="427.24" y2="157.55"/><path class="cls-1" d="M443.37,154.68a2.89,2.89,0,0,1-2.88,2.87h-8.1"/><circle class="cls-1" cx="436.35" cy="150.63" r="1.19"/><path class="cls-1" d="M389.47,163.76a2.47,2.47,0,0,1-.71-1.73"/><line class="cls-1" x1="394.3" y1="164.47" x2="391.2" y2="164.47"/><line class="cls-1" x1="400.6" y1="164.47" x2="396.6" y2="164.47"/><path class="cls-1" d="M388.76,161a2.45,2.45,0,0,1,2.44-2.44"/><path class="cls-1" d="M391.2,152.72a2.45,2.45,0,0,1-2.44-2.44"/><polyline class="cls-1" points="397.58 146.85 399.51 146.85 400.6 146.85"/><line class="cls-1" x1="394.5" y1="146.85" x2="396.6" y2="146.85"/><path class="cls-1" d="M388.76,149.29a2.44,2.44,0,0,1,2.44-2.44h.86"/><path class="cls-1" d="M393.7,158.6h-2.5a2.45,2.45,0,0,1-2.44-2.44"/><line class="cls-1" x1="398.9" y1="158.58" x2="397.58" y2="158.6"/><line class="cls-1" x1="399.88" y1="152.72" x2="400.6" y2="152.72"/><path class="cls-1" d="M388.76,155.16a2.45,2.45,0,0,1,2.44-2.44h6.87"/><circle class="cls-1" cx="394.89" cy="158.45" r="1.19"/><circle class="cls-1" cx="454.98" cy="164.55" r="1.19"/><path class="cls-1" d="M455,134.6v-7.51a2.39,2.39,0,0,0-2.39-2.38H441.85a2.39,2.39,0,0,0-2.39,2.38v4.26"/><line class="cls-1" x1="454.98" y1="149.46" x2="454.98" y2="136.62"/><line class="cls-1" x1="454.98" y1="163.22" x2="454.98" y2="154.87"/><line class="cls-1" x1="454.98" y1="154.14" x2="454.98" y2="152.23"/><circle class="cls-1" cx="451.4" cy="158.74" r="1.19"/><path class="cls-1" d="M446.48,154.68v2.24s0,1.82,1.48,1.82h2.25"/><line class="cls-1" x1="446.48" y1="151.46" x2="446.48" y2="152.8"/><line class="cls-1" x1="446.48" y1="147.76" x2="446.48" y2="150.5"/><polyline class="cls-1" points="446.48 142.47 446.48 143.1 446.48 145.57 446.48 146.58"/><path class="cls-1" d="M442.94,132.82h1.16a2.39,2.39,0,0,1,2.38,2.38V141"/><polyline class="cls-1" points="439.12 132.82 440.45 132.82 441.75 132.82"/><polyline class="cls-1" points="434.58 132.82 436.61 132.82 438.18 132.82"/><path class="cls-1" d="M428,140.15v-5a2.39,2.39,0,0,1,2.39-2.38"/><rect class="cls-1" x="431.12" y="136.4" width="3.97" height="3.97" rx="1.26"/><rect class="cls-1" x="439.77" y="136.4" width="3.97" height="3.97" rx="1.26"/><circle class="cls-1" cx="409.5" cy="158.55" r="1.12"/><circle class="cls-1" cx="417.83" cy="141.98" r="1.12"/><path class="cls-1" d="M419,142h4.35a3.43,3.43,0,0,1,3.42,3.42"/><line class="cls-1" x1="412.97" y1="141.98" x2="415.73" y2="141.98"/><path class="cls-1" d="M426.72,146.79a3.43,3.43,0,0,1-3.42,3.42H404.08a3.43,3.43,0,0,1-3.42-3.42V145.4a3.43,3.43,0,0,1,3.42-3.42h8"/><path class="cls-1" d="M426.72,163.27a3.43,3.43,0,0,1-3.42,3.42H404.08a3.43,3.43,0,0,1-3.42-3.42v-1.4a3.43,3.43,0,0,1,3.42-3.42H423.3a3.43,3.43,0,0,1,3.42,3.42"/><path class="cls-1" d="M426.72,155a3.43,3.43,0,0,1-3.42,3.42H404.08a3.43,3.43,0,0,1-3.42-3.42v-1.4a3.43,3.43,0,0,1,3.42-3.42H423.3a3.43,3.43,0,0,1,3.42,3.42"/><rect class="cls-1" x="403.68" y="145.01" width="3.85" height="2.17" rx="1.09"/><rect class="cls-1" x="403.68" y="153.24" width="3.85" height="2.17" rx="1.09"/><rect class="cls-1" x="403.68" y="161.58" width="3.85" height="2.17" rx="1.09"/><path class="cls-1" d="M401.82,129.49h4.94a2.39,2.39,0,0,1,2.38,2.38v6a1.45,1.45,0,0,0,1.49,1.81h2.24"/><path class="cls-1" d="M393.32,135.28v-3.41a2.39,2.39,0,0,1,2.38-2.38h4.54"/><line class="cls-1" x1="393.32" y1="138.39" x2="393.32" y2="137.52"/><polyline class="cls-1" points="393.32 145.19 393.32 143.1 393.32 142.3 393.32 141.59 393.32 139.57"/><rect class="cls-1" x="396.05" y="133.08" width="3.97" height="3.97" rx="1.26"/><rect class="cls-1" x="402.43" y="133.08" width="3.97" height="3.97" rx="1.26"/><circle class="cls-1" cx="414.12" cy="139.73" r="1.19"/><path class="cls-1" d="M354.62,162.48H358"/><path class="cls-1" d="M349.48,158.82s-.47,3.66,3.67,3.66"/><line class="cls-1" x1="349.48" y1="150.07" x2="349.48" y2="157.3"/><polyline class="cls-1" points="349.48 140 349.48 141.23 349.48 143.14"/><path class="cls-1" d="M345,128.91h2.13a2.39,2.39,0,0,1,2.38,2.38v7"/><line class="cls-1" x1="341.77" y1="128.91" x2="343.51" y2="128.91"/><path class="cls-1" d="M331,136.24v-5a2.39,2.39,0,0,1,2.38-2.38h5.91"/><line class="cls-1" x1="331.02" y1="144.19" x2="331.02" y2="138.27"/><path class="cls-1" d="M326.54,155.32H328c3.52,0,3.07-3,3.07-3v-5"/><circle class="cls-1" cx="359.32" cy="162.48" r="1.19"/><rect class="cls-1" x="341.77" y="133.85" width="3.97" height="3.97" rx="1.26" transform="translate(687.52 271.66) rotate(-180)"/><rect class="cls-1" x="341.77" y="140.64" width="3.97" height="3.97" rx="1.26" transform="translate(687.52 285.24) rotate(180)"/><rect class="cls-1" x="334.05" y="133.85" width="3.97" height="3.97" rx="1.26" transform="translate(672.07 271.66) rotate(-180)"/><line class="cls-1" x1="367.81" y1="140.76" x2="367.81" y2="153.63"/><line class="cls-1" x1="367.81" y1="136.94" x2="367.81" y2="138.72"/><line class="cls-1" x1="367.81" y1="129.24" x2="367.81" y2="134.95"/><path class="cls-1" d="M376.49,124.49h-6.3a2.39,2.39,0,0,0-2.38,2.38v1.49"/><path class="cls-1" d="M384.4,131.82v-4.95a2.39,2.39,0,0,0-2.39-2.38h-4.27"/><line class="cls-1" x1="384.4" y1="138.35" x2="384.4" y2="132.43"/><polyline class="cls-1" points="384.4 146.42 384.4 143.75 384.4 141.44"/><line class="cls-1" x1="384.4" y1="150.75" x2="384.4" y2="148.22"/><path class="cls-1" d="M387.47,160.68a3,3,0,0,1-3.07-3v-5.09"/><rect class="cls-1" x="371.55" y="129.43" width="3.97" height="3.97" rx="1.26"/><rect class="cls-1" x="371.55" y="134.95" width="3.97" height="3.97" rx="1.26"/><rect class="cls-1" x="377.39" y="129.43" width="3.97" height="3.97" rx="1.26"/><path class="cls-1" d="M352.61,156.48V138.07a1.72,1.72,0,0,1,1.71-1.71h6.59a1.72,1.72,0,0,1,1.71,1.71v16.4s-.13,1.6,1.12,1.6h2.88"/><rect class="cls-1" x="355.67" y="139.03" width="3.97" height="3.97" rx="1.26" transform="translate(715.31 282.02) rotate(-180)"/><rect class="cls-1" x="355.67" y="145.24" width="3.97" height="3.97" rx="1.26" transform="translate(715.31 294.44) rotate(180)"/><circle class="cls-1" cx="250.41" cy="129.7" r="1.19"/><path class="cls-1" d="M263,127v-7.85a1.72,1.72,0,0,0-1.71-1.71h-6.59a1.72,1.72,0,0,0-1.71,1.71V128s.13,1.6-1.12,1.6"/><line class="cls-1" x1="263.03" y1="132.73" x2="263.03" y2="128.36"/><line class="cls-1" x1="263.03" y1="134.95" x2="263.03" y2="133.85"/><line class="cls-1" x1="263.03" y1="137.39" x2="263.03" y2="135.83"/><rect class="cls-1" x="256" y="120.09" width="3.97" height="3.97" rx="1.26"/><path class="cls-1" d="M307.9,119.09v-5a2.39,2.39,0,0,0-2.38-2.39H291.83a2.4,2.4,0,0,0-2.39,2.39v6.23"/><line class="cls-1" x1="307.9" y1="124.74" x2="307.9" y2="121.11"/><line class="cls-1" x1="307.9" y1="144.71" x2="307.9" y2="139.36"/><line class="cls-1" x1="307.9" y1="138.63" x2="307.9" y2="126.29"/><circle class="cls-1" cx="301.72" cy="156.48" r="1.19"/><path class="cls-1" d="M309.87,145.57v8s.45,3-3.07,3h-3.88"/><polyline class="cls-1" points="309.87 136.94 309.87 138.63 309.87 140.76 309.87 143"/><polyline class="cls-1" points="309.87 132.57 309.87 133.92 309.87 135.46"/><path class="cls-1" d="M326.51,131.12v-3.75a1.72,1.72,0,0,0-1.72-1.71H311.58a1.72,1.72,0,0,0-1.71,1.71v3.69"/><line class="cls-1" x1="326.51" y1="134.95" x2="326.51" y2="132.73"/><polyline class="cls-1" points="326.5 144.72 326.5 141.6 326.5 135.83"/><line class="cls-1" x1="326.51" y1="150.01" x2="326.51" y2="146.42"/><rect class="cls-1" x="319.51" y="128.36" width="3.97" height="3.97" rx="1.26"/><rect class="cls-1" x="312.31" y="135.46" width="3.97" height="3.97" rx="1.26"/><rect class="cls-1" x="319.51" y="142.35" width="3.97" height="3.97" rx="1.26"/><rect class="cls-1" x="312.31" y="142.35" width="3.97" height="3.97" rx="1.26"/><path class="cls-1" d="M280.89,107.49h5a1.72,1.72,0,0,1,1.71,1.71v11.91"/><line class="cls-1" x1="277.6" y1="119.02" x2="277.6" y2="109.91"/><rect class="cls-1" x="280.66" y="110.16" width="3.97" height="3.97" rx="1.26" transform="translate(565.3 224.28) rotate(-180)"/><path class="cls-1" d="M335.22,123.59v-5a2.39,2.39,0,0,0-2.38-2.39H319.15a2.4,2.4,0,0,0-2.39,2.39v6.23"/><line class="cls-1" x1="335.22" y1="128.36" x2="335.22" y2="125.61"/><rect class="cls-1" x="328.16" y="119.84" width="3.97" height="3.97" rx="1.26" transform="translate(660.28 243.64) rotate(-180)"/><rect class="cls-1" x="319.51" y="119.84" width="3.97" height="3.97" rx="1.26" transform="translate(642.98 243.64) rotate(-180)"/><line class="cls-1" x1="279.99" y1="135.83" x2="279.99" y2="128.91"/><line class="cls-1" x1="279.99" y1="144.78" x2="279.99" y2="137.1"/><path class="cls-1" d="M280,127V122.3a1.72,1.72,0,0,0-1.71-1.71H267a1.72,1.72,0,0,0-1.71,1.71v15.39s.11,1.54-2.21,1.54"/><rect class="cls-1" x="267.73" y="124.17" width="3.97" height="3.97" rx="1.26"/><rect class="cls-1" x="273.38" y="131.06" width="3.97" height="3.97" rx="1.26"/><circle class="cls-1" cx="279.99" cy="145.98" r="1.19"/><circle class="cls-1" cx="299.42" cy="130.43" r="1.19"/><path class="cls-1" d="M282.79,144.73v5.65s.45,3-3.07,3"/><polyline class="cls-1" points="282.79 137.44 282.79 138.63 282.79 140.99"/><line class="cls-1" x1="282.79" y1="134.83" x2="282.79" y2="136.24"/><path class="cls-1" d="M299.42,129.24v-5a1.72,1.72,0,0,0-1.71-1.72H284.5a1.72,1.72,0,0,0-1.71,1.72V133"/><rect class="cls-1" x="285.28" y="131.94" width="3.97" height="3.97" rx="1.26"/><rect class="cls-1" x="293" y="125.15" width="3.97" height="3.97" rx="1.26"/><circle class="cls-1" cx="278.52" cy="153.3" r="1.19"/><path class="cls-1" d="M294.8,147.28V134.44a1.72,1.72,0,0,1,1.71-1.71h6.59a1.72,1.72,0,0,1,1.71,1.71v14.84s0,1.47,1.21,1.47h1.88"/><line class="cls-1" x1="294.8" y1="156.54" x2="294.8" y2="150.06"/><path class="cls-1" d="M294.8,158.26v2.39s0,2.48-1.9,2.48H289"/><rect class="cls-1" x="297.86" y="135.4" width="3.97" height="3.97" rx="1.26" transform="translate(599.69 274.76) rotate(-180)"/><rect class="cls-1" x="297.86" y="141.6" width="3.97" height="3.97" rx="1.26" transform="translate(599.69 287.18) rotate(180)"/><circle class="cls-1" cx="287.76" cy="163.14" r="1.19"/><circle class="cls-1" cx="400.6" cy="126.6" r="1.19"/><path class="cls-1" d="M388,123.88V116a1.72,1.72,0,0,1,1.71-1.71h6.59A1.72,1.72,0,0,1,398,116v8.9s-.13,1.6,1.12,1.6"/><line class="cls-1" x1="387.99" y1="129.63" x2="387.99" y2="125.26"/><line class="cls-1" x1="387.99" y1="131.84" x2="387.99" y2="130.75"/><line class="cls-1" x1="387.99" y1="145.25" x2="387.99" y2="132.73"/><rect class="cls-1" x="391.05" y="116.99" width="3.97" height="3.97" rx="1.26" transform="translate(786.07 237.94) rotate(-180)"/><path class="cls-1" d="M442.52,144.55a2.89,2.89,0,0,1,.85,2"/><line class="cls-1" x1="436.83" y1="143.71" x2="440.49" y2="143.71"/><line class="cls-1" x1="427.24" y1="143.71" x2="434.13" y2="143.71"/><path class="cls-1" d="M443.37,147.76a2.89,2.89,0,0,1-2.88,2.87"/><path class="cls-1" d="M440.49,157.55a2.89,2.89,0,0,1,2.88,2.88"/><polyline class="cls-1" points="432.97 164.47 428.53 164.47 427.24 164.47"/><line class="cls-1" x1="436.61" y1="164.47" x2="434.13" y2="164.47"/><path class="cls-1" d="M443.37,161.6a2.89,2.89,0,0,1-2.88,2.87h-1"/><path class="cls-1" d="M437.55,150.63h2.94a2.89,2.89,0,0,1,2.88,2.88"/><line class="cls-1" x1="429.25" y1="150.65" x2="432.97" y2="150.63"/><line class="cls-1" x1="430.26" y1="157.55" x2="427.24" y2="157.55"/><path class="cls-1" d="M443.37,154.68a2.89,2.89,0,0,1-2.88,2.87h-8.1"/><circle class="cls-1" cx="436.35" cy="150.63" r="1.19"/><path class="cls-1" d="M389.47,163.76a2.47,2.47,0,0,1-.71-1.73"/><line class="cls-1" x1="394.3" y1="164.47" x2="391.2" y2="164.47"/><line class="cls-1" x1="400.6" y1="164.47" x2="396.6" y2="164.47"/><path class="cls-1" d="M388.76,161a2.45,2.45,0,0,1,2.44-2.44"/><path class="cls-1" d="M391.2,152.72a2.45,2.45,0,0,1-2.44-2.44"/><polyline class="cls-1" points="397.58 146.85 399.51 146.85 400.6 146.85"/><line class="cls-1" x1="394.5" y1="146.85" x2="396.6" y2="146.85"/><path class="cls-1" d="M388.76,149.29a2.44,2.44,0,0,1,2.44-2.44h.86"/><path class="cls-1" d="M393.7,158.6h-2.5a2.45,2.45,0,0,1-2.44-2.44"/><line class="cls-1" x1="398.9" y1="158.58" x2="397.58" y2="158.6"/><line class="cls-1" x1="399.88" y1="152.72" x2="400.6" y2="152.72"/><path class="cls-1" d="M388.76,155.16a2.45,2.45,0,0,1,2.44-2.44h6.87"/><circle class="cls-1" cx="394.89" cy="158.45" r="1.19"/><circle class="cls-1" cx="454.98" cy="164.55" r="1.19"/><path class="cls-1" d="M455,134.6v-7.51a2.39,2.39,0,0,0-2.39-2.38H441.85a2.39,2.39,0,0,0-2.39,2.38v4.26"/><line class="cls-1" x1="454.98" y1="149.46" x2="454.98" y2="136.62"/><line class="cls-1" x1="454.98" y1="163.22" x2="454.98" y2="154.87"/><line class="cls-1" x1="454.98" y1="154.14" x2="454.98" y2="152.23"/><circle class="cls-1" cx="451.4" cy="158.74" r="1.19"/><path class="cls-1" d="M446.48,154.68v2.24s0,1.82,1.48,1.82h2.25"/><line class="cls-1" x1="446.48" y1="151.46" x2="446.48" y2="152.8"/><line class="cls-1" x1="446.48" y1="147.76" x2="446.48" y2="150.5"/><polyline class="cls-1" points="446.48 142.47 446.48 143.1 446.48 145.57 446.48 146.58"/><path class="cls-1" d="M442.94,132.82h1.16a2.39,2.39,0,0,1,2.38,2.38V141"/><polyline class="cls-1" points="439.12 132.82 440.45 132.82 441.75 132.82"/><polyline class="cls-1" points="434.58 132.82 436.61 132.82 438.18 132.82"/><path class="cls-1" d="M428,140.15v-5a2.39,2.39,0,0,1,2.39-2.38"/><rect class="cls-1" x="431.12" y="136.4" width="3.97" height="3.97" rx="1.26"/><rect class="cls-1" x="439.77" y="136.4" width="3.97" height="3.97" rx="1.26"/><circle class="cls-1" cx="409.5" cy="158.55" r="1.12"/><circle class="cls-1" cx="417.83" cy="141.98" r="1.12"/><path class="cls-1" d="M419,142h4.35a3.43,3.43,0,0,1,3.42,3.42"/><line class="cls-1" x1="412.97" y1="141.98" x2="415.73" y2="141.98"/><path class="cls-1" d="M426.72,146.79a3.43,3.43,0,0,1-3.42,3.42H404.08a3.43,3.43,0,0,1-3.42-3.42V145.4a3.43,3.43,0,0,1,3.42-3.42h8"/><path class="cls-1" d="M426.72,163.27a3.43,3.43,0,0,1-3.42,3.42H404.08a3.43,3.43,0,0,1-3.42-3.42v-1.4a3.43,3.43,0,0,1,3.42-3.42H423.3a3.43,3.43,0,0,1,3.42,3.42"/><path class="cls-1" d="M426.72,155a3.43,3.43,0,0,1-3.42,3.42H404.08a3.43,3.43,0,0,1-3.42-3.42v-1.4a3.43,3.43,0,0,1,3.42-3.42H423.3a3.43,3.43,0,0,1,3.42,3.42"/><rect class="cls-1" x="403.68" y="145.01" width="3.85" height="2.17" rx="1.09"/><rect class="cls-1" x="403.68" y="153.24" width="3.85" height="2.17" rx="1.09"/><rect class="cls-1" x="403.68" y="161.58" width="3.85" height="2.17" rx="1.09"/><path class="cls-1" d="M401.82,129.49h4.94a2.39,2.39,0,0,1,2.38,2.38v6a1.45,1.45,0,0,0,1.49,1.81h2.24"/><path class="cls-1" d="M393.32,135.28v-3.41a2.39,2.39,0,0,1,2.38-2.38h4.54"/><line class="cls-1" x1="393.32" y1="138.39" x2="393.32" y2="137.52"/><polyline class="cls-1" points="393.32 145.19 393.32 143.1 393.32 142.3 393.32 141.59 393.32 139.57"/><rect class="cls-1" x="396.05" y="133.08" width="3.97" height="3.97" rx="1.26"/><rect class="cls-1" x="402.43" y="133.08" width="3.97" height="3.97" rx="1.26"/><circle class="cls-1" cx="414.12" cy="139.73" r="1.19"/><path class="cls-1" d="M47,119.9h-5a1.72,1.72,0,0,0-1.71,1.71v6.33"/><line class="cls-1" x1="50.24" y1="128.07" x2="50.24" y2="122.31"/><rect class="cls-1" x="43.21" y="122.56" width="3.97" height="3.97" rx="1.26"/><line class="cls-1" x1="72.17" y1="128.55" x2="72.17" y2="131.41"/><path class="cls-1" d="M63.48,123.79h6.3a2.4,2.4,0,0,1,2.39,2.39v1.49"/><path class="cls-1" d="M55.58,131.13v-4.95A2.39,2.39,0,0,1,58,123.79h4.27"/><line class="cls-1" x1="55.57" y1="133.69" x2="55.57" y2="131.74"/><line class="cls-1" x1="55.57" y1="143.16" x2="55.57" y2="134.26"/><rect class="cls-1" x="64.46" y="128.74" width="3.97" height="3.97" rx="1.26" transform="translate(132.89 261.44) rotate(-180)"/><rect class="cls-1" x="64.46" y="134.26" width="3.97" height="3.97" rx="1.26" transform="translate(132.89 272.49) rotate(180)"/><rect class="cls-1" x="58.61" y="128.74" width="3.97" height="3.97" rx="1.26" transform="translate(121.19 261.44) rotate(-180)"/><circle class="cls-1" cx="55.57" cy="144.7" r="1.19"/><path class="cls-1" d="M192.08,120.85H182.7"/><path class="cls-1" d="M205.41,113.88A7,7,0,0,1,204,118a7.07,7.07,0,0,1-2.38,2,6.92,6.92,0,0,1-3.23.79h-4.1"/><path class="cls-1" d="M204.23,110a6.81,6.81,0,0,1,1,2.29"/><path class="cls-1" d="M181.26,103.94a7,7,0,0,1,2.56-.48,6.74,6.74,0,0,1,2.3.4,5.67,5.67,0,0,1,1.78-3.25,5.71,5.71,0,0,1,3.8-1.47,5.67,5.67,0,0,1,5.48,4.2,5.92,5.92,0,0,1,.19,1.47,5.44,5.44,0,0,1-.09,1,5.58,5.58,0,0,1-.39,1.28,7.13,7.13,0,0,1,1.54-.18,7,7,0,0,1,3.84,1.15s.94.52.94-.67V103.2"/><path class="cls-1" d="M171.91,108.65a6.48,6.48,0,0,1,1.23-.63,6.59,6.59,0,0,1,2.36-.43,6.93,6.93,0,0,1,1.84.26,7,7,0,0,1,2.83-3.36"/><circle class="cls-1" cx="121.88" cy="114.59" r="1.19"/><circle class="cls-1" cx="156.32" cy="136.13" r="1.19"/><circle class="cls-1" cx="203.18" cy="102.46" r="1.19"/><path class="cls-1" d="M131.1,109.48a9.33,9.33,0,0,0-2.63,5.11h-4.9"/><path class="cls-1" d="M179.61,112.46a7.81,7.81,0,0,0-1.84-1.55,7.7,7.7,0,0,0-2.74-1,7.53,7.53,0,0,0-1.35-.12,7.91,7.91,0,0,0-1.1.08,7.35,7.35,0,0,0-1.88.51,9.15,9.15,0,0,0-3.08-5.94,9.3,9.3,0,0,0-2.52-1.55,8.32,8.32,0,0,0-1.72-.51,9,9,0,0,0-1.72-.17,8.8,8.8,0,0,0-2.78.44,9.22,9.22,0,0,0-1.94.88,9.47,9.47,0,0,0-1.66,1.29,7.88,7.88,0,0,0-14.49-2.69,8,8,0,0,0-1,2.49,8.41,8.41,0,0,0-.16,1.59,7.92,7.92,0,0,0,0,.85,9.43,9.43,0,0,0-2.06-.24,9.28,9.28,0,0,0-5.58,1.86"/><path class="cls-1" d="M181.55,117.64a7.73,7.73,0,0,0-.5-2.77"/><path class="cls-1" d="M179.91,122.46a7.87,7.87,0,0,0,1.43-3"/><path class="cls-1" d="M173.68,125.52a7.79,7.79,0,0,0,2.7-.48,8,8,0,0,0,2.3-1.32"/><path class="cls-1" d="M172.21,125.51l-4.87,0-9.83,0s-1.19,0-1.19,1.72v7.61"/><path class="cls-1" d="M140.44,125.36l7.31,0c2.91,0,2.79,0,5.95,0"/><path class="cls-1" d="M137.64,125.36a9.21,9.21,0,0,1-4.19-1"/><path class="cls-1" d="M128.35,116.08a9.16,9.16,0,0,0,1.42,4.92"/><line class="cls-1" x1="52.05" y1="140.82" x2="52.05" y2="138.32"/><path class="cls-1" d="M55.12,148.52c-3.52,0-3.07-3-3.07-3V142"/><line class="cls-1" x1="33.59" y1="143.34" x2="33.59" y2="166.19"/><path class="cls-1" d="M52.05,136.3v-5A2.4,2.4,0,0,0,49.66,129H36a2.39,2.39,0,0,0-2.38,2.39v10.24"/><rect class="cls-1" x="37.32" y="133.91" width="3.97" height="3.97" rx="1.26"/><rect class="cls-1" x="37.32" y="140.69" width="3.97" height="3.97" rx="1.26"/><rect class="cls-1" x="45.05" y="133.91" width="3.97" height="3.97" rx="1.26"/><path class="cls-1" d="M99.74,122.19a.76.76,0,0,0-1.49,0S96,154.59,96,155.05c0,1.65,6,1.63,6,0C102,154.59,99.74,122.19,99.74,122.19Z"/><path class="cls-1" d="M95.5,122.15l0,.18.1.14a3,3,0,0,0,2,2.12,3,3,0,0,0,2.88-.62l.13,0,.08-.15a3.06,3.06,0,0,0,.67-1.15,3,3,0,0,0-1.92-3.75l0,0h-.06a3,3,0,0,0-3.7,2A3,3,0,0,0,95.5,122.15Z"/><path class="cls-1" d="M97.57,124.59a3,3,0,0,1-2-2.12l-.1-.14-2.28,13.6a.76.76,0,0,0,1.42.46l6-12.46-.13,0A3,3,0,0,1,97.57,124.59Z"/><path class="cls-1" d="M87.85,111.43l7.62,10.9,0-.18a3,3,0,0,1,.11-1.33,3,3,0,0,1,3.7-2h.06l-10.43-8.43A.76.76,0,0,0,87.85,111.43Z"/><path class="cls-1" d="M101.33,122.63a3.06,3.06,0,0,1-.67,1.15l-.08.15,12.48-4.52a.76.76,0,0,0-.31-1.46l-13.38.89,0,0A3,3,0,0,1,101.33,122.63Z"/><path class="cls-1" d="M50.08,166.91V154.69a3.44,3.44,0,0,1,1.63-2.92L64,144.2a3.41,3.41,0,0,1,3.59,0L80.41,152A3.42,3.42,0,0,1,82.05,155v11.94"/><path class="cls-1" d="M55.65,166.91V155.26a.81.81,0,0,1,.81-.81H75.09a.8.8,0,0,1,.8.81v11.65"/><line class="cls-1" x1="55.65" y1="156.43" x2="75.89" y2="156.43"/><line class="cls-1" x1="55.65" y1="158.63" x2="75.89" y2="158.63"/><line class="cls-1" x1="55.65" y1="160.83" x2="75.89" y2="160.83"/><line class="cls-1" x1="55.65" y1="163.04" x2="75.89" y2="163.04"/><line class="cls-1" x1="55.65" y1="165.24" x2="75.89" y2="165.24"/><polygon class="cls-1" points="119.56 127.73 115.78 127.73 114.65 147.55 120.68 147.55 119.56 127.73"/><polygon class="cls-1" points="112.94 131.67 109.91 131.67 109.01 147.55 113.84 147.55 112.94 131.67"/><path class="cls-1" d="M123.83,167.44l0-23.54a.88.88,0,0,0-1.33-.77L116,146.94a.88.88,0,0,1-1.33-.77v-2.35a.89.89,0,0,0-1.31-.78L106,147a.89.89,0,0,1-1.31-.79v-2.36a.89.89,0,0,0-1.33-.77l-6.66,3.84a.89.89,0,0,1-1.33-.78l0-2.18a.89.89,0,0,0-1.37-.76l-6.67,4.24a.88.88,0,0,0-.42.75v19.23"/><line class="cls-1" x1="86.92" y1="165.43" x2="123.84" y2="165.43"/><line class="cls-1" x1="111.42" y1="131.38" x2="111.42" y2="128.71"/><circle class="cls-1" cx="111.42" cy="127.74" r="1.19"/><path class="cls-1" d="M90.87,167.65V157.44a.8.8,0,0,1,.81-.8h14.5a.8.8,0,0,1,.81.8v10.21"/><rect class="cls-1" x="110.62" y="154.66" width="3.97" height="3.97" rx="1.26"/><rect class="cls-1" x="116.72" y="154.66" width="3.97" height="3.97" rx="1.26"/><polyline class="cls-1" points="81.67 125.97 81.67 128.55 81.67 130.36"/><polyline class="cls-1" points="81.67 123.42 81.67 124.55 81.67 125.19"/><path class="cls-1" d="M69.87,118.9v-1.5A2.39,2.39,0,0,1,72.25,115h7c1.31,0,2.39,1.07,2.39,3v4.35"/><line class="cls-1" x1="69.87" y1="122.21" x2="69.87" y2="120.92"/><circle class="cls-1" cx="81.67" cy="131.7" r="1.19"/><rect class="cls-1" x="73.78" y="117.93" width="3.97" height="3.97" rx="1.26"/><circle class="cls-1" cx="86.89" cy="142.95" r="1.19"/><path class="cls-1" d="M86.82,141.53V136.6a1.72,1.72,0,0,0-1.71-1.71H71.89a1.72,1.72,0,0,0-1.71,1.71v6.75"/><rect class="cls-1" x="79.82" y="137.59" width="3.97" height="3.97" rx="1.26"/><rect class="cls-1" x="79.82" y="143.59" width="3.97" height="3.97" rx="1.26"/><rect class="cls-1" x="73.31" y="137.59" width="3.97" height="3.97" rx="1.26"/><path class="cls-1" d="M181.74,144.55a2.88,2.88,0,0,1,.84,2"/><line class="cls-1" x1="176.05" y1="143.71" x2="179.71" y2="143.71"/><line class="cls-1" x1="166.46" y1="143.71" x2="173.34" y2="143.71"/><path class="cls-1" d="M182.58,147.76a2.88,2.88,0,0,1-2.87,2.87"/><path class="cls-1" d="M179.71,157.55a2.89,2.89,0,0,1,2.87,2.88"/><polyline class="cls-1" points="172.19 164.47 167.74 164.47 166.46 164.47"/><line class="cls-1" x1="175.82" y1="164.47" x2="173.34" y2="164.47"/><path class="cls-1" d="M182.58,161.6a2.88,2.88,0,0,1-2.87,2.87h-1"/><path class="cls-1" d="M176.76,150.63h3a2.88,2.88,0,0,1,2.87,2.88"/><line class="cls-1" x1="168.47" y1="150.65" x2="172.19" y2="150.63"/><line class="cls-1" x1="169.48" y1="157.55" x2="166.46" y2="157.55"/><path class="cls-1" d="M182.58,154.68a2.88,2.88,0,0,1-2.87,2.87h-8.1"/><circle class="cls-1" cx="175.57" cy="150.63" r="1.19"/><path class="cls-1" d="M128.69,163.76A2.48,2.48,0,0,1,128,162"/><line class="cls-1" x1="133.52" y1="164.47" x2="130.41" y2="164.47"/><line class="cls-1" x1="139.82" y1="164.47" x2="135.81" y2="164.47"/><path class="cls-1" d="M128,161a2.45,2.45,0,0,1,2.44-2.44"/><path class="cls-1" d="M130.41,152.72a2.45,2.45,0,0,1-2.44-2.44"/><polyline class="cls-1" points="136.79 146.85 138.72 146.85 139.82 146.85"/><line class="cls-1" x1="133.71" y1="146.85" x2="135.81" y2="146.85"/><path class="cls-1" d="M128,149.29a2.44,2.44,0,0,1,2.44-2.44h.86"/><path class="cls-1" d="M132.91,158.6h-2.5a2.45,2.45,0,0,1-2.44-2.44"/><line class="cls-1" x1="138.11" y1="158.58" x2="136.8" y2="158.6"/><line class="cls-1" x1="139.1" y1="152.72" x2="139.82" y2="152.72"/><path class="cls-1" d="M128,155.16a2.45,2.45,0,0,1,2.44-2.44h6.88"/><circle class="cls-1" cx="134.11" cy="158.45" r="1.19"/><circle class="cls-1" cx="190.62" cy="158.74" r="1.19"/><path class="cls-1" d="M185.7,154.68v2.24s0,1.82,1.48,1.82h2.24"/><line class="cls-1" x1="185.7" y1="151.46" x2="185.7" y2="152.8"/><line class="cls-1" x1="185.7" y1="147.76" x2="185.7" y2="150.5"/><polyline class="cls-1" points="185.7 142.47 185.7 143.1 185.7 145.57 185.7 146.58"/><path class="cls-1" d="M182.16,132.82h1.15a2.39,2.39,0,0,1,2.39,2.38V141"/><polyline class="cls-1" points="178.33 132.82 179.67 132.82 180.97 132.82"/><polyline class="cls-1" points="173.79 132.82 175.82 132.82 177.39 132.82"/><path class="cls-1" d="M167.24,140.15v-5a2.39,2.39,0,0,1,2.38-2.38"/><rect class="cls-1" x="170.34" y="136.4" width="3.97" height="3.97" rx="1.26"/><rect class="cls-1" x="178.99" y="136.4" width="3.97" height="3.97" rx="1.26"/><circle class="cls-1" cx="148.72" cy="158.55" r="1.12"/><circle class="cls-1" cx="157.04" cy="141.98" r="1.12"/><path class="cls-1" d="M158.16,142h4.35a3.43,3.43,0,0,1,3.42,3.42"/><line class="cls-1" x1="152.19" y1="141.98" x2="154.94" y2="141.98"/><path class="cls-1" d="M165.93,146.79a3.43,3.43,0,0,1-3.42,3.42H143.29a3.43,3.43,0,0,1-3.42-3.42V145.4a3.43,3.43,0,0,1,3.42-3.42h8"/><path class="cls-1" d="M165.93,163.27a3.43,3.43,0,0,1-3.42,3.42H143.29a3.43,3.43,0,0,1-3.42-3.42v-1.4a3.43,3.43,0,0,1,3.42-3.42h19.22a3.43,3.43,0,0,1,3.42,3.42"/><path class="cls-1" d="M165.93,155a3.43,3.43,0,0,1-3.42,3.42H143.29a3.43,3.43,0,0,1-3.42-3.42v-1.4a3.43,3.43,0,0,1,3.42-3.42h19.22a3.43,3.43,0,0,1,3.42,3.42"/><rect class="cls-1" x="142.9" y="145.01" width="3.85" height="2.17" rx="1.09"/><rect class="cls-1" x="142.9" y="153.24" width="3.85" height="2.17" rx="1.09"/><rect class="cls-1" x="142.9" y="161.58" width="3.85" height="2.17" rx="1.09"/><path class="cls-1" d="M141,129.49H146a2.39,2.39,0,0,1,2.39,2.38v6a1.45,1.45,0,0,0,1.48,1.81h2.25"/><path class="cls-1" d="M132.53,135.28v-3.41a2.39,2.39,0,0,1,2.38-2.38h4.55"/><line class="cls-1" x1="132.53" y1="138.39" x2="132.53" y2="137.52"/><polyline class="cls-1" points="132.53 145.19 132.53 143.1 132.53 142.3 132.53 141.59 132.53 139.57"/><rect class="cls-1" x="135.27" y="133.08" width="3.97" height="3.97" rx="1.26"/><rect class="cls-1" x="141.65" y="133.08" width="3.97" height="3.97" rx="1.26"/><circle class="cls-1" cx="153.33" cy="139.73" r="1.19"/><line class="cls-1" x1="65.77" y1="143.51" x2="65.77" y2="141.83"/><circle class="cls-1" cx="65.77" cy="140.86" r="1.19"/><path class="cls-1" d="M425.94,114.62h9.38"/><path class="cls-1" d="M412.62,107.64a7,7,0,0,0,7,7h4.1"/><path class="cls-1" d="M413.8,103.76a6.83,6.83,0,0,0-1,2.29"/><path class="cls-1" d="M436.76,97.71a6.77,6.77,0,0,0-2.55-.49,7,7,0,0,0-2.31.4,5.7,5.7,0,0,0-1.78-3.25A5.76,5.76,0,0,0,428,93.16a5.53,5.53,0,0,0-1.69-.26,5.68,5.68,0,0,0-5.47,4.2,5.49,5.49,0,0,0-.19,1.47,6.4,6.4,0,0,0,.08,1,6,6,0,0,0,.39,1.28,7.06,7.06,0,0,0-1.54-.18,6.92,6.92,0,0,0-3.84,1.16s-.94.51-.94-.68V97"/><path class="cls-1" d="M446.11,102.41a6.09,6.09,0,0,0-1.22-.62,6.52,6.52,0,0,0-4.21-.17,7,7,0,0,0-2.83-3.37"/><circle class="cls-1" cx="496.15" cy="108.35" r="1.19"/><circle class="cls-1" cx="461.7" cy="147.67" r="1.19"/><circle class="cls-1" cx="414.84" cy="96.22" r="1.19"/><path class="cls-1" d="M486.92,103.25a9.16,9.16,0,0,1,1.76,2.42,9.06,9.06,0,0,1,.87,2.68h4.9"/><path class="cls-1" d="M438.41,106.22a8,8,0,0,1,4.58-2.58,7.64,7.64,0,0,1,1.36-.12,7.95,7.95,0,0,1,3,.59,9,9,0,0,1,1.09-3.49,9,9,0,0,1,6.22-4.51,9.07,9.07,0,0,1,8.1,2.45,7.85,7.85,0,0,1,1.47-3.36,7.81,7.81,0,0,1,6.28-3.13,7.87,7.87,0,0,1,7.72,6.29,7.5,7.5,0,0,1,.16,1.58,7.94,7.94,0,0,1,0,.85,9.29,9.29,0,0,1,7.63,1.63"/><path class="cls-1" d="M436.47,111.4a7.9,7.9,0,0,1,.5-2.76"/><path class="cls-1" d="M438.12,116.22a7.74,7.74,0,0,1-1.44-3"/><path class="cls-1" d="M444.35,119.28a7.92,7.92,0,0,1-5-1.79"/><path class="cls-1" d="M445.81,119.28l4.87,0,9.83,0s1.19,0,1.19,1.72v25.39"/><path class="cls-1" d="M477.58,119.13l-7.31,0c-2.91,0-2.79,0-5.94,0"/><path class="cls-1" d="M480.39,119.12a9.33,9.33,0,0,0,4.18-1"/><path class="cls-1" d="M489.67,109.84a9.22,9.22,0,0,1-1.42,4.93"/><path class="cls-1" d="M496.31,125.41a.76.76,0,0,1,1.5,0s2.25,32.39,2.25,32.86c0,1.64-6,1.63-6,0C494.06,157.8,496.31,125.41,496.31,125.41Z"/><path class="cls-1" d="M500.55,125.36l0,.19-.09.13a3,3,0,0,1-4.89,1.51l-.13,0-.07-.15a3,3,0,0,1,1.24-4.9l.05,0h.06a3,3,0,0,1,3.8,3.3Z"/><path class="cls-1" d="M498.49,127.8a3,3,0,0,0,2-2.12l.09-.13,2.29,13.6a.76.76,0,0,1-1.43.45l-6-12.46.13,0A3,3,0,0,0,498.49,127.8Z"/><path class="cls-1" d="M508.21,114.64l-7.63,10.91,0-.19a3,3,0,0,0-3.8-3.3h-.06l10.43-8.43A.76.76,0,0,1,508.21,114.64Z"/><path class="cls-1" d="M494.72,125.85a3,3,0,0,0,.68,1.14l.07.15L483,122.63a.76.76,0,0,1,.31-1.46l13.38.89-.05,0A3,3,0,0,0,494.72,125.85Z"/><polygon class="cls-1" points="472.76 125.88 476.54 125.88 477.67 145.7 471.63 145.7 472.76 125.88"/><polygon class="cls-1" points="479.38 129.82 482.41 129.82 483.31 145.7 478.48 145.7 479.38 129.82"/><path class="cls-1" d="M468.48,165.59l-.05-23.54a.89.89,0,0,1,1.34-.78l6.54,3.82a.89.89,0,0,0,1.33-.77V142a.89.89,0,0,1,1.31-.78l7.38,4a.89.89,0,0,0,1.31-.78V142a.89.89,0,0,1,1.33-.77l6.67,3.84a.89.89,0,0,0,1.33-.78l0-2.18a.89.89,0,0,1,1.36-.77l6.68,4.25a.87.87,0,0,1,.41.75v19.23"/><line class="cls-1" x1="505.39" y1="163.58" x2="468.48" y2="163.58"/><line class="cls-1" x1="480.89" y1="129.53" x2="480.89" y2="126.86"/><circle class="cls-1" cx="480.89" cy="125.89" r="1.19"/><path class="cls-1" d="M501.45,165.8V155.59a.8.8,0,0,0-.81-.8H486.13a.8.8,0,0,0-.8.8V165.8"/><rect class="cls-1" x="477.73" y="152.8" width="3.97" height="3.97" rx="1.26" transform="translate(959.42 309.58) rotate(-180)"/><rect class="cls-1" x="471.63" y="152.8" width="3.97" height="3.97" rx="1.26" transform="translate(947.23 309.58) rotate(-180)"/><polygon class="cls-1" points="290.9 179.26 293.9 177.52 307.96 180.53 304.93 182.28 290.9 179.26"/><polygon class="cls-1" points="290.9 179.26 304.93 182.28 304.93 182.28 304.93 182.28 301.05 185.93 290.9 180.07 290.9 179.26"/><polygon class="cls-1" points="325 195.47 325 196.28 322 198.03 322 197.22 325 195.47"/><polygon class="cls-1" points="307.96 180.53 322 177.52 325 179.26 310.97 182.28 307.96 180.53"/><polygon class="cls-1" points="310.97 182.28 310.97 182.28 325 179.26 325 180.07 314.85 185.93 310.97 182.28 310.97 182.28"/><polygon class="cls-1" points="310.97 182.28 314.85 185.93 325 195.47 322 197.22 307.96 184.02 310.97 182.28"/><polygon class="cls-1" points="293.9 198.03 290.9 196.28 290.9 195.47 293.9 197.22 293.9 198.03"/><polygon class="cls-1" points="301.05 185.93 304.93 182.28 307.96 184.02 293.9 197.22 290.9 195.47 301.05 185.93"/><polygon class="cls-1" points="304.93 182.28 304.93 155.03 307.96 155.03 307.96 184.02 307.96 184.02 304.93 182.28"/><polygon class="cls-1" points="310.97 182.28 307.96 184.02 307.96 155.03 310.97 155.03 310.97 182.28"/><polygon class="cls-1" points="307.96 184.02 307.96 189.91 293.9 198.03 293.9 197.22 307.96 184.02"/><polygon class="cls-1" points="307.96 184.02 322 197.22 322 198.03 307.96 189.91 307.96 184.02"/><path class="cls-1" d="M350.19,129.57a36.22,36.22,0,0,1-7.39,20.57c-10.37,13-28.7,18.59-44.9,14.84-8.18-1.89-16.07-6.16-20.87-13-14.36-20.57,5.4-32.59,17.68-45.35,3.66-3.8,13.88-50.07,18.08-53.08C339.45,34.38,351.76,103.78,350.19,129.57Z"/><path class="cls-1" d="M268.14,184.83l-7.38-.53a42,42,0,0,1-.46,7.71s-1.25,7-4.11,7.86l-8.4,3.39,9.45.84,12.34-4.95-1.6-7.32S267.9,188.34,268.14,184.83Z"/><path class="cls-2" d="M244.72,206.88a2.16,2.16,0,0,0,.59,1c2.62,1.25,8.81.22,10.73-.43,9.89-3.33,13-4.82,14.62-6.73a7.64,7.64,0,0,0-.2-1.95C263.94,204.33,253.6,208.29,244.72,206.88Z"/><path class="cls-2" d="M270.46,198.75a23.73,23.73,0,0,0-1.8-5.28s-7.25,2-9.27.73c0,0-7.79,7-10.94,8.29-4.17,1.73-2.34.95-3.53,1.61a4,4,0,0,0-.2,2.78C253.6,208.29,263.94,204.33,270.46,198.75Z"/><path class="cls-1" d="M285,209.52s0,5.14-4.59,10.33l-1.33,6.77,9.51.37,3.84-9,.25-8.69S285.34,207.84,285,209.52Z"/><path class="cls-1" d="M281.69,218.25c.09-.17.05-.13-.06,0S281.62,218.4,281.69,218.25Z"/><path class="cls-2" d="M279.82,228.33c-.65-.65-2.33-1.31-2.6-2.77-.17,1.59,1.36,3.07,2.65,3.76,2.85,1.73,5.73,1.11,8.73.28a4.22,4.22,0,0,0,2.88-2.92A10.06,10.06,0,0,1,279.82,228.33Z"/><path class="cls-2" d="M293.72,218.21s.73-1.23-1.1-5.67c0,.38-1,.77-1.26,1.52-.36,1.11-4.89.59-6.87-1.52-.51-.55-2.67,5-2.86,5.74.11-.16.15-.2.06,0s-.09.14-.06,0c-.55.79-3.17,5-3.95,6.08a2.49,2.49,0,0,0-.46,1.2c.27,1.46,1.95,2.12,2.6,2.77a10.06,10.06,0,0,0,11.66-1.65,10.36,10.36,0,0,0,.41-1.52A41.71,41.71,0,0,1,293.72,218.21Z"/><path class="cls-1" d="M323.43,117.09l-25.86-5.37c-4.36,2.21-30.88,15.74-33.06,16.69-3.37,1.46-5,4-6.93,7-1.46,2.33-1.15,5.11-1.26,7.78,0,3.41-.11,6.65.16,10s2.62,38.34,3,38.51c3.06,1.26,6.31,1.31,9.76,1.46q1-8.73,1.91-17.46.58-5.3,1.16-10.6a61.74,61.74,0,0,0,.35-13.72c-.09-.79-1.22-6.69-.5-7L284.54,139a13.11,13.11,0,0,0-4.91,7.52c-.77,3.45-.09,8.19.65,11.63,1.8,8.36,1.34,17.26,1.63,25.77q.43,13.2,1,26.39c.22,1.51,10,1.71,10.25.49,4.57-23.85,6.74-58,6.4-57.51,10.06-4.58,18.34-10.11,21-13s3.38-7.37,3.45-11.32C324.05,127.8,323,117.26,323.43,117.09Z"/><path class="cls-1" d="M277,85.28a35.81,35.81,0,0,1-1,15.12c-1.43,5.11-7.28,12.89-6.36,16.76l5.1-4.19s12.52-3.26,13-11.56c0,0,1.59-2.37,1.1-11.64A107.23,107.23,0,0,1,277,85.28Z"/><path class="cls-2" d="M323.43,117.09c-.17.45-11.56,2.11-24.49.76-3.44-.36-11.39,1.89-13.41-1.27-1.52-2.37-.76-6.37,0-9a24,24,0,0,0,.75-8.09c0-.87.82-8.1.55-8.23-2.42-1.21-7.2-1.19-11.71-5.37a58.91,58.91,0,0,1,.82-5.92c2.05-8.47,6.15-11.15,7.43-12.44,1.83-1.64,6.37-3.19,16.58-5.79,0,0,10.36-.83,18.11,1.7,2.6.85,10.84,5.23,14.72,9.8a17.47,17.47,0,0,1,3.33,18s-5.76,3-10.64,2C325.47,93.24,328.3,103.92,323.43,117.09Z"/><path class="cls-2" d="M308.08,131.71l-15.62,9V142l15.62-9a1.13,1.13,0,0,0,.61-.95v-1.3A1.14,1.14,0,0,1,308.08,131.71Z"/><path class="cls-1" d="M260.06,123.28s0,1.3,0,1.31a.82.82,0,0,0,.09.35,1.35,1.35,0,0,0,.56.55L289.31,142v-1.3S260.05,123.36,260.06,123.28Z"/><path class="cls-1" d="M289.31,140.71h3.15V142l-.28.14a3.48,3.48,0,0,1-1.16.24,3.75,3.75,0,0,1-1.15-.15,2.53,2.53,0,0,1-.56-.23Z"/><path class="cls-2" d="M260.7,122.37a1,1,0,0,0,0,1.82l28.6,16.52a3.49,3.49,0,0,0,3.15,0l15.62-9a1,1,0,0,0,0-1.87l-28.61-16.52a3.41,3.41,0,0,0-3.11.05Z"/><path class="cls-1" d="M335.14,89.28,321,92.05s-1.09,13.73,0,22.6l-23.78,11.24-3.69-1.75a1.11,1.11,0,0,0-1,0c-1.17.68-4,2.35-4.81,3l1.19,8.24,2.47-2.57,3.08.15a2.35,2.35,0,0,0,1.27-.29l3.7-2.05c7.49-1.41,15-2.72,22.27-5.22,1.19-.42,2.34-1,3.5-1.46,1.83-.81,4.15-1.57,5.3-3.28,1.56-2.32,2.43-5.54,3.28-8.18a50.74,50.74,0,0,0,2.63-18A11.87,11.87,0,0,0,335.14,89.28Z"/><path class="cls-2" d="M320,86.2l.09,8.51s12.35,1.37,16.38-1.19a26.32,26.32,0,0,0,.36-12.35"/><path class="cls-2" d="M291.81,141.28V117.81l1.13-.65v23.46a1.13,1.13,0,0,1-.52,1l-1.13.65A1.12,1.12,0,0,0,291.81,141.28Z"/><path class="cls-2" d="M260.51,98.46l1.14-.66a1,1,0,0,1,.34-.1,1.5,1.5,0,0,1,.77.22l28.6,16.51-1.12.66S260.58,98.42,260.51,98.46Z"/><path class="cls-2" d="M291.36,114.43a2.8,2.8,0,0,1,.48.37,3.59,3.59,0,0,1,.71.93,3.36,3.36,0,0,1,.37,1.12c0,.1,0,.21,0,.31l-1.13.65-1.57-2.72Z"/><path class="cls-2" d="M260.05,99.48c0-1,.71-1.41,1.58-.91l28.61,16.52a3.46,3.46,0,0,1,1.57,2.72v23.47c0,1-.77,1.4-1.65.89l-28.6-16.52a3.39,3.39,0,0,1-1.51-2.71Z"/><path class="cls-1" d="M318.91,64.71c-.48-3.81.74-23.09.74-23.09L300,39.88l-.51,10.66,3.14,10.35a22.21,22.21,0,0,1-1.66,1.53c-.83.84.33,3.56,1.51,4.64a11.23,11.23,0,0,0,7.74,2.74,16.66,16.66,0,0,0,6.58-1.39A3.76,3.76,0,0,0,318.91,64.71Z"/><path class="cls-1" d="M317.53,53.26l1.84,3.23,1.45-14.93c.18-3-5.45-5.88-8.38-6.3-2.73-.38-4.28-.33-10.06.57-1.54.24-4.57,1.88-4.16,4.25l1.91,1.47L304,42l8.23-.88,1.8,6.46,2-.44.7,3.2-1.91,5.24-3.46,2.53c-.26.37-5.14-1.59-6.35-1.63l-1.19.07c-1,0-.63,1.82-1.46,1.29l-.95-.61-.28,2.51a2.41,2.41,0,0,0,.11,1l1,3.06a2.08,2.08,0,0,0,1.74,1.4l5.77.63a3.55,3.55,0,0,0,3-1.1l4.6-4.85V55.31Z"/><path class="cls-1" d="M303.37,48.93c.07.24-1.28,5.22-1.28,5.22l.73.7,1.38-.64Z"/><path class="cls-1" d="M380.82,149.46c-5.58,1.08-11.3-2.05-14.89-6.45s-5.48-9.92-7.3-15.3l-4.45-13.19a16.64,16.64,0,0,1-1.26-6.64c.21-2.27,1.61-4.58,3.82-5.12,1.92-.46,4,.5,5.91-.05,2.38-.68,3.55-3.49,3.44-6s-1.16-4.8-1.71-7.22a19.17,19.17,0,0,1,7.79-19.74,9.67,9.67,0,0,1,4.6-1.81,5,5,0,0,1,4.42,1.82c2.49,3.41-1.12,9.29,2.09,12,1.61,1.37,4.08,1,6,.12s3.72-2.18,5.82-2.48c4.49-.64,8.44,3.88,8.73,8.42s-2,8.8-4.67,12.5-5.68,7.23-7.18,11.51a7.49,7.49,0,0,0-.45,4,3.46,3.46,0,0,0,2.68,2.78c2.65.39,4.56-3.06,7.23-3,2.43.06,3.74,2.9,4.1,5.3a25,25,0,0,1-7.19,21.24C392.78,147.66,380.82,149.46,380.82,149.46Z"/><polyline class="cls-3" points="376.15 179.02 376.15 147.38 391.53 132"/><polyline class="cls-4" points="376.15 179.02 376.15 147.38 391.53 132"/><polyline class="cls-3" points="376.15 142.74 376.15 111.09 391.53 95.72"/><polyline class="cls-4" points="376.15 142.74 376.15 111.09 391.53 95.72"/><polyline class="cls-3" points="376.2 164.48 376.2 132.84 360.82 117.46"/><polyline class="cls-4" points="376.2 164.48 376.2 132.84 360.82 117.46"/><line class="cls-3" x1="376.2" y1="115.35" x2="376.2" y2="83.7"/><line class="cls-4" x1="376.2" y1="115.35" x2="376.2" y2="83.7"/><path class="cls-1" d="M353.22,176.48a23.72,23.72,0,0,0,47.44,0Z"/><path class="cls-5" d="M202.4,203.29l-11.69-8.52c-1.48-.58-4.59-.44-6.63.15a2,2,0,0,0-1.43,2.11l.16,2.05c.13,3,.45,3.35,2.41,4.12l11.61,4.54a6.89,6.89,0,0,0,6.14-.67l.4-.33C204.79,205.61,204.35,204.05,202.4,203.29Z"/><path class="cls-5" d="M174.52,212.63,166,202.54a11.76,11.76,0,0,0-5.94-1.31,1.86,1.86,0,0,0-1.73,1.57l-.3,1.86c-.53,2.66-.32,3.08,1.25,4.18l9.36,6.55a6.33,6.33,0,0,0,5.61.73l.42-.2C176.15,215.22,176.1,213.74,174.52,212.63Z"/><polygon class="cls-5" points="157.74 208.16 158.84 211.61 162.1 212.84 162.1 210.81 157.74 208.16"/><polygon class="cls-5" points="183.38 201.89 184.48 205.34 187.74 206.56 187.74 204.54 183.38 201.89"/><path class="cls-1" d="M194.22,86.49l-7.36,1.83s-7.13,15-7.13,32.34c0,8.69,3.05,22.6,2.92,30.07,0,.71-1.31,9.89-1.31,11.49,0,14.21,2.28,28.67,2.24,33,.19.93,4.87,1.94,6.25,1,2.93-14.67,3.78-31.41,4.85-47C196.64,125.74,194.22,86.49,194.22,86.49Z"/><path class="cls-1" d="M195.38,83.56,188,85.4l-22.57.29s-4.78,9.23-4.78,19.23S163,156.68,163,156.73c-6.64,18.92-4.62,44.51-3.83,46s5.06,2.83,6.12.69,5.25-24.87,8.93-40c4.21-17.34,5.8-32.18,7.69-40.41.43,0,2.6-2.06,3.7-4.91"/><path class="cls-3" d="M213.23,75.1a6.14,6.14,0,0,1-3.24-1c-8-5-14-24.27-14.07-24.46-3.65-4.78-12.4-17.46-9.56-19.73a5.47,5.47,0,0,1,3.43-1.08c5,0,11.58,5,15.34,19.06,4.28,16,13.25,17.7,16.91,17.7a7.15,7.15,0,0,0,.91,0c-.82,1.86-4.57,9.57-9.72,9.57Z"/><path class="cls-6" d="M189.79,29.07c4.86,0,11.37,5,15.1,18.88,4.32,16.13,13.43,17.88,17.15,17.88l.51,0c-1.07,2.32-4.61,9-9.32,9a5.92,5.92,0,0,1-3.11-1c-7.94-5-13.9-24.13-14-24.32l-.08-.16s-3.3-4.31-6.08-8.87c-4.89-8-4.07-10-3.49-10.43a5.2,5.2,0,0,1,3.28-1m0-.5a5.7,5.7,0,0,0-3.59,1.14c-3.65,2.91,9.48,20,9.48,20s6,19.48,14.18,24.6a6.29,6.29,0,0,0,3.37,1c6.07,0,10.13-10.12,10.13-10.12a7.29,7.29,0,0,1-1.32.1c-3.39,0-12.4-1.57-16.67-17.51-4-14.79-10.89-19.25-15.58-19.25Z"/><path class="cls-5" d="M195.38,83.56c3.19-12.19,2.94-8.4,4.21-23.71,3.53-1.34,3.77-9.18,2-11.07-8.07-8.79-5-19.7-16.65-20.4,0,0-18,4.11-27.82,16-1.6,6.36-1.16,18.93,7.91,42.16C166,88.89,192.13,91.18,195.38,83.56Z"/><path class="cls-3" d="M215.26,79.8a2,2,0,0,1-1.68-.74l-.55-.79a2,2,0,0,1-.1-1.82,4.16,4.16,0,0,1,1.57-1.92l3.32-2.29a4.21,4.21,0,0,1,2.34-.79,2,2,0,0,1,1.68.75l.54.79a1.94,1.94,0,0,1,.11,1.82,4.21,4.21,0,0,1-1.57,1.92L217.6,79A4.2,4.2,0,0,1,215.26,79.8Z"/><path class="cls-7" d="M220.16,71.7h0a1.7,1.7,0,0,1,1.47.64l.55.79a1.53,1.53,0,0,1,.2,1.16,3.72,3.72,0,0,1-1.6,2.23l-3.32,2.29a4,4,0,0,1-2.2.74,1.69,1.69,0,0,1-1.47-.63l-.55-.79A1.53,1.53,0,0,1,213,77a3.74,3.74,0,0,1,1.6-2.24L218,72.45a4,4,0,0,1,2.2-.75m0-.5a4.48,4.48,0,0,0-2.48.83l-3.32,2.29c-1.62,1.12-2.31,3-1.53,4.09l.55.79a2.19,2.19,0,0,0,1.88.85,4.41,4.41,0,0,0,2.48-.83l3.32-2.28c1.62-1.12,2.31-3,1.53-4.09l-.55-.79a2.19,2.19,0,0,0-1.88-.86Z"/><path class="cls-3" d="M234.86,63.86h0a.37.37,0,0,1-.18.24l-27.12,17a1.4,1.4,0,0,1-1.26,0l-13.54-7.19a.58.58,0,0,1-.31-.34h0l0,.83h0a.51.51,0,0,0,.32.39L206.31,82a1.41,1.41,0,0,0,1.25,0l27.13-17a.47.47,0,0,0,.19-.24h0Z"/><path class="cls-5" d="M234.55,63.38,221,56.19a1.4,1.4,0,0,0-1.26,0l-27.12,17a.34.34,0,0,0-.19.38.58.58,0,0,0,.31.34l13.54,7.19a1.4,1.4,0,0,0,1.26,0l27.12-17a.37.37,0,0,0,.18-.24C234.89,63.69,234.8,63.51,234.55,63.38Z"/><path class="cls-3" d="M205.29,70.85l6.56-4.11c.08,0,.06-.12,0-.17l-3.28-1.74a.32.32,0,0,0-.3,0l-6.56,4.11c-.08,0-.07.12,0,.17L205,70.85A.34.34,0,0,0,205.29,70.85Z"/><path class="cls-3" d="M178.31,86.63c-4.62,0-8.14-1.41-10.2-4.08-11-14.27-13.27-31.22-11.45-36.7a3.86,3.86,0,0,1,3.9-2.89,8.46,8.46,0,0,1,6.8,4c2,4,10.87,26.74,11,27l.14.14a35,35,0,0,0,11.62,2.25,18.2,18.2,0,0,0,7-1.27l.15-.19A2.76,2.76,0,0,1,198.47,73l5-3.17A2.7,2.7,0,0,1,205,69.4a2.74,2.74,0,0,1,2.33,1.27L208.77,73a2.76,2.76,0,0,1-.85,3.78l-5,3.18a2.75,2.75,0,0,1-2.56.19h-.21C191.52,84.46,184.18,86.63,178.31,86.63Z"/><path class="cls-6" d="M160.56,43.21a8.33,8.33,0,0,1,6.58,3.85c2,4,10.86,26.72,11,27l.28.29a35,35,0,0,0,11.71,2.26,18.35,18.35,0,0,0,7.12-1.29l.3-.38a2.45,2.45,0,0,1,1.11-1.69l5-3.17a2.51,2.51,0,0,1,1.33-.38,2.47,2.47,0,0,1,2.11,1.16l1.49,2.35a2.5,2.5,0,0,1-.78,3.44l-5,3.17a2.43,2.43,0,0,1-1.33.39,2.46,2.46,0,0,1-1-.21H200c-8.56,4.26-15.86,6.42-21.69,6.42-4.54,0-8-1.38-10-4-11-14.21-13.22-31-11.41-36.47a3.63,3.63,0,0,1,3.66-2.72h0m0-.5a4.09,4.09,0,0,0-4.13,3.06c-1.89,5.67.54,22.74,11.48,36.93,2,2.64,5.51,4.18,10.4,4.18,5.52,0,12.83-2,21.92-6.47a3.11,3.11,0,0,0,1.2.25A3,3,0,0,0,203,80.2l5-3.18a3,3,0,0,0,.93-4.13l-1.48-2.35A3,3,0,0,0,205,69.15a3,3,0,0,0-1.59.46l-5,3.17a3,3,0,0,0-1.34,2,17.93,17.93,0,0,1-6.92,1.25,34.6,34.6,0,0,1-11.52-2.23s-8.95-23-11-27a8.76,8.76,0,0,0-7-4.13Z"/><path class="cls-3" d="M186.53,49.79c-2.65,0-6.62-2.39-10.82-4.92-3.44-2.07-7-4.22-10.14-5.24a33.08,33.08,0,0,1,4.82-2.31c3.1-1.33,3.53-1.56,3.54-1.88l.66-11.3c0-1.95,2.83-3.62,5.06-3.62h.11c2,0,5.61,1,5.55,3.17l.84,8.24a1,1,0,0,0,1.11,1,5.51,5.51,0,0,0,1.42-.29,5.79,5.79,0,0,1,1.55-.32,1.11,1.11,0,0,1,1.15.82c.91,2.47.05,10.31-1.95,14.35a4,4,0,0,1-1.91,2.16,3.44,3.44,0,0,1-1,.13Z"/><path class="cls-6" d="M179.65,20.78h.11c2.19.06,5.35,1.13,5.3,2.91v.07L185.9,32a1.29,1.29,0,0,0,1.36,1.19,5.87,5.87,0,0,0,1.49-.3,5.76,5.76,0,0,1,1.48-.31.85.85,0,0,1,.91.65c.9,2.43.05,10.16-1.93,14.15-.58,1.16-1.19,1.86-1.77,2a3.18,3.18,0,0,1-.91.12c-2.58,0-6.52-2.37-10.7-4.89a58,58,0,0,0-9.71-5.09c.93-.54,3-1.44,4.36-2,3.37-1.45,3.68-1.63,3.69-2.09l.67-11.32c0-1.81,2.69-3.36,4.81-3.36m0-.5c-2.23,0-5.25,1.65-5.31,3.85l-.66,11.3c0,.5-9.74,4-8.3,4.4,7,2.22,16.2,10.21,21.15,10.21a3.62,3.62,0,0,0,1.06-.14c3.32-1,5.27-13.45,4-16.84a1.34,1.34,0,0,0-1.38-1c-1,0-2.17.61-3,.61a.78.78,0,0,1-.86-.77l-.84-8.21c.06-2.25-3.55-3.37-5.79-3.43Z"/><path class="cls-5" d="M186.4,37.67s5-15.76,2.35-23.36l3.67-.69S197.29,30.84,186.4,37.67Z"/><path class="cls-3" d="M183.2,32.24A11.86,11.86,0,0,1,175.49,29a5.15,5.15,0,0,1-1.56-3.87c.26-5.66.94-11.9,5.69-14.36a9.48,9.48,0,0,1,4.32-1,8.38,8.38,0,0,1,6,2.27,5,5,0,0,1,1.41,3.8c-.11,2.4-1,14.46-7.06,16.25A3.74,3.74,0,0,1,183.2,32.24Z"/><path class="cls-6" d="M183.94,10a8.14,8.14,0,0,1,5.82,2.19,4.7,4.7,0,0,1,1.34,3.62,36.49,36.49,0,0,1-1.68,9.58c-1.25,3.63-3,5.79-5.2,6.44a3.61,3.61,0,0,1-1,.12,11.73,11.73,0,0,1-7.53-3.13,4.91,4.91,0,0,1-1.49-3.69c.26-5.59.92-11.75,5.56-14.15a9.21,9.21,0,0,1,4.2-1m0-.5a9.62,9.62,0,0,0-4.43,1c-4.95,2.56-5.57,9-5.83,14.56-.22,4.87,6.21,7.35,9.52,7.35a4.23,4.23,0,0,0,1.16-.14c5.34-1.57,7-11,7.24-16.48.19-4-3.65-6.33-7.66-6.33Z"/><path class="cls-5" d="M172.68,4.36c-4.28,2.89-8.78,8.83-10.74,22.73C159.7,43,176,42.46,176,42.46c-6.5-5.62-4.28-14-.11-21.31a16,16,0,0,0,6.89-3.66,17,17,0,0,0,4-5.38,7.76,7.76,0,0,1,4.76,5.4C196.35,10.26,182.64-2.36,172.68,4.36Z"/><path class="cls-5" d="M207.61,63.06a3,3,0,0,1,1.21-2l26.93-16.61a.7.7,0,0,1,.61-.12h0a.33.33,0,0,1,.15.11l.94.92-.83,0-2,17a3,3,0,0,1-1.2,2L207.94,80l-.81,1-.09.24c-.53.13-1.82-.72-1.82-.72Z"/><path class="cls-5" d="M207.48,81.91l26.94-16.62a3,3,0,0,0,1.21-2l2-17.18c.08-.73-.32-1-.9-.68L209.83,62.07a3.05,3.05,0,0,0-1.21,2l-2,17.18C206.5,82,206.9,82.26,207.48,81.91Z"/></svg>
