<?xml version="1.0" encoding="UTF-8"?>
<svg width="114px" height="117px" viewBox="0 0 114 117" version="1.1" xmlns="http://www.w3.org/2000/svg" xmlns:xlink="http://www.w3.org/1999/xlink">
    <!-- Generator: sketchtool 61.2 (101010) - https://sketch.com -->
    <title>94E45377-51BD-4B1A-8151-F5FE326A75F0</title>
    <desc>Created with sketchtool.</desc>
    <g id="PRICING---Grid-Novo" stroke="none" stroke-width="1" fill="none" fill-rule="evenodd">
        <g id="PRICING-home" transform="translate(-142.000000, -2436.000000)" stroke="#F3652B">
            <g id="Icon_Marketplace" transform="translate(142.000000, 2436.000000)">
                <path d="M0,3.00576457 L9.52082431,3.00576457 C9.52082431,3.00576457 15.9899558,2.48520975 18.2130055,11.3375177 C21.467573,24.2794884 35.6002251,80.499409 35.6002251,80.499409 C35.6002251,80.499409 36.1945623,88 52.4045372,88 L99,88" id="Stroke-1"></path>
                <path d="M60,107.5 C60,112.196223 56.1956139,116 51.5013607,116 C46.8043861,116 43,112.196223 43,107.5 C43,102.806498 46.8043861,99 51.5013607,99 C56.1956139,99 60,102.806498 60,107.5 Z" id="Stroke-3"></path>
                <path d="M91,107.5 C91,112.196223 87.1962228,116 82.5,116 C77.8037772,116 74,112.196223 74,107.5 C74,102.806498 77.8037772,99 82.5,99 C87.1962228,99 91,102.806498 91,107.5 Z" id="Stroke-5"></path>
                <path d="M97.3051986,66 L36.4906783,66 C33.0347601,66 31.1579612,63.055675 30.2110567,59.5734978 L21,23.4265022 C21,19.8916487 23.8265385,17 27.2796216,17 L106.720378,17 C110.176297,17 113,19.8916487 113,23.4265022 L103.58482,59.5734978 C102.89874,62.4845536 100.758282,66 97.3051986,66 Z" id="Stroke-7"></path>
                <line x1="68.5" y1="0" x2="68.5" y2="53" id="Stroke-9"></line>
                <polyline id="Stroke-11" points="53 36.3228786 68.8480211 53 85 36"></polyline>
            </g>
        </g>
    </g>
</svg>