<svg width="142" height="40" viewBox="0 0 142 40" fill="none" xmlns="http://www.w3.org/2000/svg">
    <path fill-rule="evenodd" clip-rule="evenodd" d="M49.112 13L34.4057 25.381L34 27.5122H36.1188L47.5106 17.9264L45.6745 27.5122H48.4534L51.2332 13H49.112Z" fill="#F3652B"/>
    <path fill-rule="evenodd" clip-rule="evenodd" d="M76.6879 13L73.9084 27.5122H88.3622L91.1417 13H76.6879ZM78.9457 15.742H87.8299L86.1008 24.7703H77.2165L78.9457 15.742Z" fill="#F3652B"/>
    <path fill-rule="evenodd" clip-rule="evenodd" d="M71.1879 13L68.4666 27.5122H71.1873L73.9086 13H71.1879Z" fill="#F3652B"/>
    <path fill-rule="evenodd" clip-rule="evenodd" d="M105.596 13L104.363 19.4379L106.607 22.2284L108.375 13H105.596ZM93.9213 13L91.1418 27.5122H93.9223L95.8273 17.5635L103.857 27.5122H105.596L105.939 25.7356L95.6593 13H93.9213Z" fill="#F3652B"/>
    <path fill-rule="evenodd" clip-rule="evenodd" d="M54.0127 13L53.4875 15.742H63.0858L51.6444 25.3756L51.2332 27.5122H65.6869L66.2121 24.7702H56.6138L68.0577 15.1345L68.4664 13H54.0127Z" fill="#F3652B"/>
</svg>
