<svg viewBox="0 0 348 322" fill="none" xmlns="http://www.w3.org/2000/svg">
<path d="M116.247 50.5006V64.9293C116.247 64.9293 109.292 138.938 163.514 155.109" stroke="#F7F7F7" stroke-width="9" stroke-miterlimit="10" stroke-linecap="round" stroke-linejoin="round"/>
<path d="M258.435 266.557V252.128C258.435 252.128 265.39 178.119 211.168 161.949" stroke="#F7F7F7" stroke-width="9" stroke-miterlimit="10" stroke-linecap="round" stroke-linejoin="round"/>
<path d="M261.526 59.4563L302.354 88.3136L262.299 116.425" stroke="#F7F7F7" stroke-width="9" stroke-miterlimit="10" stroke-linecap="round" stroke-linejoin="round"/>
<path d="M88.6846 231.605H118.693C118.693 231.605 150.248 234.217 175.878 209.34C194.553 191.304 192.106 155.108 192.106 155.108C192.106 88.3135 261.525 88.3135 261.525 88.3135H291.534" stroke="#F7F7F7" stroke-width="9" stroke-miterlimit="10" stroke-linecap="round" stroke-linejoin="round"/>
<path d="M118.565 260.587L77.7378 231.73L117.664 203.494" stroke="#F7F7F7" stroke-width="9" stroke-miterlimit="10" stroke-linecap="round" stroke-linejoin="round"/>
<path d="M86.4961 85.9501L116.376 46.3956L145.483 85.0794" stroke="#F7F7F7" stroke-width="9" stroke-miterlimit="10" stroke-linecap="round" stroke-linejoin="round"/>
<path d="M288.315 231.356L258.435 270.911L229.199 232.227" stroke="#F7F7F7" stroke-width="9" stroke-miterlimit="10" stroke-linecap="round" stroke-linejoin="round"/>
<path d="M302.353 130.604L343.309 159.461L303.255 187.572" stroke="#F7F7F7" stroke-width="9" stroke-miterlimit="10" stroke-linecap="round" stroke-linejoin="round"/>
<path d="M343.31 159.461H279.943" stroke="#F7F7F7" stroke-width="9" stroke-miterlimit="10" stroke-linecap="round" stroke-linejoin="round"/>
<path d="M152.181 44.5298L182.061 4.97534L211.297 43.6591" stroke="#F7F7F7" stroke-width="9" stroke-miterlimit="10" stroke-linecap="round" stroke-linejoin="round"/>
<path d="M182.061 4.97534V66.1729" stroke="#F7F7F7" stroke-width="9" stroke-miterlimit="10" stroke-linecap="round" stroke-linejoin="round"/>
<path d="M61.7673 187.946L20.811 159.089L60.8658 130.978" stroke="#F7F7F7" stroke-width="9" stroke-miterlimit="10" stroke-linecap="round" stroke-linejoin="round"/>
<path d="M20.811 159.089H84.1774" stroke="#F7F7F7" stroke-width="9" stroke-miterlimit="10" stroke-linecap="round" stroke-linejoin="round"/>
<path d="M213.357 277.254L183.477 316.684L154.37 278" stroke="#F7F7F7" stroke-width="9" stroke-miterlimit="10" stroke-linecap="round" stroke-linejoin="round"/>
<path d="M183.477 316.684V255.487" stroke="#F7F7F7" stroke-width="9" stroke-miterlimit="10" stroke-linecap="round" stroke-linejoin="round"/>
<path d="M302.354 236.705V228.247" stroke="#F3652B" stroke-width="2" stroke-miterlimit="10" stroke-linecap="round" stroke-linejoin="round"/>
<path d="M302.354 228.247C304.559 228.247 306.346 226.521 306.346 224.391C306.346 222.262 304.559 220.535 302.354 220.535C300.149 220.535 298.361 222.262 298.361 224.391C298.361 226.521 300.149 228.247 302.354 228.247Z" stroke="#F3652B" stroke-width="2" stroke-miterlimit="10" stroke-linecap="round" stroke-linejoin="round"/>
<path d="M259.594 294.544C263.648 294.544 266.935 291.37 266.935 287.454C266.935 283.538 263.648 280.364 259.594 280.364C255.539 280.364 252.252 283.538 252.252 287.454C252.252 291.37 255.539 294.544 259.594 294.544Z" stroke="#F3652B" stroke-width="2" stroke-miterlimit="10" stroke-linecap="round" stroke-linejoin="round"/>
<path d="M311.112 294.793C318.367 294.793 324.248 289.057 324.248 281.981C324.248 274.905 318.367 269.169 311.112 269.169C303.856 269.169 297.975 274.905 297.975 281.981C297.975 289.057 303.856 294.793 311.112 294.793Z" stroke="#F3652B" stroke-width="2" stroke-miterlimit="10" stroke-linecap="round" stroke-linejoin="round"/>
<path d="M325.794 266.558C329.4 269.792 330.688 273.274 330.688 273.274" stroke="#F3652B" stroke-width="2" stroke-miterlimit="10" stroke-linecap="round" stroke-linejoin="round"/>
<path d="M314.073 261.333C315.103 261.458 316.133 261.707 317.035 261.955C318.065 262.204 318.967 262.577 319.868 262.95C320.512 263.199 321.156 263.448 321.672 263.821C322.187 264.07 322.573 264.319 323.088 264.692" stroke="#F3652B" stroke-width="2" stroke-miterlimit="10" stroke-linecap="round" stroke-linejoin="round"/>
<path d="M303.771 262.328C305.058 261.831 306.346 261.458 307.892 261.333C308.793 261.209 309.695 261.209 310.597 261.209" stroke="#F3652B" stroke-width="2" stroke-miterlimit="10" stroke-linecap="round" stroke-linejoin="round"/>
<path d="M297.975 265.811C298.361 265.438 298.876 265.065 299.263 264.692" stroke="#F3652B" stroke-width="2" stroke-miterlimit="10" stroke-linecap="round" stroke-linejoin="round"/>
<path d="M274.276 262.701C275.564 262.577 276.723 262.328 277.883 262.204C279.171 262.079 280.33 261.831 281.36 261.706C283.936 261.333 285.739 261.209 285.739 261.209C285.739 261.209 292.436 259.841 292.436 265.065C292.436 266.06 292.436 267.055 292.436 267.801C292.436 268.299 292.436 268.672 292.436 269.045C292.436 269.916 292.436 270.538 292.436 271.16C292.436 272.652 292.436 273.274 292.436 273.274C292.436 273.274 292.823 272.279 293.724 270.911C294.111 270.413 294.497 269.791 295.012 269.045" stroke="#F3652B" stroke-width="2" stroke-miterlimit="10" stroke-linecap="round" stroke-linejoin="round"/>
<path d="M268.481 263.573C269.383 263.448 270.284 263.324 271.057 263.199" stroke="#F3652B" stroke-width="2" stroke-miterlimit="10" stroke-linecap="round" stroke-linejoin="round"/>
<path d="M254.443 269.916C255.86 267.677 257.019 266.06 257.534 265.687C258.05 265.314 258.694 265.065 259.466 264.941C260.497 264.692 263.073 264.319 266.292 263.821" stroke="#F3652B" stroke-width="2" stroke-miterlimit="10" stroke-linecap="round" stroke-linejoin="round"/>
<path d="M251.481 275.265C251.739 274.767 251.996 274.27 252.254 273.772C252.769 272.901 253.284 272.031 253.67 271.16" stroke="#F3652B" stroke-width="2" stroke-miterlimit="10" stroke-linecap="round" stroke-linejoin="round"/>
<path d="M252.253 287.579H245.942C245.942 286.957 246.457 285.589 247.101 283.847C247.487 282.852 248.131 281.733 248.647 280.489" stroke="#F3652B" stroke-width="2" stroke-miterlimit="10" stroke-linecap="round" stroke-linejoin="round"/>
<path d="M279.557 287.454H299.263" stroke="#F3652B" stroke-width="2" stroke-miterlimit="10" stroke-linecap="round" stroke-linejoin="round"/>
<path d="M270.67 287.454H276.466" stroke="#F3652B" stroke-width="2" stroke-miterlimit="10" stroke-linecap="round" stroke-linejoin="round"/>
<path d="M291.02 261.955L293.853 260.09" stroke="#F3652B" stroke-width="2" stroke-miterlimit="10" stroke-linecap="round" stroke-linejoin="round"/>
<path d="M292.436 258.348L294.883 261.457" stroke="#F3652B" stroke-width="2" stroke-miterlimit="10" stroke-linecap="round" stroke-linejoin="round"/>
<path d="M283.807 255.736L283.292 257.353L283.034 258.1" stroke="#F3652B" stroke-width="2" stroke-miterlimit="10" stroke-linecap="round" stroke-linejoin="round"/>
<path d="M286.126 248.895L285.224 251.507L284.58 253.497" stroke="#F3652B" stroke-width="2" stroke-miterlimit="10" stroke-linecap="round" stroke-linejoin="round"/>
<path d="M318.453 262.328L315.104 238.571C314.975 237.7 314.203 236.954 313.172 236.954H288.186C287.414 236.954 286.641 237.451 286.383 238.198V238.322C286.126 239.193 286.512 240.188 287.285 240.561C288.186 240.934 288.573 241.929 288.186 242.8L287.156 245.785" stroke="#F3652B" stroke-width="2" stroke-miterlimit="10" stroke-linecap="round" stroke-linejoin="round"/>
<path d="M18.8794 137.445V95.7764C18.8794 94.4082 20.0385 93.2887 21.5841 93.2887H87.0111C88.5566 93.2887 89.7158 94.4082 89.7158 95.7764V137.445" stroke="#F3652B" stroke-width="2" stroke-miterlimit="10" stroke-linecap="round" stroke-linejoin="round"/>
<mask id="path-37-outside-1" maskUnits="userSpaceOnUse" x="4.64453" y="135.446" width="100" height="7" fill="black">
<rect fill="white" x="4.64453" y="135.446" width="100" height="7"/>
<path d="M45.7977 139.684H6.90212C6.77332 139.684 6.64453 139.56 6.64453 139.436V137.694C6.64453 137.57 6.77332 137.446 6.90212 137.446H101.436C101.565 137.446 101.694 137.57 101.694 137.694V139.436C101.694 139.56 101.565 139.684 101.436 139.684H46.9569"/>
</mask>
<path d="M45.7977 139.684H6.90212C6.77332 139.684 6.64453 139.56 6.64453 139.436V137.694C6.64453 137.57 6.77332 137.446 6.90212 137.446H101.436C101.565 137.446 101.694 137.57 101.694 137.694V139.436C101.694 139.56 101.565 139.684 101.436 139.684H46.9569" fill="white"/>
<path d="M45.7977 141.684C46.9023 141.684 47.7977 140.789 47.7977 139.684C47.7977 138.58 46.9023 137.684 45.7977 137.684V141.684ZM46.9569 137.684C45.8523 137.684 44.9569 138.58 44.9569 139.684C44.9569 140.789 45.8523 141.684 46.9569 141.684V137.684ZM45.7977 137.684H6.90212V141.684H45.7977V137.684ZM6.90212 137.684C7.46398 137.684 7.87541 137.937 8.11442 138.168C8.34904 138.395 8.64453 138.822 8.64453 139.436H4.64453C4.64453 140.173 5.00442 140.725 5.33563 141.045C5.67124 141.369 6.21146 141.684 6.90212 141.684V137.684ZM8.64453 139.436V137.694H4.64453V139.436H8.64453ZM8.64453 137.694C8.64453 138.308 8.34903 138.735 8.11439 138.962C7.87535 139.193 7.46394 139.446 6.90212 139.446V135.446C6.21151 135.446 5.6713 135.761 5.33567 136.085C5.00443 136.405 4.64453 136.957 4.64453 137.694H8.64453ZM6.90212 139.446H101.436V135.446H6.90212V139.446ZM101.436 139.446C100.875 139.446 100.463 139.193 100.224 138.962C99.9896 138.735 99.6941 138.308 99.6941 137.694H103.694C103.694 136.957 103.334 136.405 103.003 136.085C102.667 135.761 102.127 135.446 101.436 135.446V139.446ZM99.6941 137.694V139.436H103.694V137.694H99.6941ZM99.6941 139.436C99.6941 138.822 99.9896 138.395 100.224 138.168C100.463 137.937 100.875 137.684 101.436 137.684V141.684C102.127 141.684 102.667 141.369 103.003 141.045C103.334 140.725 103.694 140.173 103.694 139.436H99.6941ZM101.436 137.684H46.9569V141.684H101.436V137.684Z" fill="#F3652B" mask="url(#path-37-outside-1)"/>
<path d="M54.1691 96.2727C54.4531 96.2727 54.6833 96.0504 54.6833 95.7761C54.6833 95.5018 54.4531 95.2794 54.1691 95.2794C53.885 95.2794 53.6548 95.5018 53.6548 95.7761C53.6548 96.0504 53.885 96.2727 54.1691 96.2727Z" stroke="#F3652B" stroke-width="2" stroke-miterlimit="10" stroke-linecap="round" stroke-linejoin="round"/>
<path d="M253.154 71.6456H227.782C224.691 71.6456 222.115 69.1579 222.115 66.1727V12.5627C222.115 9.57743 224.691 7.08972 227.782 7.08972H253.154C256.246 7.08972 258.821 9.57743 258.821 12.5627V66.2971C258.821 69.2823 256.246 71.6456 253.154 71.6456Z" stroke="#F3652B" stroke-width="2" stroke-miterlimit="10" stroke-linecap="round" stroke-linejoin="round"/>
<path d="M243.881 11.9404H234.222C233.835 11.9404 233.578 11.6916 233.578 11.3185C233.578 10.9453 233.835 10.6965 234.222 10.6965H243.881C244.267 10.6965 244.525 10.9453 244.525 11.3185C244.525 11.6916 244.267 11.9404 243.881 11.9404Z" stroke="#F3652B" stroke-width="2" stroke-miterlimit="10" stroke-linecap="round" stroke-linejoin="round"/>
<path d="M246.715 11.9405C247.071 11.9405 247.359 11.6621 247.359 11.3185C247.359 10.975 247.071 10.6965 246.715 10.6965C246.359 10.6965 246.071 10.975 246.071 11.3185C246.071 11.6621 246.359 11.9405 246.715 11.9405Z" stroke="#F3652B" stroke-width="2" stroke-miterlimit="10" stroke-linecap="round" stroke-linejoin="round"/>
<path d="M221.858 209.713H145.741C139.688 209.713 134.793 204.987 134.793 199.141V124.634C134.793 118.788 139.688 114.061 145.741 114.061H221.858C227.911 114.061 232.805 118.788 232.805 124.634V199.141C232.805 204.987 227.911 209.713 221.858 209.713Z" fill="white" stroke="#F3652B" stroke-width="2" stroke-miterlimit="10" stroke-linecap="round" stroke-linejoin="round"/>
<path d="M203.183 191.428H164.545C158.492 191.428 153.598 186.702 153.598 180.856V142.918C153.598 137.072 158.492 132.345 164.545 132.345H203.183C209.236 132.345 214.131 137.072 214.131 142.918V180.856C214.002 186.577 209.108 191.428 203.183 191.428Z" fill="white" stroke="#F3652B" stroke-width="2" stroke-miterlimit="10" stroke-linecap="round" stroke-linejoin="round"/>
<path d="M142.392 114.186V103.24" stroke="#F3652B" stroke-width="2" stroke-miterlimit="10" stroke-linecap="round" stroke-linejoin="round"/>
<path d="M158.749 114.186V103.24" stroke="#F3652B" stroke-width="2" stroke-miterlimit="10" stroke-linecap="round" stroke-linejoin="round"/>
<path d="M175.105 114.186V103.24" stroke="#F3652B" stroke-width="2" stroke-miterlimit="10" stroke-linecap="round" stroke-linejoin="round"/>
<path d="M191.333 114.186V103.24" stroke="#F3652B" stroke-width="2" stroke-miterlimit="10" stroke-linecap="round" stroke-linejoin="round"/>
<path d="M207.69 114.186V103.24" stroke="#F3652B" stroke-width="2" stroke-miterlimit="10" stroke-linecap="round" stroke-linejoin="round"/>
<path d="M223.918 114.186V103.24" stroke="#F3652B" stroke-width="2" stroke-miterlimit="10" stroke-linecap="round" stroke-linejoin="round"/>
<path d="M142.392 220.535V209.714" stroke="#F3652B" stroke-width="2" stroke-miterlimit="10" stroke-linecap="round" stroke-linejoin="round"/>
<path d="M158.749 232.476V209.714" stroke="#F3652B" stroke-width="2" stroke-miterlimit="10" stroke-linecap="round" stroke-linejoin="round"/>
<path d="M175.105 220.535V209.714" stroke="#F3652B" stroke-width="2" stroke-miterlimit="10" stroke-linecap="round" stroke-linejoin="round"/>
<path d="M191.333 220.535V209.714" stroke="#F3652B" stroke-width="2" stroke-miterlimit="10" stroke-linecap="round" stroke-linejoin="round"/>
<path d="M207.69 220.535V209.714" stroke="#F3652B" stroke-width="2" stroke-miterlimit="10" stroke-linecap="round" stroke-linejoin="round"/>
<path d="M223.918 220.535V209.714" stroke="#F3652B" stroke-width="2" stroke-miterlimit="10" stroke-linecap="round" stroke-linejoin="round"/>
<path d="M123.459 122.27H134.793" stroke="#F3652B" stroke-width="2" stroke-miterlimit="10" stroke-linecap="round" stroke-linejoin="round"/>
<path d="M123.459 137.943H134.793" stroke="#F3652B" stroke-width="2" stroke-miterlimit="10" stroke-linecap="round" stroke-linejoin="round"/>
<path d="M123.459 153.74H134.793" stroke="#F3652B" stroke-width="2" stroke-miterlimit="10" stroke-linecap="round" stroke-linejoin="round"/>
<path d="M123.459 169.537H134.793" stroke="#F3652B" stroke-width="2" stroke-miterlimit="10" stroke-linecap="round" stroke-linejoin="round"/>
<path d="M123.459 185.209H134.793" stroke="#F3652B" stroke-width="2" stroke-miterlimit="10" stroke-linecap="round" stroke-linejoin="round"/>
<path d="M123.459 201.006H134.793" stroke="#F3652B" stroke-width="2" stroke-miterlimit="10" stroke-linecap="round" stroke-linejoin="round"/>
<path d="M232.934 122.27H244.267" stroke="#F3652B" stroke-width="2" stroke-miterlimit="10" stroke-linecap="round" stroke-linejoin="round"/>
<path d="M232.934 137.943H244.267" stroke="#F3652B" stroke-width="2" stroke-miterlimit="10" stroke-linecap="round" stroke-linejoin="round"/>
<path d="M232.934 153.74H244.267" stroke="#F3652B" stroke-width="2" stroke-miterlimit="10" stroke-linecap="round" stroke-linejoin="round"/>
<path d="M232.934 169.537H244.267" stroke="#F3652B" stroke-width="2" stroke-miterlimit="10" stroke-linecap="round" stroke-linejoin="round"/>
<path d="M232.934 185.209H244.267" stroke="#F3652B" stroke-width="2" stroke-miterlimit="10" stroke-linecap="round" stroke-linejoin="round"/>
<path d="M232.934 201.006H244.267" stroke="#F3652B" stroke-width="2" stroke-miterlimit="10" stroke-linecap="round" stroke-linejoin="round"/>
<path d="M164.545 177.622L165.575 172.771L198.289 146.526H202.668L196.872 177.622H190.304L194.425 157.347L169.439 177.622H164.545Z" fill="white" stroke="#F3652B" stroke-width="2" stroke-miterlimit="10" stroke-linecap="round" stroke-linejoin="round"/>
<path d="M158.75 245.785C155.015 245.785 151.924 242.8 151.795 239.192C151.795 237.451 152.439 235.834 153.727 234.59C155.015 233.346 156.818 232.6 158.621 232.6C162.356 232.6 165.576 235.585 165.576 239.192C165.576 240.934 164.932 242.551 163.644 243.795C162.356 245.039 160.553 245.785 158.75 245.785ZM158.75 233.844C157.204 233.844 155.916 234.466 154.886 235.461C153.856 236.456 153.34 237.7 153.34 239.068C153.34 241.929 155.788 244.292 158.75 244.292C160.166 244.292 161.583 243.67 162.614 242.675C163.644 241.68 164.159 240.312 164.159 239.068C164.159 236.207 161.712 233.844 158.75 233.844Z" fill="#F3652B"/>
<path d="M166.734 259.592L143.036 273.648L190.174 302.007L158.749 245.163L127.323 302.007L174.462 273.648L150.764 259.716" stroke="#F3652B" stroke-width="2" stroke-miterlimit="10" stroke-linecap="round" stroke-linejoin="round"/>
<path d="M148.317 245.288C144.839 241.93 144.839 236.457 148.317 233.098" stroke="#F3652B" stroke-width="2" stroke-miterlimit="10" stroke-linecap="round" stroke-linejoin="round"/>
<path d="M169.181 233.098C172.659 236.457 172.659 241.93 169.181 245.288" stroke="#F3652B" stroke-width="2" stroke-miterlimit="10" stroke-linecap="round" stroke-linejoin="round"/>
<path d="M143.552 248.646C138.142 243.422 138.142 234.84 143.552 229.615" stroke="#F3652B" stroke-width="2" stroke-miterlimit="10" stroke-linecap="round" stroke-linejoin="round"/>
<path d="M173.947 229.615C179.356 234.84 179.356 243.422 173.947 248.646" stroke="#F3652B" stroke-width="2" stroke-miterlimit="10" stroke-linecap="round" stroke-linejoin="round"/>
<path d="M305.059 207.226C307.477 207.226 309.438 205.332 309.438 202.997C309.438 200.661 307.477 198.768 305.059 198.768C302.64 198.768 300.68 200.661 300.68 202.997C300.68 205.332 302.64 207.226 305.059 207.226Z" stroke="#F3652B" stroke-width="2" stroke-miterlimit="10" stroke-linecap="round" stroke-linejoin="round"/>
<path d="M293.08 202.997H300.679" stroke="#F3652B" stroke-width="2" stroke-miterlimit="10" stroke-linecap="round" stroke-linejoin="round"/>
<path d="M279.557 202.997H289.088" stroke="#F3652B" stroke-width="2" stroke-miterlimit="10" stroke-linecap="round" stroke-linejoin="round"/>
<path d="M258.693 192.922V195.285C258.693 195.285 258.306 202.997 266.678 202.997H277.11" stroke="#F3652B" stroke-width="2" stroke-miterlimit="10" stroke-linecap="round" stroke-linejoin="round"/>
<path d="M258.693 182.598V190.434" stroke="#F3652B" stroke-width="2" stroke-miterlimit="10" stroke-linecap="round" stroke-linejoin="round"/>
<path d="M244.526 169.537C244.526 169.537 240.147 169.537 250.064 169.537C259.337 169.537 258.693 177.871 258.693 177.871" stroke="#F3652B" stroke-width="2" stroke-miterlimit="10" stroke-linecap="round" stroke-linejoin="round"/>
<path d="M136.597 53.2369C139.015 53.2369 140.976 51.3434 140.976 49.0078C140.976 46.6721 139.015 44.7787 136.597 44.7787C134.178 44.7787 132.218 46.6721 132.218 49.0078C132.218 51.3434 134.178 53.2369 136.597 53.2369Z" stroke="#F3652B" stroke-width="2" stroke-miterlimit="10" stroke-linecap="round" stroke-linejoin="round"/>
<path d="M136.597 60.451V53.1123" stroke="#F3652B" stroke-width="2" stroke-miterlimit="10" stroke-linecap="round" stroke-linejoin="round"/>
<path d="M136.597 73.5114V64.3069" stroke="#F3652B" stroke-width="2" stroke-miterlimit="10" stroke-linecap="round" stroke-linejoin="round"/>
<path d="M147.029 93.7867H144.582C144.582 93.7867 136.597 94.1599 136.597 86.0748V75.9996" stroke="#F3652B" stroke-width="2" stroke-miterlimit="10" stroke-linecap="round" stroke-linejoin="round"/>
<path d="M157.719 93.786H149.605" stroke="#F3652B" stroke-width="2" stroke-miterlimit="10" stroke-linecap="round" stroke-linejoin="round"/>
<path d="M171.241 107.469C171.241 107.469 171.241 111.698 171.241 102.12C171.241 93.1644 162.612 93.7863 162.612 93.7863" stroke="#F3652B" stroke-width="2" stroke-miterlimit="10" stroke-linecap="round" stroke-linejoin="round"/>
<path d="M66.1471 115.678C68.5655 115.678 70.526 113.785 70.526 111.449C70.526 109.114 68.5655 107.22 66.1471 107.22C63.7286 107.22 61.7681 109.114 61.7681 111.449C61.7681 113.785 63.7286 115.678 66.1471 115.678Z" stroke="#F3652B" stroke-width="2" stroke-miterlimit="10" stroke-linecap="round" stroke-linejoin="round"/>
<path d="M83.1476 111.325H79.155H70.5259" stroke="#F3652B" stroke-width="2" stroke-miterlimit="10" stroke-linecap="round" stroke-linejoin="round"/>
<path d="M93.0649 111.325H97.8303C106.202 111.325 105.815 119.037 105.815 119.037V131.725" stroke="#F3652B" stroke-width="2" stroke-miterlimit="10" stroke-linecap="round" stroke-linejoin="round"/>
<path d="M105.687 140.928V135.082" stroke="#F3652B" stroke-width="2" stroke-miterlimit="10" stroke-linecap="round" stroke-linejoin="round"/>
<path d="M105.687 145.407C105.687 145.407 105.043 153.74 114.316 153.74C120.884 153.74 122.816 153.74 122.816 153.74" stroke="#F3652B" stroke-width="2" stroke-miterlimit="10" stroke-linecap="round" stroke-linejoin="round"/>
<path d="M234.608 269.169C237.027 269.169 238.987 267.276 238.987 264.94C238.987 262.605 237.027 260.711 234.608 260.711C232.19 260.711 230.229 262.605 230.229 264.94C230.229 267.276 232.19 269.169 234.608 269.169Z" stroke="#F3652B" stroke-width="2" stroke-miterlimit="10" stroke-linecap="round" stroke-linejoin="round"/>
<path d="M234.608 257.229C234.608 262.08 234.608 260.587 234.608 260.587" stroke="#F3652B" stroke-width="2" stroke-miterlimit="10" stroke-linecap="round" stroke-linejoin="round"/>
<path d="M234.608 247.527C234.608 249.89 234.608 252.253 234.608 254.368" stroke="#F3652B" stroke-width="2" stroke-miterlimit="10" stroke-linecap="round" stroke-linejoin="round"/>
<path d="M226.752 228.993C226.752 228.993 234.738 228.62 234.738 236.705C234.738 239.441 234.738 238.819 234.738 244.044" stroke="#F3652B" stroke-width="2" stroke-miterlimit="10" stroke-linecap="round" stroke-linejoin="round"/>
<path d="M223.919 228.993H213.873C213.873 228.993 207.691 229.615 207.691 223.023C207.691 216.43 207.691 218.172 207.691 218.172" stroke="#F3652B" stroke-width="2" stroke-miterlimit="10" stroke-linecap="round" stroke-linejoin="round"/>
<path d="M200.993 100.13V92.5421V105.727" stroke="#F3652B" stroke-width="2" stroke-miterlimit="10" stroke-linecap="round" stroke-linejoin="round"/>
<path d="M218.509 39.4301C218.509 39.4301 200.993 38.0618 200.993 56.9684V73.3872V83.338" stroke="#F3652B" stroke-width="2" stroke-miterlimit="10" stroke-linecap="round" stroke-linejoin="round"/>
<path d="M232.675 39.4299H224.432" stroke="#F3652B" stroke-width="2" stroke-miterlimit="10" stroke-linecap="round" stroke-linejoin="round"/>
<path d="M235.896 42.2909C237.674 42.2909 239.116 40.8987 239.116 39.1813C239.116 37.4639 237.674 36.0717 235.896 36.0717C234.118 36.0717 232.676 37.4639 232.676 39.1813C232.676 40.8987 234.118 42.2909 235.896 42.2909Z" stroke="#F3652B" stroke-width="2" stroke-miterlimit="10" stroke-linecap="round" stroke-linejoin="round"/>
<path d="M76.1934 230.859H81.6027C81.6027 230.859 96.2851 231.605 96.2851 216.43V200.882C96.2851 200.882 94.3532 185.085 112.256 185.085H125.392" stroke="#F3652B" stroke-width="2" stroke-miterlimit="10" stroke-linecap="round" stroke-linejoin="round"/>
<path d="M40.5173 214.067C40.5173 214.067 39.2293 230.983 56.7452 230.983C58.6771 230.983 67.6927 230.983 73.102 230.983" stroke="#F3652B" stroke-width="2" stroke-miterlimit="10" stroke-linecap="round" stroke-linejoin="round"/>
<path d="M40.5171 203.992V213.943V196.031V204.365" stroke="#F3652B" stroke-width="2" stroke-miterlimit="10" stroke-linecap="round" stroke-linejoin="round"/>
<path d="M40.5171 189.314V197.399" stroke="#F3652B" stroke-width="2" stroke-miterlimit="10" stroke-linecap="round" stroke-linejoin="round"/>
<path d="M40.5171 189.439C42.651 189.439 44.3809 187.768 44.3809 185.707C44.3809 183.646 42.651 181.976 40.5171 181.976C38.3832 181.976 36.6533 183.646 36.6533 185.707C36.6533 187.768 38.3832 189.439 40.5171 189.439Z" stroke="#F3652B" stroke-width="2" stroke-miterlimit="10" stroke-linecap="round" stroke-linejoin="round"/>
</svg>
