<svg viewBox="0 0 346 323" fill="none" xmlns="http://www.w3.org/2000/svg">
<g clip-path="url(#clip0)">
<path d="M185.113 191.404C168.655 191.404 155.338 178.085 155.338 161.625C155.338 145.166 168.655 131.847 185.113 131.847C201.57 131.847 214.887 145.166 214.887 161.625C214.887 178.085 201.445 191.404 185.113 191.404ZM185.113 143.783C175.314 143.783 167.273 151.825 167.273 161.625C167.273 171.426 175.314 179.467 185.113 179.467C194.912 179.467 202.952 171.426 202.952 161.625C202.952 151.825 194.912 143.783 185.113 143.783Z" fill="#F7F7F7"/>
<path d="M54.0805 185.498C52.573 185.498 51.0654 184.87 49.8091 183.739L30.2108 164.138L10.6125 183.739C8.22552 186.127 4.45662 186.127 2.19527 183.739C-0.191699 181.352 -0.191699 177.583 2.19527 175.321L26.065 151.448C28.452 149.061 32.2209 149.061 34.4822 151.448L58.3519 175.321C60.7389 177.708 60.7389 181.478 58.3519 183.739C57.0956 184.87 55.5881 185.498 54.0805 185.498Z" fill="#F7F7F7"/>
<path d="M185.112 143.783C181.846 143.783 179.208 141.144 179.208 137.878V66.2587C179.208 62.9919 181.846 60.3533 185.112 60.3533C188.379 60.3533 191.017 62.9919 191.017 66.2587V137.752C191.017 141.144 188.379 143.783 185.112 143.783Z" fill="#F7F7F7"/>
<path d="M185.112 209.245C181.846 209.245 179.208 206.607 179.208 203.34V185.498C179.208 182.231 181.846 179.593 185.112 179.593C188.379 179.593 191.017 182.231 191.017 185.498V203.34C191.017 206.607 188.379 209.245 185.112 209.245Z" fill="#F7F7F7"/>
<path d="M101.695 250.96C100.187 250.96 98.6794 250.332 97.4231 249.201C95.0361 246.814 95.0361 243.044 97.4231 240.783L164.007 174.19C166.394 171.802 170.163 171.802 172.424 174.19C174.811 176.577 174.811 180.346 172.424 182.608L105.84 249.201C104.71 250.332 103.202 250.96 101.695 250.96Z" fill="#F7F7F7"/>
<path d="M201.947 150.694C200.44 150.694 198.932 150.066 197.676 148.935C195.289 146.548 195.289 142.778 197.676 140.517L210.616 127.575C213.003 125.188 216.772 125.188 219.033 127.575C221.42 129.962 221.42 133.732 219.033 135.993L206.093 148.935C204.962 150.192 203.455 150.694 201.947 150.694Z" fill="#F7F7F7"/>
<path d="M117.774 28.0624C115.513 28.0624 113.377 26.8059 112.372 24.6699C110.99 21.6544 112.247 18.1362 115.136 16.7541C126.066 11.4769 137.498 7.58188 149.182 4.94329C152.448 4.18941 155.589 6.19976 156.343 9.46659C157.097 12.7334 155.087 15.8746 151.82 16.6285C141.016 19.0158 130.463 22.6595 120.287 27.5598C119.533 27.8111 118.654 28.0624 117.774 28.0624Z" fill="#F7F7F7"/>
<path d="M34.1059 133.103C33.729 133.103 33.2265 133.103 32.8496 132.977C29.5832 132.223 27.5731 129.082 28.3269 125.815C30.9651 114.13 34.9853 102.696 40.2618 91.6393C41.6437 88.6238 45.287 87.4929 48.1765 88.875C51.1916 90.2572 52.3223 93.9009 50.9403 96.7908C46.0408 106.968 42.3975 117.523 40.0105 128.328C39.2567 131.218 36.8698 133.103 34.1059 133.103Z" fill="#F7F7F7"/>
<path d="M185.112 322.453C142.147 322.453 101.819 305.742 71.4169 275.336C41.0144 244.929 24.3056 204.596 24.3056 161.625C24.3056 159.615 24.3056 157.73 24.4312 155.72V155.594C24.5568 152.327 27.3207 149.689 30.5871 149.814C33.8535 149.94 36.4917 152.704 36.3661 155.971V156.097C36.3661 157.981 36.2405 159.74 36.2405 161.625C36.2405 243.798 103.076 310.517 185.112 310.517C267.149 310.517 333.984 243.798 333.984 161.625C333.984 79.4519 267.149 12.7333 185.112 12.7333C181.846 12.7333 179.208 10.0948 179.208 6.82794C179.208 3.56111 181.72 0.796875 185.112 0.796875C228.078 0.796875 268.405 17.5079 298.808 47.9145C329.084 78.3211 345.919 118.654 345.919 161.625C345.919 204.596 329.21 244.929 298.808 275.336C268.405 305.742 228.078 322.453 185.112 322.453Z" fill="#F7F7F7"/>
<path d="M64.0052 71.0337C62.7489 71.0337 61.367 70.6567 60.3619 69.7772C57.7237 67.7668 57.3468 63.9974 59.3569 61.3588C66.7691 51.8097 75.4376 43.2657 84.8598 35.8525C87.498 33.8421 91.1413 34.2191 93.277 36.8577C95.2871 39.4962 94.9102 43.14 92.272 45.276C83.4779 52.0609 75.5632 59.9767 68.7792 68.772C67.5229 70.2798 65.764 71.0337 64.0052 71.0337Z" fill="#F7F7F7"/>
<path d="M185.112 48.417C181.846 48.417 179.208 45.7784 179.208 42.5116V30.5751C179.208 27.3083 181.846 24.6697 185.112 24.6697C188.379 24.6697 191.017 27.3083 191.017 30.5751V42.5116C191.017 45.7784 188.379 48.417 185.112 48.417Z" fill="#F7F7F7"/>
<path d="M185.112 298.581C181.846 298.581 179.208 295.942 179.208 292.675V280.739C179.208 277.472 181.846 274.833 185.112 274.833C188.379 274.833 191.017 277.472 191.017 280.739V292.675C191.017 295.942 188.379 298.581 185.112 298.581Z" fill="#F7F7F7"/>
<path d="M250.565 281.116C248.555 281.116 246.545 279.985 245.414 278.1L239.51 267.797C237.877 264.907 238.882 261.264 241.645 259.63C244.535 257.997 248.178 259.002 249.811 261.766L255.716 272.069C257.349 274.959 256.344 278.603 253.58 280.236C252.575 280.864 251.57 281.116 250.565 281.116Z" fill="#F7F7F7"/>
<path d="M298.556 233.118C297.551 233.118 296.546 232.867 295.541 232.364L285.239 226.459C282.35 224.826 281.471 221.182 283.104 218.292C284.737 215.402 288.38 214.523 291.27 216.156L301.571 222.061C304.461 223.695 305.34 227.339 303.707 230.228C302.576 231.988 300.566 233.118 298.556 233.118Z" fill="#F7F7F7"/>
<path d="M316.145 167.531H304.21C300.944 167.531 298.306 164.892 298.306 161.625C298.306 158.358 300.944 155.72 304.21 155.72H316.145C319.412 155.72 322.05 158.358 322.05 161.625C322.05 164.892 319.412 167.531 316.145 167.531Z" fill="#F7F7F7"/>
<path d="M71.5434 233.118C69.5334 233.118 67.5233 231.987 66.3926 230.103C64.7594 227.213 65.7645 223.569 68.5283 221.936L78.83 216.03C81.7195 214.397 85.3627 215.402 86.9959 218.166C88.6291 221.056 87.6241 224.7 84.8602 226.333L74.5586 232.239C73.6792 232.867 72.5485 233.118 71.5434 233.118Z" fill="#F7F7F7"/>
<path d="M288.256 107.973C286.246 107.973 284.236 106.842 283.105 104.958C281.472 102.068 282.477 98.4239 285.241 96.7905L295.542 90.8851C298.432 89.2517 302.075 90.2569 303.708 93.0211C305.341 95.911 304.336 99.5547 301.573 101.188L291.271 107.094C290.266 107.722 289.261 107.973 288.256 107.973Z" fill="#F7F7F7"/>
<path d="M119.534 281.115C118.529 281.115 117.524 280.864 116.519 280.361C113.629 278.728 112.75 275.084 114.383 272.194L120.287 261.891C121.921 259.001 125.564 258.122 128.453 259.755C131.343 261.389 132.222 265.032 130.589 267.922L124.684 278.225C123.554 279.984 121.544 281.115 119.534 281.115Z" fill="#F7F7F7"/>
<path d="M244.661 64.3744C243.656 64.3744 242.651 64.1231 241.646 63.6205C238.757 61.9871 237.877 58.3433 239.511 55.4535L245.415 45.1504C247.048 42.2605 250.692 41.381 253.581 43.0144C256.471 44.6478 257.35 48.2916 255.717 51.1815L249.812 61.4845C248.682 63.3692 246.672 64.3744 244.661 64.3744Z" fill="#F7F7F7"/>
<path d="M271.42 202.209C273.053 203.843 273.932 205.978 273.932 208.366" stroke="#F3652B" stroke-width="2" stroke-miterlimit="10" stroke-linecap="round" stroke-linejoin="round"/>
<path d="M254.209 199.696H265.265" stroke="#F3652B" stroke-width="2" stroke-miterlimit="10" stroke-linecap="round" stroke-linejoin="round"/>
<path d="M225.314 199.696H246.043" stroke="#F3652B" stroke-width="2" stroke-miterlimit="10" stroke-linecap="round" stroke-linejoin="round"/>
<path d="M274.058 211.884C274.058 216.659 270.164 220.554 265.39 220.554" stroke="#F3652B" stroke-width="2" stroke-miterlimit="10" stroke-linecap="round" stroke-linejoin="round"/>
<path d="M265.265 241.537C270.039 241.537 273.933 245.432 273.933 250.206" stroke="#F3652B" stroke-width="2" stroke-miterlimit="10" stroke-linecap="round" stroke-linejoin="round"/>
<path d="M242.651 262.394H229.209H225.314" stroke="#F3652B" stroke-width="2" stroke-miterlimit="10" stroke-linecap="round" stroke-linejoin="round"/>
<path d="M253.581 262.394H246.044" stroke="#F3652B" stroke-width="2" stroke-miterlimit="10" stroke-linecap="round" stroke-linejoin="round"/>
<path d="M274.059 253.725C274.059 258.499 270.164 262.394 265.39 262.394H262.375" stroke="#F3652B" stroke-width="2" stroke-miterlimit="10" stroke-linecap="round" stroke-linejoin="round"/>
<path d="M256.471 220.554H265.39C270.164 220.554 274.059 224.449 274.059 229.223" stroke="#F3652B" stroke-width="2" stroke-miterlimit="10" stroke-linecap="round" stroke-linejoin="round"/>
<path d="M231.345 220.679L242.652 220.554" stroke="#F3652B" stroke-width="2" stroke-miterlimit="10" stroke-linecap="round" stroke-linejoin="round"/>
<path d="M234.36 241.537H225.314" stroke="#F3652B" stroke-width="2" stroke-miterlimit="10" stroke-linecap="round" stroke-linejoin="round"/>
<path d="M274.058 232.867C274.058 237.641 270.164 241.537 265.39 241.537H240.892" stroke="#F3652B" stroke-width="2" stroke-miterlimit="10" stroke-linecap="round" stroke-linejoin="round"/>
<path d="M252.828 224.197C254.84 224.197 256.471 222.566 256.471 220.554C256.471 218.541 254.84 216.91 252.828 216.91C250.816 216.91 249.185 218.541 249.185 220.554C249.185 222.566 250.816 224.197 252.828 224.197Z" stroke="#F3652B" stroke-width="2" stroke-miterlimit="10" stroke-linecap="round" stroke-linejoin="round"/>
<path d="M111.117 260.259C109.735 258.876 108.981 257.117 108.981 255.107" stroke="#F3652B" stroke-width="2" stroke-miterlimit="10" stroke-linecap="round" stroke-linejoin="round"/>
<path d="M125.69 262.394H116.267" stroke="#F3652B" stroke-width="2" stroke-miterlimit="10" stroke-linecap="round" stroke-linejoin="round"/>
<path d="M144.786 262.394H132.6" stroke="#F3652B" stroke-width="2" stroke-miterlimit="10" stroke-linecap="round" stroke-linejoin="round"/>
<path d="M108.981 252.091C108.981 248.07 112.247 244.678 116.393 244.678" stroke="#F3652B" stroke-width="2" stroke-miterlimit="10" stroke-linecap="round" stroke-linejoin="round"/>
<path d="M116.268 226.836C112.247 226.836 108.855 223.569 108.855 219.422" stroke="#F3652B" stroke-width="2" stroke-miterlimit="10" stroke-linecap="round" stroke-linejoin="round"/>
<path d="M135.614 209.12H141.393H144.785" stroke="#F3652B" stroke-width="2" stroke-miterlimit="10" stroke-linecap="round" stroke-linejoin="round"/>
<path d="M126.318 209.12H132.599" stroke="#F3652B" stroke-width="2" stroke-miterlimit="10" stroke-linecap="round" stroke-linejoin="round"/>
<path d="M108.984 216.533C108.984 212.512 112.25 209.12 116.396 209.12H119.034" stroke="#F3652B" stroke-width="2" stroke-miterlimit="10" stroke-linecap="round" stroke-linejoin="round"/>
<path d="M123.805 244.678H116.268C112.247 244.678 108.855 241.411 108.855 237.264" stroke="#F3652B" stroke-width="2" stroke-miterlimit="10" stroke-linecap="round" stroke-linejoin="round"/>
<path d="M139.634 244.552L135.614 244.678" stroke="#F3652B" stroke-width="2" stroke-miterlimit="10" stroke-linecap="round" stroke-linejoin="round"/>
<path d="M142.524 226.836H144.786" stroke="#F3652B" stroke-width="2" stroke-miterlimit="10" stroke-linecap="round" stroke-linejoin="round"/>
<path d="M108.981 234.25C108.981 230.229 112.247 226.836 116.393 226.836H137.122" stroke="#F3652B" stroke-width="2" stroke-miterlimit="10" stroke-linecap="round" stroke-linejoin="round"/>
<path d="M127.449 247.819C129.461 247.819 131.092 246.187 131.092 244.175C131.092 242.163 129.461 240.531 127.449 240.531C125.437 240.531 123.806 242.163 123.806 244.175C123.806 246.187 125.437 247.819 127.449 247.819Z" stroke="#F3652B" stroke-width="2" stroke-miterlimit="10" stroke-linecap="round" stroke-linejoin="round"/>
<path d="M283.355 142.401C280.592 142.401 268.406 142.401 265.642 142.401C263.883 142.401 262.124 142.401 260.365 142.401" stroke="#F3652B" stroke-width="2" stroke-miterlimit="10" stroke-linecap="round" stroke-linejoin="round"/>
<path d="M330.089 117.9C330.089 123.302 328.331 128.454 325.316 132.475C323.18 135.49 320.29 137.878 317.024 139.637C313.632 141.396 309.737 142.401 305.717 142.401C302.702 142.401 297.677 142.401 291.396 142.401" stroke="#F3652B" stroke-width="2" stroke-miterlimit="10" stroke-linecap="round" stroke-linejoin="round"/>
<path d="M325.944 104.33C327.577 106.717 328.708 109.481 329.461 112.371" stroke="#F3652B" stroke-width="2" stroke-miterlimit="10" stroke-linecap="round" stroke-linejoin="round"/>
<path d="M245.415 83.0957C248.179 81.9648 251.194 81.3366 254.335 81.3366C257.224 81.3366 259.863 81.8392 262.375 82.7187C263.129 78.1954 265.39 74.3004 268.657 71.2848C270.792 69.4001 273.305 67.8924 276.069 67.0128C277.953 66.3846 279.963 66.1333 281.973 66.1333C286.622 66.1333 290.768 67.6411 294.16 70.2797C297.552 72.9182 300.064 76.562 301.195 80.834C301.572 82.4674 301.823 84.2265 301.823 85.9856C301.823 87.1164 301.697 88.3728 301.572 89.5037C301.32 91.0114 300.818 92.5192 300.19 94.027C301.949 93.65 303.707 93.3987 305.592 93.3987C310.617 93.3987 315.14 94.9065 319.034 97.4194C319.034 97.4194 322.301 99.1785 322.301 95.0321C322.301 90.8858 322.301 80.3314 322.301 80.3314" stroke="#F3652B" stroke-width="2" stroke-miterlimit="10" stroke-linecap="round" stroke-linejoin="round"/>
<path d="M212.625 99.5556C214.007 98.676 215.389 97.9221 216.897 97.4196C219.535 96.4144 222.299 95.9118 225.188 95.9118C227.45 95.9118 229.586 96.2887 231.596 96.7913C233.606 91.8911 237.123 87.7447 241.52 84.9805" stroke="#F3652B" stroke-width="2" stroke-miterlimit="10" stroke-linecap="round" stroke-linejoin="round"/>
<path d="M322.552 80.2059C324.565 80.2059 326.196 78.5745 326.196 76.5621C326.196 74.5497 324.565 72.9183 322.552 72.9183C320.54 72.9183 318.909 74.5497 318.909 76.5621C318.909 78.5745 320.54 80.2059 322.552 80.2059Z" stroke="#F3652B" stroke-width="2" stroke-miterlimit="10" stroke-linecap="round" stroke-linejoin="round"/>
<path d="M171.67 247.945C173.544 247.945 175.062 246.426 175.062 244.552C175.062 242.679 173.544 241.16 171.67 241.16C169.797 241.16 168.278 242.679 168.278 244.552C168.278 246.426 169.797 247.945 171.67 247.945Z" stroke="#F3652B" stroke-width="2" stroke-miterlimit="10" stroke-linecap="round" stroke-linejoin="round"/>
<path d="M171.67 179.592C173.544 179.592 175.062 178.073 175.062 176.2C175.062 174.326 173.544 172.807 171.67 172.807C169.797 172.807 168.278 174.326 168.278 176.2C168.278 178.073 169.797 179.592 171.67 179.592Z" stroke="#F3652B" stroke-width="2" stroke-miterlimit="10" stroke-linecap="round" stroke-linejoin="round"/>
<path d="M200.189 194.418H213.38C219.034 194.418 223.682 199.067 223.682 204.721" stroke="#F3652B" stroke-width="2" stroke-miterlimit="10" stroke-linecap="round" stroke-linejoin="round"/>
<path d="M182.098 194.418H190.516" stroke="#F3652B" stroke-width="2" stroke-miterlimit="10" stroke-linecap="round" stroke-linejoin="round"/>
<path d="M223.682 208.994C223.682 214.648 219.034 219.297 213.38 219.297H155.214C149.56 219.297 144.912 214.648 144.912 208.994V204.722C144.912 199.068 149.56 194.419 155.214 194.419H168.153C168.153 194.419 171.797 195.047 171.797 190.775C171.797 186.377 171.797 179.467 171.797 179.467" stroke="#F3652B" stroke-width="2" stroke-miterlimit="10" stroke-linecap="round" stroke-linejoin="round"/>
<path d="M223.682 258.75C223.682 264.404 219.034 269.053 213.38 269.053H155.214C149.56 269.053 144.912 264.404 144.912 258.75V254.604C144.912 248.95 149.56 244.301 155.214 244.301H213.38C219.034 244.301 223.682 248.95 223.682 254.604" stroke="#F3652B" stroke-width="2" stroke-miterlimit="10" stroke-linecap="round" stroke-linejoin="round"/>
<path d="M223.682 233.872C223.682 239.526 219.034 244.175 213.38 244.175H155.214C149.56 244.175 144.912 239.526 144.912 233.872V229.6C144.912 223.946 149.56 219.297 155.214 219.297H213.38C219.034 219.297 223.682 223.946 223.682 229.6" stroke="#F3652B" stroke-width="2" stroke-miterlimit="10" stroke-linecap="round" stroke-linejoin="round"/>
<path d="M163.254 210.125H156.345C155.089 210.125 153.958 208.994 153.958 207.737V205.853C153.958 204.596 155.089 203.465 156.345 203.465H163.254C164.511 203.465 165.641 204.596 165.641 205.853V207.737C165.641 209.12 164.636 210.125 163.254 210.125Z" stroke="#F3652B" stroke-width="2" stroke-miterlimit="10" stroke-linecap="round" stroke-linejoin="round"/>
<path d="M163.254 235.002H156.345C155.089 235.002 153.958 233.872 153.958 232.615V230.73C153.958 229.474 155.089 228.343 156.345 228.343H163.254C164.511 228.343 165.641 229.474 165.641 230.73V232.615C165.641 233.997 164.636 235.002 163.254 235.002Z" stroke="#F3652B" stroke-width="2" stroke-miterlimit="10" stroke-linecap="round" stroke-linejoin="round"/>
<path d="M163.254 260.258H156.345C155.089 260.258 153.958 259.127 153.958 257.87V255.986C153.958 254.729 155.089 253.598 156.345 253.598H163.254C164.511 253.598 165.641 254.729 165.641 255.986V257.87C165.641 259.127 164.636 260.258 163.254 260.258Z" stroke="#F3652B" stroke-width="2" stroke-miterlimit="10" stroke-linecap="round" stroke-linejoin="round"/>
<path d="M182.727 197.686C184.323 197.686 185.616 196.392 185.616 194.796C185.616 193.2 184.323 191.906 182.727 191.906C181.131 191.906 179.837 193.2 179.837 194.796C179.837 196.392 181.131 197.686 182.727 197.686Z" stroke="#F3652B" stroke-width="2" stroke-miterlimit="10" stroke-linecap="round" stroke-linejoin="round"/>
<path d="M89.6342 138.883C91.2301 138.883 92.5237 137.589 92.5237 135.993C92.5237 134.397 91.2301 133.103 89.6342 133.103C88.0384 133.103 86.7448 134.397 86.7448 135.993C86.7448 137.589 88.0384 138.883 89.6342 138.883Z" stroke="#F3652B" stroke-width="2" stroke-miterlimit="10" stroke-linecap="round" stroke-linejoin="round"/>
<path d="M113.253 121.92C111.243 123.805 109.61 126.067 108.353 128.58C107.223 130.841 106.343 133.354 105.966 135.993H92.5239" stroke="#F3652B" stroke-width="2" stroke-miterlimit="10" stroke-linecap="round" stroke-linejoin="round"/>
<path d="M246.923 130.088C245.416 128.454 243.783 126.947 241.898 125.816C239.637 124.434 237.124 123.429 234.36 122.926C233.104 122.675 231.848 122.549 230.592 122.549C229.587 122.549 228.581 122.675 227.576 122.8C225.818 123.052 224.059 123.554 222.426 124.182C222.049 120.664 221.044 117.523 219.41 114.508C218.029 111.995 216.144 109.607 213.883 107.723C211.873 105.964 209.486 104.456 206.973 103.451C205.466 102.822 203.832 102.32 202.199 102.069C200.692 101.817 199.058 101.566 197.425 101.566C194.787 101.566 192.149 101.943 189.762 102.697C187.877 103.325 186.118 104.079 184.36 105.084C182.726 106.089 181.219 107.346 179.837 108.602C179.209 105.21 177.827 102.069 175.817 99.3043C173.807 96.6657 171.168 94.4041 168.028 92.8963C165.138 91.5142 161.872 90.6346 158.48 90.6346C153.957 90.6346 149.811 92.0168 146.294 94.2784C143.655 96.0375 141.52 98.2991 139.887 101.063C138.63 103.199 137.751 105.461 137.123 107.974C136.871 109.356 136.62 110.864 136.62 112.372C136.62 113.125 136.62 113.879 136.746 114.759C134.861 114.382 132.977 114.131 131.092 114.131C125.313 114.131 120.037 116.015 115.766 119.282" stroke="#F3652B" stroke-width="2" stroke-miterlimit="10" stroke-linecap="round" stroke-linejoin="round"/>
<path d="M252.326 144.411C252.326 141.773 251.823 139.134 250.944 136.747" stroke="#F3652B" stroke-width="2" stroke-miterlimit="10" stroke-linecap="round" stroke-linejoin="round"/>
<path d="M247.803 157.73C249.688 155.343 251.07 152.579 251.698 149.437" stroke="#F3652B" stroke-width="2" stroke-miterlimit="10" stroke-linecap="round" stroke-linejoin="round"/>
<path d="M230.591 166.149C233.229 166.149 235.741 165.646 238.003 164.892C240.39 164.013 242.526 162.756 244.284 161.248" stroke="#F3652B" stroke-width="2" stroke-miterlimit="10" stroke-linecap="round" stroke-linejoin="round"/>
<path d="M226.572 166.149C223.305 166.149 218.657 166.149 213.129 166.149C207.224 166.149 193.279 166.149 185.993 166.023C185.993 166.023 182.727 166.023 182.727 170.798C182.727 175.572 182.727 191.781 182.727 191.781" stroke="#F3652B" stroke-width="2" stroke-miterlimit="10" stroke-linecap="round" stroke-linejoin="round"/>
<path d="M139.007 165.646C144.284 165.646 151.319 165.646 159.108 165.772C167.148 165.772 166.772 165.897 175.44 165.897" stroke="#F3652B" stroke-width="2" stroke-miterlimit="10" stroke-linecap="round" stroke-linejoin="round"/>
<path d="M131.219 165.646C127.073 165.646 123.179 164.641 119.661 162.882" stroke="#F3652B" stroke-width="2" stroke-miterlimit="10" stroke-linecap="round" stroke-linejoin="round"/>
<path d="M105.715 140.139C105.715 145.165 107.096 149.814 109.609 153.709" stroke="#F3652B" stroke-width="2" stroke-miterlimit="10" stroke-linecap="round" stroke-linejoin="round"/>
<path d="M16.7688 96.6652C16.1407 98.1729 15.7638 99.932 15.7638 101.691C15.7638 104.707 16.7688 107.596 18.402 109.858C19.6583 111.617 21.4171 113.125 23.4272 114.13C25.3117 115.01 27.3217 115.512 29.4575 115.512C30.5881 115.512 32.2213 115.512 34.2314 115.512" stroke="#F3652B" stroke-width="2" stroke-miterlimit="10" stroke-linecap="round" stroke-linejoin="round"/>
<path d="M45.6641 78.5722C44.2822 79.2005 43.0259 79.9544 41.8952 80.8339C41.0158 79.2005 39.6339 77.8184 37.8751 77.1901C36.9957 76.8132 35.9906 76.5619 34.8599 76.5619C32.2217 76.5619 29.8347 77.8184 28.4528 79.8287C27.5734 81.0852 27.0709 82.5929 27.0709 84.352C27.0709 85.6085 27.4478 86.8649 27.9503 87.9958C25.6889 88.2471 23.5532 89.0009 21.7944 90.2574" stroke="#F3652B" stroke-width="2" stroke-miterlimit="10" stroke-linecap="round" stroke-linejoin="round"/>
<path d="M71.1671 70.5309C69.9108 70.0283 68.5289 69.777 67.0213 69.777C65.3881 69.777 63.7549 70.1539 62.373 70.7822C60.7398 71.536 59.2322 72.6669 58.2272 74.049C57.4734 74.9285 56.9709 75.9337 56.594 77.0645C55.7146 76.9389 54.8352 76.8132 53.8301 76.8132" stroke="#F3652B" stroke-width="2" stroke-miterlimit="10" stroke-linecap="round" stroke-linejoin="round"/>
<path d="M84.1062 88.1211C82.5986 88.3724 81.2167 88.875 79.8348 89.6289C78.8297 88.6237 77.699 87.6185 76.3171 86.8647C77.4478 85.1056 78.0759 83.0952 78.0759 80.8336C78.0759 78.0694 77.0709 75.4308 75.3121 73.4204" stroke="#F3652B" stroke-width="2" stroke-miterlimit="10" stroke-linecap="round" stroke-linejoin="round"/>
<path d="M100.438 101.692C100.438 98.1735 99.1822 95.0323 96.9208 92.5194C95.2876 90.6347 93.0263 89.1269 90.5137 88.4987C89.2574 88.1217 88.0011 87.9961 86.6191 87.9961" stroke="#F3652B" stroke-width="2" stroke-miterlimit="10" stroke-linecap="round" stroke-linejoin="round"/>
<path d="M93.6544 113.502C95.7902 112.245 97.6746 110.235 98.8053 107.974" stroke="#F3652B" stroke-width="2" stroke-miterlimit="10" stroke-linecap="round" stroke-linejoin="round"/>
<path d="M41.016 115.512C41.016 115.512 76.0668 115.512 80.2126 115.512" stroke="#F3652B" stroke-width="2" stroke-miterlimit="10" stroke-linecap="round" stroke-linejoin="round"/>
</g>
<defs>
<clipPath id="clip0">
<rect width="345.483" height="321.657" fill="white" transform="translate(0.436707 0.796875)"/>
</clipPath>
</defs>
</svg>
