<svg width="603" height="673" fill="none" xmlns="http://www.w3.org/2000/svg">
  <mask id="a" fill="#fff">
    <path d="M444.385 323.159c-.154-.039-.231-.116-.192-.232.192-1.234.578-2.431 1.156-3.55.617-1.196 1.388-2.276 2.351-3.241.077-.077.232-.077.309 0 .077.077.077.232 0 .309-.925.926-1.696 1.968-2.274 3.125-.54 1.081-.926 2.238-1.118 3.435-.039.077-.116.154-.232.154z"/>
  </mask>
  <path d="M444.385 323.159c-.154-.039-.231-.116-.192-.232.192-1.234.578-2.431 1.156-3.55.617-1.196 1.388-2.276 2.351-3.241.077-.077.232-.077.309 0 .077.077.077.232 0 .309-.925.926-1.696 1.968-2.274 3.125-.54 1.081-.926 2.238-1.118 3.435-.039.077-.116.154-.232.154z" fill="#646464"/>
  <path d="M444.385 323.159l-.242.97.119.03h.123v-1zm-.192-.232l.948.316.027-.079.013-.082-.988-.155zm1.156-3.55l.888.459h.001l-.889-.459zm-.732 3.628l.894.446.069-.136.024-.151-.987-.159zm.011-.816c.005.001.18.04.342.225.092.106.17.249.2.421.029.167.004.31-.029.408l-1.897-.632c-.119.357-.072.785.22 1.119.229.263.52.359.679.399l.485-1.94zm.553.893c.176-1.131.529-2.224 1.056-3.246l-1.776-.918c-.629 1.217-1.047 2.516-1.256 3.855l1.976.309zm1.057-3.246c.572-1.111 1.284-2.106 2.17-2.993l-1.415-1.414c-1.041 1.043-1.872 2.208-2.533 3.49l1.778.917zm2.17-2.993c-.192.191-.412.235-.553.235-.141 0-.362-.044-.554-.235l1.415-1.414c-.268-.268-.605-.351-.861-.351-.257 0-.594.083-.862.351l1.415 1.414zm-1.107 0c-.191-.192-.234-.412-.234-.553 0-.14.043-.36.234-.552l1.415 1.414c.269-.269.351-.605.351-.862 0-.256-.082-.592-.351-.861l-1.415 1.414zm0-1.105c-.994.995-1.831 2.124-2.461 3.385l1.789.894c.526-1.053 1.231-2.009 2.087-2.865l-1.415-1.414zm-2.461 3.385c-.582 1.166-1.001 2.42-1.211 3.722l1.975.319c.176-1.09.528-2.151 1.025-3.147l-1.789-.894zm-1.118 3.435c.063-.127.269-.399.663-.399v2c.626 0 .986-.427 1.126-.708l-1.789-.893z" fill="#646464" mask="url(#a)"/>
  <mask id="b" fill="#fff">
    <path d="M449.088 315.364c-.077 0-.116-.038-.154-.077-.077-.077-.039-.231.038-.309 2.159-1.62 4.703-2.469 7.401-2.469.81 0 1.658.077 2.467.231-.038-.27-.038-.578-.038-.848 0-.695.077-1.428.231-2.123.231-1.196.694-2.315 1.311-3.318.77-1.312 1.85-2.431 3.122-3.28 1.734-1.158 3.777-1.775 5.859-1.775 1.619 0 3.199.347 4.625 1.08 1.465.734 2.776 1.814 3.739 3.126.925 1.196 1.581 2.624 1.889 4.09.578-.54 1.234-1.042 1.927-1.466.116-.077.232-.039.309.077.077.116.038.232-.077.309-.771.463-1.465 1.042-2.12 1.659-.039.039-.155.077-.232.039-.077-.039-.115-.078-.154-.155-.27-1.543-.925-3.048-1.889-4.322-.963-1.273-2.197-2.276-3.623-2.971-1.388-.694-2.891-1.042-4.433-1.042-2.004 0-3.97.579-5.627 1.737-1.195.81-2.236 1.891-3.007 3.125-.617 1.004-1.041 2.084-1.272 3.203-.154.656-.193 1.351-.193 2.045 0 .347.039.733.077 1.081 0 .077 0 .115-.077.192-.038.039-.115.078-.193.039-.886-.193-1.773-.309-2.659-.309-2.621 0-5.088.811-7.17 2.393 0 .038-.038.038-.077.038z"/>
  </mask>
  <path d="M449.088 315.364c-.077 0-.116-.038-.154-.077-.077-.077-.039-.231.038-.309 2.159-1.62 4.703-2.469 7.401-2.469.81 0 1.658.077 2.467.231-.038-.27-.038-.578-.038-.848 0-.695.077-1.428.231-2.123.231-1.196.694-2.315 1.311-3.318.77-1.312 1.85-2.431 3.122-3.28 1.734-1.158 3.777-1.775 5.859-1.775 1.619 0 3.199.347 4.625 1.08 1.465.734 2.776 1.814 3.739 3.126.925 1.196 1.581 2.624 1.889 4.09.578-.54 1.234-1.042 1.927-1.466.116-.077.232-.039.309.077.077.116.038.232-.077.309-.771.463-1.465 1.042-2.12 1.659-.039.039-.155.077-.232.039-.077-.039-.115-.078-.154-.155-.27-1.543-.925-3.048-1.889-4.322-.963-1.273-2.197-2.276-3.623-2.971-1.388-.694-2.891-1.042-4.433-1.042-2.004 0-3.97.579-5.627 1.737-1.195.81-2.236 1.891-3.007 3.125-.617 1.004-1.041 2.084-1.272 3.203-.154.656-.193 1.351-.193 2.045 0 .347.039.733.077 1.081 0 .077 0 .115-.077.192-.038.039-.115.078-.193.039-.886-.193-1.773-.309-2.659-.309-2.621 0-5.088.811-7.17 2.393 0 .038-.038.038-.077.038z" fill="#646464"/>
  <path d="M448.972 314.978l-.6-.799-.057.042-.05.051.707.706zm9.868-2.238l-.187.983 1.375.262-.198-1.386-.99.141zm.193-2.971l.976.217.003-.013.003-.014-.982-.19zm1.311-3.318l.851.524.006-.009.005-.009-.862-.506zm3.122-3.28l-.555-.832.555.832zm10.484-.695l-.457.89.01.005.447-.895zm3.739 3.126l-.806.592.008.01.007.01.791-.612zm1.889 4.09l-.978.206.365 1.736 1.296-1.211-.683-.731zm1.927-1.466l.522.853.017-.01.017-.011-.556-.832zm.232.386l.515.857.02-.012.02-.014-.555-.831zm-2.12 1.659l-.686-.728-.011.01-.011.011.708.707zm-.386-.116l-.985.172.025.144.066.131.894-.447zm-5.512-7.293l-.448.895.01.004.438-.899zm-10.06.695l.561.828.011-.008-.572-.82zm-3.007 3.125l-.848-.529-.004.006.852.523zm-1.272 3.203l.973.229.003-.013.003-.014-.979-.202zm-.116 3.126h1v-.056l-.006-.055-.994.111zm-.077.192l-.707-.706.707.706zm-.193.039l.448-.894-.112-.056-.123-.027-.213.977zm-9.829 2.084l-.605-.796-.395.3v.496h1zm-.077-.962c.147 0 .295.042.423.119.099.059.163.13.13.097l-1.415 1.414c.049.049.345.37.862.37v-2zm.553.216c.274.274.261.595.241.717-.022.131-.082.268-.202.388l-1.415-1.413c-.197.197-.315.45-.356.697-.04.237-.033.674.317 1.025l1.415-1.414zm-.068 1.198c1.985-1.49 4.319-2.269 6.8-2.269v-2c-2.915 0-5.669.919-8.001 2.67l1.201 1.599zm6.8-2.269c.749 0 1.534.072 2.28.214l.375-1.965c-.873-.166-1.784-.249-2.655-.249v2zm3.457-.91c-.026-.187-.028-.421-.028-.707h-2c0 .253-.002.636.048.99l1.98-.283zm-.028-.707c0-.624.069-1.285.207-1.906l-1.952-.433c-.171.767-.255 1.573-.255 2.339h2zm.213-1.933c.206-1.066.62-2.073 1.18-2.984l-1.703-1.048c-.674 1.095-1.184 2.326-1.441 3.652l1.964.38zm1.191-3.002c.69-1.175 1.662-2.185 2.815-2.954l-1.11-1.664c-1.391.929-2.578 2.156-3.43 3.605l1.725 1.013zm2.815-2.954c1.57-1.048 3.42-1.607 5.304-1.607v-2c-2.279 0-4.515.676-6.414 1.943l1.11 1.664zm5.304-1.607c1.476 0 2.897.316 4.168.97l.915-1.779c-1.582-.813-3.321-1.191-5.083-1.191v2zm4.178.975c1.33.666 2.516 1.645 3.38 2.823l1.612-1.184c-1.062-1.446-2.498-2.628-4.097-3.428l-.895 1.789zm3.395 2.843c.832 1.076 1.424 2.364 1.702 3.684l1.957-.412c-.339-1.613-1.058-3.179-2.077-4.496l-1.582 1.224zm3.363 4.209c.53-.495 1.131-.956 1.766-1.344l-1.043-1.706c-.753.46-1.462 1.003-2.089 1.588l1.366 1.462zm1.8-1.365c-.148.098-.385.171-.65.099-.241-.066-.374-.216-.43-.3l1.665-1.108c-.133-.2-.362-.427-.709-.522-.371-.101-.724-.008-.987.167l1.111 1.664zm-1.08-.201c-.097-.147-.17-.384-.098-.648.065-.24.215-.373.299-.429l1.11 1.663c.199-.133.426-.362.52-.708.101-.371.009-.723-.166-.986l-1.665 1.108zm.241-1.103c-.857.515-1.609 1.147-2.291 1.789l1.371 1.456c.629-.593 1.264-1.118 1.95-1.53l-1.03-1.715zm-2.313 1.81c.096-.095.187-.144.231-.166.054-.026.106-.043.158-.055.078-.017.29-.051.535.072l-.895 1.789c.322.161.631.128.795.091.152-.034.391-.117.591-.317l-1.415-1.414zm.924-.149c.022.011.093.049.168.125.076.076.114.147.125.168l-1.789.894c.049.099.125.227.249.352.124.124.253.2.352.25l.895-1.789zm.383.568c-.297-1.702-1.018-3.354-2.076-4.753l-1.595 1.207c.869 1.148 1.459 2.505 1.701 3.89l1.97-.344zm-2.076-4.753c-1.061-1.401-2.418-2.505-3.983-3.267l-.876 1.798c1.288.627 2.397 1.53 3.264 2.676l1.595-1.207zm-3.973-3.262c-1.53-.765-3.186-1.148-4.881-1.148v2c1.39 0 2.739.313 3.986.937l.895-1.789zm-4.881-1.148c-2.196 0-4.365.635-6.2 1.917l1.145 1.64c1.48-1.034 3.243-1.557 5.055-1.557v-2zm-6.189 1.909c-1.31.889-2.449 2.071-3.293 3.424l1.696 1.059c.697-1.117 1.641-2.096 2.72-2.828l-1.123-1.655zm-3.297 3.43c-.678 1.102-1.145 2.292-1.399 3.524l1.958.404c.208-1.005.589-1.977 1.145-2.881l-1.704-1.047zm-1.394 3.497c-.18.766-.219 1.55-.219 2.274h2c0-.665.038-1.27.166-1.816l-1.947-.458zm-.219 2.274c0 .409.045.845.083 1.191l1.988-.221c-.039-.348-.071-.684-.071-.97h-2zm.077 1.081c0 .029 0 .005.002-.025.003-.041.012-.111.04-.195.059-.178.158-.279.174-.294l1.415 1.413c.092-.092.23-.251.308-.487.07-.211.061-.409.061-.412h-2zm.216-.514c.086-.086.201-.164.35-.207.167-.047.392-.052.612.058l-.895 1.788c.621.311 1.152-.03 1.348-.226l-1.415-1.413zm.727-.232c-.94-.205-1.899-.332-2.872-.332v2c.8 0 1.614.105 2.447.286l.425-1.954zm-2.872-.332c-2.834 0-5.515.879-7.775 2.597l1.21 1.592c1.903-1.446 4.156-2.189 6.565-2.189v-2zm-8.17 3.393c0-.163.044-.386.204-.591.153-.197.34-.286.456-.324.109-.037.197-.043.225-.045.03-.002.055-.002.038-.002v2c.003 0 .047.001.095-.002.046-.004.151-.013.275-.054.129-.043.329-.139.49-.346.168-.217.217-.454.217-.636h-2z" fill="#646464" mask="url(#b)"/>
  <mask id="c" fill="#fff">
    <path d="M511.263 320.342c-.077 0-.116-.039-.154-.077-.694-.772-1.465-1.466-2.351-2.007-1.08-.656-2.275-1.119-3.508-1.312-1.041-.193-2.12-.193-3.161-.038-.809.116-1.619.347-2.428.656-.077.038-.116.038-.193 0-.039-.039-.077-.077-.116-.155-.154-1.582-.616-3.087-1.387-4.476-.656-1.196-1.504-2.238-2.544-3.164-.964-.849-2.043-1.505-3.238-2.006-.694-.309-1.465-.502-2.197-.656-1.928-.347-3.932-.232-5.782.347-.116.039-.232-.039-.27-.154-.039-.116.038-.232.154-.27 1.927-.618 4.009-.734 5.975-.348.771.155 1.542.386 2.274.695 1.233.502 2.351 1.196 3.353 2.084 1.08.926 1.966 2.045 2.66 3.279.771 1.351 1.234 2.817 1.426 4.361.733-.27 1.465-.463 2.236-.579 1.079-.154 2.197-.116 3.276.039 1.311.231 2.544.694 3.662 1.389.925.578 1.735 1.273 2.467 2.083.077.077.077.232-.038.309h-.116z"/>
  </mask>
  <path d="M511.263 320.342c-.077 0-.116-.039-.154-.077-.694-.772-1.465-1.466-2.351-2.007-1.08-.656-2.275-1.119-3.508-1.312-1.041-.193-2.12-.193-3.161-.038-.809.116-1.619.347-2.428.656-.077.038-.116.038-.193 0-.039-.039-.077-.077-.116-.155-.154-1.582-.616-3.087-1.387-4.476-.656-1.196-1.504-2.238-2.544-3.164-.964-.849-2.043-1.505-3.238-2.006-.694-.309-1.465-.502-2.197-.656-1.928-.347-3.932-.232-5.782.347-.116.039-.232-.039-.27-.154-.039-.116.038-.232.154-.27 1.927-.618 4.009-.734 5.975-.348.771.155 1.542.386 2.274.695 1.233.502 2.351 1.196 3.353 2.084 1.08.926 1.966 2.045 2.66 3.279.771 1.351 1.234 2.817 1.426 4.361.733-.27 1.465-.463 2.236-.579 1.079-.154 2.197-.116 3.276.039 1.311.231 2.544.694 3.662 1.389.925.578 1.735 1.273 2.467 2.083.077.077.077.232-.038.309h-.116z" fill="#646464"/>
  <path d="M511.109 320.265l-.744.668.018.02.018.019.708-.707zm-2.351-2.007l.52-.854h-.001l-.519.854zm-3.508-1.312l-.182.984.013.002.014.002.155-.988zm-3.161-.038l.142.99.005-.001-.147-.989zm-2.428.656l-.357-.935-.046.018-.045.023.448.894zm-.193 0l-.707.706.114.115.145.073.448-.894zm-.116-.155l-.995.097.018.185.083.165.894-.447zm-1.387-4.476l-.877.481.002.005.875-.486zm-2.544-3.164l.664-.747-.003-.003-.661.75zm-3.238-2.006l-.407.913.01.005.01.004.387-.922zm-2.197-.656l.206-.979-.015-.003-.014-.002-.177.984zm-5.782.347l-.299-.954-.009.002-.009.003.317.949zm-.116-.424l-.305-.953-.011.004.316.949zm5.975-.348l.196-.98-.004-.001-.192.981zm2.274.695l-.388.921.011.005.377-.926zm3.353 2.084l-.663.748.006.005.006.005.651-.758zm2.66 3.279l-.872.49.004.006.868-.496zm1.426 4.361l-.992.124.156 1.25 1.182-.436-.346-.938zm2.236-.579l-.142-.99-.006.001.148.989zm3.276.039l.174-.985-.016-.003-.016-.002-.142.99zm3.662 1.389l.531-.848-.003-.002-.528.85zm2.467 2.083l-.742.671.017.018.018.018.707-.707zm-.038.309l-.555-.832-1.879 1.254 2.191.548.243-.97zm-.116-1c.147 0 .295.042.424.119.098.059.162.13.129.097l-1.415 1.414c.049.048.345.37.862.37v-2zm.59.254c-.74-.822-1.584-1.588-2.575-2.192l-1.041 1.708c.782.477 1.48 1.1 2.128 1.821l1.488-1.337zm-2.576-2.192c-1.179-.717-2.496-1.23-3.873-1.446l-.309 1.976c1.091.171 2.163.583 3.143 1.179l1.039-1.709zm-3.845-1.441c-1.161-.215-2.352-.213-3.49-.044l.294 1.978c.944-.14 1.911-.138 2.832.033l.364-1.967zm-3.484-.045c-.901.129-1.784.384-2.644.711l.713 1.869c.759-.289 1.495-.498 2.214-.6l-.283-1.98zm-2.735.752c.007-.004.146-.077.351-.077s.344.073.352.077l-.896 1.788c.085.042.282.135.544.135.263 0 .46-.093.544-.135l-.895-1.788zm.962.187c-.022-.022-.004-.005.016.02.025.031.044.061.056.086l-1.789.893c.112.225.243.355.303.414l1.414-1.413zm.173.455c-.168-1.715-.67-3.353-1.509-4.864l-1.749.971c.704 1.267 1.126 2.639 1.267 4.087l1.991-.194zm-1.506-4.859c-.715-1.304-1.637-2.434-2.757-3.431l-1.329 1.494c.962.856 1.735 1.809 2.332 2.898l1.754-.961zm-2.76-3.434c-1.053-.927-2.226-1.639-3.512-2.178l-.774 1.844c1.104.463 2.088 1.064 2.964 1.835l1.322-1.501zm-3.493-2.17c-.793-.353-1.649-.563-2.397-.721l-.413 1.957c.717.151 1.403.327 1.997.591l.813-1.827zm-2.426-.726c-2.082-.375-4.25-.252-6.258.377l.597 1.908c1.693-.529 3.534-.636 5.306-.317l.355-1.968zm-6.276.382c.247-.082.492-.033.668.073.166.099.275.248.328.406l-1.898.632c.165.496.763 1.044 1.535.787l-.633-1.898zm.996.479c.082.246.033.49-.072.666-.1.166-.248.275-.406.328l-.633-1.897c-.498.166-1.044.764-.787 1.535l1.898-.632zm-.49.998c1.766-.566 3.676-.672 5.477-.318l.385-1.963c-2.13-.418-4.383-.293-6.472.376l.61 1.905zm5.473-.319c.709.142 1.416.354 2.083.635l.776-1.843c-.798-.336-1.633-.586-2.466-.753l-.393 1.961zm2.094.64c1.128.459 2.149 1.093 3.067 1.906l1.326-1.497c-1.086-.962-2.301-1.717-3.639-2.261l-.754 1.852zm3.079 1.916c.983.843 1.797 1.868 2.439 3.011l1.744-.979c-.746-1.327-1.704-2.54-2.88-3.549l-1.303 1.517zm2.443 3.017c.7 1.227 1.124 2.565 1.302 3.989l1.985-.248c-.208-1.664-.709-3.258-1.55-4.732l-1.737.991zm2.64 4.803c.673-.248 1.339-.423 2.039-.528l-.297-1.978c-.843.127-1.641.337-2.434.629l.692 1.877zm2.032-.527c.963-.138 1.983-.106 2.993.038l.283-1.979c-1.148-.165-2.364-.21-3.56-.039l.284 1.98zm2.96.033c1.191.21 2.303.629 3.309 1.254l1.055-1.699c-1.23-.764-2.585-1.271-4.016-1.524l-.348 1.969zm3.306 1.252c.84.526 1.58 1.159 2.255 1.907l1.484-1.341c-.789-.873-1.668-1.629-2.678-2.261l-1.061 1.695zm2.29 1.943c-.345-.346-.322-.939.114-1.23l1.11 1.664c.667-.446.69-1.347.191-1.847l-1.415 1.413zm.669-.398v-1h-.002-.001-.001-.002-.002-.004-.002-.001-.001-.001-.002-.001-.001-.002-.001-.003-.001-.001-.004-.001-.001-.002-.001-.002-.001-.002H511.263v2H511.379v-1z" fill="#646464" mask="url(#c)"/>
  <mask id="d" fill="#fff">
    <path d="M513.807 327.133c-.115 0-.192-.077-.192-.193 0-1.235-.232-2.431-.656-3.55-.038-.115 0-.231.116-.27.116-.038.231 0 .27.116.424 1.196.655 2.431.655 3.704 0 .116-.077.193-.193.193z"/>
  </mask>
  <path d="M513.807 327.133c-.115 0-.192-.077-.192-.193 0-1.235-.232-2.431-.656-3.55-.038-.115 0-.231.116-.27.116-.038.231 0 .27.116.424 1.196.655 2.431.655 3.704 0 .116-.077.193-.193.193z" fill="#646464"/>
  <path d="M512.959 323.39l-.949.316.007.02.007.019.935-.355zm.386-.154l-.949.316.003.009.003.009.943-.334zm.462 2.897c.17 0 .389.061.568.24.179.179.24.398.24.567h-2c0 .285.099.6.345.847.247.247.562.346.847.346v-2zm.808.807c0-1.36-.255-2.676-.721-3.904l-1.87.709c.383 1.01.591 2.086.591 3.195h2zm-.707-3.866c.042.126.063.315-.02.523-.091.229-.279.399-.497.472l-.633-1.897c-.333.111-.597.358-.727.683-.122.305-.101.61-.021.851l1.898-.632zm-.517.995c-.125.042-.315.063-.524-.02-.229-.092-.399-.28-.471-.497l1.898-.632c-.111-.333-.358-.598-.684-.728-.305-.122-.61-.101-.852-.02l.633 1.897zm-.989-.499c.39 1.098.598 2.22.598 3.37h2c0-1.397-.254-2.744-.713-4.038l-1.885.668zm.598 3.37c0-.169.061-.388.24-.567.179-.179.398-.24.567-.24v2c.286 0 .601-.099.848-.346.246-.247.345-.562.345-.847h-2z" fill="#646464" mask="url(#d)"/>
  <mask id="e" fill="#fff">
    <path d="M511.649 333.462c-.039 0-.077 0-.116-.039-.077-.077-.116-.193-.039-.309.887-1.157 1.504-2.431 1.851-3.858.038-.116.154-.193.269-.155.116.039.193.155.155.27-.347 1.467-1.003 2.817-1.928 4.013-.077.039-.115.078-.192.078z"/>
  </mask>
  <path d="M511.649 333.462c-.039 0-.077 0-.116-.039-.077-.077-.116-.193-.039-.309.887-1.157 1.504-2.431 1.851-3.858.038-.116.154-.193.269-.155.116.039.193.155.155.27-.347 1.467-1.003 2.817-1.928 4.013-.077.039-.115.078-.192.078z" fill="#646464"/>
  <path d="M511.533 333.423l.707-.707-.707.707zm-.039-.309l-.793-.608-.021.026-.018.028.832.554zm1.851-3.858l-.949-.316-.013.039-.01.04.972.237zm.424.115l-.949-.316-.014.043-.01.043.973.23zm-1.928 4.013l.448.895.204-.102.139-.181-.791-.612zm-.192-.922c-.038 0 .065-.005.185.025.152.038.295.118.406.229l-1.415 1.414c.35.35.77.332.824.332v-2zm.591.254c.074.073.166.201.2.388.038.21-.013.414-.113.565l-1.665-1.109c-.178.267-.247.586-.19.902.053.293.203.517.353.668l1.415-1.414zm.048 1.006c.97-1.265 1.648-2.665 2.028-4.23l-1.943-.473c-.314 1.29-.869 2.438-1.672 3.487l1.587 1.216zm2.005-4.15c-.052.157-.162.306-.327.406-.176.105-.421.154-.668.072l.633-1.897c-.772-.258-1.37.29-1.535.787l1.897.632zm-.995.478c-.158-.053-.307-.163-.406-.329-.106-.175-.154-.419-.072-.666l1.897.632c.257-.77-.288-1.368-.786-1.534l-.633 1.897zm-.502-.909c-.314 1.323-.905 2.544-1.746 3.632l1.582 1.223c1.01-1.305 1.729-2.785 2.11-4.394l-1.946-.461zm-1.402 3.349c-.048.024-.087.047-.105.057-.025.014-.01.005.008-.004.026-.013.076-.035.143-.054.07-.019.141-.027.209-.027v2c.106 0 .21-.014.312-.042.098-.026.177-.061.232-.088.047-.024.091-.05.097-.053.014-.009.008-.005-.001 0l-.895-1.789z" fill="#646464" mask="url(#e)"/>
  <mask id="f" fill="#fff">
    <path d="M503.515 337.436c-.115 0-.192-.077-.192-.193s.077-.193.192-.193c1.195 0 2.352-.193 3.47-.617 1.079-.386 2.081-.965 2.929-1.698.077-.077.231-.077.308.038.077.116.077.232-.038.309-.925.772-1.966 1.351-3.084 1.775-1.156.386-2.351.579-3.585.579z"/>
  </mask>
  <path d="M503.515 337.436c-.115 0-.192-.077-.192-.193s.077-.193.192-.193c1.195 0 2.352-.193 3.47-.617 1.079-.386 2.081-.965 2.929-1.698.077-.077.231-.077.308.038.077.116.077.232-.038.309-.925.772-1.966 1.351-3.084 1.775-1.156.386-2.351.579-3.585.579z" fill="#646464"/>
  <path d="M506.985 336.433l-.337-.942-.009.003-.009.004.355.935zm2.929-1.698l.654.756.028-.024.026-.025-.708-.707zm.27.347l-.555-.832-.045.03-.041.034.641.768zm-3.084 1.775l.317.949.019-.007.019-.007-.355-.935zm-3.585-.421c.17 0 .389.061.568.24.179.179.24.398.24.567h-2c0 .285.099.6.345.847.247.246.562.346.847.346v-2zm.808.807c0 .169-.061.388-.24.567-.179.179-.398.24-.568.24v-2c-.285 0-.6.1-.847.346-.246.247-.345.562-.345.847h2zm-.808.807c1.305 0 2.583-.211 3.825-.683l-.71-1.869c-.995.377-2.03.552-3.115.552v2zm3.806-.676c1.192-.426 2.302-1.066 3.247-1.883l-1.308-1.513c-.751.65-1.645 1.167-2.612 1.513l.673 1.883zm3.301-1.932c-.347.346-.941.322-1.232-.114l1.665-1.109c-.445-.668-1.348-.692-1.848-.191l1.415 1.414zm-1.232-.114c-.037-.056-.133-.225-.111-.476.027-.295.198-.501.35-.602l1.11 1.664c.267-.178.496-.48.532-.881.033-.358-.102-.643-.216-.814l-1.665 1.109zm.153-1.014c-.829.692-1.77 1.218-2.798 1.608l.71 1.87c1.208-.459 2.349-1.09 3.369-1.942l-1.281-1.536zm-2.759 1.594c-1.053.352-2.141.528-3.269.528v2c1.34 0 2.642-.21 3.902-.63l-.633-1.898z" fill="#646464" mask="url(#f)"/>
  <mask id="g" fill="#fff">
    <path d="M501.588 337.436c-1.542 0-3.777 0-6.36-.039h-5.396c-2.66 0-5.551 0-7.478-.038-.116 0-.193-.078-.193-.232 0-.116.077-.193.193-.193 1.888 0 4.779 0 7.478.039h5.396c2.621 0 4.818.038 6.36.038.116 0 .193.078.193.193.038.155-.077.232-.193.232z"/>
  </mask>
  <path d="M501.588 337.436c-1.542 0-3.777 0-6.36-.039h-5.396c-2.66 0-5.551 0-7.478-.038-.116 0-.193-.078-.193-.232 0-.116.077-.193.193-.193 1.888 0 4.779 0 7.478.039h5.396c2.621 0 4.818.038 6.36.038.116 0 .193.078.193.193.038.155-.077.232-.193.232z" fill="#646464"/>
  <path d="M495.228 337.397l.015-1h-.015v1zm-12.874-.038l.02-1h-.02v1zm7.478-.386l-.015 1h.015v-1zm11.949.231h-1v.123l.03.12.97-.243zm-.193-.768c-1.541 0-3.771 0-6.345-.039l-.03 2c2.591.039 4.833.039 6.375.039v-2zm-6.36-.039H489.832v2H495.228v-2zm-5.396 0c-2.664 0-5.543 0-7.458-.038l-.04 1.999c1.939.039 4.842.039 7.498.039v-2zm-7.478-.038c.175 0 .423.066.613.284.174.199.194.406.194.484h-2c0 .233.058.555.3.832.257.294.602.4.893.4v-2zm.807.768c0 .169-.061.388-.24.567-.179.179-.398.24-.567.24v-2c-.286 0-.601.1-.848.347-.246.246-.345.561-.345.846h2zm-.807.807c1.889 0 4.773 0 7.463.039l.029-2c-2.707-.039-5.605-.039-7.492-.039v2zm7.478.039H495.228v-2H489.832v2zm5.396 0c1.306 0 2.507.009 3.576.019 1.067.01 2.007.019 2.784.019v-2c-.765 0-1.693-.009-2.766-.019-1.07-.01-2.279-.019-3.594-.019v2zm6.36.038c-.17 0-.389-.061-.568-.24-.178-.179-.239-.398-.239-.567h2c0-.285-.099-.6-.346-.846-.246-.247-.561-.347-.847-.347v2zm-.777-.564c-.056-.225-.012-.539.224-.776.191-.191.412-.235.553-.235v2c.257 0 .593-.083.862-.351.313-.314.396-.744.301-1.123l-1.94.485z" fill="#646464" mask="url(#g)"/>
  <mask id="h" fill="#fff">
    <path d="M477.381 337.359c-2.081 0-3.084-.039-4.047-.039-.964 0-1.85-.038-3.739-.038-3.701 0-7.054-.039-9.56-.039-.115 0-.192-.077-.192-.193s.077-.193.192-.193c2.506 0 5.859.039 9.56.039 1.889 0 2.814 0 3.739.038.963 0 1.966.039 4.009.039.115 0 .192.077.192.231.039.039-.038.155-.154.155z"/>
  </mask>
  <path d="M477.381 337.359c-2.081 0-3.084-.039-4.047-.039-.964 0-1.85-.038-3.739-.038-3.701 0-7.054-.039-9.56-.039-.115 0-.192-.077-.192-.193s.077-.193.192-.193c2.506 0 5.859.039 9.56.039 1.889 0 2.814 0 3.739.038.963 0 1.966.039 4.009.039.115 0 .192.077.192.231.039.039-.038.155-.154.155z" fill="#646464"/>
  <path d="M473.334 336.934l-.042.999.021.001h.021v-1zm4.201.27h-1v.414l.293.293.707-.707zm-.154-.845c-1.034 0-1.799-.01-2.428-.019-.624-.01-1.127-.02-1.619-.02v2c.472 0 .951.01 1.589.019.634.01 1.411.02 2.458.02v-2zm-4.047-.039c-.471 0-.922-.009-1.506-.019-.582-.01-1.281-.019-2.233-.019v2c.937 0 1.624.009 2.199.019.573.009 1.047.019 1.54.019v-2zm-3.739-.038c-1.847 0-3.608-.01-5.222-.02-1.613-.009-3.081-.019-4.338-.019v2c1.249 0 2.71.01 4.326.019 1.614.01 3.38.02 5.234.02v-2zm-9.56-.039c.17 0 .389.061.568.24.179.179.24.398.24.567h-2c0 .285.099.6.345.847.246.246.562.346.847.346v-2zm.808.807c0 .169-.061.388-.24.567-.179.179-.398.24-.568.24v-2c-.285 0-.601.1-.847.346-.246.247-.345.562-.345.847h2zm-.808.807c1.249 0 2.71.01 4.326.019 1.614.01 3.38.02 5.234.02v-2c-1.847 0-3.608-.01-5.222-.02-1.613-.009-3.081-.019-4.338-.019v2zm9.56.039c1.896 0 2.798 0 3.697.037l.083-1.998c-.95-.039-1.899-.039-3.78-.039v2zm3.739.038c.471 0 .951.01 1.584.02.629.009 1.396.019 2.425.019v-2c-1.015 0-1.771-.01-2.394-.019-.62-.01-1.123-.02-1.615-.02v2zm4.009.039c-.176 0-.424-.067-.614-.284-.174-.2-.194-.406-.194-.485h2c0-.232-.058-.554-.3-.831-.257-.295-.602-.4-.892-.4v2zm-.515-.062c-.319-.319-.3-.707-.261-.883.041-.182.126-.309.189-.382.129-.151.344-.287.625-.287v2c.396 0 .708-.195.895-.413.092-.107.196-.269.244-.484.046-.209.061-.626-.277-.964l-1.415 1.413z" fill="#646464" mask="url(#h)"/>
  <mask id="i" fill="#fff">
    <path d="M456.373 337.243c-1.966 0-3.816-.463-5.55-1.312-.116-.039-.155-.193-.077-.27.038-.116.192-.154.269-.077 1.658.849 3.47 1.273 5.358 1.273.116 0 .193.077.193.193s-.077.193-.193.193z"/>
  </mask>
  <path d="M456.373 337.243c-1.966 0-3.816-.463-5.55-1.312-.116-.039-.155-.193-.077-.27.038-.116.192-.154.269-.077 1.658.849 3.47 1.273 5.358 1.273.116 0 .193.077.193.193s-.077.193-.193.193z" fill="#646464"/>
  <path d="M450.823 335.931l.439-.898-.06-.029-.063-.022-.316.949zm-.077-.27l.707.707.167-.167.074-.224-.948-.316zm.269-.077l-.707.706.111.112.141.072.455-.89zm5.358.659c-1.803 0-3.503-.423-5.111-1.21l-.879 1.796c1.862.911 3.862 1.414 5.99 1.414v-2zm-5.234-1.261c.305.102.478.346.538.566.057.21.046.549-.224.82l-1.415-1.414c-.347.348-.377.803-.291 1.119.089.326.338.666.759.807l.633-1.898zm.555.995c-.101.304-.344.477-.565.538-.21.057-.551.046-.821-.225l1.415-1.413c-.348-.348-.804-.378-1.12-.292-.327.089-.666.34-.806.76l1.897.632zm-1.134.497c1.803.924 3.772 1.383 5.813 1.383v-2c-1.736 0-3.39-.389-4.902-1.163l-.911 1.78zm5.813 1.383c-.169 0-.388-.061-.567-.24-.179-.179-.24-.398-.24-.567h2c0-.285-.099-.6-.345-.847-.247-.246-.562-.346-.848-.346v2zm-.807-.807c0-.169.061-.388.24-.567.179-.179.398-.24.567-.24v2c.286 0 .601-.1.848-.346.246-.247.345-.562.345-.847h-2z" fill="#646464" mask="url(#i)"/>
  <mask id="j" fill="#fff">
    <path d="M446.082 331.532c-.078 0-.155-.038-.193-.116-1.234-1.968-1.889-4.244-1.889-6.559 0-.116.077-.193.193-.193.115 0 .192.077.192.193 0 2.238.617 4.437 1.812 6.328.077.116.039.231-.077.309.039.038 0 .038-.038.038z"/>
  </mask>
  <path d="M446.082 331.532c-.078 0-.155-.038-.193-.116-1.234-1.968-1.889-4.244-1.889-6.559 0-.116.077-.193.193-.193.115 0 .192.077.192.193 0 2.238.617 4.437 1.812 6.328.077.116.039.231-.077.309.039.038 0 .038-.038.038z" fill="#646464"/>
  <path d="M445.889 331.416l.894-.446-.021-.044-.026-.041-.847.531zm.308-.231l-.845.534.006.01.007.01.832-.554zm-.077.309l-.555-.832-1.014.676.862.862.707-.706zm-.038-.962c.246 0 .547.129.701.438l-1.789.893c.231.463.687.669 1.088.669v-2zm.654.353c-1.134-1.809-1.736-3.902-1.736-6.028h-2c0 2.503.708 4.964 2.041 7.09l1.695-1.062zM445 324.857c0 .169-.061.387-.24.566-.179.18-.398.241-.567.241v-2c-.286 0-.601.099-.847.346-.247.247-.346.562-.346.847h2zm-.807.807c-.17 0-.389-.061-.568-.241-.179-.179-.24-.397-.24-.566h2c0-.285-.099-.6-.345-.847-.247-.247-.562-.346-.847-.346v2zm-.808-.807c0 2.421.668 4.806 1.967 6.862l1.69-1.068c-1.09-1.726-1.657-3.739-1.657-5.794h-2zm1.98 6.882c-.098-.147-.171-.384-.099-.648.065-.24.215-.373.299-.429l1.11 1.663c.2-.133.426-.362.521-.708.101-.371.009-.724-.167-.986l-1.664 1.108zm.048.461c-.004-.004-.188-.171-.253-.467-.043-.193-.037-.449.102-.698.129-.23.312-.348.42-.402.186-.093.353-.099.356-.099.034-.002.063-.002.044-.002v2s.047.001.099-.003c.019-.001.201-.01.396-.107.114-.057.3-.178.431-.411.141-.253.148-.514.104-.712-.068-.307-.261-.489-.284-.512l-1.415 1.413z" fill="#646464" mask="url(#j)"/>
  <path d="M11.3048 309.881H8.46714c-1.32728 0-2.56303-.275-3.70723-.87-1.23575-.596-2.28842-1.512-3.11225-2.612C.594988 304.933 0 303.192 0 301.405c0-1.053.183073-2.107.594988-3.069.045768-.092.137305-.138.27461-.092.091537.046.137302.137.091537.275-.366147.962-.54922 1.924-.54922 2.932 0 1.741.549219 3.391 1.556125 4.765.77806 1.054 1.78496 1.924 2.97494 2.474 1.09844.55 2.28842.825 3.56993.825h2.83759c.0916 0 .1831.091.1831.183s-.1373.183-.2288.183zM3.84448 294.762c-.04576 0-.1373-.046-.18307-.092-.04577-.091-.04577-.229.04577-.275 1.05267-.687 2.28842-1.191 3.52416-1.328-.27461-.642-.45768-1.329-.45768-2.016 0-1.008.32038-1.97.8696-2.795.91536-1.283 2.42574-2.062 3.98184-2.062.6408 0 1.2815.138 1.8765.367 1.0069.412 1.8307 1.145 2.38 2.107.6865-.504 1.373-.916 2.1511-1.282.0915-.046.2288 0 .2746.091.0457.092 0 .229-.0916.275-.778.367-1.5561.825-2.2426 1.375-.0458.045-.0915.045-.1831.045-.0458 0-.0915-.045-.1373-.091-.5034-.962-1.2815-1.695-2.2884-2.108-.5492-.229-1.0984-.321-1.6934-.321-1.4646 0-2.83767.734-3.6615 1.925-.54922.779-.82383 1.649-.82383 2.565 0 .734.18308 1.467.50345 2.108.04577.046.04577.137 0 .183-.04576.046-.09153.092-.1373.092-1.28152.137-2.56303.596-3.6157 1.329 0-.092-.04577-.092-.09154-.092zM24.5777 286.79c-.595-.092-1.1442-.138-1.6019-.138-.0915 0-.1831-.091-.1831-.183 0-.091.0916-.183.1831-.183.4577 0 .9611.046 1.5104.092.2288-.596.5492-1.192.9611-1.696.6865-.87 1.6019-1.603 2.6088-2.061 1.6934-.779 3.7072-.825 5.4464-.138.0915.046.1373.138.0915.275-.0457.092-.1373.138-.2746.092-1.6476-.642-3.5241-.596-5.126.137-.9612.458-1.785 1.1-2.4257 1.924-.4119.55-.7323 1.1-.9612 1.741-.0457.092-.1373.138-.2288.138zM38.72 294.441c-.0458 0-.0916 0-.1373-.046-.595-.641-1.2816-1.191-2.0596-1.603-.0458-.046-.0916-.092-.0916-.138 0-.045 0-.091.0458-.137.6865-1.054 1.0527-2.291 1.0527-3.528 0-1.603-.5492-3.115-1.6019-4.307-.0915-.091-.0458-.183 0-.274.0915-.092.1831-.046.2746 0 1.0984 1.282 1.6934 2.886 1.6934 4.581 0 1.283-.3661 2.474-1.0069 3.574.6866.412 1.2815.916 1.8765 1.466.7781-.412 1.6019-.733 2.4715-.871.0916 0 .2289.046.2289.138 0 .092-.0458.229-.1373.229-.8696.183-1.6935.458-2.4715.916H38.72zM51.0317 301.634c-.0915 0-.1831-.091-.1831-.183 0-1.97-.7322-3.894-2.0138-5.36-1.0069-1.146-2.2884-1.971-3.753-2.383-.7323-.229-1.5103-.321-2.2884-.321-.0915 0-.183-.091-.183-.183 0-.091.0915-.183.183-.183.8239 0 1.6019.092 2.38.321 1.5103.458 2.8834 1.328 3.9361 2.519 1.373 1.558 2.1511 3.528 2.1511 5.636-.0458.046-.1373.137-.2289.137zM47.0042 308.736c-.0458 0-.1374-.046-.1831-.092-.0458-.091-.0458-.229.0457-.275 1.2816-.779 2.3342-1.878 3.0207-3.207.0458-.091.1831-.137.2747-.091.0915.045.1373.183.0915.274-.7323 1.421-1.8307 2.566-3.2038 3.391h-.0457zM38.8573 309.881H15.3324c-.0916 0-.1831-.091-.1831-.183 0-.091.0915-.183.1831-.183h23.5249c.0915 0 .1831.092.1831.183 0 .092-.0458.183-.1831.183z" fill="#646464"/>
  <rect x="593.5" y="317.5" width="9" height="8.98962" rx=".5" stroke="#fff"/>
  <path d="M91.4103 467.574c2.4337 0 4.4067-1.973 4.4067-4.407s-1.973-4.407-4.4067-4.407-4.4066 1.973-4.4066 4.407 1.9729 4.407 4.4066 4.407zM106.503 463.167H95.8167M119.061 463.167h-6.83M121.817 463.167c5.508 0 9.694-1.322 12.779-3.305 2.864-1.873 4.406-5.068 4.406-8.483v-2.644M170.178 401.915h-8.042c-24.898 0-23.245 23.245-23.245 23.245M139.002 429.126v12.669M423.561 475.836c2.434 0 4.407-1.973 4.407-4.406 0-2.434-1.973-4.407-4.407-4.407s-4.407 1.973-4.407 4.407c0 2.433 1.973 4.406 4.407 4.406zM423.56 457.769v5.839M423.56 437.058v15.753M410.01 407.974s13.55-.661 13.55 13.55v7.271M405.383 407.974h-17.185s-10.576 1.101-10.576-10.466v-14.322M402.739 268.063v13.991M427.637 234.131s-24.898-1.211-24.898 25.339" stroke="#646464" stroke-miterlimit="10" stroke-linecap="round" stroke-linejoin="round"/>
  <path d="M456.281 172.328v32.169s2.093 29.745-28.643 29.745" stroke="#646464" stroke-miterlimit="10" stroke-linecap="round" stroke-linejoin="round" stroke-dasharray="40 40"/>
  <path d="M456.39 171.337c2.433 0 4.406-1.973 4.406-4.407s-1.973-4.407-4.406-4.407c-2.434 0-4.407 1.973-4.407 4.407s1.973 4.407 4.407 4.407z" stroke="#646464" stroke-miterlimit="10" stroke-linecap="round" stroke-linejoin="round"/>
  <path d="M346.223 235.013l-19.499-10.246-19.941 9.364" stroke="#646464" stroke-linecap="round" stroke-linejoin="round"/>
  <path d="M304.47 235.233l-64.557 30.075" stroke="#646464" stroke-linecap="round" stroke-linejoin="round" stroke-dasharray="23.23 23.23"/>
  <path d="M233.302 268.393l-97.717 45.719" stroke="#646464" stroke-linecap="round" stroke-linejoin="round" stroke-dasharray="30.97 30.97"/>
  <path d="M128.975 317.087l-19.94 9.364 19.5 10.245" stroke="#646464" stroke-linecap="round" stroke-linejoin="round"/>
  <path d="M131.399 338.128l79.871 41.643" stroke="#646464" stroke-linecap="round" stroke-linejoin="round" stroke-dasharray="29.36 29.36"/>
  <path d="M219.422 383.957l19.5 10.246 19.94-9.364" stroke="#646464" stroke-linecap="round" stroke-linejoin="round"/>
  <path d="M261.175 383.737l64.337-30.185" stroke="#646464" stroke-linecap="round" stroke-linejoin="round" stroke-dasharray="23.18 23.18"/>
  <path d="M332.011 350.467l97.497-45.829" stroke="#646464" stroke-linecap="round" stroke-linejoin="round" stroke-dasharray="30.91 30.91"/>
  <path d="M436.008 301.553l19.94-9.364-19.499-10.135" stroke="#646464" stroke-linecap="round" stroke-linejoin="round"/>
  <path d="M433.586 280.511l-79.209-41.312" stroke="#646464" stroke-linecap="round" stroke-linejoin="round" stroke-dasharray="29.16 29.16"/>
  <path d="M132.282 349.586l-23.245 10.906 15.644 8.152" fill="#fff"/>
  <path d="M132.282 349.586l-23.245 10.906 15.644 8.152" stroke="#646464" stroke-linecap="round" stroke-linejoin="round"/>
  <path d="M134.375 373.602l85.048 44.397" stroke="#646464" stroke-linecap="round" stroke-linejoin="round" stroke-dasharray="39.59 39.59"/>
  <path d="M223.279 420.092l15.644 8.152 15.974-7.491" fill="#fff"/>
  <path d="M223.279 420.092l15.644 8.152 15.974-7.491" stroke="#646464" stroke-linecap="round" stroke-linejoin="round"/>
  <path d="M262.72 417.007l69.074-32.389" stroke="#646464" stroke-linecap="round" stroke-linejoin="round" stroke-dasharray="31.48 31.48"/>
  <path d="M334.878 383.076l102.014-47.922" stroke="#646464" stroke-linecap="round" stroke-linejoin="round" stroke-dasharray="25.18 25.18"/>
  <path d="M440.086 333.722l15.864-7.492-23.135-12.118" fill="#fff"/>
  <path d="M440.086 333.722l15.864-7.492-23.135-12.118M132.282 383.627l-23.245 10.796 19.499 10.246" stroke="#646464" stroke-linecap="round" stroke-linejoin="round"/>
  <path d="M129.859 405.33l29.194 15.203" stroke="#646464" stroke-linecap="round" stroke-linejoin="round" stroke-dasharray="11.29 11.29"/>
  <path d="M161.036 421.524l56.405 29.525" stroke="#646464" stroke-linecap="round" stroke-linejoin="round" stroke-dasharray="26.56 26.56"/>
  <path d="M219.423 452.04l19.5 10.135 19.94-9.364" stroke="#646464" stroke-linecap="round" stroke-linejoin="round"/>
  <path d="M261.398 451.599l56.956-26.66" stroke="#646464" stroke-linecap="round" stroke-linejoin="round" stroke-dasharray="21.58 21.58"/>
  <path d="M322.099 423.066l110.166-51.668" stroke="#646464" stroke-linecap="round" stroke-linejoin="round" stroke-dasharray="50.78 50.78"/>
  <path d="M436.01 369.636l19.94-9.364-23.135-12.119" stroke="#646464" stroke-linecap="round" stroke-linejoin="round"/>
  <path d="M214.025 288.333l-76.896 35.914 75.904 39.66 76.566-36.134-75.574-39.44z" stroke="#646464" stroke-miterlimit="10" stroke-linecap="round" stroke-linejoin="round"/>
  <path d="M270.761 325.459c1.763.992 1.983 2.313.551 2.974s-3.856.441-5.508-.55c-1.653-.992-1.983-2.314-.551-3.085 1.322-.551 3.745-.33 5.508.661z" stroke="#646464" stroke-miterlimit="10" stroke-linecap="round" stroke-linejoin="round"/>
  <path d="M265.143 324.908s-4.186-2.203-8.152-2.864c-3.966-.661-8.483-.881-17.957 1.101-9.474 1.983-14.432 1.983-19.72-.771-3.195-1.652 0-2.313-4.627-5.728-1.873-1.432 2.093-1.543-2.534-4.076-1.873-1.102-3.525-.772-3.525-.772s-2.314-1.762-4.186-2.974c-2.314-1.432-9.915-3.746-21.373 1.652-11.457 5.399-6.72 9.585-3.525 10.797 2.534.991 6.169 2.203 6.169 2.203s-.55.881 1.543 1.873c5.618 2.534 5.508.22 8.372 1.212 6.831 2.313 8.153.661 11.347 2.203 5.399 2.644 5.399 5.178.992 10.466-4.407 5.288-5.178 7.711-4.186 9.915.991 2.203 4.186 3.966 4.186 3.966" stroke="#646464" stroke-miterlimit="10" stroke-linecap="round" stroke-linejoin="round"/>
  <path d="M486.136 124.626c0 16.966-13.661 30.626-30.626 30.626-16.966 0-30.626-13.66-30.626-30.626 0-16.965 13.66-30.626 30.626-30.626 16.965 0 30.626 13.771 30.626 30.626z" stroke="#F3652B" stroke-linecap="round" stroke-linejoin="round" stroke-dasharray="2 3"/>
  <path d="M467.958 118.898v-.992c0-2.203-1.763-3.856-3.966-3.856-2.203 0-3.966 1.763-3.966 3.966v.992h-.881v7.932h9.694v-7.932h-.881v-.11zm-7.161-.992c0-1.763 1.432-3.195 3.195-3.195s3.195 1.432 3.195 3.195v.992h-6.39v-.992zm7.381 8.152h-8.262v-6.389h8.262v6.389z" fill="#F3652B"/>
  <path d="M465.426 125.067l-.441-2.204c.22-.22.331-.55.331-.881 0-.661-.551-1.322-1.322-1.322-.661 0-1.322.551-1.322 1.322 0 .331.11.661.33.881l-.44 2.204h2.864zm-1.432-3.636c.33 0 .551.221.551.551 0 .22-.111.331-.221.441l-.22.11.33 1.763h-.881l.33-1.543v-.22l-.22-.11c-.11-.11-.22-.221-.22-.441 0-.33.33-.551.551-.551z" fill="#F3652B"/>
  <path d="M463.552 129.694h1.763v2.974h-8.704l.992 1.873h-5.398l.991-1.873h-8.703v-15.203h10.466v1.763h.771v-2.534h-12.008v16.745h8.262l-.991 1.873h7.822l-.882-1.873h8.153v-4.516h-2.534v.771z" fill="#F3652B"/>
  <path d="M87.0022 462.176c0 16.965-13.6606 30.626-30.6262 30.626-16.9656 0-30.6262-13.661-30.6262-30.626 0-16.966 13.6606-30.627 30.6262-30.627 16.9656 0 30.6262 13.771 30.6262 30.627z" stroke="#F3652B" stroke-linecap="round" stroke-linejoin="round" stroke-dasharray="2 3"/>
  <path d="M66.0725 456.667v-2.974c0-5.178-4.1863-9.364-9.2539-9.364-5.1779 0-9.3642 4.186-9.3642 9.364v2.974h-2.2033v18.619H68.386v-18.619h-2.3135zm1.5423 17.958H45.9121v-17.186h2.2033v-3.746c0-4.737 3.8558-8.593 8.593-8.593 4.7371 0 8.593 3.856 8.593 8.703v3.636h2.2033v17.186h.1101z" fill="#F3652B"/>
  <path d="M56.8152 446.643c-3.8558 0-7.0507 3.195-7.0507 7.05v3.746h14.1013v-3.746c0-3.966-3.1948-7.05-7.0506-7.05zm-6.3897 10.025v-2.975c0-3.525 2.8644-6.389 6.3897-6.389 3.5253 0 6.3896 2.864 6.3896 6.389v2.975H50.4255zM59.3503 463.718c0-1.432-1.2118-2.534-2.5338-2.534-1.4322 0-2.5338 1.212-2.5338 2.534 0 .771.3305 1.543.8813 1.983l-.9915 5.068h5.3981l-.9915-5.068c.4407-.44.7712-1.212.7712-1.983zm-.661 6.39h-3.6355l.8814-4.517v-.22l-.1102-.11c-.5509-.331-.7712-.882-.7712-1.543 0-.991.8813-1.873 1.8728-1.873s1.8729.882 1.8729 1.873c0 .551-.3305 1.212-.8814 1.543l-.1101.11.8813 4.737z" fill="#F3652B"/>
  <path d="M454.186 511.31c0 16.965-13.66 30.626-30.626 30.626-16.965 0-30.626-13.661-30.626-30.626 0-16.966 13.661-30.626 30.626-30.626 16.856 0 30.626 13.66 30.626 30.626z" stroke="#F3652B" stroke-linecap="round" stroke-linejoin="round" stroke-dasharray="2 3"/>
  <path d="M429.287 507.564h7.161v-5.398h-7.161v5.398zm6.5-.771h-5.839v-3.966h5.839v3.966zM425.984 514.395h10.466v-5.288h-10.466v5.288zm.661-4.517h9.144v3.966h-9.144v-3.966zM429.178 521.225h7.271v-5.288h-7.271v5.288zm.661-4.627h5.949v3.966h-5.949v-3.966zM420.366 503.819l-.551-.221v.551c.33 4.076-.331 6.61-2.093 7.381-2.754-4.517-1.763-9.254-.331-12.559l.11-.661-.661.11c-5.067 2.314-5.838 9.034-6.279 12.559v.331c-1.212-.441-2.314-1.873-2.314-3.636v-.881l-.55.551c-1.433 1.432-1.873 5.508-.551 8.923.881 2.204 2.864 4.738 7.381 4.738 3.305 0 7.601-1.102 8.483-6.5.881-4.407-1.322-10.246-2.644-10.686zm1.983 10.796c-.771 4.847-4.627 5.839-7.822 5.839-4.076 0-5.949-2.314-6.72-4.297-.882-2.093-.992-5.618-.11-7.381.33 1.542 1.432 3.085 3.084 3.415l.331.11.11-1.101c.33-3.195 1.102-9.144 5.178-11.678-1.322 3.415-1.983 8.152.881 12.669l.22.11.221-.11c2.093-.771 2.974-3.195 2.754-7.271 1.102 1.763 2.534 5.949 1.873 9.695zM423.229 504.59c.441.881.771 1.762.992 2.644v.22h3.635v-5.288h-6.61l.661.551c.551.551.881 1.102 1.322 1.873zm3.966-1.653v3.966h-2.424c-.22-.881-.55-1.652-.991-2.534-.22-.55-.551-.991-.881-1.432h4.296zM424.551 515.937v.22c-.22.771-.441 1.432-.771 1.983-.441.882-1.102 1.763-1.873 2.424l-.661.661h6.72v-5.288h-3.415zm2.644.661v3.966h-4.296c.55-.551.991-1.322 1.432-1.983.33-.551.551-1.212.771-1.873h2.093v-.11z" fill="#F3652B"/>
  <rect x="344.062" y="508.417" width="9.28545" height="9.28545" rx=".5" stroke="#979797"/>
  <rect x="188.5" y="53.5" width="7" height="7" rx=".5" stroke="#1E1E1E"/>
  <rect x="64.5" y="612.5" width="6" height="6" rx=".5" stroke="#1E1E1E"/>
  <rect x="38.5" y="355.5" width="6" height="6" rx=".5" stroke="#C8C8C8"/>
  <rect x="142.5" y="539.5" width="6" height="6" rx=".5" stroke="#F3652B"/>
  <rect x="397.5" y="186.5" width="6" height="6" rx=".5" stroke="#F3652B"/>
  <rect x="364.634" y="494.275" width="5.42841" height="5.42841" rx=".5" stroke="#F3652B"/>
  <rect x="315.5" y="105.5" width="6" height="6" rx=".5" stroke="#C8C8C8"/>
  <path stroke="#646464" d="M481.99 391v3.422M481.99 396.989v3.422M486.41 395.991h-3.422M480.422 395.991H477"/>
  <path stroke="#C8C8C8" d="M492.635 600v4.675M492.635 608.182v4.675M498.857 606.636h-4.676M490.675 606.636H486"/>
  <path stroke="#F3652B" d="M11.2916 155v4.414M11.2916 162.724v4.413M17.137 161.293h-4.4136M9.41357 161.293H5.00005"/>
  <rect x="115.5" y="252.5" width="7" height="7" rx=".5" stroke="#646464"/>
  <rect x="357.5" y="664.5" width="8" height="8" rx=".5" stroke="#646464"/>
  <rect x="546.5" y="410.5" width="6" height="6" rx=".5" stroke="#F3652B"/>
  <path stroke="#D8D8D8" d="M359.319 2e-8V8.24349M359.319 14.426v8.2435M370.669 11.3196h-8.243M356.244 11.3196H348"/>
  <path stroke="#F3652B" d="M295.44 183.669v6.302M295.44 194.698V201M304 192.441h-6.302M292.971 192.441h-6.302"/>
  <path stroke="#D8D8D8" d="M241.23 619v8.935M241.23 634.637v8.935M253.575 631.227h-8.935M237.935 631.227H229"/>
  <path d="M224.255 547.449h-4.158c-1.898 0-3.706-.453-5.423-1.267-1.808-.905-3.345-2.172-4.52-3.801-1.536-2.081-2.35-4.614-2.35-7.239 0-1.538.271-3.076.814-4.524.09-.181.181-.181.361-.181.181.091.181.181.181.362-.542 1.357-.813 2.805-.813 4.253 0 2.534.813 4.886 2.259 6.967 1.085 1.539 2.622 2.805 4.339 3.62 1.627.814 3.345 1.176 5.152 1.176h4.158c.181 0 .272.091.272.272 0 .181-.091.362-.272.362zM213.409 525.46c-.091 0-.181 0-.272-.09-.09-.091-.09-.272.091-.362 1.536-.995 3.254-1.719 5.152-1.991-.452-.905-.633-1.9-.633-2.986 0-1.448.452-2.895 1.266-4.072 1.356-1.9 3.525-2.986 5.785-2.986.904 0 1.808.181 2.712.543 1.446.634 2.711 1.72 3.434 3.077.995-.724 1.989-1.357 3.074-1.81.18-.09.271 0 .361.181.091.181 0 .272-.181.362-1.175.543-2.259 1.176-3.254 1.991-.09.09-.18.09-.271.09-.09 0-.181-.09-.181-.181-.723-1.357-1.898-2.443-3.344-3.076-.814-.362-1.627-.453-2.441-.453-2.079 0-4.158.996-5.333 2.805-.813 1.086-1.175 2.443-1.175 3.801 0 1.086.271 2.081.723 3.076v.272c0 .09-.09.181-.18.181-1.899.181-3.706.904-5.243 1.9.09-.272 0-.272-.09-.272zM243.599 513.878s-.09 0 0 0c-.904-.09-1.627-.181-2.35-.181-.181 0-.271-.09-.271-.271 0-.181.09-.272.271-.272.633 0 1.356.091 2.169.181.362-.904.814-1.719 1.446-2.443.995-1.266 2.26-2.352 3.797-2.986 2.44-1.176 5.423-1.176 7.954-.181.181.091.181.181.181.362-.09.181-.271.181-.362.181-2.35-.995-5.152-.905-7.502.181-1.356.634-2.621 1.629-3.525 2.805-.633.724-1.085 1.629-1.446 2.534-.181 0-.272.09-.362.09zM264.027 525.008c-.09 0-.18 0-.18-.091-.904-.904-1.899-1.719-2.983-2.352-.091 0-.091-.091-.091-.181v-.181c.995-1.538 1.537-3.348 1.537-5.158 0-2.262-.814-4.524-2.35-6.243-.091-.091-.091-.272 0-.362.09-.091.271-.091.361 0 1.627 1.81 2.441 4.162 2.441 6.605 0 1.81-.542 3.62-1.446 5.158.994.543 1.898 1.267 2.711 2.081 1.175-.633 2.351-1.086 3.616-1.267.181 0 .271.091.362.272 0 .181-.091.271-.272.362-1.265.271-2.44.724-3.615 1.357 0-.091 0 0-.091 0zM281.925 535.414c-.181 0-.271-.091-.271-.272 0-2.895-1.085-5.61-2.983-7.781-1.447-1.629-3.345-2.896-5.424-3.439-1.085-.271-2.169-.452-3.254-.452-.181 0-.271-.091-.271-.272 0-.181.09-.271.271-.271 1.175 0 2.35.181 3.435.452 2.169.634 4.158 1.9 5.695 3.62 1.988 2.262 3.073 5.157 3.073 8.143 0 .181-.091.272-.271.272zM276.14 545.729c-.091 0-.181-.09-.272-.181-.09-.09.001-.271.091-.362 1.898-1.086 3.435-2.714 4.429-4.705.09-.181.271-.181.362-.09.18.09.18.271.09.362-1.085 1.99-2.621 3.709-4.61 4.886 0 .09-.09.09-.09.09zM264.299 547.448h-34.168c-.181 0-.271-.09-.271-.271 0-.181.09-.271.271-.271h34.168c.18 0 .271.09.271.271 0 .09-.091.271-.271.271zM98.8562 165.338c-.3425-.085-.5137-.257-.4281-.514.4281-2.742 1.2842-5.399 2.5689-7.885 1.369-2.657 3.082-5.056 5.222-7.199.171-.172.514-.172.685 0 .171.171.171.514 0 .686-2.055 2.056-3.767 4.371-5.051 6.942-1.199 2.4-2.0551 4.971-2.4831 7.628-.0857.171-.2569.342-.5137.342zM109.301 148.026c-.171 0-.257-.086-.342-.172-.171-.171-.086-.514.085-.685 4.795-3.6 10.446-5.485 16.439-5.485 1.798 0 3.681.171 5.479.514-.085-.6-.085-1.286-.085-1.886 0-1.543.171-3.171.513-4.714.514-2.657 1.542-5.142 2.911-7.37 1.713-2.914 4.11-5.4 6.935-7.285 3.853-2.572 8.391-3.943 13.014-3.943 3.596 0 7.106.771 10.274 2.4 3.254 1.628 6.165 4.028 8.305 6.942 2.055 2.657 3.51 5.828 4.195 9.085 1.285-1.2 2.74-2.314 4.281-3.257.257-.171.514-.086.685.171.171.258.086.515-.171.686-1.712 1.029-3.254 2.314-4.709 3.686-.086.085-.343.171-.514.085-.171-.085-.257-.171-.342-.343-.6-3.428-2.055-6.77-4.195-9.599-2.141-2.828-4.881-5.056-8.048-6.599-3.083-1.543-6.422-2.314-9.846-2.314-4.453 0-8.819 1.285-12.501 3.857-2.654 1.799-4.965 4.199-6.678 6.942-1.369 2.228-2.311 4.628-2.825 7.113-.342 1.457-.428 3-.428 4.543 0 .771.086 1.628.171 2.4 0 .171 0 .257-.171.428-.086.086-.257.172-.428.086-1.969-.429-3.939-.686-5.908-.686-5.822 0-11.301 1.8-15.924 5.314 0 .086-.086.086-.172.086zM247.402 159.082c-.172 0-.257-.086-.343-.171-1.541-1.715-3.253-3.257-5.222-4.457-2.398-1.457-5.052-2.486-7.792-2.914-2.311-.429-4.709-.429-7.02-.086-1.798.257-3.596.771-5.394 1.457-.171.086-.257.086-.428 0-.086-.086-.171-.171-.257-.343-.342-3.514-1.37-6.856-3.082-9.942-1.456-2.657-3.339-4.971-5.651-7.028-2.14-1.885-4.538-3.342-7.192-4.456-1.541-.686-3.253-1.115-4.88-1.457-4.281-.772-8.733-.515-12.842.771-.257.086-.514-.086-.6-.343-.085-.257.086-.514.343-.6 4.281-1.371 8.904-1.628 13.27-.771 1.713.343 3.425.857 5.052 1.542 2.74 1.115 5.222 2.657 7.448 4.629 2.398 2.057 4.367 4.542 5.908 7.285 1.712 2.999 2.74 6.256 3.168 9.685 1.627-.6 3.253-1.029 4.966-1.286 2.397-.343 4.88-.257 7.277.086 2.911.514 5.651 1.542 8.134 3.085 2.054 1.286 3.852 2.828 5.479 4.628.171.172.171.515-.086.686h-.256zM253.052 174.166c-.256 0-.428-.171-.428-.428 0-2.743-.513-5.4-1.455-7.885-.086-.257 0-.515.257-.6.257-.086.513 0 .599.257.942 2.657 1.456 5.399 1.456 8.228 0 .257-.172.428-.429.428zM248.258 188.222c-.086 0-.172 0-.257-.085-.171-.172-.257-.429-.086-.686 1.969-2.571 3.339-5.4 4.11-8.571.085-.257.342-.428.599-.343.257.086.428.343.343.6-.771 3.257-2.226 6.257-4.281 8.914-.171.086-.257.171-.428.171zM230.193 197.05c-.257 0-.428-.171-.428-.429 0-.257.171-.428.428-.428 2.654 0 5.222-.429 7.705-1.371 2.397-.857 4.623-2.143 6.507-3.772.171-.171.514-.171.685.086.171.257.171.514-.086.686-2.054 1.714-4.366 3-6.849 3.942-2.569.857-5.223 1.286-7.962 1.286zM225.912 197.05c-3.425 0-8.391 0-14.127-.086h-11.986c-5.908 0-12.329 0-16.61-.085-.257 0-.428-.172-.428-.515 0-.257.171-.428.428-.428 4.195 0 10.616 0 16.61.086h11.986c5.822 0 10.702.085 14.127.085.257 0 .428.172.428.429.085.343-.171.514-.428.514zM172.144 196.879c-4.623 0-6.849-.086-8.989-.086-2.141 0-4.11-.086-8.305-.086-8.22 0-15.668-.085-21.233-.085-.257 0-.428-.172-.428-.429s.171-.428.428-.428c5.565 0 13.013.085 21.233.085 4.195 0 6.25 0 8.305.086 2.14 0 4.366.086 8.904.086.257 0 .428.171.428.514.085.086-.086.343-.343.343zM125.483 196.622c-4.366 0-8.476-1.029-12.329-2.915-.257-.085-.342-.428-.171-.599.086-.258.428-.343.599-.172 3.682 1.886 7.706 2.828 11.901 2.828.257 0 .428.172.428.429s-.171.429-.428.429zM102.623 183.937c-.171 0-.342-.086-.428-.257-2.7395-4.371-4.195-9.428-4.195-14.57 0-.258.1712-.429.4281-.429.2568 0 .4281.171.4281.429 0 4.971 1.3698 9.856 4.0238 14.055.171.258.086.515-.171.686.086.086 0 .086-.086.086z" fill="#646464"/>
</svg>