<svg width="488" height="618" fill="none" xmlns="http://www.w3.org/2000/svg">
  <g stroke="#646464" stroke-miterlimit="10" stroke-linecap="round" stroke-linejoin="round">
    <path d="M435.816 173.6c-1.9-.9-4-1.5-6.1-1.7.8-1 1.4-2.1 2-3.3 1-2.2 1.5-4.6 1.5-7.1 0-1.8-.3-3.6-.8-5.3-.7-2.3-2-4.5-3.6-6.3-1.9-2.1-4.3-3.8-7.1-4.8-1.9-.7-3.9-1.1-6-1.1s-4 .4-5.9 1c-2 .7-3.8 1.8-5.4 3.1-3.3 2.8-5.5 6.8-6.1 11.3-2.6-.8-5.4-1.3-8.3-1.3-4.8 0-9.3 1.2-13.3 3.4M466.516 189.3c-1.1-2.4-2.7-4.5-4.6-6.2-1.5-1.3-3.3-2.3-5.2-3.1-1.9-.8-4-1.1-6.1-1.1-2.4 0-4.6.5-6.7 1.3M437.116 213.8h13.5c1.8 0 3.5-.3 5.1-.8 2.8-.9 5.3-2.4 7.3-4.5 1.5-1.5 2.7-3.2 3.5-5.2.9-2.1 1.5-4.5 1.5-7M373.716 213.8h60.9M337.216 206.7c1.1 1.5 2.5 2.9 4.1 4 2.8 2 6.2 3.1 9.9 3.1h6.5M338.216 184.8c-1.3 1.5-2.4 3.3-3.2 5.2-.7 1.9-1.2 4-1.2 6.2 0 2 .3 3.9 1 5.7M351.316 178.9c-2.6 0-5 .6-7.2 1.5M369.916 166.9c-1.7 1.8-3.2 3.9-4.4 6.1-.7 1.3-1.3 2.8-1.8 4.2-.6 1.9-1.1 3.8-1.3 5.8-1.6-1.4-3.5-2.4-5.6-3.2"/>
  </g>
  <g stroke="#646464" stroke-miterlimit="10" stroke-linecap="round" stroke-linejoin="round">
    <path d="M37.5165 215.9c-1.5 1.4-2.7 3.1-3.6 5-.9 1.7-1.5 3.5-1.8 5.5M90.3164 203.7c-1.2.7-2.4 1.6-3.4 2.6-.5-2.5-1.5-4.9-3-6.9s-3.5-3.6-5.8-4.8c-2.1-1.1-4.6-1.6-7.1-1.6-3.3 0-6.4 1-9 2.7-1.9 1.3-3.6 3-4.8 5-.9 1.6-1.6 3.3-2 5.1-.2 1-.3 2.1-.3 3.2 0 .6 0 1.2.1 1.7-1.4-.3-2.8-.5-4.2-.5-4.3 0-8.2 1.4-11.4 3.8M136.716 222c-1.1-1.2-2.4-2.3-3.8-3.2-1.7-1-3.6-1.8-5.6-2.1-.9-.2-1.8-.2-2.8-.2-.8 0-1.5.1-2.2.2-1.3.2-2.6.5-3.8 1-.3-2.6-1-5-2.2-7.1-1.1-1.9-2.4-3.6-4.1-5-1.5-1.3-3.3-2.4-5.1-3.2-1.1-.5-2.3-.8-3.5-1-1.1-.2-2.3-.3-3.5-.3-1.9996 0-3.8996.3-5.6996.9M140.716 232.6c0-2-.4-3.9-1-5.7M137.316 242.5c1.4-1.8 2.4-3.9 2.9-6.1M124.616 248.8c1.9 0 3.8-.3 5.5-1 1.7-.6 3.3-1.5 4.7-2.7M121.616 248.7h-10c-4.4 0-14.7996 0-20.0996-.1M56.6165 248.4c3.9 0 9.1 0 15 .1 6 0 5.7.1 12.2.1M50.8164 248.4c-3.1 0-6-.7-8.6-2M31.8164 229.4c0 3.7 1.1 7.2 2.9 10.1"/>
  </g>
  <g stroke="#646464" stroke-miterlimit="10" stroke-linecap="round" stroke-linejoin="round">
    <path d="M346.089 338.52c.537-.313 1.163-.536 1.789-.671.447-1.743 1.789-3.13 3.532-3.621M342.199 349.833h-.894c-1.967-.045-3.532-1.655-3.488-3.577 0-1.342.76-2.46 1.878-3.086.537-.268 1.118-.447 1.744-.402.537 0 1.073.134 1.521.358.089-.537.223-1.029.447-1.476.134-.313.268-.626.447-.894M350.919 349.788h-7.11M376.316 344.691c0 1.52-.715 2.861-1.743 3.8-.492.448-1.074.761-1.744.984-.537.179-1.118.268-1.744.268H357.805M375.691 342.097c.223.448.402.895.536 1.387M352.976 334.004c.402 0 .804.045 1.162.134.85.224 1.565.626 2.191 1.163.268-.626.626-1.252 1.029-1.789.268-.313.536-.581.804-.849 1.252-1.118 2.907-1.744 4.695-1.744 1.789.044 3.354.715 4.606 1.788.403.358.76.76 1.073 1.252.313.492.582.984.805 1.521.268.804.447 1.654.447 2.504 0 .581-.089 1.117-.223 1.654.536-.179 1.118-.268 1.699-.268 1.386 0 2.593.581 3.532 1.475"/>
  </g>
  <g stroke="#646464" stroke-miterlimit="10" stroke-linecap="round" stroke-linejoin="round">
    <path d="M52.0164 473.708c.7-.4 1.5-.7 2.3-.9.6-2.3 2.3-4.1 4.6-4.7M46.9163 488.408h-1.2c-2.5 0-4.6-2.1-4.5-4.7 0-1.7 1-3.2 2.4-4 .7-.4 1.4-.6 2.2-.5.7 0 1.4.2 2 .5.1-.7.3-1.3.6-1.9.2-.4.4-.8.6-1.1M58.2164 488.308h-9.2M91.2164 481.708c0 2-.9 3.7-2.3 4.9-.6.6-1.4 1-2.2 1.3-.7.2-1.5.4-2.3.4h-17.1M90.3163 478.407c.3.6.5 1.2.7 1.8M60.9163 467.908c.5 0 1 .1 1.5.2 1.1.3 2.1.8 2.9 1.5.3-.8.8-1.6 1.4-2.3.3-.4.7-.8 1.1-1.1 1.6-1.4 3.8-2.3 6.1-2.2 2.3 0 4.4.9 5.9 2.3.5.5 1 1 1.4 1.6.4.6.8 1.3 1 2 .4 1 .6 2.1.6 3.3 0 .7-.1 1.4-.3 2.1.7-.2 1.4-.3 2.2-.3 1.8 0 3.4.7 4.6 1.9"/>
  </g>
  <path d="M435.416 530.4c-1.9 1.2-4.1 1.9-6.5 1.9m12.2-12.3c0 .9-.1 1.7-.3 2.6-.3 1.4-.9 2.8-1.6 4m-39.2-14.3c.4-.6.8-1.3 1.2-1.8 1.1-1.4 2.5-2.5 4-3.4-.1-.5-.1-1.1-.1-1.6 0-2.8 1.2-5.3 3.1-7.1.9-.8 2-1.5 3.2-1.9 1-.4 2.1-.5 3.2-.5 3.9 0 7.3 2.4 8.8 5.7.5 1.2.8 2.5.8 3.8 0 1.3-.3 2.5-.7 3.6 1.6-.8 3.5-1.3 5.4-1.3 5 0 9.3 3 11.2 7.3.2.4.3.8.5 1.2m-48.1-8c.5.4.9.9 1.2 1.5.3.4.5.9.7 1.3.2.5.3 1.1.4 1.7 1.1-.4 2.3-.6 3.5-.6m-25 17.4c-.6-.7-1.2-1.4-1.6-2.3-.6-1.1-.9-2.4-.9-3.8 0-2.7 1.2-5.1 3.1-6.7 1.2-1 2.6-1.6 4.1-1.9.5-.1 1-.1 1.5-.1h.6c-.1-.3-.1-.7-.1-1.1 0-1.8.6-3.4 1.7-4.7 1.4-1.6 3.4-2.7 5.7-2.7m-9.1 25.9c-.3 0-.6-.1-.9-.2-1.2-.3-2.3-.9-3.3-1.6m7.1 1.9h-1.7m38.2 0h-34.3m42.6 0h-2.1 2.1z" stroke="#646464" stroke-miterlimit="10" stroke-linecap="round" stroke-linejoin="round"/>
  <g stroke="#646464" stroke-linecap="round" stroke-linejoin="round">
    <path d="M249.207 294.151c1.711-.086 3.421-.086 5.132-.171"/>
    <path d="M256.221 293.893c7.356-.086 14.712 0 21.982.342" stroke-dasharray="12.86 12.86"/>
    <path d="M280 294.406c1.71.086 3.421.171 5.132.342"/>
  </g>
  <path d="M365.193 307.75c.856.171 1.626.342 2.396.598 17.962 4.192 36.866 10.094 52.604 21.555" stroke="#D4D4D4" stroke-linecap="round" stroke-linejoin="round"/>
  <path d="M364.68 310.315c-1.368-.342-2.224-1.71-1.967-3.079.342-1.368 1.711-2.224 3.079-1.967 1.369.342 2.224 1.71 1.968 3.079-.257 1.454-1.625 2.31-3.08 1.967zM418.568 331.87c1.112.856 2.737.599 3.593-.513.855-1.112.598-2.737-.514-3.592-1.112-.856-2.737-.599-3.592.513s-.684 2.737.513 3.592z" fill="#D4D4D4"/>
  <path d="M327.643 300.137c6.073 1.026 12.232 2.224 18.305 3.421" stroke="#D4D4D4" stroke-linecap="round" stroke-linejoin="round"/>
  <path d="M327.301 302.703c-1.368-.257-2.309-1.625-2.053-2.994.257-1.368 1.625-2.309 2.994-2.053 1.369.257 2.31 1.625 2.053 2.994-.257 1.454-1.625 2.309-2.994 2.053zM345.349 306.125c1.369.256 2.737-.685 2.994-2.053.257-1.369-.684-2.738-2.053-2.994-1.368-.257-2.737.684-2.994 2.053-.342 1.368.599 2.737 2.053 2.994z" fill="#D4D4D4"/>
  <path d="M175.047 298.939c16.765-1.967 33.53-3.421 50.381-4.191" stroke="#D4D4D4" stroke-linecap="round" stroke-linejoin="round"/>
  <path d="M175.475 301.591c-1.454.171-2.652-.855-2.823-2.31-.171-1.454.855-2.651 2.31-2.822 1.454-.171 2.651.855 2.822 2.309.086 1.369-.941 2.652-2.309 2.823zM225.428 297.4c1.454-.086 2.48-1.283 2.395-2.738-.086-1.454-1.283-2.48-2.737-2.395-1.454.086-2.481 1.283-2.395 2.738.085 1.454 1.368 2.48 2.737 2.395z" fill="#D4D4D4"/>
  <path d="M77.6216 325.028c7.014-2.908 14.3701-5.303 21.6407-7.271 6.5007-1.796 9.4947-2.48 14.7117-3.592" stroke="#D4D4D4" stroke-linecap="round" stroke-linejoin="round"/>
  <path d="M78.7335 327.423c-1.283.513-2.8227-.086-3.3359-1.369-.5132-1.283.0855-2.822 1.3686-3.336 1.283-.513 2.8227.086 3.3359 1.369.5987 1.283-.0856 2.737-1.3686 3.336zM114.402 316.731c1.369-.342 2.224-1.711 1.967-3.08-.342-1.368-1.71-2.224-3.079-1.967-1.368.342-2.224 1.711-1.967 3.079.342 1.369 1.711 2.224 3.079 1.968z" fill="#D4D4D4"/>
  <path d="M51.1055 364.46c-3.1648-6.672-2.2239-13.857 1.0264-20.016" stroke="#D4D4D4" stroke-linecap="round" stroke-linejoin="round"/>
  <path d="M53.4149 363.177c.6842 1.283.171 2.822-1.112 3.507-1.2831.684-2.8227.171-3.507-1.112-.6843-1.283-.1711-2.823 1.112-3.507 1.283-.684 2.8227-.171 3.507 1.112zM54.3557 345.813c.6843-1.283.2566-2.823-1.0265-3.507-1.283-.684-2.8226-.257-3.5069 1.026-.6843 1.283-.2566 2.823 1.0264 3.507 1.1975.685 2.8227.257 3.507-1.026z" fill="#D4D4D4"/>
  <path d="M154.262 407.313c-27.628-3.678-63.1257-11.376-82.2857-22.324" stroke="#D4D4D4" stroke-linecap="round" stroke-linejoin="round"/>
  <path d="M154.433 404.747c1.369.171 2.395 1.54 2.224 2.909-.171 1.368-1.54 2.395-2.908 2.223-1.369-.171-2.395-1.539-2.224-2.908.256-1.454 1.539-2.395 2.908-2.224zM73.3448 382.85c-1.1975-.684-2.8227-.257-3.507.941-.6843 1.197-.2566 2.823.9409 3.507 1.1975.684 2.8227.256 3.507-.941.6843-1.283.2566-2.823-.9409-3.507z" fill="#D4D4D4"/>
  <path d="M435.077 357.959c-2.823 18.134-20.016 24.977-33.53 31.734" stroke="#D4D4D4" stroke-linecap="round" stroke-linejoin="round"/>
  <path d="M432.51 357.788c.172-1.369 1.455-2.395 2.909-2.224 1.368.171 2.395 1.454 2.224 2.908-.171 1.369-1.454 2.395-2.909 2.224-1.368-.171-2.395-1.454-2.224-2.908zM400.52 387.383c-1.283.599-1.796 2.139-1.112 3.422.599 1.283 2.138 1.796 3.422 1.112 1.283-.599 1.796-2.139 1.112-3.422-.599-1.197-2.139-1.71-3.422-1.112z" fill="#D4D4D4"/>
  <path d="M397.099 292.952c19.844 4.448 38.405 12.659 56.881 20.87 5.902 3.08 11.89 6.073 16.851 10.692" stroke="#D4D4D4" stroke-linecap="round" stroke-linejoin="round"/>
  <path d="M396.585 295.603c-1.368-.342-2.224-1.71-1.881-3.079.342-1.368 1.71-2.224 3.079-1.882 1.368.342 2.224 1.711 1.882 3.08-.257 1.283-1.711 2.138-3.08 1.881zM468.863 326.311c1.027 1.026 2.652.941 3.678-.086 1.027-1.026.941-2.651-.085-3.678-1.027-1.026-2.652-.941-3.678.086-.941 1.026-.941 2.651.085 3.678z" fill="#D4D4D4"/>
  <path d="M242.107 270.37c31.478-1.197 63.212 1.198 94.432 5.56 7.869 1.112 15.739 2.31 23.523 3.764" stroke="#D4D4D4" stroke-linecap="round" stroke-linejoin="round"/>
  <path d="M242.364 272.937c-1.454.085-2.566-1.112-2.652-2.481-.085-1.454 1.112-2.566 2.481-2.652 1.454-.085 2.566 1.112 2.652 2.481 0 1.454-1.112 2.652-2.481 2.652zM359.548 282.174c1.369.257 2.737-.684 2.994-2.138.257-1.369-.684-2.737-2.138-2.994-1.369-.256-2.737.684-2.994 2.139-.257 1.368.684 2.737 2.138 2.993z" fill="#D4D4D4"/>
  <path d="M162.901 276.871c23.608-3.421 45.762-4.362 53.802-4.619" stroke="#D4D4D4" stroke-linecap="round" stroke-linejoin="round"/>
  <path d="M163.329 279.437c-1.369.171-2.737-.855-2.908-2.224-.172-1.368.855-2.737 2.223-2.908 1.369-.171 2.738.855 2.909 2.224.171 1.454-.77 2.737-2.224 2.908zM216.703 274.818c1.454-.085 2.481-1.283 2.481-2.737-.086-1.454-1.283-2.48-2.737-2.48-1.455.085-2.481 1.283-2.481 2.737.086 1.454 1.283 2.566 2.737 2.48z" fill="#D4D4D4"/>
  <path d="M13.8116 388.667c-11.80395-9.751-16.93611-27.8-8.98127-44.565 16.33737-34.385 71.16597-50.038 98.36667-56.197" stroke="#D4D4D4" stroke-linecap="round" stroke-linejoin="round"/>
  <path d="M15.2658 386.528c1.112.856 1.283 2.481.4277 3.593-.8554 1.112-2.4806 1.283-3.5925.427-1.112-.855-1.2831-2.48-.4277-3.592.8553-1.112 2.4805-1.283 3.5925-.428zM103.71 290.386c1.368-.342 2.224-1.711 1.882-3.079-.342-1.369-1.711-2.224-3.08-1.882-1.368.342-2.224 1.711-1.881 3.079.256 1.369 1.71 2.224 3.079 1.882z" fill="#D4D4D4"/>
  <g>
    <path d="M118.593 432.204h-1.368c-17.7063-4.277-34.0437-7.698-50.2955-13.686-.8554-.513-2.0529-1.026-3.1649-1.539" stroke="#D4D4D4" stroke-linecap="round" stroke-linejoin="round"/>
    <path d="M118.764 429.638c1.369.171 2.395 1.454 2.224 2.823-.171 1.368-1.454 2.395-2.822 2.224-1.454-.171-2.395-1.454-2.224-2.823.085-1.369 1.368-2.395 2.822-2.224zM64.9623 414.669c-1.283-.598-2.8227 0-3.4214 1.283-.5988 1.283 0 2.823 1.283 3.422 1.2831.599 2.8227 0 3.4215-1.283.5132-1.283 0-2.823-1.2831-3.422z" fill="#D4D4D4"/>
  </g>
  <g>
    <path d="M410.87 419.973c-18.818 6.158-38.064 10.606-57.48 13.942" stroke="#D4D4D4" stroke-linecap="round" stroke-linejoin="round"/>
    <path d="M410.015 417.492c1.368-.428 2.822.342 3.25 1.711.428 1.368-.342 2.822-1.711 3.25-1.368.428-2.822-.342-3.25-1.711-.428-1.368.342-2.822 1.711-3.25zM353.048 431.349c-1.369.256-2.31 1.625-2.053 2.994.256 1.368 1.625 2.309 2.994 2.052 1.368-.256 2.309-1.625 2.052-2.993-.256-1.369-1.539-2.31-2.993-2.053z" fill="#D4D4D4"/>
  </g>
  <g>
    <path d="M484.594 363.4c-.684 7.784-4.619 14.798-9.323 20.272-9.58 11.291-19.502 16.851-30.964 24.891" stroke="#D4D4D4" stroke-linecap="round" stroke-linejoin="round"/>
    <path d="M482.028 363.4c.086-1.454 1.283-2.481 2.737-2.395 1.455.086 2.481 1.283 2.395 2.737-.085 1.454-1.283 2.481-2.737 2.395-1.368-.171-2.48-1.368-2.395-2.737zM442.938 406.339c-1.197.77-1.454 2.395-.684 3.593.77 1.197 2.395 1.454 3.593.684 1.197-.77 1.454-2.395.684-3.593-.77-1.197-2.395-1.454-3.593-.684z" fill="#D4D4D4"/>
  </g>
  <g>
    <path d="M430.316 363c12.427 0 22.5-10.074 22.5-22.5s-10.073-22.5-22.5-22.5c-12.426 0-22.5 10.074-22.5 22.5s10.074 22.5 22.5 22.5z" fill="#F7F7F7" stroke="#3A82FF" stroke-width="1.2" stroke-miterlimit="10" stroke-linecap="round" stroke-linejoin="round" stroke-dasharray="5 5"/>
    <g fill="#3A82FF">
      <path d="M420.361 346.813h.648V338.8h18.615v8.013h.648v-8.66h-19.911v8.66z"/>
      <path d="M426.351 343.656h-.648v10.684h.648v-10.684zM435.011 343.656h-.648v10.684h.648v-10.684zM437.196 330.707v-4.047h-13.84v4.047h-3.966v.647h3.966v4.047h13.84v-4.047h3.966v-.647h-3.966zm-.648 4.047h-12.464v-7.446h12.464v7.446z"/>
      <path d="M427.16 332.487c.809 0 1.457-.647 1.457-1.537 0-.81-.648-1.538-1.457-1.538s-1.457.647-1.457 1.538c0 .89.648 1.537 1.457 1.537zm0-2.266c.486 0 .809.405.809.81 0 .485-.404.809-.809.809-.486 0-.809-.405-.809-.809 0-.486.323-.81.809-.81zM433.473 332.487c.809 0 1.457-.647 1.457-1.537 0-.81-.648-1.538-1.457-1.538s-1.457.647-1.457 1.538c0 .89.648 1.537 1.457 1.537zm0-2.266c.486 0 .809.405.809.81 0 .485-.404.809-.809.809s-.809-.405-.809-.809c0-.486.404-.81.809-.81z"/>
    </g>
  </g>
  <g>
    <path d="M321.143 441.613c-21.555 2.139-43.11 3.593-64.751 4.021-22.496.427-44.907-.171-67.317-2.053-11.889-1.027-23.779-2.395-35.668-4.106" stroke="#D4D4D4" stroke-linecap="round" stroke-linejoin="round"/>
    <path d="M320.8 439.047c1.455-.085 2.652.941 2.738 2.31.085 1.454-.941 2.652-2.31 2.737-1.368.086-2.651-.941-2.737-2.309-.171-1.369.855-2.652 2.309-2.738zM153.834 436.823c-1.368-.171-2.737.77-2.908 2.224-.171 1.369.77 2.738 2.224 2.909 1.369.171 2.737-.77 2.908-2.224.171-1.369-.77-2.737-2.224-2.909z" fill="#D4D4D4"/>
  </g>
  <path d="M245.616 432.6c57.88 0 104.8-46.921 104.8-104.8S303.496 223 245.616 223c-57.879 0-104.8 46.921-104.8 104.8s46.921 104.8 104.8 104.8z" fill="#F7F7F7" stroke="#C8C8C8" stroke-width="1.2" stroke-miterlimit="10" stroke-linecap="round" stroke-linejoin="round" stroke-dasharray="5 5"/>
  <g>
    <path d="M341.672 402.523c-43.538 7.784-87.76 10.265-132.239 7.784" stroke="#D4D4D4" stroke-linecap="round" stroke-linejoin="round"/>
    <path d="M341.073 399.957c1.368-.256 2.737.685 2.994 2.139.256 1.368-.685 2.737-2.139 2.994-1.368.256-2.737-.685-2.994-2.139-.171-1.368.77-2.737 2.139-2.994zM209.689 407.741c-1.454-.085-2.651 1.027-2.651 2.481-.086 1.454 1.026 2.651 2.48 2.651 1.454.086 2.652-1.026 2.652-2.48s-1.026-2.566-2.481-2.652z" fill="#D4D4D4"/>
  </g>
  <g stroke="#3A82FF" stroke-miterlimit="10">
    <path d="M38.4165 335.8c13.531 0 24.5-10.969 24.5-24.5s-10.969-24.5-24.5-24.5-24.5 10.969-24.5 24.5 10.969 24.5 24.5 24.5z" fill="#F7F7F7" stroke-width="1.2" stroke-linecap="round" stroke-linejoin="round" stroke-dasharray="5 5"/>
    <path d="M53.0515 315.46H23.2432c-.1634 0-.3267-.163-.3267-.326v-3.839c0-.163.1633-.326.3267-.326h29.8083c.1633 0 .3267.163.3267.326v3.757c0 .245-.1634.408-.3267.408zM26.6731 310.968l4.7367-12.168 6.4516 1.96 7.0234-1.96 4.7366 12.168H26.6731zM27.8164 318.808c-.0817.245-.1633.572-.1633.817 0 1.878 1.96 3.43 4.41 3.43s4.41-1.552 4.41-3.43c0-.245-.0817-.572-.1634-.817h-8.4933zM39.9847 318.808c-.0816.245-.1633.572-.1633.817 0 1.878 1.96 3.43 4.41 3.43s4.41-1.552 4.41-3.43c0-.245-.0817-.572-.1633-.817h-8.4934zM36.4731 320.278h3.3484"/>
  </g>
  <g stroke="#3A82FF" stroke-miterlimit="10">
    <path d="M136.316 455c11.322 0 20.5-9.178 20.5-20.5s-9.178-20.5-20.5-20.5c-11.321 0-20.5 9.178-20.5 20.5s9.179 20.5 20.5 20.5z" fill="#F7F7F7" stroke-width="1.2" stroke-linecap="round" stroke-linejoin="round" stroke-dasharray="5 5"/>
    <path d="M133.035 435.573c1.434 0 2.596-1.162 2.596-2.596 0-1.434-1.162-2.597-2.596-2.597-1.434 0-2.597 1.163-2.597 2.597s1.163 2.596 2.597 2.596zM140.415 435.573c1.434 0 2.596-1.162 2.596-2.596 0-1.434-1.162-2.597-2.596-2.597-1.434 0-2.597 1.163-2.597 2.597s1.163 2.596 2.597 2.596zM135.495 439.058h2.391l-1.161-2.118-1.23 2.118z"/>
    <path d="M146.633 432.908c0-5.466-4.442-9.908-9.908-9.908-5.467 0-9.909 4.442-9.909 9.908 0 3.417 1.777 6.492 4.442 8.269v2.118c0 .752.615 1.367 1.367 1.367.751 0 1.366-.615 1.366-1.367v.888c0 .752.615 1.367 1.367 1.367s1.367-.615 1.367-1.367c0 .752.615 1.367 1.366 1.367.752 0 1.367-.615 1.367-1.367v-.888c0 .752.615 1.367 1.367 1.367.751 0 1.366-.615 1.366-1.367v-2.118c2.665-1.777 4.442-4.852 4.442-8.269zM136.725 443.432v.751"/>
  </g>
  <g>
    <path d="M167.138 377.305V279.03c0-3.28 2.644-6.03 6.029-6.03h144.927c3.28 0 6.03 2.645 6.03 6.03v98.169" fill="#F7F7F7"/>
    <path d="M167.138 377.305V279.03c0-3.28 2.644-6.03 6.029-6.03h144.927c3.28 0 6.03 2.645 6.03 6.03v98.169" stroke="#3A82FF" stroke-miterlimit="10"/>
    <path d="M226.589 370.64h-54.374v-91.293h146.302v91.293h-87.061" fill="#F7F7F7"/>
    <path d="M226.589 370.64h-54.374v-91.293h146.302v91.293h-87.061" stroke="#3A82FF" stroke-miterlimit="10"/>
    <g>
      <path d="M226.907 382.7h-86.216c-.317 0-.634-.317-.634-.635v-4.125c0-.318.317-.635.634-.635h209.351c.317 0 .634.317.634.635v4.125c0 .318-.317.635-.634.635H229.34" fill="#F7F7F7"/>
      <path d="M226.907 382.7h-86.216c-.317 0-.634-.317-.634-.635v-4.125c0-.318.317-.635.634-.635h209.351c.317 0 .634.317.634.635v4.125c0 .318-.317.635-.634.635H229.34" stroke="#3A82FF" stroke-miterlimit="10"/>
    </g>
    <g>
      <path d="M230.821 377.305v.529c0 1.164.952 2.01 2.01 2.01h25.494c1.164 0 2.01-.952 2.01-2.01v-.529" fill="#F7F7F7"/>
      <path d="M230.821 377.305v.529c0 1.164.952 2.01 2.01 2.01h25.494c1.164 0 2.01-.952 2.01-2.01v-.529" stroke="#3A82FF" stroke-miterlimit="10"/>
    </g>
    <path d="M245.314 277.443c.642 0 1.163-.521 1.163-1.164 0-.642-.521-1.163-1.163-1.163-.643 0-1.164.521-1.164 1.163 0 .643.521 1.164 1.164 1.164z" fill="#F7F7F7" stroke="#3A82FF" stroke-miterlimit="10"/>
  </g>
  <rect x="144.316" y="38.863" width="4" height="4" rx=".5" stroke="#F7F7F7"/>
  <rect x="274.316" y="74.5" width="5" height="5" rx=".5" stroke="#979797"/>
  <rect x="261.316" y="531.5" width="5" height="5" rx=".5" stroke="#C8C8C8"/>
  <rect x="162.316" y="127.5" width="7" height="7" rx=".5" stroke="#3A82FF"/>
  <rect x="360.316" y="43.5" width="6" height="6" rx=".5" stroke="#646464"/>
  <rect x="265.316" y="171.863" width="8" height="7" rx=".5" stroke="#F7F7F7"/>
  <rect x="430.316" y="91.863" width="7" height="7" rx=".5" stroke="#979797"/>
  <g stroke="#C8C8C8">
    <path d="M242.527 152v7.017M242.527 164.28v7.018M252.114 161.71h-7.017M239.834 161.71h-7.018"/>
  </g>
  <g stroke="#3A82FF">
    <path d="M193.576 2e-8V4.76881M193.576 8.34546v4.76884M199.931 6.75916l-4.769-.00001M191.585 6.75916l-4.769-.00001"/>
  </g>
  <g stroke="#F7F7F7">
    <path d="M253.828 89.3928v4.4656M253.828 97.2078v4.4652M259.748 95.7539h-4.466M251.933 95.7539h-4.466"/>
  </g>
  <rect x="146.376" y="322.5" width="4.87216" height="4.86618" rx=".5" stroke="#F7F7F7"/>
  <rect x="34.3164" y="554.5" width="5.85085" height="5.84368" rx=".5" stroke="#3A82FF"/>
  <rect x="4.31641" y="428.5" width="5.85085" height="5.8438" rx=".5" stroke="#979797"/>
  <rect x="281.436" y="555.004" width="8.78693" height="8.78693" rx=".5" stroke="#F7F7F7"/>
  <g stroke="#979797">
    <path d="M151.922 499v4.271M151.922 506.474v4.27M157.561 505.105h-4.271M150.087 505.105h-4.271"/>
  </g>
  <rect x="282.316" y="545.5" width="7.80823" height="7.79904" rx=".5" stroke="#979797"/>
  <g stroke="#3A82FF">
    <path d="M384.593 596v7.83M384.593 609.702v7.829M395.348 606.776h-7.83M381.646 606.776h-7.83"/>
  </g>
  <g stroke="#F7F7F7">
    <path d="M268.401 437.486v4.982M268.401 446.205v4.982M275.063 444.525h-4.982M266.344 444.525h-4.982"/>
  </g>
  <g>
    <path d="M245.816 300c-.861 0-1.57.709-1.57 1.57v10.182c0 .862.709 1.571 1.57 1.571.862 0 1.571-.709 1.571-1.571V301.57c0-.861-.709-1.57-1.571-1.57zM245.816 340.677c-.861 0-1.57.709-1.57 1.571v10.182c0 .861.709 1.57 1.57 1.57.862 0 1.571-.709 1.571-1.57v-10.182c0-.862-.709-1.571-1.571-1.571zM239.586 313.019l-5.066-8.815c-.456-.759-1.418-1.013-2.178-.557-.76.456-1.013 1.419-.557 2.178l5.065 8.815c.304.506.811.81 1.368.81.253 0 .557-.05.81-.202.71-.507.963-1.469.558-2.229zM259.899 348.225l-5.066-8.814c-.456-.76-1.418-1.013-2.178-.557-.76.456-1.013 1.418-.557 2.178l5.066 8.814c.304.507.81.811 1.367.811.254 0 .558-.051.811-.203.76-.506 1.013-1.469.557-2.229zM233.406 317.983l-8.815-5.066c-.76-.455-1.722-.202-2.178.558-.456.76-.203 1.722.557 2.178l8.815 5.066c.253.152.506.202.81.202.557 0 1.064-.304 1.368-.81.456-.709.202-1.672-.557-2.128zM268.612 338.347l-8.814-5.066c-.76-.455-1.723-.202-2.179.558-.456.76-.202 1.722.558 2.178l8.814 5.066c.253.152.506.202.81.202.558 0 1.064-.304 1.368-.81.456-.709.203-1.672-.557-2.128zM230.569 325.43h-10.182c-.861 0-1.571.709-1.571 1.57 0 .861.71 1.57 1.571 1.57h10.182c.861 0 1.57-.709 1.57-1.57 0-.861-.709-1.57-1.57-1.57zM271.246 325.43h-10.182c-.861 0-1.57.709-1.57 1.57 0 .861.709 1.57 1.57 1.57h10.182c.861 0 1.57-.709 1.57-1.57 0-.861-.709-1.57-1.57-1.57zM233.963 333.839c-.456-.76-1.419-1.013-2.178-.558l-8.815 5.066c-.76.456-1.013 1.419-.557 2.178.304.507.811.811 1.368.811.253 0 .557-.051.81-.203l8.815-5.065c.759-.507 1.013-1.469.557-2.229zM269.22 313.525c-.456-.76-1.419-1.013-2.178-.557l-8.815 5.015c-.76.456-1.013 1.418-.557 2.178.304.507.811.811 1.368.811.253 0 .557-.051.81-.203l8.815-5.066c.709-.455.962-1.469.557-2.178zM238.978 338.854c-.76-.456-1.723-.203-2.178.557l-5.066 8.814c-.456.76-.203 1.723.557 2.178.253.152.507.203.811.203.557 0 1.063-.304 1.367-.81l5.066-8.815c.456-.709.203-1.722-.557-2.127zM259.342 303.597c-.76-.456-1.723-.203-2.178.557l-5.066 8.814c-.456.76-.203 1.722.557 2.178.253.152.507.203.811.203.557 0 1.063-.304 1.367-.81l5.066-8.815c.456-.709.203-1.671-.557-2.127z" fill="#F7F7F7" stroke="#3A82FF" stroke-miterlimit="10" stroke-linecap="round" stroke-linejoin="round"/>
  </g>
</svg>