<svg id="Layer_1" data-name="Layer 1" xmlns="http://www.w3.org/2000/svg" viewBox="0 0 40 40"><defs><style>.cls-1{fill:#1e1e1e;}</style></defs><path class="cls-1" d="M5.29,17.61a2.37,2.37,0,1,1,2.37-2.37,2.37,2.37,0,0,1-2.37,2.37m0-3.81a1.44,1.44,0,1,0,1.44,1.44A1.45,1.45,0,0,0,5.29,13.8"/><path class="cls-1" d="M14.53,12.11A2.38,2.38,0,1,1,16.9,9.74a2.38,2.38,0,0,1-2.37,2.37m0-3.81A1.44,1.44,0,1,0,16,9.74,1.43,1.43,0,0,0,14.53,8.3"/><path class="cls-1" d="M23.58,14.42A2.38,2.38,0,1,1,26,12.05a2.38,2.38,0,0,1-2.38,2.37m0-3.81A1.44,1.44,0,1,0,25,12.05a1.43,1.43,0,0,0-1.44-1.44"/><path class="cls-1" d="M33,8.91a2.37,2.37,0,1,1,2.37-2.37A2.37,2.37,0,0,1,33,8.91M33,5.1a1.44,1.44,0,1,0,1.44,1.44A1.43,1.43,0,0,0,33,5.1"/><polygon class="cls-1" points="6.86 14.9 6.38 14.1 12.96 10.17 13.44 10.97 6.86 14.9"/><polygon class="cls-1" points="22.02 12.03 15.88 10.47 16.11 9.57 22.25 11.12 22.02 12.03"/><rect class="cls-1" x="24.45" y="8.82" width="7.68" height="0.93" transform="translate(-0.67 16.2) rotate(-31.61)"/><path class="cls-1" d="M9.06,35.83H2.77V21.75H9.06ZM3.7,34.9H8.13V22.68H3.7Z"/><path class="cls-1" d="M18.45,35.83H12.16V16.11h6.29Zm-5.36-.93h4.43V17.05H13.09Z"/><path class="cls-1" d="M27.84,35.83H21.55v-17h6.29Zm-5.36-.93h4.43V19.73H22.48Z"/><path class="cls-1" d="M37.23,35.79H30.94V13.38h6.29Zm-5.36-.93H36.3V14.31H31.87Z"/></svg>
