<svg id="Layer_1" data-name="Layer 1" xmlns="http://www.w3.org/2000/svg" viewBox="0 0 40 40"><defs><style>.cls-1{fill:#f3652b;}</style></defs><path class="cls-1" d="M4.81,16.46a.42.42,0,0,1-.41-.32L2.78,9.54a.4.4,0,0,1,.05-.32A.36.36,0,0,1,3.09,9L24.62,3.75a.41.41,0,0,1,.32,0l5,3a.42.42,0,0,1,.14.58.41.41,0,0,1-.57.14L24.65,4.61l-21,5.13,1.52,6.2a.41.41,0,0,1-.3.51Z"/><path class="cls-1" d="M13.28,36.43a.41.41,0,0,1-.36-.21L3,19.72a.45.45,0,0,1,0-.32.38.38,0,0,1,.19-.26L23.4,7a.4.4,0,0,1,.32,0l9.52,2.39a.41.41,0,0,1,.3.51.42.42,0,0,1-.51.3L23.68,7.84,4,19.64l9.46,15.79L33.14,23.62,36.3,11l-.25-.06a.42.42,0,0,1,.21-.82l.66.17a.4.4,0,0,1,.25.19.4.4,0,0,1,0,.32L33.91,24a.38.38,0,0,1-.19.26L13.5,36.37A.43.43,0,0,1,13.28,36.43Z"/><path class="cls-1" d="M29,23.93a.41.41,0,0,1-.36-.21l-.86-1.44a.42.42,0,1,1,.72-.43l.87,1.44a.43.43,0,0,1-.37.64Zm-2.16-3.61a.42.42,0,0,1-.36-.2l-.86-1.45a.42.42,0,0,1,.72-.43l.87,1.45a.42.42,0,0,1-.37.63Zm-2.16-3.6a.43.43,0,0,1-.36-.21l-.86-1.44a.42.42,0,1,1,.72-.43L25,16.08a.43.43,0,0,1-.15.58A.43.43,0,0,1,24.67,16.72Zm-2.16-3.61a.42.42,0,0,1-.36-.2l-.86-1.45a.41.41,0,0,1,.14-.57A.42.42,0,0,1,22,11l.87,1.44a.43.43,0,0,1-.15.58A.43.43,0,0,1,22.51,13.11Z"/><path class="cls-1" d="M29.7,17.56a2.27,2.27,0,0,1-.63-.08,2.56,2.56,0,0,1-1.61-1.19,2.61,2.61,0,1,1,3.58.9A2.56,2.56,0,0,1,29.7,17.56Zm0-4.37a1.79,1.79,0,0,0-.91.25,1.76,1.76,0,0,0-.61,2.42,1.77,1.77,0,0,0,3.24-.48,1.8,1.8,0,0,0-.2-1.34h0A1.77,1.77,0,0,0,29.7,13.19Z"/><path class="cls-1" d="M30.44,14.55a1,1,0,0,1-.43-.08.42.42,0,1,1,.29-.78c.57.21,2.32-1,4-3.64s2-4.89,1.53-5.22-2.3.89-4,3.51a.42.42,0,1,1-.71-.45c1.6-2.48,3.88-4.57,5.15-3.77S36.63,8,35,10.5C33.72,12.55,31.82,14.55,30.44,14.55Z"/></svg>
