<?xml version="1.0" encoding="UTF-8"?>
<svg width="26" height="28" xmlns="http://www.w3.org/2000/svg">
	<defs>
		<filter x="-2.1%" y="-1.6%" width="104.3%" height="103.1%" filterUnits="objectBoundingBox" id="a">
			<feOffset in="SourceAlpha" result="shadowOffsetOuter1" />
			<feGaussianBlur stdDeviation="1.5" in="shadowOffsetOuter1" result="shadowBlurOuter1" />
			<feColorMatrix values="0 0 0 0 0.784313738 0 0 0 0 0.784313738 0 0 0 0 0.784313738 0 0 0 1 0" in="shadowBlurOuter1"
				result="shadowMatrixOuter1" />
			<feMerge>
				<feMergeNode in="shadowMatrixOuter1" />
				<feMergeNode in="SourceGraphic" />
			</feMerge>
		</filter>
	</defs>
	<g fill="none" fill-rule="evenodd">
		<g filter="url(#a)" transform="translate(-23 -79)" opacity="1">
			<path d="M41.417 94H36v5.417h5.417V94zm-1.084-11.917v2.167h-8.666v-2.167H29.5v2.167h-1.083a2.157 2.157 0 0 0-2.156 2.167l-.011 15.166c0 1.192.964 2.167 2.167 2.167h15.166a2.173 2.173 0 0 0 2.167-2.167V86.417a2.173 2.173 0 0 0-2.167-2.167H42.5v-2.167h-2.167zm3.25 19.5H28.417V89.667h15.166v11.916z"
				fill="#646464" fill-rule="nonzero" />
			<path d="M23 81h26v26H23z" />
		</g>
	</g>
</svg>
