<svg id="Layer_1" data-name="Layer 1" xmlns="http://www.w3.org/2000/svg" viewBox="0 0 40 40"><defs><style>.cls-1{fill:#f3652b;}</style></defs><path class="cls-1" d="M4.7,14.51a.45.45,0,0,1-.27-.1.43.43,0,0,1,0-.6l6.53-7.69a.42.42,0,0,1,.59,0,.41.41,0,0,1,.05.59L5,14.36A.44.44,0,0,1,4.7,14.51Z"/><path class="cls-1" d="M35.51,14.51a.44.44,0,0,1-.32-.15L28.66,6.67a.41.41,0,0,1,.05-.59.42.42,0,0,1,.59,0l6.53,7.69a.43.43,0,0,1,0,.6A.45.45,0,0,1,35.51,14.51Z"/><path class="cls-1" d="M33.11,34H7.1A4.22,4.22,0,0,1,2.87,29.8V14.08a.42.42,0,0,1,.42-.42h8a.43.43,0,0,1,0,.85H3.71V29.8A3.38,3.38,0,0,0,7.1,33.18h26A3.38,3.38,0,0,0,36.5,29.8V14.51H29a.43.43,0,0,1,0-.85h8a.42.42,0,0,1,.42.42V29.8A4.23,4.23,0,0,1,33.11,34Z"/><path class="cls-1" d="M20.1,29.72h0a.43.43,0,0,1-.3-.13l-6.89-7.31a.41.41,0,0,1-.08-.46.42.42,0,0,1,.38-.25h4V9a.42.42,0,0,1,.42-.42h4.87A.42.42,0,0,1,23,9V21.57h4a.42.42,0,0,1,.31.71l-6.89,7.31A.44.44,0,0,1,20.1,29.72Zm-5.91-7.31,5.91,6.28L26,22.41H22.54a.42.42,0,0,1-.42-.42V9.42h-4V22a.42.42,0,0,1-.42.42Z"/></svg>
