<?xml version="1.0" encoding="UTF-8"?>
<svg width="6px" height="10px" viewBox="0 0 6 10" version="1.1" xmlns="http://www.w3.org/2000/svg" xmlns:xlink="http://www.w3.org/1999/xlink">
    <!-- Generator: Sketch 54.1 (76490) - https://sketchapp.com -->
    <title>Shape</title>
    <desc>Created with Sketch.</desc>
    <g id="Pricing" stroke="none" stroke-width="1" fill="none" fill-rule="evenodd">
        <g id="PRODUCT_1920px" transform="translate(-691.000000, -2558.000000)" fill="#F3652B" fill-rule="nonzero">
            <path d="M695.96875,2568 C695.6875,2568 695.5,2567.90385 695.3125,2567.71154 L691.28125,2563.67308 C691.09375,2563.48077 691,2563.28846 691,2563 C691,2562.71154 691.09375,2562.51923 691.28125,2562.32692 L695.21875,2558.28846 C695.59375,2557.90385 696.15625,2557.90385 696.53125,2558.28846 C696.90625,2558.67308 696.90625,2559.25 696.53125,2559.63462 L693.34375,2563 L696.71875,2566.36538 C697.09375,2566.75 697.09375,2567.32692 696.71875,2567.71154 C696.53125,2567.90385 696.25,2568 695.96875,2568 Z" id="Shape" transform="translate(694.000000, 2563.000000) scale(-1, 1) translate(-694.000000, -2563.000000) "></path>
        </g>
    </g>
</svg>
