<svg id="Layer_1" data-name="Layer 1" xmlns="http://www.w3.org/2000/svg" viewBox="0 0 40 40"><defs><style>.cls-1{fill:#f3652b;}</style></defs><path class="cls-1" d="M30.37,16.48V13.15a10.37,10.37,0,1,0-20.73,0v3.29H7.13V37.23H32.87V16.48Zm1.71,20H7.92V17.27h2.5V13.15a9.58,9.58,0,1,1,19.15,0v4.08h2.5Z"/><path class="cls-1" d="M20,5.28a7.87,7.87,0,0,0-7.86,7.87v4.12H27.86V13.15A7.88,7.88,0,0,0,20,5.28m-7.07,11.2V13.15a7.07,7.07,0,1,1,14.14,0v3.33Z"/><path class="cls-1" d="M22.86,24.38a2.88,2.88,0,1,0-4.72,2.21L17,32.26h6l-1.16-5.7a2.85,2.85,0,0,0,1-2.18m-.81,7.09H18l1-5,0-.23-.16-.11a2.11,2.11,0,0,1-.9-1.72,2.09,2.09,0,1,1,4.17,0,2.11,2.11,0,0,1-.93,1.74l-.16.11Z"/></svg>
