<svg id="Layer_1" data-name="Layer 1" xmlns="http://www.w3.org/2000/svg" viewBox="0 0 40 40"><defs><style>.cls-1{fill:#f3652b;}</style></defs><path class="cls-1" d="M20,9.87a9.17,9.17,0,0,0-6.46,15.54,6.55,6.55,0,0,1,1.73,2.95,15.63,15.63,0,0,1,.65,3.73v3.85a1.28,1.28,0,0,0,1.28,1.29h5.59a1.28,1.28,0,0,0,1.28-1.29V31.41a16.48,16.48,0,0,1,.6-3.05,6.61,6.61,0,0,1,1.36-2.53,9.23,9.23,0,0,0,3-6.81,9.11,9.11,0,0,0-9-9.15m3.29,26.07a.5.5,0,0,1-.5.5H17.22a.49.49,0,0,1-.49-.5V32.08s0-.48-.11-1.23h6.75a5.19,5.19,0,0,0-.06.52Zm.18-5.88h-7a16.5,16.5,0,0,0-.44-1.92,7.14,7.14,0,0,0-2-3.31A8.3,8.3,0,1,1,28.27,19a8.46,8.46,0,0,1-2.78,6.25,7.6,7.6,0,0,0-1.56,2.87,17.71,17.71,0,0,0-.44,1.92"/><rect class="cls-1" x="19.6" y="2.77" width="0.79" height="5.19"/><rect class="cls-1" x="4.19" y="18.84" width="5.14" height="0.79"/><polygon class="cls-1" points="32.06 7.96 31.5 7.4 27.87 11.07 28.43 11.63 32.06 7.96"/><polygon class="cls-1" points="12.13 11.07 8.5 7.4 7.94 7.96 11.58 11.63 12.13 11.07"/><rect class="cls-1" x="30.67" y="18.84" width="5.14" height="0.79"/><polygon class="cls-1" points="27.87 27.4 31.5 31.08 32.06 30.52 28.43 26.85 27.87 27.4"/><polygon class="cls-1" points="7.94 30.52 8.5 31.08 12.13 27.4 11.57 26.85 7.94 30.52"/></svg>
