<svg id="Layer_1" data-name="Layer 1" xmlns="http://www.w3.org/2000/svg" viewBox="0 0 40 40"><defs><style>.cls-1{fill:#f3652b;}</style></defs><path class="cls-1" d="M17.85,15.69V14H13.5v4.33h1.75v3.45H13.5v4.32h4.35V24.31h4.3v1.74H26.5V21.73H24.75V18.28H26.5V14H22.15v1.74Zm-3.5-.9H17v2.64H14.35ZM17,25.21H14.35V22.57H17Zm8.65,0H23V22.57h2.65ZM23.9,21.73H22.15v1.74h-4.3V21.73H16.1V18.28h1.75V16.53h4.3v1.75H23.9ZM23,14.79h2.65v2.64H23Z"/><path class="cls-1" d="M36.05,7.81l-.31,0c-.38,0-9.32-.73-14.87-4.73a1.49,1.49,0,0,0-1.75,0C13.59,7,4.63,7.91,4.17,8l-.3.11v.3A52.23,52.23,0,0,0,5.76,21.29a29.45,29.45,0,0,0,4.59,9.29c2.36,3.07,9.16,6.65,9.65,6.65s7.29-3.58,9.65-6.65a29.45,29.45,0,0,0,4.59-9.29A53.09,53.09,0,0,0,36.13,8.12ZM33.42,21a28.17,28.17,0,0,1-4.45,9c-2.12,2.78-8,5.82-9,6.29-1-.47-6.85-3.52-9-6.29a28.58,28.58,0,0,1-4.45-9A51,51,0,0,1,4.72,8.74c1.86-.21,9.79-1.32,14.9-5a.63.63,0,0,1,.76,0c5.12,3.69,13,4.67,14.89,4.85A50.48,50.48,0,0,1,33.42,21"/></svg>
