<svg id="Layer_1" data-name="Layer 1" xmlns="http://www.w3.org/2000/svg" viewBox="0 0 40 40"><defs><style>.cls-1{fill:#f3652b;}</style></defs><path class="cls-1" d="M4.76,34.18l9-14.53a1.75,1.75,0,0,0,.65.13A1.61,1.61,0,0,0,15.79,19l8,2.94s0,.05,0,.08a1.6,1.6,0,0,0,3.2,0,1.5,1.5,0,0,0-.36-1L35.3,8.65l0,3.73H36L36,6.75,30.84,9.47l.33.62,3.56-1.87L26,20.68a1.64,1.64,0,0,0-.67-.15A1.6,1.6,0,0,0,24,21.3l-8-2.93a.41.41,0,0,0,0-.11,1.6,1.6,0,0,0-3.19,0,1.44,1.44,0,0,0,.37,1L4.48,33.29V5.11H3.77V34.89H36.23v-.71ZM24.47,22.06a.82.82,0,0,1,.2-.51.93.93,0,0,1,.69-.31,1,1,0,0,1,.25,0,.9.9,0,0,1,.56.44.77.77,0,0,1,.08.34.89.89,0,0,1-1.74.19.58.58,0,0,1,0-.19m-10.94-3.8a.89.89,0,0,1,1.75-.16.75.75,0,0,1,0,.16.74.74,0,0,1-.23.52.88.88,0,0,1-.67.3,1.28,1.28,0,0,1-.27,0,.88.88,0,0,1-.55-.46.82.82,0,0,1-.07-.31"/></svg>
