<svg id="Layer_1" data-name="Layer 1" xmlns="http://www.w3.org/2000/svg" viewBox="0 0 40 40"><defs><style>.cls-1{fill:#f3652b;}</style></defs><path class="cls-1" d="M20.22,2.83,20,2.7,2.94,12.7l-.17.1V27.21l17.06,10,.17.1,17.07-10,.16-.11V12.8ZM36.36,26.71,20,36.29,3.64,26.71V13.3L20,3.72,36.36,13.3Z"/><polygon class="cls-1" points="20 29.85 5.71 21.48 5.26 22.24 19.78 30.74 20 30.87 34.74 22.23 34.29 21.48 20 29.85"/><polygon class="cls-1" points="5.71 15.04 5.26 15.8 19.77 24.3 20 24.43 34.74 15.8 34.29 15.04 20 23.41 5.71 15.04"/></svg>
