<svg id="Layer_1" data-name="Layer 1" xmlns="http://www.w3.org/2000/svg" viewBox="0 0 40 40"><defs><style>.cls-1{fill:#f3652b;}</style></defs><path class="cls-1" d="M29,17.41h8.28V11.33H29Zm7.49-.8H29.75V12.12h6.69Z"/><path class="cls-1" d="M25.16,25.35H37.23V19.27H25.16Zm.8-5.29H36.44v4.5H26Z"/><path class="cls-1" d="M28.87,33.09h8.36V27H28.87Zm.8-5.29h6.77v4.5H29.67Z"/><path class="cls-1" d="M18.73,13.14l-.58-.2.06.6c.39,4.68-.4,7.53-2.34,8.5-3.14-5.17-2-10.64-.39-14.38l.13-.75-.73.15C9,9.77,8.14,17.38,7.67,21.47l0,.37A4.51,4.51,0,0,1,5,17.72v-.95l-.67.67C2.72,19,2.11,23.82,3.68,27.63a8.51,8.51,0,0,0,8.47,5.46c3.85,0,8.67-1.28,9.7-7.41.89-5.28-1.61-12-3.12-12.54m2.34,12.41c-.94,5.58-5.37,6.75-8.92,6.75a7.75,7.75,0,0,1-7.73-5c-1-2.41-1.19-6.43-.11-8.53a5,5,0,0,0,3.57,3.95l.43.11.15-1.29c.43-3.72,1.21-10.51,5.95-13.36-1.48,3.92-2.33,9.38,1,14.61l.2.18.23-.09c2.35-.88,3.43-3.67,3.22-8.31a18.36,18.36,0,0,1,2,11"/><path class="cls-1" d="M22,14.09a22.38,22.38,0,0,1,1.17,3.09l.06.23h4.19V11.33H19.84l.74.68A6.53,6.53,0,0,1,22,14.09m4.63-2v4.49H23.82a23.09,23.09,0,0,0-1.1-2.86,9.24,9.24,0,0,0-1-1.63Z"/><path class="cls-1" d="M23.62,27.08l-.07.22a11.68,11.68,0,0,1-.89,2.34,9,9,0,0,1-2.17,2.76l-.8.69h7.73V27H23.87Zm3,.73V32.3H21.74A9.71,9.71,0,0,0,23.37,30a13.15,13.15,0,0,0,.87-2.19Z"/></svg>
