<svg width="320" height="525" viewBox="0 0 320 525" fill="none" xmlns="http://www.w3.org/2000/svg">
<g opacity="0.5">
<path d="M340.509 274.892C357.705 308.251 290.728 348.322 276.767 382.323C259.286 424.896 245.835 468.508 200.323 472.013C154.811 475.518 158.007 527.076 98.7413 513.916C14.2967 495.163 -200.764 593.143 -246.891 448.421C-283.716 332.884 -220.017 240.707 -65.2741 271.025C44.6543 292.562 75.886 195.05 153.509 180.633C244.471 163.738 323.314 241.534 340.509 274.892Z" fill="black"/>
<path d="M340.509 274.892C357.705 308.251 290.728 348.322 276.767 382.323C259.286 424.896 245.835 468.508 200.323 472.013C154.811 475.518 158.007 527.076 98.7413 513.916C14.2967 495.163 -200.764 593.143 -246.891 448.421C-283.716 332.884 -220.017 240.707 -65.2741 271.025C44.6543 292.562 75.886 195.05 153.509 180.633C244.471 163.738 323.314 241.534 340.509 274.892Z" fill="url(#paint0_linear)"/>
</g>
<defs>
<linearGradient id="paint0_linear" x1="59.4273" y1="330.396" x2="-34.9749" y2="111.336" gradientUnits="userSpaceOnUse">
<stop stop-color="#1E1E1E"/>
<stop offset="1"/>
</linearGradient>
</defs>
</svg>
