<svg width="387" height="399" viewBox="0 0 387 399" fill="none" xmlns="http://www.w3.org/2000/svg">
<g clip-path="url(#clip0)">
<path d="M297.054 122.559L271.216 148.278L297.054 173.997L322.891 148.278L297.054 122.559Z" fill="#333333"/>
<path d="M253.601 96.3208L319.87 162.287L385.965 96.4946L314.429 25.2859L253.601 85.8413C251.443 87.9888 250.886 91.1287 251.934 93.7864C252.3 94.7116 252.857 95.5807 253.601 96.3208Z" stroke="#F3652B" stroke-miterlimit="10" stroke-linecap="round" stroke-linejoin="round"/>
<path d="M183.141 101.698C187.134 106.699 192.142 110.893 197.774 113.955C200.681 115.536 203.357 117.767 206.077 119.645C208.082 121.03 210.307 121.793 212.549 122.758C215.681 124.103 219.331 123.823 222.542 122.679C225.752 121.53 228.603 119.584 231.357 117.582C236.956 113.517 240.386 108.443 244.645 103.128C247.715 99.298 252.198 96.444 253.426 91.5155C253.505 91.2071 253.584 90.8651 253.832 90.6632C254.012 90.5118 254.451 89.6371 254.682 89.5923C260.214 88.5326 258.71 87.3719 254.846 88.0055C253.956 88.1513 253.178 88.2802 252.288 88.2915C252.795 87.8093 253.376 87.4056 253.866 86.9065C254.463 86.3066 255.06 85.701 255.662 85.1011C256.09 84.6693 257.009 83.9124 257.082 83.2564C257.178 82.3312 256.226 82.4882 255.674 82.9256C253.989 84.2769 252.3 85.6225 250.615 86.9738C252.367 85.4039 254.102 83.8171 255.831 82.2247C256.44 81.664 257.003 80.9856 257.155 80.1725C257.161 80.1333 257.166 80.094 257.144 80.066C257.121 80.038 257.082 80.0324 257.042 80.0324C256.592 79.9987 256.136 79.9651 255.702 80.094C255.336 80.2062 255.015 80.4249 254.705 80.6435C252.885 81.9163 251.421 83.3237 249.793 84.7815C250.458 83.8956 252.598 81.9612 253.257 81.0809C253.815 80.3351 253.37 79.281 253.184 79.1745C253.026 79.0848 252.829 79.1913 252.683 79.2979C251.044 80.4977 249.59 81.9443 248.385 83.576C247.258 85.0955 245.704 87.2486 245.343 89.1269C245.033 90.7305 244.464 92.2836 244.11 93.8872C243.845 95.0703 243.789 95.8609 243.022 96.7748C242.206 97.7448 241.197 98.5522 240.189 99.3148C236.145 102.393 228.191 108.936 222.773 108.37C217.084 107.776 209.874 100.156 206.077 96.3207C204.168 94.3975 202.269 92.2892 199.718 91.3585C197.166 90.4277 193.736 91.2015 192.767 93.7246" stroke="#646464" stroke-width="1.4" stroke-miterlimit="10" stroke-linecap="round" stroke-linejoin="round"/>
<path d="M196.18 84.7312C191.201 86.5198 188.109 90.641 185.495 95.2219C181.524 102.18 179.057 109.974 178.229 117.93C177.502 124.894 177.04 132.677 182.741 137.801C183.597 138.749 184.526 139.618 185.478 140.47C186.43 141.322 187.393 142.158 188.311 143.044C190.119 144.782 192.592 146.548 194.214 148.466" stroke="#646464" stroke-width="1.4" stroke-miterlimit="10" stroke-linecap="round" stroke-linejoin="round"/>
<path d="M201.582 77.6831C201.301 79.5671 201.115 81.6485 199.571 82.9829" stroke="#646464" stroke-width="1.4" stroke-miterlimit="10" stroke-linecap="round" stroke-linejoin="round"/>
<path d="M223.815 67.658C224.029 70.0073 224.192 72.5753 222.857 74.5209C222.305 75.3227 221.517 75.9955 221.207 76.9151C220.914 77.801 221.117 78.7598 221.066 79.6905C221.032 80.3129 220.773 81.0474 220.159 81.182C219.692 81.2885 219.156 80.997 218.74 81.2325C218.537 81.3502 218.419 81.5633 218.306 81.7651C217.585 83.0323 216.644 84.1761 215.535 85.1349C215.337 85.3087 215.123 85.4769 214.87 85.5498C214.628 85.6227 214.369 85.6059 214.121 85.5779C213.09 85.4601 212.076 85.1742 211.135 84.7424C210.426 84.4116 209.716 83.7107 208.894 83.9855C207.519 84.4453 206.776 87.0974 206.471 88.3365" stroke="#646464" stroke-width="1.4" stroke-miterlimit="10" stroke-linecap="round" stroke-linejoin="round"/>
<path d="M224.26 67.7532C225.696 67.5849 227.076 66.9289 228.113 65.9253C227.172 65.4543 226.062 65.3141 225.031 65.5384C225.854 64.6637 226.676 63.789 227.499 62.9143C224.361 62.6284 221.511 61.6976 218.633 60.4921C215.873 59.3371 212.735 58.8773 209.761 58.7988C208.482 58.7652 207.159 58.8212 206.004 59.3595C204.849 59.8978 203.954 60.8734 203.238 61.9275C201.509 64.4675 200.923 67.5289 200.704 70.5398C200.608 71.8519 200.867 74.6049 201.115 75.9001C201.357 77.1953 202.343 78.4345 202.343 78.4345C202.709 78.9952 203.503 79.2307 204.117 78.9559C204.697 78.698 205.035 78.098 205.322 77.5317C205.959 76.2702 206.545 74.9806 207.074 73.6685C207.131 73.5227 207.193 73.3657 207.142 73.22C207.108 73.119 207.024 73.0405 206.945 72.962C206.229 72.278 205.582 72.435 205.429 71.4594C205.063 69.0652 207.48 66.7159 208.989 68.0559C210.262 69.1885 209.862 72.0817 209.716 73.59C209.592 74.8628 209.389 76.1748 209.784 77.3916C209.84 77.5654 209.964 77.7728 210.15 77.7448C210.324 77.7168 210.381 77.5037 210.409 77.3299C210.707 75.3002 211.242 73.276 212.234 71.465C212.718 70.5791 213.428 69.8558 213.941 69.0091C214.386 68.2802 214.656 67.5962 215.529 67.2485C216.667 66.7944 223.944 67.2093 224.564 67.2934" stroke="#646464" stroke-width="1.4" stroke-miterlimit="10" stroke-linecap="round" stroke-linejoin="round"/>
<path d="M208.035 92.8613C208.072 92.9902 207.954 93.7416 207.817 93.7864C207.673 93.8369 207.006 92.2669 206.944 92.138C206.345 90.8988 206.295 90.5344 205.696 89.2896C205.272 90.6017 204.804 91.6389 204.711 93.0014C204.698 93.1696 204.623 93.3883 204.436 93.3771C204.33 93.3715 204.256 93.2762 204.199 93.1977C203.894 92.7659 203.588 92.3398 203.283 91.9081C202.902 91.3754 201.218 89.7774 200.832 89.4578C200.382 89.0822 199.996 88.656 199.559 88.2747C198.343 87.2318 196.753 86.6263 195.206 86.0432C196.291 84.8713 197.208 83.5761 197.919 82.1968C199.609 83.4583 201.306 84.7199 202.996 85.9815C203.788 86.5758 204.623 87.1421 205.384 87.7645C205.915 88.2131 207.711 91.8128 208.035 92.8613Z" stroke="#646464" stroke-width="1.4" stroke-miterlimit="10" stroke-linecap="round" stroke-linejoin="round"/>
<path d="M228.61 119.78C227.924 120.24 227.184 120.722 226.235 120.84C225.102 120.98 223.855 120.56 222.972 119.926C222.088 119.293 221.51 118.468 221.05 117.65C219.344 114.605 218.956 111.263 219.97 108.264" stroke="#646464" stroke-width="1.4" stroke-miterlimit="10" stroke-linecap="round" stroke-linejoin="round"/>
<path d="M232.523 105.062C234.737 103.61 235.221 100.464 234.461 97.9411C233.7 95.418 231.982 93.3098 230.495 91.123C228.58 88.3083 227.02 85.275 225.459 82.2472C224.817 81.008 224.164 79.7072 224.153 78.3111C224.141 77.285 224.485 76.287 224.631 75.2665C224.778 74.246 224.682 73.1022 223.95 72.3677" stroke="#646464" stroke-width="1.4" stroke-miterlimit="10" stroke-linecap="round" stroke-linejoin="round"/>
<path d="M218.272 81.8828C218.942 83.3014 220.255 84.2938 221.212 85.5386C223.223 88.1458 223.527 91.6558 223.437 94.9415C223.336 98.5243 222.891 102.264 224.085 105.707C224.389 106.582 225.116 107.299 225.995 107.602" stroke="#646464" stroke-width="1.4" stroke-miterlimit="10" stroke-linecap="round" stroke-linejoin="round"/>
<path d="M207.026 88.4583C211.77 89.2758 212.763 93.0408 214.374 95.0032C218.028 99.4539 219.833 100.466 222.758 100.968" stroke="#646464" stroke-width="1.4" stroke-miterlimit="10" stroke-linecap="round" stroke-linejoin="round"/>
<path d="M196.642 113.428C192.925 115.536 189.981 117.037 185.241 120.652C181.208 123.728 176.708 126.98 179.198 132.121C183.005 139.999 190.615 143.935 198.298 138.037C201.092 135.889 203.317 133.108 205.812 130.619C206.911 129.52 208.826 128.079 210.493 128.129C212.414 128.185 211.671 129.419 211.558 130.933C211.304 134.258 211.749 137.583 212.397 140.84C213.676 147.255 215.856 153.596 215.749 160.207C215.726 161.693 215.58 163.178 215.394 164.653C215.23 165.976 214.774 167.199 214.701 168.544" stroke="#646464" stroke-width="1.4" stroke-miterlimit="10" stroke-linecap="round" stroke-linejoin="round"/>
<path d="M228.997 119.983C229.617 125.086 230.23 130.189 230.85 135.287C231.571 141.235 232.286 147.183 232.917 153.137C232.94 153.365 232.951 153.625 232.777 153.776C232.647 153.89 232.461 153.906 232.286 153.917C226.913 154.253 221.539 154.589 216.165 154.925" stroke="#646464" stroke-width="1.4" stroke-miterlimit="10" stroke-linecap="round" stroke-linejoin="round"/>
<path d="M225.015 154.577C224.603 157.039 226.366 159.439 228.552 160.667C230.737 161.894 233.289 162.242 235.745 162.747C239.35 163.492 242.876 164.625 246.239 166.122C247.05 166.481 247.991 167.115 247.833 167.984C236.748 168.281 225.657 168.432 214.566 168.438" stroke="#646464" stroke-width="1.4" stroke-miterlimit="10" stroke-linecap="round" stroke-linejoin="round"/>
<path d="M215.659 161.446C215.709 161.777 216.103 161.911 216.43 161.979C218.312 162.377 220.221 162.78 222.142 162.623C224.057 162.466 226.012 161.676 227.127 160.112" stroke="#646464" stroke-width="1.4" stroke-miterlimit="10" stroke-linecap="round" stroke-linejoin="round"/>
<path d="M203.689 152.177C198.952 148.466 192.451 147.473 186.571 148.897C185.394 149.183 184.245 149.565 183.135 150.041C181.952 150.736 180.718 151.538 179.434 152.34C178.15 153.142 176.815 153.944 175.424 154.628C171.554 157.285 166.631 156.304 162.682 155.351C161.708 153.36 160.722 152.379 160.722 150.422C148.899 157.285 140.039 161.21 133.138 167.092C135.763 167.092 138.394 167.092 141.019 167.07C142.331 167.058 155.793 165.13 160.519 165.819" stroke="#646464" stroke-width="1.4" stroke-miterlimit="10" stroke-linecap="round" stroke-linejoin="round"/>
<path d="M214.583 166.044C207.756 166.475 200.917 166.806 194.079 167.031C192.711 167.075 191.342 167.115 189.962 167.126C180.425 167.092 169.588 167.092 159.736 167.092C163.679 164.149 164.659 160.229 165.69 156.254" stroke="#646464" stroke-width="1.4" stroke-miterlimit="10" stroke-linecap="round" stroke-linejoin="round"/>
<path d="M212.628 141.575C209.93 138.592 207.238 135.615 204.539 132.632" stroke="#646464" stroke-width="1.4" stroke-miterlimit="10" stroke-linecap="round" stroke-linejoin="round"/>
<path d="M163.82 155.749C158.751 155.329 156.779 160.229 156.903 165.528" stroke="#646464" stroke-width="1.4" stroke-miterlimit="10" stroke-linecap="round" stroke-linejoin="round"/>
</g>
<line x1="121.556" y1="0.342285" x2="121.556" y2="3.25142" stroke="#F3652B"/>
<line x1="121.556" y1="5.43311" x2="121.556" y2="8.34224" stroke="#F3652B"/>
<line x1="125.239" y1="4.66064" x2="122.33" y2="4.66064" stroke="#F3652B"/>
<line x1="120.149" y1="4.66064" x2="117.239" y2="4.66064" stroke="#F3652B"/>
<path d="M359.01 178.786C358.346 178.786 357.811 179.321 357.811 179.985H358.61C358.61 179.761 358.786 179.585 359.01 179.585V178.786ZM363.612 179.585C363.836 179.585 364.012 179.761 364.012 179.985H364.811C364.811 179.321 364.276 178.786 363.612 178.786V179.585ZM364.012 184.587C364.012 184.811 363.836 184.987 363.612 184.987V185.786C364.276 185.786 364.811 185.251 364.811 184.587H364.012ZM359.01 184.987C358.786 184.987 358.61 184.811 358.61 184.587H357.811C357.811 185.251 358.346 185.786 359.01 185.786V184.987ZM358.61 184.587V179.977H357.811V184.587H358.61ZM363.612 184.987H359.002V185.786H363.612V184.987ZM364.012 179.985V184.595H364.811V179.985H364.012ZM359.01 179.585H363.62V178.786H359.01V179.585Z" fill="#F3652B"/>
<path d="M142.724 309.797C142.724 307.426 142.724 306.105 142.724 303.363L102.565 303.363L102.565 340.319L142.724 340.319C142.724 334.82 142.724 330.391 142.724 324.714" stroke="#F3652B" stroke-width="1.0457" stroke-miterlimit="10" stroke-linecap="round" stroke-linejoin="round"/>
<path d="M47.1234 397.038L87.2827 397.038L87.2827 360.082L47.1234 360.082L47.1234 397.038Z" stroke="#F3652B" stroke-width="1.0457" stroke-miterlimit="10" stroke-linecap="round" stroke-linejoin="round"/>
<path d="M0.597218 397.038L40.7565 397.038L40.7565 360.082L0.597218 360.082L0.597218 397.038Z" stroke="#F3652B" stroke-width="1.0457" stroke-miterlimit="10" stroke-linecap="round" stroke-linejoin="round"/>
<path d="M145.142 397.613L185.301 397.613L185.301 360.657L145.142 360.657L145.142 397.613Z" stroke="#F3652B" stroke-width="1.0457" stroke-miterlimit="10" stroke-linecap="round" stroke-linejoin="round"/>
<path d="M191.148 397.613L231.307 397.613L231.307 360.657L191.148 360.657L191.148 397.613Z" stroke="#F3652B" stroke-width="1.0457" stroke-miterlimit="10" stroke-linecap="round" stroke-linejoin="round"/>
<path d="M237.039 397.613L277.199 397.613L277.199 360.657L237.039 360.657L237.039 397.613Z" stroke="#F3652B" stroke-width="1.0457" stroke-miterlimit="10" stroke-linecap="round" stroke-linejoin="round"/>
<path d="M186.875 263.544C187.901 269.468 188.928 275.437 188.735 281.44C188.542 287.444 187.041 293.561 183.444 298.385C181.496 300.997 178.995 303.147 176.416 305.14C174.135 306.896 171.748 308.556 169.151 309.797C162.035 313.197 159.043 314.551 151.708 317.444C150.26 318.012 148.777 318.562 147.54 319.497C145.487 321.053 143.372 322.914 141.907 325.029C138.898 329.346 131.29 331.565 126.149 332.727C121.841 333.706 116.541 332.046 114.4 328.201C113.575 326.715 119.463 324.566 120.138 324.303C121.481 323.77 127.939 319.279 126.491 318.047C125.482 317.19 119.419 319.401 120.665 316.115C121.928 312.786 130.913 313.433 133.73 312.358L134.581 312.122C148.005 310.016 153.875 305.524 163.702 296.174C168.159 291.935 173.003 289.829 172.538 283.712C172.362 281.335 170.748 275.682 169.897 273.462C167.124 266.226 156.569 256.867 159.411 248.845" stroke="#646464" stroke-width="1.4173" stroke-miterlimit="10" stroke-linecap="round" stroke-linejoin="round"/>
<path d="M149.435 238.945C153.682 239.277 157.902 239.906 162.166 240.177C179.592 241.278 197.921 244.625 212.205 255.469C230.912 269.67 231.35 288.737 223.735 308.897C222.418 312.375 221.137 315.853 219.874 319.349C219.023 321.708 213.486 332.667 219.611 332.099C222.357 331.845 224.884 330.438 227.797 330.351C230.499 330.272 233.211 330.596 235.869 331.094C245.731 332.946 255.111 336.643 264.806 339.133C269.597 340.365 274.484 341.309 279.442 341.554C284.127 341.781 288.277 339.955 292.901 339.334C293.91 339.203 295.024 339.116 295.849 339.71C296.727 340.339 296.964 341.528 297.121 342.594C298.455 351.577 298.964 360.683 298.639 369.753C298.481 374.254 298.262 378.868 297.534 383.324C296.744 388.174 292.989 382.756 292.085 380.598C290.787 377.478 289.655 374.289 288.698 371.055C288.356 369.911 288.04 368.74 288.04 367.543C288.04 367.053 288.093 366.555 287.952 366.092C287.795 365.603 287.435 365.201 287.075 364.825C285.399 363.06 283.89 361.023 281.486 360.779C278.59 360.482 275.511 360.77 272.606 360.761C266.535 360.735 260.463 360.7 254.391 360.648C242.248 360.543 230.105 360.368 217.961 360.141C212.679 360.036 207.397 359.931 202.115 359.8C198.404 359.713 190.059 361.093 186.901 359.241C171.09 349.969 180.75 314.988 186.313 302.606" stroke="#646464" stroke-width="1.4173" stroke-miterlimit="10" stroke-linecap="round" stroke-linejoin="round"/>
<path d="M144.864 253.695C143.644 255.644 142.6 258.816 140.082 259.34C137.379 259.908 134.598 257.426 132.001 258.344C131.15 258.65 130.456 259.288 129.614 259.611C128.772 259.934 127.596 259.777 127.28 258.938C127.14 258.563 126.069 255.906 125.069 255.548C124.069 255.181 122.981 255.146 121.937 254.945C119.62 254.508 116.997 252.393 115.47 250.602C115.093 250.156 115.242 250.304 115.681 249.92C115.909 249.728 116.234 249.728 116.532 249.719C121.252 249.614 122.13 245.306 125.613 243.349C126.859 242.649 138.292 241.54 138.283 241.522C137.335 239.119 132.738 233.526 133.405 231.176C134.221 228.274 139.257 228.266 141.187 229.638C143.293 231.123 143.96 234.365 142.477 236.471C142.284 236.742 143.951 238.088 149.452 238.944" stroke="#646464" stroke-width="1.4173" stroke-miterlimit="10" stroke-linecap="round" stroke-linejoin="round"/>
<path d="M151.953 259.262C152.129 258.702 152.076 258.099 152.024 257.514C151.971 256.911 151.918 256.308 151.699 255.749C151.488 255.207 151.146 254.683 150.76 254.246C149.479 252.813 148.277 252.568 146.426 252.061" stroke="#646464" stroke-width="1.4173" stroke-miterlimit="10" stroke-linecap="round" stroke-linejoin="round"/>
<path d="M143.196 236.864C144.469 237.677 146.276 237.546 147.417 236.55C147.996 236.043 148.399 235.361 148.715 234.662C149.847 232.189 150.224 229.716 149.215 227.121C148.013 224.036 144.732 221.895 141.415 222.017C140.862 222.035 140.275 222.105 139.801 221.825C139.266 221.511 139.055 220.873 138.836 220.296C137.204 216.04 132.711 213.043 128.14 213.156C123.569 213.27 119.234 216.477 117.804 220.811C114.408 218.609 109.846 217.858 106.275 219.772C102.712 221.685 100.87 226.675 103.081 230.057C100.563 229.48 97.8253 230.756 96.3337 232.862C94.8421 234.959 94.4823 237.73 94.9825 240.255C95.737 244.1 98.457 247.517 102.046 249.133C102.107 252.909 104.397 256.561 107.784 258.274C111.162 259.978 115.479 259.664 118.576 257.488C118.883 259.209 120.971 260.153 122.682 259.786C124.402 259.419 125.201 258.79 126.28 257.409" stroke="#646464" stroke-width="1.4173" stroke-miterlimit="10" stroke-linecap="round" stroke-linejoin="round"/>
<path d="M146.267 269.783C146.311 269.984 146.355 270.176 146.399 270.377C145.557 267.729 143.109 262.871 144.214 260.162C144.477 259.524 144.907 258.964 145.337 258.423C146.794 256.561 147.952 255.294 149.408 253.442" stroke="#646464" stroke-width="1.4173" stroke-miterlimit="10" stroke-linecap="round" stroke-linejoin="round"/>
<path d="M145.021 253.442C146.715 250.61 147.548 247.272 146.768 244.074" stroke="#646464" stroke-width="1.4173" stroke-miterlimit="10" stroke-linecap="round" stroke-linejoin="round"/>
<path d="M160.438 239.932C161.982 240.325 162.421 239.678 162.877 240.438C163.132 240.867 163.061 241.435 162.798 241.863C162.535 242.291 162.123 242.606 161.701 242.877C160.569 243.593 159.271 244.1 158.376 245.096C156.805 246.835 155.788 249.894 155.691 252.201C155.63 253.712 155.946 255.216 156.261 256.701C156.832 259.375 157.402 261.158 157.964 263.832C158.113 264.531 158.183 265.422 157.578 265.798C157.27 265.99 156.893 265.973 156.533 265.929C154.033 265.632 151.743 265.055 150.234 263.045C148.724 261.035 147.838 258.099 147.698 255.591" stroke="#646464" stroke-width="1.4173" stroke-miterlimit="10" stroke-linecap="round" stroke-linejoin="round"/>
<path d="M180.408 302.719C182.189 303.732 184.444 303.47 186.374 302.78C186.699 302.666 187.015 302.535 187.322 302.413C193.639 299.8 198.649 296.549 201.729 290.257C202.001 289.698 204.458 281.868 204.589 281.868C208.722 281.772 212.205 280.968 216.136 283.109C224.928 287.898 223.533 299.756 222.155 308.049C221.866 309.779 221.55 311.553 221.953 313.266" stroke="#646464" stroke-width="1.4173" stroke-miterlimit="10" stroke-linecap="round" stroke-linejoin="round"/>
<path d="M288.102 340.322C289.848 345.399 290.032 350.546 288.874 355.798C288.523 357.379 287.795 359.188 286.215 359.564C284.969 359.861 281.732 359.809 280.863 360.744" stroke="#646464" stroke-width="1.4173" stroke-miterlimit="10" stroke-linecap="round" stroke-linejoin="round"/>
<path d="M152.708 305.454C149.962 298.97 147.189 292.486 144.495 285.975C143.004 282.375 141.503 278.303 143.013 274.711C143.802 272.824 145.364 271.329 147.11 270.255C153.033 266.619 160.578 267.563 167.449 268.629" stroke="#646464" stroke-width="1.4173" stroke-miterlimit="10" stroke-linecap="round" stroke-linejoin="round"/>
<path d="M185.163 358.445C173.195 358.576 155.858 358.716 143.89 358.847C146.899 353.211 163.965 352.591 167.325 350.126C167.764 349.803 168.194 349.445 168.448 348.964C168.694 348.492 168.756 347.942 168.764 347.409C168.87 342.48 165.702 337.543 163.982 333.051C161.956 327.764 159.841 322.521 157.674 317.295C157.411 316.648 157.139 316.011 156.875 315.364" stroke="#646464" stroke-width="1.4173" stroke-miterlimit="10" stroke-linecap="round" stroke-linejoin="round"/>
<path d="M145.689 320.546C144.39 320.187 143.469 318.501 143.179 317.531C142.354 314.769 143.302 312.742 144.285 310.024" stroke="#646464" stroke-width="1.4173" stroke-miterlimit="10" stroke-linecap="round" stroke-linejoin="round"/>
<path d="M122.647 332.955C125.674 332.378 128.587 331.207 131.167 329.52" stroke="#646464" stroke-width="1.4173" stroke-miterlimit="10" stroke-linecap="round" stroke-linejoin="round"/>
<path d="M119.366 332.133C122.867 330.779 126.324 329.319 129.728 327.755" stroke="#646464" stroke-width="1.4173" stroke-miterlimit="10" stroke-linecap="round" stroke-linejoin="round"/>
<path d="M126.736 325.44C123.358 327.476 119.62 328.9 115.742 329.625" stroke="#646464" stroke-width="1.4173" stroke-miterlimit="10" stroke-linecap="round" stroke-linejoin="round"/>
<path d="M178.916 348.85C176.275 349.969 173.643 351.096 171.002 352.215C170.756 352.319 170.458 352.416 170.265 352.215C170.151 352.11 170.116 351.935 170.072 351.778C169.694 350.205 169.326 348.632 168.949 347.059" stroke="#646464" stroke-width="1.4173" stroke-miterlimit="10" stroke-linecap="round" stroke-linejoin="round"/>
<path d="M324.358 379.53H323.481V381.994H324.358V379.53Z" fill="#1E1E1E"/>
<path d="M324.358 383.847H323.481V386.311H324.358V383.847Z" fill="#1E1E1E"/>
<path d="M327.043 382.772H324.569V383.646H327.043V382.772Z" fill="#1E1E1E"/>
<path d="M322.7 382.772H320.225V383.646H322.7V382.772Z" fill="#1E1E1E"/>
<line x1="26.0905" y1="231.253" x2="26.0905" y2="237.799" stroke="#D8D8D8"/>
<line x1="26.0905" y1="242.708" x2="26.0905" y2="249.253" stroke="#D8D8D8"/>
<line x1="35" y1="240.344" x2="28.4543" y2="240.344" stroke="#D8D8D8"/>
<line x1="23.5457" y1="240.344" x2="17" y2="240.344" stroke="#D8D8D8"/>
<defs>
<clipPath id="clip0">
<rect width="261" height="149" fill="white" transform="translate(125.258 25)"/>
</clipPath>
</defs>
</svg>
