<svg viewBox="0 0 568 510" fill="none" xmlns="http://www.w3.org/2000/svg">
<path fill-rule="evenodd" clip-rule="evenodd" d="M312.729 343.155C312.729 345.113 311.146 346.701 309.193 346.701C307.241 346.701 305.658 345.113 305.658 343.155C305.658 341.196 307.241 339.608 309.193 339.608C311.146 339.608 312.729 341.196 312.729 343.155Z" fill="#1E1E1E"/>
<path fill-rule="evenodd" clip-rule="evenodd" d="M312.729 343.155C312.729 345.113 311.146 346.701 309.193 346.701C307.241 346.701 305.658 345.113 305.658 343.155C305.658 341.196 307.241 339.608 309.193 339.608C311.146 339.608 312.729 341.196 312.729 343.155Z" stroke="#646464" stroke-width="0.475" stroke-linecap="round" stroke-linejoin="round"/>
<path fill-rule="evenodd" clip-rule="evenodd" d="M349.484 333.025V305.815C349.484 303.015 347.201 300.725 344.41 300.725H324.85C322.059 300.725 319.776 303.015 319.776 305.815V332.746C319.776 332.746 321.071 342.965 308.935 342.965H312.728" fill="#1E1E1E"/>
<path d="M349.484 333.025V305.815C349.484 303.015 347.201 300.725 344.41 300.725H324.85C322.059 300.725 319.776 303.015 319.776 305.815V332.746C319.776 332.746 321.071 342.965 308.935 342.965H312.728" stroke="#646464" stroke-width="0.475" stroke-linecap="round" stroke-linejoin="round"/>
<path fill-rule="evenodd" clip-rule="evenodd" d="M339.199 320.456H329.827C329.169 320.456 328.63 319.917 328.63 319.259V309.852C328.63 309.192 329.169 308.653 329.827 308.653H339.199C339.857 308.653 340.396 309.192 340.396 309.852V319.259C340.396 319.917 339.857 320.456 339.199 320.456Z" fill="#1E1E1E"/>
<path fill-rule="evenodd" clip-rule="evenodd" d="M339.199 320.456H329.827C329.169 320.456 328.63 319.917 328.63 319.259V309.852C328.63 309.192 329.169 308.653 329.827 308.653H339.199C339.857 308.653 340.396 309.192 340.396 309.852V319.259C340.396 319.917 339.857 320.456 339.199 320.456Z" stroke="#646464" stroke-width="0.475" stroke-linecap="round" stroke-linejoin="round"/>
<path fill-rule="evenodd" clip-rule="evenodd" d="M339.199 338.926H329.827C329.169 338.926 328.63 338.387 328.63 337.728V328.322C328.63 327.662 329.169 327.123 329.827 327.123H339.199C339.857 327.123 340.396 327.662 340.396 328.322V337.728C340.396 338.387 339.857 338.926 339.199 338.926Z" fill="#1E1E1E"/>
<path fill-rule="evenodd" clip-rule="evenodd" d="M339.199 338.926H329.827C329.169 338.926 328.63 338.387 328.63 337.728V328.322C328.63 327.662 329.169 327.123 329.827 327.123H339.199C339.857 327.123 340.396 327.662 340.396 328.322V337.728C340.396 338.387 339.857 338.926 339.199 338.926Z" stroke="#646464" stroke-width="0.475" stroke-linecap="round" stroke-linejoin="round"/>
<path fill-rule="evenodd" clip-rule="evenodd" d="M80.4532 348.67C80.4532 350.628 78.8702 352.216 76.9172 352.216C74.9652 352.216 73.3822 350.628 73.3822 348.67C73.3822 346.711 74.9652 345.123 76.9172 345.123C78.8702 345.123 80.4532 346.711 80.4532 348.67Z" fill="#1E1E1E"/>
<path fill-rule="evenodd" clip-rule="evenodd" d="M80.4532 348.67C80.4532 350.628 78.8702 352.216 76.9172 352.216C74.9652 352.216 73.3822 350.628 73.3822 348.67C73.3822 346.711 74.9652 345.123 76.9172 345.123C78.8702 345.123 80.4532 346.711 80.4532 348.67Z" stroke="#646464" stroke-width="0.475" stroke-linecap="round" stroke-linejoin="round"/>
<path fill-rule="evenodd" clip-rule="evenodd" d="M117.209 338.539V311.328C117.209 308.529 114.926 306.239 112.135 306.239H92.575C89.784 306.239 87.501 308.529 87.501 311.328V338.26C87.501 338.26 88.796 348.478 76.66 348.478H80.453" fill="#1E1E1E"/>
<path d="M117.209 338.539V311.328C117.209 308.529 114.926 306.239 112.135 306.239H92.575C89.784 306.239 87.501 308.529 87.501 311.328V338.26C87.501 338.26 88.796 348.478 76.66 348.478H80.453" stroke="#646464" stroke-width="0.475" stroke-linecap="round" stroke-linejoin="round"/>
<path fill-rule="evenodd" clip-rule="evenodd" d="M106.924 325.971H97.5529C96.8939 325.971 96.3549 325.432 96.3549 324.773V315.367C96.3549 314.707 96.8939 314.168 97.5529 314.168H106.924C107.582 314.168 108.121 314.707 108.121 315.367V324.773C108.121 325.432 107.582 325.971 106.924 325.971Z" fill="#1E1E1E"/>
<path fill-rule="evenodd" clip-rule="evenodd" d="M106.924 325.971H97.5529C96.8939 325.971 96.3549 325.432 96.3549 324.773V315.367C96.3549 314.707 96.8939 314.168 97.5529 314.168H106.924C107.582 314.168 108.121 314.707 108.121 315.367V324.773C108.121 325.432 107.582 325.971 106.924 325.971Z" stroke="#646464" stroke-width="0.475" stroke-linecap="round" stroke-linejoin="round"/>
<path fill-rule="evenodd" clip-rule="evenodd" d="M106.924 344.441H97.5529C96.8939 344.441 96.3549 343.902 96.3549 343.243V333.836C96.3549 333.177 96.8939 332.638 97.5529 332.638H106.924C107.582 332.638 108.121 333.177 108.121 333.836V343.243C108.121 343.902 107.582 344.441 106.924 344.441Z" fill="#1E1E1E"/>
<path fill-rule="evenodd" clip-rule="evenodd" d="M106.924 344.441H97.5529C96.8939 344.441 96.3549 343.902 96.3549 343.243V333.836C96.3549 333.177 96.8939 332.638 97.5529 332.638H106.924C107.582 332.638 108.121 333.177 108.121 333.836V343.243C108.121 343.902 107.582 344.441 106.924 344.441Z" stroke="#646464" stroke-width="0.475" stroke-linecap="round" stroke-linejoin="round"/>
<path d="M241.382 338.803V342.441V348.133" stroke="#646464" stroke-width="0.475" stroke-linecap="round" stroke-linejoin="round"/>
<path fill-rule="evenodd" clip-rule="evenodd" d="M254.77 305.786H248.454C244.564 305.786 241.382 308.978 241.382 312.879V333.63" fill="#1E1E1E"/>
<path d="M254.77 305.786H248.454C244.564 305.786 241.382 308.978 241.382 312.879V333.63" stroke="#646464" stroke-width="0.475" stroke-linecap="round" stroke-linejoin="round"/>
<path d="M264.236 305.786H259.09" stroke="#646464" stroke-width="0.475" stroke-linecap="round" stroke-linejoin="round"/>
<path fill-rule="evenodd" clip-rule="evenodd" d="M271.541 305.786H280.526H289.07C289.07 305.786 296.077 305.258 296.077 311.99V356.421" fill="#1E1E1E"/>
<path d="M271.541 305.786H280.526H289.07C289.07 305.786 296.077 305.258 296.077 311.99V356.421" stroke="#646464" stroke-width="0.475" stroke-linecap="round" stroke-linejoin="round"/>
<path fill-rule="evenodd" clip-rule="evenodd" d="M263.039 332.291H253.668C253.009 332.291 252.47 331.752 252.47 331.094V321.687C252.47 321.027 253.009 320.488 253.668 320.488H263.039C263.698 320.488 264.236 321.027 264.236 321.687V331.094C264.236 331.752 263.698 332.291 263.039 332.291Z" fill="#1E1E1E"/>
<path fill-rule="evenodd" clip-rule="evenodd" d="M263.039 332.291H253.668C253.009 332.291 252.47 331.752 252.47 331.094V321.687C252.47 321.027 253.009 320.488 253.668 320.488H263.039C263.698 320.488 264.236 321.027 264.236 321.687V331.094C264.236 331.752 263.698 332.291 263.039 332.291Z" stroke="#646464" stroke-width="0.475" stroke-linecap="round" stroke-linejoin="round"/>
<path fill-rule="evenodd" clip-rule="evenodd" d="M263.039 352.486H253.668C253.009 352.486 252.47 351.947 252.47 351.288V341.881C252.47 341.222 253.009 340.683 253.668 340.683H263.039C263.698 340.683 264.236 341.222 264.236 341.881V351.288C264.236 351.947 263.698 352.486 263.039 352.486Z" fill="#1E1E1E"/>
<path fill-rule="evenodd" clip-rule="evenodd" d="M263.039 352.486H253.668C253.009 352.486 252.47 351.947 252.47 351.288V341.881C252.47 341.222 253.009 340.683 253.668 340.683H263.039C263.698 340.683 264.236 341.222 264.236 341.881V351.288C264.236 351.947 263.698 352.486 263.039 352.486Z" stroke="#646464" stroke-width="0.475" stroke-linecap="round" stroke-linejoin="round"/>
<path fill-rule="evenodd" clip-rule="evenodd" d="M285.943 332.291H276.572C275.913 332.291 275.374 331.752 275.374 331.094V321.687C275.374 321.027 275.913 320.488 276.571 320.488H285.943C286.601 320.488 287.14 321.027 287.14 321.687V331.094C287.14 331.752 286.601 332.291 285.943 332.291Z" fill="#1E1E1E"/>
<path fill-rule="evenodd" clip-rule="evenodd" d="M285.943 332.291H276.572C275.913 332.291 275.374 331.752 275.374 331.094V321.687C275.374 321.027 275.913 320.488 276.571 320.488H285.943C286.601 320.488 287.14 321.027 287.14 321.687V331.094C287.14 331.752 286.601 332.291 285.943 332.291Z" stroke="#646464" stroke-width="0.475" stroke-linecap="round" stroke-linejoin="round"/>
<path fill-rule="evenodd" clip-rule="evenodd" d="M508.636 395.813V402.157C508.636 404.018 510.157 405.54 512.019 405.54H516.641" fill="#1E1E1E"/>
<path d="M508.636 395.813V402.157C508.636 404.018 510.157 405.54 512.019 405.54H516.641" stroke="#646464" stroke-width="0.475" stroke-linecap="round" stroke-linejoin="round"/>
<path d="M508.636 389.486V394.125" stroke="#646464" stroke-width="0.475" stroke-linecap="round" stroke-linejoin="round"/>
<path d="M508.636 376.341V378.541V385.277" stroke="#646464" stroke-width="0.475" stroke-linecap="round" stroke-linejoin="round"/>
<path fill-rule="evenodd" clip-rule="evenodd" d="M509.068 360.369C508.793 360.858 508.635 361.422 508.635 362.02V371.021" fill="#1E1E1E"/>
<path d="M509.068 360.369C508.793 360.858 508.635 361.422 508.635 362.02V371.021" stroke="#646464" stroke-width="0.475" stroke-linecap="round" stroke-linejoin="round"/>
<path fill-rule="evenodd" clip-rule="evenodd" d="M525.69 395.813V402.157C525.69 404.018 524.168 405.54 522.307 405.54H517.684" fill="#1E1E1E"/>
<path d="M525.69 395.813V402.157C525.69 404.018 524.168 405.54 522.307 405.54H517.684" stroke="#646464" stroke-width="0.475" stroke-linecap="round" stroke-linejoin="round"/>
<path d="M525.689 385.277V394.125" stroke="#646464" stroke-width="0.475" stroke-linecap="round" stroke-linejoin="round"/>
<path d="M525.689 382.782V378.542V382.782" stroke="#646464" stroke-width="0.475" stroke-linecap="round" stroke-linejoin="round"/>
<path fill-rule="evenodd" clip-rule="evenodd" d="M512.816 354.826V358.638H512.019C511.198 358.638 510.442 358.933 509.854 359.425" fill="#1E1E1E"/>
<path d="M512.816 354.826V358.638H512.019C511.198 358.638 510.442 358.933 509.854 359.425" stroke="#646464" stroke-width="0.475" stroke-linecap="round" stroke-linejoin="round"/>
<path d="M512.815 319.776V353.469" stroke="#646464" stroke-width="0.475" stroke-linecap="round" stroke-linejoin="round"/>
<path d="M512.815 311.464V314.301" stroke="#646464" stroke-width="0.475" stroke-linecap="round" stroke-linejoin="round"/>
<path d="M512.815 292.903V294.968V305.629" stroke="#646464" stroke-width="0.475" stroke-linecap="round" stroke-linejoin="round"/>
<path d="M502.131 267.607H505.441H506.297" stroke="#646464" stroke-width="0.475" stroke-linecap="round" stroke-linejoin="round"/>
<path d="M515.448 267.646H518.758H517.877" stroke="#646464" stroke-width="0.475" stroke-linecap="round" stroke-linejoin="round"/>
<path d="M506.297 262.736H500.393" stroke="#646464" stroke-width="0.475" stroke-linecap="round" stroke-linejoin="round"/>
<path d="M520.18 262.736H516.5" stroke="#646464" stroke-width="0.475" stroke-linecap="round" stroke-linejoin="round"/>
<path d="M534.062 262.736H531.916" stroke="#646464" stroke-width="0.475" stroke-linecap="round" stroke-linejoin="round"/>
<path d="M530.218 267.607H534.062" stroke="#646464" stroke-width="0.475" stroke-linecap="round" stroke-linejoin="round"/>
<path d="M521.687 285.578V283.44" stroke="#646464" stroke-width="0.475" stroke-linecap="round" stroke-linejoin="round"/>
<path d="M521.687 292.946V288.048" stroke="#646464" stroke-width="0.475" stroke-linecap="round" stroke-linejoin="round"/>
<path d="M521.687 302.5V292.549" stroke="#646464" stroke-width="0.475" stroke-linecap="round" stroke-linejoin="round"/>
<path d="M521.687 348.323V320.742" stroke="#646464" stroke-width="0.475" stroke-linecap="round" stroke-linejoin="round"/>
<path fill-rule="evenodd" clip-rule="evenodd" d="M522.483 358.638H521.686V351.201" fill="#1E1E1E"/>
<path d="M522.483 358.638H521.686V351.201" stroke="#646464" stroke-width="0.475" stroke-linecap="round" stroke-linejoin="round"/>
<path fill-rule="evenodd" clip-rule="evenodd" d="M491.568 251.693V243.563C491.568 242.72 492.256 242.032 493.099 242.032H498.861C499.704 242.032 500.392 242.72 500.392 243.563V263.686" fill="#1E1E1E"/>
<path d="M491.568 251.693V243.563C491.568 242.72 492.256 242.032 493.099 242.032H498.861C499.704 242.032 500.392 242.72 500.392 243.563V263.686" stroke="#646464" stroke-width="0.475" stroke-linecap="round" stroke-linejoin="round"/>
<path d="M491.568 268.551V264.4V254.747" stroke="#646464" stroke-width="0.475" stroke-linecap="round" stroke-linejoin="round"/>
<path fill-rule="evenodd" clip-rule="evenodd" d="M500.393 268.946V272.455V288.048C500.393 288.048 500.455 289.897 498.543 289.897H493.009C493.009 289.897 491.569 289.961 491.569 288.458V274.796" fill="#1E1E1E"/>
<path d="M500.393 268.946V272.455V288.048C500.393 288.048 500.455 289.897 498.543 289.897H493.009C493.009 289.897 491.569 289.961 491.569 288.458V274.796" stroke="#646464" stroke-width="0.475" stroke-linecap="round" stroke-linejoin="round"/>
<path d="M515.122 244.607V250.336V255.851V260.858V268.551V272.511" stroke="#646464" stroke-width="0.475" stroke-linecap="round" stroke-linejoin="round"/>
<path fill-rule="evenodd" clip-rule="evenodd" d="M506.297 255.648V250.675V245.47V237.227C506.297 236.385 506.986 235.696 507.828 235.696H513.59C514.433 235.696 515.122 236.385 515.122 237.227V241.51" fill="#1E1E1E"/>
<path d="M506.297 255.648V250.675V245.47V237.227C506.297 236.385 506.986 235.696 507.828 235.696H513.59C514.433 235.696 515.122 236.385 515.122 237.227V241.51" stroke="#646464" stroke-width="0.475" stroke-linecap="round" stroke-linejoin="round"/>
<path fill-rule="evenodd" clip-rule="evenodd" d="M506.297 258.482V272.456V281.935C506.297 281.935 506.596 283.441 508.922 283.441" fill="#1E1E1E"/>
<path d="M506.297 258.482V272.456V281.935C506.297 281.935 506.596 283.441 508.922 283.441" stroke="#646464" stroke-width="0.475" stroke-linecap="round" stroke-linejoin="round"/>
<path fill-rule="evenodd" clip-rule="evenodd" d="M515.122 278.28V281.909C515.122 282.751 514.716 283.44 513.874 283.44" fill="#1E1E1E"/>
<path d="M515.122 278.28V281.909C515.122 282.751 514.716 283.44 513.874 283.44" stroke="#646464" stroke-width="0.475" stroke-linecap="round" stroke-linejoin="round"/>
<path d="M520.18 272.935V248.497" stroke="#646464" stroke-width="0.475" stroke-linecap="round" stroke-linejoin="round"/>
<path fill-rule="evenodd" clip-rule="evenodd" d="M529.004 272.511V281.909C529.004 282.751 528.316 283.441 527.473 283.441H521.711C520.868 283.441 520.18 282.751 520.18 281.909V275.311" fill="#1E1E1E"/>
<path d="M529.004 272.511V281.909C529.004 282.751 528.316 283.441 527.473 283.441H521.711C520.868 283.441 520.18 282.751 520.18 281.909V275.311" stroke="#646464" stroke-width="0.475" stroke-linecap="round" stroke-linejoin="round"/>
<path d="M529.004 264.4V268.947" stroke="#646464" stroke-width="0.475" stroke-linecap="round" stroke-linejoin="round"/>
<path d="M529.004 250.109V252.859V260.716" stroke="#646464" stroke-width="0.475" stroke-linecap="round" stroke-linejoin="round"/>
<path fill-rule="evenodd" clip-rule="evenodd" d="M520.18 246.969V237.227C520.18 236.385 520.868 235.696 521.711 235.696H527.473C528.316 235.696 529.004 236.385 529.004 237.227V244.169V248.496" fill="#1E1E1E"/>
<path d="M520.18 246.969V237.227C520.18 236.385 520.868 235.696 521.711 235.696H527.473C528.316 235.696 529.004 236.385 529.004 237.227V244.169V248.496" stroke="#646464" stroke-width="0.475" stroke-linecap="round" stroke-linejoin="round"/>
<path fill-rule="evenodd" clip-rule="evenodd" d="M534.062 243.563C534.062 242.72 534.751 242.032 535.593 242.032H541.356C542.198 242.032 542.887 242.72 542.887 243.563V245.671V247.021V255.648" fill="#1E1E1E"/>
<path d="M534.062 243.563C534.062 242.72 534.751 242.032 535.593 242.032H541.356C542.198 242.032 542.887 242.72 542.887 243.563V245.671V247.021V255.648" stroke="#646464" stroke-width="0.475" stroke-linecap="round" stroke-linejoin="round"/>
<path d="M534.062 274.796V246.851" stroke="#646464" stroke-width="0.475" stroke-linecap="round" stroke-linejoin="round"/>
<path fill-rule="evenodd" clip-rule="evenodd" d="M542.887 258.482V274.462V282.235V288.245C542.887 289.087 542.198 289.776 541.356 289.776H535.593C534.751 289.776 534.062 289.087 534.062 288.245V276.664" fill="#1E1E1E"/>
<path d="M542.887 258.482V274.462V282.235V288.245C542.887 289.087 542.198 289.776 541.356 289.776H535.593C534.751 289.776 534.062 289.087 534.062 288.245V276.664" stroke="#646464" stroke-width="0.475" stroke-linecap="round" stroke-linejoin="round"/>
<path d="M521.687 317.081V312.234" stroke="#646464" stroke-width="0.475" stroke-linecap="round" stroke-linejoin="round"/>
<path d="M567.5 411.5L493.627 411.433" stroke="#646464" stroke-width="0.475" stroke-linecap="round" stroke-linejoin="round"/>
<path d="M177.028 411.433L0.500027 411.5" stroke="#646464" stroke-width="0.475" stroke-linecap="round" stroke-linejoin="round"/>
<path d="M243.156 411.433H180.176" stroke="#646464" stroke-width="0.475" stroke-linecap="round" stroke-linejoin="round"/>
<path d="M327.57 411.433H257.584" stroke="#646464" stroke-width="0.475" stroke-linecap="round" stroke-linejoin="round"/>
<path d="M441.841 411.433H345.635" stroke="#646464" stroke-width="0.475" stroke-linecap="round" stroke-linejoin="round"/>
<path d="M476.68 380.316V374.605" stroke="#646464" stroke-width="0.475" stroke-linecap="round" stroke-linejoin="round"/>
<path fill-rule="evenodd" clip-rule="evenodd" d="M479.23 372.054C479.23 373.463 478.088 374.605 476.679 374.605C475.27 374.605 474.128 373.463 474.128 372.054C474.128 370.645 475.27 369.503 476.679 369.503C478.088 369.503 479.23 370.645 479.23 372.054Z" fill="#1E1E1E"/>
<path fill-rule="evenodd" clip-rule="evenodd" d="M479.23 372.054C479.23 373.463 478.088 374.605 476.679 374.605C475.27 374.605 474.128 373.463 474.128 372.054C474.128 370.645 475.27 369.503 476.679 369.503C478.088 369.503 479.23 370.645 479.23 372.054Z" stroke="#646464" stroke-width="0.475" stroke-linecap="round" stroke-linejoin="round"/>
<path fill-rule="evenodd" clip-rule="evenodd" d="M453.706 414.261C453.706 416.881 451.582 419.005 448.962 419.005C446.342 419.005 444.218 416.881 444.218 414.261C444.218 411.641 446.342 409.517 448.962 409.517C451.582 409.517 453.706 411.641 453.706 414.261Z" fill="#1E1E1E"/>
<path fill-rule="evenodd" clip-rule="evenodd" d="M453.706 414.261C453.706 416.881 451.582 419.005 448.962 419.005C446.342 419.005 444.218 416.881 444.218 414.261C444.218 411.641 446.342 409.517 448.962 409.517C451.582 409.517 453.706 411.641 453.706 414.261Z" stroke="#646464" stroke-width="0.475" stroke-linecap="round" stroke-linejoin="round"/>
<path fill-rule="evenodd" clip-rule="evenodd" d="M490.924 410.53C490.924 415.245 487.103 419.066 482.389 419.066C477.675 419.066 473.853 415.245 473.853 410.53C473.853 405.816 477.675 401.995 482.389 401.995C487.103 401.995 490.924 405.816 490.924 410.53Z" fill="#1E1E1E"/>
<path fill-rule="evenodd" clip-rule="evenodd" d="M490.924 410.53C490.924 415.245 487.103 419.066 482.389 419.066C477.675 419.066 473.853 415.245 473.853 410.53C473.853 405.816 477.675 401.995 482.389 401.995C487.103 401.995 490.924 405.816 490.924 410.53Z" stroke="#646464" stroke-width="0.475" stroke-linecap="round" stroke-linejoin="round"/>
<path fill-rule="evenodd" clip-rule="evenodd" d="M491.839 400.23C494.164 402.392 495.021 404.714 495.021 404.714L491.839 400.23Z" fill="#1E1E1E"/>
<path d="M491.839 400.23C494.164 402.392 495.021 404.714 495.021 404.714" stroke="#646464" stroke-width="0.475" stroke-linecap="round" stroke-linejoin="round"/>
<path fill-rule="evenodd" clip-rule="evenodd" d="M484.32 396.738C485.012 396.832 485.664 396.967 486.277 397.137C486.94 397.32 487.559 397.543 488.134 397.795C488.542 397.973 488.927 398.167 489.292 398.371C489.611 398.55 489.915 398.737 490.204 398.931" fill="#1E1E1E"/>
<path d="M484.32 396.738C485.012 396.832 485.664 396.967 486.277 397.137C486.94 397.32 487.559 397.543 488.134 397.795C488.542 397.973 488.927 398.167 489.292 398.371C489.611 398.55 489.915 398.737 490.204 398.931" stroke="#646464" stroke-width="0.475" stroke-linecap="round" stroke-linejoin="round"/>
<path fill-rule="evenodd" clip-rule="evenodd" d="M477.62 397.399C478.431 397.081 479.316 396.838 480.281 396.705C480.835 396.628 481.414 396.587 482.019 396.587" fill="#1E1E1E"/>
<path d="M477.62 397.399C478.431 397.081 479.316 396.838 480.281 396.705C480.835 396.628 481.414 396.587 482.019 396.587" stroke="#646464" stroke-width="0.475" stroke-linecap="round" stroke-linejoin="round"/>
<path fill-rule="evenodd" clip-rule="evenodd" d="M473.853 399.771C474.124 399.525 474.411 399.284 474.714 399.05L473.853 399.771Z" fill="#1E1E1E"/>
<path d="M473.853 399.771C474.124 399.525 474.411 399.284 474.714 399.05" stroke="#646464" stroke-width="0.475" stroke-linecap="round" stroke-linejoin="round"/>
<path fill-rule="evenodd" clip-rule="evenodd" d="M458.49 397.712C459.285 397.605 460.065 397.5 460.804 397.401C461.63 397.292 462.404 397.191 463.088 397.101C464.777 396.88 465.914 396.735 465.914 396.735C465.914 396.735 470.257 395.805 470.257 399.294V401.164V401.995V403.371V404.779C470.257 404.779 470.51 404.138 471.061 403.214C471.281 402.845 471.55 402.431 471.868 401.993" fill="#1E1E1E"/>
<path d="M458.49 397.712C459.285 397.605 460.065 397.5 460.804 397.401C461.63 397.292 462.404 397.191 463.088 397.101C464.777 396.88 465.914 396.735 465.914 396.735C465.914 396.735 470.257 395.805 470.257 399.294V401.164V401.995V403.371V404.779C470.257 404.779 470.51 404.138 471.061 403.214C471.281 402.845 471.55 402.431 471.868 401.993" stroke="#646464" stroke-width="0.475" stroke-linecap="round" stroke-linejoin="round"/>
<path fill-rule="evenodd" clip-rule="evenodd" d="M454.774 398.224C455.331 398.145 455.903 398.066 456.479 397.986L454.774 398.224Z" fill="#1E1E1E"/>
<path d="M454.774 398.224C455.331 398.145 455.903 398.066 456.479 397.986" stroke="#646464" stroke-width="0.475" stroke-linecap="round" stroke-linejoin="round"/>
<path fill-rule="evenodd" clip-rule="evenodd" d="M445.699 402.473C446.594 400.971 447.35 399.875 447.727 399.649C448.101 399.425 448.514 399.242 448.962 399.139C449.64 398.984 451.317 398.721 453.366 398.424" fill="#1E1E1E"/>
<path d="M445.699 402.473C446.594 400.971 447.35 399.875 447.727 399.649C448.101 399.425 448.514 399.242 448.962 399.139C449.64 398.984 451.317 398.721 453.366 398.424" stroke="#646464" stroke-width="0.475" stroke-linecap="round" stroke-linejoin="round"/>
<path fill-rule="evenodd" clip-rule="evenodd" d="M443.705 406.057C443.875 405.733 444.047 405.412 444.218 405.096C444.541 404.497 444.863 403.916 445.176 403.371" fill="#1E1E1E"/>
<path d="M443.705 406.057C443.875 405.733 444.047 405.412 444.218 405.096C444.541 404.497 444.863 403.916 445.176 403.371" stroke="#646464" stroke-width="0.475" stroke-linecap="round" stroke-linejoin="round"/>
<path fill-rule="evenodd" clip-rule="evenodd" d="M444.218 414.269H440.168V414.253C440.168 413.845 440.471 412.946 440.956 411.783C441.24 411.102 441.587 410.331 441.973 409.517" fill="#1E1E1E"/>
<path d="M444.218 414.269H440.168V414.253C440.168 413.845 440.471 412.946 440.956 411.783C441.24 411.102 441.587 410.331 441.973 409.517" stroke="#646464" stroke-width="0.475" stroke-linecap="round" stroke-linejoin="round"/>
<path d="M461.908 414.261H474.716" stroke="#646464" stroke-width="0.475" stroke-linecap="round" stroke-linejoin="round"/>
<path d="M456.149 414.261H459.912" stroke="#646464" stroke-width="0.475" stroke-linecap="round" stroke-linejoin="round"/>
<path fill-rule="evenodd" clip-rule="evenodd" d="M469.326 397.213L471.148 395.96L469.326 397.213Z" fill="#1E1E1E"/>
<path d="M469.326 397.213L471.148 395.96" stroke="#646464" stroke-width="0.475" stroke-linecap="round" stroke-linejoin="round"/>
<path fill-rule="evenodd" clip-rule="evenodd" d="M470.237 394.796L471.884 396.852L470.237 394.796Z" fill="#1E1E1E"/>
<path d="M470.237 394.796L471.884 396.852" stroke="#646464" stroke-width="0.475" stroke-linecap="round" stroke-linejoin="round"/>
<path fill-rule="evenodd" clip-rule="evenodd" d="M464.697 393.002L464.336 394.103L464.18 394.574" fill="#1E1E1E"/>
<path d="M464.697 393.002L464.336 394.103L464.18 394.574" stroke="#646464" stroke-width="0.475" stroke-linecap="round" stroke-linejoin="round"/>
<path fill-rule="evenodd" clip-rule="evenodd" d="M466.203 388.424L465.611 390.224L465.175 391.552" fill="#1E1E1E"/>
<path d="M466.203 388.424L465.611 390.224L465.175 391.552" stroke="#646464" stroke-width="0.475" stroke-linecap="round" stroke-linejoin="round"/>
<path fill-rule="evenodd" clip-rule="evenodd" d="M487.121 397.402L484.959 381.489C484.875 380.875 484.35 380.417 483.731 380.417H467.516C466.98 380.417 466.506 380.76 466.339 381.268L466.301 381.385C466.109 381.967 466.372 382.602 466.919 382.878C467.466 383.154 467.728 383.789 467.537 384.371L466.882 386.364" fill="#1E1E1E"/>
<path d="M487.121 397.402L484.959 381.489C484.875 380.875 484.35 380.417 483.731 380.417H467.516C466.98 380.417 466.506 380.76 466.339 381.268L466.301 381.385C466.109 381.967 466.372 382.602 466.919 382.878C467.466 383.154 467.728 383.789 467.537 384.371L466.882 386.364" stroke="#646464" stroke-width="0.475" stroke-linecap="round" stroke-linejoin="round"/>
<path fill-rule="evenodd" clip-rule="evenodd" d="M455.468 305.759H466.209C468.223 305.759 469.87 307.406 469.87 309.419V322.977" fill="#1E1E1E"/>
<path d="M455.468 305.759H466.209C468.223 305.759 469.87 307.406 469.87 309.419V322.977" stroke="#646464" stroke-width="0.475" stroke-linecap="round" stroke-linejoin="round"/>
<path d="M448.436 323.236V310.925" stroke="#646464" stroke-width="0.475" stroke-linecap="round" stroke-linejoin="round"/>
<path fill-rule="evenodd" clip-rule="evenodd" d="M456.46 319.952H462.014C462.821 319.952 463.481 319.291 463.481 318.483V312.931C463.481 312.123 462.821 311.462 462.014 311.462H456.46C455.652 311.462 454.992 312.123 454.992 312.931V318.483C454.992 319.291 455.652 319.952 456.46 319.952Z" fill="#1E1E1E"/>
<path fill-rule="evenodd" clip-rule="evenodd" d="M456.46 319.952H462.014C462.821 319.952 463.481 319.291 463.481 318.483V312.931C463.481 312.123 462.821 311.462 462.014 311.462H456.46C455.652 311.462 454.992 312.123 454.992 312.931V318.483C454.992 319.291 455.652 319.952 456.46 319.952Z" stroke="#646464" stroke-width="0.475" stroke-linecap="round" stroke-linejoin="round"/>
<path d="M401.521 324.272V330.384" stroke="#646464" stroke-width="0.475" stroke-linecap="round" stroke-linejoin="round"/>
<path fill-rule="evenodd" clip-rule="evenodd" d="M420.105 314.097H412.816H409.521H406.623C403.817 314.097 401.521 316.393 401.521 319.199V322.382" fill="#1E1E1E"/>
<path d="M420.105 314.097H412.816H409.521H406.623C403.817 314.097 401.521 316.393 401.521 319.199V322.382" stroke="#646464" stroke-width="0.475" stroke-linecap="round" stroke-linejoin="round"/>
<path fill-rule="evenodd" clip-rule="evenodd" d="M437.023 329.793V319.198C437.023 316.393 434.727 314.097 431.92 314.097H425.703H422.781" fill="#1E1E1E"/>
<path d="M437.023 329.793V319.198C437.023 316.393 434.727 314.097 431.92 314.097H425.703H422.781" stroke="#646464" stroke-width="0.475" stroke-linecap="round" stroke-linejoin="round"/>
<path d="M437.028 335.274V331.099" stroke="#646464" stroke-width="0.475" stroke-linecap="round" stroke-linejoin="round"/>
<path d="M437.028 355.551V336.496" stroke="#646464" stroke-width="0.475" stroke-linecap="round" stroke-linejoin="round"/>
<path fill-rule="evenodd" clip-rule="evenodd" d="M416.543 333.162H410.99C410.183 333.162 409.522 332.502 409.522 331.694V326.141C409.522 325.333 410.183 324.673 410.99 324.673H416.543C417.351 324.673 418.012 325.333 418.012 326.141V331.694C418.012 332.502 417.351 333.162 416.543 333.162Z" fill="#1E1E1E"/>
<path fill-rule="evenodd" clip-rule="evenodd" d="M416.543 333.162H410.99C410.183 333.162 409.522 332.502 409.522 331.694V326.141C409.522 325.333 410.183 324.673 410.99 324.673H416.543C417.351 324.673 418.012 325.333 418.012 326.141V331.694C418.012 332.502 417.351 333.162 416.543 333.162Z" stroke="#646464" stroke-width="0.475" stroke-linecap="round" stroke-linejoin="round"/>
<path fill-rule="evenodd" clip-rule="evenodd" d="M416.543 344.986H410.99C410.183 344.986 409.522 344.325 409.522 343.517V337.965C409.522 337.157 410.183 336.496 410.99 336.496H416.543C417.351 336.496 418.012 337.157 418.012 337.965V343.517C418.012 344.325 417.351 344.986 416.543 344.986Z" fill="#1E1E1E"/>
<path fill-rule="evenodd" clip-rule="evenodd" d="M416.543 344.986H410.99C410.183 344.986 409.522 344.325 409.522 343.517V337.965C409.522 337.157 410.183 336.496 410.99 336.496H416.543C417.351 336.496 418.012 337.157 418.012 337.965V343.517C418.012 344.325 417.351 344.986 416.543 344.986Z" stroke="#646464" stroke-width="0.475" stroke-linecap="round" stroke-linejoin="round"/>
<path fill-rule="evenodd" clip-rule="evenodd" d="M429.059 333.162H423.506C422.699 333.162 422.038 332.502 422.038 331.694V326.141C422.038 325.333 422.699 324.673 423.506 324.673H429.059C429.867 324.673 430.528 325.333 430.528 326.141V331.694C430.528 332.502 429.867 333.162 429.059 333.162Z" fill="#1E1E1E"/>
<path fill-rule="evenodd" clip-rule="evenodd" d="M429.059 333.162H423.506C422.699 333.162 422.038 332.502 422.038 331.694V326.141C422.038 325.333 422.699 324.673 423.506 324.673H429.059C429.867 324.673 430.528 325.333 430.528 326.141V331.694C430.528 332.502 429.867 333.162 429.059 333.162Z" stroke="#646464" stroke-width="0.475" stroke-linecap="round" stroke-linejoin="round"/>
<path fill-rule="evenodd" clip-rule="evenodd" d="M434.478 358.832C434.478 360.241 435.621 361.383 437.029 361.383C438.438 361.383 439.581 360.241 439.581 358.832C439.581 357.423 438.438 356.281 437.029 356.281C435.621 356.281 434.478 357.423 434.478 358.832Z" fill="#1E1E1E"/>
<path fill-rule="evenodd" clip-rule="evenodd" d="M434.478 358.832C434.478 360.241 435.621 361.383 437.029 361.383C438.438 361.383 439.581 360.241 439.581 358.832C439.581 357.423 438.438 356.281 437.029 356.281C435.621 356.281 434.478 357.423 434.478 358.832Z" stroke="#646464" stroke-width="0.475" stroke-linecap="round" stroke-linejoin="round"/>
<path d="M444.574 350.528V345.19" stroke="#646464" stroke-width="0.475" stroke-linecap="round" stroke-linejoin="round"/>
<path fill-rule="evenodd" clip-rule="evenodd" d="M437.999 367.002C445.532 367.002 444.574 360.545 444.574 360.545V353.011" fill="#1E1E1E"/>
<path d="M437.999 367.002C445.532 367.002 444.574 360.545 444.574 360.545V353.011" stroke="#646464" stroke-width="0.475" stroke-linecap="round" stroke-linejoin="round"/>
<path d="M484.085 355.937V388.91" stroke="#646464" stroke-width="0.475" stroke-linecap="round" stroke-linejoin="round"/>
<path fill-rule="evenodd" clip-rule="evenodd" d="M444.574 340.859V330.264C444.574 327.459 446.87 325.163 449.677 325.163H478.982C481.789 325.163 484.085 327.459 484.085 330.264V352.182" fill="#1E1E1E"/>
<path d="M444.574 340.859V330.264C444.574 327.459 446.87 325.163 449.677 325.163H478.982C481.789 325.163 484.085 327.459 484.085 330.264V352.182" stroke="#646464" stroke-width="0.475" stroke-linecap="round" stroke-linejoin="round"/>
<path fill-rule="evenodd" clip-rule="evenodd" d="M469.063 344.228H474.616C475.423 344.228 476.084 343.568 476.084 342.76V337.207C476.084 336.399 475.423 335.739 474.616 335.739H469.063C468.254 335.739 467.594 336.399 467.594 337.207V342.76C467.594 343.568 468.254 344.228 469.063 344.228Z" fill="#1E1E1E"/>
<path fill-rule="evenodd" clip-rule="evenodd" d="M469.063 344.228H474.616C475.423 344.228 476.084 343.568 476.084 342.76V337.207C476.084 336.399 475.423 335.739 474.616 335.739H469.063C468.254 335.739 467.594 336.399 467.594 337.207V342.76C467.594 343.568 468.254 344.228 469.063 344.228Z" stroke="#646464" stroke-width="0.475" stroke-linecap="round" stroke-linejoin="round"/>
<path fill-rule="evenodd" clip-rule="evenodd" d="M469.063 358.754H474.616C475.423 358.754 476.084 358.093 476.084 357.285V351.733C476.084 350.925 475.423 350.264 474.616 350.264H469.063C468.254 350.264 467.594 350.925 467.594 351.733V357.285C467.594 358.093 468.254 358.754 469.063 358.754Z" fill="#1E1E1E"/>
<path fill-rule="evenodd" clip-rule="evenodd" d="M469.063 358.754H474.616C475.423 358.754 476.084 358.093 476.084 357.285V351.733C476.084 350.925 475.423 350.264 474.616 350.264H469.063C468.254 350.264 467.594 350.925 467.594 351.733V357.285C467.594 358.093 468.254 358.754 469.063 358.754Z" stroke="#646464" stroke-width="0.475" stroke-linecap="round" stroke-linejoin="round"/>
<path fill-rule="evenodd" clip-rule="evenodd" d="M452.538 344.228H458.091C458.898 344.228 459.559 343.568 459.559 342.76V337.207C459.559 336.399 458.898 335.739 458.091 335.739H452.538C451.73 335.739 451.069 336.399 451.069 337.207V342.76C451.069 343.568 451.73 344.228 452.538 344.228Z" fill="#1E1E1E"/>
<path fill-rule="evenodd" clip-rule="evenodd" d="M452.538 344.228H458.091C458.898 344.228 459.559 343.568 459.559 342.76V337.207C459.559 336.399 458.898 335.739 458.091 335.739H452.538C451.73 335.739 451.069 336.399 451.069 337.207V342.76C451.069 343.568 451.73 344.228 452.538 344.228Z" stroke="#646464" stroke-width="0.475" stroke-linecap="round" stroke-linejoin="round"/>
<path fill-rule="evenodd" clip-rule="evenodd" d="M448.789 406.37V380.226C448.789 377.678 447.468 375.311 445.299 373.973L419.043 357.773C416.687 356.32 413.716 356.313 411.353 357.757L383.875 374.545C381.69 375.88 380.357 378.256 380.357 380.815V406.37" fill="#1E1E1E"/>
<path d="M448.789 406.37V380.226C448.789 377.678 447.468 375.311 445.299 373.973L419.043 357.773C416.687 356.32 413.716 356.313 411.353 357.757L383.875 374.545C381.69 375.88 380.357 378.256 380.357 380.815V406.37" stroke="#646464" stroke-width="0.475" stroke-linecap="round" stroke-linejoin="round"/>
<path fill-rule="evenodd" clip-rule="evenodd" d="M436.866 406.37V381.43C436.866 380.48 436.09 379.704 435.14 379.704H395.266C394.317 379.704 393.542 380.48 393.542 381.43V406.37" fill="#1E1E1E"/>
<path d="M436.866 406.37V381.43C436.866 380.48 436.09 379.704 435.14 379.704H395.266C394.317 379.704 393.542 380.48 393.542 381.43V406.37" stroke="#646464" stroke-width="0.475" stroke-linecap="round" stroke-linejoin="round"/>
<path fill-rule="evenodd" clip-rule="evenodd" d="M406.435 303.611V300.403C406.435 297.597 404.139 295.301 401.332 295.301H386.292C383.486 295.301 381.19 297.597 381.19 301.623V306.659V309.328V310.936" fill="#1E1E1E"/>
<path d="M406.435 303.611V300.403C406.435 297.597 404.139 295.301 401.332 295.301H386.292C383.486 295.301 381.19 297.597 381.19 301.623V306.659V309.328V310.936" stroke="#646464" stroke-width="0.475" stroke-linecap="round" stroke-linejoin="round"/>
<path d="M406.435 310.713V307.944" stroke="#646464" stroke-width="0.475" stroke-linecap="round" stroke-linejoin="round"/>
<path fill-rule="evenodd" clip-rule="evenodd" d="M391.035 310.038H396.589C397.396 310.038 398.057 309.377 398.057 308.569V303.017C398.057 302.209 397.396 301.548 396.589 301.548H391.035C390.227 301.548 389.567 302.209 389.567 303.017V308.569C389.567 309.377 390.227 310.038 391.035 310.038Z" fill="#1E1E1E"/>
<path fill-rule="evenodd" clip-rule="evenodd" d="M391.035 310.038H396.589C397.396 310.038 398.057 309.377 398.057 308.569V303.017C398.057 302.209 397.396 301.548 396.589 301.548H391.035C390.227 301.548 389.567 302.209 389.567 303.017V308.569C389.567 309.377 390.227 310.038 391.035 310.038Z" stroke="#646464" stroke-width="0.475" stroke-linecap="round" stroke-linejoin="round"/>
<path fill-rule="evenodd" clip-rule="evenodd" d="M370.165 352.059V341.509C370.165 339.496 371.812 337.849 373.826 337.849H402.104C404.118 337.849 405.766 339.496 405.766 341.509V355.952" fill="#1E1E1E"/>
<path d="M370.165 352.059V341.509C370.165 339.496 371.812 337.849 373.826 337.849H402.104C404.118 337.849 405.766 339.496 405.766 341.509V355.952" stroke="#646464" stroke-width="0.475" stroke-linecap="round" stroke-linejoin="round"/>
<path fill-rule="evenodd" clip-rule="evenodd" d="M392.06 352.115H397.614C398.421 352.115 399.081 351.455 399.081 350.647V345.094C399.081 344.286 398.421 343.626 397.614 343.626H392.06C391.252 343.626 390.592 344.286 390.592 345.094V350.647C390.592 351.455 391.252 352.115 392.06 352.115Z" fill="#1E1E1E"/>
<path fill-rule="evenodd" clip-rule="evenodd" d="M392.06 352.115H397.614C398.421 352.115 399.081 351.455 399.081 350.647V345.094C399.081 344.286 398.421 343.626 397.614 343.626H392.06C391.252 343.626 390.592 344.286 390.592 345.094V350.647C390.592 351.455 391.252 352.115 392.06 352.115Z" stroke="#646464" stroke-width="0.475" stroke-linecap="round" stroke-linejoin="round"/>
<path d="M415.204 356.286V352.702" stroke="#646464" stroke-width="0.475" stroke-linecap="round" stroke-linejoin="round"/>
<path fill-rule="evenodd" clip-rule="evenodd" d="M412.652 350.629C412.652 352.038 413.795 353.18 415.204 353.18C416.612 353.18 417.755 352.038 417.755 350.629C417.755 349.22 416.612 348.078 415.204 348.078C413.795 348.078 412.652 349.22 412.652 350.629Z" fill="#1E1E1E"/>
<path fill-rule="evenodd" clip-rule="evenodd" d="M412.652 350.629C412.652 352.038 413.795 353.18 415.204 353.18C416.612 353.18 417.755 352.038 417.755 350.629C417.755 349.22 416.612 348.078 415.204 348.078C413.795 348.078 412.652 349.22 412.652 350.629Z" stroke="#646464" stroke-width="0.475" stroke-linecap="round" stroke-linejoin="round"/>
<path d="M436.866 383.94H393.542" stroke="#646464" stroke-width="0.475" stroke-linecap="round" stroke-linejoin="round"/>
<path d="M436.866 388.652H393.542" stroke="#646464" stroke-width="0.475" stroke-linecap="round" stroke-linejoin="round"/>
<path d="M436.866 393.365H393.542" stroke="#646464" stroke-width="0.475" stroke-linecap="round" stroke-linejoin="round"/>
<path d="M436.866 398.078H393.542" stroke="#646464" stroke-width="0.475" stroke-linecap="round" stroke-linejoin="round"/>
<path d="M436.866 402.791H393.542" stroke="#646464" stroke-width="0.475" stroke-linecap="round" stroke-linejoin="round"/>
<path fill-rule="evenodd" clip-rule="evenodd" d="M36.2295 321.42H44.3125L46.7255 363.84H33.8165L36.2295 321.42Z" fill="#1E1E1E"/>
<path fill-rule="evenodd" clip-rule="evenodd" d="M36.2295 321.42H44.3125L46.7255 363.84H33.8165L36.2295 321.42Z" stroke="#646464" stroke-width="0.475" stroke-linecap="round" stroke-linejoin="round"/>
<path fill-rule="evenodd" clip-rule="evenodd" d="M50.3955 329.855H56.8715L58.8045 363.84H48.4615L50.3955 329.855Z" fill="#1E1E1E"/>
<path fill-rule="evenodd" clip-rule="evenodd" d="M50.3955 329.855H56.8715L58.8045 363.84H48.4615L50.3955 329.855Z" stroke="#646464" stroke-width="0.475" stroke-linecap="round" stroke-linejoin="round"/>
<path fill-rule="evenodd" clip-rule="evenodd" d="M27.0791 406.41L26.9691 356.031C26.9491 354.555 28.5491 353.621 29.8241 354.365L43.8191 362.529C45.0851 363.268 46.6751 362.354 46.6751 360.89V355.852C46.6751 354.415 48.2091 353.499 49.4751 354.18L65.2791 362.688C66.5441 363.37 68.0781 362.453 68.0781 361.016V355.958C68.0781 354.497 69.6591 353.583 70.9251 354.312L85.1941 362.53C86.4701 363.265 88.0601 362.331 88.0411 360.859L87.9771 356.184C87.9571 354.676 89.6211 353.747 90.8941 354.556L105.185 363.636C105.734 363.984 106.066 364.589 106.066 365.239V406.41" fill="#1E1E1E"/>
<path d="M27.0791 406.41L26.9691 356.031C26.9491 354.555 28.5491 353.621 29.8241 354.365L43.8191 362.529C45.0851 363.268 46.6751 362.354 46.6751 360.89V355.852C46.6751 354.415 48.2091 353.499 49.4751 354.18L65.2791 362.688C66.5441 363.37 68.0781 362.453 68.0781 361.016V355.958C68.0781 354.497 69.6591 353.583 70.9251 354.312L85.1941 362.53C86.4701 363.265 88.0601 362.331 88.0411 360.859L87.9771 356.184C87.9571 354.676 89.6211 353.747 90.8941 354.556L105.185 363.636C105.734 363.984 106.066 364.589 106.066 365.239V406.41" stroke="#646464" stroke-width="0.475" stroke-linecap="round" stroke-linejoin="round"/>
<path d="M106.067 402.109H27.0725" stroke="#646464" stroke-width="0.475" stroke-linecap="round" stroke-linejoin="round"/>
<path d="M53.6329 329.228V323.517" stroke="#646464" stroke-width="0.475" stroke-linecap="round" stroke-linejoin="round"/>
<path fill-rule="evenodd" clip-rule="evenodd" d="M51.0822 321.444C51.0822 322.852 52.2252 323.995 53.6332 323.995C55.0422 323.995 56.1852 322.852 56.1852 321.444C56.1852 320.035 55.0422 318.892 53.6332 318.892C52.2252 318.892 51.0822 320.035 51.0822 321.444Z" fill="#1E1E1E"/>
<path fill-rule="evenodd" clip-rule="evenodd" d="M51.0822 321.444C51.0822 322.852 52.2252 323.995 53.6332 323.995C55.0422 323.995 56.1852 322.852 56.1852 321.444C56.1852 320.035 55.0422 318.892 53.6332 318.892C52.2252 318.892 51.0822 320.035 51.0822 321.444Z" stroke="#646464" stroke-width="0.475" stroke-linecap="round" stroke-linejoin="round"/>
<path fill-rule="evenodd" clip-rule="evenodd" d="M97.6241 406.846V385.01C97.6241 384.061 96.8481 383.284 95.8981 383.284H64.8481C63.8981 383.284 63.1221 384.061 63.1221 385.01V406.846" fill="#1E1E1E"/>
<path d="M97.6241 406.846V385.01C97.6241 384.061 96.8481 383.284 95.8981 383.284H64.8481C63.8981 383.284 63.1221 384.061 63.1221 385.01V406.846" stroke="#646464" stroke-width="0.475" stroke-linecap="round" stroke-linejoin="round"/>
<path fill-rule="evenodd" clip-rule="evenodd" d="M48.3282 387.529H53.8822C54.6892 387.529 55.3492 386.868 55.3492 386.06V380.508C55.3492 379.7 54.6892 379.039 53.8822 379.039H48.3282C47.5202 379.039 46.8602 379.7 46.8602 380.508V386.06C46.8602 386.868 47.5202 387.529 48.3282 387.529Z" fill="#1E1E1E"/>
<path fill-rule="evenodd" clip-rule="evenodd" d="M48.3282 387.529H53.8822C54.6892 387.529 55.3492 386.868 55.3492 386.06V380.508C55.3492 379.7 54.6892 379.039 53.8822 379.039H48.3282C47.5202 379.039 46.8602 379.7 46.8602 380.508V386.06C46.8602 386.868 47.5202 387.529 48.3282 387.529Z" stroke="#646464" stroke-width="0.475" stroke-linecap="round" stroke-linejoin="round"/>
<path fill-rule="evenodd" clip-rule="evenodd" d="M35.2773 387.529H40.8303C41.6373 387.529 42.2983 386.868 42.2983 386.06V380.508C42.2983 379.7 41.6373 379.039 40.8303 379.039H35.2773C34.4693 379.039 33.8083 379.7 33.8083 380.508V386.06C33.8083 386.868 34.4693 387.529 35.2773 387.529Z" fill="#1E1E1E"/>
<path fill-rule="evenodd" clip-rule="evenodd" d="M35.2773 387.529H40.8303C41.6373 387.529 42.2983 386.868 42.2983 386.06V380.508C42.2983 379.7 41.6373 379.039 40.8303 379.039H35.2773C34.4693 379.039 33.8083 379.7 33.8083 380.508V386.06C33.8083 386.868 34.4693 387.529 35.2773 387.529Z" stroke="#646464" stroke-width="0.475" stroke-linecap="round" stroke-linejoin="round"/>
<path fill-rule="evenodd" clip-rule="evenodd" d="M251.745 279.706C251.745 281.114 250.603 282.257 249.194 282.257C247.785 282.257 246.643 281.114 246.643 279.706C246.643 278.297 247.785 277.154 249.194 277.154C250.603 277.154 251.745 278.297 251.745 279.706Z" fill="#1E1E1E"/>
<path fill-rule="evenodd" clip-rule="evenodd" d="M251.745 279.706C251.745 281.114 250.603 282.257 249.194 282.257C247.785 282.257 246.643 281.114 246.643 279.706C246.643 278.297 247.785 277.154 249.194 277.154C250.603 277.154 251.745 278.297 251.745 279.706Z" stroke="#646464" stroke-width="0.475" stroke-linecap="round" stroke-linejoin="round"/>
<path fill-rule="evenodd" clip-rule="evenodd" d="M178.028 335.311C178.028 336.72 176.885 337.862 175.476 337.862C174.068 337.862 172.925 336.72 172.925 335.311C172.925 333.902 174.068 332.76 175.476 332.76C176.885 332.76 178.028 333.902 178.028 335.311Z" fill="#1E1E1E"/>
<path fill-rule="evenodd" clip-rule="evenodd" d="M178.028 335.311C178.028 336.72 176.885 337.862 175.476 337.862C174.068 337.862 172.925 336.72 172.925 335.311C172.925 333.902 174.068 332.76 175.476 332.76C176.885 332.76 178.028 333.902 178.028 335.311Z" stroke="#646464" stroke-width="0.475" stroke-linecap="round" stroke-linejoin="round"/>
<path fill-rule="evenodd" clip-rule="evenodd" d="M229.447 268.778C230.969 270.287 232.249 272.04 233.222 273.973C234.115 275.748 234.75 277.675 235.077 279.706H245.564" fill="#1E1E1E"/>
<path d="M229.447 268.778C230.969 270.287 232.249 272.04 233.222 273.973C234.115 275.748 234.75 277.675 235.077 279.706H245.564" stroke="#646464" stroke-width="0.475" stroke-linecap="round" stroke-linejoin="round"/>
<path fill-rule="evenodd" clip-rule="evenodd" d="M194.293 244.855C197.781 244.855 201.022 245.915 203.711 247.729C205.733 249.093 207.443 250.884 208.712 252.972C209.697 254.594 210.417 256.396 210.811 258.317C211.035 259.415 211.152 260.55 211.152 261.714C211.152 262.327 211.118 262.93 211.055 263.525C212.475 263.203 213.95 263.027 215.468 263.027C219.944 263.027 224.075 264.507 227.397 267.005" fill="#1E1E1E"/>
<path d="M194.293 244.855C197.781 244.855 201.022 245.915 203.711 247.729C205.733 249.093 207.443 250.884 208.712 252.972C209.697 254.594 210.417 256.396 210.811 258.317C211.035 259.415 211.152 260.55 211.152 261.714C211.152 262.327 211.118 262.93 211.055 263.525C212.475 263.203 213.95 263.027 215.468 263.027C219.944 263.027 224.075 264.507 227.397 267.005" stroke="#646464" stroke-width="0.475" stroke-linecap="round" stroke-linejoin="round"/>
<path fill-rule="evenodd" clip-rule="evenodd" d="M125.636 275.152C126.771 273.852 128.102 272.728 129.582 271.827C131.347 270.752 133.325 269.992 135.438 269.626C136.38 269.462 137.35 269.377 138.34 269.377C139.137 269.377 139.921 269.432 140.688 269.54C142.093 269.737 143.443 270.107 144.715 270.628C144.987 267.94 145.805 265.414 147.058 263.163C148.162 261.177 149.605 259.405 151.308 257.924C152.896 256.543 154.711 255.415 156.689 254.604C157.865 254.122 159.098 253.752 160.376 253.506C161.57 253.277 162.802 253.157 164.063 253.157C166.136 253.157 168.132 253.482 170.005 254.083C171.475 254.554 172.868 255.196 174.162 255.985C175.447 256.768 176.634 257.696 177.7 258.745C178.174 256.08 179.274 253.631 180.842 251.556C182.426 249.461 184.488 247.747 186.866 246.577" fill="#1E1E1E"/>
<path d="M125.636 275.152C126.771 273.852 128.102 272.728 129.582 271.827C131.347 270.752 133.325 269.992 135.438 269.626C136.38 269.462 137.35 269.377 138.34 269.377C139.137 269.377 139.921 269.432 140.688 269.54C142.093 269.737 143.443 270.107 144.715 270.628C144.987 267.94 145.805 265.414 147.058 263.163C148.162 261.177 149.605 259.405 151.308 257.924C152.896 256.543 154.711 255.415 156.689 254.604C157.865 254.122 159.098 253.752 160.376 253.506C161.57 253.277 162.802 253.157 164.063 253.157C166.136 253.157 168.132 253.482 170.005 254.083C171.475 254.554 172.868 255.196 174.162 255.985C175.447 256.768 176.634 257.696 177.7 258.745C178.174 256.08 179.274 253.631 180.842 251.556C182.426 249.461 184.488 247.747 186.866 246.577" stroke="#646464" stroke-width="0.475" stroke-linecap="round" stroke-linejoin="round"/>
<path fill-rule="evenodd" clip-rule="evenodd" d="M121.48 286.236C121.48 284.152 121.859 282.157 122.549 280.314L121.48 286.236Z" fill="#1E1E1E"/>
<path d="M121.48 286.236C121.48 284.152 121.859 282.157 122.549 280.314" stroke="#646464" stroke-width="0.475" stroke-linecap="round" stroke-linejoin="round"/>
<path fill-rule="evenodd" clip-rule="evenodd" d="M125.004 296.552C123.558 294.685 122.494 292.506 121.933 290.133L125.004 296.552Z" fill="#1E1E1E"/>
<path d="M125.004 296.552C123.558 294.685 122.494 292.506 121.933 290.133" stroke="#646464" stroke-width="0.475" stroke-linecap="round" stroke-linejoin="round"/>
<path fill-rule="evenodd" clip-rule="evenodd" d="M138.34 303.095C136.305 303.095 134.355 302.735 132.549 302.074C130.743 301.414 129.082 300.453 127.626 299.253" fill="#1E1E1E"/>
<path d="M138.34 303.095C136.305 303.095 134.355 302.735 132.549 302.074C130.743 301.414 129.082 300.453 127.626 299.253" stroke="#646464" stroke-width="0.475" stroke-linecap="round" stroke-linejoin="round"/>
<path fill-rule="evenodd" clip-rule="evenodd" d="M141.47 303.088C144.018 303.079 147.626 303.064 151.9 303.043C156.452 303.022 167.351 302.994 172.937 302.966C172.937 302.966 175.477 302.95 175.477 306.653V332.444" fill="#1E1E1E"/>
<path d="M141.47 303.088C144.018 303.079 147.626 303.064 151.9 303.043C156.452 303.022 167.351 302.994 172.937 302.966C172.937 302.966 175.477 302.95 175.477 306.653V332.444" stroke="#646464" stroke-width="0.475" stroke-linecap="round" stroke-linejoin="round"/>
<path fill-rule="evenodd" clip-rule="evenodd" d="M209.461 302.766C205.346 302.781 199.892 302.805 193.82 302.834C187.592 302.864 187.845 302.899 181.096 302.933" fill="#1E1E1E"/>
<path d="M209.461 302.766C205.346 302.781 199.892 302.805 193.82 302.834C187.592 302.864 187.845 302.899 181.096 302.933" stroke="#646464" stroke-width="0.475" stroke-linecap="round" stroke-linejoin="round"/>
<path fill-rule="evenodd" clip-rule="evenodd" d="M215.468 302.752C218.69 302.752 221.732 301.984 224.422 300.624L215.468 302.752Z" fill="#1E1E1E"/>
<path d="M215.468 302.752C218.69 302.752 221.732 301.984 224.422 300.624" stroke="#646464" stroke-width="0.475" stroke-linecap="round" stroke-linejoin="round"/>
<path fill-rule="evenodd" clip-rule="evenodd" d="M235.331 282.889C235.331 286.763 234.222 290.378 232.304 293.435L235.331 282.889Z" fill="#1E1E1E"/>
<path d="M235.331 282.889C235.331 286.763 234.222 290.378 232.304 293.435" stroke="#646464" stroke-width="0.475" stroke-linecap="round" stroke-linejoin="round"/>
<path fill-rule="evenodd" clip-rule="evenodd" d="M118.852 359.789C117.737 360.904 117.045 362.442 117.045 364.134L118.852 359.789Z" fill="#1E1E1E"/>
<path d="M118.852 359.789C117.737 360.904 117.045 362.442 117.045 364.134" stroke="#646464" stroke-width="0.475" stroke-linecap="round" stroke-linejoin="round"/>
<path d="M131.022 357.983H123.197" stroke="#646464" stroke-width="0.475" stroke-linecap="round" stroke-linejoin="round"/>
<path d="M151.55 357.983H136.812" stroke="#646464" stroke-width="0.475" stroke-linecap="round" stroke-linejoin="round"/>
<path fill-rule="evenodd" clip-rule="evenodd" d="M117.045 366.643C117.045 370.026 119.813 372.794 123.196 372.794L117.045 366.643Z" fill="#1E1E1E"/>
<path d="M117.045 366.643C117.045 370.026 119.813 372.794 123.196 372.794" stroke="#646464" stroke-width="0.475" stroke-linecap="round" stroke-linejoin="round"/>
<path fill-rule="evenodd" clip-rule="evenodd" d="M123.196 387.605C119.812 387.605 117.045 390.374 117.045 393.756L123.196 387.605Z" fill="#1E1E1E"/>
<path d="M123.196 387.605C119.812 387.605 117.045 390.374 117.045 393.756" stroke="#646464" stroke-width="0.475" stroke-linecap="round" stroke-linejoin="round"/>
<path d="M139.286 402.416H148.796H151.55" stroke="#646464" stroke-width="0.475" stroke-linecap="round" stroke-linejoin="round"/>
<path d="M131.512 402.416H136.812" stroke="#646464" stroke-width="0.475" stroke-linecap="round" stroke-linejoin="round"/>
<path fill-rule="evenodd" clip-rule="evenodd" d="M117.045 396.265C117.045 399.649 119.813 402.416 123.196 402.416H125.366" fill="#1E1E1E"/>
<path d="M117.045 396.265C117.045 399.649 119.813 402.416 123.196 402.416H125.366" stroke="#646464" stroke-width="0.475" stroke-linecap="round" stroke-linejoin="round"/>
<path fill-rule="evenodd" clip-rule="evenodd" d="M129.5 372.794H123.196C119.812 372.794 117.045 375.562 117.045 378.944" fill="#1E1E1E"/>
<path d="M129.5 372.794H123.196C119.812 372.794 117.045 375.562 117.045 378.944" stroke="#646464" stroke-width="0.475" stroke-linecap="round" stroke-linejoin="round"/>
<path fill-rule="evenodd" clip-rule="evenodd" d="M147.247 372.845L139.286 372.794L147.247 372.845Z" fill="#1E1E1E"/>
<path d="M147.247 372.845L139.286 372.794" stroke="#646464" stroke-width="0.475" stroke-linecap="round" stroke-linejoin="round"/>
<path d="M145.087 387.605H151.55" stroke="#646464" stroke-width="0.475" stroke-linecap="round" stroke-linejoin="round"/>
<path fill-rule="evenodd" clip-rule="evenodd" d="M117.045 381.454C117.045 384.837 119.813 387.604 123.196 387.604H140.528" fill="#1E1E1E"/>
<path d="M117.045 381.454C117.045 384.837 119.813 387.604 123.196 387.604H140.528" stroke="#646464" stroke-width="0.475" stroke-linecap="round" stroke-linejoin="round"/>
<path fill-rule="evenodd" clip-rule="evenodd" d="M129.5 372.794C129.5 374.202 130.643 375.345 132.051 375.345C133.46 375.345 134.603 374.202 134.603 372.794C134.603 371.385 133.46 370.243 132.051 370.243C130.643 370.243 129.5 371.385 129.5 372.794Z" fill="#1E1E1E"/>
<path fill-rule="evenodd" clip-rule="evenodd" d="M129.5 372.794C129.5 374.202 130.643 375.345 132.051 375.345C133.46 375.345 134.603 374.202 134.603 372.794C134.603 371.385 133.46 370.243 132.051 370.243C130.643 370.243 129.5 371.385 129.5 372.794Z" stroke="#646464" stroke-width="0.475" stroke-linecap="round" stroke-linejoin="round"/>
<path fill-rule="evenodd" clip-rule="evenodd" d="M232.375 400.882C233.322 399.936 233.909 398.63 233.909 397.194L232.375 400.882Z" fill="#1E1E1E"/>
<path d="M232.375 400.882C233.322 399.936 233.909 398.63 233.909 397.194" stroke="#646464" stroke-width="0.475" stroke-linecap="round" stroke-linejoin="round"/>
<path d="M222.044 402.416H228.688" stroke="#646464" stroke-width="0.475" stroke-linecap="round" stroke-linejoin="round"/>
<path d="M208.562 402.416H217.128" stroke="#646464" stroke-width="0.475" stroke-linecap="round" stroke-linejoin="round"/>
<path fill-rule="evenodd" clip-rule="evenodd" d="M233.909 395.065C233.909 392.193 231.559 389.843 228.687 389.843L233.909 395.065Z" fill="#1E1E1E"/>
<path d="M233.909 395.065C233.909 392.193 231.559 389.843 228.687 389.843" stroke="#646464" stroke-width="0.475" stroke-linecap="round" stroke-linejoin="round"/>
<path fill-rule="evenodd" clip-rule="evenodd" d="M228.688 377.269C231.559 377.269 233.91 374.919 233.91 372.047L228.688 377.269Z" fill="#1E1E1E"/>
<path d="M228.688 377.269C231.559 377.269 233.91 374.919 233.91 372.047" stroke="#646464" stroke-width="0.475" stroke-linecap="round" stroke-linejoin="round"/>
<path d="M215.027 364.695H210.9H208.562" stroke="#646464" stroke-width="0.475" stroke-linecap="round" stroke-linejoin="round"/>
<path d="M221.628 364.695H217.129" stroke="#646464" stroke-width="0.475" stroke-linecap="round" stroke-linejoin="round"/>
<path fill-rule="evenodd" clip-rule="evenodd" d="M233.909 369.917C233.909 367.045 231.559 364.695 228.687 364.695H226.845" fill="#1E1E1E"/>
<path d="M233.909 369.917C233.909 367.045 231.559 364.695 228.687 364.695H226.845" stroke="#646464" stroke-width="0.475" stroke-linecap="round" stroke-linejoin="round"/>
<path fill-rule="evenodd" clip-rule="evenodd" d="M223.336 389.843H228.688C231.56 389.843 233.909 387.492 233.909 384.621" fill="#1E1E1E"/>
<path d="M223.336 389.843H228.688C231.56 389.843 233.909 387.492 233.909 384.621" stroke="#646464" stroke-width="0.475" stroke-linecap="round" stroke-linejoin="round"/>
<path fill-rule="evenodd" clip-rule="evenodd" d="M212.215 389.799L215.028 389.843L212.215 389.799Z" fill="#1E1E1E"/>
<path d="M212.215 389.799L215.028 389.843" stroke="#646464" stroke-width="0.475" stroke-linecap="round" stroke-linejoin="round"/>
<path d="M210.104 377.269H208.563" stroke="#646464" stroke-width="0.475" stroke-linecap="round" stroke-linejoin="round"/>
<path fill-rule="evenodd" clip-rule="evenodd" d="M233.909 382.49C233.909 379.618 231.559 377.268 228.687 377.268H213.973" fill="#1E1E1E"/>
<path d="M233.909 382.49C233.909 379.618 231.559 377.268 228.687 377.268H213.973" stroke="#646464" stroke-width="0.475" stroke-linecap="round" stroke-linejoin="round"/>
<path fill-rule="evenodd" clip-rule="evenodd" d="M218.233 389.527C218.233 390.936 219.376 392.078 220.784 392.078C222.193 392.078 223.336 390.936 223.336 389.527C223.336 388.118 222.193 386.976 220.784 386.976C219.376 386.976 218.233 388.118 218.233 389.527Z" fill="#1E1E1E"/>
<path fill-rule="evenodd" clip-rule="evenodd" d="M218.233 389.527C218.233 390.936 219.376 392.078 220.784 392.078C222.193 392.078 223.336 390.936 223.336 389.527C223.336 388.118 222.193 386.976 220.784 386.976C219.376 386.976 218.233 388.118 218.233 389.527Z" stroke="#646464" stroke-width="0.475" stroke-linecap="round" stroke-linejoin="round"/>
<path fill-rule="evenodd" clip-rule="evenodd" d="M187.115 389.732C187.115 391.054 188.187 392.127 189.51 392.127C190.832 392.127 191.903 391.054 191.903 389.732C191.903 388.41 190.832 387.338 189.51 387.338C188.187 387.338 187.115 388.41 187.115 389.732Z" fill="#1E1E1E"/>
<path fill-rule="evenodd" clip-rule="evenodd" d="M187.115 389.732C187.115 391.054 188.187 392.127 189.51 392.127C190.832 392.127 191.903 391.054 191.903 389.732C191.903 388.41 190.832 387.338 189.51 387.338C188.187 387.338 187.115 388.41 187.115 389.732Z" stroke="#646464" stroke-width="0.475" stroke-linecap="round" stroke-linejoin="round"/>
<path fill-rule="evenodd" clip-rule="evenodd" d="M169.305 354.276C169.305 355.598 170.377 356.67 171.7 356.67C173.022 356.67 174.093 355.598 174.093 354.276C174.093 352.954 173.022 351.881 171.7 351.881C170.377 351.881 169.305 352.954 169.305 354.276Z" fill="#1E1E1E"/>
<path fill-rule="evenodd" clip-rule="evenodd" d="M169.305 354.276C169.305 355.598 170.377 356.67 171.7 356.67C173.022 356.67 174.093 355.598 174.093 354.276C174.093 352.954 173.022 351.881 171.7 351.881C170.377 351.881 169.305 352.954 169.305 354.276Z" stroke="#646464" stroke-width="0.475" stroke-linecap="round" stroke-linejoin="round"/>
<path fill-rule="evenodd" clip-rule="evenodd" d="M169.305 354.276H159.992C155.967 354.276 152.673 357.57 152.673 361.595" fill="#1E1E1E"/>
<path d="M169.305 354.276H159.992C155.967 354.276 152.673 357.57 152.673 361.595" stroke="#646464" stroke-width="0.475" stroke-linecap="round" stroke-linejoin="round"/>
<path d="M182.086 354.276H176.195" stroke="#646464" stroke-width="0.475" stroke-linecap="round" stroke-linejoin="round"/>
<path fill-rule="evenodd" clip-rule="evenodd" d="M152.673 364.581C152.673 368.606 155.967 371.9 159.992 371.9H201.125C205.151 371.9 208.444 368.606 208.444 364.581V361.595C208.444 357.569 205.151 354.275 201.125 354.275H191.984H183.938" fill="#1E1E1E"/>
<path d="M152.673 364.581C152.673 368.606 155.967 371.9 159.992 371.9H201.125C205.151 371.9 208.444 368.606 208.444 364.581V361.595C208.444 357.569 205.151 354.275 201.125 354.275H191.984H183.938" stroke="#646464" stroke-width="0.475" stroke-linecap="round" stroke-linejoin="round"/>
<path fill-rule="evenodd" clip-rule="evenodd" d="M152.673 399.832C152.673 403.858 155.967 407.152 159.992 407.152H201.125C205.151 407.152 208.444 403.858 208.444 399.832V396.846C208.444 392.82 205.151 389.526 201.125 389.526H159.992C155.967 389.526 152.673 392.82 152.673 396.846" fill="#1E1E1E"/>
<path d="M152.673 399.832C152.673 403.858 155.967 407.152 159.992 407.152H201.125C205.151 407.152 208.444 403.858 208.444 399.832V396.846C208.444 392.82 205.151 389.526 201.125 389.526H159.992C155.967 389.526 152.673 392.82 152.673 396.846" stroke="#646464" stroke-width="0.475" stroke-linecap="round" stroke-linejoin="round"/>
<path fill-rule="evenodd" clip-rule="evenodd" d="M152.673 382.206C152.673 386.232 155.967 389.526 159.992 389.526H201.125C205.151 389.526 208.444 386.232 208.444 382.206V379.221C208.444 375.194 205.151 371.9 201.125 371.9H159.992C155.967 371.9 152.673 375.194 152.673 379.221" fill="#1E1E1E"/>
<path d="M152.673 382.206C152.673 386.232 155.967 389.526 159.992 389.526H201.125C205.151 389.526 208.444 386.232 208.444 382.206V379.221C208.444 375.194 205.151 371.9 201.125 371.9H159.992C155.967 371.9 152.673 375.194 152.673 379.221" stroke="#646464" stroke-width="0.475" stroke-linecap="round" stroke-linejoin="round"/>
<path fill-rule="evenodd" clip-rule="evenodd" d="M195.448 365.414H200.255C201.198 365.414 201.969 364.643 201.969 363.7V362.476C201.969 361.533 201.198 360.762 200.255 360.762H195.448C194.506 360.762 193.734 361.533 193.734 362.476V363.7C193.734 364.643 194.506 365.414 195.448 365.414Z" fill="#1E1E1E"/>
<path fill-rule="evenodd" clip-rule="evenodd" d="M195.448 365.414H200.255C201.198 365.414 201.969 364.643 201.969 363.7V362.476C201.969 361.533 201.198 360.762 200.255 360.762H195.448C194.506 360.762 193.734 361.533 193.734 362.476V363.7C193.734 364.643 194.506 365.414 195.448 365.414Z" stroke="#646464" stroke-width="0.475" stroke-linecap="round" stroke-linejoin="round"/>
<path fill-rule="evenodd" clip-rule="evenodd" d="M195.448 383.04H200.255C201.198 383.04 201.969 382.269 201.969 381.325V380.102C201.969 379.159 201.198 378.388 200.255 378.388H195.448C194.506 378.388 193.734 379.159 193.734 380.102V381.325C193.734 382.269 194.506 383.04 195.448 383.04Z" fill="#1E1E1E"/>
<path fill-rule="evenodd" clip-rule="evenodd" d="M195.448 383.04H200.255C201.198 383.04 201.969 382.269 201.969 381.325V380.102C201.969 379.159 201.198 378.388 200.255 378.388H195.448C194.506 378.388 193.734 379.159 193.734 380.102V381.325C193.734 382.269 194.506 383.04 195.448 383.04Z" stroke="#646464" stroke-width="0.475" stroke-linecap="round" stroke-linejoin="round"/>
<path fill-rule="evenodd" clip-rule="evenodd" d="M195.448 400.877H200.255C201.198 400.877 201.969 400.106 201.969 399.163V397.939C201.969 396.996 201.198 396.225 200.255 396.225H195.448C194.506 396.225 193.734 396.996 193.734 397.939V399.163C193.734 400.106 194.506 400.877 195.448 400.877Z" fill="#1E1E1E"/>
<path fill-rule="evenodd" clip-rule="evenodd" d="M195.448 400.877H200.255C201.198 400.877 201.969 400.106 201.969 399.163V397.939C201.969 396.996 201.198 396.225 200.255 396.225H195.448C194.506 396.225 193.734 396.996 193.734 397.939V399.163C193.734 400.106 194.506 400.877 195.448 400.877Z" stroke="#646464" stroke-width="0.475" stroke-linecap="round" stroke-linejoin="round"/>
<path fill-rule="evenodd" clip-rule="evenodd" d="M205.953 327.552H203.229H195.384C192.577 327.552 190.281 329.848 190.281 332.654V345.526C190.281 345.526 190.989 349.403 187.112 349.403H182.304" fill="#1E1E1E"/>
<path d="M205.953 327.552H203.229H195.384C192.577 327.552 190.281 329.848 190.281 332.654V345.526C190.281 345.526 190.989 349.403 187.112 349.403H182.304" stroke="#646464" stroke-width="0.475" stroke-linecap="round" stroke-linejoin="round"/>
<path fill-rule="evenodd" clip-rule="evenodd" d="M224.155 339.937V332.654C224.155 329.848 221.859 327.552 219.053 327.552H209.333" fill="#1E1E1E"/>
<path d="M224.155 339.937V332.654C224.155 329.848 221.859 327.552 219.053 327.552H209.333" stroke="#646464" stroke-width="0.475" stroke-linecap="round" stroke-linejoin="round"/>
<path d="M224.155 346.593V344.728" stroke="#646464" stroke-width="0.475" stroke-linecap="round" stroke-linejoin="round"/>
<path d="M224.155 361.159V356.669V354.971V353.446V349.124" stroke="#646464" stroke-width="0.475" stroke-linecap="round" stroke-linejoin="round"/>
<path fill-rule="evenodd" clip-rule="evenodd" d="M211.279 343.717H216.833C217.64 343.717 218.3 343.056 218.3 342.248V336.695C218.3 335.887 217.64 335.227 216.833 335.227H211.279C210.471 335.227 209.811 335.887 209.811 336.695V342.248C209.811 343.056 210.471 343.717 211.279 343.717Z" fill="#1E1E1E"/>
<path fill-rule="evenodd" clip-rule="evenodd" d="M211.279 343.717H216.833C217.64 343.717 218.3 343.056 218.3 342.248V336.695C218.3 335.887 217.64 335.227 216.833 335.227H211.279C210.471 335.227 209.811 335.887 209.811 336.695V342.248C209.811 343.056 210.471 343.717 211.279 343.717Z" stroke="#646464" stroke-width="0.475" stroke-linecap="round" stroke-linejoin="round"/>
<path fill-rule="evenodd" clip-rule="evenodd" d="M197.624 343.717H203.177C203.984 343.717 204.645 343.056 204.645 342.248V336.695C204.645 335.887 203.984 335.227 203.177 335.227H197.624C196.816 335.227 196.155 335.887 196.155 336.695V342.248C196.155 343.056 196.816 343.717 197.624 343.717Z" fill="#1E1E1E"/>
<path fill-rule="evenodd" clip-rule="evenodd" d="M197.624 343.717H203.177C203.984 343.717 204.645 343.056 204.645 342.248V336.695C204.645 335.887 203.984 335.227 203.177 335.227H197.624C196.816 335.227 196.155 335.887 196.155 336.695V342.248C196.155 343.056 196.816 343.717 197.624 343.717Z" stroke="#646464" stroke-width="0.475" stroke-linecap="round" stroke-linejoin="round"/>
<path fill-rule="evenodd" clip-rule="evenodd" d="M177.092 349.458C177.092 350.867 178.234 352.009 179.643 352.009C181.052 352.009 182.194 350.867 182.194 349.458C182.194 348.049 181.052 346.907 179.643 346.907C178.234 346.907 177.092 348.049 177.092 349.458Z" fill="#1E1E1E"/>
<path fill-rule="evenodd" clip-rule="evenodd" d="M177.092 349.458C177.092 350.867 178.234 352.009 179.643 352.009C181.052 352.009 182.194 350.867 182.194 349.458C182.194 348.049 181.052 346.907 179.643 346.907C178.234 346.907 177.092 348.049 177.092 349.458Z" stroke="#646464" stroke-width="0.475" stroke-linecap="round" stroke-linejoin="round"/>
<path fill-rule="evenodd" clip-rule="evenodd" d="M300.935 221.325C299.491 221.325 298.32 222.5 298.32 223.949C298.32 225.398 299.491 226.573 300.935 226.573C302.38 226.573 303.551 225.398 303.551 223.949C303.551 222.5 302.38 221.325 300.935 221.325Z" stroke="#EF6724" stroke-width="0.37" stroke-linecap="round" stroke-linejoin="round"/>
<path d="M300.935 219.237V221.157" stroke="#EF6724" stroke-width="0.37" stroke-linecap="round" stroke-linejoin="round"/>
<path d="M300.935 213.197V217.482" stroke="#EF6724" stroke-width="0.37" stroke-linecap="round" stroke-linejoin="round"/>
<path fill-rule="evenodd" clip-rule="evenodd" d="M339.753 196.997H244.031C238.046 196.997 233.148 192.1 233.148 186.114V89.1973C233.148 83.2113 238.046 78.3143 244.031 78.3143H339.753C345.739 78.3143 350.637 83.2113 350.637 89.1973V186.114C350.637 192.1 345.739 196.997 339.753 196.997Z" stroke="#EF6724" stroke-width="0.37" stroke-linecap="round" stroke-linejoin="round"/>
<path fill-rule="evenodd" clip-rule="evenodd" d="M317.251 174.267H266.533C260.547 174.267 255.649 169.37 255.649 163.384V111.928C255.649 105.942 260.547 101.045 266.533 101.045H317.251C323.237 101.045 328.135 105.942 328.135 111.928V163.384C328.135 169.37 323.237 174.267 317.251 174.267Z" stroke="#EF6724" stroke-width="0.37" stroke-linecap="round" stroke-linejoin="round"/>
<path d="M242.245 78.3142V64.7522" stroke="#EF6724" stroke-width="0.37" stroke-linecap="round" stroke-linejoin="round"/>
<path d="M261.809 78.3142V64.7522" stroke="#EF6724" stroke-width="0.37" stroke-linecap="round" stroke-linejoin="round"/>
<path d="M281.372 78.3142V64.7522" stroke="#EF6724" stroke-width="0.37" stroke-linecap="round" stroke-linejoin="round"/>
<path d="M300.935 78.3142V64.7522" stroke="#EF6724" stroke-width="0.37" stroke-linecap="round" stroke-linejoin="round"/>
<path d="M320.498 78.3142V64.7522" stroke="#EF6724" stroke-width="0.37" stroke-linecap="round" stroke-linejoin="round"/>
<path d="M340.062 78.3142V64.7522" stroke="#EF6724" stroke-width="0.37" stroke-linecap="round" stroke-linejoin="round"/>
<path d="M242.245 210.56V196.997" stroke="#EF6724" stroke-width="0.37" stroke-linecap="round" stroke-linejoin="round"/>
<path d="M261.809 210.56V196.997" stroke="#EF6724" stroke-width="0.37" stroke-linecap="round" stroke-linejoin="round"/>
<path d="M281.372 210.56V196.997" stroke="#EF6724" stroke-width="0.37" stroke-linecap="round" stroke-linejoin="round"/>
<path d="M300.935 210.56V196.997" stroke="#EF6724" stroke-width="0.37" stroke-linecap="round" stroke-linejoin="round"/>
<path d="M320.498 210.56V196.997" stroke="#EF6724" stroke-width="0.37" stroke-linecap="round" stroke-linejoin="round"/>
<path d="M340.062 210.56V196.997" stroke="#EF6724" stroke-width="0.37" stroke-linecap="round" stroke-linejoin="round"/>
<path d="M219.494 88.3766H233.057" stroke="#EF6724" stroke-width="0.37" stroke-linecap="round" stroke-linejoin="round"/>
<path d="M219.494 107.94H233.057" stroke="#EF6724" stroke-width="0.37" stroke-linecap="round" stroke-linejoin="round"/>
<path d="M219.494 127.503H233.057" stroke="#EF6724" stroke-width="0.37" stroke-linecap="round" stroke-linejoin="round"/>
<path d="M219.494 147.066H233.057" stroke="#EF6724" stroke-width="0.37" stroke-linecap="round" stroke-linejoin="round"/>
<path d="M219.494 166.63H233.057" stroke="#EF6724" stroke-width="0.37" stroke-linecap="round" stroke-linejoin="round"/>
<path d="M219.494 186.193H233.057" stroke="#EF6724" stroke-width="0.37" stroke-linecap="round" stroke-linejoin="round"/>
<path d="M350.876 88.3766H364.438" stroke="#EF6724" stroke-width="0.37" stroke-linecap="round" stroke-linejoin="round"/>
<path d="M350.876 107.94H364.438" stroke="#EF6724" stroke-width="0.37" stroke-linecap="round" stroke-linejoin="round"/>
<path d="M350.876 127.503H364.438" stroke="#EF6724" stroke-width="0.37" stroke-linecap="round" stroke-linejoin="round"/>
<path d="M350.876 147.066H364.438" stroke="#EF6724" stroke-width="0.37" stroke-linecap="round" stroke-linejoin="round"/>
<path d="M350.876 166.63H364.438" stroke="#EF6724" stroke-width="0.37" stroke-linecap="round" stroke-linejoin="round"/>
<path d="M350.876 186.193H364.438" stroke="#EF6724" stroke-width="0.37" stroke-linecap="round" stroke-linejoin="round"/>
<path fill-rule="evenodd" clip-rule="evenodd" d="M268.729 157.14L269.932 151.092L309.232 118.614H314.52L307.583 157.14H299.75L304.562 132.041L274.707 157.14H268.729Z" stroke="#EF6724" stroke-width="0.37" stroke-linecap="round" stroke-linejoin="round"/>
<path fill-rule="evenodd" clip-rule="evenodd" d="M414.881 218.814C414.881 216.553 416.713 214.722 418.973 214.722C421.233 214.722 423.065 216.553 423.065 218.814C423.065 221.074 421.233 222.906 418.973 222.906C416.713 222.906 414.881 221.074 414.881 218.814Z" stroke="#EF6724" stroke-width="0.37" stroke-linecap="round" stroke-linejoin="round"/>
<path d="M407.761 218.814H414.881" stroke="#EF6724" stroke-width="0.37" stroke-linecap="round" stroke-linejoin="round"/>
<path d="M395.041 218.814H404.034" stroke="#EF6724" stroke-width="0.37" stroke-linecap="round" stroke-linejoin="round"/>
<path d="M379.857 209.018V211.343C379.857 211.343 379.484 218.814 387.327 218.814H392.668" stroke="#EF6724" stroke-width="0.37" stroke-linecap="round" stroke-linejoin="round"/>
<path d="M379.856 198.962V206.626" stroke="#EF6724" stroke-width="0.37" stroke-linecap="round" stroke-linejoin="round"/>
<path d="M366.559 186.193H371.754C380.43 186.193 379.857 194.296 379.857 194.296" stroke="#EF6724" stroke-width="0.37" stroke-linecap="round" stroke-linejoin="round"/>
<path fill-rule="evenodd" clip-rule="evenodd" d="M420.181 55.6027C420.181 57.8627 422.013 59.6947 424.273 59.6947C426.533 59.6947 428.365 57.8627 428.365 55.6027C428.365 53.3427 426.533 51.5107 424.273 51.5107C422.013 51.5107 420.181 53.3427 420.181 55.6027Z" stroke="#EF6724" stroke-width="0.37" stroke-linecap="round" stroke-linejoin="round"/>
<path d="M413.061 55.6028H420.181" stroke="#EF6724" stroke-width="0.37" stroke-linecap="round" stroke-linejoin="round"/>
<path d="M400.342 55.6028H409.334" stroke="#EF6724" stroke-width="0.37" stroke-linecap="round" stroke-linejoin="round"/>
<path d="M380.622 65.3987V63.0727C380.622 63.0727 380.248 55.6027 388.092 55.6027H397.968" stroke="#EF6724" stroke-width="0.37" stroke-linecap="round" stroke-linejoin="round"/>
<path d="M380.622 75.4532V67.7892" stroke="#EF6724" stroke-width="0.37" stroke-linecap="round" stroke-linejoin="round"/>
<path d="M367.323 88.2229H372.518C381.195 88.2229 380.622 80.1199 380.622 80.1199" stroke="#EF6724" stroke-width="0.37" stroke-linecap="round" stroke-linejoin="round"/>
<path fill-rule="evenodd" clip-rule="evenodd" d="M167.845 106.043C167.845 108.303 166.013 110.135 163.753 110.135C161.493 110.135 159.661 108.303 159.661 106.043C159.661 103.783 161.493 101.951 163.753 101.951C166.013 101.951 167.845 103.783 167.845 106.043Z" stroke="#EF6724" stroke-width="0.37" stroke-linecap="round" stroke-linejoin="round"/>
<path d="M179.747 105.993H176.047H167.895" stroke="#EF6724" stroke-width="0.37" stroke-linecap="round" stroke-linejoin="round"/>
<path d="M183.856 105.993H193.575C201.418 105.993 201.044 113.463 201.044 113.463V125.838" stroke="#EF6724" stroke-width="0.37" stroke-linecap="round" stroke-linejoin="round"/>
<path d="M201.045 134.827V129.158" stroke="#EF6724" stroke-width="0.37" stroke-linecap="round" stroke-linejoin="round"/>
<path d="M201.045 139.177C201.045 139.177 200.472 147.28 209.148 147.28H217.128" stroke="#EF6724" stroke-width="0.37" stroke-linecap="round" stroke-linejoin="round"/>
<path fill-rule="evenodd" clip-rule="evenodd" d="M287.213 308.327C284.953 308.327 283.121 310.159 283.121 312.419C283.121 314.679 284.953 316.511 287.213 316.511C289.474 316.511 291.306 314.679 291.306 312.419C291.306 310.159 289.474 308.327 287.213 308.327Z" stroke="#EF6724" stroke-width="0.37" stroke-linecap="round" stroke-linejoin="round"/>
<path d="M287.213 291.141V308.126" stroke="#EF6724" stroke-width="0.37" stroke-linecap="round" stroke-linejoin="round"/>
<path d="M287.213 250.452V280.336" stroke="#EF6724" stroke-width="0.37" stroke-linecap="round" stroke-linejoin="round"/>
<path d="M287.213 241.032V247.716" stroke="#EF6724" stroke-width="0.37" stroke-linecap="round" stroke-linejoin="round"/>
<path d="M279.743 222.886C279.743 222.886 287.213 222.513 287.213 230.356V237.516" stroke="#EF6724" stroke-width="0.37" stroke-linecap="round" stroke-linejoin="round"/>
<path d="M277.161 222.886H267.654C267.654 222.886 261.808 223.471 261.808 217.127V212.425" stroke="#EF6724" stroke-width="0.37" stroke-linecap="round" stroke-linejoin="round"/>
<path d="M190.788 202.629C190.788 202.629 189.544 186.192 206.038 186.192H229.756" stroke="#EF6724" stroke-width="0.37" stroke-linecap="round" stroke-linejoin="round"/>
<path d="M190.788 213.358V202.714V248.39V213.018" stroke="#EF6724" stroke-width="0.37" stroke-linecap="round" stroke-linejoin="round"/>
<path d="M190.788 254.87V247.095" stroke="#EF6724" stroke-width="0.37" stroke-linecap="round" stroke-linejoin="round"/>
<path fill-rule="evenodd" clip-rule="evenodd" d="M194.389 258.472C194.389 256.469 192.765 254.844 190.761 254.844C188.758 254.844 187.134 256.469 187.134 258.472C187.134 260.476 188.758 262.1 190.761 262.1C192.765 262.1 194.389 260.476 194.389 258.472Z" stroke="#EF6724" stroke-width="0.37" stroke-linecap="round" stroke-linejoin="round"/>
<path d="M300.935 55.8977V63.8517" stroke="#EF6724" stroke-width="0.37" stroke-linecap="round" stroke-linejoin="round"/>
<path d="M277.439 40.4148H287.16C287.16 40.4148 300.934 39.7168 300.934 54.4218" stroke="#EF6724" stroke-width="0.37" stroke-linecap="round" stroke-linejoin="round"/>
<path d="M259.055 6.24475V17.4878V23.9778C259.055 23.9778 257.921 40.4147 274.886 40.4147" stroke="#EF6724" stroke-width="0.37" stroke-linecap="round" stroke-linejoin="round"/>
<path fill-rule="evenodd" clip-rule="evenodd" d="M256.009 3.21506C256.009 4.88806 257.365 6.24506 259.039 6.24506C260.712 6.24506 262.069 4.88806 262.069 3.21506C262.069 1.54206 260.712 0.185059 259.039 0.185059C257.365 0.185059 256.009 1.54206 256.009 3.21506Z" stroke="#EF6724" stroke-width="0.37" stroke-linecap="round" stroke-linejoin="round"/>
<path fill-rule="evenodd" clip-rule="evenodd" d="M308.452 263.969L320.239 266.121C321.316 267.021 321.928 268.28 322.047 269.584C330.528 277.947 341.459 285.431 353.898 282.769C362.577 280.912 364.371 280.953 369.343 273.846C373.299 268.19 381.071 279.694 377.122 285.339L375.366 288.698C368.778 298.116 365.034 302.752 353.638 304.999C339.888 307.71 327.533 287.762 316.903 275.837C315.345 274.088 311.431 274.132 310.069 272.743C308.942 271.595 306.3 262.173 308.452 263.969Z" fill="#1C1D1D"/>
<path fill-rule="evenodd" clip-rule="evenodd" d="M308.452 263.969L320.239 266.121C321.316 267.021 321.928 268.28 322.047 269.584C330.528 277.947 341.459 285.431 353.898 282.769C362.577 280.912 364.371 280.953 369.343 273.846C373.299 268.19 381.071 279.694 377.122 285.339L375.366 288.698C368.778 298.116 365.034 302.752 353.638 304.999C339.888 307.71 327.533 287.762 316.903 275.837C315.345 274.088 311.431 274.132 310.069 272.743C308.942 271.595 306.3 262.173 308.452 263.969Z" stroke="#646464" stroke-width="0.475"/>
<path fill-rule="evenodd" clip-rule="evenodd" d="M340.961 229.464C347.891 221.463 367.592 222.251 369.308 234.044C370.707 243.659 368.985 248.599 363.117 254.696C359.017 258.956 346.541 267.01 342.598 266.777C337.087 259.289 335.42 235.861 340.961 229.464Z" fill="#1C1D1D"/>
<path fill-rule="evenodd" clip-rule="evenodd" d="M340.961 229.464C347.891 221.463 367.592 222.251 369.308 234.044C370.707 243.659 368.985 248.599 363.117 254.696C359.017 258.956 346.541 267.01 342.598 266.777C337.087 259.289 335.42 235.861 340.961 229.464Z" stroke="#646464" stroke-width="0.475"/>
<path fill-rule="evenodd" clip-rule="evenodd" d="M353.352 250.018C355.382 249.433 356.556 247.309 355.974 245.272C355.391 243.235 353.273 242.057 351.242 242.642L349.631 246.255" fill="#1C1D1D"/>
<path d="M353.352 250.018C355.382 249.433 356.556 247.309 355.974 245.272C355.391 243.235 353.273 242.057 351.242 242.642L349.631 246.255" stroke="#646464" stroke-width="0.475"/>
<path fill-rule="evenodd" clip-rule="evenodd" d="M356.123 254.855C356.123 254.855 355.73 259.522 354.913 259.779C354.096 260.036 349.631 266.781 349.631 266.781L348.941 274.213C349.615 277.246 358.729 279.418 361.753 278.742L362.648 278.542C365.672 277.865 367.594 274.83 366.92 271.797L363.117 254.697" fill="#1C1D1D"/>
<path d="M356.123 254.855C356.123 254.855 355.73 259.522 354.913 259.779C354.096 260.036 349.631 266.781 349.631 266.781L348.941 274.213C349.615 277.246 358.729 279.418 361.753 278.742L362.648 278.542C365.672 277.865 367.594 274.83 366.92 271.797L363.117 254.697" stroke="#646464" stroke-width="0.475"/>
<path fill-rule="evenodd" clip-rule="evenodd" d="M278.011 245.338L278.007 245.337C278.043 245.257 278.09 245.184 278.132 245.109C278.166 245.046 278.196 244.981 278.234 244.922C278.285 244.841 278.348 244.769 278.407 244.694C278.449 244.644 278.486 244.587 278.53 244.539C278.6 244.464 278.68 244.401 278.757 244.336C278.8 244.301 278.838 244.258 278.883 244.226C279.01 244.134 279.145 244.056 279.287 243.994L298.552 235.652C298.686 235.594 298.821 235.556 298.955 235.53C298.999 235.523 299.041 235.522 299.085 235.517C299.176 235.506 299.266 235.5 299.356 235.503C299.405 235.505 299.453 235.512 299.501 235.518C299.584 235.528 299.665 235.544 299.745 235.567C299.793 235.579 299.839 235.593 299.886 235.61C299.914 235.621 299.945 235.626 299.972 235.638L301.496 236.15L310.064 274.151C310.401 275.559 309.739 277.106 308.584 277.606L289.155 286.267L287.994 285.652C287.197 285.255 286.801 285.055 286.579 284.128L277.808 247.448C277.635 246.728 277.728 245.973 278.011 245.338Z" fill="#1E1E1E"/>
<path fill-rule="evenodd" clip-rule="evenodd" d="M278.011 245.338L278.007 245.337C278.043 245.257 278.09 245.184 278.132 245.109C278.166 245.046 278.196 244.981 278.234 244.922C278.285 244.841 278.348 244.769 278.407 244.694C278.449 244.644 278.486 244.587 278.53 244.539C278.6 244.464 278.68 244.401 278.757 244.336C278.8 244.301 278.838 244.258 278.883 244.226C279.01 244.134 279.145 244.056 279.287 243.994L298.552 235.652C298.686 235.594 298.821 235.556 298.955 235.53C298.999 235.523 299.041 235.522 299.085 235.517C299.176 235.506 299.266 235.5 299.356 235.503C299.405 235.505 299.453 235.512 299.501 235.518C299.584 235.528 299.665 235.544 299.745 235.567C299.793 235.579 299.839 235.593 299.886 235.61C299.914 235.621 299.945 235.626 299.972 235.638L301.496 236.15L310.064 274.151C310.401 275.559 309.739 277.106 308.584 277.606L289.155 286.267L287.994 285.652C287.197 285.255 286.801 285.055 286.579 284.128L277.808 247.448C277.635 246.728 277.728 245.973 278.011 245.338Z" stroke="#F37928" stroke-width="0.475" stroke-linecap="round" stroke-linejoin="round"/>
<path fill-rule="evenodd" clip-rule="evenodd" d="M290.897 286.45L310.108 278.103C311.261 277.604 311.871 276.053 311.534 274.645L302.72 237.791C302.384 236.383 301.203 235.648 300.049 236.148L280.85 244.496C279.696 244.996 279.099 246.548 279.436 247.956L288.25 284.81C288.585 286.218 289.743 286.95 290.897 286.45Z" fill="#1E1E1E"/>
<path fill-rule="evenodd" clip-rule="evenodd" d="M290.897 286.45L310.108 278.103C311.261 277.604 311.871 276.053 311.534 274.645L302.72 237.791C302.384 236.383 301.203 235.648 300.049 236.148L280.85 244.496C279.696 244.996 279.099 246.548 279.436 247.956L288.25 284.81C288.585 286.218 289.743 286.95 290.897 286.45Z" stroke="#F37928" stroke-width="0.475" stroke-linecap="round" stroke-linejoin="round"/>
<path fill-rule="evenodd" clip-rule="evenodd" d="M289.54 280.399L308.452 272.21L300.773 239.719L281.977 247.859L289.971 279.611C290.036 279.885 289.282 280.51 289.54 280.399Z" fill="#1E1E1E"/>
<path fill-rule="evenodd" clip-rule="evenodd" d="M289.54 280.399L308.452 272.21L300.773 239.719L281.977 247.859L289.971 279.611C290.036 279.885 289.282 280.51 289.54 280.399Z" stroke="#F37928" stroke-width="0.475" stroke-linecap="round" stroke-linejoin="round"/>
<path fill-rule="evenodd" clip-rule="evenodd" d="M385.576 478.584L377.084 477.512C371.401 474.923 368.746 472.979 366.215 474.446L365.497 474.862C362.965 476.329 363.284 478.916 366.206 480.611L378.687 490.577C381.609 492.272 385.548 491.738 387.882 489.683C387.882 489.683 389.279 488.418 388.283 483.089C387.715 480.05 387.914 479.94 385.576 478.584Z" fill="#1E1E1E"/>
<path fill-rule="evenodd" clip-rule="evenodd" d="M385.576 478.584L377.084 477.512C371.401 474.923 368.746 472.979 366.215 474.446L365.497 474.862C362.965 476.329 363.284 478.916 366.206 480.611L378.687 490.577C381.609 492.272 385.548 491.738 387.882 489.683C387.882 489.683 389.279 488.418 388.283 483.089C387.715 480.05 387.914 479.94 385.576 478.584Z" stroke="#F37928" stroke-width="0.475" stroke-linecap="round" stroke-linejoin="round"/>
<path fill-rule="evenodd" clip-rule="evenodd" d="M348.468 495.606L340.148 498.536C333.713 498.862 330.367 498.372 328.714 500.807L328.245 501.498C326.592 503.933 328.083 506.05 331.561 506.202L349.659 509.238C353.137 509.389 354.531 507.122 355.73 504.261C355.73 504.261 356.403 500.753 354.494 497.037C353.087 494.296 351.248 495.727 348.468 495.606Z" fill="#1E1E1E"/>
<path fill-rule="evenodd" clip-rule="evenodd" d="M348.468 495.606L340.148 498.536C333.713 498.862 330.367 498.372 328.714 500.807L328.245 501.498C326.592 503.933 328.083 506.05 331.561 506.202L349.659 509.238C353.137 509.389 354.531 507.122 355.73 504.261C355.73 504.261 356.403 500.753 354.494 497.037C353.087 494.296 351.248 495.727 348.468 495.606Z" stroke="#F37928" stroke-width="0.475" stroke-linecap="round" stroke-linejoin="round"/>
<path fill-rule="evenodd" clip-rule="evenodd" d="M344.824 498.537C344.824 502.524 354.494 502.524 354.494 498.537V485.578H344.824V498.537Z" fill="#1C1D1D"/>
<path fill-rule="evenodd" clip-rule="evenodd" d="M344.824 498.537C344.824 502.524 354.494 502.524 354.494 498.537V485.578H344.824V498.537Z" stroke="#646464" stroke-width="0.475"/>
<path fill-rule="evenodd" clip-rule="evenodd" d="M377.74 479.373C377.961 482.984 387.631 482.984 387.41 479.373L386.694 467.638H377.024L377.74 479.373Z" fill="#1C1D1D"/>
<path fill-rule="evenodd" clip-rule="evenodd" d="M377.74 479.373C377.961 482.984 387.631 482.984 387.41 479.373L386.694 467.638H377.024L377.74 479.373Z" stroke="#646464" stroke-width="0.475"/>
<path fill-rule="evenodd" clip-rule="evenodd" d="M337.556 356.784H372.456C372.329 357.318 372.213 357.85 372.088 358.384L383.648 356.667L388.769 473.565C387.307 476.445 379.707 478.147 375.845 474.16L364.504 395.885C358.981 428.498 356.38 460.562 356.837 491.765C354.879 495.031 344.825 495.399 343.606 490.348C339.082 446.047 337.382 401.498 337.556 356.784Z" fill="#1C1D1D"/>
<path fill-rule="evenodd" clip-rule="evenodd" d="M337.556 356.784H372.456C372.329 357.318 372.213 357.85 372.088 358.384L383.648 356.667L388.769 473.565C387.307 476.445 379.707 478.147 375.845 474.16L364.504 395.885C358.981 428.498 356.38 460.562 356.837 491.765C354.879 495.031 344.825 495.399 343.606 490.348C339.082 446.047 337.382 401.498 337.556 356.784Z" stroke="#646464" stroke-width="0.475"/>
<path fill-rule="evenodd" clip-rule="evenodd" d="M384.667 355.147C381.813 339.451 387.698 316.113 387.45 299.424C388.804 271.573 379.849 263.961 370.256 264.966C370.256 264.966 361.582 267.532 359.614 268.548C338.767 279.322 333.202 282.645 334.117 295.141C334.023 315.726 337.048 351.443 337.479 361.571C341.775 375.804 379.899 365.333 384.667 355.147Z" fill="#1E1E1E"/>
<path fill-rule="evenodd" clip-rule="evenodd" d="M384.667 355.147C381.813 339.451 387.698 316.113 387.45 299.424C388.804 271.573 379.849 263.961 370.256 264.966C370.256 264.966 361.582 267.532 359.614 268.548C338.767 279.322 333.202 282.645 334.117 295.141C334.023 315.726 337.048 351.443 337.479 361.571C341.775 375.804 379.899 365.333 384.667 355.147Z" stroke="#F37928" stroke-width="0.475" stroke-linecap="round" stroke-linejoin="round"/>
<path fill-rule="evenodd" clip-rule="evenodd" d="M281.977 270.967C284.284 271.01 292.424 272.833 292.382 275.148L294.726 280.675C294.709 281.58 295.338 282.814 295.338 282.814L311.938 303.529C313.293 305.165 321.684 297.722 329.412 290.853C335.06 297.862 336.992 306.323 336.531 314.904C323.194 322.743 306.836 328.498 303.576 322.972L286.767 284.457C286.767 284.457 284.044 283.292 284.072 281.762L282.709 276.86C282.752 274.545 279.669 270.925 281.977 270.967Z" fill="#1C1D1D"/>
<path fill-rule="evenodd" clip-rule="evenodd" d="M281.977 270.967C284.284 271.01 292.424 272.833 292.382 275.148L294.726 280.675C294.709 281.58 295.338 282.814 295.338 282.814L311.938 303.529C313.293 305.165 321.684 297.722 329.412 290.853C335.06 297.862 336.992 306.323 336.531 314.904C323.194 322.743 306.836 328.498 303.576 322.972L286.767 284.457C286.767 284.457 284.044 283.292 284.072 281.762L282.709 276.86C282.752 274.545 279.669 270.925 281.977 270.967Z" stroke="#646464" stroke-width="0.475"/>
<path fill-rule="evenodd" clip-rule="evenodd" d="M370.454 266.314C370.454 266.314 369.763 258.398 364.153 259.991C358.544 261.584 347.157 269.331 346.039 271.196C344.92 273.061 346.039 276.86 346.039 276.86L370.454 266.314Z" fill="#1E1E1E"/>
<path fill-rule="evenodd" clip-rule="evenodd" d="M370.454 266.314C370.454 266.314 369.763 258.398 364.153 259.991C358.544 261.584 347.157 269.331 346.039 271.196C344.92 273.061 346.039 276.86 346.039 276.86L370.454 266.314Z" stroke="#F37928" stroke-width="0.475" stroke-linecap="round" stroke-linejoin="round"/>
<path fill-rule="evenodd" clip-rule="evenodd" d="M329.411 290.853C335.466 285.472 341.112 280.445 342.651 280.412C356.123 280.123 359.016 287.702 354.248 299.572C352.508 303.905 345.147 309.838 336.53 314.904C336.991 306.324 335.059 297.862 329.411 290.853Z" fill="#1E1E1E"/>
<path fill-rule="evenodd" clip-rule="evenodd" d="M329.411 290.853C335.466 285.472 341.112 280.445 342.651 280.412C356.123 280.123 359.016 287.702 354.248 299.572C352.508 303.905 345.147 309.838 336.53 314.904C336.991 306.324 335.059 297.862 329.411 290.853Z" stroke="#F37928" stroke-width="0.475" stroke-linecap="round" stroke-linejoin="round"/>
<path fill-rule="evenodd" clip-rule="evenodd" d="M269.344 367.586H254.457C251.666 367.586 249.383 369.876 249.383 372.675V394.905" fill="#1E1E1E"/>
<path d="M269.344 367.586H254.457C251.666 367.586 249.383 369.876 249.383 372.675V394.905" stroke="#646464" stroke-width="0.475" stroke-linecap="round" stroke-linejoin="round"/>
<path d="M279.091 397.692V374.77" stroke="#646464" stroke-width="0.475" stroke-linecap="round" stroke-linejoin="round"/>
<path fill-rule="evenodd" clip-rule="evenodd" d="M268.806 387.318H259.434C258.776 387.318 258.237 386.779 258.237 386.12V376.713C258.237 376.054 258.776 375.515 259.434 375.515H268.806C269.464 375.515 270.003 376.054 270.003 376.713V386.12C270.003 386.779 269.464 387.318 268.806 387.318Z" fill="#1E1E1E"/>
<path fill-rule="evenodd" clip-rule="evenodd" d="M268.806 387.318H259.434C258.776 387.318 258.237 386.779 258.237 386.12V376.713C258.237 376.054 258.776 375.515 259.434 375.515H268.806C269.464 375.515 270.003 376.054 270.003 376.713V386.12C270.003 386.779 269.464 387.318 268.806 387.318Z" stroke="#646464" stroke-width="0.475" stroke-linecap="round" stroke-linejoin="round"/>
<path fill-rule="evenodd" clip-rule="evenodd" d="M129.495 321.444H144.382C147.173 321.444 149.456 323.734 149.456 326.533V348.763" fill="#1E1E1E"/>
<path d="M129.495 321.444H144.382C147.173 321.444 149.456 323.734 149.456 326.533V348.763" stroke="#646464" stroke-width="0.475" stroke-linecap="round" stroke-linejoin="round"/>
<path d="M119.748 351.549V328.627" stroke="#646464" stroke-width="0.475" stroke-linecap="round" stroke-linejoin="round"/>
<path fill-rule="evenodd" clip-rule="evenodd" d="M130.033 341.175H139.405C140.063 341.175 140.602 340.636 140.602 339.977V330.57C140.602 329.911 140.063 329.372 139.405 329.372H130.033C129.375 329.372 128.836 329.911 128.836 330.57V339.977C128.836 340.636 129.375 341.175 130.033 341.175Z" fill="#1E1E1E"/>
<path fill-rule="evenodd" clip-rule="evenodd" d="M130.033 341.175H139.405C140.063 341.175 140.602 340.636 140.602 339.977V330.57C140.602 329.911 140.063 329.372 139.405 329.372H130.033C129.375 329.372 128.836 329.911 128.836 330.57V339.977C128.836 340.636 129.375 341.175 130.033 341.175Z" stroke="#646464" stroke-width="0.475" stroke-linecap="round" stroke-linejoin="round"/>
<path d="M319.277 382.639V390.307V395.696" stroke="#646464" stroke-width="0.475" stroke-linecap="round" stroke-linejoin="round"/>
<path d="M319.277 375.038V378.399V380.309" stroke="#646464" stroke-width="0.475" stroke-linecap="round" stroke-linejoin="round"/>
<path fill-rule="evenodd" clip-rule="evenodd" d="M284.289 361.585V357.125C284.289 353.225 287.471 350.032 291.36 350.032H312.206C316.095 350.032 319.277 353.225 319.277 358.82V365.821V369.532V371.768" fill="#1E1E1E"/>
<path d="M284.289 361.585V357.125C284.289 353.225 287.471 350.032 291.36 350.032H312.206C316.095 350.032 319.277 353.225 319.277 358.82V365.821V369.532V371.768" stroke="#646464" stroke-width="0.475" stroke-linecap="round" stroke-linejoin="round"/>
<path d="M284.289 371.457V367.608" stroke="#646464" stroke-width="0.475" stroke-linecap="round" stroke-linejoin="round"/>
<path fill-rule="evenodd" clip-rule="evenodd" d="M322.813 399.68C322.813 401.639 321.23 403.227 319.278 403.227C317.325 403.227 315.742 401.639 315.742 399.68C315.742 397.722 317.325 396.134 319.278 396.134C321.23 396.134 322.813 397.722 322.813 399.68Z" fill="#1E1E1E"/>
<path fill-rule="evenodd" clip-rule="evenodd" d="M322.813 399.68C322.813 401.639 321.23 403.227 319.278 403.227C317.325 403.227 315.742 401.639 315.742 399.68C315.742 397.722 317.325 396.134 319.278 396.134C321.23 396.134 322.813 397.722 322.813 399.68Z" stroke="#646464" stroke-width="0.475" stroke-linecap="round" stroke-linejoin="round"/>
<path fill-rule="evenodd" clip-rule="evenodd" d="M306.469 370.519H297.098C296.439 370.519 295.9 369.98 295.9 369.322V359.915C295.9 359.255 296.439 358.716 297.098 358.716H306.469C307.128 358.716 307.666 359.255 307.666 359.915V369.322C307.666 369.98 307.128 370.519 306.469 370.519Z" fill="#1E1E1E"/>
<path fill-rule="evenodd" clip-rule="evenodd" d="M306.469 370.519H297.098C296.439 370.519 295.9 369.98 295.9 369.322V359.915C295.9 359.255 296.439 358.716 297.098 358.716H306.469C307.128 358.716 307.666 359.255 307.666 359.915V369.322C307.666 369.98 307.128 370.519 306.469 370.519Z" stroke="#646464" stroke-width="0.475" stroke-linecap="round" stroke-linejoin="round"/>
</svg>
