<svg width="723" height="511" viewBox="0 0 723 511" fill="none" xmlns="http://www.w3.org/2000/svg">
<rect x="556.25" y="112.25" width="9.5" height="9.5" rx="0.75" stroke="#646464" stroke-width="0.5"/>
<rect x="531.25" y="191.25" width="7.5" height="7.5" rx="0.75" stroke="#F3652B" stroke-width="0.5"/>
<rect x="579.25" y="34.25" width="7.5" height="7.5" rx="0.75" stroke="#646464" stroke-width="0.5"/>
<rect x="287.25" y="111.25" width="7.5" height="7.5" rx="0.75" stroke="#646464" stroke-width="0.5"/>
<line x1="702.023" y1="446" x2="702.023" y2="449.636" stroke="#F3652B" stroke-width="0.5"/>
<line x1="702.023" y1="452.364" x2="702.023" y2="456" stroke="#F3652B" stroke-width="0.5"/>
<line x1="707" y1="451.023" x2="703.364" y2="451.023" stroke="#F3652B" stroke-width="0.5"/>
<line x1="700.636" y1="451.023" x2="697" y2="451.023" stroke="#F3652B" stroke-width="0.5"/>
<line x1="311.932" y1="227" x2="311.932" y2="232.091" stroke="#F3652B" stroke-width="0.5"/>
<line x1="311.932" y1="235.909" x2="311.932" y2="241" stroke="#F3652B" stroke-width="0.5"/>
<line x1="319" y1="233.932" x2="313.909" y2="233.932" stroke="#F3652B" stroke-width="0.5"/>
<line x1="310.091" y1="233.932" x2="305" y2="233.932" stroke="#F3652B" stroke-width="0.5"/>
<line x1="111.023" y1="438" x2="111.023" y2="441.636" stroke="#F3652B" stroke-width="0.5"/>
<line x1="111.023" y1="444.364" x2="111.023" y2="448" stroke="#F3652B" stroke-width="0.5"/>
<line x1="116" y1="443.023" x2="112.364" y2="443.023" stroke="#F3652B" stroke-width="0.5"/>
<line x1="109.636" y1="443.023" x2="106" y2="443.023" stroke="#F3652B" stroke-width="0.5"/>
<line x1="7.88623" y1="212" x2="7.88623" y2="217.818" stroke="#646464" stroke-width="0.5"/>
<line x1="7.88623" y1="222.182" x2="7.88623" y2="228" stroke="#646464" stroke-width="0.5"/>
<line x1="16" y1="219.886" x2="10.1818" y2="219.886" stroke="#646464" stroke-width="0.5"/>
<line x1="5.81812" y1="219.886" x2="-6.01033e-05" y2="219.886" stroke="#646464" stroke-width="0.5"/>
<line x1="308.023" y1="470" x2="308.023" y2="473.636" stroke="#1E1E1E" stroke-width="0.5"/>
<line x1="308.023" y1="476.364" x2="308.023" y2="480" stroke="#1E1E1E" stroke-width="0.5"/>
<line x1="313" y1="475.023" x2="309.364" y2="475.023" stroke="#1E1E1E" stroke-width="0.5"/>
<line x1="306.636" y1="475.023" x2="303" y2="475.023" stroke="#1E1E1E" stroke-width="0.5"/>
<rect x="257.25" y="459.25" width="9.5" height="9.5" rx="0.75" stroke="#1E1E1E" stroke-width="0.5"/>
<rect x="450.25" y="464.25" width="9.5" height="9.5" rx="0.75" stroke="#F3652B" stroke-width="0.5"/>
<rect x="280.25" y="151.25" width="6.5" height="6.5" rx="0.75" stroke="#F3652B" stroke-width="0.5"/>
<rect x="619.75" y="186.25" width="8.5" height="8.5" rx="0.75" transform="rotate(90 619.75 186.25)" stroke="#646464" stroke-width="0.5"/>
<rect x="656.75" y="161.25" width="6.5" height="6.5" rx="0.75" transform="rotate(90 656.75 161.25)" stroke="#646464" stroke-width="0.5"/>
<rect x="146.25" y="139.25" width="6.5" height="6.5" rx="0.75" stroke="#646464" stroke-width="0.5"/>
<line x1="291.75" y1="58" x2="291.75" y2="66" stroke="#646464" stroke-width="0.5"/>
<line x1="291.75" y1="72" x2="291.75" y2="80" stroke="#646464" stroke-width="0.5"/>
<line x1="303" y1="68.75" x2="295" y2="68.75" stroke="#646464" stroke-width="0.5"/>
<line x1="289" y1="68.75" x2="281" y2="68.75" stroke="#646464" stroke-width="0.5"/>
<path fill-rule="evenodd" clip-rule="evenodd" d="M467.728 343.97C467.728 345.928 466.145 347.516 464.192 347.516C462.24 347.516 460.657 345.928 460.657 343.97C460.657 342.011 462.24 340.423 464.192 340.423C466.145 340.423 467.728 342.011 467.728 343.97Z" fill="#1E1E1E"/>
<path fill-rule="evenodd" clip-rule="evenodd" d="M467.728 343.97C467.728 345.928 466.145 347.516 464.192 347.516C462.24 347.516 460.657 345.928 460.657 343.97C460.657 342.011 462.24 340.423 464.192 340.423C466.145 340.423 467.728 342.011 467.728 343.97Z" stroke="#646464" stroke-width="0.5" stroke-linecap="round" stroke-linejoin="round"/>
<path fill-rule="evenodd" clip-rule="evenodd" d="M504.484 333.84V306.63C504.484 303.83 502.201 301.54 499.41 301.54H479.85C477.059 301.54 474.776 303.83 474.776 306.63V333.561C474.776 333.561 476.071 343.78 463.935 343.78H467.728" fill="#1E1E1E"/>
<path d="M504.484 333.84V306.63C504.484 303.83 502.201 301.54 499.41 301.54H479.85C477.059 301.54 474.776 303.83 474.776 306.63V333.561C474.776 333.561 476.071 343.78 463.935 343.78H467.728" stroke="#646464" stroke-width="0.5" stroke-linecap="round" stroke-linejoin="round"/>
<path fill-rule="evenodd" clip-rule="evenodd" d="M494.199 321.271H484.827C484.169 321.271 483.63 320.732 483.63 320.074V310.667C483.63 310.007 484.169 309.468 484.827 309.468H494.199C494.857 309.468 495.396 310.007 495.396 310.667V320.074C495.396 320.732 494.857 321.271 494.199 321.271Z" fill="#1E1E1E"/>
<path fill-rule="evenodd" clip-rule="evenodd" d="M494.199 321.271H484.827C484.169 321.271 483.63 320.732 483.63 320.074V310.667C483.63 310.007 484.169 309.468 484.827 309.468H494.199C494.857 309.468 495.396 310.007 495.396 310.667V320.074C495.396 320.732 494.857 321.271 494.199 321.271Z" stroke="#646464" stroke-width="0.5" stroke-linecap="round" stroke-linejoin="round"/>
<path fill-rule="evenodd" clip-rule="evenodd" d="M494.199 339.741H484.827C484.169 339.741 483.63 339.202 483.63 338.543V329.137C483.63 328.477 484.169 327.938 484.827 327.938H494.199C494.857 327.938 495.396 328.477 495.396 329.137V338.543C495.396 339.202 494.857 339.741 494.199 339.741Z" fill="#1E1E1E"/>
<path fill-rule="evenodd" clip-rule="evenodd" d="M494.199 339.741H484.827C484.169 339.741 483.63 339.202 483.63 338.543V329.137C483.63 328.477 484.169 327.938 484.827 327.938H494.199C494.857 327.938 495.396 328.477 495.396 329.137V338.543C495.396 339.202 494.857 339.741 494.199 339.741Z" stroke="#646464" stroke-width="0.5" stroke-linecap="round" stroke-linejoin="round"/>
<path fill-rule="evenodd" clip-rule="evenodd" d="M235.453 349.485C235.453 351.443 233.87 353.031 231.917 353.031C229.965 353.031 228.382 351.443 228.382 349.485C228.382 347.526 229.965 345.938 231.917 345.938C233.87 345.938 235.453 347.526 235.453 349.485Z" fill="#1E1E1E"/>
<path fill-rule="evenodd" clip-rule="evenodd" d="M235.453 349.485C235.453 351.443 233.87 353.031 231.917 353.031C229.965 353.031 228.382 351.443 228.382 349.485C228.382 347.526 229.965 345.938 231.917 345.938C233.87 345.938 235.453 347.526 235.453 349.485Z" stroke="#646464" stroke-width="0.5" stroke-linecap="round" stroke-linejoin="round"/>
<path fill-rule="evenodd" clip-rule="evenodd" d="M272.209 339.354V312.143C272.209 309.344 269.926 307.054 267.135 307.054H247.575C244.784 307.054 242.501 309.344 242.501 312.143V339.075C242.501 339.075 243.796 349.293 231.66 349.293H235.453" fill="#1E1E1E"/>
<path d="M272.209 339.354V312.143C272.209 309.344 269.926 307.054 267.135 307.054H247.575C244.784 307.054 242.501 309.344 242.501 312.143V339.075C242.501 339.075 243.796 349.293 231.66 349.293H235.453" stroke="#646464" stroke-width="0.5" stroke-linecap="round" stroke-linejoin="round"/>
<path fill-rule="evenodd" clip-rule="evenodd" d="M261.924 326.786H252.553C251.894 326.786 251.355 326.247 251.355 325.588V316.182C251.355 315.522 251.894 314.983 252.553 314.983H261.924C262.582 314.983 263.121 315.522 263.121 316.182V325.588C263.121 326.247 262.582 326.786 261.924 326.786Z" fill="#1E1E1E"/>
<path fill-rule="evenodd" clip-rule="evenodd" d="M261.924 326.786H252.553C251.894 326.786 251.355 326.247 251.355 325.588V316.182C251.355 315.522 251.894 314.983 252.553 314.983H261.924C262.582 314.983 263.121 315.522 263.121 316.182V325.588C263.121 326.247 262.582 326.786 261.924 326.786Z" stroke="#646464" stroke-width="0.5" stroke-linecap="round" stroke-linejoin="round"/>
<path fill-rule="evenodd" clip-rule="evenodd" d="M261.924 345.256H252.553C251.894 345.256 251.355 344.717 251.355 344.058V334.651C251.355 333.992 251.894 333.453 252.553 333.453H261.924C262.582 333.453 263.121 333.992 263.121 334.651V344.058C263.121 344.717 262.582 345.256 261.924 345.256Z" fill="#1E1E1E"/>
<path fill-rule="evenodd" clip-rule="evenodd" d="M261.924 345.256H252.553C251.894 345.256 251.355 344.717 251.355 344.058V334.651C251.355 333.992 251.894 333.453 252.553 333.453H261.924C262.582 333.453 263.121 333.992 263.121 334.651V344.058C263.121 344.717 262.582 345.256 261.924 345.256Z" stroke="#646464" stroke-width="0.5" stroke-linecap="round" stroke-linejoin="round"/>
<path d="M396.382 339.618V343.256V348.948" stroke="#646464" stroke-width="0.5" stroke-linecap="round" stroke-linejoin="round"/>
<path fill-rule="evenodd" clip-rule="evenodd" d="M409.77 306.601H403.454C399.564 306.601 396.382 309.793 396.382 313.694V334.445" fill="#1E1E1E"/>
<path d="M409.77 306.601H403.454C399.564 306.601 396.382 309.793 396.382 313.694V334.445" stroke="#646464" stroke-width="0.5" stroke-linecap="round" stroke-linejoin="round"/>
<path d="M419.236 306.601H414.09" stroke="#646464" stroke-width="0.5" stroke-linecap="round" stroke-linejoin="round"/>
<path fill-rule="evenodd" clip-rule="evenodd" d="M426.541 306.601H435.526H444.07C444.07 306.601 451.077 306.073 451.077 312.805V357.236" fill="#1E1E1E"/>
<path d="M426.541 306.601H435.526H444.07C444.07 306.601 451.077 306.073 451.077 312.805V357.236" stroke="#646464" stroke-width="0.5" stroke-linecap="round" stroke-linejoin="round"/>
<path fill-rule="evenodd" clip-rule="evenodd" d="M418.039 333.106H408.668C408.009 333.106 407.47 332.567 407.47 331.909V322.502C407.47 321.842 408.009 321.303 408.668 321.303H418.039C418.698 321.303 419.236 321.842 419.236 322.502V331.909C419.236 332.567 418.698 333.106 418.039 333.106Z" fill="#1E1E1E"/>
<path fill-rule="evenodd" clip-rule="evenodd" d="M418.039 333.106H408.668C408.009 333.106 407.47 332.567 407.47 331.909V322.502C407.47 321.842 408.009 321.303 408.668 321.303H418.039C418.698 321.303 419.236 321.842 419.236 322.502V331.909C419.236 332.567 418.698 333.106 418.039 333.106Z" stroke="#646464" stroke-width="0.5" stroke-linecap="round" stroke-linejoin="round"/>
<path fill-rule="evenodd" clip-rule="evenodd" d="M418.039 353.3H408.668C408.009 353.3 407.47 352.761 407.47 352.102V342.695C407.47 342.036 408.009 341.497 408.668 341.497H418.039C418.698 341.497 419.236 342.036 419.236 342.695V352.102C419.236 352.761 418.698 353.3 418.039 353.3Z" fill="#1E1E1E"/>
<path fill-rule="evenodd" clip-rule="evenodd" d="M418.039 353.3H408.668C408.009 353.3 407.47 352.761 407.47 352.102V342.695C407.47 342.036 408.009 341.497 408.668 341.497H418.039C418.698 341.497 419.236 342.036 419.236 342.695V352.102C419.236 352.761 418.698 353.3 418.039 353.3Z" stroke="#646464" stroke-width="0.5" stroke-linecap="round" stroke-linejoin="round"/>
<path fill-rule="evenodd" clip-rule="evenodd" d="M440.942 333.106H431.571C430.912 333.106 430.373 332.567 430.373 331.909V322.502C430.373 321.842 430.912 321.303 431.57 321.303H440.942C441.6 321.303 442.139 321.842 442.139 322.502V331.909C442.139 332.567 441.6 333.106 440.942 333.106Z" fill="#1E1E1E"/>
<path fill-rule="evenodd" clip-rule="evenodd" d="M440.942 333.106H431.571C430.912 333.106 430.373 332.567 430.373 331.909V322.502C430.373 321.842 430.912 321.303 431.57 321.303H440.942C441.6 321.303 442.139 321.842 442.139 322.502V331.909C442.139 332.567 441.6 333.106 440.942 333.106Z" stroke="#646464" stroke-width="0.5" stroke-linecap="round" stroke-linejoin="round"/>
<path fill-rule="evenodd" clip-rule="evenodd" d="M663.636 396.628V402.972C663.636 404.833 665.157 406.355 667.019 406.355H671.641" fill="#1E1E1E"/>
<path d="M663.636 396.628V402.972C663.636 404.833 665.157 406.355 667.019 406.355H671.641" stroke="#646464" stroke-width="0.5" stroke-linecap="round" stroke-linejoin="round"/>
<path d="M663.636 390.301V394.94" stroke="#646464" stroke-width="0.5" stroke-linecap="round" stroke-linejoin="round"/>
<path d="M663.636 377.156V379.356V386.092" stroke="#646464" stroke-width="0.5" stroke-linecap="round" stroke-linejoin="round"/>
<path fill-rule="evenodd" clip-rule="evenodd" d="M664.068 361.184C663.793 361.673 663.635 362.237 663.635 362.835V371.836" fill="#1E1E1E"/>
<path d="M664.068 361.184C663.793 361.673 663.635 362.237 663.635 362.835V371.836" stroke="#646464" stroke-width="0.5" stroke-linecap="round" stroke-linejoin="round"/>
<path fill-rule="evenodd" clip-rule="evenodd" d="M680.689 396.628V402.972C680.689 404.833 679.167 406.355 677.306 406.355H672.683" fill="#1E1E1E"/>
<path d="M680.689 396.628V402.972C680.689 404.833 679.167 406.355 677.306 406.355H672.683" stroke="#646464" stroke-width="0.5" stroke-linecap="round" stroke-linejoin="round"/>
<path d="M680.689 386.091V394.939" stroke="#646464" stroke-width="0.5" stroke-linecap="round" stroke-linejoin="round"/>
<path d="M680.689 383.596V379.356V383.596" stroke="#646464" stroke-width="0.5" stroke-linecap="round" stroke-linejoin="round"/>
<path fill-rule="evenodd" clip-rule="evenodd" d="M667.816 355.641V359.453H667.019C666.198 359.453 665.442 359.748 664.854 360.24" fill="#1E1E1E"/>
<path d="M667.816 355.641V359.453H667.019C666.198 359.453 665.442 359.748 664.854 360.24" stroke="#646464" stroke-width="0.5" stroke-linecap="round" stroke-linejoin="round"/>
<path d="M667.815 320.591V354.284" stroke="#646464" stroke-width="0.5" stroke-linecap="round" stroke-linejoin="round"/>
<path d="M667.815 312.279V315.116" stroke="#646464" stroke-width="0.5" stroke-linecap="round" stroke-linejoin="round"/>
<path d="M667.815 293.718V295.783V306.444" stroke="#646464" stroke-width="0.5" stroke-linecap="round" stroke-linejoin="round"/>
<path d="M657.131 268.422H660.441H661.297" stroke="#646464" stroke-width="0.5" stroke-linecap="round" stroke-linejoin="round"/>
<path d="M670.448 268.461H673.758H672.877" stroke="#646464" stroke-width="0.5" stroke-linecap="round" stroke-linejoin="round"/>
<path d="M661.297 263.551H655.393" stroke="#646464" stroke-width="0.5" stroke-linecap="round" stroke-linejoin="round"/>
<path d="M675.18 263.551H671.5" stroke="#646464" stroke-width="0.5" stroke-linecap="round" stroke-linejoin="round"/>
<path d="M689.062 263.551H686.916" stroke="#646464" stroke-width="0.5" stroke-linecap="round" stroke-linejoin="round"/>
<path d="M685.218 268.422H689.062" stroke="#646464" stroke-width="0.5" stroke-linecap="round" stroke-linejoin="round"/>
<path d="M676.687 286.393V284.255" stroke="#646464" stroke-width="0.5" stroke-linecap="round" stroke-linejoin="round"/>
<path d="M676.687 293.761V288.863" stroke="#646464" stroke-width="0.5" stroke-linecap="round" stroke-linejoin="round"/>
<path d="M676.687 303.315V293.364" stroke="#646464" stroke-width="0.5" stroke-linecap="round" stroke-linejoin="round"/>
<path d="M676.687 349.138V321.557" stroke="#646464" stroke-width="0.5" stroke-linecap="round" stroke-linejoin="round"/>
<path fill-rule="evenodd" clip-rule="evenodd" d="M677.483 359.453H676.686V352.016" fill="#1E1E1E"/>
<path d="M677.483 359.453H676.686V352.016" stroke="#646464" stroke-width="0.5" stroke-linecap="round" stroke-linejoin="round"/>
<path fill-rule="evenodd" clip-rule="evenodd" d="M646.568 252.507V244.377C646.568 243.534 647.256 242.846 648.099 242.846H653.861C654.704 242.846 655.392 243.534 655.392 244.377V264.5" fill="#1E1E1E"/>
<path d="M646.568 252.507V244.377C646.568 243.534 647.256 242.846 648.099 242.846H653.861C654.704 242.846 655.392 243.534 655.392 244.377V264.5" stroke="#646464" stroke-width="0.5" stroke-linecap="round" stroke-linejoin="round"/>
<path d="M646.568 269.366V265.215V255.562" stroke="#646464" stroke-width="0.5" stroke-linecap="round" stroke-linejoin="round"/>
<path fill-rule="evenodd" clip-rule="evenodd" d="M655.393 269.761V273.27V288.863C655.393 288.863 655.455 290.712 653.543 290.712H648.009C648.009 290.712 646.569 290.776 646.569 289.273V275.611" fill="#1E1E1E"/>
<path d="M655.393 269.761V273.27V288.863C655.393 288.863 655.455 290.712 653.543 290.712H648.009C648.009 290.712 646.569 290.776 646.569 289.273V275.611" stroke="#646464" stroke-width="0.5" stroke-linecap="round" stroke-linejoin="round"/>
<path d="M670.122 245.422V251.151V256.666V261.673V269.366V273.326" stroke="#646464" stroke-width="0.5" stroke-linecap="round" stroke-linejoin="round"/>
<path fill-rule="evenodd" clip-rule="evenodd" d="M661.297 256.463V251.49V246.285V238.042C661.297 237.2 661.986 236.511 662.828 236.511H668.59C669.433 236.511 670.122 237.2 670.122 238.042V242.325" fill="#1E1E1E"/>
<path d="M661.297 256.463V251.49V246.285V238.042C661.297 237.2 661.986 236.511 662.828 236.511H668.59C669.433 236.511 670.122 237.2 670.122 238.042V242.325" stroke="#646464" stroke-width="0.5" stroke-linecap="round" stroke-linejoin="round"/>
<path fill-rule="evenodd" clip-rule="evenodd" d="M661.297 259.297V273.271V282.75C661.297 282.75 661.596 284.256 663.922 284.256" fill="#1E1E1E"/>
<path d="M661.297 259.297V273.271V282.75C661.297 282.75 661.596 284.256 663.922 284.256" stroke="#646464" stroke-width="0.5" stroke-linecap="round" stroke-linejoin="round"/>
<path fill-rule="evenodd" clip-rule="evenodd" d="M670.122 279.095V282.724C670.122 283.566 669.716 284.255 668.874 284.255" fill="#1E1E1E"/>
<path d="M670.122 279.095V282.724C670.122 283.566 669.716 284.255 668.874 284.255" stroke="#646464" stroke-width="0.5" stroke-linecap="round" stroke-linejoin="round"/>
<path d="M675.18 273.75V249.312" stroke="#646464" stroke-width="0.5" stroke-linecap="round" stroke-linejoin="round"/>
<path fill-rule="evenodd" clip-rule="evenodd" d="M684.004 273.326V282.724C684.004 283.566 683.316 284.256 682.473 284.256H676.711C675.868 284.256 675.18 283.566 675.18 282.724V276.126" fill="#1E1E1E"/>
<path d="M684.004 273.326V282.724C684.004 283.566 683.316 284.256 682.473 284.256H676.711C675.868 284.256 675.18 283.566 675.18 282.724V276.126" stroke="#646464" stroke-width="0.5" stroke-linecap="round" stroke-linejoin="round"/>
<path d="M684.004 265.214V269.761" stroke="#646464" stroke-width="0.5" stroke-linecap="round" stroke-linejoin="round"/>
<path d="M684.004 250.923V253.673V261.53" stroke="#646464" stroke-width="0.5" stroke-linecap="round" stroke-linejoin="round"/>
<path fill-rule="evenodd" clip-rule="evenodd" d="M675.18 247.784V238.042C675.18 237.2 675.868 236.511 676.711 236.511H682.473C683.316 236.511 684.004 237.2 684.004 238.042V244.984V249.311" fill="#1E1E1E"/>
<path d="M675.18 247.784V238.042C675.18 237.2 675.868 236.511 676.711 236.511H682.473C683.316 236.511 684.004 237.2 684.004 238.042V244.984V249.311" stroke="#646464" stroke-width="0.5" stroke-linecap="round" stroke-linejoin="round"/>
<path fill-rule="evenodd" clip-rule="evenodd" d="M689.062 244.378C689.062 243.535 689.751 242.847 690.593 242.847H696.356C697.198 242.847 697.887 243.535 697.887 244.378V246.486V247.836V256.463" fill="#1E1E1E"/>
<path d="M689.062 244.378C689.062 243.535 689.751 242.847 690.593 242.847H696.356C697.198 242.847 697.887 243.535 697.887 244.378V246.486V247.836V256.463" stroke="#646464" stroke-width="0.5" stroke-linecap="round" stroke-linejoin="round"/>
<path d="M689.062 275.611V247.666" stroke="#646464" stroke-width="0.5" stroke-linecap="round" stroke-linejoin="round"/>
<path fill-rule="evenodd" clip-rule="evenodd" d="M697.887 259.297V275.277V283.05V289.06C697.887 289.902 697.198 290.591 696.356 290.591H690.593C689.751 290.591 689.062 289.902 689.062 289.06V277.479" fill="#1E1E1E"/>
<path d="M697.887 259.297V275.277V283.05V289.06C697.887 289.902 697.198 290.591 696.356 290.591H690.593C689.751 290.591 689.062 289.902 689.062 289.06V277.479" stroke="#646464" stroke-width="0.5" stroke-linecap="round" stroke-linejoin="round"/>
<path d="M676.687 317.896V313.049" stroke="#646464" stroke-width="0.5" stroke-linecap="round" stroke-linejoin="round"/>
<path d="M722.5 412.315L648.627 412.248" stroke="#646464" stroke-width="0.5" stroke-linecap="round" stroke-linejoin="round"/>
<path d="M332.028 412.248L155.5 412.315" stroke="#646464" stroke-width="0.5" stroke-linecap="round" stroke-linejoin="round"/>
<path d="M398.156 412.248H335.176" stroke="#646464" stroke-width="0.5" stroke-linecap="round" stroke-linejoin="round"/>
<path d="M482.57 412.248H412.584" stroke="#646464" stroke-width="0.5" stroke-linecap="round" stroke-linejoin="round"/>
<path d="M596.841 412.248H500.635" stroke="#646464" stroke-width="0.5" stroke-linecap="round" stroke-linejoin="round"/>
<path d="M631.68 381.13V375.419" stroke="#646464" stroke-width="0.5" stroke-linecap="round" stroke-linejoin="round"/>
<path fill-rule="evenodd" clip-rule="evenodd" d="M634.23 372.869C634.23 374.278 633.088 375.42 631.679 375.42C630.27 375.42 629.128 374.278 629.128 372.869C629.128 371.46 630.27 370.318 631.679 370.318C633.088 370.318 634.23 371.46 634.23 372.869Z" fill="#1E1E1E"/>
<path fill-rule="evenodd" clip-rule="evenodd" d="M634.23 372.869C634.23 374.278 633.088 375.42 631.679 375.42C630.27 375.42 629.128 374.278 629.128 372.869C629.128 371.46 630.27 370.318 631.679 370.318C633.088 370.318 634.23 371.46 634.23 372.869Z" stroke="#646464" stroke-width="0.5" stroke-linecap="round" stroke-linejoin="round"/>
<path fill-rule="evenodd" clip-rule="evenodd" d="M608.706 415.076C608.706 417.696 606.582 419.82 603.962 419.82C601.342 419.82 599.218 417.696 599.218 415.076C599.218 412.456 601.342 410.332 603.962 410.332C606.582 410.332 608.706 412.456 608.706 415.076Z" fill="#1E1E1E"/>
<path fill-rule="evenodd" clip-rule="evenodd" d="M608.706 415.076C608.706 417.696 606.582 419.82 603.962 419.82C601.342 419.82 599.218 417.696 599.218 415.076C599.218 412.456 601.342 410.332 603.962 410.332C606.582 410.332 608.706 412.456 608.706 415.076Z" stroke="#646464" stroke-width="0.5" stroke-linecap="round" stroke-linejoin="round"/>
<path fill-rule="evenodd" clip-rule="evenodd" d="M645.924 411.345C645.924 416.06 642.103 419.881 637.389 419.881C632.675 419.881 628.853 416.06 628.853 411.345C628.853 406.631 632.675 402.81 637.389 402.81C642.103 402.81 645.924 406.631 645.924 411.345Z" fill="#1E1E1E"/>
<path fill-rule="evenodd" clip-rule="evenodd" d="M645.924 411.345C645.924 416.06 642.103 419.881 637.389 419.881C632.675 419.881 628.853 416.06 628.853 411.345C628.853 406.631 632.675 402.81 637.389 402.81C642.103 402.81 645.924 406.631 645.924 411.345Z" stroke="#646464" stroke-width="0.5" stroke-linecap="round" stroke-linejoin="round"/>
<path fill-rule="evenodd" clip-rule="evenodd" d="M646.839 401.045C649.164 403.207 650.021 405.529 650.021 405.529L646.839 401.045Z" fill="#1E1E1E"/>
<path d="M646.839 401.045C649.164 403.207 650.021 405.529 650.021 405.529" stroke="#646464" stroke-width="0.5" stroke-linecap="round" stroke-linejoin="round"/>
<path fill-rule="evenodd" clip-rule="evenodd" d="M639.32 397.553C640.012 397.647 640.664 397.782 641.277 397.952C641.94 398.135 642.559 398.358 643.134 398.61C643.542 398.788 643.927 398.982 644.292 399.186C644.611 399.365 644.915 399.552 645.204 399.746" fill="#1E1E1E"/>
<path d="M639.32 397.553C640.012 397.647 640.664 397.782 641.277 397.952C641.94 398.135 642.559 398.358 643.134 398.61C643.542 398.788 643.927 398.982 644.292 399.186C644.611 399.365 644.915 399.552 645.204 399.746" stroke="#646464" stroke-width="0.5" stroke-linecap="round" stroke-linejoin="round"/>
<path fill-rule="evenodd" clip-rule="evenodd" d="M632.62 398.213C633.431 397.895 634.316 397.652 635.281 397.519C635.835 397.442 636.414 397.401 637.019 397.401" fill="#1E1E1E"/>
<path d="M632.62 398.213C633.431 397.895 634.316 397.652 635.281 397.519C635.835 397.442 636.414 397.401 637.019 397.401" stroke="#646464" stroke-width="0.5" stroke-linecap="round" stroke-linejoin="round"/>
<path fill-rule="evenodd" clip-rule="evenodd" d="M628.852 400.586C629.123 400.34 629.41 400.099 629.713 399.865L628.852 400.586Z" fill="#1E1E1E"/>
<path d="M628.852 400.586C629.123 400.34 629.41 400.099 629.713 399.865" stroke="#646464" stroke-width="0.5" stroke-linecap="round" stroke-linejoin="round"/>
<path fill-rule="evenodd" clip-rule="evenodd" d="M613.49 398.527C614.285 398.42 615.065 398.315 615.804 398.216C616.63 398.107 617.404 398.006 618.088 397.916C619.777 397.695 620.914 397.55 620.914 397.55C620.914 397.55 625.257 396.62 625.257 400.109V401.979V402.81V404.186V405.594C625.257 405.594 625.51 404.953 626.061 404.029C626.281 403.66 626.55 403.246 626.868 402.808" fill="#1E1E1E"/>
<path d="M613.49 398.527C614.285 398.42 615.065 398.315 615.804 398.216C616.63 398.107 617.404 398.006 618.088 397.916C619.777 397.695 620.914 397.55 620.914 397.55C620.914 397.55 625.257 396.62 625.257 400.109V401.979V402.81V404.186V405.594C625.257 405.594 625.51 404.953 626.061 404.029C626.281 403.66 626.55 403.246 626.868 402.808" stroke="#646464" stroke-width="0.5" stroke-linecap="round" stroke-linejoin="round"/>
<path fill-rule="evenodd" clip-rule="evenodd" d="M609.774 399.039C610.331 398.96 610.903 398.881 611.479 398.801L609.774 399.039Z" fill="#1E1E1E"/>
<path d="M609.774 399.039C610.331 398.96 610.903 398.881 611.479 398.801" stroke="#646464" stroke-width="0.5" stroke-linecap="round" stroke-linejoin="round"/>
<path fill-rule="evenodd" clip-rule="evenodd" d="M600.699 403.288C601.594 401.786 602.35 400.69 602.727 400.464C603.101 400.24 603.514 400.057 603.962 399.954C604.64 399.799 606.317 399.536 608.366 399.239" fill="#1E1E1E"/>
<path d="M600.699 403.288C601.594 401.786 602.35 400.69 602.727 400.464C603.101 400.24 603.514 400.057 603.962 399.954C604.64 399.799 606.317 399.536 608.366 399.239" stroke="#646464" stroke-width="0.5" stroke-linecap="round" stroke-linejoin="round"/>
<path fill-rule="evenodd" clip-rule="evenodd" d="M598.705 406.872C598.875 406.548 599.047 406.227 599.218 405.911C599.541 405.312 599.863 404.731 600.176 404.186" fill="#1E1E1E"/>
<path d="M598.705 406.872C598.875 406.548 599.047 406.227 599.218 405.911C599.541 405.312 599.863 404.731 600.176 404.186" stroke="#646464" stroke-width="0.5" stroke-linecap="round" stroke-linejoin="round"/>
<path fill-rule="evenodd" clip-rule="evenodd" d="M599.218 415.084H595.168V415.068C595.168 414.66 595.471 413.761 595.956 412.598C596.24 411.917 596.587 411.146 596.973 410.332" fill="#1E1E1E"/>
<path d="M599.218 415.084H595.168V415.068C595.168 414.66 595.471 413.761 595.956 412.598C596.24 411.917 596.587 411.146 596.973 410.332" stroke="#646464" stroke-width="0.5" stroke-linecap="round" stroke-linejoin="round"/>
<path d="M616.908 415.076H629.716" stroke="#646464" stroke-width="0.5" stroke-linecap="round" stroke-linejoin="round"/>
<path d="M611.149 415.076H614.912" stroke="#646464" stroke-width="0.5" stroke-linecap="round" stroke-linejoin="round"/>
<path fill-rule="evenodd" clip-rule="evenodd" d="M624.326 398.028L626.148 396.775L624.326 398.028Z" fill="#1E1E1E"/>
<path d="M624.326 398.028L626.148 396.775" stroke="#646464" stroke-width="0.5" stroke-linecap="round" stroke-linejoin="round"/>
<path fill-rule="evenodd" clip-rule="evenodd" d="M625.237 395.611L626.884 397.667L625.237 395.611Z" fill="#1E1E1E"/>
<path d="M625.237 395.611L626.884 397.667" stroke="#646464" stroke-width="0.5" stroke-linecap="round" stroke-linejoin="round"/>
<path fill-rule="evenodd" clip-rule="evenodd" d="M619.697 393.817L619.336 394.918L619.18 395.389" fill="#1E1E1E"/>
<path d="M619.697 393.817L619.336 394.918L619.18 395.389" stroke="#646464" stroke-width="0.5" stroke-linecap="round" stroke-linejoin="round"/>
<path fill-rule="evenodd" clip-rule="evenodd" d="M621.203 389.239L620.611 391.039L620.175 392.367" fill="#1E1E1E"/>
<path d="M621.203 389.239L620.611 391.039L620.175 392.367" stroke="#646464" stroke-width="0.5" stroke-linecap="round" stroke-linejoin="round"/>
<path fill-rule="evenodd" clip-rule="evenodd" d="M642.121 398.217L639.959 382.304C639.875 381.69 639.35 381.232 638.731 381.232H622.516C621.98 381.232 621.506 381.575 621.339 382.083L621.301 382.2C621.109 382.782 621.372 383.417 621.919 383.693C622.466 383.969 622.728 384.604 622.537 385.186L621.882 387.179" fill="#1E1E1E"/>
<path d="M642.121 398.217L639.959 382.304C639.875 381.69 639.35 381.232 638.731 381.232H622.516C621.98 381.232 621.506 381.575 621.339 382.083L621.301 382.2C621.109 382.782 621.372 383.417 621.919 383.693C622.466 383.969 622.728 384.604 622.537 385.186L621.882 387.179" stroke="#646464" stroke-width="0.5" stroke-linecap="round" stroke-linejoin="round"/>
<path fill-rule="evenodd" clip-rule="evenodd" d="M610.468 306.574H621.209C623.223 306.574 624.87 308.221 624.87 310.234V323.792" fill="#1E1E1E"/>
<path d="M610.468 306.574H621.209C623.223 306.574 624.87 308.221 624.87 310.234V323.792" stroke="#646464" stroke-width="0.5" stroke-linecap="round" stroke-linejoin="round"/>
<path d="M603.436 324.051V311.74" stroke="#646464" stroke-width="0.5" stroke-linecap="round" stroke-linejoin="round"/>
<path fill-rule="evenodd" clip-rule="evenodd" d="M611.46 320.767H617.014C617.821 320.767 618.481 320.106 618.481 319.298V313.746C618.481 312.938 617.821 312.277 617.014 312.277H611.46C610.652 312.277 609.992 312.938 609.992 313.746V319.298C609.992 320.106 610.652 320.767 611.46 320.767Z" fill="#1E1E1E"/>
<path fill-rule="evenodd" clip-rule="evenodd" d="M611.46 320.767H617.014C617.821 320.767 618.481 320.106 618.481 319.298V313.746C618.481 312.938 617.821 312.277 617.014 312.277H611.46C610.652 312.277 609.992 312.938 609.992 313.746V319.298C609.992 320.106 610.652 320.767 611.46 320.767Z" stroke="#646464" stroke-width="0.5" stroke-linecap="round" stroke-linejoin="round"/>
<path d="M556.521 325.087V331.199" stroke="#646464" stroke-width="0.5" stroke-linecap="round" stroke-linejoin="round"/>
<path fill-rule="evenodd" clip-rule="evenodd" d="M575.105 314.912H567.816H564.521H561.623C558.817 314.912 556.521 317.208 556.521 320.014V323.197" fill="#1E1E1E"/>
<path d="M575.105 314.912H567.816H564.521H561.623C558.817 314.912 556.521 317.208 556.521 320.014V323.197" stroke="#646464" stroke-width="0.5" stroke-linecap="round" stroke-linejoin="round"/>
<path fill-rule="evenodd" clip-rule="evenodd" d="M592.022 330.608V320.013C592.022 317.208 589.726 314.912 586.919 314.912H580.702H577.78" fill="#1E1E1E"/>
<path d="M592.022 330.608V320.013C592.022 317.208 589.726 314.912 586.919 314.912H580.702H577.78" stroke="#646464" stroke-width="0.5" stroke-linecap="round" stroke-linejoin="round"/>
<path d="M592.028 336.089V331.914" stroke="#646464" stroke-width="0.5" stroke-linecap="round" stroke-linejoin="round"/>
<path d="M592.028 356.366V337.311" stroke="#646464" stroke-width="0.5" stroke-linecap="round" stroke-linejoin="round"/>
<path fill-rule="evenodd" clip-rule="evenodd" d="M571.543 333.977H565.99C565.183 333.977 564.522 333.317 564.522 332.509V326.956C564.522 326.148 565.183 325.488 565.99 325.488H571.543C572.351 325.488 573.012 326.148 573.012 326.956V332.509C573.012 333.317 572.351 333.977 571.543 333.977Z" fill="#1E1E1E"/>
<path fill-rule="evenodd" clip-rule="evenodd" d="M571.543 333.977H565.99C565.183 333.977 564.522 333.317 564.522 332.509V326.956C564.522 326.148 565.183 325.488 565.99 325.488H571.543C572.351 325.488 573.012 326.148 573.012 326.956V332.509C573.012 333.317 572.351 333.977 571.543 333.977Z" stroke="#646464" stroke-width="0.5" stroke-linecap="round" stroke-linejoin="round"/>
<path fill-rule="evenodd" clip-rule="evenodd" d="M571.543 345.801H565.99C565.183 345.801 564.522 345.14 564.522 344.332V338.78C564.522 337.972 565.183 337.311 565.99 337.311H571.543C572.351 337.311 573.012 337.972 573.012 338.78V344.332C573.012 345.14 572.351 345.801 571.543 345.801Z" fill="#1E1E1E"/>
<path fill-rule="evenodd" clip-rule="evenodd" d="M571.543 345.801H565.99C565.183 345.801 564.522 345.14 564.522 344.332V338.78C564.522 337.972 565.183 337.311 565.99 337.311H571.543C572.351 337.311 573.012 337.972 573.012 338.78V344.332C573.012 345.14 572.351 345.801 571.543 345.801Z" stroke="#646464" stroke-width="0.5" stroke-linecap="round" stroke-linejoin="round"/>
<path fill-rule="evenodd" clip-rule="evenodd" d="M584.059 333.977H578.506C577.699 333.977 577.038 333.317 577.038 332.509V326.956C577.038 326.148 577.699 325.488 578.506 325.488H584.059C584.867 325.488 585.528 326.148 585.528 326.956V332.509C585.528 333.317 584.867 333.977 584.059 333.977Z" fill="#1E1E1E"/>
<path fill-rule="evenodd" clip-rule="evenodd" d="M584.059 333.977H578.506C577.699 333.977 577.038 333.317 577.038 332.509V326.956C577.038 326.148 577.699 325.488 578.506 325.488H584.059C584.867 325.488 585.528 326.148 585.528 326.956V332.509C585.528 333.317 584.867 333.977 584.059 333.977Z" stroke="#646464" stroke-width="0.5" stroke-linecap="round" stroke-linejoin="round"/>
<path fill-rule="evenodd" clip-rule="evenodd" d="M589.478 359.647C589.478 361.056 590.621 362.198 592.029 362.198C593.438 362.198 594.581 361.056 594.581 359.647C594.581 358.238 593.438 357.096 592.029 357.096C590.621 357.096 589.478 358.238 589.478 359.647Z" fill="#1E1E1E"/>
<path fill-rule="evenodd" clip-rule="evenodd" d="M589.478 359.647C589.478 361.056 590.621 362.198 592.029 362.198C593.438 362.198 594.581 361.056 594.581 359.647C594.581 358.238 593.438 357.096 592.029 357.096C590.621 357.096 589.478 358.238 589.478 359.647Z" stroke="#646464" stroke-width="0.5" stroke-linecap="round" stroke-linejoin="round"/>
<path d="M599.574 351.343V346.005" stroke="#646464" stroke-width="0.5" stroke-linecap="round" stroke-linejoin="round"/>
<path fill-rule="evenodd" clip-rule="evenodd" d="M592.999 367.817C600.532 367.817 599.574 361.36 599.574 361.36V353.826" fill="#1E1E1E"/>
<path d="M592.999 367.817C600.532 367.817 599.574 361.36 599.574 361.36V353.826" stroke="#646464" stroke-width="0.5" stroke-linecap="round" stroke-linejoin="round"/>
<path d="M639.085 356.752V389.725" stroke="#646464" stroke-width="0.5" stroke-linecap="round" stroke-linejoin="round"/>
<path fill-rule="evenodd" clip-rule="evenodd" d="M599.574 341.674V331.079C599.574 328.274 601.87 325.978 604.677 325.978H633.982C636.789 325.978 639.085 328.274 639.085 331.079V352.997" fill="#1E1E1E"/>
<path d="M599.574 341.674V331.079C599.574 328.274 601.87 325.978 604.677 325.978H633.982C636.789 325.978 639.085 328.274 639.085 331.079V352.997" stroke="#646464" stroke-width="0.5" stroke-linecap="round" stroke-linejoin="round"/>
<path fill-rule="evenodd" clip-rule="evenodd" d="M624.063 345.043H629.616C630.423 345.043 631.084 344.383 631.084 343.575V338.022C631.084 337.214 630.423 336.554 629.616 336.554H624.063C623.254 336.554 622.594 337.214 622.594 338.022V343.575C622.594 344.383 623.254 345.043 624.063 345.043Z" fill="#1E1E1E"/>
<path fill-rule="evenodd" clip-rule="evenodd" d="M624.063 345.043H629.616C630.423 345.043 631.084 344.383 631.084 343.575V338.022C631.084 337.214 630.423 336.554 629.616 336.554H624.063C623.254 336.554 622.594 337.214 622.594 338.022V343.575C622.594 344.383 623.254 345.043 624.063 345.043Z" stroke="#646464" stroke-width="0.5" stroke-linecap="round" stroke-linejoin="round"/>
<path fill-rule="evenodd" clip-rule="evenodd" d="M624.063 359.569H629.616C630.423 359.569 631.084 358.908 631.084 358.1V352.548C631.084 351.74 630.423 351.079 629.616 351.079H624.063C623.254 351.079 622.594 351.74 622.594 352.548V358.1C622.594 358.908 623.254 359.569 624.063 359.569Z" fill="#1E1E1E"/>
<path fill-rule="evenodd" clip-rule="evenodd" d="M624.063 359.569H629.616C630.423 359.569 631.084 358.908 631.084 358.1V352.548C631.084 351.74 630.423 351.079 629.616 351.079H624.063C623.254 351.079 622.594 351.74 622.594 352.548V358.1C622.594 358.908 623.254 359.569 624.063 359.569Z" stroke="#646464" stroke-width="0.5" stroke-linecap="round" stroke-linejoin="round"/>
<path fill-rule="evenodd" clip-rule="evenodd" d="M607.538 345.043H613.091C613.898 345.043 614.559 344.383 614.559 343.575V338.022C614.559 337.214 613.898 336.554 613.091 336.554H607.538C606.73 336.554 606.069 337.214 606.069 338.022V343.575C606.069 344.383 606.73 345.043 607.538 345.043Z" fill="#1E1E1E"/>
<path fill-rule="evenodd" clip-rule="evenodd" d="M607.538 345.043H613.091C613.898 345.043 614.559 344.383 614.559 343.575V338.022C614.559 337.214 613.898 336.554 613.091 336.554H607.538C606.73 336.554 606.069 337.214 606.069 338.022V343.575C606.069 344.383 606.73 345.043 607.538 345.043Z" stroke="#646464" stroke-width="0.5" stroke-linecap="round" stroke-linejoin="round"/>
<path fill-rule="evenodd" clip-rule="evenodd" d="M603.789 407.185V381.041C603.789 378.493 602.468 376.126 600.299 374.788L574.043 358.588C571.687 357.135 568.716 357.128 566.353 358.572L538.875 375.36C536.69 376.695 535.357 379.071 535.357 381.63V407.185" fill="#1E1E1E"/>
<path d="M603.789 407.185V381.041C603.789 378.493 602.468 376.126 600.299 374.788L574.043 358.588C571.687 357.135 568.716 357.128 566.353 358.572L538.875 375.36C536.69 376.695 535.357 379.071 535.357 381.63V407.185" stroke="#646464" stroke-width="0.5" stroke-linecap="round" stroke-linejoin="round"/>
<path fill-rule="evenodd" clip-rule="evenodd" d="M591.866 407.185V382.245C591.866 381.295 591.09 380.519 590.14 380.519H550.266C549.317 380.519 548.542 381.295 548.542 382.245V407.185" fill="#1E1E1E"/>
<path d="M591.866 407.185V382.245C591.866 381.295 591.09 380.519 590.14 380.519H550.266C549.317 380.519 548.542 381.295 548.542 382.245V407.185" stroke="#646464" stroke-width="0.5" stroke-linecap="round" stroke-linejoin="round"/>
<path fill-rule="evenodd" clip-rule="evenodd" d="M561.434 304.426V301.218C561.434 298.412 559.138 296.116 556.331 296.116H541.291C538.485 296.116 536.189 298.412 536.189 302.438V307.474V310.143V311.751" fill="#1E1E1E"/>
<path d="M561.434 304.426V301.218C561.434 298.412 559.138 296.116 556.331 296.116H541.291C538.485 296.116 536.189 298.412 536.189 302.438V307.474V310.143V311.751" stroke="#646464" stroke-width="0.5" stroke-linecap="round" stroke-linejoin="round"/>
<path d="M561.435 311.528V308.759" stroke="#646464" stroke-width="0.5" stroke-linecap="round" stroke-linejoin="round"/>
<path fill-rule="evenodd" clip-rule="evenodd" d="M546.035 310.853H551.589C552.396 310.853 553.057 310.192 553.057 309.384V303.832C553.057 303.024 552.396 302.363 551.589 302.363H546.035C545.227 302.363 544.567 303.024 544.567 303.832V309.384C544.567 310.192 545.227 310.853 546.035 310.853Z" fill="#1E1E1E"/>
<path fill-rule="evenodd" clip-rule="evenodd" d="M546.035 310.853H551.589C552.396 310.853 553.057 310.192 553.057 309.384V303.832C553.057 303.024 552.396 302.363 551.589 302.363H546.035C545.227 302.363 544.567 303.024 544.567 303.832V309.384C544.567 310.192 545.227 310.853 546.035 310.853Z" stroke="#646464" stroke-width="0.5" stroke-linecap="round" stroke-linejoin="round"/>
<path fill-rule="evenodd" clip-rule="evenodd" d="M525.165 352.874V342.324C525.165 340.311 526.812 338.664 528.826 338.664H557.104C559.118 338.664 560.766 340.311 560.766 342.324V356.767" fill="#1E1E1E"/>
<path d="M525.165 352.874V342.324C525.165 340.311 526.812 338.664 528.826 338.664H557.104C559.118 338.664 560.766 340.311 560.766 342.324V356.767" stroke="#646464" stroke-width="0.5" stroke-linecap="round" stroke-linejoin="round"/>
<path fill-rule="evenodd" clip-rule="evenodd" d="M547.06 352.93H552.614C553.421 352.93 554.081 352.27 554.081 351.462V345.909C554.081 345.101 553.421 344.441 552.614 344.441H547.06C546.252 344.441 545.592 345.101 545.592 345.909V351.462C545.592 352.27 546.252 352.93 547.06 352.93Z" fill="#1E1E1E"/>
<path fill-rule="evenodd" clip-rule="evenodd" d="M547.06 352.93H552.614C553.421 352.93 554.081 352.27 554.081 351.462V345.909C554.081 345.101 553.421 344.441 552.614 344.441H547.06C546.252 344.441 545.592 345.101 545.592 345.909V351.462C545.592 352.27 546.252 352.93 547.06 352.93Z" stroke="#646464" stroke-width="0.5" stroke-linecap="round" stroke-linejoin="round"/>
<path d="M570.204 357.101V353.517" stroke="#646464" stroke-width="0.5" stroke-linecap="round" stroke-linejoin="round"/>
<path fill-rule="evenodd" clip-rule="evenodd" d="M567.652 351.444C567.652 352.853 568.795 353.995 570.204 353.995C571.612 353.995 572.755 352.853 572.755 351.444C572.755 350.035 571.612 348.893 570.204 348.893C568.795 348.893 567.652 350.035 567.652 351.444Z" fill="#1E1E1E"/>
<path fill-rule="evenodd" clip-rule="evenodd" d="M567.652 351.444C567.652 352.853 568.795 353.995 570.204 353.995C571.612 353.995 572.755 352.853 572.755 351.444C572.755 350.035 571.612 348.893 570.204 348.893C568.795 348.893 567.652 350.035 567.652 351.444Z" stroke="#646464" stroke-width="0.5" stroke-linecap="round" stroke-linejoin="round"/>
<path d="M591.866 384.755H548.542" stroke="#646464" stroke-width="0.5" stroke-linecap="round" stroke-linejoin="round"/>
<path d="M591.866 389.467H548.542" stroke="#646464" stroke-width="0.5" stroke-linecap="round" stroke-linejoin="round"/>
<path d="M591.866 394.18H548.542" stroke="#646464" stroke-width="0.5" stroke-linecap="round" stroke-linejoin="round"/>
<path d="M591.866 398.893H548.542" stroke="#646464" stroke-width="0.5" stroke-linecap="round" stroke-linejoin="round"/>
<path d="M591.866 403.606H548.542" stroke="#646464" stroke-width="0.5" stroke-linecap="round" stroke-linejoin="round"/>
<path fill-rule="evenodd" clip-rule="evenodd" d="M191.229 322.235H199.312L201.725 364.655H188.816L191.229 322.235Z" fill="#1E1E1E"/>
<path fill-rule="evenodd" clip-rule="evenodd" d="M191.229 322.235H199.312L201.725 364.655H188.816L191.229 322.235Z" stroke="#646464" stroke-width="0.5" stroke-linecap="round" stroke-linejoin="round"/>
<path fill-rule="evenodd" clip-rule="evenodd" d="M205.395 330.67H211.871L213.804 364.655H203.461L205.395 330.67Z" fill="#1E1E1E"/>
<path fill-rule="evenodd" clip-rule="evenodd" d="M205.395 330.67H211.871L213.804 364.655H203.461L205.395 330.67Z" stroke="#646464" stroke-width="0.5" stroke-linecap="round" stroke-linejoin="round"/>
<path fill-rule="evenodd" clip-rule="evenodd" d="M182.079 407.225L181.969 356.846C181.949 355.37 183.549 354.436 184.824 355.18L198.819 363.344C200.085 364.083 201.675 363.169 201.675 361.705V356.667C201.675 355.23 203.209 354.314 204.475 354.995L220.279 363.503C221.544 364.185 223.078 363.268 223.078 361.831V356.773C223.078 355.312 224.659 354.398 225.925 355.127L240.194 363.345C241.47 364.08 243.06 363.146 243.041 361.674L242.977 356.999C242.957 355.491 244.621 354.562 245.894 355.371L260.185 364.451C260.734 364.799 261.066 365.404 261.066 366.054V407.225" fill="#1E1E1E"/>
<path d="M182.079 407.225L181.969 356.846C181.949 355.37 183.549 354.436 184.824 355.18L198.819 363.344C200.085 364.083 201.675 363.169 201.675 361.705V356.667C201.675 355.23 203.209 354.314 204.475 354.995L220.279 363.503C221.544 364.185 223.078 363.268 223.078 361.831V356.773C223.078 355.312 224.659 354.398 225.925 355.127L240.194 363.345C241.47 364.08 243.06 363.146 243.041 361.674L242.977 356.999C242.957 355.491 244.621 354.562 245.894 355.371L260.185 364.451C260.734 364.799 261.066 365.404 261.066 366.054V407.225" stroke="#646464" stroke-width="0.5" stroke-linecap="round" stroke-linejoin="round"/>
<path d="M261.067 402.923H182.073" stroke="#646464" stroke-width="0.5" stroke-linecap="round" stroke-linejoin="round"/>
<path d="M208.633 330.043V324.332" stroke="#646464" stroke-width="0.5" stroke-linecap="round" stroke-linejoin="round"/>
<path fill-rule="evenodd" clip-rule="evenodd" d="M206.082 322.259C206.082 323.667 207.225 324.81 208.633 324.81C210.042 324.81 211.185 323.667 211.185 322.259C211.185 320.85 210.042 319.707 208.633 319.707C207.225 319.707 206.082 320.85 206.082 322.259Z" fill="#1E1E1E"/>
<path fill-rule="evenodd" clip-rule="evenodd" d="M206.082 322.259C206.082 323.667 207.225 324.81 208.633 324.81C210.042 324.81 211.185 323.667 211.185 322.259C211.185 320.85 210.042 319.707 208.633 319.707C207.225 319.707 206.082 320.85 206.082 322.259Z" stroke="#646464" stroke-width="0.5" stroke-linecap="round" stroke-linejoin="round"/>
<path fill-rule="evenodd" clip-rule="evenodd" d="M252.624 407.661V385.825C252.624 384.876 251.848 384.099 250.898 384.099H219.848C218.898 384.099 218.122 384.876 218.122 385.825V407.661" fill="#1E1E1E"/>
<path d="M252.624 407.661V385.825C252.624 384.876 251.848 384.099 250.898 384.099H219.848C218.898 384.099 218.122 384.876 218.122 385.825V407.661" stroke="#646464" stroke-width="0.5" stroke-linecap="round" stroke-linejoin="round"/>
<path fill-rule="evenodd" clip-rule="evenodd" d="M203.328 388.344H208.882C209.689 388.344 210.349 387.683 210.349 386.875V381.323C210.349 380.515 209.689 379.854 208.882 379.854H203.328C202.52 379.854 201.86 380.515 201.86 381.323V386.875C201.86 387.683 202.52 388.344 203.328 388.344Z" fill="#1E1E1E"/>
<path fill-rule="evenodd" clip-rule="evenodd" d="M203.328 388.344H208.882C209.689 388.344 210.349 387.683 210.349 386.875V381.323C210.349 380.515 209.689 379.854 208.882 379.854H203.328C202.52 379.854 201.86 380.515 201.86 381.323V386.875C201.86 387.683 202.52 388.344 203.328 388.344Z" stroke="#646464" stroke-width="0.5" stroke-linecap="round" stroke-linejoin="round"/>
<path fill-rule="evenodd" clip-rule="evenodd" d="M190.277 388.344H195.83C196.637 388.344 197.298 387.683 197.298 386.875V381.323C197.298 380.515 196.637 379.854 195.83 379.854H190.277C189.469 379.854 188.808 380.515 188.808 381.323V386.875C188.808 387.683 189.469 388.344 190.277 388.344Z" fill="#1E1E1E"/>
<path fill-rule="evenodd" clip-rule="evenodd" d="M190.277 388.344H195.83C196.637 388.344 197.298 387.683 197.298 386.875V381.323C197.298 380.515 196.637 379.854 195.83 379.854H190.277C189.469 379.854 188.808 380.515 188.808 381.323V386.875C188.808 387.683 189.469 388.344 190.277 388.344Z" stroke="#646464" stroke-width="0.5" stroke-linecap="round" stroke-linejoin="round"/>
<path fill-rule="evenodd" clip-rule="evenodd" d="M406.745 280.521C406.745 281.929 405.603 283.072 404.194 283.072C402.785 283.072 401.643 281.929 401.643 280.521C401.643 279.112 402.785 277.969 404.194 277.969C405.603 277.969 406.745 279.112 406.745 280.521Z" fill="#1E1E1E"/>
<path fill-rule="evenodd" clip-rule="evenodd" d="M406.745 280.521C406.745 281.929 405.603 283.072 404.194 283.072C402.785 283.072 401.643 281.929 401.643 280.521C401.643 279.112 402.785 277.969 404.194 277.969C405.603 277.969 406.745 279.112 406.745 280.521Z" stroke="#646464" stroke-width="0.5" stroke-linecap="round" stroke-linejoin="round"/>
<path fill-rule="evenodd" clip-rule="evenodd" d="M333.028 336.126C333.028 337.535 331.885 338.677 330.476 338.677C329.068 338.677 327.925 337.535 327.925 336.126C327.925 334.717 329.068 333.575 330.476 333.575C331.885 333.575 333.028 334.717 333.028 336.126Z" fill="#1E1E1E"/>
<path fill-rule="evenodd" clip-rule="evenodd" d="M333.028 336.126C333.028 337.535 331.885 338.677 330.476 338.677C329.068 338.677 327.925 337.535 327.925 336.126C327.925 334.717 329.068 333.575 330.476 333.575C331.885 333.575 333.028 334.717 333.028 336.126Z" stroke="#646464" stroke-width="0.5" stroke-linecap="round" stroke-linejoin="round"/>
<path fill-rule="evenodd" clip-rule="evenodd" d="M384.447 269.593C385.969 271.102 387.249 272.855 388.222 274.788C389.115 276.563 389.75 278.49 390.077 280.521H400.564" fill="#1E1E1E"/>
<path d="M384.447 269.593C385.969 271.102 387.249 272.855 388.222 274.788C389.115 276.563 389.75 278.49 390.077 280.521H400.564" stroke="#646464" stroke-width="0.5" stroke-linecap="round" stroke-linejoin="round"/>
<path fill-rule="evenodd" clip-rule="evenodd" d="M349.293 245.67C352.781 245.67 356.022 246.73 358.711 248.544C360.733 249.908 362.443 251.699 363.712 253.787C364.697 255.409 365.417 257.211 365.811 259.132C366.035 260.23 366.152 261.365 366.152 262.529C366.152 263.142 366.118 263.745 366.055 264.34C367.475 264.018 368.95 263.842 370.468 263.842C374.944 263.842 379.075 265.322 382.397 267.82" fill="#1E1E1E"/>
<path d="M349.293 245.67C352.781 245.67 356.022 246.73 358.711 248.544C360.733 249.908 362.443 251.699 363.712 253.787C364.697 255.409 365.417 257.211 365.811 259.132C366.035 260.23 366.152 261.365 366.152 262.529C366.152 263.142 366.118 263.745 366.055 264.34C367.475 264.018 368.95 263.842 370.468 263.842C374.944 263.842 379.075 265.322 382.397 267.82" stroke="#646464" stroke-width="0.5" stroke-linecap="round" stroke-linejoin="round"/>
<path fill-rule="evenodd" clip-rule="evenodd" d="M280.636 275.966C281.771 274.666 283.102 273.542 284.582 272.641C286.347 271.566 288.325 270.806 290.438 270.44C291.38 270.276 292.35 270.191 293.34 270.191C294.137 270.191 294.921 270.246 295.688 270.354C297.093 270.551 298.443 270.921 299.715 271.442C299.987 268.754 300.805 266.228 302.058 263.977C303.162 261.991 304.605 260.219 306.308 258.738C307.896 257.357 309.711 256.229 311.689 255.418C312.865 254.936 314.098 254.566 315.376 254.32C316.57 254.091 317.802 253.971 319.063 253.971C321.136 253.971 323.132 254.296 325.005 254.897C326.475 255.368 327.868 256.01 329.162 256.799C330.447 257.582 331.634 258.51 332.7 259.559C333.174 256.894 334.274 254.445 335.842 252.37C337.426 250.275 339.488 248.561 341.866 247.391" fill="#1E1E1E"/>
<path d="M280.636 275.966C281.771 274.666 283.102 273.542 284.582 272.641C286.347 271.566 288.325 270.806 290.438 270.44C291.38 270.276 292.35 270.191 293.34 270.191C294.137 270.191 294.921 270.246 295.688 270.354C297.093 270.551 298.443 270.921 299.715 271.442C299.987 268.754 300.805 266.228 302.058 263.977C303.162 261.991 304.605 260.219 306.308 258.738C307.896 257.357 309.711 256.229 311.689 255.418C312.865 254.936 314.098 254.566 315.376 254.32C316.57 254.091 317.802 253.971 319.063 253.971C321.136 253.971 323.132 254.296 325.005 254.897C326.475 255.368 327.868 256.01 329.162 256.799C330.447 257.582 331.634 258.51 332.7 259.559C333.174 256.894 334.274 254.445 335.842 252.37C337.426 250.275 339.488 248.561 341.866 247.391" stroke="#646464" stroke-width="0.5" stroke-linecap="round" stroke-linejoin="round"/>
<path fill-rule="evenodd" clip-rule="evenodd" d="M276.479 287.051C276.479 284.967 276.858 282.972 277.548 281.129L276.479 287.051Z" fill="#1E1E1E"/>
<path d="M276.479 287.051C276.479 284.967 276.858 282.972 277.548 281.129" stroke="#646464" stroke-width="0.5" stroke-linecap="round" stroke-linejoin="round"/>
<path fill-rule="evenodd" clip-rule="evenodd" d="M280.004 297.367C278.558 295.5 277.494 293.321 276.933 290.948L280.004 297.367Z" fill="#1E1E1E"/>
<path d="M280.004 297.367C278.558 295.5 277.494 293.321 276.933 290.948" stroke="#646464" stroke-width="0.5" stroke-linecap="round" stroke-linejoin="round"/>
<path fill-rule="evenodd" clip-rule="evenodd" d="M293.34 303.91C291.305 303.91 289.355 303.55 287.549 302.889C285.743 302.229 284.082 301.268 282.626 300.068" fill="#1E1E1E"/>
<path d="M293.34 303.91C291.305 303.91 289.355 303.55 287.549 302.889C285.743 302.229 284.082 301.268 282.626 300.068" stroke="#646464" stroke-width="0.5" stroke-linecap="round" stroke-linejoin="round"/>
<path fill-rule="evenodd" clip-rule="evenodd" d="M296.47 303.903C299.018 303.894 302.626 303.879 306.9 303.858C311.452 303.837 322.351 303.809 327.937 303.781C327.937 303.781 330.477 303.765 330.477 307.468V333.259" fill="#1E1E1E"/>
<path d="M296.47 303.903C299.018 303.894 302.626 303.879 306.9 303.858C311.452 303.837 322.351 303.809 327.937 303.781C327.937 303.781 330.477 303.765 330.477 307.468V333.259" stroke="#646464" stroke-width="0.5" stroke-linecap="round" stroke-linejoin="round"/>
<path fill-rule="evenodd" clip-rule="evenodd" d="M364.461 303.581C360.346 303.596 354.892 303.62 348.82 303.649C342.592 303.679 342.845 303.714 336.096 303.748" fill="#1E1E1E"/>
<path d="M364.461 303.581C360.346 303.596 354.892 303.62 348.82 303.649C342.592 303.679 342.845 303.714 336.096 303.748" stroke="#646464" stroke-width="0.5" stroke-linecap="round" stroke-linejoin="round"/>
<path fill-rule="evenodd" clip-rule="evenodd" d="M370.468 303.567C373.69 303.567 376.732 302.799 379.422 301.439L370.468 303.567Z" fill="#1E1E1E"/>
<path d="M370.468 303.567C373.69 303.567 376.732 302.799 379.422 301.439" stroke="#646464" stroke-width="0.5" stroke-linecap="round" stroke-linejoin="round"/>
<path fill-rule="evenodd" clip-rule="evenodd" d="M390.331 283.704C390.331 287.578 389.222 291.193 387.304 294.25L390.331 283.704Z" fill="#1E1E1E"/>
<path d="M390.331 283.704C390.331 287.578 389.222 291.193 387.304 294.25" stroke="#646464" stroke-width="0.5" stroke-linecap="round" stroke-linejoin="round"/>
<path fill-rule="evenodd" clip-rule="evenodd" d="M273.851 360.604C272.736 361.719 272.044 363.257 272.044 364.949L273.851 360.604Z" fill="#1E1E1E"/>
<path d="M273.851 360.604C272.736 361.719 272.044 363.257 272.044 364.949" stroke="#646464" stroke-width="0.5" stroke-linecap="round" stroke-linejoin="round"/>
<path d="M286.021 358.797H278.196" stroke="#646464" stroke-width="0.5" stroke-linecap="round" stroke-linejoin="round"/>
<path d="M306.55 358.797H291.812" stroke="#646464" stroke-width="0.5" stroke-linecap="round" stroke-linejoin="round"/>
<path fill-rule="evenodd" clip-rule="evenodd" d="M272.045 367.458C272.045 370.841 274.813 373.609 278.196 373.609L272.045 367.458Z" fill="#1E1E1E"/>
<path d="M272.045 367.458C272.045 370.841 274.813 373.609 278.196 373.609" stroke="#646464" stroke-width="0.5" stroke-linecap="round" stroke-linejoin="round"/>
<path fill-rule="evenodd" clip-rule="evenodd" d="M278.196 388.42C274.812 388.42 272.045 391.189 272.045 394.571L278.196 388.42Z" fill="#1E1E1E"/>
<path d="M278.196 388.42C274.812 388.42 272.045 391.189 272.045 394.571" stroke="#646464" stroke-width="0.5" stroke-linecap="round" stroke-linejoin="round"/>
<path d="M294.286 403.231H303.796H306.55" stroke="#646464" stroke-width="0.5" stroke-linecap="round" stroke-linejoin="round"/>
<path d="M286.512 403.231H291.812" stroke="#646464" stroke-width="0.5" stroke-linecap="round" stroke-linejoin="round"/>
<path fill-rule="evenodd" clip-rule="evenodd" d="M272.045 397.08C272.045 400.464 274.813 403.231 278.196 403.231H280.366" fill="#1E1E1E"/>
<path d="M272.045 397.08C272.045 400.464 274.813 403.231 278.196 403.231H280.366" stroke="#646464" stroke-width="0.5" stroke-linecap="round" stroke-linejoin="round"/>
<path fill-rule="evenodd" clip-rule="evenodd" d="M284.5 373.609H278.196C274.812 373.609 272.045 376.377 272.045 379.759" fill="#1E1E1E"/>
<path d="M284.5 373.609H278.196C274.812 373.609 272.045 376.377 272.045 379.759" stroke="#646464" stroke-width="0.5" stroke-linecap="round" stroke-linejoin="round"/>
<path fill-rule="evenodd" clip-rule="evenodd" d="M302.247 373.66L294.286 373.609L302.247 373.66Z" fill="#1E1E1E"/>
<path d="M302.247 373.66L294.286 373.609" stroke="#646464" stroke-width="0.5" stroke-linecap="round" stroke-linejoin="round"/>
<path d="M300.087 388.42H306.55" stroke="#646464" stroke-width="0.5" stroke-linecap="round" stroke-linejoin="round"/>
<path fill-rule="evenodd" clip-rule="evenodd" d="M272.045 382.269C272.045 385.652 274.813 388.419 278.196 388.419H295.528" fill="#1E1E1E"/>
<path d="M272.045 382.269C272.045 385.652 274.813 388.419 278.196 388.419H295.528" stroke="#646464" stroke-width="0.5" stroke-linecap="round" stroke-linejoin="round"/>
<path fill-rule="evenodd" clip-rule="evenodd" d="M284.5 373.609C284.5 375.017 285.643 376.16 287.051 376.16C288.46 376.16 289.603 375.017 289.603 373.609C289.603 372.2 288.46 371.058 287.051 371.058C285.643 371.058 284.5 372.2 284.5 373.609Z" fill="#1E1E1E"/>
<path fill-rule="evenodd" clip-rule="evenodd" d="M284.5 373.609C284.5 375.017 285.643 376.16 287.051 376.16C288.46 376.16 289.603 375.017 289.603 373.609C289.603 372.2 288.46 371.058 287.051 371.058C285.643 371.058 284.5 372.2 284.5 373.609Z" stroke="#646464" stroke-width="0.5" stroke-linecap="round" stroke-linejoin="round"/>
<path fill-rule="evenodd" clip-rule="evenodd" d="M387.375 401.697C388.322 400.751 388.909 399.445 388.909 398.009L387.375 401.697Z" fill="#1E1E1E"/>
<path d="M387.375 401.697C388.322 400.751 388.909 399.445 388.909 398.009" stroke="#646464" stroke-width="0.5" stroke-linecap="round" stroke-linejoin="round"/>
<path d="M377.044 403.231H383.688" stroke="#646464" stroke-width="0.5" stroke-linecap="round" stroke-linejoin="round"/>
<path d="M363.562 403.231H372.128" stroke="#646464" stroke-width="0.5" stroke-linecap="round" stroke-linejoin="round"/>
<path fill-rule="evenodd" clip-rule="evenodd" d="M388.909 395.88C388.909 393.008 386.559 390.658 383.687 390.658L388.909 395.88Z" fill="#1E1E1E"/>
<path d="M388.909 395.88C388.909 393.008 386.559 390.658 383.687 390.658" stroke="#646464" stroke-width="0.5" stroke-linecap="round" stroke-linejoin="round"/>
<path fill-rule="evenodd" clip-rule="evenodd" d="M383.688 378.084C386.559 378.084 388.91 375.734 388.91 372.862L383.688 378.084Z" fill="#1E1E1E"/>
<path d="M383.688 378.084C386.559 378.084 388.91 375.734 388.91 372.862" stroke="#646464" stroke-width="0.5" stroke-linecap="round" stroke-linejoin="round"/>
<path d="M370.027 365.51H365.9H363.562" stroke="#646464" stroke-width="0.5" stroke-linecap="round" stroke-linejoin="round"/>
<path d="M376.628 365.51H372.129" stroke="#646464" stroke-width="0.5" stroke-linecap="round" stroke-linejoin="round"/>
<path fill-rule="evenodd" clip-rule="evenodd" d="M388.909 370.732C388.909 367.86 386.559 365.51 383.687 365.51H381.845" fill="#1E1E1E"/>
<path d="M388.909 370.732C388.909 367.86 386.559 365.51 383.687 365.51H381.845" stroke="#646464" stroke-width="0.5" stroke-linecap="round" stroke-linejoin="round"/>
<path fill-rule="evenodd" clip-rule="evenodd" d="M378.336 390.658H383.688C386.56 390.658 388.909 388.307 388.909 385.436" fill="#1E1E1E"/>
<path d="M378.336 390.658H383.688C386.56 390.658 388.909 388.307 388.909 385.436" stroke="#646464" stroke-width="0.5" stroke-linecap="round" stroke-linejoin="round"/>
<path fill-rule="evenodd" clip-rule="evenodd" d="M367.215 390.614L370.028 390.658L367.215 390.614Z" fill="#1E1E1E"/>
<path d="M367.215 390.614L370.028 390.658" stroke="#646464" stroke-width="0.5" stroke-linecap="round" stroke-linejoin="round"/>
<path d="M365.104 378.084H363.562" stroke="#646464" stroke-width="0.5" stroke-linecap="round" stroke-linejoin="round"/>
<path fill-rule="evenodd" clip-rule="evenodd" d="M388.909 383.305C388.909 380.433 386.559 378.083 383.687 378.083H368.973" fill="#1E1E1E"/>
<path d="M388.909 383.305C388.909 380.433 386.559 378.083 383.687 378.083H368.973" stroke="#646464" stroke-width="0.5" stroke-linecap="round" stroke-linejoin="round"/>
<path fill-rule="evenodd" clip-rule="evenodd" d="M373.233 390.342C373.233 391.751 374.376 392.893 375.784 392.893C377.193 392.893 378.336 391.751 378.336 390.342C378.336 388.933 377.193 387.791 375.784 387.791C374.376 387.791 373.233 388.933 373.233 390.342Z" fill="#1E1E1E"/>
<path fill-rule="evenodd" clip-rule="evenodd" d="M373.233 390.342C373.233 391.751 374.376 392.893 375.784 392.893C377.193 392.893 378.336 391.751 378.336 390.342C378.336 388.933 377.193 387.791 375.784 387.791C374.376 387.791 373.233 388.933 373.233 390.342Z" stroke="#646464" stroke-width="0.5" stroke-linecap="round" stroke-linejoin="round"/>
<path fill-rule="evenodd" clip-rule="evenodd" d="M342.115 390.546C342.115 391.868 343.187 392.941 344.51 392.941C345.832 392.941 346.903 391.868 346.903 390.546C346.903 389.224 345.832 388.152 344.51 388.152C343.187 388.152 342.115 389.224 342.115 390.546Z" fill="#1E1E1E"/>
<path fill-rule="evenodd" clip-rule="evenodd" d="M342.115 390.546C342.115 391.868 343.187 392.941 344.51 392.941C345.832 392.941 346.903 391.868 346.903 390.546C346.903 389.224 345.832 388.152 344.51 388.152C343.187 388.152 342.115 389.224 342.115 390.546Z" stroke="#646464" stroke-width="0.5" stroke-linecap="round" stroke-linejoin="round"/>
<path fill-rule="evenodd" clip-rule="evenodd" d="M324.305 355.091C324.305 356.413 325.377 357.485 326.7 357.485C328.022 357.485 329.093 356.413 329.093 355.091C329.093 353.769 328.022 352.696 326.7 352.696C325.377 352.696 324.305 353.769 324.305 355.091Z" fill="#1E1E1E"/>
<path fill-rule="evenodd" clip-rule="evenodd" d="M324.305 355.091C324.305 356.413 325.377 357.485 326.7 357.485C328.022 357.485 329.093 356.413 329.093 355.091C329.093 353.769 328.022 352.696 326.7 352.696C325.377 352.696 324.305 353.769 324.305 355.091Z" stroke="#646464" stroke-width="0.5" stroke-linecap="round" stroke-linejoin="round"/>
<path fill-rule="evenodd" clip-rule="evenodd" d="M324.305 355.091H314.992C310.967 355.091 307.673 358.385 307.673 362.41" fill="#1E1E1E"/>
<path d="M324.305 355.091H314.992C310.967 355.091 307.673 358.385 307.673 362.41" stroke="#646464" stroke-width="0.5" stroke-linecap="round" stroke-linejoin="round"/>
<path d="M337.086 355.091H331.195" stroke="#646464" stroke-width="0.5" stroke-linecap="round" stroke-linejoin="round"/>
<path fill-rule="evenodd" clip-rule="evenodd" d="M307.673 365.396C307.673 369.421 310.967 372.715 314.992 372.715H356.125C360.151 372.715 363.444 369.421 363.444 365.396V362.41C363.444 358.384 360.151 355.09 356.125 355.09H346.984H338.938" fill="#1E1E1E"/>
<path d="M307.673 365.396C307.673 369.421 310.967 372.715 314.992 372.715H356.125C360.151 372.715 363.444 369.421 363.444 365.396V362.41C363.444 358.384 360.151 355.09 356.125 355.09H346.984H338.938" stroke="#646464" stroke-width="0.5" stroke-linecap="round" stroke-linejoin="round"/>
<path fill-rule="evenodd" clip-rule="evenodd" d="M307.673 400.647C307.673 404.673 310.967 407.967 314.992 407.967H356.125C360.151 407.967 363.444 404.673 363.444 400.647V397.661C363.444 393.635 360.151 390.341 356.125 390.341H314.992C310.967 390.341 307.673 393.635 307.673 397.661" fill="#1E1E1E"/>
<path d="M307.673 400.647C307.673 404.673 310.967 407.967 314.992 407.967H356.125C360.151 407.967 363.444 404.673 363.444 400.647V397.661C363.444 393.635 360.151 390.341 356.125 390.341H314.992C310.967 390.341 307.673 393.635 307.673 397.661" stroke="#646464" stroke-width="0.5" stroke-linecap="round" stroke-linejoin="round"/>
<path fill-rule="evenodd" clip-rule="evenodd" d="M307.673 383.021C307.673 387.047 310.967 390.341 314.992 390.341H356.125C360.151 390.341 363.444 387.047 363.444 383.021V380.036C363.444 376.009 360.151 372.715 356.125 372.715H314.992C310.967 372.715 307.673 376.009 307.673 380.036" fill="#1E1E1E"/>
<path d="M307.673 383.021C307.673 387.047 310.967 390.341 314.992 390.341H356.125C360.151 390.341 363.444 387.047 363.444 383.021V380.036C363.444 376.009 360.151 372.715 356.125 372.715H314.992C310.967 372.715 307.673 376.009 307.673 380.036" stroke="#646464" stroke-width="0.5" stroke-linecap="round" stroke-linejoin="round"/>
<path fill-rule="evenodd" clip-rule="evenodd" d="M350.448 366.229H355.255C356.198 366.229 356.969 365.458 356.969 364.515V363.291C356.969 362.348 356.198 361.577 355.255 361.577H350.448C349.506 361.577 348.734 362.348 348.734 363.291V364.515C348.734 365.458 349.506 366.229 350.448 366.229Z" fill="#1E1E1E"/>
<path fill-rule="evenodd" clip-rule="evenodd" d="M350.448 366.229H355.255C356.198 366.229 356.969 365.458 356.969 364.515V363.291C356.969 362.348 356.198 361.577 355.255 361.577H350.448C349.506 361.577 348.734 362.348 348.734 363.291V364.515C348.734 365.458 349.506 366.229 350.448 366.229Z" stroke="#646464" stroke-width="0.5" stroke-linecap="round" stroke-linejoin="round"/>
<path fill-rule="evenodd" clip-rule="evenodd" d="M350.448 383.855H355.255C356.198 383.855 356.969 383.084 356.969 382.14V380.917C356.969 379.974 356.198 379.203 355.255 379.203H350.448C349.506 379.203 348.734 379.974 348.734 380.917V382.14C348.734 383.084 349.506 383.855 350.448 383.855Z" fill="#1E1E1E"/>
<path fill-rule="evenodd" clip-rule="evenodd" d="M350.448 383.855H355.255C356.198 383.855 356.969 383.084 356.969 382.14V380.917C356.969 379.974 356.198 379.203 355.255 379.203H350.448C349.506 379.203 348.734 379.974 348.734 380.917V382.14C348.734 383.084 349.506 383.855 350.448 383.855Z" stroke="#646464" stroke-width="0.5" stroke-linecap="round" stroke-linejoin="round"/>
<path fill-rule="evenodd" clip-rule="evenodd" d="M350.448 401.692H355.255C356.198 401.692 356.969 400.921 356.969 399.978V398.754C356.969 397.811 356.198 397.04 355.255 397.04H350.448C349.506 397.04 348.734 397.811 348.734 398.754V399.978C348.734 400.921 349.506 401.692 350.448 401.692Z" fill="#1E1E1E"/>
<path fill-rule="evenodd" clip-rule="evenodd" d="M350.448 401.692H355.255C356.198 401.692 356.969 400.921 356.969 399.978V398.754C356.969 397.811 356.198 397.04 355.255 397.04H350.448C349.506 397.04 348.734 397.811 348.734 398.754V399.978C348.734 400.921 349.506 401.692 350.448 401.692Z" stroke="#646464" stroke-width="0.5" stroke-linecap="round" stroke-linejoin="round"/>
<path fill-rule="evenodd" clip-rule="evenodd" d="M360.953 328.367H358.229H350.384C347.577 328.367 345.281 330.663 345.281 333.469V346.341C345.281 346.341 345.989 350.218 342.112 350.218H337.304" fill="#1E1E1E"/>
<path d="M360.953 328.367H358.229H350.384C347.577 328.367 345.281 330.663 345.281 333.469V346.341C345.281 346.341 345.989 350.218 342.112 350.218H337.304" stroke="#646464" stroke-width="0.5" stroke-linecap="round" stroke-linejoin="round"/>
<path fill-rule="evenodd" clip-rule="evenodd" d="M379.155 340.752V333.469C379.155 330.663 376.859 328.367 374.053 328.367H364.333" fill="#1E1E1E"/>
<path d="M379.155 340.752V333.469C379.155 330.663 376.859 328.367 374.053 328.367H364.333" stroke="#646464" stroke-width="0.5" stroke-linecap="round" stroke-linejoin="round"/>
<path d="M379.155 347.408V345.543" stroke="#646464" stroke-width="0.5" stroke-linecap="round" stroke-linejoin="round"/>
<path d="M379.155 361.974V357.484V355.786V354.261V349.939" stroke="#646464" stroke-width="0.5" stroke-linecap="round" stroke-linejoin="round"/>
<path fill-rule="evenodd" clip-rule="evenodd" d="M366.279 344.532H371.833C372.64 344.532 373.3 343.871 373.3 343.063V337.51C373.3 336.702 372.64 336.042 371.833 336.042H366.279C365.471 336.042 364.811 336.702 364.811 337.51V343.063C364.811 343.871 365.471 344.532 366.279 344.532Z" fill="#1E1E1E"/>
<path fill-rule="evenodd" clip-rule="evenodd" d="M366.279 344.532H371.833C372.64 344.532 373.3 343.871 373.3 343.063V337.51C373.3 336.702 372.64 336.042 371.833 336.042H366.279C365.471 336.042 364.811 336.702 364.811 337.51V343.063C364.811 343.871 365.471 344.532 366.279 344.532Z" stroke="#646464" stroke-width="0.5" stroke-linecap="round" stroke-linejoin="round"/>
<path fill-rule="evenodd" clip-rule="evenodd" d="M352.624 344.532H358.177C358.984 344.532 359.645 343.871 359.645 343.063V337.51C359.645 336.702 358.984 336.042 358.177 336.042H352.624C351.816 336.042 351.155 336.702 351.155 337.51V343.063C351.155 343.871 351.816 344.532 352.624 344.532Z" fill="#1E1E1E"/>
<path fill-rule="evenodd" clip-rule="evenodd" d="M352.624 344.532H358.177C358.984 344.532 359.645 343.871 359.645 343.063V337.51C359.645 336.702 358.984 336.042 358.177 336.042H352.624C351.816 336.042 351.155 336.702 351.155 337.51V343.063C351.155 343.871 351.816 344.532 352.624 344.532Z" stroke="#646464" stroke-width="0.5" stroke-linecap="round" stroke-linejoin="round"/>
<path fill-rule="evenodd" clip-rule="evenodd" d="M332.092 350.273C332.092 351.682 333.234 352.824 334.643 352.824C336.052 352.824 337.194 351.682 337.194 350.273C337.194 348.864 336.052 347.722 334.643 347.722C333.234 347.722 332.092 348.864 332.092 350.273Z" fill="#1E1E1E"/>
<path fill-rule="evenodd" clip-rule="evenodd" d="M332.092 350.273C332.092 351.682 333.234 352.824 334.643 352.824C336.052 352.824 337.194 351.682 337.194 350.273C337.194 348.864 336.052 347.722 334.643 347.722C333.234 347.722 332.092 348.864 332.092 350.273Z" stroke="#646464" stroke-width="0.5" stroke-linecap="round" stroke-linejoin="round"/>
<path fill-rule="evenodd" clip-rule="evenodd" d="M455.935 222.14C454.491 222.14 453.32 223.315 453.32 224.764C453.32 226.213 454.491 227.388 455.935 227.388C457.38 227.388 458.551 226.213 458.551 224.764C458.551 223.315 457.38 222.14 455.935 222.14Z" stroke="#EF6724" stroke-width="0.5" stroke-linecap="round" stroke-linejoin="round"/>
<path d="M455.935 220.052V221.972" stroke="#EF6724" stroke-width="0.5" stroke-linecap="round" stroke-linejoin="round"/>
<path d="M455.935 214.012V218.297" stroke="#EF6724" stroke-width="0.5" stroke-linecap="round" stroke-linejoin="round"/>
<path fill-rule="evenodd" clip-rule="evenodd" d="M494.753 197.812H399.031C393.046 197.812 388.148 192.915 388.148 186.929V90.0122C388.148 84.0262 393.046 79.1292 399.031 79.1292H494.753C500.739 79.1292 505.637 84.0262 505.637 90.0122V186.929C505.637 192.915 500.739 197.812 494.753 197.812Z" stroke="#EF6724" stroke-width="0.5" stroke-linecap="round" stroke-linejoin="round"/>
<path fill-rule="evenodd" clip-rule="evenodd" d="M472.251 175.082H421.533C415.547 175.082 410.649 170.185 410.649 164.199V112.743C410.649 106.757 415.547 101.86 421.533 101.86H472.251C478.237 101.86 483.135 106.757 483.135 112.743V164.199C483.135 170.185 478.237 175.082 472.251 175.082Z" stroke="#EF6724" stroke-width="0.5" stroke-linecap="round" stroke-linejoin="round"/>
<path d="M397.245 79.1291V65.5671" stroke="#EF6724" stroke-width="0.5" stroke-linecap="round" stroke-linejoin="round"/>
<path d="M416.809 79.1291V65.5671" stroke="#EF6724" stroke-width="0.5" stroke-linecap="round" stroke-linejoin="round"/>
<path d="M436.372 79.1291V65.5671" stroke="#EF6724" stroke-width="0.5" stroke-linecap="round" stroke-linejoin="round"/>
<path d="M455.935 79.1291V65.5671" stroke="#EF6724" stroke-width="0.5" stroke-linecap="round" stroke-linejoin="round"/>
<path d="M475.498 79.1291V65.5671" stroke="#EF6724" stroke-width="0.5" stroke-linecap="round" stroke-linejoin="round"/>
<path d="M495.062 79.1291V65.5671" stroke="#EF6724" stroke-width="0.5" stroke-linecap="round" stroke-linejoin="round"/>
<path d="M397.245 211.375V197.812" stroke="#EF6724" stroke-width="0.5" stroke-linecap="round" stroke-linejoin="round"/>
<path d="M416.809 211.375V197.812" stroke="#EF6724" stroke-width="0.5" stroke-linecap="round" stroke-linejoin="round"/>
<path d="M436.372 211.375V197.812" stroke="#EF6724" stroke-width="0.5" stroke-linecap="round" stroke-linejoin="round"/>
<path d="M455.935 211.375V197.812" stroke="#EF6724" stroke-width="0.5" stroke-linecap="round" stroke-linejoin="round"/>
<path d="M475.498 211.375V197.812" stroke="#EF6724" stroke-width="0.5" stroke-linecap="round" stroke-linejoin="round"/>
<path d="M495.062 211.375V197.812" stroke="#EF6724" stroke-width="0.5" stroke-linecap="round" stroke-linejoin="round"/>
<path d="M374.494 89.1916H388.057" stroke="#EF6724" stroke-width="0.5" stroke-linecap="round" stroke-linejoin="round"/>
<path d="M374.494 108.755H388.057" stroke="#EF6724" stroke-width="0.5" stroke-linecap="round" stroke-linejoin="round"/>
<path d="M374.494 128.318H388.057" stroke="#EF6724" stroke-width="0.5" stroke-linecap="round" stroke-linejoin="round"/>
<path d="M374.494 147.881H388.057" stroke="#EF6724" stroke-width="0.5" stroke-linecap="round" stroke-linejoin="round"/>
<path d="M374.494 167.444H388.057" stroke="#EF6724" stroke-width="0.5" stroke-linecap="round" stroke-linejoin="round"/>
<path d="M374.494 187.008H388.057" stroke="#EF6724" stroke-width="0.5" stroke-linecap="round" stroke-linejoin="round"/>
<path d="M505.876 89.1916H519.438" stroke="#EF6724" stroke-width="0.5" stroke-linecap="round" stroke-linejoin="round"/>
<path d="M505.876 108.755H519.438" stroke="#EF6724" stroke-width="0.5" stroke-linecap="round" stroke-linejoin="round"/>
<path d="M505.876 128.318H519.438" stroke="#EF6724" stroke-width="0.5" stroke-linecap="round" stroke-linejoin="round"/>
<path d="M505.876 147.881H519.438" stroke="#EF6724" stroke-width="0.5" stroke-linecap="round" stroke-linejoin="round"/>
<path d="M505.876 167.444H519.438" stroke="#EF6724" stroke-width="0.5" stroke-linecap="round" stroke-linejoin="round"/>
<path d="M505.876 187.008H519.438" stroke="#EF6724" stroke-width="0.5" stroke-linecap="round" stroke-linejoin="round"/>
<path fill-rule="evenodd" clip-rule="evenodd" d="M423.729 157.955L424.932 151.907L464.232 119.429H469.52L462.583 157.955H454.75L459.562 132.856L429.707 157.955H423.729Z" stroke="#EF6724" stroke-width="0.5" stroke-linecap="round" stroke-linejoin="round"/>
<path fill-rule="evenodd" clip-rule="evenodd" d="M569.881 219.629C569.881 217.368 571.713 215.537 573.973 215.537C576.233 215.537 578.065 217.368 578.065 219.629C578.065 221.889 576.233 223.721 573.973 223.721C571.713 223.721 569.881 221.889 569.881 219.629Z" stroke="#EF6724" stroke-width="0.5" stroke-linecap="round" stroke-linejoin="round"/>
<path d="M562.761 219.629H569.881" stroke="#EF6724" stroke-width="0.5" stroke-linecap="round" stroke-linejoin="round"/>
<path d="M550.041 219.629H559.034" stroke="#EF6724" stroke-width="0.5" stroke-linecap="round" stroke-linejoin="round"/>
<path d="M534.856 209.833V212.158C534.856 212.158 534.483 219.629 542.326 219.629H547.667" stroke="#EF6724" stroke-width="0.5" stroke-linecap="round" stroke-linejoin="round"/>
<path d="M534.856 199.777V207.441" stroke="#EF6724" stroke-width="0.5" stroke-linecap="round" stroke-linejoin="round"/>
<path d="M521.559 187.008H526.754C535.43 187.008 534.857 195.111 534.857 195.111" stroke="#EF6724" stroke-width="0.5" stroke-linecap="round" stroke-linejoin="round"/>
<path fill-rule="evenodd" clip-rule="evenodd" d="M575.181 56.4177C575.181 58.6777 577.013 60.5097 579.273 60.5097C581.533 60.5097 583.365 58.6777 583.365 56.4177C583.365 54.1577 581.533 52.3257 579.273 52.3257C577.013 52.3257 575.181 54.1577 575.181 56.4177Z" stroke="#EF6724" stroke-width="0.5" stroke-linecap="round" stroke-linejoin="round"/>
<path d="M568.061 56.4177H575.181" stroke="#EF6724" stroke-width="0.5" stroke-linecap="round" stroke-linejoin="round"/>
<path d="M555.342 56.4177H564.334" stroke="#EF6724" stroke-width="0.5" stroke-linecap="round" stroke-linejoin="round"/>
<path d="M535.622 66.2136V63.8876C535.622 63.8876 535.248 56.4176 543.092 56.4176H552.968" stroke="#EF6724" stroke-width="0.5" stroke-linecap="round" stroke-linejoin="round"/>
<path d="M535.622 76.2682V68.6042" stroke="#EF6724" stroke-width="0.5" stroke-linecap="round" stroke-linejoin="round"/>
<path d="M522.323 89.0378H527.518C536.195 89.0378 535.622 80.9348 535.622 80.9348" stroke="#EF6724" stroke-width="0.5" stroke-linecap="round" stroke-linejoin="round"/>
<path fill-rule="evenodd" clip-rule="evenodd" d="M322.845 106.858C322.845 109.118 321.013 110.95 318.753 110.95C316.493 110.95 314.661 109.118 314.661 106.858C314.661 104.598 316.493 102.766 318.753 102.766C321.013 102.766 322.845 104.598 322.845 106.858Z" stroke="#EF6724" stroke-width="0.5" stroke-linecap="round" stroke-linejoin="round"/>
<path d="M334.747 106.808H331.047H322.895" stroke="#EF6724" stroke-width="0.5" stroke-linecap="round" stroke-linejoin="round"/>
<path d="M338.856 106.808H348.575C356.418 106.808 356.044 114.278 356.044 114.278V126.653" stroke="#EF6724" stroke-width="0.5" stroke-linecap="round" stroke-linejoin="round"/>
<path d="M356.045 135.642V129.973" stroke="#EF6724" stroke-width="0.5" stroke-linecap="round" stroke-linejoin="round"/>
<path d="M356.045 139.992C356.045 139.992 355.472 148.095 364.148 148.095H372.128" stroke="#EF6724" stroke-width="0.5" stroke-linecap="round" stroke-linejoin="round"/>
<path fill-rule="evenodd" clip-rule="evenodd" d="M442.213 309.142C439.953 309.142 438.121 310.974 438.121 313.234C438.121 315.494 439.953 317.326 442.213 317.326C444.474 317.326 446.306 315.494 446.306 313.234C446.306 310.974 444.474 309.142 442.213 309.142Z" stroke="#EF6724" stroke-width="0.5" stroke-linecap="round" stroke-linejoin="round"/>
<path d="M442.213 291.956V308.941" stroke="#EF6724" stroke-width="0.5" stroke-linecap="round" stroke-linejoin="round"/>
<path d="M442.213 251.267V281.151" stroke="#EF6724" stroke-width="0.5" stroke-linecap="round" stroke-linejoin="round"/>
<path d="M442.213 241.847V248.531" stroke="#EF6724" stroke-width="0.5" stroke-linecap="round" stroke-linejoin="round"/>
<path d="M434.743 223.701C434.743 223.701 442.213 223.328 442.213 231.171V238.331" stroke="#EF6724" stroke-width="0.5" stroke-linecap="round" stroke-linejoin="round"/>
<path d="M432.161 223.701H422.654C422.654 223.701 416.808 224.286 416.808 217.942V213.24" stroke="#EF6724" stroke-width="0.5" stroke-linecap="round" stroke-linejoin="round"/>
<path d="M345.788 203.444C345.788 203.444 344.544 187.007 361.038 187.007H384.756" stroke="#EF6724" stroke-width="0.5" stroke-linecap="round" stroke-linejoin="round"/>
<path d="M345.788 214.173V203.529V249.205V213.833" stroke="#EF6724" stroke-width="0.5" stroke-linecap="round" stroke-linejoin="round"/>
<path d="M345.788 255.685V247.91" stroke="#EF6724" stroke-width="0.5" stroke-linecap="round" stroke-linejoin="round"/>
<path fill-rule="evenodd" clip-rule="evenodd" d="M349.389 259.287C349.389 257.284 347.765 255.659 345.761 255.659C343.758 255.659 342.134 257.284 342.134 259.287C342.134 261.291 343.758 262.915 345.761 262.915C347.765 262.915 349.389 261.291 349.389 259.287Z" stroke="#EF6724" stroke-width="0.5" stroke-linecap="round" stroke-linejoin="round"/>
<path d="M455.935 56.7126V64.6666" stroke="#EF6724" stroke-width="0.5" stroke-linecap="round" stroke-linejoin="round"/>
<path d="M432.439 41.2297H442.16C442.16 41.2297 455.934 40.5317 455.934 55.2367" stroke="#EF6724" stroke-width="0.5" stroke-linecap="round" stroke-linejoin="round"/>
<path d="M414.055 7.05969V18.3027V24.7927C414.055 24.7927 412.921 41.2297 429.886 41.2297" stroke="#EF6724" stroke-width="0.5" stroke-linecap="round" stroke-linejoin="round"/>
<path fill-rule="evenodd" clip-rule="evenodd" d="M411.009 4.03C411.009 5.703 412.365 7.06 414.039 7.06C415.712 7.06 417.069 5.703 417.069 4.03C417.069 2.357 415.712 1 414.039 1C412.365 1 411.009 2.357 411.009 4.03Z" stroke="#EF6724" stroke-width="0.37" stroke-linecap="round" stroke-linejoin="round"/>
<path fill-rule="evenodd" clip-rule="evenodd" d="M463.452 264.784L475.239 266.936C476.316 267.836 476.928 269.095 477.047 270.399C485.528 278.762 496.459 286.246 508.898 283.584C517.577 281.727 519.371 281.768 524.343 274.661C528.299 269.005 536.071 280.509 532.122 286.154L530.366 289.513C523.778 298.931 520.034 303.567 508.638 305.814C494.888 308.525 482.533 288.577 471.903 276.652C470.345 274.903 466.431 274.947 465.069 273.558C463.942 272.41 461.3 262.988 463.452 264.784Z" fill="#1C1D1D"/>
<path fill-rule="evenodd" clip-rule="evenodd" d="M463.452 264.784L475.239 266.936C476.316 267.836 476.928 269.095 477.047 270.399C485.528 278.762 496.459 286.246 508.898 283.584C517.577 281.727 519.371 281.768 524.343 274.661C528.299 269.005 536.071 280.509 532.122 286.154L530.366 289.513C523.778 298.931 520.034 303.567 508.638 305.814C494.888 308.525 482.533 288.577 471.903 276.652C470.345 274.903 466.431 274.947 465.069 273.558C463.942 272.41 461.3 262.988 463.452 264.784Z" stroke="#646464" stroke-width="0.5"/>
<path fill-rule="evenodd" clip-rule="evenodd" d="M495.961 230.279C502.891 222.278 522.592 223.066 524.308 234.859C525.707 244.474 523.985 249.414 518.117 255.511C514.017 259.771 501.541 267.825 497.598 267.592C492.087 260.104 490.42 236.676 495.961 230.279Z" fill="#1C1D1D"/>
<path fill-rule="evenodd" clip-rule="evenodd" d="M495.961 230.279C502.891 222.278 522.592 223.066 524.308 234.859C525.707 244.474 523.985 249.414 518.117 255.511C514.017 259.771 501.541 267.825 497.598 267.592C492.087 260.104 490.42 236.676 495.961 230.279Z" stroke="#646464" stroke-width="0.5"/>
<path fill-rule="evenodd" clip-rule="evenodd" d="M508.352 250.833C510.382 250.248 511.556 248.124 510.974 246.087C510.391 244.05 508.273 242.872 506.242 243.457L504.631 247.07" fill="#1C1D1D"/>
<path d="M508.352 250.833C510.382 250.248 511.556 248.124 510.974 246.087C510.391 244.05 508.273 242.872 506.242 243.457L504.631 247.07" stroke="#646464" stroke-width="0.5"/>
<path fill-rule="evenodd" clip-rule="evenodd" d="M511.123 255.67C511.123 255.67 510.73 260.337 509.913 260.594C509.096 260.851 504.631 267.596 504.631 267.596L503.941 275.028C504.615 278.061 513.729 280.233 516.753 279.557L517.648 279.357C520.672 278.68 522.594 275.645 521.92 272.612L518.117 255.512" fill="#1C1D1D"/>
<path d="M511.123 255.67C511.123 255.67 510.73 260.337 509.913 260.594C509.096 260.851 504.631 267.596 504.631 267.596L503.941 275.028C504.615 278.061 513.729 280.233 516.753 279.557L517.648 279.357C520.672 278.68 522.594 275.645 521.92 272.612L518.117 255.512" stroke="#646464" stroke-width="0.5"/>
<path fill-rule="evenodd" clip-rule="evenodd" d="M433.011 246.153L433.007 246.152C433.043 246.072 433.09 245.999 433.132 245.924C433.166 245.861 433.196 245.796 433.234 245.737C433.285 245.656 433.348 245.584 433.407 245.509C433.449 245.459 433.486 245.402 433.53 245.354C433.6 245.279 433.68 245.216 433.757 245.151C433.8 245.116 433.838 245.073 433.883 245.041C434.01 244.949 434.145 244.871 434.287 244.809L453.552 236.467C453.686 236.409 453.821 236.371 453.955 236.345C453.999 236.338 454.041 236.337 454.085 236.332C454.176 236.321 454.266 236.315 454.356 236.318C454.405 236.32 454.453 236.327 454.501 236.333C454.584 236.343 454.665 236.359 454.745 236.382C454.793 236.394 454.839 236.408 454.886 236.425C454.914 236.436 454.945 236.441 454.972 236.453L456.496 236.965L465.064 274.966C465.401 276.374 464.739 277.921 463.584 278.421L444.155 287.082L442.994 286.467C442.197 286.07 441.801 285.87 441.579 284.943L432.808 248.263C432.635 247.543 432.728 246.788 433.011 246.153Z" fill="#1E1E1E"/>
<path fill-rule="evenodd" clip-rule="evenodd" d="M433.011 246.153L433.007 246.152C433.043 246.072 433.09 245.999 433.132 245.924C433.166 245.861 433.196 245.796 433.234 245.737C433.285 245.656 433.348 245.584 433.407 245.509C433.449 245.459 433.486 245.402 433.53 245.354C433.6 245.279 433.68 245.216 433.757 245.151C433.8 245.116 433.838 245.073 433.883 245.041C434.01 244.949 434.145 244.871 434.287 244.809L453.552 236.467C453.686 236.409 453.821 236.371 453.955 236.345C453.999 236.338 454.041 236.337 454.085 236.332C454.176 236.321 454.266 236.315 454.356 236.318C454.405 236.32 454.453 236.327 454.501 236.333C454.584 236.343 454.665 236.359 454.745 236.382C454.793 236.394 454.839 236.408 454.886 236.425C454.914 236.436 454.945 236.441 454.972 236.453L456.496 236.965L465.064 274.966C465.401 276.374 464.739 277.921 463.584 278.421L444.155 287.082L442.994 286.467C442.197 286.07 441.801 285.87 441.579 284.943L432.808 248.263C432.635 247.543 432.728 246.788 433.011 246.153Z" stroke="#F37928" stroke-width="0.5" stroke-linecap="round" stroke-linejoin="round"/>
<path fill-rule="evenodd" clip-rule="evenodd" d="M445.896 287.265L465.107 278.918C466.26 278.419 466.87 276.868 466.533 275.46L457.719 238.606C457.383 237.198 456.202 236.463 455.048 236.963L435.849 245.311C434.695 245.811 434.098 247.363 434.435 248.771L443.249 285.625C443.584 287.033 444.742 287.765 445.896 287.265Z" fill="#1E1E1E"/>
<path fill-rule="evenodd" clip-rule="evenodd" d="M445.896 287.265L465.107 278.918C466.26 278.419 466.87 276.868 466.533 275.46L457.719 238.606C457.383 237.198 456.202 236.463 455.048 236.963L435.849 245.311C434.695 245.811 434.098 247.363 434.435 248.771L443.249 285.625C443.584 287.033 444.742 287.765 445.896 287.265Z" stroke="#F37928" stroke-width="0.5" stroke-linecap="round" stroke-linejoin="round"/>
<path fill-rule="evenodd" clip-rule="evenodd" d="M444.54 281.214L463.452 273.025L455.773 240.534L436.977 248.674L444.971 280.426C445.036 280.7 444.282 281.325 444.54 281.214Z" fill="#1E1E1E"/>
<path fill-rule="evenodd" clip-rule="evenodd" d="M444.54 281.214L463.452 273.025L455.773 240.534L436.977 248.674L444.971 280.426C445.036 280.7 444.282 281.325 444.54 281.214Z" stroke="#F37928" stroke-width="0.5" stroke-linecap="round" stroke-linejoin="round"/>
<path fill-rule="evenodd" clip-rule="evenodd" d="M540.576 479.399L532.084 478.327C526.401 475.738 523.746 473.794 521.215 475.261L520.497 475.677C517.965 477.144 518.284 479.731 521.206 481.426L533.687 491.392C536.609 493.087 540.548 492.553 542.882 490.498C542.882 490.498 544.279 489.233 543.283 483.904C542.715 480.865 542.914 480.755 540.576 479.399Z" fill="#1E1E1E"/>
<path fill-rule="evenodd" clip-rule="evenodd" d="M540.576 479.399L532.084 478.327C526.401 475.738 523.746 473.794 521.215 475.261L520.497 475.677C517.965 477.144 518.284 479.731 521.206 481.426L533.687 491.392C536.609 493.087 540.548 492.553 542.882 490.498C542.882 490.498 544.279 489.233 543.283 483.904C542.715 480.865 542.914 480.755 540.576 479.399Z" stroke="#F37928" stroke-width="0.5" stroke-linecap="round" stroke-linejoin="round"/>
<path fill-rule="evenodd" clip-rule="evenodd" d="M503.468 496.421L495.148 499.351C488.713 499.677 485.367 499.187 483.714 501.622L483.245 502.313C481.592 504.748 483.083 506.865 486.561 507.017L504.659 510.053C508.137 510.204 509.531 507.937 510.73 505.076C510.73 505.076 511.403 501.568 509.494 497.852C508.087 495.111 506.248 496.542 503.468 496.421Z" fill="#1E1E1E"/>
<path fill-rule="evenodd" clip-rule="evenodd" d="M503.468 496.421L495.148 499.351C488.713 499.677 485.367 499.187 483.714 501.622L483.245 502.313C481.592 504.748 483.083 506.865 486.561 507.017L504.659 510.053C508.137 510.204 509.531 507.937 510.73 505.076C510.73 505.076 511.403 501.568 509.494 497.852C508.087 495.111 506.248 496.542 503.468 496.421Z" stroke="#F37928" stroke-width="0.5" stroke-linecap="round" stroke-linejoin="round"/>
<path fill-rule="evenodd" clip-rule="evenodd" d="M499.824 499.352C499.824 503.339 509.494 503.339 509.494 499.352V486.393H499.824V499.352Z" fill="#1C1D1D"/>
<path fill-rule="evenodd" clip-rule="evenodd" d="M499.824 499.352C499.824 503.339 509.494 503.339 509.494 499.352V486.393H499.824V499.352Z" stroke="#646464" stroke-width="0.5"/>
<path fill-rule="evenodd" clip-rule="evenodd" d="M532.74 480.188C532.961 483.799 542.631 483.799 542.41 480.188L541.694 468.453H532.024L532.74 480.188Z" fill="#1C1D1D"/>
<path fill-rule="evenodd" clip-rule="evenodd" d="M532.74 480.188C532.961 483.799 542.631 483.799 542.41 480.188L541.694 468.453H532.024L532.74 480.188Z" stroke="#646464" stroke-width="0.5"/>
<path fill-rule="evenodd" clip-rule="evenodd" d="M492.555 357.599H527.455C527.328 358.133 527.212 358.665 527.087 359.199L538.647 357.482L543.768 474.38C542.306 477.26 534.706 478.962 530.844 474.975L519.503 396.7C513.98 429.313 511.379 461.377 511.836 492.58C509.878 495.846 499.824 496.214 498.605 491.163C494.081 446.862 492.381 402.313 492.555 357.599Z" fill="#1C1D1D"/>
<path fill-rule="evenodd" clip-rule="evenodd" d="M492.555 357.599H527.455C527.328 358.133 527.212 358.665 527.087 359.199L538.647 357.482L543.768 474.38C542.306 477.26 534.706 478.962 530.844 474.975L519.503 396.7C513.98 429.313 511.379 461.377 511.836 492.58C509.878 495.846 499.824 496.214 498.605 491.163C494.081 446.862 492.381 402.313 492.555 357.599Z" stroke="#646464" stroke-width="0.5"/>
<path fill-rule="evenodd" clip-rule="evenodd" d="M539.667 355.962C536.813 340.266 542.698 316.928 542.45 300.239C543.804 272.388 534.849 264.776 525.256 265.781C525.256 265.781 516.582 268.347 514.614 269.363C493.767 280.137 488.202 283.46 489.117 295.956C489.023 316.541 492.048 352.258 492.479 362.386C496.775 376.619 534.899 366.148 539.667 355.962Z" fill="#1E1E1E"/>
<path fill-rule="evenodd" clip-rule="evenodd" d="M539.667 355.962C536.813 340.266 542.698 316.928 542.45 300.239C543.804 272.388 534.849 264.776 525.256 265.781C525.256 265.781 516.582 268.347 514.614 269.363C493.767 280.137 488.202 283.46 489.117 295.956C489.023 316.541 492.048 352.258 492.479 362.386C496.775 376.619 534.899 366.148 539.667 355.962Z" stroke="#F37928" stroke-width="0.5" stroke-linecap="round" stroke-linejoin="round"/>
<path fill-rule="evenodd" clip-rule="evenodd" d="M436.977 271.782C439.284 271.825 447.424 273.648 447.382 275.963L449.726 281.49C449.709 282.395 450.338 283.629 450.338 283.629L466.938 304.344C468.293 305.98 476.684 298.537 484.412 291.668C490.06 298.677 491.992 307.138 491.531 315.719C478.194 323.558 461.836 329.313 458.576 323.787L441.767 285.272C441.767 285.272 439.044 284.107 439.072 282.577L437.709 277.675C437.752 275.36 434.669 271.74 436.977 271.782Z" fill="#1C1D1D"/>
<path fill-rule="evenodd" clip-rule="evenodd" d="M436.977 271.782C439.284 271.825 447.424 273.648 447.382 275.963L449.726 281.49C449.709 282.395 450.338 283.629 450.338 283.629L466.938 304.344C468.293 305.98 476.684 298.537 484.412 291.668C490.06 298.677 491.992 307.138 491.531 315.719C478.194 323.558 461.836 329.313 458.576 323.787L441.767 285.272C441.767 285.272 439.044 284.107 439.072 282.577L437.709 277.675C437.752 275.36 434.669 271.74 436.977 271.782Z" stroke="#646464" stroke-width="0.5"/>
<path fill-rule="evenodd" clip-rule="evenodd" d="M525.454 267.129C525.454 267.129 524.763 259.213 519.153 260.806C513.544 262.399 502.157 270.146 501.039 272.011C499.92 273.876 501.039 277.675 501.039 277.675L525.454 267.129Z" fill="#1E1E1E"/>
<path fill-rule="evenodd" clip-rule="evenodd" d="M525.454 267.129C525.454 267.129 524.763 259.213 519.153 260.806C513.544 262.399 502.157 270.146 501.039 272.011C499.92 273.876 501.039 277.675 501.039 277.675L525.454 267.129Z" stroke="#F37928" stroke-width="0.5" stroke-linecap="round" stroke-linejoin="round"/>
<path fill-rule="evenodd" clip-rule="evenodd" d="M484.411 291.668C490.466 286.287 496.112 281.26 497.651 281.227C511.123 280.938 514.016 288.517 509.248 300.387C507.508 304.72 500.147 310.653 491.53 315.719C491.991 307.139 490.059 298.677 484.411 291.668Z" fill="#1E1E1E"/>
<path fill-rule="evenodd" clip-rule="evenodd" d="M484.411 291.668C490.466 286.287 496.112 281.26 497.651 281.227C511.123 280.938 514.016 288.517 509.248 300.387C507.508 304.72 500.147 310.653 491.53 315.719C491.991 307.139 490.059 298.677 484.411 291.668Z" stroke="#F37928" stroke-width="0.5" stroke-linecap="round" stroke-linejoin="round"/>
<path fill-rule="evenodd" clip-rule="evenodd" d="M424.344 368.401H409.457C406.666 368.401 404.383 370.691 404.383 373.49V395.72" fill="#1E1E1E"/>
<path d="M424.344 368.401H409.457C406.666 368.401 404.383 370.691 404.383 373.49V395.72" stroke="#646464" stroke-width="0.5" stroke-linecap="round" stroke-linejoin="round"/>
<path d="M434.091 398.506V375.584" stroke="#646464" stroke-width="0.5" stroke-linecap="round" stroke-linejoin="round"/>
<path fill-rule="evenodd" clip-rule="evenodd" d="M423.806 388.132H414.434C413.776 388.132 413.237 387.593 413.237 386.934V377.527C413.237 376.868 413.776 376.329 414.434 376.329H423.806C424.464 376.329 425.003 376.868 425.003 377.527V386.934C425.003 387.593 424.464 388.132 423.806 388.132Z" fill="#1E1E1E"/>
<path fill-rule="evenodd" clip-rule="evenodd" d="M423.806 388.132H414.434C413.776 388.132 413.237 387.593 413.237 386.934V377.527C413.237 376.868 413.776 376.329 414.434 376.329H423.806C424.464 376.329 425.003 376.868 425.003 377.527V386.934C425.003 387.593 424.464 388.132 423.806 388.132Z" stroke="#646464" stroke-width="0.5" stroke-linecap="round" stroke-linejoin="round"/>
<path fill-rule="evenodd" clip-rule="evenodd" d="M284.495 322.259H299.382C302.173 322.259 304.456 324.549 304.456 327.348V349.578" fill="#1E1E1E"/>
<path d="M284.495 322.259H299.382C302.173 322.259 304.456 324.549 304.456 327.348V349.578" stroke="#646464" stroke-width="0.5" stroke-linecap="round" stroke-linejoin="round"/>
<path d="M274.748 352.364V329.442" stroke="#646464" stroke-width="0.5" stroke-linecap="round" stroke-linejoin="round"/>
<path fill-rule="evenodd" clip-rule="evenodd" d="M285.033 341.99H294.405C295.063 341.99 295.602 341.451 295.602 340.792V331.385C295.602 330.726 295.063 330.187 294.405 330.187H285.033C284.375 330.187 283.836 330.726 283.836 331.385V340.792C283.836 341.451 284.375 341.99 285.033 341.99Z" fill="#1E1E1E"/>
<path fill-rule="evenodd" clip-rule="evenodd" d="M285.033 341.99H294.405C295.063 341.99 295.602 341.451 295.602 340.792V331.385C295.602 330.726 295.063 330.187 294.405 330.187H285.033C284.375 330.187 283.836 330.726 283.836 331.385V340.792C283.836 341.451 284.375 341.99 285.033 341.99Z" stroke="#646464" stroke-width="0.5" stroke-linecap="round" stroke-linejoin="round"/>
<path d="M474.277 383.454V391.122V396.511" stroke="#646464" stroke-width="0.5" stroke-linecap="round" stroke-linejoin="round"/>
<path d="M474.277 375.853V379.214V381.124" stroke="#646464" stroke-width="0.5" stroke-linecap="round" stroke-linejoin="round"/>
<path fill-rule="evenodd" clip-rule="evenodd" d="M439.289 362.4V357.94C439.289 354.04 442.471 350.847 446.36 350.847H467.206C471.095 350.847 474.277 354.04 474.277 359.635V366.636V370.347V372.583" fill="#1E1E1E"/>
<path d="M439.289 362.4V357.94C439.289 354.04 442.471 350.847 446.36 350.847H467.206C471.095 350.847 474.277 354.04 474.277 359.635V366.636V370.347V372.583" stroke="#646464" stroke-width="0.5" stroke-linecap="round" stroke-linejoin="round"/>
<path d="M439.289 372.272V368.423" stroke="#646464" stroke-width="0.5" stroke-linecap="round" stroke-linejoin="round"/>
<path fill-rule="evenodd" clip-rule="evenodd" d="M477.812 400.495C477.812 402.454 476.229 404.042 474.277 404.042C472.324 404.042 470.741 402.454 470.741 400.495C470.741 398.537 472.324 396.949 474.277 396.949C476.229 396.949 477.812 398.537 477.812 400.495Z" fill="#1E1E1E"/>
<path fill-rule="evenodd" clip-rule="evenodd" d="M477.812 400.495C477.812 402.454 476.229 404.042 474.277 404.042C472.324 404.042 470.741 402.454 470.741 400.495C470.741 398.537 472.324 396.949 474.277 396.949C476.229 396.949 477.812 398.537 477.812 400.495Z" stroke="#646464" stroke-width="0.5" stroke-linecap="round" stroke-linejoin="round"/>
<path fill-rule="evenodd" clip-rule="evenodd" d="M461.469 371.334H452.098C451.439 371.334 450.9 370.795 450.9 370.137V360.73C450.9 360.07 451.439 359.531 452.098 359.531H461.469C462.128 359.531 462.666 360.07 462.666 360.73V370.137C462.666 370.795 462.128 371.334 461.469 371.334Z" fill="#1E1E1E"/>
<path fill-rule="evenodd" clip-rule="evenodd" d="M461.469 371.334H452.098C451.439 371.334 450.9 370.795 450.9 370.137V360.73C450.9 360.07 451.439 359.531 452.098 359.531H461.469C462.128 359.531 462.666 360.07 462.666 360.73V370.137C462.666 370.795 462.128 371.334 461.469 371.334Z" stroke="#646464" stroke-width="0.5" stroke-linecap="round" stroke-linejoin="round"/>
</svg>
