<svg width="32" height="32" viewBox="0 0 32 32" fill="none" xmlns="http://www.w3.org/2000/svg">
<path fill-rule="evenodd" clip-rule="evenodd" d="M21.1968 21.834C23.94 19.134 25.4729 15.46 25.4524 11.6343C25.4524 11.4155 25.4524 11.1979 25.4405 10.9815C26.4425 10.2657 27.3089 9.38101 28 8.36795C27.0651 8.77528 26.0741 9.04286 25.0595 9.16189C26.1255 8.52933 26.9245 7.53776 27.3095 6.36956C26.3007 6.95836 25.1975 7.37284 24.0476 7.59518C22.4603 5.92891 19.94 5.51979 17.8966 6.59667C15.8531 7.67355 14.7931 9.96945 15.3095 12.2001C11.1895 11.9968 7.34893 10.0803 4.7381 6.92473C3.37701 9.23384 4.07699 12.1912 6.33333 13.6644C5.51557 13.6417 4.71532 13.425 4 13.0328V13.0963C4.00519 15.5047 5.72844 17.5754 8.11905 18.0458C7.36195 18.2485 6.56809 18.2783 5.79762 18.1329C6.47624 20.193 8.40281 21.601 10.5952 21.6392C8.77672 23.0438 6.53445 23.8061 4.22619 23.8046C3.81638 23.8035 3.40698 23.7792 3 23.7317C5.34596 25.2133 8.07282 25.9991 10.8571 25.9959C14.7291 26.0344 18.4535 24.534 21.1968 21.834Z" fill="white"/>
</svg>
