<svg width="32" height="32" viewBox="0 0 32 32" fill="none" xmlns="http://www.w3.org/2000/svg">
<path fill-rule="evenodd" clip-rule="evenodd" d="M20.582 6H17.942C14.983 6 13.069 7.93158 13.069 10.9221V13.1916H10.418C10.3061 13.1924 10.1991 13.2358 10.1207 13.3123C10.0423 13.3887 9.99885 13.4918 10 13.5989V16.8874C9.99885 16.9945 10.0423 17.0976 10.1207 17.1741C10.1991 17.2505 10.3061 17.2939 10.418 17.2947H13.069V25.5916C13.0678 25.6988 13.1112 25.802 13.1896 25.8786C13.268 25.9552 13.375 25.9989 13.487 26H16.941C17.053 25.9989 17.16 25.9552 17.2384 25.8786C17.3168 25.802 17.3602 25.6988 17.359 25.5916V17.2947H20.461C20.5729 17.2939 20.6799 17.2505 20.7583 17.1741C20.8367 17.0976 20.8801 16.9945 20.879 16.8874V13.5989C20.8785 13.4916 20.8353 13.3884 20.758 13.3105C20.6795 13.2346 20.5726 13.1918 20.461 13.1916H17.359V11.2632C17.2547 10.872 17.3733 10.4573 17.6711 10.1714C17.9689 9.8856 18.402 9.77088 18.811 9.86947H20.582C20.6939 9.86864 20.8009 9.82522 20.8793 9.74879C20.9577 9.67236 21.0011 9.56921 21 9.46211V6.40947C21.0014 6.30209 20.9582 6.19856 20.8798 6.12173C20.8013 6.04491 20.6942 6.00111 20.582 6Z" fill="white"/>
</svg>
