<svg width="550" height="706" viewBox="0 0 550 706" fill="none" xmlns="http://www.w3.org/2000/svg">
<path d="M549.342 161.034C549.342 164.259 547.543 167.486 543.94 170.682C540.34 173.876 534.998 176.982 528.067 179.957C514.21 185.903 494.124 191.272 469.262 195.784C419.548 204.808 350.846 210.393 274.945 210.393C199.043 210.393 130.341 204.808 80.6272 195.784C55.7656 191.272 35.6798 185.903 21.8223 179.957C14.8914 176.982 9.54948 173.876 5.94896 170.682C2.34612 167.486 0.547108 164.259 0.547108 161.034C0.547108 157.808 2.34612 154.581 5.94896 151.385C9.54948 148.191 14.8914 145.085 21.8223 142.11C35.6798 136.164 55.7656 130.795 80.6272 126.283C130.341 117.259 199.043 111.674 274.945 111.674C350.846 111.674 419.548 117.259 469.262 126.283C494.124 130.795 514.21 136.164 528.067 142.11C534.998 145.085 540.34 148.191 543.94 151.385C547.543 154.581 549.342 157.808 549.342 161.034Z" stroke="#B2B2B2" stroke-width="1.09422"/>
<path d="M530.127 233.072C530.127 236.057 528.462 239.049 525.115 242.018C521.771 244.984 516.806 247.872 510.362 250.637C497.476 256.167 478.798 261.159 455.675 265.357C409.438 273.749 345.54 278.943 274.945 278.943C204.35 278.943 140.452 273.749 94.2148 265.357C71.0919 261.159 52.4132 256.167 39.528 250.637C33.0833 247.872 28.1189 244.984 24.7744 242.018C21.4275 239.049 19.7629 236.057 19.7629 233.072C19.7629 230.087 21.4275 227.095 24.7744 224.126C28.1189 221.16 33.0833 218.272 39.528 215.507C52.4132 209.977 71.0919 204.985 94.2148 200.788C140.452 192.395 204.35 187.201 274.945 187.201C345.54 187.201 409.438 192.395 455.675 200.788C478.798 204.985 497.476 209.977 510.362 215.507C516.806 218.272 521.771 221.16 525.115 224.126C528.462 227.095 530.127 230.087 530.127 233.072Z" stroke="#B2B2B2" stroke-width="1.09422"/>
<path d="M485.847 297.42C485.847 299.924 484.486 302.442 481.73 304.95C478.975 307.457 474.88 309.901 469.557 312.244C458.913 316.93 443.478 321.162 424.362 324.721C386.139 331.838 333.312 336.243 274.944 336.243C216.577 336.243 163.75 331.838 125.527 324.721C106.411 321.162 90.9759 316.93 80.3323 312.244C75.0085 309.901 70.9142 307.457 68.1592 304.95C65.4029 302.442 64.0422 299.924 64.0422 297.42C64.0422 294.917 65.4029 292.399 68.1592 289.891C70.9142 287.384 75.0085 284.94 80.3323 282.597C90.9759 277.911 106.411 273.679 125.527 270.12C163.75 263.003 216.577 258.598 274.944 258.598C333.312 258.598 386.139 263.003 424.362 270.12C443.478 273.679 458.913 277.911 469.557 282.597C474.88 284.94 478.975 287.384 481.73 289.891C484.486 292.399 485.847 294.917 485.847 297.42Z" stroke="#B2B2B2" stroke-width="1.09422"/>
<path d="M440.732 348.942C440.732 351.406 439.647 353.855 437.492 356.274C435.333 358.696 432.124 361.058 427.947 363.326C419.593 367.86 407.468 371.961 392.439 375.412C362.389 382.311 320.848 386.584 274.945 386.584C229.042 386.584 187.501 382.311 157.451 375.412C142.422 371.961 130.297 367.86 121.943 363.326C117.766 361.058 114.557 358.696 112.399 356.274C110.243 353.855 109.158 351.406 109.158 348.942C109.158 346.477 110.243 344.028 112.399 341.609C114.557 339.187 117.766 336.825 121.943 334.557C130.297 330.023 142.422 325.922 157.451 322.471C187.501 315.572 229.042 311.299 274.945 311.299C320.848 311.299 362.389 315.572 392.439 322.471C407.468 325.922 419.593 330.023 427.947 334.557C432.124 336.825 435.333 339.187 437.492 341.609C439.647 344.028 440.732 346.477 440.732 348.942Z" stroke="#B2B2B2" stroke-width="1.09422"/>
<path d="M401.465 395.376C401.465 399.817 398.123 404.184 391.738 408.26C385.379 412.319 376.14 415.995 364.675 419.09C341.752 425.278 310.055 429.112 275.021 429.112C239.988 429.112 208.29 425.278 185.368 419.09C173.903 415.995 164.664 412.319 158.305 408.26C151.919 404.184 148.578 399.817 148.578 395.376C148.578 390.935 151.919 386.568 158.305 382.493C164.664 378.433 173.903 374.757 185.368 371.662C208.29 365.474 239.988 361.64 275.021 361.64C310.055 361.64 341.752 365.474 364.675 371.662C376.14 374.757 385.379 378.433 391.738 382.493C398.123 386.568 401.465 390.935 401.465 395.376Z" stroke="#B2B2B2" stroke-width="1.09422"/>
<path d="M368.304 440.678C368.304 443.764 365.934 446.845 361.292 449.753C356.678 452.644 349.966 455.267 341.622 457.478C324.943 461.897 301.871 464.637 276.365 464.637C250.859 464.637 227.787 461.897 211.108 457.478C202.764 455.267 196.052 452.644 191.438 449.753C186.796 446.845 184.427 443.764 184.427 440.678C184.427 437.592 186.796 434.511 191.438 431.603C196.052 428.712 202.764 426.089 211.108 423.878C227.787 419.459 250.859 416.719 276.365 416.719C301.871 416.719 324.943 419.459 341.622 423.878C349.966 426.089 356.678 428.712 361.292 431.603C365.934 434.511 368.304 437.592 368.304 440.678Z" stroke="#B2B2B2" stroke-width="1.09422"/>
<path d="M348.024 468.785C348.024 471.253 346.198 473.735 342.567 476.095C338.959 478.439 333.702 480.572 327.157 482.371C314.075 485.966 295.972 488.197 275.953 488.197C255.935 488.197 237.832 485.966 224.75 482.371C218.205 480.572 212.948 478.439 209.34 476.095C205.709 473.735 203.883 471.253 203.883 468.785C203.883 466.316 205.709 463.834 209.34 461.474C212.948 459.13 218.205 456.997 224.75 455.199C237.832 451.603 255.935 449.372 275.953 449.372C295.972 449.372 314.075 451.603 327.157 455.199C333.702 456.997 338.959 459.13 342.567 461.474C346.198 463.834 348.024 466.316 348.024 468.785Z" stroke="#B2B2B2" stroke-width="1.09422"/>
<ellipse cx="128.937" cy="111.127" rx="28.9473" ry="30.0723" fill="#1E1E1E"/>
<ellipse cx="280.896" cy="610.243" rx="91.874" ry="95.4448" fill="#1E1E1E"/>
<ellipse cx="263.624" cy="12.5923" rx="11.3207" ry="11.7607" fill="#1E1E1E"/>
<ellipse cx="217.018" cy="145.236" rx="15.2063" ry="15.7974" fill="#1E1E1E"/>
<ellipse cx="319.817" cy="77.0684" rx="7.05638" ry="7.33063" fill="#1E1E1E"/>
<ellipse cx="369.677" cy="154.671" rx="15.3935" ry="15.9917" fill="#1E1E1E"/>
<ellipse cx="437.774" cy="82.1586" rx="10.7429" ry="11.1605" fill="#1E1E1E"/>
<path d="M227.414 652.565L227.378 651.065L227.414 654.065V652.565ZM293.453 566.861C292.867 566.275 291.918 566.275 291.332 566.861L281.786 576.407C281.2 576.993 281.2 577.943 281.786 578.528C282.372 579.114 283.321 579.114 283.907 578.528L292.393 570.043L300.878 578.528C301.464 579.114 302.413 579.114 302.999 578.528C303.585 577.943 303.585 576.993 302.999 576.407L293.453 566.861ZM227.414 652.565C227.449 654.064 227.45 654.064 227.451 654.064C227.451 654.064 227.452 654.064 227.453 654.064C227.454 654.064 227.456 654.064 227.458 654.064C227.463 654.064 227.469 654.064 227.477 654.064C227.493 654.063 227.515 654.062 227.542 654.061C227.598 654.059 227.678 654.056 227.781 654.051C227.988 654.041 228.287 654.023 228.673 653.993C229.445 653.933 230.56 653.823 231.962 653.624C234.763 653.227 238.712 652.474 243.333 651.048C252.575 648.196 264.537 642.645 275.394 631.847L273.278 629.72C262.845 640.097 251.346 645.436 242.449 648.181C238.001 649.554 234.21 650.276 231.541 650.654C230.206 650.843 229.153 650.946 228.44 651.002C228.083 651.03 227.811 651.046 227.632 651.055C227.542 651.059 227.476 651.062 227.433 651.063C227.412 651.064 227.396 651.065 227.387 651.065C227.383 651.065 227.38 651.065 227.378 651.065C227.377 651.065 227.377 651.065 227.377 651.065C227.377 651.065 227.377 651.065 227.377 651.065C227.378 651.065 227.378 651.065 227.414 652.565ZM275.394 631.847C297.225 610.135 293.893 578.947 293.893 567.922H290.893C290.893 579.454 294.029 609.083 273.278 629.72L275.394 631.847ZM227.414 654.065H334.379V651.065H227.414V654.065Z" fill="#666666"/>
<ellipse cx="280.895" cy="610.244" rx="22.0275" ry="22.8837" fill="white"/>
<path d="M283.67 615.157C283.67 614.501 283.438 613.949 282.975 613.5C282.519 613.052 281.746 612.646 280.657 612.282C279.139 611.819 278.031 611.217 277.333 610.476C276.642 609.728 276.297 608.781 276.297 607.634C276.297 606.466 276.635 605.507 277.312 604.759C277.996 604.011 278.933 603.566 280.122 603.424V601.084H281.714V603.434C282.911 603.598 283.841 604.101 284.503 604.941C285.173 605.782 285.508 606.932 285.508 608.393H283.542C283.542 607.388 283.303 606.59 282.826 605.999C282.348 605.408 281.704 605.112 280.892 605.112C280.044 605.112 279.396 605.333 278.947 605.775C278.498 606.209 278.274 606.818 278.274 607.602C278.274 608.329 278.509 608.909 278.979 609.344C279.456 609.771 280.236 610.163 281.319 610.519C282.409 610.868 283.257 611.256 283.862 611.684C284.475 612.104 284.924 612.596 285.209 613.158C285.501 613.721 285.647 614.38 285.647 615.135C285.647 616.339 285.283 617.308 284.557 618.042C283.837 618.776 282.826 619.21 281.522 619.345V621.386H279.941V619.345C278.616 619.224 277.575 618.754 276.82 617.935C276.072 617.109 275.698 615.99 275.698 614.58H277.675C277.675 615.57 277.935 616.332 278.455 616.866C278.975 617.401 279.713 617.668 280.667 617.668C281.6 617.668 282.334 617.443 282.868 616.995C283.403 616.546 283.67 615.933 283.67 615.157Z" fill="#1E1E1E"/>
</svg>
