<svg width="47" height="46" class="icon" viewBox="0 0 47 46" fill="none"
                            xmlns="http://www.w3.org/2000/svg">
                            <path
                                d="M10.6711 1.00182H12.2565C12.2565 1.00182 13.3385 0.919334 13.7066 2.38166C14.2476 4.5264 16.6069 13.8253 16.6069 13.8253C16.6069 13.8253 16.7046 15.0626 19.4095 15.0626C21.9942 15.0626 27.1861 15.0626 27.1861 15.0626"
                                stroke="#F3652B" stroke-miterlimit="10" />
                            <path
                                d="M19.297 19.6972C20.1187 19.6972 20.7847 19.0324 20.7847 18.2124C20.7847 17.3923 20.1187 16.7275 19.297 16.7275C18.4754 16.7275 17.8093 17.3923 17.8093 18.2124C17.8093 19.0324 18.4754 19.6972 19.297 19.6972Z"
                                stroke="#F3652B" stroke-miterlimit="10" />
                            <path
                                d="M24.3987 19.6972C25.2203 19.6972 25.8864 19.0324 25.8864 18.2124C25.8864 17.3923 25.2203 16.7275 24.3987 16.7275C23.577 16.7275 22.911 17.3923 22.911 18.2124C22.911 19.0324 23.577 19.6972 24.3987 19.6972Z"
                                stroke="#F3652B" stroke-miterlimit="10" />
                            <path
                                d="M27.0967 11.823H16.8706C16.2921 11.823 15.9765 11.3206 15.8112 10.7206L14.2634 4.51887C14.2634 3.91144 14.7368 3.4165 15.3228 3.4165H28.6821C29.2606 3.4165 29.7415 3.91144 29.7415 4.51887L28.1561 10.7206C28.0359 11.2231 27.6827 11.823 27.0967 11.823Z"
                                stroke="#F3652B" stroke-miterlimit="10" />
                            <path
                                d="M11.7911 35.5499C12.272 34.4925 12.4448 33.2701 12.1743 31.9803C11.716 29.813 9.94275 28.0733 7.7638 27.6608C4.14974 26.9709 0.994019 29.7156 0.994019 33.1951C0.994019 34.035 1.18186 34.8299 1.50495 35.5424L1.535 35.6099C1.54251 35.6248 1.55003 35.6324 1.55003 35.6473L4.81845 42.6515C5.10397 43.3789 5.81025 43.8889 6.64427 43.8889C7.47828 43.8889 8.18456 43.3714 8.47008 42.6515L11.7385 35.6548C11.746 35.6398 11.7535 35.6324 11.7535 35.6174L11.7911 35.5499Z"
                                stroke="#F3652B" stroke-miterlimit="10" />
                            <path
                                d="M6.65271 35.6397C7.9889 35.6397 9.0721 34.5586 9.0721 33.225C9.0721 31.8914 7.9889 30.8103 6.65271 30.8103C5.31652 30.8103 4.23332 31.8914 4.23332 33.225C4.23332 34.5586 5.31652 35.6397 6.65271 35.6397Z"
                                stroke="#F3652B" stroke-miterlimit="10" />
                            <path
                                d="M42.2293 42.8313C40.7717 43.6862 39.0135 44.0837 37.1501 43.8212C33.8516 43.3563 31.1617 40.7391 30.6132 37.462C29.7417 32.1301 34.2799 27.5932 39.6146 28.4706C42.9807 29.0255 45.6405 31.8302 46.0237 35.2122C46.2491 37.1695 45.7457 38.9993 44.7464 40.4691"
                                stroke="#F3652B" stroke-miterlimit="10" stroke-linecap="round" />
                            <path d="M40.3809 32.2275L36.3385 39.6292" stroke="#F3652B" stroke-miterlimit="10"
                                stroke-linecap="round" />
                            <path
                                d="M35.6319 34.8527C36.2419 34.8527 36.7364 34.3591 36.7364 33.7503C36.7364 33.1415 36.2419 32.6479 35.6319 32.6479C35.0219 32.6479 34.5274 33.1415 34.5274 33.7503C34.5274 34.3591 35.0219 34.8527 35.6319 34.8527Z"
                                stroke="#F3652B" stroke-miterlimit="10" stroke-linecap="round" />
                            <path
                                d="M40.9068 39.3214C41.5168 39.3214 42.0113 38.8279 42.0113 38.2191C42.0113 37.6102 41.5168 37.1167 40.9068 37.1167C40.2968 37.1167 39.8023 37.6102 39.8023 38.2191C39.8023 38.8279 40.2968 39.3214 40.9068 39.3214Z"
                                stroke="#F3652B" stroke-miterlimit="10" stroke-linecap="round" />
                            <path
                                d="M31.5515 42.6518C28.779 44.2566 25.5631 45.1715 22.1294 45.1715C17.8166 45.1715 13.8419 43.7241 10.6711 41.2944"
                                stroke="#F3652B" stroke-miterlimit="10" stroke-linecap="round"
                                stroke-linejoin="round" />
                            <path d="M30.5152 9.55811C36.7064 12.6327 40.9591 19.0145 40.9591 26.3861" stroke="#F3652B"
                                stroke-miterlimit="10" stroke-linecap="round" stroke-linejoin="round" />
                            <path d="M3.36914 24.8108C3.88007 18.684 7.32882 13.3972 12.3028 10.3525" stroke="#F3652B"
                                stroke-miterlimit="10" stroke-linecap="round" stroke-linejoin="round" />
                        </svg>