<svg viewBox="0 0 60 60" fill="none" xmlns="http://www.w3.org/2000/svg">
<path d="M1.65 3.73999C2.08 4.13999 2.63 4.36999 3.2 4.36999C3.78 4.36999 4.35 4.13999 4.76 3.72999C5.17 3.32999 5.41 2.75999 5.41 2.17999C5.41 1.60999 5.17 1.02999 4.76 0.629991C3.94 -0.180009 2.46 -0.180009 1.64 0.629991C1.23 1.03999 1 1.60999 1 2.18999C1 2.76999 1.24 3.32999 1.65 3.73999ZM2.59 1.57999C2.74 1.41999 2.97 1.32999 3.2 1.32999C3.43 1.32999 3.66 1.41999 3.82 1.57999C3.97 1.72999 4.07 1.95999 4.07 2.17999C4.07 2.39999 3.98 2.62999 3.82 2.78999C3.51 3.09999 2.92 3.10999 2.59 2.78999C2.43 2.62999 2.33 2.40999 2.33 2.18999C2.33 1.95999 2.43 1.73999 2.59 1.57999Z" fill="#F3652B"/>
<path d="M15.82 4.37C17.03 4.37 18.02 3.39 18.02 2.19C18.02 0.98 17.03 0 15.82 0C14.6 0 13.62 0.98 13.62 2.19C13.62 3.39 14.61 4.37 15.82 4.37ZM15.82 1.33C16.3 1.33 16.69 1.71 16.69 2.19C16.69 2.66 16.3 3.04 15.82 3.04C15.34 3.04 14.95 2.66 14.95 2.19C14.95 1.71 15.34 1.33 15.82 1.33Z" fill="#F3652B"/>
<path d="M9.51006 4.37C10.7201 4.37 11.7101 3.39 11.7101 2.19C11.7201 0.98 10.7301 0 9.51006 0C8.29006 0 7.31006 0.98 7.31006 2.19C7.31006 3.39 8.30006 4.37 9.51006 4.37ZM9.51006 1.33C9.99006 1.33 10.3801 1.71 10.3801 2.19C10.3801 2.66 9.99006 3.04 9.51006 3.04C9.03006 3.04 8.64006 2.66 8.64006 2.19C8.64006 1.71 9.03006 1.33 9.51006 1.33Z" fill="#F3652B"/>
<path d="M22.12 4.37C23.34 4.37 24.32 3.39 24.32 2.19C24.32 0.98 23.33 0 22.12 0C20.9 0 19.92 0.98 19.92 2.19C19.92 3.39 20.9 4.37 22.12 4.37ZM22.12 1.33C22.6 1.33 22.99 1.71 22.99 2.19C22.99 2.66 22.6 3.04 22.12 3.04C21.64 3.04 21.25 2.66 21.25 2.19C21.25 1.71 21.64 1.33 22.12 1.33Z" fill="#F3652B"/>
<path d="M26.87 0.640001C26.46 1.05 26.23 1.61 26.23 2.19C26.23 2.77 26.46 3.33 26.87 3.74C27.28 4.14 27.85 4.38 28.43 4.38C29.01 4.38 29.58 4.15 29.98 3.74C30.39 3.34 30.63 2.77 30.63 2.19C30.63 1.61 30.39 1.05 29.98 0.640001C29.18 -0.169999 27.68 -0.169999 26.87 0.640001ZM29.05 2.79C28.74 3.1 28.13 3.1 27.82 2.79C27.66 2.63 27.57 2.41 27.57 2.18C27.57 1.95 27.66 1.73 27.82 1.58C27.97 1.43 28.21 1.33 28.44 1.33C28.67 1.33 28.9 1.42 29.06 1.58C29.22 1.74 29.31 1.96 29.31 2.18C29.3 2.41 29.21 2.63 29.05 2.79Z" fill="#F3652B"/>
<path d="M28.43 18.74C27.21 18.74 26.23 19.72 26.23 20.93C26.23 22.13 27.22 23.11 28.43 23.11C29.64 23.11 30.63 22.13 30.63 20.93C30.63 19.7 29.66 18.74 28.43 18.74ZM28.43 21.78C27.95 21.78 27.56 21.4 27.56 20.93C27.56 20.46 27.95 20.07 28.43 20.07C28.93 20.07 29.3 20.44 29.3 20.93C29.3 21.4 28.91 21.78 28.43 21.78Z" fill="#F3652B"/>
<path d="M28.43 12.49C27.21 12.49 26.23 13.47 26.23 14.68C26.23 15.88 27.22 16.86 28.43 16.86C29.64 16.86 30.63 15.88 30.63 14.68C30.63 13.45 29.66 12.49 28.43 12.49ZM28.43 15.53C27.95 15.53 27.56 15.15 27.56 14.68C27.56 14.21 27.95 13.82 28.43 13.82C28.93 13.82 29.3 14.19 29.3 14.68C29.3 15.15 28.91 15.53 28.43 15.53Z" fill="#F3652B"/>
<path d="M28.43 6.25C27.21 6.25 26.23 7.23 26.23 8.44C26.23 9.65 27.22 10.63 28.43 10.63C29.64 10.63 30.63 9.65 30.63 8.44C30.63 7.23 29.64 6.25 28.43 6.25ZM28.43 9.29C27.95 9.29 27.56 8.91 27.56 8.43C27.56 7.96 27.95 7.57 28.43 7.57C28.91 7.57 29.3 7.95 29.3 8.43C29.3 8.91 28.91 9.29 28.43 9.29Z" fill="#F3652B"/>
<path d="M26.87 25.61C26.46 26.02 26.23 26.58 26.23 27.16C26.23 27.73 26.47 28.31 26.87 28.71C27.28 29.12 27.85 29.35 28.43 29.35C29.01 29.35 29.58 29.12 29.98 28.71C30.39 28.31 30.63 27.74 30.63 27.16C30.63 26.58 30.39 26.02 29.98 25.61C29.17 24.8 27.7 24.8 26.87 25.61ZM29.05 27.76C28.73 28.08 28.13 28.08 27.81 27.76C27.65 27.6 27.56 27.37 27.56 27.15C27.56 26.92 27.65 26.7 27.81 26.55C27.97 26.39 28.2 26.3 28.43 26.3C28.66 26.3 28.89 26.39 29.05 26.55C29.21 26.71 29.3 26.93 29.3 27.15C29.3 27.37 29.21 27.61 29.05 27.76Z" fill="#F3652B"/>
<path d="M22.12 29.35C23.34 29.35 24.32 28.37 24.32 27.16C24.32 25.95 23.33 24.97 22.12 24.97C20.9 24.97 19.92 25.95 19.92 27.16C19.92 28.37 20.9 29.35 22.12 29.35ZM22.12 26.3C22.6 26.3 22.99 26.68 22.99 27.16C22.99 27.63 22.6 28.02 22.12 28.02C21.64 28.02 21.25 27.64 21.25 27.16C21.25 26.69 21.64 26.3 22.12 26.3Z" fill="#F3652B"/>
<path d="M15.82 29.35C17.03 29.35 18.02 28.37 18.02 27.16C18.02 25.95 17.03 24.97 15.82 24.97C14.6 24.97 13.62 25.95 13.62 27.16C13.62 28.39 14.59 29.35 15.82 29.35ZM15.82 26.3C16.3 26.3 16.69 26.68 16.69 27.16C16.69 27.63 16.3 28.02 15.82 28.02C15.33 28.02 14.95 27.64 14.95 27.16C14.95 26.69 15.34 26.3 15.82 26.3Z" fill="#F3652B"/>
<path d="M9.51006 29.35C10.7201 29.35 11.7101 28.37 11.7101 27.16C11.7101 25.95 10.7201 24.97 9.51006 24.97C8.29006 24.97 7.31006 25.95 7.31006 27.16C7.31006 28.37 8.30006 29.35 9.51006 29.35ZM9.51006 26.3C9.99006 26.3 10.3801 26.68 10.3801 27.16C10.3801 27.63 9.99006 28.02 9.51006 28.02C9.03006 28.02 8.64006 27.64 8.64006 27.16C8.64006 26.69 9.03006 26.3 9.51006 26.3Z" fill="#F3652B"/>
<path d="M1.66 28.72C2.09 29.13 2.64 29.35 3.21 29.35C3.79 29.35 4.36 29.12 4.77 28.71C5.18 28.31 5.42 27.74 5.42 27.16C5.42 26.58 5.19 26.02 4.77 25.61C3.95 24.8 2.48 24.8 1.66 25.61C1.24 26.02 1 26.58 1 27.16C1 27.73 1.24 28.31 1.66 28.72ZM2.59 26.55C2.91 26.23 3.5 26.23 3.82 26.55C3.98 26.71 4.07 26.93 4.07 27.16C4.07 27.39 3.98 27.61 3.82 27.76C3.5 28.08 2.92 28.08 2.58 27.76C2.42 27.61 2.33 27.37 2.33 27.15C2.33 26.93 2.43 26.71 2.59 26.55Z" fill="#F3652B"/>
<path d="M3.2 23.11C4.41 23.11 5.4 22.13 5.4 20.93C5.4 19.72 4.41 18.74 3.2 18.74C1.98 18.74 1 19.72 1 20.93C1 22.13 1.99 23.11 3.2 23.11ZM3.2 20.07C3.68 20.07 4.07 20.45 4.07 20.93C4.07 21.4 3.68 21.78 3.2 21.78C2.72 21.78 2.33 21.4 2.33 20.93C2.33 20.45 2.73 20.07 3.2 20.07Z" fill="#F3652B"/>
<path d="M3.2 16.86C4.41 16.86 5.4 15.88 5.4 14.68C5.4 13.47 4.41 12.49 3.2 12.49C1.98 12.49 1 13.47 1 14.68C1 15.88 1.99 16.86 3.2 16.86ZM3.2 13.82C3.68 13.82 4.07 14.2 4.07 14.68C4.07 15.15 3.68 15.53 3.2 15.53C2.72 15.53 2.33 15.15 2.33 14.68C2.33 14.21 2.73 13.82 3.2 13.82Z" fill="#F3652B"/>
<path d="M3.2 10.62C4.41 10.62 5.4 9.63999 5.4 8.42999C5.4 7.21999 4.41 6.23999 3.2 6.23999C1.99 6.24999 1 7.22999 1 8.42999C1 9.63999 1.99 10.62 3.2 10.62ZM3.2 7.57999C3.68 7.57999 4.07 7.95999 4.07 8.43999C4.07 8.90999 3.68 9.29999 3.2 9.29999C2.72 9.29999 2.33 8.91999 2.33 8.43999C2.33 7.95999 2.73 7.57999 3.2 7.57999Z" fill="#F3652B"/>
<path d="M33.4297 59.1198H59.9897V32.8198H33.4297V59.1198ZM58.6597 57.7898H34.7697V34.1498H58.6597V57.7898Z" fill="#F3652B"/>
<path d="M37.64 6.23001L42.28 1.33001L41.3 0.420013L35.8 6.23001L35.57 6.47001L35.15 6.91001L35.57 7.36001L35.76 7.56001L41.3 13.36L42.27 12.45L37.61 7.56001H58.66V28.11H59.99V6.23001H37.64Z" fill="#F3652B"/>
<path d="M25.42 52.3398L25.23 52.1398L19.69 46.3398L18.72 47.2498L23.38 52.1398H2.34V32.8471H1L1 53.4698H23.36L18.72 58.3598L19.69 59.2698L25.19 53.4698L25.42 53.2298L25.84 52.7798L25.42 52.3398Z" fill="#F3652B"/>
</svg>
