<svg viewBox="0 0 60 60" fill="none" xmlns="http://www.w3.org/2000/svg">
<path fill-rule="evenodd" clip-rule="evenodd" d="M46.385 32.3367C45.4365 33.5105 44.3769 34.5606 43.2349 35.4964V58.6548H50.0713V25.5955C49.2592 28.0128 48.0378 30.2937 46.385 32.3367Z" stroke="#F3652B" stroke-width="1.4"/>
<path fill-rule="evenodd" clip-rule="evenodd" d="M42.9287 29.2227C37.1233 36.3954 26.6006 37.5025 19.4279 31.6971C12.2553 25.8917 11.1449 15.3691 16.9535 8.19638C22.7589 1.0237 33.2784 -0.0834465 40.4543 5.72195C47.6269 11.5273 48.7341 22.05 42.9287 29.2227Z" stroke="#F3652B" stroke-width="1.4"/>
<path fill-rule="evenodd" clip-rule="evenodd" d="M2.58112 52.4684V52.4684C1.61355 51.6849 1.46445 50.2541 2.24802 49.2897L18.1129 30.6332L20.6603 32.6952L5.76298 52.1353C4.97941 53.0997 3.54868 53.252 2.58112 52.4684Z" stroke="#F3652B" stroke-width="1.4"/>
<path fill-rule="evenodd" clip-rule="evenodd" d="M32.0967 40.2049L32.0967 58.6548H38.9331V38.2159C36.8044 39.2374 34.5077 39.9226 32.0967 40.2049Z" stroke="#F3652B" stroke-width="1.4"/>
<path fill-rule="evenodd" clip-rule="evenodd" d="M21.7328 38.9213L20.9556 39.9333L20.9556 58.6548H27.792V40.2664C25.7077 40.1046 23.6711 39.6795 21.7328 38.9213Z" stroke="#F3652B" stroke-width="1.4"/>
<path fill-rule="evenodd" clip-rule="evenodd" d="M9.81152 54.4688V58.6548H16.6479V45.5482L9.81152 54.4688Z" stroke="#F3652B" stroke-width="1.4"/>
<path d="M1 58.7502H59" stroke="#F3652B" stroke-width="1.4"/>
</svg>
