<svg  viewBox="0 0 600 600" fill="none" xmlns="http://www.w3.org/2000/svg">
<path fill-rule="evenodd" clip-rule="evenodd" d="M126.218 228.968L130.85 226.863L125.605 215.237L120.96 217.356C112.704 221.095 103.579 222.422 94.6083 221.069L89.5421 220.303L87.73 232.95L92.7707 233.69C95.6164 234.098 98.5387 234.328 101.448 234.328C110.049 234.328 118.395 232.529 126.218 228.968Z" fill="#F3652B"/>
<path fill-rule="evenodd" clip-rule="evenodd" d="M138.331 204.2L149.025 211.193L151.807 206.88C158.047 197.22 161.353 185.99 161.353 174.428C161.353 163.071 158.162 152.032 152.126 142.5L149.395 138.174L138.599 145.026L141.33 149.34C146.065 156.818 148.579 165.495 148.579 174.428C148.579 183.514 145.988 192.332 141.088 199.938L138.331 204.2Z" fill="#F3652B"/>
<path fill-rule="evenodd" clip-rule="evenodd" d="M56.1549 187.512L54.7384 182.599L42.4749 186.159L43.8913 191.06C47.0944 202.124 53.3602 211.975 62.0505 219.543L65.8661 222.873L74.3268 213.315L70.4602 209.934C63.6074 203.949 58.6561 196.19 56.1549 187.512Z" fill="#F3652B"/>
<path fill-rule="evenodd" clip-rule="evenodd" d="M95.0362 127.725C104.097 126.551 113.272 127.917 121.375 131.707L126.02 133.876L131.406 122.327L126.786 120.158C116.373 115.27 104.709 113.56 93.3645 115.079L88.311 115.755L89.9828 128.389L95.0362 127.725Z" fill="#F3652B"/>
<path fill-rule="evenodd" clip-rule="evenodd" d="M62.5235 128.917C53.7437 136.421 47.3504 146.221 44.058 157.247L42.5905 162.134L54.8157 165.797L56.2832 160.909C58.8865 152.232 63.9017 144.524 70.8055 138.628L74.6849 135.31L66.4156 125.599L62.5235 128.917Z" fill="#F3652B"/>
<path fill-rule="evenodd" clip-rule="evenodd" d="M297.734 157.584L287.091 150.566L264.414 184.447L275.006 191.593L297.734 157.584Z" fill="#F3652B"/>
<path fill-rule="evenodd" clip-rule="evenodd" d="M312.501 135.553L313.905 141.232L326.283 138.169L317.912 104.48L298.489 133.55L309.068 140.67L312.501 135.553Z" fill="#F3652B"/>
<path fill-rule="evenodd" clip-rule="evenodd" d="M328.751 200.723L341.117 197.546L331.253 157.973L318.874 161.036L328.751 200.723Z" fill="#F3652B"/>
<path fill-rule="evenodd" clip-rule="evenodd" d="M127.327 268.804L138.71 274.56L157.06 238.011L145.613 232.32L127.327 268.804Z" fill="#F3652B"/>
<path fill-rule="evenodd" clip-rule="evenodd" d="M118.13 287.047L99.8179 323.57L111.226 329.249L129.564 292.765L118.13 287.047Z" fill="#F3652B"/>
<mask id="mask0" mask-type="alpha" maskUnits="userSpaceOnUse" x="20" y="82" width="560" height="437">
<path fill-rule="evenodd" clip-rule="evenodd" d="M20 518.905H580V82H20V518.905Z" fill="white"/>
</mask>
<g mask="url(#mask0)">
<path fill-rule="evenodd" clip-rule="evenodd" d="M112.774 340.9H153.623V328.139H112.774V340.9Z" fill="#F3652B"/>
<path fill-rule="evenodd" clip-rule="evenodd" d="M197.488 260.541L168.239 231.956L159.358 241.144L188.555 269.627L197.488 260.541Z" fill="#F3652B"/>
<path fill-rule="evenodd" clip-rule="evenodd" d="M237.689 320.763C237.689 294.768 258.809 273.623 284.791 273.623C310.798 273.623 331.931 294.768 331.931 320.763C331.931 346.745 310.798 367.877 284.791 367.877C258.809 367.877 237.689 346.745 237.689 320.763ZM344.706 320.763C344.706 287.737 317.818 260.862 284.792 260.862C251.779 260.862 224.917 287.737 224.917 320.763C224.917 353.777 251.779 380.639 284.792 380.639C317.818 380.639 344.706 353.777 344.706 320.763Z" fill="#F3652B"/>
<path fill-rule="evenodd" clip-rule="evenodd" d="M392.619 436.164L495.844 281.856L543.89 474.461H295.136L340.106 384.928L392.619 436.164ZM274.45 487.221H560.237L501.255 250.832L390.539 416.294L336.521 363.616L274.45 487.221Z" fill="#F3652B"/>
<path fill-rule="evenodd" clip-rule="evenodd" d="M567.226 506.144H216.127V241.069H238.905H241.917H338.826L338.851 241.184L339.323 241.069H567.226V506.144ZM32.7608 359.811V94.7349H383.873V228.306H348.792L346.087 217.421L333.708 220.484L335.661 228.306H250.441L263.649 208.552L253.07 201.419L235.077 228.306H203.353V328.15H174.002V340.911H203.353V359.811H32.7608ZM396.647 228.307V82H20V372.573H203.353V518.905H580V228.307H396.647Z" fill="#F3652B"/>
</g>
</svg>
