<svg viewBox="0 0 72 72" fill="none" xmlns="http://www.w3.org/2000/svg">
<path d="M36.3672 0.216L36.006 0L0.361144 20.808L0 21.036V50.976L35.6328 71.796L36.006 72L71.6388 51.192L72 50.964V21.024L36.3672 0.216ZM70.5434 50.148L35.994 70.32L1.45661 50.148V21.852L35.994 1.68L70.5434 21.852V50.148Z" fill="#F3652B"/>
<path d="M35.9943 56.844L6.05545 39.36L5.30908 40.608L35.6211 58.308L35.9943 58.524L66.6794 40.608L65.9331 39.36L35.9943 56.844Z" fill="#F3652B"/>
<path d="M6.05545 25.8839L5.30908 27.1319L35.6331 44.8319L35.9943 45.0479L66.6794 27.1319L65.9331 25.8839L35.9943 43.3679L6.05545 25.8839Z" fill="#F3652B"/>
</svg>
