<svg viewBox="0 0 40 40" fill="none" xmlns="http://www.w3.org/2000/svg">
<g clip-path="url(#clip0)">
<path d="M6.89108 22.2569C6.93346 21.737 7.3149 14.6042 9.99346 10.2495C12.4008 6.33798 14.7572 5.64771 14.7572 5.64771C14.7572 5.64771 12.7059 10.6586 12.9518 14.894C13.223 19.4958 15.3675 22.4784 15.3675 22.4784C15.3675 22.4784 17.5121 21.7796 18.2072 18.8992C18.7836 16.5216 18.5801 15.1411 18.4021 12.4397C20.1652 14.2974 25.2681 22.9386 20.1737 29.8414C16.1559 35.2868 6.74698 34.196 3.83107 30.1567C-0.280013 24.4726 1.78824 18.6606 3.34791 16.8881C3.15296 20.1434 5.81457 22.0097 6.89108 22.2569Z" stroke="#F3652B" stroke-miterlimit="10"/>
<path d="M38.5761 10.4285H30.3879V16.2745H38.5761V10.4285Z" stroke="#F3652B" stroke-miterlimit="10"/>
<path d="M38.5762 19.1975H26.226V25.0947H38.5762V19.1975Z" stroke="#F3652B" stroke-miterlimit="10"/>
<path d="M38.5761 27.7961H30.2353V33.5739H38.5761V27.7961Z" stroke="#F3652B" stroke-miterlimit="10"/>
<path d="M27.7687 33.5739C27.7687 33.5739 21.1824 33.5739 20.9875 33.5739C21.4198 33.199 22.3776 32.3212 23.1829 30.9918C23.8525 29.8839 24.395 27.7961 24.395 27.7961H27.7771V33.5739H27.7687Z" stroke="#F3652B" stroke-miterlimit="10"/>
<path d="M27.7687 16.2745C27.7687 16.2745 24.2848 16.2745 23.9882 16.2745C23.8356 15.8825 23.1151 14.1015 22.8269 13.3515C22.2335 11.8432 20.996 10.4285 20.996 10.4285H27.7771V16.2745H27.7687Z" stroke="#F3652B" stroke-miterlimit="10"/>
</g>
<defs>
<clipPath id="clip0">
<rect width="38" height="29" fill="white" transform="translate(1 5)"/>
</clipPath>
</defs>
</svg>
