<svg width="104" height="24" viewBox="0 0 104 24" fill="none" xmlns="http://www.w3.org/2000/svg">
<path fill-rule="evenodd" clip-rule="evenodd" d="M59.3956 2L55.6585 21.5122H75.0922L78.8293 2H59.3956ZM62.4313 5.68662H74.3765L72.0516 17.8256H60.1064L62.4313 5.68662Z" fill="#F3652B"/>
<path fill-rule="evenodd" clip-rule="evenodd" d="M52.0004 2L48.3415 21.5122H51.9996L55.6585 2H52.0004Z" fill="#F3652B"/>
<path fill-rule="evenodd" clip-rule="evenodd" d="M22.3186 2L2.54543 18.6468L2 21.5122H4.84877L20.1656 8.62379L17.6968 21.5122H21.4331L25.1707 2H22.3186Z" fill="#F3652B"/>
<path fill-rule="evenodd" clip-rule="evenodd" d="M98.2631 2L96.6051 10.6559L99.6233 14.4079L102 2H98.2631ZM82.5663 2L78.8293 21.5122H82.5678L85.1291 8.13582L95.9259 21.5122H98.2629L98.7244 19.1235L84.9032 2H82.5663Z" fill="#F3652B"/>
<path fill-rule="evenodd" clip-rule="evenodd" d="M28.9079 2L28.2017 5.68668H41.1071L25.7237 18.6395L25.1707 21.5122H44.6043L45.3105 17.8255H32.4053L47.792 4.86987L48.3415 2H28.9079Z" fill="#F3652B"/>
</svg>
