<svg id="Layer_1" data-name="Layer 1" xmlns="http://www.w3.org/2000/svg" viewBox="0 0 40 40"><defs><style>.cls-1{fill:#f3652b;}</style></defs><path class="cls-1" d="M32.47,28.73c-2.36,0-4.76-.68-4.76-2,0-2.62,9.52-2.62,9.52,0C37.23,28.05,34.84,28.73,32.47,28.73Zm0-3.15c-2.53,0-3.92.77-3.92,1.16s1.39,1.15,3.92,1.15,3.92-.76,3.92-1.15S35,25.58,32.47,25.58Z"/><path class="cls-1" d="M32.47,31.27c-4.53,0-4.75-1.77-4.76-2a.42.42,0,0,1,.84-.06c0,.06.3,1.19,3.92,1.19s3.92-1.18,3.93-1.19a.41.41,0,0,1,.44-.39.42.42,0,0,1,.39.45C37.22,29.5,37,31.27,32.47,31.27Z"/><path class="cls-1" d="M32.47,33.74c-4.53,0-4.75-1.77-4.76-2v-5a.42.42,0,0,1,.84,0v5h0s.27,1.15,3.92,1.15,3.92-1.18,3.93-1.19v-5a.42.42,0,0,1,.42-.42.42.42,0,0,1,.42.42v5C37.22,32,37,33.74,32.47,33.74Z"/><path class="cls-1" d="M27,33.63h-2.6a.42.42,0,0,1-.42-.42V18.31h-4.6a.41.41,0,0,1-.38-.24.44.44,0,0,1,0-.44L27.76,6.49a.42.42,0,0,1,.33-.16h0a.42.42,0,0,1,.33.16l8.73,11.14a.44.44,0,0,1,0,.44.41.41,0,0,1-.38.24H32.22v5.14a.42.42,0,0,1-.42.42.41.41,0,0,1-.42-.42V17.89a.42.42,0,0,1,.42-.42H36l-7.86-10-7.87,10h4.16a.42.42,0,0,1,.42.42v14.9H27a.42.42,0,0,1,0,.84Z"/><path class="cls-1" d="M12,33.63a.43.43,0,0,1-.26-.09.43.43,0,0,1-.07-.59l8.14-10.38H15.62a.42.42,0,0,1-.42-.42V7.1H8.62V22.15a.42.42,0,0,1-.42.42H4.05l2.23,2.84a.42.42,0,0,1-.07.59.42.42,0,0,1-.59-.07L2.85,22.41a.45.45,0,0,1,0-.45.42.42,0,0,1,.38-.23H7.78v-15a.42.42,0,0,1,.42-.42h7.42a.42.42,0,0,1,.42.42V21.73h4.6A.42.42,0,0,1,21,22a.45.45,0,0,1,0,.45L12.3,33.47A.39.39,0,0,1,12,33.63Z"/><path class="cls-1" d="M7,33.71c-2.35,0-4.19-1.09-4.19-2.48a.42.42,0,0,1,.42-.42.42.42,0,0,1,.42.42C3.61,32,5,32.86,7,32.86s3.36-.86,3.36-1.63a.42.42,0,0,1,.84,0C11.16,32.62,9.32,33.71,7,33.71Z"/><path class="cls-1" d="M7,31.94c-2.35,0-4.19-1.08-4.19-2.47S4.61,27,7,27s4.2,1.09,4.2,2.48S9.32,31.94,7,31.94Zm0-4.1c-2,0-3.35.86-3.35,1.63S5,31.1,7,31.1s3.36-.86,3.36-1.63S8.94,27.84,7,27.84Z"/><path class="cls-1" d="M7,33.71c-2.35,0-4.19-1.09-4.19-2.48V29.47a.42.42,0,0,1,.42-.42.42.42,0,0,1,.42.42v1.76C3.61,32,5,32.86,7,32.86s3.36-.86,3.36-1.63V29.47a.42.42,0,1,1,.84,0v1.76C11.16,32.62,9.32,33.71,7,33.71Z"/><path class="cls-1" d="M5,33.42A.42.42,0,0,1,4.62,33V31.23a.42.42,0,0,1,.84,0V33A.42.42,0,0,1,5,33.42Z"/><path class="cls-1" d="M7,33.71a.42.42,0,0,1-.42-.43V31.52A.42.42,0,0,1,7,31.1a.42.42,0,0,1,.42.42v1.76A.42.42,0,0,1,7,33.71Z"/><path class="cls-1" d="M8.75,33.46A.42.42,0,0,1,8.33,33V31.28a.42.42,0,0,1,.42-.42.41.41,0,0,1,.42.42V33A.42.42,0,0,1,8.75,33.46Z"/></svg>
