<svg id="Layer_1" data-name="Layer 1" xmlns="http://www.w3.org/2000/svg" viewBox="0 0 40 40"><defs><style>.cls-1{fill:#f3652b;}</style></defs><path class="cls-1" d="M37.19,20l0-.43h-.07v-.08l-.37,0a4,4,0,0,1-2.54-1.45c-.72-1-.59-3.31-.46-5.52a14.71,14.71,0,0,0-.15-4.67A4.18,4.18,0,0,0,28.88,5H28.5v.94H29a3.23,3.23,0,0,1,3.72,2.28,14.31,14.31,0,0,1,.11,4.32c-.14,2.37-.29,4.82.62,6.12A4.26,4.26,0,0,0,35.16,20a4.26,4.26,0,0,0-1.7,1.38c-.91,1.3-.76,3.76-.62,6.14a14.19,14.19,0,0,1-.11,4.3A3.22,3.22,0,0,1,29,34.1H28.5l0,.95h.38l.59,0a4,4,0,0,0,4.11-3,14.59,14.59,0,0,0,.17-4.67c-.13-2.11-.27-4.49.45-5.52a3.92,3.92,0,0,1,2.54-1.45l.36,0v-.07h.08Z"/><path class="cls-1" d="M11.08,5a4.17,4.17,0,0,0-4.7,2.93,14.42,14.42,0,0,0-.16,4.68c.13,2.2.26,4.48-.45,5.5a4,4,0,0,1-2.55,1.45l-.37,0v.07H2.77l0,.44,0,.42h.08v.07l.37,0a4,4,0,0,1,2.54,1.45c.72,1,.57,3.41.45,5.53a14.32,14.32,0,0,0,.16,4.66,4.05,4.05,0,0,0,4.12,3,4.91,4.91,0,0,0,.62,0h.38v-.94H11a3.22,3.22,0,0,1-3.71-2.28,14.31,14.31,0,0,1-.12-4.33c.15-2.37.29-4.81-.62-6.11A4.26,4.26,0,0,0,4.84,20a4.2,4.2,0,0,0,1.7-1.38c.91-1.3.77-3.74.62-6.12a14.39,14.39,0,0,1,.12-4.32A3.21,3.21,0,0,1,11,5.9h.52V5.53L11.42,5Z"/><path class="cls-1" d="M20,12.44c-1,1-1.08,3.64-1.07,4.72H16.67v.94h2.27V30.22h.95V18.1H24v-.94H19.88c0-1.17.12-3.36.8-4.05s3.1-.25,3.91,0l.35.13.34-.88-.36-.14c-.35-.13-3.51-1.25-4.92.18"/></svg>
