<svg id="Layer_1" data-name="Layer 1" xmlns="http://www.w3.org/2000/svg" viewBox="0 0 40 40"><defs><style>.cls-1{fill:#f3652b;}</style></defs><path class="cls-1" d="M20,19.12c-3.14,0-6.49-.92-6.49-2.62s3.35-2.62,6.49-2.62,6.49.92,6.49,2.62S23.14,19.12,20,19.12Zm0-4.4c-3.5,0-5.65,1-5.65,1.78S16.5,18.28,20,18.28s5.65-1,5.65-1.78S23.5,14.72,20,14.72Z"/><path class="cls-1" d="M20,22.67c-6.18,0-6.47-2.33-6.49-2.6a.42.42,0,0,1,.4-.44.41.41,0,0,1,.44.39c0,.06.34,1.81,5.65,1.81S25.64,20,25.65,20a.42.42,0,0,1,.84.05C26.47,20.34,26.18,22.67,20,22.67Z"/><path class="cls-1" d="M20,26.12c-6.18,0-6.47-2.33-6.49-2.6v-7a.42.42,0,0,1,.42-.42.42.42,0,0,1,.42.42v7h0s.31,1.78,5.65,1.78,5.64-1.8,5.65-1.82v-7a.42.42,0,0,1,.42-.42.42.42,0,0,1,.42.42v7C26.47,23.79,26.18,26.12,20,26.12Z"/><path class="cls-1" d="M22.92,23.62a.42.42,0,0,1-.42-.42V18.43a.42.42,0,0,1,.84,0V23.2A.42.42,0,0,1,22.92,23.62Z"/><path class="cls-1" d="M22.92,25.82a.42.42,0,0,1-.42-.42v-.58a.42.42,0,1,1,.84,0v.58A.42.42,0,0,1,22.92,25.82Z"/><path class="cls-1" d="M34.3,17.19a.41.41,0,0,1-.41-.33A14.32,14.32,0,0,0,20,5.78,14.15,14.15,0,0,0,6.84,14.66a.44.44,0,0,1-.55.23.42.42,0,0,1-.23-.55,15,15,0,0,1,14-9.4A15.17,15.17,0,0,1,34.71,16.68a.43.43,0,0,1-.32.5Z"/><path class="cls-1" d="M5.38,20.42H5.3A.4.4,0,0,1,5,20.14L2.79,14a.43.43,0,0,1,.08-.42.41.41,0,0,1,.39-.14l6.48,1.22a.44.44,0,0,1,.32.27.45.45,0,0,1-.08.42l-4.29,4.9A.41.41,0,0,1,5.38,20.42Zm-1.55-6,1.7,4.75,3.33-3.8Z"/><path class="cls-1" d="M20,35.06A15.15,15.15,0,0,1,5.32,23.29a.42.42,0,0,1,.32-.5.42.42,0,0,1,.5.32A14.22,14.22,0,0,0,33.2,25.34a.41.41,0,0,1,.54-.23.43.43,0,0,1,.24.55A15,15,0,0,1,20,35.06Z"/><path class="cls-1" d="M36.81,26.51h-.07l-6.48-1.21A.42.42,0,0,1,30,24.6l4.29-4.9a.45.45,0,0,1,.39-.14.42.42,0,0,1,.32.27L37.21,26a.41.41,0,0,1-.08.41A.39.39,0,0,1,36.81,26.51ZM31.14,24.6l5,.94-1.7-4.75Z"/></svg>
