<?xml version="1.0" encoding="UTF-8"?>
	<svg width="6" height="10" viewBox="0 0 6 10" fill="none" xmlns="http://www.w3.org/2000/svg">
    <path d="M4.96875 8.68764e-07C4.6875 8.19589e-07 4.5 0.096155 4.3125 0.288462L0.281251 4.32692C0.093751 4.51923 9.24664e-07 4.71154 8.74228e-07 5C8.23792e-07 5.28846 0.0937508 5.48077 0.281251 5.67308L4.21875 9.71154C4.59375 10.0962 5.15625 10.0962 5.53125 9.71154C5.90625 9.32692 5.90625 8.75 5.53125 8.36539L2.34375 5L5.71875 1.63462C6.09375 1.25 6.09375 0.673078 5.71875 0.288463C5.53125 0.0961552 5.25 9.17939e-07 4.96875 8.68764e-07Z" fill="#F3652B"/>
</svg>
