<svg width="1450" height="756" viewBox="0 0 1450 756" fill="none" xmlns="http://www.w3.org/2000/svg">
<g opacity="0.5">
<path d="M1387.74 614.274C1410.54 690.046 1256.27 747.324 1214.24 812.432C1161.61 893.954 1116.93 979.182 1021.24 968.924C925.542 958.666 912.314 1066.78 794.526 1016.67C626.695 945.289 143.156 1065.59 103.257 747.827C71.4041 494.145 393.125 400.131 548.047 450.018C772.861 522.411 869.92 346.875 1036.38 346.875C1231.45 346.875 1364.93 538.502 1387.74 614.274Z" fill="black"/>
<path d="M1387.74 614.274C1410.54 690.046 1256.27 747.324 1214.24 812.432C1161.61 893.954 1116.93 979.182 1021.24 968.924C925.542 958.666 912.314 1066.78 794.526 1016.67C626.695 945.289 143.156 1065.59 103.257 747.827C71.4041 494.145 393.125 400.131 548.047 450.018C772.861 522.411 869.92 346.875 1036.38 346.875C1231.45 346.875 1364.93 538.502 1387.74 614.274Z" fill="url(#paint0_linear)"/>
</g>
<defs>
<linearGradient id="paint0_linear" x1="774.395" y1="564.669" x2="822.848" y2="-76.6297" gradientUnits="userSpaceOnUse">
<stop stop-color="#1E1E1E"/>
<stop offset="1"/>
</linearGradient>
</defs>
</svg>
