<svg width="223" height="128" viewBox="0 0 223 128" fill="none" xmlns="http://www.w3.org/2000/svg">
<path d="M97.1934 66.8221C97.1934 65.2069 97.1934 64.3078 97.1934 62.44L69.9588 62.44L69.9588 87.6097L97.1934 87.6097C97.1934 83.8644 97.1934 80.8481 97.1934 76.982" stroke="#F3652B" stroke-miterlimit="10" stroke-linecap="round" stroke-linejoin="round"/>
<path d="M32.3605 126.24L59.5951 126.24L59.5951 101.07L32.3605 101.07L32.3605 126.24Z" stroke="#F3652B" stroke-miterlimit="10" stroke-linecap="round" stroke-linejoin="round"/>
<path d="M0.807846 126.24L28.0424 126.24L28.0424 101.07L0.807846 101.07L0.807846 126.24Z" stroke="#F3652B" stroke-miterlimit="10" stroke-linecap="round" stroke-linejoin="round"/>
<path d="M98.8332 126.632L126.068 126.632L126.068 101.462L98.8332 101.462L98.8332 126.632Z" stroke="#F3652B" stroke-miterlimit="10" stroke-linecap="round" stroke-linejoin="round"/>
<path d="M130.033 126.632L157.267 126.632L157.267 101.462L130.033 101.462L130.033 126.632Z" stroke="#F3652B" stroke-miterlimit="10" stroke-linecap="round" stroke-linejoin="round"/>
<path d="M161.155 126.632L188.389 126.632L188.389 101.462L161.155 101.462L161.155 126.632Z" stroke="#F3652B" stroke-miterlimit="10" stroke-linecap="round" stroke-linejoin="round"/>
<path d="M127.135 35.3201C127.831 39.3554 128.527 43.4204 128.396 47.5093C128.265 51.5981 127.248 55.7643 124.808 59.0497C123.487 60.8293 121.791 62.2934 120.042 63.6504C118.495 64.8467 116.876 65.9775 115.115 66.8226C110.289 69.1379 108.26 70.0604 103.286 72.0304C102.304 72.4173 101.299 72.7922 100.46 73.4291C99.0672 74.4885 97.6332 75.7562 96.6395 77.1965C94.5985 80.1367 89.4396 81.6484 85.9527 82.44C83.0311 83.1066 79.4371 81.9757 77.9852 79.357C77.4259 78.3452 81.4186 76.8811 81.8767 76.7025C82.7871 76.3395 87.1666 73.2803 86.1848 72.4411C85.5005 71.8578 81.3888 73.3636 82.2338 71.1257C83.0906 68.8581 89.1837 69.2986 91.0938 68.5665L91.671 68.4058C100.775 66.9714 104.756 63.9122 111.42 57.5439C114.443 54.6573 117.727 53.2229 117.412 49.0567C117.293 47.4379 116.198 43.5871 115.621 42.0754C113.741 37.1473 106.582 30.773 108.51 25.3093" stroke="#646464" stroke-miterlimit="10" stroke-linecap="round" stroke-linejoin="round"/>
<path d="M101.745 18.5662C104.624 18.7923 107.487 19.2209 110.378 19.4054C122.196 20.1553 134.626 22.4348 144.313 29.8209C156.999 39.4925 157.297 52.4791 152.132 66.2098C151.239 68.5786 150.37 70.9473 149.514 73.328C148.936 74.935 145.182 82.3985 149.335 82.0116C151.198 81.839 152.911 80.8808 154.887 80.8213C156.719 80.7677 158.558 80.9879 160.361 81.3272C167.049 82.5889 173.41 85.1065 179.985 86.8028C183.234 87.642 186.548 88.2847 189.91 88.4514C193.088 88.6061 195.902 87.3622 199.038 86.9397C199.722 86.8504 200.478 86.7909 201.037 87.1956C201.632 87.6241 201.793 88.4335 201.9 89.1596C202.805 95.278 203.15 101.48 202.93 107.658C202.822 110.723 202.674 113.865 202.18 116.901C201.644 120.204 199.098 116.514 198.485 115.044C197.604 112.919 196.836 110.747 196.188 108.544C195.956 107.765 195.742 106.967 195.742 106.152C195.742 105.819 195.777 105.479 195.682 105.164C195.575 104.831 195.331 104.557 195.087 104.301C193.951 103.099 192.927 101.712 191.297 101.545C189.333 101.343 187.245 101.539 185.275 101.533C181.157 101.515 177.04 101.492 172.922 101.456C164.687 101.385 156.452 101.265 148.216 101.111C144.634 101.039 141.052 100.968 137.47 100.879C134.953 100.819 129.294 101.759 127.152 100.498C116.43 94.1829 122.981 70.3581 126.754 61.9245" stroke="#646464" stroke-miterlimit="10" stroke-linecap="round" stroke-linejoin="round"/>
<path d="M98.6443 28.6127C97.8172 29.94 97.1091 32.1005 95.4014 32.4576C93.5687 32.8444 91.6825 31.1541 89.9212 31.7791C89.344 31.9874 88.8739 32.4219 88.3027 32.6421C87.7315 32.8623 86.9341 32.7552 86.7199 32.1838C86.6247 31.9279 85.8988 30.1185 85.2204 29.8745C84.5421 29.6245 83.8043 29.6007 83.0962 29.4638C81.5253 29.1662 79.7462 27.7259 78.7108 26.5058C78.4549 26.2023 78.5561 26.3034 78.8536 26.0416C79.0083 25.9106 79.2285 25.9106 79.4308 25.9047C82.6321 25.8333 83.2271 22.899 85.5894 21.5658C86.4343 21.0897 94.1875 20.3338 94.1816 20.3219C93.539 18.6852 90.421 14.876 90.8732 13.275C91.4266 11.299 94.8421 11.2931 96.1511 12.2275C97.5792 13.2393 98.0314 15.4474 97.0258 16.8818C96.8949 17.0663 98.0255 17.9829 101.756 18.5661" stroke="#646464" stroke-miterlimit="10" stroke-linecap="round" stroke-linejoin="round"/>
<path d="M103.452 32.4039C103.571 32.023 103.536 31.6124 103.5 31.2136C103.464 30.8029 103.429 30.3923 103.28 30.0114C103.137 29.6424 102.905 29.2853 102.643 28.9877C101.774 28.0116 100.959 27.845 99.7037 27.4998" stroke="#646464" stroke-miterlimit="10" stroke-linecap="round" stroke-linejoin="round"/>
<path d="M97.514 17.1491C98.3768 17.7026 99.6025 17.6134 100.376 16.9349C100.769 16.5897 101.043 16.1254 101.257 15.6493C102.024 13.965 102.28 12.2806 101.596 10.513C100.781 8.41201 98.5553 6.95384 96.3061 7.03716C95.9312 7.04907 95.5325 7.09668 95.2112 6.90622C94.8482 6.69196 94.7054 6.25749 94.5567 5.86467C93.4499 2.96619 90.4034 0.924755 87.3032 1.00213C84.2031 1.0795 81.2637 3.26378 80.2938 6.21583C77.991 4.71599 74.8969 4.20415 72.4751 5.50757C70.0593 6.811 68.8097 10.2094 70.3092 12.5127C68.6014 12.1199 66.7449 12.9889 65.7334 14.4232C64.7218 15.8516 64.4779 17.7383 64.817 19.4584C65.3288 22.0771 67.1734 24.4043 69.607 25.5053C69.6487 28.0765 71.2017 30.5643 73.4985 31.7308C75.7894 32.8914 78.717 32.6771 80.8174 31.1952C81.0257 32.3676 82.4418 33.0104 83.6022 32.7605C84.7684 32.5105 85.3099 32.082 86.0418 31.1416" stroke="#646464" stroke-miterlimit="10" stroke-linecap="round" stroke-linejoin="round"/>
<path d="M99.5965 39.5698C99.6263 39.7067 99.656 39.8377 99.6858 39.9746C99.1146 38.1712 97.4544 34.8621 98.2042 33.017C98.3827 32.5826 98.6742 32.2016 98.9658 31.8326C99.9535 30.5649 100.739 29.7019 101.727 28.4402" stroke="#646464" stroke-miterlimit="10" stroke-linecap="round" stroke-linejoin="round"/>
<path d="M98.7515 28.4398C99.8999 26.5114 100.465 24.2379 99.9356 22.0596" stroke="#646464" stroke-miterlimit="10" stroke-linecap="round" stroke-linejoin="round"/>
<path d="M109.206 19.2385C110.254 19.5064 110.551 19.0659 110.861 19.5837C111.033 19.8754 110.985 20.2622 110.807 20.5539C110.628 20.8455 110.349 21.0598 110.063 21.2443C109.296 21.7323 108.415 22.0775 107.808 22.756C106.743 23.9404 106.053 26.0235 105.987 27.5948C105.946 28.6245 106.16 29.6482 106.374 30.66C106.761 32.4812 107.148 33.6954 107.528 35.5166C107.629 35.9927 107.677 36.5998 107.267 36.8557C107.058 36.9867 106.802 36.9748 106.558 36.945C104.863 36.7427 103.31 36.3498 102.286 34.9809C101.263 33.612 100.662 31.6122 100.566 29.9041" stroke="#646464" stroke-miterlimit="10" stroke-linecap="round" stroke-linejoin="round"/>
<path d="M122.749 62.0014C123.957 62.6918 125.486 62.5132 126.795 62.043C127.016 61.9657 127.23 61.8764 127.438 61.7931C131.722 60.0135 135.12 57.7995 137.209 53.5142C137.393 53.1333 139.059 47.8006 139.148 47.8006C141.951 47.7351 144.313 47.1875 146.979 48.6457C152.941 51.9073 151.995 59.9837 151.061 65.6319C150.864 66.8104 150.65 68.0186 150.924 69.1851" stroke="#646464" stroke-miterlimit="10" stroke-linecap="round" stroke-linejoin="round"/>
<path d="M195.783 87.6123C196.967 91.0702 197.092 94.5758 196.307 98.1527C196.069 99.23 195.575 100.462 194.504 100.718C193.659 100.92 191.463 100.885 190.874 101.521" stroke="#646464" stroke-miterlimit="10" stroke-linecap="round" stroke-linejoin="round"/>
<path d="M103.964 63.8642C102.102 59.448 100.221 55.0318 98.3946 50.5978C97.383 48.1457 96.3655 45.3722 97.389 42.926C97.9245 41.6404 98.9836 40.6227 100.168 39.8906C104.184 37.4147 109.301 38.0575 113.961 38.7836" stroke="#646464" stroke-miterlimit="10" stroke-linecap="round" stroke-linejoin="round"/>
<path d="M125.974 99.9554C117.858 100.045 106.1 100.14 97.9841 100.229C100.025 96.3903 111.598 95.9677 113.877 94.2894C114.175 94.0691 114.466 93.8251 114.639 93.4978C114.806 93.1764 114.847 92.8014 114.853 92.4384C114.925 89.0816 112.777 85.7189 111.61 82.6598C110.236 79.059 108.802 75.488 107.332 71.9288C107.154 71.4884 106.969 71.054 106.791 70.6135" stroke="#646464" stroke-miterlimit="10" stroke-linecap="round" stroke-linejoin="round"/>
<path d="M99.2039 74.1431C98.3232 73.899 97.6985 72.7504 97.5021 72.0897C96.9428 70.209 97.5854 68.8282 98.2518 66.9772" stroke="#646464" stroke-miterlimit="10" stroke-linecap="round" stroke-linejoin="round"/>
<path d="M83.5781 82.5943C85.6309 82.2015 87.6064 81.404 89.3558 80.2554" stroke="#646464" stroke-miterlimit="10" stroke-linecap="round" stroke-linejoin="round"/>
<path d="M81.3528 82.0347C83.727 81.1122 86.0714 80.1183 88.3801 79.053" stroke="#646464" stroke-miterlimit="10" stroke-linecap="round" stroke-linejoin="round"/>
<path d="M86.3511 77.4761C84.0602 78.8628 81.5254 79.8329 78.8954 80.3269" stroke="#646464" stroke-miterlimit="10" stroke-linecap="round" stroke-linejoin="round"/>
<path d="M121.738 93.4204C119.947 94.1823 118.162 94.95 116.371 95.7119C116.204 95.7833 116.002 95.8488 115.871 95.7119C115.793 95.6405 115.77 95.5214 115.74 95.4143C115.484 94.343 115.234 93.2716 114.978 92.2003" stroke="#646464" stroke-miterlimit="10" stroke-linecap="round" stroke-linejoin="round"/>
</svg>
