<svg width="49" height="49" viewBox="0 0 49 49" fill="none" xmlns="http://www.w3.org/2000/svg">
<path d="M43.0945 0H5.90554C2.63355 0 0 2.63355 0 5.90554V43.0945C0 46.3664 2.63355 49 5.90554 49H43.0945C46.3664 49 49 46.3664 49 43.0945V5.90554C49 2.63355 46.3664 0 43.0945 0ZM5.90554 1.11726H43.0945C45.728 1.11726 47.8827 3.27199 47.8827 5.90554V10.6938H1.11726V5.90554C1.11726 3.27199 3.27199 1.11726 5.90554 1.11726ZM43.0945 47.8827H5.90554C3.27199 47.8827 1.11726 45.728 1.11726 43.0945V11.8909H47.8827V43.0945C47.8827 45.728 45.728 47.8827 43.0945 47.8827Z" fill="#F3652B"/>
<path d="M5.98534 17.6368H40.4609C40.7801 17.6368 41.0195 17.3974 41.0195 17.0782C41.0195 16.759 40.7801 16.5195 40.4609 16.5195H5.98534C5.66612 16.5195 5.42671 16.759 5.42671 17.0782C5.42671 17.3974 5.66612 17.6368 5.98534 17.6368Z" fill="#F3652B"/>
<path d="M44.6905 21.9463H8.61889C8.29967 21.9463 8.06026 22.1857 8.06026 22.5049C8.06026 22.8241 8.29967 23.0635 8.61889 23.0635H44.6905C45.0098 23.0635 45.2492 22.8241 45.2492 22.5049C45.2492 22.1857 44.93 21.9463 44.6905 21.9463Z" fill="#F3652B"/>
<path d="M37.8274 28.0912C37.8274 27.772 37.5879 27.5326 37.2687 27.5326H5.98534C5.66612 27.5326 5.42671 27.772 5.42671 28.0912C5.42671 28.4104 5.66612 28.6498 5.98534 28.6498H37.2687C37.5879 28.6498 37.8274 28.4104 37.8274 28.0912Z" fill="#F3652B"/>
<path d="M20.5098 33.1189H8.61889C8.29967 33.1189 8.06026 33.3583 8.06026 33.6775C8.06026 33.9967 8.29967 34.2362 8.61889 34.2362H20.5098C20.829 34.2362 21.0684 33.9967 21.0684 33.6775C21.0684 33.3583 20.829 33.1189 20.5098 33.1189Z" fill="#F3652B"/>
<path d="M32.8795 33.0391L27.772 38.1466L32.8795 43.1743L33.6775 42.456L29.3681 38.1466L33.6775 33.8371L32.8795 33.0391Z" fill="#F3652B"/>
<path d="M37.5081 33.8371L41.8176 38.1466L37.5081 42.456L38.3062 43.1743L43.3339 38.1466L38.3062 33.0391L37.5081 33.8371Z" fill="#F3652B"/>
<path d="M7.34202 7.66123C8.14007 7.66123 8.6987 7.0228 8.6987 6.30456C8.6987 5.50651 8.06026 4.94788 7.34202 4.94788C6.54397 4.94788 5.98534 5.58632 5.98534 6.30456C5.98534 7.0228 6.54397 7.66123 7.34202 7.66123Z" fill="#F3652B"/>
<path d="M12.6889 7.66123C13.487 7.66123 14.0456 7.0228 14.0456 6.30456C14.0456 5.50651 13.4072 4.94788 12.6889 4.94788C11.8909 4.94788 11.3322 5.58632 11.3322 6.30456C11.3322 7.0228 11.8909 7.66123 12.6889 7.66123Z" fill="#F3652B"/>
<path d="M18.0358 7.66123C18.8339 7.66123 19.3925 7.0228 19.3925 6.30456C19.3925 5.50651 18.7541 4.94788 18.0358 4.94788C17.2378 4.94788 16.6792 5.58632 16.6792 6.30456C16.5993 7.0228 17.2378 7.66123 18.0358 7.66123Z" fill="#F3652B"/>
</svg>
