<svg width="52" height="52" viewBox="0 0 52 52" fill="none" xmlns="http://www.w3.org/2000/svg">
<path d="M22.8459 47.3115H16.7934C10.1443 47.3115 4.68852 41.8557 4.68852 35.2066V27.7049H5.88197V35.2066C5.88197 41.259 10.741 46.118 16.7934 46.118H22.8459V47.3115Z" fill="#F3652B"/>
<path d="M47.3115 24.8918H46.118V16.7934C46.118 10.741 41.259 5.88197 35.2066 5.88197H28.9836V4.68852H35.2066C41.8557 4.68852 47.3115 10.1443 47.3115 16.7934V24.8918Z" fill="#F3652B"/>
<path d="M34.4393 47.3115H32.7344C32.3934 47.3115 32.1377 47.0557 32.1377 46.7148C32.1377 46.3738 32.3934 46.118 32.7344 46.118H34.4393C34.7803 46.118 35.0361 46.3738 35.0361 46.7148C35.0361 47.0557 34.6951 47.3115 34.4393 47.3115ZM30.1771 47.3115H28.4721C28.1311 47.3115 27.8754 47.0557 27.8754 46.7148C27.8754 46.3738 28.1311 46.118 28.4721 46.118H30.1771C30.518 46.118 30.7738 46.3738 30.7738 46.7148C30.7738 47.0557 30.4328 47.3115 30.1771 47.3115ZM25.9148 47.3115C25.5738 47.3115 25.318 47.0557 25.318 46.7148C25.318 46.3738 25.5738 46.118 25.9148 46.118C26.2557 46.118 26.5115 46.3738 26.5115 46.7148C26.5115 47.0557 26.1705 47.3115 25.9148 47.3115ZM36.9115 47.141C36.6557 47.141 36.4 46.9705 36.3148 46.6295C36.2295 46.2885 36.4852 46.0328 36.8262 45.9475C37.3377 45.8623 37.8492 45.6918 38.3607 45.6066C38.7016 45.5213 39.0426 45.6918 39.1279 45.9475C39.2131 46.2885 39.0426 46.6295 38.7869 46.7148C38.1902 46.8852 37.5934 47.0557 37.082 47.141C36.9967 47.141 36.9967 47.141 36.9115 47.141ZM40.918 45.6918C40.7475 45.6918 40.4918 45.6066 40.4066 45.4361C40.2361 45.1803 40.3213 44.7541 40.577 44.5836C41.0033 44.3279 41.5148 43.9869 41.941 43.6459C42.1967 43.4754 42.5377 43.4754 42.7934 43.7311C42.9639 43.9869 42.9639 44.3279 42.7082 44.5836C42.282 44.9246 41.7705 45.2656 41.259 45.6066C41.1738 45.6918 41.0033 45.6918 40.918 45.6918ZM44.0721 42.8787C43.9016 42.8787 43.8164 42.8787 43.7311 42.7934C43.4754 42.623 43.3902 42.1967 43.6459 41.941C43.9869 41.5148 44.2426 41.0885 44.5836 40.577C44.7541 40.3213 45.0951 40.1508 45.4361 40.3213C45.6918 40.4918 45.8623 40.8328 45.6918 41.1738C45.4361 41.6852 45.0951 42.1967 44.6689 42.6229C44.4984 42.7934 44.2426 42.8787 44.0721 42.8787ZM46.0328 39.1279C45.9475 39.1279 45.9475 39.1279 45.8623 39.1279C45.5213 39.0426 45.3508 38.7016 45.4361 38.3607C45.6066 37.8492 45.6918 37.3377 45.777 36.8262C45.8623 36.4852 46.118 36.2295 46.459 36.3148C46.8 36.4 46.9705 36.6557 46.9705 36.9967C46.8852 37.5934 46.7148 38.1902 46.5443 38.7869C46.5443 38.9574 46.2885 39.1279 46.0328 39.1279ZM46.5443 34.9508C46.2033 34.9508 45.9475 34.6951 45.9475 34.3541V32.6492C45.9475 32.3082 46.2033 32.0525 46.5443 32.0525C46.8852 32.0525 47.141 32.3082 47.141 32.6492V34.3541C47.141 34.6098 46.8852 34.9508 46.5443 34.9508ZM46.5443 30.6885C46.2033 30.6885 45.9475 30.4328 45.9475 30.0918V28.3869C45.9475 28.0459 46.2033 27.7902 46.5443 27.7902C46.8852 27.7902 47.141 28.0459 47.141 28.3869V30.0918C47.141 30.3475 46.8852 30.6885 46.5443 30.6885Z" fill="#F3652B"/>
<path d="M5.2 24.3803C4.85901 24.3803 4.60328 24.1246 4.60328 23.7836V22.9312C4.60328 22.5902 4.85901 22.3344 5.2 22.3344C5.54098 22.3344 5.79672 22.5902 5.79672 22.9312V23.7836C5.79672 24.1246 5.45574 24.3803 5.2 24.3803Z" fill="#F3652B"/>
<path d="M5.2 20.8852C4.85901 20.8852 4.60328 20.6295 4.60328 20.2885V18.5836C4.60328 18.2426 4.85901 17.9869 5.2 17.9869C5.54098 17.9869 5.79672 18.2426 5.79672 18.5836V20.2885C5.79672 20.6295 5.45574 20.8852 5.2 20.8852ZM5.2 16.5377C4.85901 16.5377 4.60328 16.1967 4.60328 15.8557C4.68852 15.259 4.77377 14.6623 4.85901 14.0656C4.94426 13.7246 5.28524 13.5541 5.54098 13.6393C5.88197 13.7246 6.05246 14.0656 5.96721 14.3213C5.88197 14.8328 5.79672 15.4295 5.71147 15.941C5.79672 16.282 5.54098 16.5377 5.2 16.5377ZM6.3082 12.3607C6.22295 12.3607 6.1377 12.3607 6.05246 12.2754C5.79672 12.1049 5.62623 11.7639 5.79672 11.5082C6.05246 10.9967 6.39344 10.4 6.73442 9.88853C6.90492 9.63279 7.33115 9.54754 7.58688 9.71803C7.84262 9.88853 7.92787 10.3148 7.75738 10.5705C7.41639 10.9967 7.16065 11.5082 6.90492 12.0197C6.73442 12.2754 6.56393 12.3607 6.3082 12.3607ZM8.95082 8.86557C8.78033 8.86557 8.60983 8.78033 8.52459 8.69508C8.26885 8.43934 8.3541 8.09836 8.52459 7.84262C8.95082 7.41639 9.46229 7.07541 9.97377 6.73443C10.2295 6.56393 10.6557 6.64918 10.8262 6.90492C10.9967 7.16066 10.9115 7.58689 10.6557 7.75738C10.2295 8.01312 9.71803 8.3541 9.37705 8.69508C9.20656 8.86557 9.12131 8.86557 8.95082 8.86557ZM12.6164 6.64918C12.3607 6.64918 12.1902 6.47869 12.0197 6.22295C11.9344 5.88197 12.0197 5.54098 12.3607 5.45574C13.0426 5.28525 13.6393 5.11475 14.2361 4.94426C14.4918 4.85902 14.8328 5.11475 14.918 5.45574C15.0033 5.79672 14.7475 6.05246 14.4918 6.13771C13.9803 6.22295 13.3836 6.39344 12.8721 6.56393C12.7869 6.64918 12.7016 6.64918 12.6164 6.64918ZM23.0164 5.88197H21.3115C20.9705 5.88197 20.7148 5.62623 20.7148 5.28525C20.7148 4.94426 20.9705 4.68852 21.3115 4.68852H23.0164C23.3574 4.68852 23.6131 4.94426 23.6131 5.28525C23.6131 5.62623 23.3574 5.88197 23.0164 5.88197ZM18.6688 5.88197H16.9639C16.6229 5.88197 16.3672 5.62623 16.3672 5.28525C16.3672 4.94426 16.6229 4.68852 16.9639 4.68852H18.6688C19.0098 4.68852 19.2656 4.94426 19.2656 5.28525C19.2656 5.62623 19.0098 5.88197 18.6688 5.88197Z" fill="#F3652B"/>
<path d="M26.5115 5.88197H25.659C25.318 5.88197 25.0623 5.62623 25.0623 5.28525C25.0623 4.94426 25.318 4.68852 25.659 4.68852H26.5115C26.8525 4.68852 27.1082 4.94426 27.1082 5.28525C27.1082 5.62623 26.8525 5.88197 26.5115 5.88197Z" fill="#F3652B"/>
<path d="M0.852459 32.6492L0 31.7967L5.28525 26.5115L10.5705 31.7967L9.71803 32.6492L5.28525 28.2164L0.852459 32.6492Z" fill="#F3652B"/>
<path d="M22.0787 10.5705L21.2262 9.71803L25.659 5.28525L21.2262 0.852459L22.0787 0L27.3639 5.28525L22.0787 10.5705Z" fill="#F3652B"/>
<path d="M30.3475 52L25.0623 46.7148L30.3475 41.4295L31.2 42.282L26.682 46.7148L31.2 51.1475L30.3475 52Z" fill="#F3652B"/>
<path d="M46.7148 25.7443L41.4295 20.459L42.1967 19.6066L46.7148 24.0393L51.1475 19.6066L52 20.459L46.7148 25.7443Z" fill="#F3652B"/>
<path d="M26 33.6721C21.9082 33.6721 18.5836 30.3475 18.5836 26.2557C18.5836 22.1639 21.9082 18.8393 26 18.8393C30.0918 18.8393 33.4164 22.1639 33.4164 26.2557C33.4164 30.3475 30.0918 33.6721 26 33.6721ZM26 20.0328C22.5902 20.0328 19.777 22.8459 19.777 26.2557C19.777 29.6656 22.5902 32.4787 26 32.4787C29.4098 32.4787 32.2229 29.6656 32.2229 26.2557C32.2229 22.8459 29.4098 20.0328 26 20.0328Z" fill="#F3652B"/>
<path d="M23.0164 39.7246V36.9967C22.0787 36.741 21.141 36.3148 20.2885 35.8885L18.3279 37.8492L14.1508 33.6721L16.1115 31.7115C15.6 30.859 15.259 29.9213 15.0033 28.9836H12.2754V23.0164H15.0033C15.259 22.0787 15.6852 21.141 16.1115 20.2885L14.1508 18.3279L18.3279 14.1508L20.2885 16.1115C21.141 15.6 22.0787 15.259 23.0164 15.0033V12.2754H28.8984V15.0033C29.8361 15.259 30.7738 15.6853 31.6262 16.1115L33.5869 14.1508L37.7639 18.3279L35.8033 20.2885C36.3148 21.141 36.6557 22.0787 36.9115 23.0164H39.6393V28.8984H36.9115C36.6557 29.8361 36.2295 30.7738 35.8033 31.6262L37.7639 33.5869L33.5869 37.7639L31.7115 35.8033C30.859 36.3148 29.9213 36.6557 28.9836 36.9115V39.7246H23.0164ZM24.2098 38.5312H27.7049V36.059L28.4721 35.8885C29.4098 35.6328 30.2623 35.2918 31.1148 34.7803L31.7967 34.3541L33.5016 36.059L35.9738 33.5869L34.2689 31.882L34.6951 31.2C35.2066 30.3476 35.5475 29.4951 35.8033 28.5574L35.9738 27.7902H38.4459V24.2951H35.9738L35.8033 23.4426C35.5475 22.5049 35.2066 21.6525 34.6951 20.8L34.2689 20.118L35.9738 18.4131L33.5016 15.941L31.7967 17.6459L31.1148 17.2197C30.2623 16.7082 29.4098 16.3672 28.4721 16.1115L27.7049 15.941V13.4689H24.2098V15.941L23.4426 16.1115C22.5049 16.3672 21.6525 16.7082 20.8 17.2197L20.118 17.6459L18.4131 15.941L15.941 18.4131L17.6459 20.118L17.2197 20.8C16.7082 21.6525 16.3672 22.5049 16.1115 23.4426L15.941 24.2098H13.4689V27.7049H15.941L16.1115 28.4721C16.3672 29.4098 16.7082 30.2623 17.2197 31.1148L17.6459 31.7967L15.941 33.5017L18.4131 35.9738L20.118 34.2689L20.8 34.6951C21.6525 35.2066 22.5049 35.5476 23.4426 35.8033L24.2098 35.9738V38.5312Z" fill="#F3652B"/>
</svg>
