<svg width="20" height="20" viewBox="0 0 20 20" fill="none" xmlns="http://www.w3.org/2000/svg">
<path fill-rule="evenodd" clip-rule="evenodd" d="M10 4.73047L20 8.30892L10 11.8874L0 8.30892L10 4.73047ZM2.51603 8.30892L10 10.987L17.484 8.30892L10 5.63082L2.51603 8.30892Z" fill="#646464"/>
<path fill-rule="evenodd" clip-rule="evenodd" d="M4.59277 9.69946H5.44048V13.383C5.48352 13.4101 5.53428 13.4412 5.59247 13.4755C5.81357 13.6058 6.14097 13.7816 6.55844 13.958C7.39433 14.3111 8.58343 14.6632 9.99956 14.6632C11.4162 14.6632 12.6282 14.3109 13.4878 13.9566C13.917 13.7797 14.256 13.6033 14.4859 13.4723C14.5472 13.4374 14.6007 13.4057 14.6461 13.3782V9.69946H15.4938V13.8298L15.3139 13.9564L15.0699 13.6098C15.3139 13.9564 15.3141 13.9563 15.3139 13.9564L15.3126 13.9573L15.3106 13.9587L15.3041 13.9632L15.2821 13.9781C15.2634 13.9907 15.2367 14.0084 15.2023 14.0304C15.1335 14.0744 15.0337 14.1359 14.9054 14.2089C14.649 14.355 14.2778 14.5479 13.8109 14.7403C12.8784 15.1246 11.5552 15.5109 9.99956 15.5109C8.44341 15.5109 7.14105 15.1244 6.22855 14.7389C5.77181 14.5459 5.41078 14.3524 5.162 14.2058C5.03753 14.1324 4.94092 14.0706 4.87424 14.0263C4.84089 14.0041 4.815 13.9863 4.79682 13.9736L4.77537 13.9584L4.76904 13.9538L4.76698 13.9524L4.76593 13.9516C4.7658 13.9515 4.76567 13.9514 5.01663 13.6098L4.76593 13.9516L4.59277 13.8244V9.69946Z" fill="#646464"/>
<path fill-rule="evenodd" clip-rule="evenodd" d="M17.0066 12.6539V8.83044H17.8543V12.6539H17.0066Z" fill="#646464"/>
<path fill-rule="evenodd" clip-rule="evenodd" d="M17.4306 13.1646C17.276 13.1646 17.1551 13.2885 17.1551 13.4359C17.1551 13.5834 17.276 13.7072 17.4306 13.7072C17.5851 13.7072 17.7061 13.5834 17.7061 13.4359C17.7061 13.2885 17.5851 13.1646 17.4306 13.1646ZM16.3074 13.4359C16.3074 12.8155 16.8127 12.3169 17.4306 12.3169C18.0485 12.3169 18.5538 12.8155 18.5538 13.4359C18.5538 14.0563 18.0485 14.5549 17.4306 14.5549C16.8127 14.5549 16.3074 14.0563 16.3074 13.4359Z" fill="#646464"/>
</svg>
