<svg width="50" height="49" viewBox="0 0 50 49" fill="none" xmlns="http://www.w3.org/2000/svg">
<path d="M37.3027 45.1232L37.3143 45.1165L37.322 45.1115C37.3238 45.1109 37.3275 45.1099 37.3334 45.109C37.3483 45.1068 37.3696 45.1067 37.3937 45.1114C37.4178 45.1161 37.4369 45.1241 37.449 45.1313C37.4494 45.1316 37.4499 45.1319 37.4503 45.1321C37.4517 45.1431 37.4518 45.1597 37.4478 45.1791C37.4436 45.1997 37.4365 45.216 37.4301 45.2263C37.4295 45.2273 37.4289 45.2282 37.4284 45.2289C33.5968 47.3343 29.3753 48.5 25 48.5C11.5044 48.5 0.5 37.7014 0.5 24.5C0.5 11.2986 11.5044 0.5 25 0.5C38.4956 0.5 49.5 11.2986 49.5 24.5C49.5 29.3448 48.066 33.9536 45.3554 37.9403C45.354 37.9414 45.3516 37.9431 45.348 37.9452C45.3359 37.9524 45.3168 37.9604 45.2927 37.9652C45.2686 37.9699 45.2473 37.9698 45.2325 37.9675C45.23 37.9672 45.2279 37.9668 45.2261 37.9664C45.2257 37.9657 45.2252 37.9649 45.2246 37.9641C45.2183 37.9538 45.2111 37.9375 45.2069 37.9169C45.2027 37.8963 45.203 37.879 45.2047 37.8681C45.205 37.8663 45.2053 37.8649 45.2055 37.8638C47.949 33.9481 49.3599 29.3025 49.3599 24.5C49.3599 11.286 38.4588 0.617264 25 0.617264C11.5412 0.617264 0.640065 11.286 0.640065 24.5C0.640065 37.714 11.5412 48.3827 25 48.3827C29.3199 48.3827 33.6412 47.2435 37.3027 45.1232ZM31.6389 12.4617L18.9629 35.316C18.9512 35.3207 18.9372 35.325 18.9225 35.3281C18.92 35.3287 18.9176 35.3291 18.9153 35.3295C18.8982 35.3175 18.8814 35.3022 18.8671 35.2852C18.8598 35.2765 18.8541 35.2685 18.8497 35.2614L31.5303 12.4786C31.5413 12.4647 31.5548 12.4509 31.5701 12.4386C31.5817 12.4293 31.5925 12.4222 31.6018 12.4171C31.6087 12.4236 31.6153 12.4306 31.6215 12.438C31.6288 12.4466 31.6345 12.4547 31.6389 12.4617ZM36.6564 30.9642V30.9514L36.6557 30.9387C36.5614 29.091 35.0523 27.5912 33.2248 27.5912C31.3295 27.5912 29.7932 29.0825 29.7932 30.9642C29.7932 32.8459 31.3295 34.3371 33.2248 34.3371C35.12 34.3371 36.6564 32.8459 36.6564 30.9642ZM16.6124 20.6482C14.6737 20.6482 13.0407 19.1005 13.0407 17.158C13.0407 15.2091 14.5988 13.6678 16.6124 13.6678C18.6259 13.6678 20.184 15.2091 20.184 17.158C20.184 19.1069 18.6259 20.6482 16.6124 20.6482ZM16.6124 13.8648C14.7171 13.8648 13.1808 15.3561 13.1808 17.2378C13.1808 19.1195 14.7171 20.6107 16.6124 20.6107C18.5076 20.6107 20.044 19.1195 20.044 17.2378C20.044 15.3561 18.5076 13.8648 16.6124 13.8648ZM33.2248 34.3746C31.286 34.3746 29.6531 32.8269 29.6531 30.8844C29.6531 29.0088 31.2177 27.3941 33.2248 27.3941C35.2352 27.3941 36.7916 28.9307 36.7964 30.8753C36.72 32.8441 35.1439 34.3746 33.2248 34.3746Z" fill="#F3652B" stroke="#F3652B"/>
</svg>
