<svg width="186" height="285" viewBox="0 0 186 285" fill="none" xmlns="http://www.w3.org/2000/svg">
<path d="M60.4472 118.112H88.7441C102.215 118.112 112.205 114.618 118.698 107.631C125.192 100.653 128.434 91.3723 128.434 79.8151C128.434 68.6443 125.223 59.9394 118.785 53.717C112.355 47.4945 103.499 44.3792 92.2327 44.3792C82.0604 44.3792 73.5531 47.2726 66.6869 53.0512C59.8288 58.8298 56.3957 66.3592 56.3957 75.623H3.29036C3.29036 61.1478 7.05642 48.1603 14.5885 36.6689C22.1206 25.1775 32.6577 16.1932 46.1917 9.71591C59.7416 3.23864 74.6631 0 90.9562 0C119.253 0 141.421 7.01979 157.477 21.0511C173.524 35.0825 181.548 54.4239 181.548 79.0589C181.548 91.7586 177.813 103.439 170.337 114.109C162.868 124.778 153.068 132.965 140.938 138.686C156.002 144.275 167.245 152.66 174.658 163.831C182.071 175.01 185.774 188.219 185.774 203.459C185.774 228.102 177.108 247.846 159.776 262.708C142.436 277.569 119.499 285 90.9562 285C64.245 285 42.4098 277.701 25.4506 263.094C8.48357 248.487 0 229.187 0 205.177H53.1054C53.1054 215.591 56.8715 224.099 64.4036 230.708C71.9357 237.316 81.22 240.613 92.2407 240.613C104.855 240.613 114.75 237.152 121.917 230.231C129.085 223.31 132.668 214.136 132.668 202.702C132.668 175.018 117.969 161.176 88.5697 161.176H60.4551V118.112H60.4472Z" fill="#646464"/>
</svg>
