<svg width="20" height="20" viewBox="0 0 20 20" fill="none" xmlns="http://www.w3.org/2000/svg">
<path fill-rule="evenodd" clip-rule="evenodd" d="M3 7.03191C3 3.1586 6.1586 0 10.0319 0C13.9052 0 17.0638 3.1586 17.0638 7.03191C17.0638 8.14371 16.8602 9.06437 16.4527 9.98133L16.4206 10.0535L16.3602 10.1139L16.3569 10.1173L16.3513 10.1229L16.3502 10.124L16.3457 10.1285L16.3401 10.134L16.339 10.1351L16.3368 10.1374L16.3357 10.1385L16.3345 10.1396L16.3312 10.1429L16.329 10.1451L16.3257 10.1484L16.3235 10.1506L16.3213 10.1528L16.3202 10.1539L16.3115 10.1626L16.305 10.1691L16.3018 10.1723L16.2997 10.1744L16.2881 10.186L16.2871 10.187L16.284 10.1901L16.283 10.1911L16.2779 10.1962L16.2769 10.1973L16.2759 10.1983L16.2749 10.1993L16.2689 10.2052L16.2679 10.2062L16.2659 10.2082L16.265 10.2092L16.263 10.2111L16.2621 10.2121L16.2601 10.214L16.2592 10.2149L16.2582 10.2159L16.2573 10.2169L16.2563 10.2178L16.2554 10.2187L16.2545 10.2197L16.2535 10.2206L16.2526 10.2215L16.2489 10.2252L16.248 10.2261L16.2462 10.228L16.2453 10.2289L16.2391 10.2351L16.2382 10.2359L16.2306 10.2436L16.2297 10.2444L16.2273 10.2468L16.2265 10.2476L16.2257 10.2484L12.4378 18.2978C12.0783 19.3379 11.0471 20 9.93617 20C8.7892 20 7.88459 19.3062 7.44246 18.3146L3.57447 9.99837V9.89726C3.1903 8.99992 3 8.01413 3 7.03191ZM10.0319 0.851064C6.62863 0.851064 3.85106 3.62863 3.85106 7.03191C3.85106 7.93382 4.03163 8.83193 4.38886 9.63568L4.42553 9.71821V9.81013L8.2187 17.9654C8.54309 18.6953 9.16957 19.1489 9.93617 19.1489C10.7312 19.1489 11.4159 18.6727 11.6389 18.0037L11.6468 17.9799L15.5189 9.75162L15.5714 9.6991L15.5722 9.69832L15.5738 9.69676L15.5746 9.69591L15.5755 9.69506L15.5763 9.69426L15.5772 9.69339L15.5779 9.69262L15.5788 9.69179L15.5796 9.69093L15.5805 9.69001L15.5813 9.68925L15.5821 9.68846L15.5829 9.68764L15.5838 9.68679L15.5846 9.68592L15.5855 9.68502L15.5865 9.68409L15.5874 9.68313L15.5884 9.68215L15.5891 9.6814L15.5899 9.68063L15.5907 9.67985L15.5915 9.67905L15.5923 9.67824L15.5931 9.67741L15.594 9.67657L15.5948 9.67572L15.5957 9.67486L15.5966 9.67397L15.5975 9.67308L15.5984 9.67217L15.5993 9.67125L15.6002 9.67032L15.6012 9.66937L15.6031 9.66744L15.6041 9.66645L15.6051 9.66545L15.6061 9.66444L15.6071 9.66342L15.6082 9.66238L15.6092 9.66133L15.6103 9.66027L15.6113 9.6592L15.6135 9.65702L15.6146 9.65592L15.6157 9.6548L15.6169 9.65367L15.6176 9.65291L15.6184 9.65214L15.6192 9.65137L15.6199 9.6506L15.6207 9.64982L15.6215 9.64904L15.6223 9.64825L15.6231 9.64745L15.6239 9.64665L15.6247 9.64585L15.6255 9.64504L15.6263 9.64423L15.6271 9.64341L15.628 9.64259L15.6288 9.64177L15.6296 9.64094L15.6304 9.6401L15.6313 9.63926L15.6321 9.63842L15.633 9.63757L15.6338 9.63672L15.6347 9.63586L15.6355 9.635L15.6382 9.63239L15.6417 9.62886L15.6426 9.62796L15.6435 9.62707L15.6444 9.62617L15.6453 9.62526L15.6462 9.62435L15.6471 9.62344L15.648 9.62252L15.6499 9.62068L15.6508 9.61975L15.6517 9.61882L15.6527 9.61788L15.6536 9.61694L15.6545 9.616L15.6555 9.61506L15.6574 9.61315L15.6583 9.6122L15.6603 9.61028L15.6612 9.60931L15.6622 9.60834L15.6632 9.60737L15.6642 9.60639L15.6651 9.60542L15.6661 9.60443L15.6671 9.60345L15.6681 9.60246L15.6691 9.60147L15.6701 9.60048L15.6711 9.59948L15.6721 9.59848L15.6731 9.59748L15.6741 9.59647L15.6751 9.59546L15.6761 9.59445L15.6791 9.5914L15.6832 9.5873L15.6884 9.58212L15.6895 9.58107L15.6916 9.57898L15.6926 9.57793L15.6958 9.57476L15.6968 9.5737L15.7 9.57051L15.7011 9.56944L15.7022 9.56837L15.7032 9.5673L15.7062 9.56432C16.0438 8.78172 16.2128 7.99717 16.2128 7.03191C16.2128 3.62863 13.4352 0.851064 10.0319 0.851064Z" fill="#646464"/>
<path fill-rule="evenodd" clip-rule="evenodd" d="M10.032 4.58495C8.68067 4.58495 7.58519 5.68042 7.58519 7.03176C7.58519 8.38309 8.68067 9.47857 10.032 9.47857C11.3833 9.47857 12.4788 8.38309 12.4788 7.03176C12.4788 5.68042 11.3833 4.58495 10.032 4.58495ZM6.73413 7.03176C6.73413 5.21039 8.21064 3.73389 10.032 3.73389C11.8534 3.73389 13.3299 5.21039 13.3299 7.03176C13.3299 8.85312 11.8534 10.3296 10.032 10.3296C8.21064 10.3296 6.73413 8.85312 6.73413 7.03176Z" fill="#646464"/>
</svg>
