<svg width="51" height="51" viewBox="0 0 51 51" fill="none" xmlns="http://www.w3.org/2000/svg">
<path d="M5.97903 12.1435H11.0371M19.1774 12.1435H45.021M19.1774 12.1435C19.1774 14.3696 17.3728 16.1742 15.1468 16.1742C12.9207 16.1742 11.1161 14.3696 11.1161 12.1435C11.1161 9.91749 12.9207 8.1129 15.1468 8.1129C17.3728 8.1129 19.1774 9.91749 19.1774 12.1435ZM5.97903 25.5H31.5065M31.5065 25.5C31.5065 27.7261 33.311 29.5306 35.5371 29.5306C37.7632 29.5306 39.5677 27.7261 39.5677 25.5C39.5677 23.2739 37.7632 21.4694 35.5371 21.4694C33.311 21.4694 31.5065 23.2739 31.5065 25.5ZM39.6468 25.5H45.021M26.0532 38.8565H45.3371M26.0532 38.8565C26.0532 41.1262 24.2133 42.9661 21.9435 42.9661C19.6738 42.9661 17.8339 41.1262 17.8339 38.8565M26.0532 38.8565C26.0532 36.5867 24.2133 34.7468 21.9435 34.7468C19.6738 34.7468 17.8339 36.5867 17.8339 38.8565M5.97903 38.8565H17.8339M44.7048 50H6.29516C3.37097 50 1 47.629 1 44.7048V6.29516C1 3.37097 3.37097 1 6.29516 1H44.7048C47.629 1 50 3.37097 50 6.29516V44.7048C50 47.629 47.629 50 44.7048 50Z" stroke="#F3652B" stroke-width="1.4" stroke-miterlimit="10"/>
</svg>
