<svg width="654" height="594" viewBox="0 0 654 594" fill="none" xmlns="http://www.w3.org/2000/svg">
<g clip-path="url(#clip0)">
<path d="M555.563 517.395L573.95 520.188" stroke="#646464" stroke-miterlimit="10" stroke-linecap="round"/>
<path d="M521.787 512.268L540.703 515.141" stroke="#646464" stroke-miterlimit="10" stroke-linecap="round"/>
<path d="M485.929 506.817L500.556 509.044L517.722 511.648" stroke="#646464" stroke-miterlimit="10" stroke-linecap="round"/>
<path d="M413.541 495.817L474.524 505.084L479.19 505.794" stroke="#646464" stroke-miterlimit="10" stroke-linecap="round"/>
<path d="M397.245 493.348L408.103 494.991" stroke="#646464" stroke-miterlimit="10" stroke-linecap="round"/>
<path d="M349.524 486.092L379.468 490.645" stroke="#646464" stroke-miterlimit="10" stroke-linecap="round"/>
<path d="M308.139 485.167L313.675 484.647L329.854 483.111L345.073 485.419" stroke="#646464" stroke-miterlimit="10" stroke-linecap="round"/>
<path d="M291.313 486.775L305.536 485.419" stroke="#646464" stroke-miterlimit="10" stroke-linecap="round"/>
<path d="M274.784 488.346L286.306 487.251" stroke="#646464" stroke-miterlimit="10" stroke-linecap="round"/>
<path d="M215.569 493.967L258.246 489.918L268.297 488.957" stroke="#646464" stroke-miterlimit="10" stroke-linecap="round"/>
<path d="M144.14 500.765L179.271 497.425L208.561 494.641" stroke="#646464" stroke-miterlimit="10" stroke-linecap="round"/>
<path d="M106.515 504.339L138.11 501.34" stroke="#646464" stroke-miterlimit="10" stroke-linecap="round"/>
<path d="M88.6306 506.036L96.8234 505.264" stroke="#646464" stroke-miterlimit="10" stroke-linecap="round"/>
<path d="M65.3535 508.254L84.8348 506.404" stroke="#646464" stroke-miterlimit="10" stroke-linecap="round"/>
<path d="M184.671 550.099L20 592.258L75.1956 593.273H157.419L234.196 553.071L218.08 552.757L150.725 579.058L199.397 550.647L184.671 550.099Z" fill="url(#paint0_linear)"/>
<path d="M483.074 547.962L624.917 589.492L491.769 594L436.753 546.857L452.86 546.552L520.215 572.853L465.28 544.675L483.074 547.962Z" fill="url(#paint1_linear)"/>
<path d="M77.2612 385.288C77.2432 385.288 77.2253 385.288 77.2073 385.288C77.0279 385.261 76.9023 385.081 76.9292 384.901C77.2432 382.926 77.8624 381.013 78.7687 379.217C79.7289 377.305 80.9852 375.581 82.5106 374.072C82.6452 373.937 82.8516 373.946 82.9862 374.072C83.1208 374.207 83.1119 374.413 82.9862 374.548C81.5146 376.003 80.3032 377.673 79.3789 379.523C78.5085 381.256 77.9162 383.097 77.6022 385.009C77.5663 385.171 77.4227 385.288 77.2612 385.288Z" fill="#646464"/>
<path d="M84.7361 372.914C84.6374 372.914 84.5297 372.869 84.4669 372.779C84.3592 372.626 84.3862 372.42 84.5297 372.303C87.9576 369.726 92.0405 368.361 96.3388 368.361C97.6489 368.361 98.959 368.496 100.26 368.756C100.224 368.307 100.206 367.858 100.206 367.418C100.206 366.287 100.323 365.146 100.547 364.042C100.933 362.165 101.633 360.378 102.629 358.735C103.876 356.679 105.599 354.874 107.591 353.527C110.355 351.659 113.595 350.671 116.942 350.671C119.535 350.671 122.012 351.246 124.318 352.377C126.651 353.527 128.724 355.242 130.303 357.325C131.757 359.256 132.789 361.501 133.3 363.862C134.243 362.991 135.266 362.219 136.36 361.555C136.522 361.456 136.728 361.51 136.827 361.662C136.926 361.824 136.872 362.031 136.719 362.129C135.499 362.875 134.359 363.764 133.336 364.769C133.247 364.859 133.121 364.886 132.995 364.85C132.879 364.814 132.789 364.715 132.771 364.59C132.331 362.12 131.299 359.741 129.774 357.729C128.257 355.727 126.274 354.084 124.031 352.979C121.814 351.893 119.436 351.336 116.951 351.336C113.738 351.336 110.633 352.288 107.977 354.075C106.057 355.368 104.406 357.101 103.212 359.076C102.252 360.657 101.579 362.372 101.211 364.177C100.996 365.236 100.888 366.332 100.888 367.418C100.888 367.984 100.924 368.568 100.978 369.142C100.987 369.25 100.951 369.358 100.87 369.43C100.79 369.502 100.682 369.537 100.574 369.502C99.1834 369.187 97.7656 369.026 96.3567 369.026C92.202 369.026 88.2627 370.346 84.9515 372.833C84.8797 372.896 84.8079 372.914 84.7361 372.914Z" fill="#646464"/>
<path d="M183.758 380.852C183.668 380.852 183.569 380.816 183.507 380.735C182.421 379.487 181.156 378.418 179.747 377.565C178.024 376.515 176.148 375.805 174.165 375.464C172.523 375.177 170.809 375.15 169.158 375.383C167.848 375.572 166.556 375.913 165.318 376.425C165.219 376.47 165.111 376.461 165.021 376.398C164.932 376.344 164.869 376.245 164.86 376.146C164.609 373.623 163.855 371.217 162.617 369.008C161.567 367.113 160.194 365.425 158.552 363.997C157.017 362.659 155.285 361.591 153.41 360.818C152.27 360.351 151.086 360.001 149.883 359.768C146.841 359.184 143.62 359.373 140.676 360.324C140.497 360.378 140.309 360.279 140.255 360.109C140.201 359.929 140.3 359.741 140.47 359.687C143.521 358.708 146.85 358.51 150.009 359.112C151.256 359.355 152.486 359.714 153.661 360.199C155.608 360.998 157.403 362.102 158.991 363.485C160.687 364.967 162.105 366.709 163.2 368.675C164.402 370.84 165.165 373.174 165.47 375.635C166.628 375.195 167.83 374.889 169.059 374.719C170.782 374.476 172.559 374.512 174.273 374.799C176.337 375.159 178.293 375.895 180.088 376.991C181.559 377.888 182.87 379.002 184.009 380.295C184.135 380.439 184.117 380.645 183.973 380.771C183.91 380.825 183.839 380.852 183.758 380.852Z" fill="#646464"/>
<path d="M187.805 391.645C187.617 391.645 187.464 391.492 187.464 391.304C187.464 389.355 187.123 387.461 186.441 385.656C186.378 385.485 186.459 385.288 186.638 385.225C186.809 385.162 187.006 385.252 187.069 385.422C187.778 387.299 188.128 389.283 188.128 391.304C188.137 391.492 187.984 391.645 187.805 391.645Z" fill="#646464"/>
<path d="M184.368 401.684C184.296 401.684 184.225 401.657 184.162 401.613C184.018 401.496 183.991 401.289 184.099 401.137C185.517 399.314 186.495 397.248 187.024 395.013C187.069 394.833 187.249 394.716 187.428 394.761C187.608 394.806 187.724 394.986 187.679 395.165C187.123 397.5 186.1 399.646 184.628 401.541C184.575 401.639 184.476 401.684 184.368 401.684Z" fill="#646464"/>
<path d="M171.393 408.06C171.204 408.06 171.052 407.907 171.052 407.719C171.052 407.53 171.204 407.377 171.393 407.377C173.286 407.377 175.143 407.054 176.911 406.408C178.616 405.779 180.195 404.881 181.604 403.714C181.748 403.597 181.963 403.615 182.08 403.759C182.197 403.902 182.179 404.118 182.035 404.235C180.572 405.447 178.921 406.39 177.144 407.036C175.305 407.719 173.367 408.06 171.393 408.06Z" fill="#646464"/>
<path d="M168.351 408.051C165.874 408.042 162.356 408.024 158.202 408.006C156.227 407.997 153.033 407.988 149.614 407.979C145.352 407.97 140.748 407.952 137.733 407.934C137.545 407.934 137.401 407.782 137.401 407.593C137.401 407.404 137.554 407.261 137.742 407.261C140.757 407.279 145.37 407.288 149.623 407.306C153.042 407.315 156.236 407.324 158.211 407.333C162.365 407.351 165.883 407.368 168.359 407.377C168.548 407.377 168.7 407.53 168.692 407.719C168.683 407.907 168.539 408.051 168.351 408.051Z" fill="#646464"/>
<path d="M129.792 407.898C126.481 407.88 124.901 407.862 123.376 407.844C121.868 407.827 120.415 407.809 117.409 407.8C111.504 407.773 106.192 407.746 102.19 407.737C102.001 407.737 101.849 407.584 101.858 407.395C101.867 407.207 102.01 407.063 102.199 407.063C106.201 407.081 111.513 407.099 117.417 407.126C120.424 407.144 121.877 407.153 123.385 407.171C124.91 407.189 126.49 407.207 129.801 407.225C129.989 407.225 130.133 407.378 130.133 407.566C130.124 407.755 129.971 407.898 129.792 407.898Z" fill="#646464"/>
<path d="M96.3389 407.728C93.2161 407.728 90.2369 407.018 87.4731 405.618C87.3026 405.537 87.2398 405.33 87.3206 405.169C87.4013 404.998 87.6077 404.935 87.7692 405.016C90.4343 406.363 93.3148 407.054 96.3299 407.054C96.5183 407.054 96.6709 407.207 96.6709 407.395C96.6709 407.584 96.5273 407.728 96.3389 407.728Z" fill="#646464"/>
<path d="M79.9623 398.649C79.8546 398.649 79.7379 398.595 79.6751 398.488C77.7099 395.363 76.678 391.753 76.678 388.044C76.678 387.856 76.8305 387.703 77.019 387.703C77.2074 387.703 77.36 387.856 77.36 388.044C77.36 391.627 78.365 395.111 80.2584 398.137C80.3571 398.29 80.3122 398.506 80.1507 398.604C80.0879 398.631 80.0251 398.649 79.9623 398.649Z" fill="#646464"/>
<path d="M535.041 450.704C534.897 450.704 534.763 450.632 534.691 450.497C534.583 450.3 534.646 450.057 534.844 449.941C536.163 449.186 537.589 448.63 539.07 448.288C540.281 444.032 543.629 440.629 547.873 439.381C548.097 439.318 548.313 439.444 548.376 439.659C548.438 439.875 548.313 440.099 548.097 440.162C544.05 441.356 540.865 444.643 539.779 448.737C539.743 448.881 539.626 448.998 539.474 449.034C537.984 449.357 536.557 449.905 535.238 450.659C535.176 450.686 535.113 450.704 535.041 450.704Z" fill="#646464"/>
<path d="M525.52 478.172C524.372 478.172 523.627 478.172 523.349 478.163C520.935 478.128 518.682 477.158 516.995 475.425C515.317 473.692 514.402 471.402 514.438 468.986C514.483 465.709 516.304 462.71 519.194 461.156C520.54 460.429 522.092 460.061 523.609 460.079C524.757 460.097 525.888 460.339 526.992 460.815C527.207 459.71 527.539 458.624 527.988 457.6C528.311 456.837 528.706 456.092 529.154 455.382C529.271 455.194 529.522 455.131 529.711 455.257C529.899 455.373 529.962 455.625 529.836 455.813C529.415 456.487 529.047 457.187 528.733 457.915C528.248 459.046 527.898 460.249 527.701 461.47C527.683 461.596 527.602 461.713 527.485 461.767C527.369 461.821 527.234 461.83 527.117 461.767C525.978 461.201 524.793 460.905 523.6 460.887C522.2 460.851 520.809 461.201 519.58 461.866C516.959 463.284 515.299 466.014 515.255 468.995C515.192 473.53 518.826 477.283 523.358 477.346C523.627 477.346 524.372 477.355 525.511 477.355C525.736 477.355 525.915 477.535 525.915 477.759C525.933 477.993 525.744 478.172 525.52 478.172Z" fill="#646464"/>
<path d="M529.424 478.164C529.199 478.164 529.02 477.984 529.02 477.76C529.02 477.535 529.199 477.355 529.424 477.355C532.941 477.346 537.724 477.337 543.117 477.319L546.715 477.311C546.94 477.311 547.119 477.49 547.119 477.715C547.119 477.939 546.94 478.119 546.715 478.119L543.117 478.128C537.715 478.146 532.941 478.155 529.424 478.164Z" fill="#646464"/>
<path d="M563.604 478.074C563.379 478.074 563.2 477.894 563.2 477.67C563.2 477.445 563.379 477.266 563.604 477.266L579.074 477.23C588.415 477.212 594.059 477.221 595.845 477.248C597.227 477.266 598.645 477.05 599.973 476.592C601.471 476.08 602.835 475.281 604.038 474.231C606.622 471.959 608.139 468.69 608.192 465.242C608.192 465.017 608.381 464.838 608.596 464.838C608.596 464.838 608.596 464.838 608.605 464.838C608.83 464.838 609.009 465.026 609.009 465.251C608.955 468.924 607.34 472.417 604.576 474.832C603.302 475.955 601.839 476.799 600.242 477.346C598.824 477.831 597.335 478.074 595.836 478.047C594.059 478.02 588.424 478.02 579.083 478.029L563.604 478.074Z" fill="#646464"/>
<path d="M608.309 462.799C608.121 462.799 607.95 462.665 607.914 462.476C607.663 461.336 607.259 460.231 606.694 459.208C606.586 459.01 606.658 458.759 606.855 458.651C607.053 458.543 607.295 458.615 607.412 458.813C608.013 459.908 608.453 461.084 608.713 462.306C608.758 462.521 608.623 462.746 608.399 462.791C608.363 462.799 608.336 462.799 608.309 462.799Z" fill="#646464"/>
<path d="M604.774 456.433C604.675 456.433 604.567 456.397 604.486 456.316C602.252 454.152 599.309 452.931 596.195 452.886C594.885 452.859 593.53 453.075 592.22 453.506C592.076 453.55 591.924 453.515 591.816 453.416C591.708 453.317 591.663 453.164 591.699 453.021C592.04 451.701 592.22 450.399 592.238 449.124C592.265 447.058 591.924 445.038 591.215 443.125C590.739 441.85 590.111 440.629 589.339 439.506C588.603 438.438 587.742 437.45 586.782 436.579C583.794 433.867 579.917 432.341 575.879 432.278C571.751 432.242 567.803 433.679 564.716 436.39C564.016 437.01 563.361 437.684 562.778 438.402C561.746 439.677 560.902 441.096 560.283 442.613C560.229 442.739 560.131 442.829 559.996 442.856C559.87 442.883 559.736 442.856 559.637 442.766C558.148 441.437 556.353 440.485 554.442 440.009C553.553 439.794 552.638 439.668 551.714 439.659C551.489 439.659 551.31 439.47 551.31 439.246C551.31 439.022 551.498 438.842 551.714 438.842C551.714 438.842 551.714 438.842 551.723 438.842C552.701 438.86 553.679 438.986 554.63 439.219C556.496 439.677 558.246 440.566 559.745 441.787C560.373 440.386 561.172 439.075 562.141 437.89C562.751 437.136 563.442 436.426 564.178 435.78C567.354 432.987 571.41 431.461 575.637 431.461C575.718 431.461 575.807 431.461 575.888 431.461C580.124 431.524 584.188 433.122 587.329 435.968C588.343 436.884 589.241 437.917 590.012 439.039C590.82 440.225 591.484 441.5 591.977 442.838C592.722 444.849 593.081 446.968 593.054 449.132C593.036 450.237 592.902 451.377 592.659 452.527C593.826 452.212 595.001 452.06 596.213 452.078C599.533 452.123 602.674 453.425 605.061 455.741C605.222 455.894 605.222 456.155 605.07 456.316C604.98 456.397 604.872 456.433 604.774 456.433Z" fill="#646464"/>
<path d="M322.774 450.237H319.786C319.643 450.237 319.517 450.12 319.517 449.968C319.517 449.824 319.634 449.698 319.786 449.698H322.774C322.918 449.698 323.044 449.815 323.044 449.968C323.044 450.12 322.918 450.237 322.774 450.237ZM315.883 450.237H254.415C254.271 450.237 254.146 450.12 254.146 449.968C254.146 449.824 254.262 449.698 254.415 449.698H315.883C316.026 449.698 316.152 449.815 316.152 449.968C316.152 450.12 316.035 450.237 315.883 450.237ZM243.458 450.237H239.635C239.492 450.237 239.366 450.12 239.366 449.968C239.366 449.824 239.483 449.698 239.635 449.698H243.458C243.602 449.698 243.727 449.815 243.727 449.968C243.727 450.12 243.602 450.237 243.458 450.237ZM234.368 450.237C230.168 450.237 226.077 449.052 222.541 446.816C222.415 446.735 222.38 446.573 222.46 446.447C222.541 446.322 222.703 446.286 222.828 446.367C226.274 448.549 230.267 449.698 234.368 449.698C234.512 449.698 234.637 449.815 234.637 449.968C234.637 450.12 234.521 450.237 234.368 450.237ZM325.027 450.075C324.892 450.075 324.784 449.976 324.766 449.851C324.748 449.707 324.847 449.572 324.991 449.545C325.511 449.474 326.032 449.366 326.534 449.24C328.652 448.71 330.599 447.75 332.322 446.385C332.439 446.295 332.609 446.313 332.699 446.43C332.789 446.546 332.771 446.717 332.654 446.807C330.868 448.216 328.858 449.204 326.66 449.761C326.139 449.896 325.601 450.003 325.063 450.075C325.054 450.075 325.045 450.075 325.027 450.075ZM334.054 445.451C333.991 445.451 333.919 445.424 333.865 445.379C333.758 445.28 333.758 445.11 333.856 445.002C335.005 443.816 335.947 442.461 336.665 440.97C337.679 438.869 338.191 436.615 338.191 434.271C338.191 429.683 336.172 425.372 332.654 422.427C330.581 420.694 328.087 419.536 325.43 419.069C324.291 418.871 323.106 418.799 321.967 418.88L321.76 418.898C321.68 418.907 321.599 418.871 321.545 418.817C321.491 418.754 321.464 418.674 321.473 418.602C321.572 417.901 321.626 417.309 321.626 416.734C321.626 413.735 320.576 410.808 318.673 408.5C316.206 405.51 312.563 403.786 308.686 403.786C308.542 403.786 308.417 403.669 308.417 403.516C308.417 403.372 308.533 403.247 308.686 403.247C312.724 403.247 316.511 405.034 319.086 408.15C321.069 410.556 322.164 413.6 322.164 416.725C322.164 417.228 322.128 417.749 322.056 418.341C323.205 418.261 324.39 418.35 325.529 418.548C328.275 419.024 330.859 420.227 333.004 422.023C336.647 425.067 338.729 429.539 338.729 434.28C338.729 436.705 338.2 439.039 337.15 441.212C336.405 442.748 335.427 444.149 334.242 445.379C334.198 445.424 334.126 445.451 334.054 445.451ZM215.901 440.099C215.811 440.099 215.73 440.054 215.676 439.973C214.259 437.746 213.254 435.313 212.706 432.736C212.374 431.209 212.213 429.638 212.213 428.057C212.213 427.914 212.329 427.788 212.482 427.788C212.634 427.788 212.751 427.905 212.751 428.057C212.751 429.602 212.913 431.137 213.236 432.628C213.774 435.142 214.752 437.513 216.134 439.686C216.215 439.812 216.179 439.973 216.053 440.054C215.999 440.081 215.955 440.099 215.901 440.099ZM213.523 421.61C213.496 421.61 213.469 421.61 213.442 421.601C213.298 421.556 213.227 421.403 213.272 421.269C213.514 420.532 213.792 419.796 214.106 419.078C217.66 411.068 225.619 405.896 234.368 405.896C237.572 405.896 240.676 406.578 243.602 407.934C242.911 406.03 242.561 404.046 242.561 402.026C242.561 399.601 243.045 397.257 244.014 395.057C246.787 388.727 253.042 384.632 259.942 384.632C261.925 384.632 263.873 384.964 265.73 385.62C267.902 386.392 269.876 387.568 271.59 389.122C275.233 392.417 277.324 397.123 277.324 402.035C277.324 402.923 277.243 403.839 277.082 404.818C279.818 406.345 282.196 408.356 284.171 410.817C285.005 411.849 285.759 412.963 286.414 414.13C286.486 414.256 286.441 414.417 286.315 414.498C286.19 414.57 286.019 414.525 285.947 414.399C285.31 413.259 284.565 412.172 283.758 411.158C281.784 408.706 279.397 406.704 276.66 405.204C276.561 405.15 276.507 405.034 276.525 404.926C276.705 403.902 276.785 402.959 276.785 402.043C276.785 397.284 274.757 392.723 271.231 389.535C269.562 388.026 267.651 386.886 265.551 386.141C263.756 385.503 261.863 385.18 259.933 385.18C253.239 385.18 247.173 389.149 244.49 395.282C243.557 397.419 243.081 399.691 243.081 402.035C243.081 404.208 243.503 406.345 244.32 408.374C244.364 408.473 244.338 408.599 244.257 408.67C244.176 408.742 244.059 408.76 243.961 408.715C240.928 407.207 237.697 406.443 234.359 406.443C225.816 406.443 218.054 411.49 214.582 419.311C214.277 420.012 213.998 420.73 213.765 421.448C213.747 421.529 213.639 421.61 213.523 421.61ZM295.594 415.378C295.558 415.378 295.531 415.369 295.504 415.36C293.485 414.597 291.394 414.22 289.285 414.22C289.142 414.22 289.016 414.103 289.016 413.95C289.016 413.807 289.133 413.681 289.285 413.681C291.34 413.681 293.386 414.04 295.369 414.741C295.504 413.798 295.746 412.864 296.078 411.975C296.392 411.131 296.805 410.314 297.281 409.541C297.9 408.554 298.654 407.647 299.506 406.848C299.614 406.749 299.784 406.758 299.883 406.857C299.982 406.964 299.982 407.135 299.874 407.234C299.049 407.997 298.331 408.877 297.729 409.82C297.272 410.556 296.877 411.337 296.572 412.154C296.213 413.115 295.971 414.112 295.845 415.136C295.836 415.217 295.791 415.288 295.719 415.333C295.692 415.369 295.639 415.378 295.594 415.378Z" fill="#646464"/>
<path d="M491.583 378.58C491.556 378.58 491.538 378.58 491.511 378.571C489.725 378.068 487.913 377.817 486.136 377.817C485.992 377.817 485.885 377.7 485.885 377.565C485.885 377.43 486.001 377.314 486.136 377.314C487.859 377.314 489.609 377.547 491.34 378.005C491.403 376.155 491.735 374.332 492.345 372.59C494.894 365.29 501.803 360.387 509.53 360.387C512.993 360.387 516.367 361.366 519.275 363.216C521.689 364.751 523.734 366.87 525.197 369.331C525.61 370.022 525.969 370.75 526.292 371.486C527.306 371.037 528.365 370.696 529.433 370.471C530.438 370.265 531.47 370.157 532.501 370.157C532.645 370.157 532.753 370.274 532.753 370.408C532.753 370.543 532.636 370.66 532.501 370.66C531.505 370.66 530.509 370.759 529.531 370.965C528.41 371.199 527.315 371.567 526.265 372.052C526.202 372.079 526.13 372.088 526.068 372.061C526.005 372.034 525.951 371.989 525.924 371.917C525.601 371.118 525.206 370.328 524.766 369.582C523.349 367.185 521.357 365.128 519.005 363.638C516.179 361.833 512.895 360.881 509.53 360.881C502.019 360.881 495.298 365.649 492.821 372.752C492.193 374.539 491.861 376.425 491.834 378.328C491.834 378.409 491.798 378.481 491.735 378.526C491.69 378.562 491.637 378.58 491.583 378.58Z" fill="#646464"/>
<path d="M546.491 391.151C546.428 391.151 546.374 391.133 546.33 391.088C546.249 391.017 546.222 390.909 546.258 390.81C546.698 389.679 547.003 388.502 547.155 387.326C547.236 386.706 547.281 386.078 547.281 385.449C547.281 384.075 547.092 382.71 546.724 381.408C546.213 379.586 545.36 377.906 544.194 376.398C543.054 374.925 541.663 373.686 540.057 372.734C539.941 372.662 539.896 372.51 539.967 372.384C540.039 372.267 540.192 372.222 540.317 372.294C541.969 373.282 543.413 374.557 544.589 376.084C545.791 377.637 546.671 379.379 547.209 381.265C547.595 382.621 547.783 384.021 547.783 385.449C547.783 386.105 547.738 386.751 547.658 387.398C547.523 388.403 547.29 389.4 546.958 390.379C548.995 389.346 551.265 388.808 553.544 388.808C555.608 388.808 557.6 389.23 559.467 390.056C559.592 390.11 559.655 390.262 559.592 390.388C559.538 390.514 559.386 390.568 559.26 390.514C557.457 389.714 555.536 389.31 553.544 389.31C551.121 389.31 548.734 389.939 546.617 391.133C546.581 391.142 546.536 391.151 546.491 391.151Z" fill="#646464"/>
<path d="M553.544 418.072H516.969C516.825 418.072 516.717 417.955 516.717 417.821C516.717 417.677 516.834 417.569 516.969 417.569H553.544C555.411 417.569 557.223 417.21 558.928 416.51C559.763 416.168 560.57 415.737 561.333 415.225C562.76 414.283 563.989 413.106 564.985 411.714C566.735 409.29 567.668 406.425 567.668 403.426C567.668 402.501 567.579 401.567 567.399 400.67C566.977 398.514 566.035 396.467 564.671 394.725C564.582 394.617 564.608 394.456 564.716 394.375C564.824 394.285 564.985 394.312 565.066 394.42C566.475 396.216 567.444 398.344 567.884 400.571C568.072 401.505 568.162 402.465 568.162 403.426C568.162 406.533 567.202 409.505 565.389 412.011C564.348 413.447 563.074 414.669 561.602 415.639C560.813 416.159 559.978 416.608 559.108 416.967C557.358 417.704 555.474 418.072 553.544 418.072Z" fill="#646464"/>
<path d="M508.48 418.072H505.007C504.863 418.072 504.756 417.955 504.756 417.821C504.756 417.677 504.872 417.569 505.007 417.569H508.48C508.623 417.569 508.731 417.686 508.731 417.821C508.731 417.964 508.623 418.072 508.48 418.072Z" fill="#646464"/>
<path d="M489.088 418.072H486.136C484.512 418.072 482.896 417.884 481.335 417.506C479.819 417.138 478.338 416.59 476.947 415.89C476.05 415.432 475.188 414.911 474.372 414.337C472.828 413.241 471.446 411.939 470.262 410.466C469.364 409.353 468.584 408.141 467.938 406.866C467.875 406.74 467.929 406.587 468.045 406.524C468.171 406.461 468.324 406.515 468.386 406.632C469.014 407.871 469.777 409.057 470.648 410.143C471.805 411.58 473.151 412.846 474.659 413.915C475.457 414.48 476.301 414.992 477.171 415.432C478.526 416.124 479.971 416.653 481.452 417.013C482.977 417.381 484.548 417.569 486.136 417.569H489.088C489.223 417.569 489.339 417.686 489.339 417.821C489.339 417.964 489.223 418.072 489.088 418.072Z" fill="#646464"/>
<path d="M466.807 403.525C466.699 403.525 466.601 403.453 466.565 403.346C466.044 401.514 465.775 399.619 465.775 397.697C465.775 394.707 466.412 391.816 467.659 389.122C467.722 388.996 467.866 388.942 467.991 388.996C468.117 389.059 468.171 389.203 468.117 389.328C466.897 391.959 466.278 394.77 466.278 397.688C466.278 399.556 466.538 401.415 467.049 403.193C467.085 403.328 467.013 403.462 466.879 403.507C466.852 403.516 466.825 403.525 466.807 403.525Z" fill="#646464"/>
<path d="M472.29 383.348C472.227 383.348 472.155 383.321 472.11 383.267C472.012 383.168 472.02 383.007 472.119 382.908C474.479 380.672 477.369 379.011 480.474 378.113C480.608 378.068 480.743 378.149 480.788 378.283C480.823 378.418 480.752 378.553 480.617 378.598C477.584 379.478 474.766 381.094 472.469 383.276C472.415 383.321 472.353 383.348 472.29 383.348Z" fill="#646464"/>
<path d="M439.546 444.697C439.483 444.697 439.42 444.688 439.366 444.661C438.388 444.212 437.347 443.915 436.27 443.781C436.118 443.763 435.983 443.664 435.92 443.511C435.858 443.368 435.876 443.197 435.974 443.071C436.36 442.559 436.692 441.994 436.952 441.401C437.455 440.288 437.706 439.093 437.706 437.863C437.706 436.956 437.572 436.067 437.302 435.214C436.934 434.047 436.333 432.996 435.517 432.071C434.556 430.994 433.336 430.159 431.99 429.665C430.088 428.964 427.952 428.964 426.05 429.647C425.072 429.997 424.165 430.518 423.367 431.2C421.671 432.637 420.603 434.639 420.343 436.83C420.325 436.956 420.253 437.082 420.145 437.145C420.037 437.217 419.894 437.234 419.777 437.199C416.17 436.076 412.105 436.462 408.785 438.267C408.569 438.384 408.3 438.303 408.184 438.088C408.067 437.872 408.148 437.603 408.363 437.486C411.737 435.645 415.847 435.187 419.544 436.202C419.93 433.984 421.069 431.981 422.801 430.518C423.681 429.772 424.677 429.198 425.754 428.812C427.844 428.057 430.204 428.066 432.295 428.83C433.776 429.377 435.122 430.293 436.181 431.479C437.078 432.493 437.742 433.652 438.146 434.936C438.442 435.879 438.595 436.857 438.595 437.845C438.595 439.201 438.316 440.521 437.76 441.751C437.563 442.182 437.338 442.595 437.087 442.99C438.002 443.161 438.891 443.448 439.734 443.834C439.958 443.933 440.048 444.203 439.95 444.418C439.878 444.598 439.716 444.697 439.546 444.697Z" fill="#646464"/>
<path d="M455.698 452.94C455.527 452.94 455.366 452.841 455.294 452.679C454.774 451.485 453.966 450.408 452.97 449.555C452.198 448.89 451.328 448.378 450.377 448.019C448.331 447.247 446.016 447.283 443.979 448.127C443.754 448.226 443.494 448.118 443.404 447.884C443.315 447.66 443.422 447.399 443.647 447.31C445.89 446.385 448.438 446.349 450.691 447.193C451.732 447.588 452.692 448.154 453.544 448.881C454.639 449.815 455.519 451.009 456.102 452.32C456.201 452.545 456.102 452.805 455.877 452.904C455.815 452.931 455.752 452.94 455.698 452.94Z" fill="#646464"/>
<path d="M447.308 465.799H440.21C439.967 465.799 439.77 465.601 439.77 465.359C439.77 465.116 439.967 464.919 440.21 464.919H447.308C448.187 464.919 449.049 464.793 449.874 464.533C451.256 464.11 452.512 463.338 453.535 462.297C454.28 461.542 454.872 460.662 455.294 459.701C455.779 458.597 456.03 457.412 456.03 456.19C456.03 455.948 456.227 455.75 456.47 455.75C456.712 455.75 456.909 455.948 456.909 456.19C456.909 457.537 456.64 458.83 456.102 460.061C455.635 461.12 454.989 462.081 454.172 462.916C453.06 464.057 451.66 464.91 450.143 465.377C449.228 465.655 448.268 465.799 447.308 465.799Z" fill="#646464"/>
<path d="M436.845 465.798H406.891C406.649 465.798 406.452 465.601 406.452 465.358C406.452 465.116 406.649 464.918 406.891 464.918H436.845C437.087 464.918 437.284 465.116 437.284 465.358C437.284 465.601 437.087 465.798 436.845 465.798Z" fill="#646464"/>
<path d="M398.564 465.798H395.136C393.171 465.798 391.278 465.206 389.671 464.083C388.801 463.482 388.038 462.736 387.41 461.883C387.267 461.686 387.311 461.407 387.5 461.264C387.697 461.12 387.975 461.165 388.119 461.354C388.693 462.135 389.384 462.808 390.174 463.356C391.637 464.371 393.351 464.909 395.136 464.909H398.564C398.806 464.909 399.004 465.107 399.004 465.349C399.004 465.601 398.806 465.798 398.564 465.798Z" fill="#646464"/>
<path d="M386.477 459.63C386.297 459.63 386.127 459.513 386.064 459.333C385.714 458.328 385.535 457.268 385.535 456.19C385.535 455.005 385.75 453.847 386.172 452.742C386.576 451.683 387.168 450.704 387.922 449.851C388.083 449.671 388.361 449.653 388.541 449.815C388.72 449.977 388.738 450.255 388.577 450.434C387.895 451.216 387.356 452.096 386.988 453.057C386.603 454.053 386.414 455.104 386.414 456.181C386.414 457.16 386.576 458.121 386.89 459.037C386.97 459.27 386.845 459.522 386.62 459.603C386.576 459.63 386.531 459.63 386.477 459.63Z" fill="#646464"/>
<path d="M391.358 448.279C391.188 448.279 391.026 448.181 390.955 448.019C390.856 447.795 390.955 447.534 391.179 447.435C392.426 446.87 393.754 446.582 395.136 446.582C395.379 446.582 395.576 446.78 395.576 447.022C395.576 447.265 395.379 447.462 395.136 447.462C393.88 447.462 392.678 447.723 391.538 448.235C391.484 448.27 391.421 448.279 391.358 448.279Z" fill="#646464"/>
<path d="M401.023 449.617C400.924 449.617 400.816 449.581 400.736 449.51C399.91 448.809 398.968 448.279 397.954 447.929C397.721 447.848 397.604 447.597 397.676 447.372C397.756 447.139 397.999 447.013 398.232 447.094C399.111 447.39 399.928 447.812 400.682 448.351C400.807 447.534 401.005 446.735 401.265 445.963C401.525 445.181 401.857 444.409 402.243 443.682C402.88 442.488 403.67 441.383 404.603 440.395C404.774 440.216 405.052 440.216 405.231 440.377C405.411 440.548 405.42 440.826 405.249 441.006C404.37 441.931 403.625 442.972 403.024 444.104C402.656 444.795 402.351 445.523 402.1 446.25C401.777 447.211 401.561 448.208 401.454 449.222C401.436 449.384 401.328 449.528 401.175 449.581C401.13 449.608 401.077 449.617 401.023 449.617Z" fill="#646464"/>
<path d="M138.424 478.981H133.83C131.694 478.981 129.648 478.505 127.746 477.571C125.754 476.592 123.995 475.119 122.676 473.323C120.926 470.944 120.002 468.115 120.002 465.152C120.002 463.41 120.325 461.704 120.953 460.097C121.052 459.854 121.321 459.719 121.572 459.827C121.814 459.926 121.94 460.204 121.841 460.447C121.258 461.937 120.953 463.527 120.953 465.152C120.953 467.909 121.814 470.54 123.439 472.758C124.668 474.428 126.292 475.802 128.15 476.709C129.917 477.58 131.82 478.02 133.812 478.02H138.406C138.675 478.02 138.882 478.235 138.882 478.496C138.882 478.756 138.693 478.981 138.424 478.981Z" fill="#646464"/>
<path d="M126.409 454.538C126.256 454.538 126.104 454.466 126.014 454.323C125.87 454.098 125.924 453.802 126.149 453.658C127.809 452.545 129.711 451.799 131.685 451.485C131.263 450.488 131.039 449.42 131.039 448.333C131.039 446.663 131.542 445.056 132.502 443.7C134.009 441.554 136.477 440.279 139.088 440.279C140.147 440.279 141.179 440.485 142.148 440.88C143.745 441.545 145.091 442.703 145.98 444.185C147.03 443.412 148.151 442.757 149.327 442.218C149.56 442.101 149.856 442.209 149.964 442.452C150.072 442.694 149.973 442.981 149.731 443.089C148.457 443.673 147.245 444.409 146.123 445.271C146.007 445.361 145.863 445.397 145.729 445.361C145.594 445.334 145.468 445.235 145.406 445.11C144.634 443.592 143.351 442.407 141.789 441.76C140.937 441.41 140.03 441.23 139.097 441.23C136.791 441.23 134.62 442.362 133.291 444.248C132.448 445.442 131.999 446.861 131.999 448.333C131.999 449.501 132.277 450.614 132.825 451.647C132.897 451.79 132.897 451.961 132.825 452.096C132.753 452.239 132.609 452.329 132.448 452.347C130.393 452.572 128.392 453.29 126.678 454.448C126.597 454.511 126.499 454.538 126.409 454.538Z" fill="#646464"/>
<path d="M159.916 441.652C159.889 441.652 159.871 441.652 159.844 441.643C158.875 441.509 158.058 441.446 157.286 441.446C157.017 441.446 156.811 441.23 156.811 440.961C156.811 440.692 157.026 440.485 157.286 440.485C158.004 440.485 158.749 440.539 159.602 440.647C159.996 439.695 160.517 438.806 161.154 437.989C162.285 436.543 163.756 435.385 165.407 434.621C168.216 433.337 171.491 433.266 174.345 434.406C174.587 434.505 174.713 434.783 174.614 435.035C174.515 435.286 174.237 435.403 173.986 435.304C171.375 434.262 168.369 434.325 165.802 435.501C164.286 436.193 162.94 437.261 161.908 438.581C161.253 439.417 160.732 440.35 160.364 441.347C160.301 441.527 160.113 441.652 159.916 441.652Z" fill="#646464"/>
<path d="M182.699 454.008C182.573 454.008 182.448 453.955 182.349 453.865C181.38 452.85 180.276 451.988 179.074 451.315C178.957 451.252 178.876 451.144 178.841 451.009C178.814 450.884 178.832 450.749 178.903 450.632C179.989 448.944 180.563 446.995 180.563 445.002C180.563 442.488 179.657 440.063 178.015 438.159C177.844 437.962 177.862 437.657 178.06 437.477C178.266 437.306 178.562 437.324 178.742 437.522C180.537 439.596 181.533 442.245 181.533 444.993C181.533 447.004 181.003 448.971 179.98 450.722C180.994 451.341 181.936 452.087 182.789 452.931C184.027 452.266 185.355 451.808 186.728 451.548C186.988 451.512 187.24 451.674 187.285 451.934C187.329 452.195 187.159 452.446 186.899 452.491C185.508 452.751 184.171 453.236 182.932 453.937C182.861 453.99 182.78 454.008 182.699 454.008Z" fill="#646464"/>
<path d="M202.584 465.628C202.315 465.628 202.109 465.413 202.109 465.152C202.109 462 200.96 458.965 198.869 456.613C197.263 454.799 195.19 453.479 192.875 452.805C191.7 452.464 190.488 452.284 189.259 452.284C188.99 452.284 188.783 452.069 188.783 451.808C188.783 451.548 188.999 451.333 189.259 451.333C190.578 451.333 191.888 451.521 193.144 451.889C195.63 452.617 197.864 454.035 199.587 455.984C201.831 458.516 203.069 461.776 203.069 465.161C203.069 465.412 202.854 465.628 202.584 465.628Z" fill="#646464"/>
<path d="M196.078 477.095C195.917 477.095 195.755 477.014 195.666 476.861C195.531 476.637 195.603 476.341 195.836 476.206C197.9 474.976 199.569 473.198 200.673 471.061C200.798 470.827 201.086 470.737 201.319 470.854C201.552 470.98 201.651 471.267 201.525 471.501C200.341 473.79 198.546 475.703 196.33 477.023C196.249 477.077 196.168 477.095 196.078 477.095Z" fill="#646464"/>
<path d="M182.977 478.981H144.966C144.697 478.981 144.49 478.765 144.49 478.505C144.49 478.244 144.706 478.029 144.966 478.029H182.977C183.247 478.029 183.453 478.244 183.453 478.505C183.453 478.765 183.247 478.981 182.977 478.981Z" fill="#646464"/>
<path d="M221.411 151.163C221.133 154.369 220.98 157.611 220.98 160.888C220.98 196.313 235.382 217.46 251.328 233.353" stroke="#F3652B" stroke-linecap="round" stroke-linejoin="round"/>
<path d="M219.75 151.118C219.822 150.193 220.63 149.493 221.563 149.565C222.487 149.637 223.187 150.445 223.116 151.379C223.044 152.313 222.236 153.004 221.303 152.932C220.37 152.86 219.679 152.052 219.75 151.118Z" fill="#F3652B"/>
<path d="M250.09 234.44C250.736 235.113 251.804 235.131 252.477 234.476C253.15 233.829 253.168 232.761 252.513 232.087C251.866 231.414 250.799 231.396 250.126 232.051C249.462 232.698 249.444 233.767 250.09 234.44Z" fill="#F3652B"/>
<path d="M362.249 57.3535C352.764 54.2286 342.704 52.3878 332.259 52.0376C286.324 50.4841 246.509 78.2849 229.612 118.181" stroke="#F3652B" stroke-linecap="round" stroke-linejoin="round"/>
<path d="M362.643 55.7643C363.532 56.0337 364.034 56.9766 363.765 57.8745C363.496 58.7725 362.554 59.2664 361.656 58.997C360.768 58.7276 360.265 57.7847 360.535 56.8868C360.804 55.9888 361.755 55.4949 362.643 55.7643Z" fill="#F3652B"/>
<path d="M228.158 117.436C227.773 118.289 228.15 119.286 229.002 119.672C229.854 120.058 230.851 119.681 231.236 118.828C231.622 117.975 231.245 116.978 230.393 116.592C229.54 116.206 228.544 116.592 228.158 117.436Z" fill="#F3652B"/>
<path d="M435.131 174.654C435.804 169.913 436.163 164.92 436.163 159.64C436.163 124.871 419.697 93.9547 394.14 74.2715" stroke="#F3652B" stroke-linecap="round" stroke-linejoin="round"/>
<path d="M436.764 174.762C436.656 175.687 435.813 176.351 434.889 176.244C433.964 176.136 433.3 175.292 433.408 174.367C433.516 173.442 434.359 172.777 435.283 172.885C436.208 172.993 436.872 173.828 436.764 174.762Z" fill="#F3652B"/>
<path d="M395.226 73.0232C394.499 72.4486 393.431 72.5653 392.857 73.3016C392.283 74.029 392.399 75.0975 393.135 75.6722C393.871 76.2469 394.93 76.1302 395.504 75.3939C396.078 74.6575 395.953 73.6069 395.226 73.0232Z" fill="#F3652B"/>
<path d="M377.324 260.113C393.97 242.701 421.285 223.62 431.829 189.47" stroke="#F3652B" stroke-linecap="round" stroke-linejoin="round"/>
<path d="M378.616 261.271C377.961 261.935 376.893 261.935 376.229 261.28C375.565 260.624 375.565 259.556 376.22 258.891C376.875 258.227 377.943 258.227 378.607 258.882C379.262 259.538 379.271 260.606 378.616 261.271Z" fill="#F3652B"/>
<path d="M433.363 190.054C433.659 189.165 433.175 188.213 432.286 187.926C431.398 187.629 430.447 188.114 430.16 189.003C429.864 189.892 430.348 190.844 431.236 191.131C432.116 191.419 433.067 190.943 433.363 190.054Z" fill="#F3652B"/>
<path d="M293.369 323.769V329.103C293.369 333.718 297.146 337.498 301.759 337.498H355.375C359.987 337.498 363.765 333.718 363.765 329.103V285.614C363.765 281.628 364.824 277.847 366.7 274.156" stroke="#F3652B" stroke-linecap="round" stroke-linejoin="round"/>
<path d="M293.369 325.547C294.3 325.547 295.056 324.791 295.056 323.859C295.056 322.926 294.3 322.17 293.369 322.17C292.437 322.17 291.682 322.926 291.682 323.859C291.682 324.791 292.437 325.547 293.369 325.547Z" fill="#F3652B"/>
<path d="M368.207 275.01C368.62 274.175 368.288 273.16 367.453 272.747C366.619 272.334 365.605 272.666 365.192 273.501C364.779 274.336 365.111 275.351 365.946 275.764C366.78 276.177 367.794 275.845 368.207 275.01Z" fill="#F3652B"/>
<path d="M258.758 240.348C276.31 256.126 293.369 267.332 293.369 285.614V315.445" stroke="#F3652B" stroke-linecap="round" stroke-linejoin="round"/>
<path d="M257.735 241.651C257.035 241.04 256.963 239.971 257.574 239.271C258.184 238.571 259.252 238.499 259.952 239.109C260.651 239.72 260.723 240.788 260.113 241.489C259.503 242.198 258.435 242.27 257.735 241.651Z" fill="#F3652B"/>
<path d="M293.369 291.748H340.057" stroke="#F3652B" stroke-miterlimit="10" stroke-linecap="round" stroke-linejoin="round"/>
<path d="M316.206 230.049V215.628" stroke="#F3652B" stroke-linecap="round" stroke-linejoin="round"/>
<path d="M316.206 231.647C317.138 231.647 317.893 230.892 317.893 229.959C317.893 229.027 317.138 228.271 316.206 228.271C315.274 228.271 314.519 229.027 314.519 229.959C314.519 230.892 315.274 231.647 316.206 231.647Z" fill="#F3652B"/>
<path d="M316.206 217.397C317.138 217.397 317.893 216.641 317.893 215.709C317.893 214.776 317.138 214.021 316.206 214.021C315.274 214.021 314.519 214.776 314.519 215.709C314.519 216.641 315.274 217.397 316.206 217.397Z" fill="#F3652B"/>
<path d="M316.206 262.905V238.66" stroke="#F3652B" stroke-linecap="round" stroke-linejoin="round"/>
<path d="M317.893 262.824C317.893 263.758 317.139 264.513 316.206 264.513C315.273 264.513 314.519 263.758 314.519 262.824C314.519 261.891 315.273 261.136 316.206 261.136C317.139 261.136 317.893 261.891 317.893 262.824Z" fill="#F3652B"/>
<path d="M317.893 238.741C317.893 237.807 317.139 237.053 316.206 237.053C315.273 237.053 314.519 237.807 314.519 238.741C314.519 239.675 315.273 240.429 316.206 240.429C317.139 240.429 317.893 239.675 317.893 238.741Z" fill="#F3652B"/>
<path d="M340.057 274.157V222.38" stroke="#F3652B" stroke-linecap="round" stroke-linejoin="round"/>
<path d="M340.057 275.755C340.989 275.755 341.744 274.999 341.744 274.067C341.744 273.134 340.989 272.379 340.057 272.379C339.126 272.379 338.37 273.134 338.37 274.067C338.37 274.999 339.126 275.755 340.057 275.755Z" fill="#F3652B"/>
<path d="M340.057 224.149C340.989 224.149 341.744 223.393 341.744 222.461C341.744 221.529 340.989 220.773 340.057 220.773C339.126 220.773 338.37 221.529 338.37 222.461C338.37 223.393 339.126 224.149 340.057 224.149Z" fill="#F3652B"/>
<path d="M316.206 207.483V187.926" stroke="#F3652B" stroke-miterlimit="10" stroke-linecap="round" stroke-linejoin="round"/>
<path d="M340.057 207.483V190.162" stroke="#F3652B" stroke-miterlimit="10" stroke-linecap="round" stroke-linejoin="round"/>
<path d="M328.132 31.7708V14.4492" stroke="#F3652B" stroke-miterlimit="10" stroke-linecap="round" stroke-linejoin="round"/>
<path d="M473.914 160.332H456.604" stroke="#F3652B" stroke-miterlimit="10" stroke-linecap="round" stroke-linejoin="round"/>
<path d="M401.319 35.0396L392.067 49.6852" stroke="#F3652B" stroke-miterlimit="10" stroke-linecap="round" stroke-linejoin="round"/>
<path d="M454.199 233.551L439.573 224.293" stroke="#F3652B" stroke-miterlimit="10" stroke-linecap="round" stroke-linejoin="round"/>
<path d="M454.361 87.3994L439.366 96.0647" stroke="#F3652B" stroke-miterlimit="10" stroke-linecap="round" stroke-linejoin="round"/>
<path d="M185.957 160.332H203.266" stroke="#F3652B" stroke-miterlimit="10" stroke-linecap="round" stroke-linejoin="round"/>
<path d="M258.543 35.0396L267.794 49.6852" stroke="#F3652B" stroke-miterlimit="10" stroke-linecap="round" stroke-linejoin="round"/>
<path d="M205.671 233.551L220.298 224.293" stroke="#F3652B" stroke-miterlimit="10" stroke-linecap="round" stroke-linejoin="round"/>
<path d="M205.51 87.3994L220.504 96.0647" stroke="#F3652B" stroke-miterlimit="10" stroke-linecap="round" stroke-linejoin="round"/>
<path d="M293.369 315.445H343.171" stroke="#F3652B" stroke-linecap="round" stroke-linejoin="round"/>
<path d="M343.09 317.205C344.062 317.205 344.849 316.417 344.849 315.445C344.849 314.473 344.062 313.685 343.09 313.685C342.119 313.685 341.332 314.473 341.332 315.445C341.332 316.417 342.119 317.205 343.09 317.205Z" fill="#F3652B"/>
<path d="M303.787 337.499V353.285C303.787 358.726 308.237 363.18 313.675 363.18H342.076C347.514 363.18 351.965 358.726 351.965 353.285V337.499" stroke="#F3652B" stroke-miterlimit="10" stroke-linecap="round" stroke-linejoin="round"/>
<path d="M293.871 95.0501C283.794 101.066 275.314 109.552 269.302 119.636C266.251 124.755 260.104 127.628 254.765 125.473C249.435 123.318 247.38 115.55 251.337 108.915C259.216 96.1097 270.038 84.6158 283.166 77.064C289.797 73.113 297.559 75.1603 299.704 80.5032C301.857 85.846 298.986 91.9971 293.871 95.0501Z" stroke="#F3652B" stroke-miterlimit="10" stroke-linecap="round" stroke-linejoin="round"/>
<path d="M244.939 151.047C250.658 151.047 255.294 146.407 255.294 140.684C255.294 134.961 250.658 130.322 244.939 130.322C239.22 130.322 234.583 134.961 234.583 140.684C234.583 146.407 239.22 151.047 244.939 151.047Z" stroke="#F3652B" stroke-miterlimit="10" stroke-linecap="round" stroke-linejoin="round"/>
<path d="M217.543 292.933C216.861 292.933 216.098 291.622 216.098 289.754C216.098 287.886 216.861 286.575 217.543 286.575C218.225 286.575 218.988 287.877 218.988 289.754C218.988 291.631 218.225 292.933 217.543 292.933Z" fill="#1E1E1E"/>
<path d="M217.543 287.024C217.848 287.024 218.539 288.057 218.539 289.754C218.539 291.451 217.848 292.484 217.543 292.484C217.238 292.484 216.547 291.451 216.547 289.754C216.547 288.057 217.238 287.024 217.543 287.024ZM217.543 286.126C216.502 286.126 215.649 287.752 215.649 289.754C215.649 291.756 216.493 293.382 217.543 293.382C218.584 293.382 219.436 291.756 219.436 289.754C219.436 287.752 218.584 286.126 217.543 286.126Z" fill="#F3652B"/>
<path d="M228.096 548.896C225.44 548.896 223.537 548.483 222.676 547.737C223.259 546.911 223.385 545.465 223.403 545.142C223.412 545.061 223.394 544.98 223.358 544.909C223.358 544.909 223.313 544.81 223.223 544.639C221.662 541.487 217.929 533.28 216.556 524.211C219.571 524.758 222.954 524.857 226.22 524.875C225.484 536.629 227.871 546.444 227.898 546.543C227.916 546.624 227.961 546.696 228.015 546.749L230.034 548.824C229.531 548.86 228.85 548.896 228.096 548.896Z" fill="#1E1E1E"/>
<path d="M217.103 524.758C219.84 525.189 222.837 525.297 225.754 525.324C225.107 536.926 227.369 546.256 227.467 546.66C227.503 546.812 227.584 546.956 227.692 547.073L229.02 548.438C228.733 548.447 228.419 548.456 228.096 548.456C225.852 548.456 224.156 548.159 223.268 547.621C223.717 546.741 223.824 545.6 223.851 545.178C223.86 545.025 223.824 544.846 223.752 544.711C223.726 544.657 223.69 544.567 223.627 544.46C222.119 541.38 218.539 533.532 217.103 524.758ZM216.026 523.645C217.597 534.95 222.855 544.828 222.954 545.079L222.963 545.097C222.963 545.097 222.828 547.172 222.065 547.719C223.071 549.048 225.888 549.327 228.096 549.327C229.72 549.327 231.021 549.174 231.021 549.174L228.338 546.417C228.338 546.417 225.87 536.441 226.705 524.408C223.313 524.417 219.391 524.336 216.026 523.645Z" fill="#F3652B"/>
<path d="M222.066 547.737C222.066 547.737 221.123 548.887 221.428 550.548C221.734 552.209 222.066 552.766 222.066 552.766C222.066 552.766 236.881 553.26 238.173 553.071C239.465 552.883 239.402 552.335 239.402 552.335C239.402 552.335 240.694 551.599 239.16 550.431C237.626 549.264 230.348 547.746 230.348 547.746L228.841 546.839C228.841 546.839 227.701 547.046 228.876 547.908C230.043 548.77 227.396 548.833 226.481 548.707C225.547 548.572 222.066 547.737 222.066 547.737Z" fill="#1E1E1E" stroke="#F3652B" stroke-miterlimit="10" stroke-linecap="round" stroke-linejoin="round"/>
<path d="M201.157 319.09C198.465 319.09 195.773 318.551 193.162 317.483C195.163 314.322 197.469 306.294 197.209 301.778C197.209 301.733 197.2 301.688 197.182 301.643C194.293 293.938 195.666 293.031 196.877 292.223C197.496 291.81 198.196 291.352 198.412 290.248C200.206 281.062 204.065 276.213 209.557 276.213C210.606 276.213 211.468 276.383 212.033 276.5C212.15 276.527 212.249 276.545 212.338 276.563C216.224 279.921 217.014 284.384 216.673 285.605C215.82 288.64 216.906 291.415 217.974 293.211C218.62 294.306 218.315 294.872 218.297 294.899L217.704 295.887C217.651 295.977 217.633 296.075 217.642 296.183C217.938 298.374 218.135 304.202 215.551 304.768C212.069 305.531 207.834 305.809 207.789 305.809C207.582 305.818 207.412 305.971 207.376 306.178L205.276 317.869C205.249 318.004 205.294 318.147 205.384 318.246C205.501 318.372 205.608 318.497 205.716 318.614C204.63 318.812 203.078 319.09 201.157 319.09Z" fill="#1E1E1E"/>
<path d="M209.539 276.653C210.544 276.653 211.378 276.823 211.926 276.931C211.988 276.94 212.051 276.958 212.114 276.967C215.712 280.146 216.529 284.366 216.215 285.462C215.318 288.649 216.448 291.55 217.561 293.417C218.028 294.199 217.902 294.603 217.875 294.657L217.292 295.626C217.184 295.797 217.148 296.004 217.175 296.21C217.507 298.653 217.507 303.843 215.434 304.292C211.988 305.046 207.789 305.315 207.744 305.324C207.331 305.351 206.99 305.657 206.918 306.061L204.819 317.752C204.783 317.932 204.81 318.12 204.881 318.282C203.894 318.462 202.638 318.632 201.148 318.632C198.681 318.632 196.213 318.165 193.799 317.249C195.764 313.756 197.9 306.124 197.64 301.742C197.631 301.652 197.613 301.562 197.586 301.481C194.822 294.109 196.034 293.301 197.11 292.591C197.766 292.151 198.582 291.613 198.833 290.329C200.592 281.385 204.289 276.653 209.539 276.653ZM209.539 275.755C205.967 275.755 200.395 277.676 197.954 290.158C197.362 293.202 192.444 290.302 196.752 301.795C197.03 306.483 194.436 315.058 192.471 317.68C195.773 319.126 198.744 319.539 201.148 319.539C203.625 319.539 205.501 319.099 206.542 318.866C206.263 318.551 205.994 318.246 205.698 317.923L207.798 306.231C207.798 306.231 212.069 305.962 215.623 305.181C219.185 304.399 218.063 296.102 218.063 296.102L218.656 295.115C218.656 295.115 219.158 294.351 218.333 292.969C217.283 291.209 216.269 288.569 217.076 285.713C217.516 284.16 216.457 279.481 212.509 276.132C212.051 276.06 210.956 275.755 209.539 275.755Z" fill="#F3652B"/>
<path d="M205.824 398.811C205.285 398.317 204.585 396.332 204.11 394.977C203.625 393.594 203.159 392.283 202.719 391.654C202.629 391.528 202.494 391.466 202.351 391.466C202.288 391.466 202.225 391.474 202.171 391.501C201.974 391.591 201.866 391.807 201.92 392.013C202.844 395.946 202.925 397.688 202.818 398.2C202.324 397.787 201.57 395.003 201.166 392.004C201.139 391.78 200.942 391.618 200.718 391.618C200.709 391.618 200.709 391.618 200.7 391.618C200.466 391.627 200.278 391.816 200.269 392.04C200.242 392.552 200.251 393.243 200.251 393.98C200.26 394.752 200.269 395.928 200.206 396.557C199.982 396.054 199.74 395.03 199.56 394.294C199.237 392.929 198.905 391.519 198.358 390.657C197.568 389.427 196.886 388.637 196.285 387.937C195.405 386.922 194.715 386.123 193.979 384.345C193.952 384.282 193.907 384.219 193.853 384.174C193.126 383.546 191.744 382.612 190.003 381.426C186.028 378.724 180.052 374.665 174.542 369.457C175.637 367.661 177.548 365.299 180.671 363.494C186.271 370.444 193.288 378.4 196.743 381.723C196.778 381.759 196.832 381.795 196.877 381.812C202.118 384.003 203.724 384.973 204.675 385.997C203.939 385.746 202.889 385.288 202.145 384.937C202.082 384.91 202.019 384.892 201.956 384.892C201.812 384.892 201.669 384.964 201.588 385.09C201.463 385.279 201.489 385.521 201.66 385.674C201.687 385.701 204.137 387.981 205.707 390.99C207.232 393.926 207.825 395.892 207.879 396.62C207.25 396.099 205.815 393.701 204.576 390.999C204.505 390.837 204.343 390.738 204.173 390.738C204.119 390.738 204.056 390.747 204.002 390.774C203.778 390.864 203.67 391.124 203.76 391.349C204.881 394.321 205.931 397.85 205.824 398.811Z" fill="#1E1E1E"/>
<path d="M180.572 364.06C186.145 370.947 193.018 378.742 196.437 382.028C196.518 382.109 196.608 382.163 196.715 382.208C198.995 383.159 200.574 383.878 201.705 384.461C201.507 384.515 201.337 384.641 201.22 384.821C200.969 385.189 201.032 385.683 201.355 385.988C201.382 386.006 203.778 388.242 205.303 391.187C205.868 392.274 206.29 393.208 206.613 393.998C206.084 393.073 205.509 391.95 204.98 390.801C204.827 390.469 204.504 390.28 204.163 390.28C204.047 390.28 203.93 390.298 203.813 390.352C203.365 390.541 203.149 391.044 203.32 391.501C203.499 391.986 203.688 392.48 203.858 392.983C203.598 392.328 203.347 391.78 203.096 391.412C202.925 391.169 202.647 391.026 202.36 391.026C202.234 391.026 202.109 391.052 201.992 391.106C201.759 391.214 201.588 391.412 201.507 391.636C201.355 391.358 201.059 391.178 200.727 391.178C200.718 391.178 200.7 391.178 200.691 391.178C200.224 391.196 199.856 391.564 199.829 392.031C199.811 392.408 199.811 392.866 199.811 393.369C199.533 392.247 199.219 391.16 198.743 390.415C197.936 389.158 197.245 388.35 196.626 387.64C195.773 386.653 195.1 385.88 194.391 384.165C194.338 384.03 194.257 383.923 194.149 383.824C193.404 383.177 192.085 382.279 190.255 381.04C186.36 378.391 180.527 374.431 175.116 369.367C176.175 367.733 177.898 365.685 180.572 364.06ZM180.788 362.893C177.225 364.85 175.116 367.562 173.977 369.511C182.035 377.206 191.233 382.486 193.566 384.497C194.849 387.622 196.096 387.928 197.981 390.882C199.093 392.615 199.363 397.257 200.332 397.257C200.368 397.257 200.395 397.248 200.43 397.239C200.879 397.096 200.637 393.63 200.718 392.058C200.718 392.058 201.597 398.685 202.898 398.685C202.943 398.685 202.979 398.676 203.024 398.667C203.562 398.497 203.266 395.812 202.351 391.906C203.311 393.279 204.558 398.694 205.671 399.26C205.77 399.314 205.85 399.332 205.931 399.332C207.259 399.332 204.154 391.151 204.154 391.151C204.154 391.151 206.9 397.132 208.067 397.132C208.094 397.132 208.112 397.132 208.139 397.123C208.677 396.997 207.941 394.312 206.093 390.747C204.469 387.622 201.956 385.306 201.956 385.306C201.956 385.306 204.666 386.599 205.42 386.599C205.626 386.599 205.689 386.5 205.5 386.248C204.424 384.812 203.087 383.878 197.056 381.364C193.673 378.122 186.558 370.067 180.788 362.893Z" fill="#F3652B"/>
<path d="M179.621 355.017C182.861 350.357 187.895 338.504 194.185 329.569C199.426 322.134 197.649 312.804 188.227 317.007C180.249 320.563 169.777 345.49 165.335 354.793C163.352 358.959 171.06 370.058 175.556 370.983L183.067 368.217C188.998 368.963 178.625 356.454 179.621 355.017Z" fill="#1E1E1E" stroke="#F3652B" stroke-miterlimit="10" stroke-linecap="round" stroke-linejoin="round"/>
<path d="M194.679 546.633C192.049 546.633 190.183 546.238 189.357 545.51C189.896 544.756 190.03 543.454 190.057 543.158C190.066 543.077 190.048 542.996 190.012 542.924C189.914 542.547 188.352 533.864 187.141 524.022C189.86 524.561 192.92 524.714 195.872 524.786C194.939 535.435 194.059 544.298 194.05 544.388C194.041 544.514 194.086 544.648 194.167 544.738L195.926 546.606C195.576 546.624 195.145 546.633 194.679 546.633Z" fill="#1E1E1E"/>
<path d="M187.652 524.57C190.102 525.001 192.767 525.145 195.378 525.216C194.463 535.651 193.611 544.253 193.602 544.343C193.575 544.603 193.664 544.855 193.844 545.043L194.921 546.184C194.84 546.184 194.759 546.184 194.678 546.184C192.498 546.184 190.811 545.896 189.949 545.385C190.353 544.576 190.47 543.571 190.506 543.194C190.515 543.077 190.497 542.951 190.461 542.843C190.299 542.17 188.837 534.034 187.652 524.57ZM186.611 523.448C187.859 533.81 189.51 542.861 189.591 543.104L189.599 543.122C189.599 543.122 189.447 545.016 188.738 545.51C189.698 546.83 192.606 547.082 194.678 547.082C195.953 547.082 196.904 546.983 196.904 546.983L194.499 544.424C194.499 544.424 195.396 535.319 196.365 524.336C193.261 524.274 189.68 524.139 186.611 523.448Z" fill="#F3652B"/>
<path d="M216.511 383.644C209.108 383.133 196.904 381.319 194.284 379.756C191.26 382.54 186.244 389.302 182.035 404.244C178.284 417.56 186.36 474.024 186.611 475.658C188.891 490.232 185.741 484.368 185.239 502.543C185.077 508.479 185.75 516.282 186.611 523.457C189.68 524.148 193.261 524.283 196.357 524.346C196.689 520.547 197.03 516.524 197.344 512.573C198.564 497.191 200.09 489.891 200.897 482.285C201.256 478.855 220.836 396.207 216.511 383.644Z" fill="#1E1E1E" stroke="#F3652B" stroke-miterlimit="10" stroke-linecap="round" stroke-linejoin="round"/>
<path d="M196.052 419.383C198.421 434.622 211.934 479.34 212.5 480.884C217.543 494.749 208.821 491.166 211.818 509.098C212.796 514.953 214.968 522.478 217.193 529.356C220.334 529.437 223.878 528.88 226.929 528.35C226.525 524.561 226.086 520.547 225.628 516.614C223.86 501.286 223.95 493.833 223.277 486.209C222.972 482.788 226.265 397.904 219.607 386.41" fill="#1E1E1E"/>
<path d="M196.052 419.383C198.421 434.622 211.934 479.34 212.5 480.884C217.543 494.749 208.821 491.166 211.818 509.098C212.796 514.953 214.968 522.478 217.193 529.356C220.334 529.437 223.878 528.88 226.929 528.35C226.525 524.561 226.086 520.547 225.628 516.614C223.86 501.286 223.95 493.833 223.277 486.209C222.972 482.788 226.265 397.904 219.607 386.41" stroke="#F3652B" stroke-miterlimit="10" stroke-linecap="round" stroke-linejoin="round"/>
<path d="M223.151 351.192C227.153 347.178 229.442 342.967 226.911 338.818C224.435 334.733 221.357 329.21 219.32 324.774C216.197 317.977 199.587 317.025 192.13 316.468C189.106 316.244 183.489 319.647 183.489 330.117C183.489 344.125 189.366 364.967 191.143 383.294C191.098 383.339 207.717 385.88 217.74 383.312C217.704 383.204 224.183 357.433 223.151 351.192Z" fill="#1E1E1E" stroke="#F3652B" stroke-miterlimit="10" stroke-linecap="round" stroke-linejoin="round"/>
<path d="M217.121 389.427C216.897 389.283 216.278 388.601 215.829 388.098C215.057 387.245 214.187 386.275 213.523 385.853C213.092 385.584 212.59 385.162 212.599 384.695C212.607 384.138 213.316 383.617 213.586 383.465C213.63 383.438 213.666 383.411 213.693 383.375C213.747 383.321 214.959 381.965 215.865 380.717C215.91 380.654 215.937 380.591 215.946 380.519C216.278 378.122 216.098 376.164 215.892 373.901C215.676 371.576 215.443 368.954 215.658 365.119C219.167 365.946 221.689 367.67 223.241 369.052C222.846 373.039 222.164 375.221 221.608 376.981C221.043 378.804 220.585 380.241 220.737 382.719C220.549 384.758 220.719 385.871 220.827 386.599C220.89 387.03 220.935 387.281 220.872 387.532C220.477 389.248 218.144 389.436 217.157 389.436H217.121V389.427Z" fill="#1E1E1E"/>
<path d="M216.071 365.676C219.095 366.484 221.321 367.975 222.765 369.223C222.37 373.021 221.715 375.123 221.177 376.829C220.594 378.679 220.136 380.133 220.28 382.666C220.091 384.785 220.271 385.907 220.378 386.652C220.441 387.057 220.468 387.263 220.432 387.416C220.118 388.763 218.207 388.951 217.274 388.969C217.022 388.745 216.529 388.206 216.161 387.793C215.335 386.877 214.474 385.925 213.756 385.467C213.227 385.126 213.038 384.848 213.038 384.695C213.047 384.426 213.487 384.021 213.792 383.842C213.873 383.797 213.953 383.734 214.016 383.662C214.07 383.608 215.299 382.235 216.215 380.968C216.304 380.852 216.358 380.708 216.376 380.564C216.717 378.122 216.538 376.137 216.322 373.848C216.134 371.657 215.91 369.196 216.071 365.676ZM215.237 364.563C214.707 372.635 216.17 375.617 215.497 380.457C214.599 381.696 213.361 383.079 213.361 383.079C213.361 383.079 210.687 384.596 213.289 386.239C214.492 386.994 216.592 389.876 217.067 389.885C217.103 389.885 217.139 389.885 217.175 389.885C218.341 389.885 220.863 389.652 221.321 387.631C221.518 386.769 220.89 386.051 221.195 382.692C220.908 377.87 222.927 377.197 223.717 368.873C222.038 367.337 219.212 365.371 215.237 364.563Z" fill="#F3652B"/>
<path d="M212.572 357.891C211.333 352.35 207.448 345.05 206.084 335.047C204.639 324.415 211.827 315.857 219.463 322.79C223.762 326.696 226.525 346.864 226.445 358.394C226.382 367.149 226.66 370.435 222.326 370.435L214.6 368.747C212.455 366.556 212.949 359.588 212.572 357.891Z" fill="#1E1E1E" stroke="#F3652B" stroke-miterlimit="10" stroke-linecap="round" stroke-linejoin="round"/>
<path d="M188.738 545.51C188.738 545.51 187.859 546.543 188.11 548.07C188.361 549.596 188.657 550.108 188.657 550.108C188.657 550.108 202.189 550.808 203.374 550.656C204.558 550.512 204.514 550 204.514 550C204.514 550 205.707 549.345 204.316 548.249C202.934 547.154 196.312 545.645 196.312 545.645L194.948 544.792C194.948 544.792 193.907 544.963 194.957 545.771C196.007 546.579 193.593 546.588 192.749 546.462C191.906 546.336 188.738 545.51 188.738 545.51Z" fill="#1E1E1E" stroke="#F3652B" stroke-miterlimit="10" stroke-linecap="round" stroke-linejoin="round"/>
<path d="M197.694 290.859L218.817 288.174" stroke="#F3652B" stroke-miterlimit="10" stroke-linecap="round" stroke-linejoin="round"/>
<path d="M216.385 314.295C216.331 314.295 216.269 314.295 216.206 314.286C215.264 314.196 215.174 313.927 215.039 313.523C214.878 313.047 214.662 312.4 213.406 312.266C212.751 312.194 212.338 312.167 211.997 312.167C211.764 312.167 211.567 312.176 211.315 312.194C210.885 312.221 210.301 312.266 209.054 312.266C206.595 312.266 206.326 311.287 206.326 311.278C206.299 311.17 206.227 311.054 206.129 310.991C206.03 310.928 203.634 309.392 201.095 309.392H200.861C199.955 309.392 199.686 309.168 199.408 308.934C199.129 308.701 198.779 308.405 198.026 308.405C197.739 308.405 197.398 308.44 196.994 308.53C196.599 308.611 196.195 308.647 195.755 308.647C194.993 308.647 194.194 308.53 193.342 308.405C192.292 308.252 191.107 308.081 189.716 308.081C189.187 308.081 188.657 308.108 188.128 308.153C188.002 308.162 187.877 308.171 187.76 308.171C186.558 308.171 185.535 307.596 184.808 306.51C183.435 304.463 183.417 301.131 184.763 297.827C186.62 293.274 186.728 291.065 186.845 288.73C186.881 287.94 186.926 287.114 187.042 286.189C187.455 282.858 188.083 277.811 202.809 274.183C205.438 273.537 207.708 273.205 209.566 273.205C211.899 273.205 213.595 273.716 214.6 274.731C215.739 275.88 215.721 277.416 215.721 278.152C215.721 278.233 215.721 278.305 215.721 278.368C215.389 278.799 214.689 279.634 214.241 279.939C213.622 280.352 213.209 280.568 211.997 281.017C211.037 281.376 210.992 282.175 210.938 283.181C210.894 283.917 210.84 284.932 210.463 286.261C210.059 287.68 209.987 287.913 210.059 288.066C210.041 288.138 210.023 288.218 210.005 288.317C209.718 289.592 210.005 289.969 210.535 290.517C210.876 290.876 211.351 291.379 211.827 292.618C212.042 293.175 212.186 293.552 212.267 293.768C212.204 293.956 212.24 294.298 212.491 295.267C212.643 295.896 212.733 296.219 212.769 296.39C212.733 296.569 212.778 296.893 212.931 297.728C213.146 298.904 213.092 299.245 213.011 299.802C212.922 300.395 212.805 301.212 212.922 303.277C213.056 305.783 213.37 306.205 214.007 306.869C214.33 307.21 214.734 307.623 215.255 308.773C216.152 310.748 217.345 313.406 216.879 314.125C216.834 314.169 216.753 314.295 216.385 314.295Z" fill="#1E1E1E"/>
<path d="M209.566 273.645C211.773 273.645 213.361 274.111 214.277 275.036C215.282 276.051 215.273 277.407 215.264 278.143C215.264 278.161 215.264 278.188 215.264 278.206C214.869 278.709 214.303 279.338 213.98 279.553C213.388 279.948 213.011 280.146 211.827 280.586C210.597 281.044 210.535 282.112 210.481 283.145C210.436 283.899 210.382 284.842 210.014 286.144C209.637 287.455 209.521 287.859 209.574 288.111C209.566 288.147 209.557 288.174 209.557 288.209C209.233 289.673 209.601 290.194 210.194 290.822C210.526 291.173 210.947 291.613 211.396 292.78C211.567 293.238 211.701 293.579 211.791 293.804C211.746 294.145 211.845 294.603 212.042 295.375C212.168 295.869 212.249 296.21 212.302 296.417C212.284 296.704 212.356 297.108 212.482 297.809C212.679 298.913 212.634 299.209 212.563 299.739C212.473 300.35 212.356 301.194 212.473 303.304C212.616 305.836 212.931 306.402 213.684 307.183C213.998 307.516 214.357 307.884 214.86 308.997C215.515 310.461 216.735 313.146 216.52 313.837C216.493 313.837 216.457 313.846 216.403 313.846C216.358 313.846 216.314 313.846 216.269 313.837C215.623 313.774 215.596 313.702 215.479 313.379C215.317 312.894 215.003 311.987 213.469 311.817C212.796 311.745 212.374 311.709 212.015 311.709C211.773 311.709 211.567 311.718 211.306 311.745C210.885 311.772 210.31 311.817 209.081 311.817C207.439 311.817 206.873 311.35 206.784 311.152C206.73 310.928 206.595 310.73 206.398 310.605C206.29 310.533 203.787 308.934 201.122 308.934H200.987H200.879C200.134 308.934 199.973 308.791 199.722 308.575C199.426 308.324 198.968 307.938 198.044 307.938C197.721 307.938 197.362 307.982 196.922 308.072C196.563 308.144 196.186 308.18 195.773 308.18C195.046 308.18 194.293 308.072 193.422 307.947C192.363 307.794 191.152 307.614 189.725 307.614C189.187 307.614 188.63 307.641 188.092 307.695C187.984 307.704 187.877 307.713 187.769 307.713C186.441 307.713 185.633 306.923 185.185 306.249C184.171 304.741 183.641 301.778 185.185 297.979C187.069 293.355 187.186 291.11 187.302 288.739C187.338 287.949 187.383 287.141 187.491 286.225C187.886 283.01 188.487 278.152 202.925 274.596C205.51 273.968 207.744 273.645 209.566 273.645ZM209.566 272.747C207.798 272.747 205.545 273.034 202.701 273.734C187.949 277.371 187.042 282.498 186.594 286.126C186.145 289.754 186.818 291.586 184.341 297.647C181.954 303.502 183.964 308.611 187.751 308.611C187.886 308.611 188.02 308.602 188.164 308.593C188.711 308.539 189.223 308.521 189.707 308.521C192.202 308.521 194.006 309.087 195.746 309.087C196.186 309.087 196.626 309.051 197.074 308.961C197.469 308.88 197.765 308.845 198.017 308.845C199.336 308.845 198.896 309.832 200.852 309.832C200.888 309.832 200.933 309.832 200.978 309.832C201.014 309.832 201.059 309.832 201.095 309.832C203.526 309.832 205.886 311.359 205.886 311.359C205.886 311.359 206.102 312.706 209.054 312.706C211.019 312.706 211.378 312.607 211.997 312.607C212.302 312.607 212.679 312.634 213.352 312.706C215.38 312.93 213.801 314.502 216.161 314.735C216.242 314.744 216.314 314.744 216.376 314.744C218.422 314.744 216.978 311.574 215.641 308.593C214.25 305.513 213.577 307.309 213.352 303.259C213.128 299.209 213.801 300.143 213.352 297.647C213.164 296.605 213.173 296.471 213.2 296.471C213.209 296.471 213.218 296.489 213.227 296.489C213.245 296.489 213.209 296.345 212.913 295.16C212.625 294.028 212.661 293.885 212.715 293.885C212.733 293.885 212.751 293.902 212.76 293.902C212.787 293.902 212.733 293.75 212.24 292.466C211.118 289.538 209.987 290.436 210.445 288.416C210.571 287.832 210.588 287.68 210.571 287.68C210.553 287.68 210.481 287.886 210.472 287.886C210.463 287.886 210.544 287.608 210.894 286.396C211.791 283.244 210.947 281.897 212.159 281.448C213.37 280.999 213.819 280.774 214.492 280.325C215.165 279.876 216.179 278.529 216.179 278.529C216.08 277.775 216.969 272.747 209.566 272.747Z" fill="#F3652B"/>
<path d="M441.179 282.884C442.193 282.884 442.983 281.385 442.983 279.463C442.983 277.542 442.193 276.042 441.179 276.042C440.165 276.042 439.375 277.542 439.375 279.463C439.375 281.385 440.165 282.884 441.179 282.884ZM441.179 276.5C441.834 276.5 442.534 277.694 442.534 279.472C442.534 281.25 441.834 282.444 441.179 282.444C440.524 282.444 439.824 281.25 439.824 279.472C439.824 277.694 440.524 276.5 441.179 276.5Z" fill="#1E1E1E" stroke="#F3652B" stroke-miterlimit="10" stroke-linecap="round" stroke-linejoin="round"/>
<path d="M478.311 540.67V538.093H472.021L471.06 539.674C470.226 540.922 468.153 541.47 468.467 541.613C477.575 545.663 477.216 541.191 478.311 540.67Z" fill="#1E1E1E" stroke="#F3652B" stroke-miterlimit="10" stroke-linecap="round" stroke-linejoin="round"/>
<path d="M470.298 539.566L462.536 538.3L460.669 539.198L458.327 541.164L470.477 548.986L479.693 549.479L480.285 547.962C480.285 547.962 480.339 545.214 479.953 543.75C479.567 542.287 478.275 540.679 478.275 540.679C477.647 540.931 477.512 542.152 475.475 542.296C473.923 542.403 468.745 541.425 469.625 541.164C471.904 540.464 470.298 539.566 470.298 539.566Z" fill="#1E1E1E" stroke="#F3652B" stroke-miterlimit="10" stroke-linecap="round" stroke-linejoin="round"/>
<path d="M480.276 547.962L479.684 549.479C479.684 549.479 473.34 550.404 471.518 549.775C469.31 549.012 458.83 542.412 458.83 542.412L457.098 540.823C457.098 540.823 458.255 537.177 460.202 537.491C461.997 537.779 462.948 538.353 462.948 538.353C462.948 538.353 459.664 538.982 459.108 540.94C459.036 541.191 460.265 541.864 460.265 541.864C460.265 541.864 469.149 547.935 471.994 548.491C474.829 549.039 480.276 547.962 480.276 547.962Z" fill="#1E1E1E" stroke="#F3652B" stroke-miterlimit="10" stroke-linecap="round" stroke-linejoin="round"/>
<path d="M451.409 278.305C450 273.977 446.886 282.409 446.886 282.409C446.886 282.409 444.068 269.801 447.999 268.329C446.823 268.212 445.657 267.987 444.687 267.61C442.247 270.969 441.278 276.015 441.762 278.503C442.238 280.972 441.61 280.945 441.062 282.983C440.649 284.528 442.058 289.808 442.202 292.448C442.65 300.296 449.264 298.527 449.264 298.527L450.215 302.792C450.215 302.792 451.032 304.75 455.886 305.271C464.312 306.16 467.641 304.921 467.049 302.505C466.277 299.389 465.784 296.686 465.945 294.576C465.138 295.16 463.953 292.286 462.823 292.286C457.044 292.295 452.808 282.624 451.409 278.305Z" fill="#1E1E1E" stroke="#F3652B" stroke-miterlimit="10" stroke-linecap="round" stroke-linejoin="round"/>
<path d="M469.723 268.329C468.072 265.195 464.079 263.623 459.79 263.174C458.91 263.085 458.049 263.04 457.16 263.031C458.174 263.022 459.323 263.067 460.274 263.174C460.274 263.174 446.473 262.357 443.305 261.298C441.933 260.84 443.422 266.973 444.759 267.538C444.741 267.565 444.714 267.583 444.696 267.61C445.674 267.996 446.832 268.212 448.008 268.329C444.086 269.792 446.895 282.409 446.895 282.409C446.895 282.409 450.009 273.977 451.417 278.305C452.826 282.624 453.607 288.2 451.4 289.009C453.553 292.268 457.277 295.582 463.065 295.582C464.196 295.582 465.156 295.178 465.963 294.585C466.627 294.567 466.906 293.507 467.13 292.933C467.606 291.738 467.821 290.05 468.781 288.676C469.391 287.796 470.01 286.925 470.504 286.081C473.582 280.837 473.286 275.072 469.723 268.329Z" fill="#1E1E1E" stroke="#F3652B" stroke-miterlimit="10" stroke-linecap="round" stroke-linejoin="round"/>
<path d="M482.834 305.091C487.177 306.707 495.737 313.289 502.871 322.17C504.684 331.527 496.509 336.403 490.443 341.216C484.521 337.265 477.512 334.562 475.125 332.263C452.674 310.622 475.879 302.505 482.834 305.091Z" fill="#1E1E1E"/>
<path d="M482.834 305.091C487.177 306.707 495.737 313.289 502.871 322.17C504.684 331.527 496.509 336.403 490.443 341.216C484.521 337.265 477.512 334.562 475.125 332.263C452.674 310.622 475.879 302.505 482.834 305.091Z" stroke="#F3652B" stroke-miterlimit="10" stroke-linecap="round" stroke-linejoin="round"/>
<path d="M481.129 376.227L487.957 370.139C496.455 359.812 502.62 354.766 497.227 347.331C495.531 344.987 493.099 342.976 490.452 341.207C496.518 336.394 504.693 331.518 502.88 322.161C509.296 330.144 514.555 339.986 514.555 349.728C514.555 365.946 487.814 378.849 487.814 378.849L487.177 381.786L489.142 383.15L487.697 387.91L480.967 387.775L478.221 383.519L481.129 376.227Z" fill="#1E1E1E" stroke="#F3652B" stroke-miterlimit="10" stroke-linecap="round" stroke-linejoin="round"/>
<path d="M456.559 546.265L456.227 542.816L450.188 539.629L449.614 543.894L448.609 545.564C452.45 549.479 455.33 546.848 456.559 546.265Z" fill="#1E1E1E"/>
<path d="M456.559 546.265L456.227 542.816L450.188 539.629L449.614 543.894L448.609 545.564C452.45 549.479 455.33 546.848 456.559 546.265Z" stroke="#F3652B" stroke-miterlimit="10" stroke-linecap="round" stroke-linejoin="round"/>
<path d="M449.049 544.909L449.515 544.172L436.737 543.14L434.673 545.977L449.784 554.813L458.587 553.448C458.587 553.448 458.641 550.099 458.183 548.536C457.726 546.974 456.505 545.492 456.505 545.492C455.77 546.965 453.535 548.258 449.049 544.909Z" fill="#1E1E1E"/>
<path d="M449.049 544.909L449.515 544.172L436.737 543.14L434.673 545.977L449.784 554.813L458.587 553.448C458.587 553.448 458.641 550.099 458.183 548.536C457.726 546.974 456.505 545.492 456.505 545.492C455.77 546.965 453.535 548.258 449.049 544.909Z" stroke="#F3652B" stroke-miterlimit="10" stroke-linecap="round" stroke-linejoin="round"/>
<path d="M485.113 386.491C486.154 402.008 482.178 444.984 484.799 468.546C489.833 513.839 479.944 538.093 479.944 538.093H468.934C468.934 538.093 468.862 521.373 468.862 510.768C468.862 493.231 464.519 443.107 461.818 421.224C461.306 430.644 461.109 455.894 463.047 473.332C468.081 518.625 458.192 542.816 458.192 542.816H447.182C447.182 542.816 447.119 526.159 447.119 515.545C447.119 502.768 438.657 441.464 433.112 389.293C450.098 392.31 468.189 386.509 485.113 386.491Z" fill="#1E1E1E"/>
<path d="M485.113 386.491C486.154 402.008 482.178 444.984 484.799 468.546C489.833 513.839 479.944 538.093 479.944 538.093H468.934C468.934 538.093 468.862 521.373 468.862 510.768C468.862 493.231 464.519 443.107 461.818 421.224C461.306 430.644 461.109 455.894 463.047 473.332C468.081 518.625 458.192 542.816 458.192 542.816H447.182C447.182 542.816 447.119 526.159 447.119 515.545C447.119 502.768 438.657 441.464 433.112 389.293C450.098 392.31 468.189 386.509 485.113 386.491Z" stroke="#F3652B" stroke-miterlimit="10" stroke-linecap="round" stroke-linejoin="round"/>
<path d="M430.491 311.529C438.02 304.283 457.044 300.538 468.395 301.831C479.747 303.124 486.701 305.127 489.932 311.862C492.579 317.384 492.57 324.981 488.011 342.069C483.444 359.148 483.955 363 485.544 374.494C485.687 375.518 487.41 390.612 487.536 392.462C470.612 392.48 448.797 394.42 431.802 391.403C427.602 351.866 426.382 315.489 430.491 311.529Z" fill="#1E1E1E"/>
<path d="M430.491 311.529C438.02 304.283 457.044 300.538 468.395 301.831C479.747 303.124 486.701 305.127 489.932 311.862C492.579 317.384 492.57 324.981 488.011 342.069C483.444 359.148 483.955 363 485.544 374.494C485.687 375.518 487.41 390.612 487.536 392.462C470.612 392.48 448.797 394.42 431.802 391.403C427.602 351.866 426.382 315.489 430.491 311.529Z" stroke="#F3652B" stroke-miterlimit="10" stroke-linecap="round" stroke-linejoin="round"/>
<path d="M446.76 279.382C446.76 279.382 445.818 284.016 445.648 285.022C445.468 286.018 445.405 285.812 444.876 286.593C444.355 287.374 443.117 286.961 442.884 287.015C442.651 287.078 441.717 287.159 441.439 287.428C441.179 287.689 440.784 287.653 440.676 289.628C440.667 289.853 441.17 289.538 441.322 289.826C441.475 290.122 441.96 290.454 441.96 290.454C441.96 290.454 442.022 290.876 442.471 291.101C442.731 291.227 441.816 292.708 441.646 293.355C441.466 294.001 441.206 294.648 441.206 294.648C441.206 294.648 441.412 295.097 441.412 295.573C441.412 296.049 441.592 296.578 441.592 296.578C441.592 296.578 441.179 296.049 441.708 297.458C442.238 298.868 442.004 298.401 442.238 298.868C442.471 299.335 442.588 299.335 442.767 299.631C442.947 299.928 443.189 299.982 443.297 300.161C443.709 300.835 444.876 300.628 444.876 300.628C444.876 300.628 446.913 299.928 447.039 299.748C447.164 299.569 448.806 298.635 448.986 298.284C449.165 297.934 449.892 297.054 449.47 295.995C449.049 294.935 448.986 295.231 448.806 294.172C448.627 293.112 448.573 292.645 448.393 292.349C448.214 292.053 448.097 291.523 447.927 291.236C447.756 290.948 447.146 289.826 447.039 289.062C446.931 288.299 447.03 288.066 447.039 287.069C447.047 286.072 446.913 286.369 447.039 285.363C447.164 284.366 446.85 284.6 447.039 283.423C447.227 282.247 446.958 282.13 447.299 281.358C447.64 280.586 447.523 278.592 447.523 278.592L446.76 279.382Z" fill="#1E1E1E" stroke="#F3652B" stroke-miterlimit="10" stroke-linecap="round" stroke-linejoin="round"/>
<path d="M458.596 553.457L457.968 555.074C457.968 555.074 451.22 556.061 449.282 555.388C446.94 554.58 435.786 547.558 435.786 547.558L433.946 545.861C433.946 545.861 435.176 541.981 437.249 542.314C439.16 542.619 439.779 543.427 439.779 543.427C439.779 543.427 435.938 545.052 436.082 545.977C436.127 546.247 437.311 546.956 437.311 546.956C437.311 546.956 446.76 553.412 449.784 554.005C452.808 554.598 458.596 553.457 458.596 553.457Z" fill="#1E1E1E" stroke="#F3652B" stroke-miterlimit="10" stroke-linecap="round" stroke-linejoin="round"/>
<path d="M414.438 324.137C421.446 316.432 428.984 311.431 432.905 309.976C446.303 305.001 449.964 326.804 444.786 335.9C443.135 338.8 438.586 341.072 433.776 343.586C433.309 343.829 432.834 344.08 432.358 344.332C429.702 336.044 422.676 327.899 414.438 324.137Z" fill="#1E1E1E"/>
<path d="M414.438 324.137C421.446 316.432 428.984 311.431 432.905 309.976C446.303 305.001 449.964 326.804 444.786 335.9C443.135 338.8 438.586 341.072 433.776 343.586C433.309 343.829 432.834 344.08 432.358 344.332C429.702 336.044 422.676 327.899 414.438 324.137Z" stroke="#F3652B" stroke-miterlimit="10" stroke-linecap="round" stroke-linejoin="round"/>
<path d="M414.438 324.137C422.676 327.899 429.702 336.035 432.367 344.332C428.131 346.586 423.896 349.1 421.455 352.467C416.062 359.902 421.518 369.789 430.016 380.115L429.944 380.196L435.023 384.722L437.93 392.013L435.185 396.27L428.455 396.404L427.001 391.645L428.966 390.28L428.329 387.353C428.329 387.353 397.981 368.514 398.654 358.394C399.587 344.431 406.694 332.64 414.438 324.137Z" fill="#1E1E1E" stroke="#F3652B" stroke-miterlimit="10" stroke-linecap="round" stroke-linejoin="round"/>
<path d="M439.99 277.206L439.924 277.65L448.567 278.949L448.633 278.505L439.99 277.206Z" fill="#1E1E1E" stroke="#F3652B" stroke-miterlimit="10" stroke-linecap="round" stroke-linejoin="round"/>
<path d="M478.221 421.224C478.221 421.224 466.735 420.721 461.818 421.224C456.9 421.727 452.584 421.224 452.584 421.224" fill="#1E1E1E"/>
<path d="M478.221 421.224C478.221 421.224 466.735 420.721 461.818 421.224C456.9 421.727 452.584 421.224 452.584 421.224" stroke="#F3652B" stroke-miterlimit="10" stroke-linecap="round" stroke-linejoin="round"/>
<line x1="42.1154" y1="551" x2="42.1154" y2="560.002" stroke="#F3652B" stroke-width="0.6"/>
<line x1="42.1154" y1="566.754" x2="42.1154" y2="575.756" stroke="#F3652B" stroke-width="0.6"/>
<line x1="54.7563" y1="563.115" x2="45.7539" y2="563.115" stroke="#F3652B" stroke-width="0.6"/>
<line x1="39.0024" y1="563.115" x2="30" y2="563.115" stroke="#F3652B" stroke-width="0.6"/>
<line x1="500.936" y1="192" x2="500.936" y2="197.818" stroke="#F3652B" stroke-width="0.6"/>
<line x1="500.936" y1="202.182" x2="500.936" y2="208" stroke="#F3652B" stroke-width="0.6"/>
<line x1="509" y1="199.936" x2="503.182" y2="199.936" stroke="#F3652B" stroke-width="0.6"/>
<line x1="498.818" y1="199.936" x2="493" y2="199.936" stroke="#F3652B" stroke-width="0.6"/>
</g>
<rect x="360.665" y="555.541" width="27.6926" height="27.6926" rx="0.7" stroke="#1E1E1E" stroke-width="0.6"/>
<rect x="360.3" y="521.3" width="19.3745" height="19.3745" rx="9.68725" stroke="#646464" stroke-width="0.6"/>
<rect x="46.3" y="175.3" width="11.4" height="11.4" stroke="#AAAAAA" stroke-width="0.6"/>
<rect x="595" y="372" width="14" height="14" fill="#F3652B"/>
<rect x="144" y="49" width="8" height="8" fill="#F3652B"/>
<rect x="201.519" y="488.346" width="13.5463" height="13.5463" rx="6.77314" stroke="#F3652B" stroke-width="0.6"/>
<rect x="531.3" y="9.3" width="81.4" height="82.4" rx="40.7" stroke="#AAAAAA" stroke-width="0.6"/>
<line x1="640.14" y1="222" x2="640.14" y2="231.784" stroke="#AAAAAA" stroke-width="0.6"/>
<line x1="640.14" y1="239.122" x2="640.14" y2="248.905" stroke="#AAAAAA" stroke-width="0.6"/>
<line x1="653.903" y1="235.141" x2="644.12" y2="235.141" stroke="#AAAAAA" stroke-width="0.6"/>
<line x1="636.784" y1="235.141" x2="627" y2="235.141" stroke="#AAAAAA" stroke-width="0.6"/>
<rect x="286.397" y="124.08" width="17.0828" height="17.0828" stroke="#F3652B" stroke-width="0.6"/>
<rect x="86" y="36" width="16" height="16" rx="8" fill="#646464"/>
<line x1="224.187" y1="1.31134e-08" x2="224.187" y2="16.9121" stroke="#1E1E1E" stroke-width="0.6"/>
<line x1="224.187" y1="29.5962" x2="224.187" y2="46.5083" stroke="#1E1E1E" stroke-width="0.6"/>
<line x1="248.199" y1="22.4968" x2="231.287" y2="22.4968" stroke="#1E1E1E" stroke-width="0.6"/>
<line x1="218.605" y1="22.4968" x2="201.693" y2="22.4968" stroke="#1E1E1E" stroke-width="0.6"/>
<rect x="77.7392" y="184.202" width="12.4813" height="12.4813" rx="6.24067" stroke="#1E1E1E" stroke-width="0.6"/>
<defs>
<linearGradient id="paint0_linear" x1="135.131" y1="505.473" x2="126.204" y2="580.023" gradientUnits="userSpaceOnUse">
<stop/>
<stop offset="0.9977" stop-color="#1C1D1D"/>
</linearGradient>
<linearGradient id="paint1_linear" x1="522.758" y1="500.645" x2="531.73" y2="575.573" gradientUnits="userSpaceOnUse">
<stop/>
<stop offset="0.9977" stop-color="#1C1D1D"/>
</linearGradient>
<clipPath id="clip0">
<rect width="609" height="580" fill="white" transform="translate(0 14)"/>
</clipPath>
</defs>
</svg>
