<svg width="16" height="16" viewBox="0 0 16 16" fill="none" xmlns="http://www.w3.org/2000/svg">
<path fill-rule="evenodd" clip-rule="evenodd" d="M6.75964 8.31134L3.29283 11.7781C2.90231 12.1687 2.90231 12.8018 3.29283 13.1924C3.68336 13.5829 4.31652 13.5829 4.70705 13.1924L7.99993 9.89947L11.2928 13.1924C11.6833 13.5829 12.3165 13.5829 12.707 13.1924C13.0976 12.8018 13.0976 12.1687 12.707 11.7781L9.24023 8.31134C9.24336 8.26558 9.24336 8.21964 9.24023 8.17388L12.707 4.70708C13.0976 4.31655 13.0976 3.68339 12.707 3.29286C12.3165 2.90234 11.6833 2.90234 11.2928 3.29286L7.99993 6.58575L4.70705 3.29286C4.31652 2.90234 3.68336 2.90234 3.29283 3.29286C2.90231 3.68339 2.90231 4.31655 3.29283 4.70708L6.75964 8.17388C6.7565 8.21964 6.7565 8.26558 6.75964 8.31134Z" fill="white"/>
</svg>
