<svg width="192" height="285" viewBox="0 0 192 285" fill="none" xmlns="http://www.w3.org/2000/svg">
<path d="M191.275 285H5.40025V246.767L93.1302 149.84C105.168 136.193 114.08 124.288 119.858 114.115C125.628 103.951 128.521 94.2946 128.521 85.1551C128.521 72.6747 125.476 62.852 119.392 55.712C113.309 48.5636 104.614 44.9978 93.3151 44.9978C81.1484 44.9978 71.5533 49.3385 64.5378 58.0281C57.5223 66.7177 54.0106 78.1401 54.0106 92.3034H0C0 75.1824 3.93769 59.5444 11.8291 45.3811C19.7125 31.226 30.8586 20.1203 45.2593 12.0722C59.668 4.02406 75.9893 0 94.2473 0C122.189 0 143.886 6.94837 159.34 20.8535C174.801 34.7585 182.524 54.3873 182.524 79.748C182.524 93.6531 179.044 107.816 172.093 122.23C165.142 136.651 153.216 153.447 136.332 172.626L74.6874 240.011H191.275V285Z" fill="#646464"/>
</svg>
