<svg width="20" height="20" viewBox="0 0 20 20" fill="none" xmlns="http://www.w3.org/2000/svg">
<path fill-rule="evenodd" clip-rule="evenodd" d="M9.99878 2.85106C9.42032 2.85106 8.94848 3.32267 8.94848 3.90394V4.67025C8.94848 5.2527 9.42121 5.72487 9.9975 5.72313L9.99878 5.72313C10.5772 5.72313 11.0491 5.25152 11.0491 4.67025V3.90394C11.0491 3.32267 10.5772 2.85106 9.99878 2.85106ZM8.09741 3.90394C8.09741 2.85404 8.9489 2 9.99878 2C11.0487 2 11.9002 2.85404 11.9002 3.90394V4.67025C11.9002 5.71994 11.049 6.57384 9.99943 6.57419C8.94766 6.57702 8.09741 5.71876 8.09741 4.67025V3.90394ZM9.99943 6.57419C9.99921 6.57419 9.999 6.57419 9.99878 6.57419V6.14866L10.0001 6.57419C9.99986 6.57419 9.99964 6.57419 9.99943 6.57419Z" fill="#646464"/>
<path fill-rule="evenodd" clip-rule="evenodd" d="M7.29124 7.84202C7.7592 8.39152 8.04346 9.10503 8.04346 9.88416V10.6505C8.04346 11.0324 7.9744 11.3984 7.84929 11.737C8.68842 11.8512 9.43833 12.2486 9.99937 12.8281C10.5609 12.2489 11.3096 11.8512 12.1486 11.7371C12.0235 11.3984 11.9544 11.0324 11.9544 10.6505V9.88416C11.9544 9.10533 12.2372 8.39145 12.706 7.84152C12.6226 7.82799 12.5374 7.82103 12.4513 7.82103H7.54906C7.46195 7.82103 7.3758 7.82815 7.29124 7.84202ZM6.28488 7.32128C6.66152 7.0955 7.09598 6.96997 7.54906 6.96997H12.4513C12.9041 6.96997 13.3392 7.09538 13.7143 7.32205L14.2609 7.65232L13.7456 8.0296C13.1744 8.44783 12.8055 9.12318 12.8055 9.88416V10.6505C12.8055 11.1092 12.942 11.5371 13.1752 11.8979L13.5995 12.5544H12.6481C11.702 12.5544 10.8632 13.0202 10.3437 13.7384L9.99824 14.2161L9.65367 13.7377C9.13711 13.0206 8.29638 12.5544 7.34982 12.5544H6.39842L6.82271 11.8979C7.05586 11.5371 7.1924 11.1092 7.1924 10.6505V9.88416C7.1924 9.12386 6.82158 8.44795 6.25169 8.02916L5.73608 7.65027L6.28488 7.32128Z" fill="#646464"/>
<path fill-rule="evenodd" clip-rule="evenodd" d="M4.89991 8.83117C4.32145 8.83117 3.8496 9.30277 3.8496 9.88404V10.6504C3.8496 11.2316 4.32145 11.7032 4.89991 11.7032C5.47837 11.7032 5.95022 11.2316 5.95022 10.6504V9.88404C5.95022 9.30277 5.47837 8.83117 4.89991 8.83117ZM2.99854 9.88404C2.99854 8.83414 3.85002 7.9801 4.89991 7.9801C5.94979 7.9801 6.80128 8.83414 6.80128 9.88404V10.6504C6.80128 11.7003 5.94979 12.5543 4.89991 12.5543C3.85002 12.5543 2.99854 11.7003 2.99854 10.6504V9.88404Z" fill="#646464"/>
<path fill-rule="evenodd" clip-rule="evenodd" d="M2.44989 13.8013C1.56889 13.8013 0.851064 14.5193 0.851064 15.4036V17.4544H8.94893L8.95097 15.4036C8.95074 14.5195 8.23301 13.8013 7.35214 13.8013H2.44989ZM0 15.4036C0 14.0506 1.09746 12.9502 2.44989 12.9502H7.35214C8.70457 12.9502 9.80203 14.0506 9.80203 15.4036L9.79915 18.3055H0V15.4036Z" fill="#646464"/>
<path fill-rule="evenodd" clip-rule="evenodd" d="M12.6503 13.8013C11.7693 13.8013 11.0515 14.5193 11.0515 15.4036V17.4544H19.1489V15.4036C19.1489 14.5189 18.4308 13.8013 17.5526 13.8013H12.6503ZM10.2004 15.4036C10.2004 14.0506 11.2979 12.9502 12.6503 12.9502H17.5526C18.9029 12.9502 20 14.051 20 15.4036V18.3055H10.2004V15.4036Z" fill="#646464"/>
<path fill-rule="evenodd" clip-rule="evenodd" d="M15.0974 8.83117C14.519 8.83117 14.0471 9.30277 14.0471 9.88404V10.6504C14.0471 11.2316 14.519 11.7032 15.0974 11.7032C15.6759 11.7032 16.1477 11.2316 16.1477 10.6504V9.88404C16.1477 9.30277 15.6759 8.83117 15.0974 8.83117ZM13.196 9.88404C13.196 8.83414 14.0475 7.9801 15.0974 7.9801C16.1473 7.9801 16.9988 8.83414 16.9988 9.88404V10.6504C16.9988 11.7003 16.1473 12.5543 15.0974 12.5543C14.0475 12.5543 13.196 11.7003 13.196 10.6504V9.88404Z" fill="#646464"/>
</svg>
