<svg width="320" height="574" viewBox="0 0 320 574" fill="none" xmlns="http://www.w3.org/2000/svg">
<g opacity="0.5">
<path d="M-141.432 239.77C-153.233 268.746 -94.6423 297.044 -80.5242 324.24C-62.847 358.293 -48.4389 393.507 -10.3877 393.037C27.6635 392.567 28.8394 435.616 77.0729 420.286C145.799 398.443 331.651 463.828 359.204 340.232C381.201 241.561 258.066 192.559 195.223 206.42C104.029 226.534 72.3681 153.819 6.84323 147.612C-69.9416 140.339 -129.631 210.793 -141.432 239.77Z" fill="black"/>
<path d="M-141.432 239.77C-153.233 268.746 -94.6423 297.044 -80.5242 324.24C-62.847 358.293 -48.4389 393.507 -10.3877 393.037C27.6635 392.567 28.8394 435.616 77.0729 420.286C145.799 398.443 331.651 463.828 359.204 340.232C381.201 241.561 258.066 192.559 195.223 206.42C104.029 226.534 72.3681 153.819 6.84323 147.612C-69.9416 140.339 -129.631 210.793 -141.432 239.77Z" fill="url(#paint0_linear)"/>
</g>
<defs>
<linearGradient id="paint0_linear" x1="96.087" y1="264.98" x2="94.5379" y2="76.0683" gradientUnits="userSpaceOnUse">
<stop stop-color="#1E1E1E"/>
<stop offset="1"/>
</linearGradient>
</defs>
</svg>
