<svg width="499" height="199" viewBox="0 0 499 199" fill="none" xmlns="http://www.w3.org/2000/svg">
<path d="M200.948 142.316C198.882 142.316 197.206 140.639 197.206 138.571C197.206 136.504 198.882 134.827 200.948 134.827C203.015 134.827 204.691 136.504 204.691 138.571C204.691 140.639 203.008 142.316 200.948 142.316ZM200.948 135.787C199.413 135.787 198.165 137.035 198.165 138.571C198.165 140.108 199.413 141.356 200.948 141.356C202.484 141.356 203.731 140.108 203.731 138.571C203.731 137.035 202.477 135.787 200.948 135.787Z" fill="#F3652B"/>
<path d="M123.714 38.6435C121.648 38.6435 119.971 36.9664 119.971 34.8989C119.971 32.8313 121.648 31.1542 123.714 31.1542C125.781 31.1542 127.457 32.8313 127.457 34.8989C127.457 36.9664 125.781 38.6435 123.714 38.6435ZM123.714 32.1144C122.179 32.1144 120.931 33.3626 120.931 34.8989C120.931 36.4352 122.179 37.6834 123.714 37.6834C125.25 37.6834 126.497 36.4352 126.497 34.8989C126.497 33.3626 125.25 32.1144 123.714 32.1144Z" fill="#F3652B"/>
<path d="M494.62 129.507C492.553 129.507 490.877 127.83 490.877 125.763C490.877 123.695 492.553 122.018 494.62 122.018C496.686 122.018 498.362 123.695 498.362 125.763C498.362 127.83 496.686 129.507 494.62 129.507ZM494.62 122.978C493.084 122.978 491.837 124.226 491.837 125.763C491.837 127.299 493.084 128.547 494.62 128.547C496.155 128.547 497.403 127.299 497.403 125.763C497.403 124.226 496.155 122.978 494.62 122.978Z" fill="#F3652B"/>
<path d="M3.74271 112.391C1.67622 112.391 0 110.714 0 108.646C0 106.579 1.67622 104.901 3.74271 104.901C5.8092 104.901 7.48542 106.579 7.48542 108.646C7.48542 110.714 5.8028 112.391 3.74271 112.391ZM3.74271 105.862C2.20724 105.862 0.959668 107.11 0.959668 108.646C0.959668 110.182 2.20724 111.431 3.74271 111.431C5.27818 111.431 6.52575 110.182 6.52575 108.646C6.52575 107.11 5.27178 105.862 3.74271 105.862Z" fill="#F3652B"/>
<path d="M137.118 196.348H92.5314C92.2691 196.348 92.0516 196.13 92.0516 195.868V155.445H18.042C17.7924 155.445 17.5877 155.259 17.5621 155.009L14.9134 127.741C14.9006 127.638 14.9262 127.529 14.9838 127.44L26.3591 109.126H6.99937C6.73706 109.126 6.51953 108.909 6.51953 108.646C6.51953 108.384 6.73706 108.166 6.99937 108.166H27.2228C27.3955 108.166 27.5555 108.262 27.645 108.416C27.7282 108.569 27.7218 108.755 27.6323 108.902L15.8859 127.811L18.4706 154.484H92.525C92.7874 154.484 93.0049 154.702 93.0049 154.965V195.388H136.631V154.965C136.631 154.702 136.849 154.484 137.111 154.484H156.215V138.571C156.215 138.309 156.433 138.091 156.695 138.091H197.679C197.941 138.091 198.159 138.309 198.159 138.571C198.159 138.834 197.941 139.051 197.679 139.051H157.175V154.965C157.175 155.227 156.957 155.445 156.695 155.445H137.591V195.868C137.597 196.137 137.386 196.348 137.118 196.348ZM156.701 132.369C156.439 132.369 156.221 132.151 156.221 131.889V121.026H137.118C136.855 121.026 136.638 120.808 136.638 120.546V38.1634C136.638 37.901 136.855 37.6834 137.118 37.6834C137.38 37.6834 137.597 37.901 137.597 38.1634V120.066H156.701C156.964 120.066 157.181 120.283 157.181 120.546V131.889C157.181 132.157 156.964 132.369 156.701 132.369ZM92.5314 121.026H57.8682C57.6955 121.026 57.5355 120.936 57.4524 120.783C57.3692 120.635 57.3692 120.45 57.4524 120.303L89.3389 65.4962L92.122 60.9834C92.2371 60.7978 92.4547 60.7146 92.6594 60.7722C92.8641 60.8298 93.0049 61.0218 93.0049 61.2331V120.539C93.0113 120.815 92.7938 121.026 92.5314 121.026ZM58.6999 120.066H92.0516V62.9293L90.1579 65.9891L58.6999 120.066ZM29.8459 104.914C29.7627 104.914 29.6731 104.889 29.5964 104.844C29.3724 104.703 29.3021 104.409 29.4428 104.185L92.0516 3.38618V3.13014C92.0516 2.86769 92.2691 2.65005 92.5314 2.65005H137.118C137.38 2.65005 137.597 2.86769 137.597 3.13014V30.098C137.597 30.3605 137.38 30.5781 137.118 30.5781C136.855 30.5781 136.638 30.3605 136.638 30.098V3.61022H92.9985C92.9857 3.66783 92.9665 3.72544 92.9345 3.78305L30.2489 104.69C30.1594 104.831 30.0058 104.914 29.8459 104.914Z" fill="#F3652B"/>
<path d="M243.097 198.998C221.613 198.998 204.749 191.771 192.977 177.509C185.504 168.458 180.335 156.898 177.616 143.142C177.564 142.879 177.731 142.63 177.993 142.578C178.249 142.527 178.505 142.694 178.556 142.956C181.243 156.552 186.342 167.972 193.719 176.895C205.299 190.92 221.914 198.031 243.097 198.031C264.101 198.031 280.607 190.964 292.142 177.023C303.703 163.056 309.564 142.892 309.564 117.096V87.0423C309.564 86.7799 309.781 86.5623 310.043 86.5623C310.306 86.5623 310.523 86.7799 310.523 87.0423V117.096C310.523 143.122 304.586 163.491 292.885 177.637C281.157 191.816 264.402 198.998 243.097 198.998ZM243.097 164.579C235.093 164.579 229.163 161.135 225.478 154.331C221.837 147.629 219.995 136.933 219.995 122.53V73.2864C220.263 60.3689 222.17 50.588 225.676 44.1997C229.233 37.709 235.004 34.4188 242.835 34.4188C250.838 34.4188 256.769 37.9586 260.461 44.9358C264.095 51.817 265.944 62.334 265.944 76.2053V123.862C265.854 137.739 263.967 148.077 260.326 154.606C256.628 161.225 250.832 164.579 243.097 164.579ZM242.835 35.379C235.388 35.379 229.898 38.5027 226.52 44.6606C223.091 50.9145 221.217 60.5481 220.954 73.2992V122.537C220.954 136.773 222.758 147.322 226.322 153.876C229.828 160.342 235.477 163.619 243.103 163.619C250.467 163.619 255.976 160.431 259.488 154.139C263.045 147.751 264.894 137.566 264.984 123.855V76.1989C264.984 62.4877 263.18 52.1179 259.616 45.3775C256.097 38.7459 250.454 35.379 242.835 35.379ZM176.598 133.783C176.355 133.783 176.151 133.604 176.125 133.354C175.562 128.24 175.274 122.773 175.274 117.102V81.8895C175.274 63.4862 178.243 47.8419 184.09 35.3726H126.977C126.715 35.3726 126.497 35.1549 126.497 34.8925C126.497 34.63 126.715 34.4124 126.977 34.4124H184.852C185.018 34.4124 185.171 34.4956 185.255 34.6364C185.344 34.7773 185.351 34.9501 185.28 35.1037C179.273 47.5475 176.227 63.2942 176.227 81.8895V117.102C176.227 122.741 176.515 128.169 177.072 133.252C177.104 133.514 176.912 133.751 176.65 133.783C176.637 133.783 176.618 133.783 176.598 133.783ZM309.954 76.9414C309.698 76.9414 309.487 76.7366 309.474 76.4805C308.694 53.4301 302.84 35.1357 292.078 22.0966C280.498 8.07181 263.928 0.960167 242.835 0.960167C221.741 0.960167 205.19 8.027 193.655 21.9686C193.489 22.1735 193.181 22.1991 192.977 22.0326C192.772 21.8662 192.746 21.559 192.913 21.3541C204.64 7.18205 221.441 0 242.835 0C264.229 0 281.049 7.22686 292.821 21.4885C303.716 34.6876 309.647 53.1805 310.434 76.4485C310.44 76.7109 310.235 76.935 309.973 76.9414C309.96 76.9414 309.96 76.9414 309.954 76.9414Z" fill="#F3652B"/>
<path d="M450.955 196.348H406.369C406.106 196.348 405.889 196.13 405.889 195.868V155.445H331.879C331.63 155.445 331.425 155.259 331.399 155.009L328.751 127.741C328.738 127.638 328.763 127.529 328.821 127.44L356.037 83.6242H292.603C292.341 83.6242 292.123 83.4065 292.123 83.1441C292.123 82.8816 292.341 82.664 292.603 82.664H356.901C357.074 82.664 357.234 82.76 357.323 82.9136C357.406 83.0673 357.4 83.2529 357.31 83.4001L329.723 127.811L332.314 154.484H406.369C406.631 154.484 406.848 154.702 406.848 154.965V195.388H450.475V154.965C450.475 154.702 450.693 154.484 450.955 154.484H470.059V133.278C470.059 133.015 470.276 132.798 470.538 132.798C470.801 132.798 471.018 133.015 471.018 133.278V154.965C471.018 155.227 470.801 155.445 470.538 155.445H451.435V195.868C451.435 196.137 451.224 196.348 450.955 196.348ZM491.357 126.243H470.538C470.276 126.243 470.059 126.025 470.059 125.763V121.026H450.955C450.693 121.026 450.475 120.808 450.475 120.546V3.61022H406.836C406.823 3.66783 406.804 3.72544 406.772 3.78305L365.237 70.6427C365.097 70.8667 364.802 70.9371 364.578 70.7963C364.354 70.6555 364.284 70.361 364.425 70.137L405.889 3.38618V3.13014C405.889 2.86769 406.106 2.65005 406.369 2.65005H450.955C451.217 2.65005 451.435 2.86769 451.435 3.13014V120.072H470.538C470.801 120.072 471.018 120.29 471.018 120.552V125.289H491.357C491.619 125.289 491.837 125.507 491.837 125.769C491.837 126.032 491.626 126.243 491.357 126.243ZM406.369 121.026H371.705C371.533 121.026 371.373 120.936 371.29 120.783C371.206 120.635 371.206 120.45 371.29 120.303L403.176 65.4962L405.959 60.9834C406.074 60.7978 406.292 60.7146 406.497 60.7722C406.701 60.8298 406.842 61.0218 406.842 61.2331V120.539C406.848 120.815 406.631 121.026 406.369 121.026ZM372.537 120.066H405.889V62.9293L403.995 65.9891L372.537 120.066Z" fill="#F3652B"/>
<path d="M289.34 86.9719C287.274 86.9719 285.597 85.2948 285.597 83.2273C285.597 81.1597 287.274 79.4826 289.34 79.4826C291.407 79.4826 293.083 81.1597 293.083 83.2273C293.083 85.2948 291.407 86.9719 289.34 86.9719ZM289.34 80.4428C287.805 80.4428 286.557 81.691 286.557 83.2273C286.557 84.7636 287.805 86.0118 289.34 86.0118C290.876 86.0118 292.123 84.7636 292.123 83.2273C292.123 81.691 290.876 80.4428 289.34 80.4428Z" fill="#F3652B"/>
</svg>
