<svg width="32" height="32" viewBox="0 0 32 32" fill="none" xmlns="http://www.w3.org/2000/svg">
<path fill-rule="evenodd" clip-rule="evenodd" d="M20.0422 23.0422H17.0767V18.4C17.0767 17.2933 17.0567 15.87 15.5344 15.87C13.9922 15.87 13.7567 17.0767 13.7567 18.3211V23.0422H10.7933V13.4978H13.6356V14.8022H13.6767C14.0733 14.0522 15.04 13.2611 16.4833 13.2611C19.4878 13.2611 20.0422 15.2367 20.0422 17.8078V23.0422ZM7.44889 12.1944C6.49556 12.1944 5.72667 11.4233 5.72667 10.4733C5.72667 9.52444 6.49556 8.75333 7.44889 8.75333C8.39667 8.75333 9.16778 9.52444 9.16778 10.4733C9.16778 11.4233 8.39667 12.1944 7.44889 12.1944ZM5.96222 23.0422H8.93222V13.4978H5.96222V23.0422ZM21.5189 6H4.47444C3.66111 6 3 6.64556 3 7.44222V24.5567C3 25.3533 3.66111 26 4.47444 26H21.5189C22.3344 26 22.9989 25.3533 22.9989 24.5567V7.44222C22.9989 6.64556 22.3344 6 21.5189 6Z" fill="white"/>
<path fill-rule="evenodd" clip-rule="evenodd" d="M26.6544 21.1722H26.2378V20.3267H26.7655C27.0389 20.3267 27.3511 20.3722 27.3511 20.7289C27.3511 21.1389 27.0367 21.1722 26.6544 21.1722ZM27.0689 21.4222C27.49 21.3711 27.71 21.1389 27.71 20.7489C27.71 20.2733 27.4222 20.0433 26.83 20.0433H25.8789V22.5433H26.2378V21.4544H26.68L26.6889 21.4678L27.3744 22.5433H27.7578L27.0211 21.4289L27.0689 21.4222Z" fill="white"/>
<path fill-rule="evenodd" clip-rule="evenodd" d="M26.6945 23.3511C25.5622 23.3511 24.6756 22.4578 24.6756 21.2956C24.6756 20.1367 25.5622 19.2411 26.6945 19.2411C27.8278 19.2411 28.7156 20.1367 28.7156 21.2956C28.7156 22.4578 27.8278 23.3511 26.6945 23.3511ZM26.6945 18.9311C25.3667 18.9311 24.3256 19.97 24.3256 21.2956C24.3256 22.6233 25.3667 23.66 26.6945 23.66C28.0233 23.66 29.0611 22.6233 29.0611 21.2956C29.0611 19.97 28.0233 18.9311 26.6945 18.9311Z" fill="white"/>
</svg>
