<svg width="200" height="26" viewBox="0 0 200 26" fill="none" xmlns="http://www.w3.org/2000/svg">
<path d="M82.6974 22.1124H60.7573L64.9766 0.00744629H86.9167L82.6974 22.1124ZM65.776 17.936H79.2628L81.8906 4.18382H68.4038L65.776 17.936Z" fill="#F3652B"/>
<path d="M56.5379 22.1124H52.3186L56.5379 0.00744629H60.7571L56.5379 22.1124Z" fill="#F3652B"/>
<path d="M0.614382 18.8683L0 22.1124H3.21255L20.5041 7.51002L17.7209 22.1124H21.9401L26.1594 0H22.9394L0.614382 18.8683Z" fill="#F3652B"/>
<path d="M93.7712 0.00744629H91.136L86.9167 22.1124H91.136L94.0303 6.95813L106.222 22.1124H108.857L109.375 19.4052L93.7712 0.00744629ZM108.857 0.00744629L106.984 9.81447L110.389 14.0654L113.076 0.00744629C113.076 0.00744629 108.857 0.00744629 108.857 0.00744629Z" fill="#F3652B"/>
<path d="M52.3188 0.00744629H30.3787L29.5792 4.18382H44.1542L26.7812 18.8533L26.1594 22.1124H48.0995L48.899 17.936H34.324L51.697 3.25905L52.3188 0.00744629Z" fill="#F3652B"/>
<path d="M120.071 20.3899C120.071 20.9045 120.352 21.1655 120.907 21.1655L122.114 21.076L122.055 21.7919C121.529 21.9113 121.048 21.9784 120.597 21.9784C120.145 21.9784 119.79 21.8591 119.523 21.6129C119.257 21.3668 119.124 21.0462 119.124 20.636C119.124 20.2333 119.212 19.6814 119.383 18.9878L120.308 15.0128H119.279L119.479 14.2073H120.508L121.07 11.873H121.981L121.403 14.2073H123.654L123.454 15.0128H121.218L120.278 19.04C120.138 19.5993 120.071 20.0543 120.071 20.3899Z" fill="white"/>
<path d="M124.409 19.6733C124.409 20.1283 124.549 20.4937 124.823 20.7547C125.104 21.0158 125.438 21.15 125.845 21.15C126.622 21.15 127.362 21.0605 128.065 20.8741L128.428 20.7696L128.369 21.5154C127.488 21.8212 126.652 21.9704 125.859 21.9704C124.275 21.9704 123.483 21.2171 123.483 19.7106C123.483 18.3309 123.809 17.0631 124.468 15.9146C124.779 15.3553 125.201 14.9078 125.741 14.5647C126.274 14.2291 126.881 14.0576 127.555 14.0576C128.976 14.0576 129.686 14.6393 129.686 15.7953C129.686 16.6902 129.346 17.3167 128.658 17.6747C127.969 18.0326 126.903 18.2265 125.438 18.2265H124.586C124.468 18.7337 124.409 19.2184 124.409 19.6733ZM125.623 17.4808C126.733 17.4808 127.54 17.3614 128.036 17.1228C128.532 16.8841 128.783 16.4441 128.783 15.8027C128.783 15.1614 128.361 14.8407 127.51 14.8407C126.193 14.8407 125.26 15.7207 124.727 17.4808H125.623Z" fill="white"/>
<path d="M135.971 14.2293L136.23 14.289L136 15.0198C135.379 14.908 134.838 14.8483 134.394 14.8483C133.728 14.8483 133.165 15.0869 132.699 15.5642C131.811 16.4592 131.367 17.7941 131.367 19.5765C131.367 20.106 131.5 20.5013 131.759 20.7623C132.025 21.0234 132.447 21.1576 133.032 21.1576C133.387 21.1576 133.861 21.0979 134.453 20.9786L134.742 20.9189L134.698 21.6498C134.009 21.8661 133.365 21.9705 132.758 21.9705C131.219 21.9705 130.441 21.2247 130.441 19.7257C130.441 18.1894 130.76 16.8843 131.396 15.7954C131.715 15.2585 132.144 14.8334 132.662 14.5127C133.18 14.1995 133.728 14.0428 134.305 14.0428C134.883 14.0503 135.43 14.11 135.971 14.2293Z" fill="white"/>
<path d="M141.071 14.0504C141.634 14.0504 142.07 14.2219 142.374 14.5501C142.677 14.8857 142.825 15.3182 142.825 15.8403C142.825 16.3623 142.722 17.0708 142.522 17.9508L141.626 21.8214H140.731L141.626 17.9807C141.811 17.1976 141.9 16.5637 141.9 16.0715C141.9 15.2735 141.53 14.8708 140.782 14.8708C140.449 14.8708 140.072 15.0274 139.65 15.3481C139.228 15.6688 138.88 15.9894 138.621 16.3027L138.229 16.7874L137.081 21.8214H136.171L138.695 10.8137H139.598L138.48 15.6911C138.991 14.9976 139.591 14.5128 140.264 14.2294C140.546 14.1101 140.812 14.0504 141.071 14.0504Z" fill="white"/>
<path d="M148.54 14.0508C149.117 14.0508 149.554 14.2223 149.857 14.5505C150.161 14.8861 150.309 15.3186 150.309 15.8481C150.309 16.3776 150.205 17.0637 150.006 17.9214L149.095 21.8218H148.199L149.095 17.981C149.288 17.1607 149.384 16.5268 149.384 16.0718C149.384 15.2739 149.006 14.8711 148.251 14.8711C147.918 14.8711 147.541 15.0278 147.119 15.341C146.697 15.6542 146.349 15.9749 146.09 16.303L145.712 16.7729L144.55 21.8218H143.64L145.394 14.1999H146.275L145.957 15.6766C146.46 14.9979 147.059 14.5132 147.755 14.2298C148.022 14.1104 148.288 14.0508 148.54 14.0508Z" fill="white"/>
<path d="M155.306 14.0656C157.001 14.0656 157.845 14.9083 157.845 16.5788C157.845 18.0779 157.489 19.3531 156.779 20.4047C156.068 21.4488 155.135 21.9783 153.988 21.9783C152.337 21.9783 151.508 21.1728 151.508 19.5694C151.508 18.0555 151.871 16.7578 152.589 15.6839C153.307 14.6025 154.21 14.0656 155.306 14.0656ZM153.988 21.1654C154.854 21.1654 155.565 20.7179 156.105 19.8155C156.653 18.9131 156.919 17.8317 156.919 16.5639C156.919 16.0493 156.786 15.6317 156.512 15.3185C156.238 15.0127 155.839 14.8561 155.306 14.8561C154.469 14.8561 153.773 15.3259 153.233 16.2581C152.685 17.1904 152.419 18.2941 152.419 19.5694C152.411 20.6359 152.937 21.1654 153.988 21.1654Z" fill="white"/>
<path d="M158.674 21.8214L161.198 10.8137H162.093L159.569 21.8214H158.674Z" fill="white"/>
<path d="M165.905 14.0656C167.601 14.0656 168.444 14.9083 168.444 16.5788C168.444 18.0779 168.089 19.3531 167.379 20.4047C166.668 21.4488 165.735 21.9783 164.588 21.9783C162.937 21.9783 162.108 21.1728 162.108 19.5694C162.108 18.0555 162.471 16.7578 163.189 15.6839C163.914 14.6025 164.817 14.0656 165.905 14.0656ZM164.588 21.1654C165.454 21.1654 166.165 20.7179 166.705 19.8155C167.253 18.9131 167.519 17.8317 167.519 16.5639C167.519 16.0493 167.386 15.6317 167.112 15.3185C166.838 15.0127 166.438 14.8561 165.905 14.8561C165.069 14.8561 164.373 15.3259 163.833 16.2581C163.293 17.1904 163.019 18.2941 163.019 19.5694C163.019 20.6359 163.537 21.1654 164.588 21.1654Z" fill="white"/>
<path d="M171.02 25.4384C170.236 25.4384 169.606 25.2594 169.155 24.894C168.696 24.5285 168.467 24.0512 168.467 23.4546C168.467 22.5895 169.148 21.7915 170.51 21.0606C170.354 20.904 170.28 20.7176 170.28 20.4789C170.28 20.2477 170.347 20.0016 170.48 19.7555C170.613 19.502 170.746 19.3081 170.887 19.1664L171.087 18.9352C170.391 18.6219 170.043 18.0477 170.043 17.2199C170.043 16.3921 170.317 15.6537 170.865 15.0124C171.413 14.3635 172.145 14.0428 173.063 14.0428C173.53 14.0428 173.929 14.1025 174.255 14.2293L174.425 14.289L176.661 14.1995L176.476 15.0049H175.01C175.203 15.3032 175.299 15.6686 175.299 16.1161C175.299 16.8768 175.017 17.5778 174.462 18.2192C173.9 18.8606 173.115 19.1813 172.108 19.1813L171.657 19.1514C171.302 19.5989 171.131 19.942 171.131 20.1806C171.131 20.4193 171.228 20.5759 171.413 20.6505C171.598 20.725 172.042 20.8071 172.745 20.8966C173.448 20.9861 173.974 21.1576 174.314 21.4186C174.662 21.6871 174.84 22.0973 174.84 22.6566C174.84 23.4099 174.492 24.0587 173.796 24.6106C173.093 25.1624 172.168 25.4384 171.02 25.4384ZM169.836 22.2464C169.503 22.5671 169.34 22.9251 169.34 23.3054C169.34 23.6858 169.488 24.0065 169.792 24.26C170.095 24.5136 170.584 24.6404 171.25 24.6404C171.923 24.6404 172.538 24.4614 173.093 24.1034C173.655 23.7455 173.937 23.2831 173.937 22.7163C173.937 22.3732 173.818 22.1271 173.589 21.978C173.359 21.8288 172.923 21.7169 172.293 21.6498C171.664 21.5752 171.235 21.5007 171.013 21.4037C170.569 21.6424 170.169 21.9258 169.836 22.2464ZM172.227 18.4057C172.93 18.4057 173.478 18.167 173.863 17.6823C174.248 17.1975 174.44 16.7202 174.44 16.2429C174.44 15.7656 174.329 15.4151 174.107 15.1839C173.885 14.9527 173.493 14.8408 172.923 14.8408C172.353 14.8408 171.879 15.0795 171.494 15.5642C171.109 16.049 170.917 16.5561 170.917 17.1005C170.917 17.9731 171.353 18.4057 172.227 18.4057Z" fill="white"/>
<path d="M176.209 21.8212L177.964 14.1993H178.874L177.12 21.8212H176.209ZM178.356 12.4318L178.645 11.2162H179.555L179.281 12.4318H178.356Z" fill="white"/>
<path d="M180.488 19.6733C180.488 20.1283 180.628 20.4937 180.902 20.7547C181.184 21.0158 181.517 21.15 181.924 21.15C182.701 21.15 183.441 21.0605 184.144 20.8741L184.507 20.7696L184.448 21.5154C183.567 21.8212 182.731 21.9704 181.939 21.9704C180.355 21.9704 179.562 21.2171 179.562 19.7106C179.562 18.3309 179.888 17.0631 180.547 15.9146C180.858 15.3553 181.28 14.9078 181.82 14.5647C182.353 14.2291 182.96 14.0576 183.634 14.0576C185.055 14.0576 185.766 14.6393 185.766 15.7953C185.766 16.6902 185.425 17.3167 184.737 17.6747C184.048 18.0326 182.975 18.2191 181.517 18.2191H180.665C180.547 18.7337 180.488 19.2184 180.488 19.6733ZM181.702 17.4808C182.812 17.4808 183.619 17.3614 184.115 17.1228C184.611 16.8841 184.862 16.4441 184.862 15.8027C184.862 15.1614 184.441 14.8407 183.589 14.8407C182.272 14.8407 181.339 15.7207 180.806 17.4808H181.702Z" fill="white"/>
<path d="M192.198 15.0719C191.258 14.9302 190.488 14.8556 189.881 14.8556C189.274 14.8556 188.8 15.0197 188.445 15.3404C188.09 15.6685 187.919 16.0563 187.919 16.5112C187.919 16.7872 188.016 16.9885 188.216 17.1228C188.415 17.257 188.852 17.3987 189.533 17.5628C190.214 17.7269 190.71 17.9133 191.014 18.1296C191.324 18.3459 191.473 18.7113 191.473 19.2259C191.473 20.1134 191.169 20.792 190.562 21.2619C189.955 21.7317 189.17 21.9704 188.223 21.9704C187.527 21.9704 186.854 21.8883 186.21 21.7242L185.876 21.6497L186.047 20.9188C186.972 21.0829 187.749 21.1649 188.378 21.1649C189 21.1649 189.526 21.0158 189.933 20.7249C190.347 20.4266 190.555 19.994 190.555 19.4123C190.555 19.0916 190.451 18.8604 190.236 18.7337C190.022 18.6069 189.585 18.4652 188.919 18.3086C188.253 18.152 187.771 17.9655 187.468 17.7418C187.164 17.5255 187.016 17.1824 187.016 16.7126C187.016 15.937 187.29 15.3031 187.838 14.8034C188.386 14.3037 189.089 14.0576 189.948 14.0576C190.614 14.0576 191.31 14.1247 192.035 14.259L192.398 14.3336L192.198 15.0719Z" fill="white"/>
<path d="M195.869 15.214C195.411 14.7293 195.188 14.1327 195.188 13.4316C195.188 12.7231 195.418 12.1265 195.869 11.6417C196.328 11.157 196.898 10.9183 197.594 10.9183C198.29 10.9183 198.86 11.157 199.319 11.6492C199.778 12.134 200 12.7306 200 13.4391C200 14.1476 199.778 14.7367 199.319 15.2215C198.867 15.7062 198.29 15.9449 197.594 15.9449C196.898 15.9449 196.321 15.6988 195.869 15.214ZM196.136 11.9028C195.751 12.3204 195.551 12.8275 195.551 13.4242C195.551 14.0208 195.744 14.5279 196.136 14.9456C196.521 15.3632 197.009 15.572 197.594 15.572C198.179 15.572 198.66 15.3632 199.052 14.9456C199.445 14.5279 199.637 14.0208 199.637 13.4242C199.637 12.8275 199.437 12.3129 199.045 11.8953C198.653 11.4777 198.164 11.2689 197.587 11.2689C197.009 11.2689 196.521 11.4851 196.136 11.9028ZM197.046 13.797V14.8337H196.602V12.0445H197.55C197.905 12.0445 198.172 12.1116 198.342 12.2384C198.512 12.3651 198.601 12.5963 198.601 12.9096C198.601 13.3496 198.431 13.633 198.105 13.7448L198.653 14.8337H198.172L197.676 13.797H197.046ZM197.039 12.4248V13.4167H197.661C197.846 13.4167 197.979 13.3794 198.053 13.3048C198.127 13.2303 198.172 13.1035 198.172 12.917C198.172 12.7306 198.12 12.6038 198.016 12.5292C197.912 12.4546 197.757 12.4174 197.542 12.4174H197.039V12.4248Z" fill="white"/>
</svg>
